<?xml version="1.0" encoding="iso-8859-1"?>
<!-- Generator: Adobe Illustrator 16.0.0, SVG Export Plug-In . SVG Version: 6.00 Build 0)  -->
<!DOCTYPE svg PUBLIC "-//W3C//DTD SVG 1.1//EN" "http://www.w3.org/Graphics/SVG/1.1/DTD/svg11.dtd">
<svg version="1.1" id="Capa_1" xmlns="http://www.w3.org/2000/svg" xmlns:xlink="http://www.w3.org/1999/xlink" x="0px" y="0px"
	 width="34.836px" height="34.836px" viewBox="0 0 34.836 34.836" style="enable-background:new 0 0 34.836 34.836;"
	 xml:space="preserve">
<g>
	<path d="M30.488,12.207l2.02-1.164V8.714l-2.02-1.166l-2.016,1.165v0.198l-9.208-5.316l0.175-0.101l0.002-2.329L17.422,0
		l-2.018,1.164l-0.002,2.329l0.175,0.101l-9.21,5.31V8.705L4.351,7.54L2.332,8.704v2.33l2.017,1.165l0.175-0.101L4.522,22.73
		l-0.175-0.103l-2.019,1.166v2.328l2.017,1.165l2.019-1.164v-0.201l9.208,5.319l-0.177,0.101v2.329l2.018,1.165l2.019-1.164v-2.328
		l-0.176-0.102l9.209-5.311v0.197l2.019,1.165l2.017-1.163l0.004-2.329l-2.019-1.166l-0.173,0.101l0.002-10.633L30.488,12.207z
		 M5.847,23.494l-0.282-0.162l0.004-11.835l0.28-0.161l6.692,3.865l-2.737,0.732c-0.279,0.074-0.443,0.359-0.369,0.638
		c0.063,0.231,0.275,0.387,0.502,0.387c0.045,0,0.09-0.007,0.135-0.019l3.744-1l2.562,1.478l-2.562,1.479l-3.741-1.005
		c-0.279-0.073-0.563,0.089-0.639,0.369c-0.073,0.277,0.091,0.563,0.369,0.638l2.737,0.734L5.847,23.494z M16.897,21.277
		l-2.741,2.74c-0.204,0.203-0.204,0.534,0,0.736c0.203,0.202,0.533,0.202,0.736,0l2.004-2.004l-0.002,7.729l-0.281,0.162
		L6.366,24.719v-0.321l6.691-3.861l-0.732,2.734c-0.073,0.276,0.092,0.563,0.369,0.637c0.045,0.013,0.089,0.019,0.135,0.019
		c0.231,0,0.44-0.152,0.503-0.387l1.001-3.741l2.564-1.479V21.277z M16.9,12.086l-2.004-2.006c-0.204-0.204-0.534-0.204-0.737,0
		c-0.203,0.203-0.203,0.533,0,0.736l2.74,2.742l-0.001,2.957l-2.562-1.48l-1.002-3.743c-0.076-0.278-0.364-0.442-0.638-0.369
		c-0.278,0.074-0.443,0.36-0.369,0.637l0.732,2.735l-6.691-3.865v-0.327l10.252-5.91l0.282,0.162L16.9,12.086z M17.941,13.558
		l2.739-2.739c0.203-0.203,0.203-0.533,0-0.736s-0.533-0.203-0.736,0l-2.002,2.001l0.002-7.727l0.281-0.161l10.248,5.916v0.327
		l-6.695,3.863l0.734-2.737c0.074-0.277-0.09-0.563-0.367-0.637c-0.281-0.073-0.563,0.089-0.639,0.369L20.5,15.038l-2.561,1.478
		L17.941,13.558z M28.463,24.729l-10.249,5.912l-0.281-0.161l0.002-7.727l2.001,2.004c0.104,0.102,0.236,0.151,0.369,0.151
		s0.267-0.051,0.37-0.151c0.202-0.203,0.202-0.533,0-0.736l-2.737-2.742l0.001-2.959l2.559,1.479l1.003,3.743
		c0.064,0.234,0.274,0.387,0.503,0.387c0.045,0,0.09-0.004,0.134-0.018c0.279-0.074,0.444-0.359,0.37-0.638l-0.732-2.736
		l6.691,3.866L28.463,24.729z M29.27,23.34l-0.283,0.161l-6.691-3.866l2.738-0.73c0.278-0.073,0.443-0.359,0.368-0.637
		c-0.075-0.276-0.356-0.446-0.636-0.368l-3.746,0.999l-2.56-1.479l2.562-1.479l3.741,1.004c0.048,0.013,0.093,0.018,0.138,0.018
		c0.229,0,0.439-0.154,0.501-0.387c0.073-0.278-0.09-0.563-0.368-0.637l-2.736-0.734l6.693-3.862l0.281,0.162L29.27,23.34z"/>
</g>
<g>
</g>
<g>
</g>
<g>
</g>
<g>
</g>
<g>
</g>
<g>
</g>
<g>
</g>
<g>
</g>
<g>
</g>
<g>
</g>
<g>
</g>
<g>
</g>
<g>
</g>
<g>
</g>
<g>
</g>
</svg>
