<?xml version="1.0" encoding="iso-8859-1"?>
<!-- Generator: Adobe Illustrator 16.0.0, SVG Export Plug-In . SVG Version: 6.00 Build 0)  -->
<!DOCTYPE svg PUBLIC "-//W3C//DTD SVG 1.1//EN" "http://www.w3.org/Graphics/SVG/1.1/DTD/svg11.dtd">
<svg version="1.1" id="Capa_1" xmlns="http://www.w3.org/2000/svg" xmlns:xlink="http://www.w3.org/1999/xlink" x="0px" y="0px"
	 width="38.725px" height="38.725px" viewBox="0 0 38.725 38.725" style="enable-background:new 0 0 38.725 38.725;"
	 xml:space="preserve">
<g>
	<path d="M21.842,16.11l-0.3-0.521h-0.601l-3.145-0.001h-0.601l-0.301,0.521l-1.574,2.723l-0.301,0.521l0.3,0.521l1.573,2.725
		l0.3,0.521h0.603h3.146h0.6l0.3-0.521l1.572-2.725l0.3-0.521l-0.301-0.521L21.842,16.11z M18.398,22.077h-0.602l-0.3-0.519
		l-0.974-1.682l-0.299-0.521l0.301-0.521l0.973-1.683l0.3-0.521h0.601l1.94,0.001h0.6l0.301,0.521l0.972,1.681l0.301,0.521
		l-0.299,0.521l-0.973,1.682l-0.3,0.521h-0.6H18.398L18.398,22.077z M35.976,16.398L35.976,16.398
		c-1.386,0.022-2.502,1.088-2.639,2.434h-1.754l0.849-1.471c0.145-0.249,0.059-0.567-0.192-0.711s-0.567-0.059-0.713,0.19
		l-1.149,1.992h-2.133l2.301-3.986c0.146-0.249,0.061-0.567-0.19-0.711c-0.246-0.143-0.568-0.059-0.711,0.19l-2.603,4.507h-0.627
		l-3.076-5.328l0.314-0.542h5.203c0.289,0,0.521-0.233,0.521-0.521c0-0.287-0.232-0.521-0.521-0.521h-4.602l1.063-1.846h2.301
		c0.287,0,0.521-0.233,0.521-0.521c0-0.288-0.233-0.521-0.521-0.521h-1.699l0.884-1.526c0.346,0.155,0.715,0.259,1.097,0.259
		c0.948,0,1.839-0.505,2.325-1.319c0.765-1.282,0.343-2.948-0.936-3.711c-1.238-0.738-2.974-0.296-3.712,0.936
		c-0.633,1.063-0.443,2.383,0.368,3.24l-0.924,1.601l-0.851-1.472c-0.144-0.25-0.462-0.333-0.712-0.19
		c-0.248,0.144-0.333,0.462-0.191,0.711l1.151,1.993l-1.065,1.845l-2.302-3.985c-0.145-0.25-0.463-0.335-0.713-0.19
		c-0.248,0.144-0.333,0.462-0.19,0.711l2.601,4.506l-0.313,0.543l-6.15-0.001l-0.312-0.541l2.602-4.508
		c0.145-0.249,0.059-0.568-0.191-0.711c-0.249-0.143-0.568-0.06-0.712,0.19l-2.302,3.987l-1.063-1.845l1.15-1.995
		c0.144-0.249,0.06-0.567-0.192-0.711c-0.252-0.145-0.57-0.058-0.713,0.192l-0.847,1.473l-0.89-1.541
		c0.405-0.35,0.694-0.811,0.836-1.34c0.187-0.699,0.091-1.429-0.27-2.055c-0.719-1.244-2.447-1.712-3.699-0.991
		C8.39,3.334,7.945,4.993,8.692,6.285c0.482,0.835,1.381,1.354,2.347,1.354c0.297,0,0.585-0.066,0.866-0.162l0.897,1.554h-1.699
		c-0.286,0-0.521,0.233-0.521,0.521c0,0.287,0.234,0.521,0.521,0.521l2.299,0.001l1.066,1.845h-4.6
		c-0.286,0-0.521,0.233-0.521,0.521s0.235,0.521,0.521,0.521h5.201l0.313,0.542l-3.077,5.329h-0.625l-2.603-4.507
		c-0.146-0.251-0.462-0.335-0.711-0.19c-0.249,0.144-0.334,0.462-0.192,0.711l2.302,3.986H8.342l-1.15-1.992
		c-0.145-0.25-0.461-0.335-0.713-0.19c-0.248,0.144-0.333,0.462-0.19,0.711l0.849,1.471H5.289c-0.336-1.115-1.371-1.938-2.623-1.938
		c-0.002,0-0.002,0-0.002,0c-0.722,0.012-1.398,0.304-1.9,0.823C0.26,18.237-0.011,18.92,0,19.642
		c0.021,1.472,1.237,2.668,2.709,2.668h0.039c0.722-0.014,1.4-0.304,1.902-0.824c0.429-0.442,0.677-1.008,0.738-1.611h1.752
		l-0.849,1.47c-0.144,0.25-0.059,0.569,0.191,0.713c0.083,0.047,0.172,0.068,0.26,0.068c0.181,0,0.355-0.094,0.453-0.26l1.149-1.991
		h2.134l-2.302,3.984c-0.145,0.248-0.059,0.567,0.19,0.711c0.083,0.047,0.173,0.07,0.261,0.07c0.18,0,0.356-0.094,0.452-0.26
		l2.603-4.506h0.624l3.075,5.327l-0.312,0.54H9.869c-0.287,0-0.521,0.234-0.521,0.521s0.234,0.521,0.521,0.521h4.601l-1.065,1.846
		h-2.299c-0.287,0-0.521,0.233-0.521,0.521s0.233,0.521,0.521,0.521h1.7l-0.879,1.521c-1.204-0.525-2.745-0.071-3.426,1.065
		c-0.37,0.621-0.478,1.347-0.301,2.049c0.178,0.702,0.617,1.292,1.238,1.662c0.419,0.253,0.898,0.385,1.385,0.385
		c0.948,0,1.84-0.505,2.325-1.318c0.371-0.62,0.478-1.349,0.301-2.051c-0.113-0.458-0.35-0.86-0.665-1.193l0.923-1.602l0.85,1.474
		c0.096,0.168,0.273,0.26,0.452,0.26c0.087,0,0.177-0.021,0.26-0.067c0.249-0.146,0.334-0.464,0.191-0.714l-1.15-1.993l1.064-1.845
		l2.302,3.986c0.096,0.166,0.273,0.26,0.452,0.26c0.087,0,0.177-0.022,0.26-0.069c0.248-0.145,0.333-0.463,0.191-0.712l-2.601-4.506
		l0.311-0.542h6.153l0.312,0.542l-2.6,4.506c-0.145,0.248-0.06,0.567,0.192,0.71c0.081,0.047,0.171,0.071,0.26,0.071
		c0.18,0,0.354-0.096,0.451-0.26l2.301-3.986l1.065,1.846l-1.15,1.991c-0.145,0.249-0.06,0.568,0.191,0.712
		c0.082,0.047,0.171,0.069,0.261,0.069c0.179,0,0.354-0.095,0.451-0.26l0.849-1.472l0.89,1.541
		c-0.957,0.832-1.227,2.254-0.567,3.394c0.481,0.836,1.381,1.354,2.346,1.354c0.472,0,0.939-0.126,1.351-0.364
		c0.628-0.361,1.074-0.944,1.262-1.644c0.188-0.698,0.091-1.429-0.271-2.055c-0.629-1.09-2.035-1.585-3.217-1.203l-0.893-1.544
		h1.701c0.287,0,0.521-0.233,0.521-0.521s-0.233-0.521-0.521-0.521l-2.301-0.002l-1.066-1.845h4.604
		c0.286,0,0.521-0.233,0.521-0.521s-0.234-0.521-0.521-0.521h-5.205l-0.312-0.54l3.076-5.329h0.624l2.604,4.507
		c0.096,0.169,0.271,0.261,0.451,0.261c0.09,0,0.18-0.021,0.261-0.068c0.248-0.146,0.334-0.464,0.191-0.713l-2.304-3.986h2.136
		l1.15,1.992c0.096,0.169,0.271,0.261,0.449,0.261c0.09,0,0.18-0.021,0.261-0.068c0.25-0.146,0.336-0.462,0.191-0.713l-0.848-1.472
		h1.848c0.336,1.115,1.367,1.939,2.583,1.939h0.038c1.493-0.023,2.688-1.257,2.667-2.749C38.703,17.594,37.49,16.398,35.976,16.398z
		 M26.478,4.208c0.304-0.508,0.84-0.812,1.433-0.812c0.021,0,0.043,0.009,0.065,0.01c0.274,0.011,0.546,0.084,0.785,0.227
		c0.063,0.038,0.115,0.084,0.173,0.128c0.646,0.51,0.837,1.43,0.405,2.155c-0.407,0.679-1.285,0.967-2.017,0.701
		c-0.093-0.034-0.185-0.073-0.271-0.125c-0.231-0.139-0.41-0.328-0.544-0.543C26.184,5.434,26.146,4.763,26.478,4.208z M9.603,5.767
		c-0.37-0.644-0.256-1.43,0.22-1.952c0.111-0.123,0.239-0.235,0.389-0.323c0.149-0.085,0.31-0.14,0.475-0.177
		c0.117-0.026,0.238-0.046,0.356-0.046c0.595,0,1.149,0.319,1.446,0.833c0.222,0.385,0.282,0.834,0.165,1.264
		c-0.066,0.255-0.199,0.48-0.369,0.673c-0.116,0.13-0.249,0.249-0.406,0.338c-0.155,0.091-0.326,0.143-0.499,0.174
		C10.698,6.677,9.954,6.376,9.603,5.767z M1.08,19.842c-0.01-0.071-0.023-0.141-0.024-0.214c-0.004-0.283,0.067-0.552,0.196-0.794
		c0.073-0.14,0.161-0.273,0.275-0.39c0.309-0.32,0.724-0.499,1.194-0.507c0.635,0,1.188,0.367,1.467,0.896
		c0.118,0.225,0.196,0.477,0.198,0.745c0.002,0.101-0.01,0.198-0.024,0.297c-0.054,0.331-0.205,0.64-0.446,0.887
		c-0.31,0.318-0.726,0.499-1.169,0.507l-0.023,0.519V21.27C1.891,21.268,1.199,20.645,1.08,19.842z M12.445,33.238
		c0.108,0.434,0.043,0.883-0.187,1.265c-0.309,0.514-0.902,0.798-1.49,0.787c-0.277-0.004-0.55-0.066-0.794-0.213
		c-0.062-0.039-0.116-0.084-0.173-0.129c-0.288-0.226-0.498-0.534-0.588-0.895c-0.108-0.432-0.042-0.879,0.188-1.26
		c0.297-0.5,0.846-0.812,1.432-0.812c0.198,0,0.391,0.049,0.576,0.118c0.094,0.034,0.189,0.064,0.275,0.116
		c0.229,0.136,0.412,0.325,0.547,0.543C12.323,32.906,12.4,33.065,12.445,33.238z M27.69,32.107c0.594,0,1.149,0.32,1.445,0.833
		c0.222,0.386,0.282,0.834,0.166,1.264c-0.07,0.263-0.207,0.492-0.385,0.688c-0.113,0.123-0.239,0.238-0.392,0.323
		c-0.147,0.086-0.307,0.136-0.467,0.169c-0.688,0.143-1.451-0.158-1.806-0.777c-0.369-0.637-0.259-1.416,0.205-1.937
		c0.114-0.128,0.244-0.246,0.403-0.336c0.155-0.091,0.324-0.145,0.499-0.181C27.467,32.13,27.578,32.107,27.69,32.107z
		 M22.445,24.681h-0.601h-4.95h-0.602l-0.299-0.519l-2.477-4.286l-0.3-0.521l0.301-0.521l2.476-4.287l0.301-0.521h0.6l4.948,0.001
		h0.601l0.301,0.521l2.474,4.285l0.301,0.521l-0.3,0.521l-2.474,4.286L22.445,24.681z M34.548,19.875
		c-0.117-0.224-0.194-0.474-0.196-0.744c-0.001-0.103,0.01-0.2,0.024-0.297c0.131-0.778,0.804-1.38,1.643-1.393
		c0.83,0,1.52,0.624,1.638,1.426c0.01,0.071,0.021,0.141,0.022,0.215c0.004,0.286-0.069,0.555-0.195,0.793
		c-0.277,0.522-0.814,0.887-1.443,0.896l-0.023,0.519v-0.519C35.381,20.772,34.831,20.406,34.548,19.875z"/>
</g>
<g>
</g>
<g>
</g>
<g>
</g>
<g>
</g>
<g>
</g>
<g>
</g>
<g>
</g>
<g>
</g>
<g>
</g>
<g>
</g>
<g>
</g>
<g>
</g>
<g>
</g>
<g>
</g>
<g>
</g>
</svg>
