<?xml version="1.0" encoding="iso-8859-1"?>
<!-- Generator: Adobe Illustrator 16.0.0, SVG Export Plug-In . SVG Version: 6.00 Build 0)  -->
<!DOCTYPE svg PUBLIC "-//W3C//DTD SVG 1.1//EN" "http://www.w3.org/Graphics/SVG/1.1/DTD/svg11.dtd">
<svg version="1.1" id="Capa_1" xmlns="http://www.w3.org/2000/svg" xmlns:xlink="http://www.w3.org/1999/xlink" x="0px" y="0px"
	 width="32.821px" height="32.821px" viewBox="0 0 32.821 32.821" style="enable-background:new 0 0 32.821 32.821;"
	 xml:space="preserve">
<g>
	<path d="M32.043,15.628h-2.271l1.425-1.425c0.305-0.306,0.305-0.8,0-1.105c-0.306-0.305-0.801-0.305-1.105,0l-2.53,2.53h-2.802
		l3.248-3.249c0.306-0.305,0.306-0.8,0-1.105c-0.305-0.305-0.801-0.305-1.105,0l-4.278,4.28v-4.25l5.813-5.812
		c0.305-0.305,0.305-0.8,0-1.105c-0.306-0.305-0.801-0.305-1.106,0l-5.812,5.813h-4.321v-0.175l4.533-4.532
		c0.306-0.305,0.306-0.8,0-1.105c-0.305-0.305-0.801-0.305-1.105,0l-3.428,3.427V5.522l2.531-2.53c0.306-0.305,0.306-0.8,0-1.105
		c-0.305-0.305-0.801-0.305-1.105,0l-1.426,1.424V0.781C17.196,0.35,16.847,0,16.416,0s-0.781,0.35-0.781,0.781v2.531l-1.425-1.424
		c-0.305-0.305-0.799-0.305-1.104,0c-0.306,0.305-0.306,0.8,0,1.105l2.53,2.53v2.291l-3.427-3.427c-0.305-0.305-0.8-0.305-1.105,0
		s-0.305,0.8,0,1.105l4.532,4.532v0.175h-4.322L5.5,4.386c-0.305-0.305-0.8-0.305-1.105,0s-0.305,0.8,0,1.105l5.812,5.811v4.25
		l-4.277-4.278c-0.305-0.305-0.8-0.305-1.105,0s-0.305,0.8,0,1.105l3.248,3.249h-2.28l-2.531-2.53c-0.305-0.305-0.8-0.305-1.105,0
		c-0.305,0.306-0.305,0.8,0,1.105l1.424,1.425H0.789c-0.432,0-0.781,0.35-0.781,0.781c0,0.432,0.35,0.781,0.781,0.781H3.58
		l-1.424,1.424c-0.305,0.306-0.305,0.8,0,1.105c0.152,0.152,0.352,0.23,0.551,0.23c0.2,0,0.401-0.076,0.552-0.23l2.529-2.529H8.07
		l-3.248,3.249c-0.305,0.306-0.305,0.801,0,1.105c0.152,0.152,0.352,0.23,0.552,0.23s0.4-0.076,0.551-0.23l4.277-4.277v4.249
		l-5.812,5.811c-0.305,0.306-0.305,0.801,0,1.106c0.152,0.151,0.352,0.229,0.551,0.229c0.201,0,0.401-0.075,0.553-0.229l5.812-5.812
		h4.321v0.175l-4.533,4.531c-0.305,0.306-0.305,0.802,0,1.107c0.305,0.305,0.801,0.305,1.106,0l3.427-3.428v2.291l-2.531,2.53
		c-0.305,0.305-0.305,0.802,0,1.106c0.305,0.306,0.801,0.306,1.106,0l1.425-1.425v2.53c0,0.432,0.35,0.781,0.781,0.781
		c0.432,0,0.781-0.35,0.781-0.781v-2.53l1.426,1.425c0.151,0.151,0.352,0.229,0.552,0.229c0.198,0,0.398-0.076,0.551-0.229
		c0.305-0.305,0.305-0.802,0-1.106l-2.53-2.53v-2.291l3.427,3.429c0.152,0.151,0.353,0.23,0.551,0.23c0.2,0,0.401-0.077,0.554-0.23
		c0.305-0.306,0.305-0.801,0-1.106l-4.533-4.532v-0.175h4.321l5.812,5.812c0.151,0.152,0.352,0.229,0.552,0.229
		c0.199,0,0.399-0.077,0.551-0.229c0.307-0.306,0.307-0.8,0-1.105l-5.806-5.816v-4.247l4.28,4.279
		c0.151,0.153,0.352,0.229,0.551,0.229c0.2,0,0.401-0.074,0.552-0.229c0.305-0.305,0.305-0.8,0-1.105l-3.248-3.249h2.801l2.53,2.53
		c0.153,0.152,0.353,0.228,0.552,0.228s0.4-0.074,0.551-0.228c0.306-0.306,0.306-0.801,0-1.106l-1.424-1.425h2.271
		c0.432,0,0.781-0.35,0.781-0.781C32.814,15.977,32.474,15.628,32.043,15.628z M21.062,19.948v1.106h-1.105h-2.758h-1.563h-2.758
		h-1.106V19.95v-2.76v-1.562v-2.762v-1.103h1.106h2.758h1.563h2.758h1.105v1.105v2.76v1.562V19.948z"/>
</g>
<g>
</g>
<g>
</g>
<g>
</g>
<g>
</g>
<g>
</g>
<g>
</g>
<g>
</g>
<g>
</g>
<g>
</g>
<g>
</g>
<g>
</g>
<g>
</g>
<g>
</g>
<g>
</g>
<g>
</g>
</svg>
