<?xml version="1.0" encoding="iso-8859-1"?>
<!-- Generator: Adobe Illustrator 16.0.0, SVG Export Plug-In . SVG Version: 6.00 Build 0)  -->
<!DOCTYPE svg PUBLIC "-//W3C//DTD SVG 1.1//EN" "http://www.w3.org/Graphics/SVG/1.1/DTD/svg11.dtd">
<svg version="1.1" id="Capa_1" xmlns="http://www.w3.org/2000/svg" xmlns:xlink="http://www.w3.org/1999/xlink" x="0px" y="0px"
	 width="32.794px" height="32.794px" viewBox="0 0 32.794 32.794" style="enable-background:new 0 0 32.794 32.794;"
	 xml:space="preserve">
<g>
	<path d="M31.39,16.393l1.01-3.764l-2.463-0.66l1.693-0.979c0.238-0.138,0.32-0.442,0.184-0.683
		c-0.139-0.239-0.441-0.322-0.684-0.184l-2.188,1.264l-0.938-0.541l-1.938,1.121l5.106,1.367l-0.193,0.726l-6.855-1.838l3.406-1.968
		c0.119-0.068,0.16-0.223,0.094-0.342c-0.07-0.121-0.228-0.158-0.344-0.092l-3.404,1.967l1.836-6.854l0.726,0.194l-1.369,5.105
		l1.94-1.119V8.031l2.186-1.263c0.239-0.138,0.321-0.442,0.184-0.683c-0.139-0.239-0.443-0.322-0.684-0.184l-1.691,0.977l0.66-2.461
		l-3.768-1.009l-2.759-2.756l-1.804,1.802V0.5c0-0.276-0.224-0.5-0.5-0.5c-0.274,0-0.5,0.224-0.5,0.5v2.522l-0.937,0.541v2.239
		l3.737-3.737l0.531,0.53l-5.021,5.02V3.679c0-0.139-0.111-0.25-0.25-0.25s-0.25,0.111-0.25,0.25v3.936l-5.02-5.02l0.53-0.53
		l3.738,3.737V3.563l-0.937-0.541V0.5c0-0.276-0.225-0.5-0.5-0.5c-0.276,0-0.5,0.224-0.5,0.5v1.953l-1.799-1.801L8.898,3.41
		L5.13,4.419l0.66,2.461L4.099,5.903C3.861,5.765,3.552,5.847,3.416,6.087C3.275,6.325,3.357,6.632,3.599,6.77l2.187,1.263v1.082
		l1.94,1.119L6.356,5.129l0.726-0.194l1.836,6.854L5.514,9.822C5.396,9.756,5.242,9.793,5.17,9.914
		c-0.067,0.119-0.026,0.272,0.093,0.342l3.407,1.968l-6.856,1.838l-0.194-0.726l5.107-1.367l-1.939-1.121l-0.938,0.541l-2.188-1.264
		c-0.238-0.138-0.545-0.057-0.683,0.184c-0.14,0.238-0.058,0.545,0.183,0.683l1.694,0.979l-2.463,0.66l1.01,3.764l-1.009,3.768
		l2.462,0.659l-1.694,0.98c-0.238,0.137-0.32,0.442-0.183,0.682c0.092,0.16,0.26,0.25,0.433,0.25c0.086,0,0.172-0.021,0.25-0.066
		l2.188-1.262l0.937,0.541l1.94-1.121l-5.106-1.367l0.192-0.727l6.856,1.838l-3.407,1.969c-0.119,0.068-0.16,0.223-0.093,0.342
		c0.047,0.08,0.131,0.125,0.218,0.125c0.043,0,0.086-0.012,0.125-0.033l3.407-1.967l-1.838,6.854l-0.725-0.193l1.37-5.107
		l-1.94,1.123v1.078l-2.188,1.266c-0.239,0.138-0.321,0.441-0.184,0.683c0.137,0.239,0.442,0.319,0.684,0.185l1.693-0.979
		l-0.66,2.463l3.766,1.009l2.758,2.758l1.803-1.802v1.953c0,0.276,0.224,0.5,0.5,0.5c0.275,0,0.5-0.224,0.5-0.5v-2.522l0.937-0.541
		v-2.246l-3.738,3.74l-0.53-0.531l5.02-5.021v3.937c0,0.14,0.111,0.25,0.25,0.25c0.138,0,0.25-0.11,0.25-0.25v-3.937l5.02,5.021
		l-0.53,0.531l-3.737-3.74v2.242l0.938,0.541v2.521c0,0.275,0.225,0.5,0.5,0.5s0.5-0.225,0.5-0.5v-1.953l1.803,1.803l2.758-2.76
		l3.766-1.008l-0.66-2.463l1.693,0.979c0.239,0.139,0.547,0.059,0.684-0.184c0.14-0.238,0.058-0.545-0.184-0.684l-2.188-1.265
		v-1.082l-1.94-1.118l1.37,5.106l-0.725,0.194l-1.838-6.854l3.406,1.968c0.039,0.02,0.082,0.032,0.125,0.032
		c0.086,0,0.17-0.045,0.219-0.125c0.066-0.119,0.025-0.272-0.094-0.342l-3.406-1.97l6.855-1.836l0.191,0.726l-5.105,1.366
		l1.939,1.121l0.938-0.541l2.188,1.263c0.078,0.047,0.164,0.067,0.25,0.067c0.173,0,0.341-0.09,0.434-0.25
		c0.139-0.239,0.059-0.545-0.184-0.684l-1.693-0.979l2.462-0.66L31.39,16.393z M22.021,2.954l0.529,0.529l-5.151,5.153v6.026
		l5.222-3.014l1.885-7.039l0.727,0.194l-1.969,7.338l-6.612,3.817V8.325L22.021,2.954z M23.7,3.749l-1.939,7.244l-3.36,1.938V9.049
		L23.7,3.749z M7.567,4.805l0.726-0.194l1.887,7.039l5.22,3.015V8.638L10.25,3.485l0.529-0.53l5.372,5.373v7.637l-6.612-3.818
		L7.567,4.805z M9.097,3.749l5.302,5.303v3.881l-3.359-1.939L9.097,3.749z M1.946,18.247l0.193-0.724l7.04,1.886l5.219-3.014
		l-5.221-3.014l-7.037,1.886l-0.194-0.724l7.339-1.967l6.613,3.819l-6.611,3.816L1.946,18.247z M1.794,16.395l7.244-1.939
		l3.36,1.939L9.04,18.334L1.794,16.395z M10.776,29.836l-0.53-0.529l5.152-5.154v-6.024l-5.219,3.015l-1.887,7.039l-0.726-0.195
		l1.968-7.338l6.612-3.816v7.635L10.776,29.836z M9.099,29.041l1.94-7.242l3.358-1.939v3.882L9.099,29.041z M25.229,27.984
		l-0.728,0.195l-1.885-7.039l-5.22-3.016v6.025l5.151,5.154l-0.529,0.53l-5.372-5.375v-7.635l6.612,3.817L25.229,27.984z
		 M23.698,29.041l-5.3-5.303v-3.881l3.358,1.938L23.698,29.041z M23.509,20.211l-6.61-3.816l6.613-3.816l7.339,1.965l-0.194,0.725
		l-7.036-1.885l-5.222,3.013l5.22,3.013l7.039-1.885l0.193,0.725L23.509,20.211z M31.001,16.395l-7.244,1.939l-3.358-1.939
		l3.358-1.939L31.001,16.395z"/>
</g>
<g>
</g>
<g>
</g>
<g>
</g>
<g>
</g>
<g>
</g>
<g>
</g>
<g>
</g>
<g>
</g>
<g>
</g>
<g>
</g>
<g>
</g>
<g>
</g>
<g>
</g>
<g>
</g>
<g>
</g>
</svg>
