<?xml version="1.0" encoding="iso-8859-1"?>
<!-- Generator: Adobe Illustrator 16.0.0, SVG Export Plug-In . SVG Version: 6.00 Build 0)  -->
<!DOCTYPE svg PUBLIC "-//W3C//DTD SVG 1.1//EN" "http://www.w3.org/Graphics/SVG/1.1/DTD/svg11.dtd">
<svg version="1.1" id="Capa_1" xmlns="http://www.w3.org/2000/svg" xmlns:xlink="http://www.w3.org/1999/xlink" x="0px" y="0px"
	 width="31.001px" height="31px" viewBox="0 0 31.001 31" style="enable-background:new 0 0 31.001 31;" xml:space="preserve">
<g>
	<path d="M30.855,17.601L29.253,16h1.248c0.276,0,0.5-0.225,0.5-0.5s-0.224-0.5-0.5-0.5h-1.248l1.603-1.602
		c0.193-0.195,0.193-0.513,0-0.707c-0.195-0.195-0.514-0.195-0.707,0L27.839,15H24.6l-4.701-1.32l2.391-4.26l2.291-2.29l3.264-0.002
		c0.276,0,0.5-0.226,0.5-0.5c0-0.276-0.224-0.5-0.5-0.5l0,0l-2.263,0.001l0.882-0.882c0.195-0.195,0.195-0.513,0-0.707
		c-0.193-0.194-0.512-0.194-0.707,0l-0.881,0.881V3.159c0-0.276-0.225-0.5-0.5-0.5s-0.5,0.224-0.5,0.5v3.263L21.58,8.717
		l-4.256,2.389l-1.321-4.701V3.164l2.308-2.309c0.194-0.195,0.194-0.513,0-0.707c-0.194-0.195-0.513-0.195-0.707,0L16.003,1.75V0.5
		c0-0.275-0.224-0.5-0.5-0.5c-0.275,0-0.5,0.225-0.5,0.5v1.248l-1.602-1.602c-0.195-0.195-0.513-0.195-0.707,0
		c-0.195,0.194-0.195,0.512,0,0.707l2.309,2.309v3.242l-1.318,4.701L9.423,8.712L7.132,6.421L7.13,3.158c0-0.276-0.224-0.5-0.5-0.5
		l0,0c-0.275,0-0.5,0.225-0.5,0.5L6.131,5.42L5.249,4.539c-0.195-0.195-0.512-0.195-0.707,0c-0.195,0.195-0.195,0.512,0,0.707
		l0.882,0.882L3.159,6.128c-0.276,0-0.5,0.225-0.5,0.5s0.224,0.5,0.5,0.5l3.265-0.001l2.295,2.295l2.389,4.257l-4.701,1.319H3.165
		l-2.309-2.306c-0.195-0.195-0.513-0.195-0.708,0c-0.195,0.195-0.195,0.512,0,0.707l1.601,1.599H0.5c-0.275,0-0.5,0.224-0.5,0.5
		s0.225,0.5,0.5,0.5h1.248l-1.601,1.604c-0.195,0.193-0.195,0.512,0,0.707c0.098,0.098,0.226,0.146,0.354,0.146
		s0.256-0.05,0.354-0.146l2.309-2.311h3.241l4.701,1.319l-2.389,4.257l-2.295,2.294l-3.264,0.002c-0.276,0-0.5,0.225-0.5,0.5
		s0.224,0.5,0.5,0.5l0,0l2.263-0.001l-0.882,0.882c-0.195,0.195-0.195,0.513,0,0.707c0.099,0.099,0.227,0.146,0.354,0.146
		s0.256-0.049,0.354-0.146l0.883-0.883v2.265c0,0.276,0.225,0.5,0.5,0.5c0.276,0,0.5-0.224,0.5-0.5v-3.265l2.291-2.291l4.262-2.393
		l1.318,4.7v3.242l-2.307,2.31c-0.195,0.194-0.195,0.513,0,0.707c0.098,0.099,0.226,0.146,0.354,0.146s0.257-0.049,0.354-0.146
		l1.6-1.603V30.5c0,0.275,0.225,0.5,0.5,0.5c0.276,0,0.5-0.225,0.5-0.5v-1.248l1.604,1.603c0.193,0.194,0.512,0.194,0.707,0
		c0.193-0.194,0.193-0.513,0-0.707l-2.312-2.31v-3.241l1.319-4.701l4.256,2.39l2.295,2.296l0.002,3.262c0,0.276,0.225,0.5,0.5,0.5
		l0,0c0.275,0,0.5-0.225,0.5-0.5l-0.001-2.261l0.88,0.88c0.1,0.099,0.227,0.146,0.354,0.146s0.256-0.049,0.354-0.146
		c0.194-0.194,0.194-0.512,0-0.707l-0.882-0.882l2.265-0.001c0.276,0,0.5-0.225,0.5-0.5s-0.224-0.5-0.5-0.5l-3.265,0.001
		l-2.291-2.291l-2.391-4.261l4.701-1.319h3.24l2.311,2.307c0.098,0.098,0.226,0.146,0.354,0.146s0.256-0.049,0.354-0.146
		C31.05,18.11,31.05,17.794,30.855,17.601z M20.898,16l-2.496,0.701l1.271,2.266l0.903,1.609l-1.614-0.906l-2.262-1.27L16,20.895
		l-0.5,1.779L15,20.895l-0.7-2.494l-2.266,1.271l-1.61,0.903l0.906-1.613L12.6,16.7L10.105,16l-1.78-0.5l1.78-0.5l2.497-0.701
		l-1.27-2.262l-0.906-1.613l1.61,0.903l2.266,1.272l0.7-2.494l0.5-1.781l0.5,1.781l0.7,2.494l2.262-1.271l1.614-0.906l-0.903,1.609
		l-1.271,2.266l2.496,0.701l1.781,0.5L20.898,16z"/>
</g>
<g>
</g>
<g>
</g>
<g>
</g>
<g>
</g>
<g>
</g>
<g>
</g>
<g>
</g>
<g>
</g>
<g>
</g>
<g>
</g>
<g>
</g>
<g>
</g>
<g>
</g>
<g>
</g>
<g>
</g>
</svg>
