<?xml version="1.0" encoding="iso-8859-1"?>
<!-- Generator: Adobe Illustrator 16.0.0, SVG Export Plug-In . SVG Version: 6.00 Build 0)  -->
<!DOCTYPE svg PUBLIC "-//W3C//DTD SVG 1.1//EN" "http://www.w3.org/Graphics/SVG/1.1/DTD/svg11.dtd">
<svg version="1.1" id="Capa_1" xmlns="http://www.w3.org/2000/svg" xmlns:xlink="http://www.w3.org/1999/xlink" x="0px" y="0px"
	 width="31.506px" height="31.506px" viewBox="0 0 31.506 31.506" style="enable-background:new 0 0 31.506 31.506;"
	 xml:space="preserve">
<g>
	<path d="M30.753,15.002h-2.555l1.494-1.493c0.293-0.293,0.293-0.768,0-1.061c-0.293-0.293-0.77-0.293-1.062,0l-2.555,2.554h-2.072
		l3.29-3.289c0.293-0.293,0.293-0.768,0-1.061s-0.769-0.293-1.062,0l-3.574,3.574l-2.159-2.158l6.795-6.796
		c0.293-0.293,0.293-0.768,0-1.061s-0.769-0.293-1.062,0l-6.795,6.796l-2.039-2.039l3.283-3.283c0.293-0.293,0.293-0.768,0-1.061
		c-0.294-0.293-0.769-0.293-1.062,0L16.5,7.742V5.428l2.429-2.43c0.295-0.293,0.295-0.768,0-1.061c-0.293-0.293-0.768-0.293-1.061,0
		l-1.369,1.369V0.75c0-0.414-0.336-0.75-0.75-0.75s-0.75,0.336-0.75,0.75v2.554l-1.367-1.366c-0.293-0.293-0.768-0.293-1.061,0
		s-0.293,0.768,0,1.061l2.427,2.427v2.316l-3.119-3.118c-0.293-0.293-0.768-0.293-1.061,0s-0.293,0.768,0,1.061l3.283,3.282
		l-2.039,2.039L5.268,4.211c-0.293-0.293-0.768-0.293-1.061,0s-0.293,0.768,0,1.061l6.794,6.795l-2.159,2.159l-3.574-3.574
		c-0.293-0.293-0.768-0.293-1.061,0s-0.293,0.768,0,1.061l3.29,3.289H5.424L2.87,12.448c-0.293-0.293-0.768-0.293-1.061,0
		c-0.293,0.293-0.293,0.768,0,1.061l1.493,1.493H0.753c-0.414,0-0.75,0.336-0.75,0.75s0.336,0.75,0.75,0.75H3.06l-1.244,1.244
		c-0.293,0.293-0.293,0.768,0,1.061c0.146,0.146,0.338,0.221,0.53,0.221c0.192,0,0.384-0.072,0.53-0.221l2.305-2.305h2.322
		l-3.291,3.289c-0.293,0.293-0.293,0.768,0,1.061c0.146,0.146,0.338,0.221,0.53,0.221c0.192,0,0.384-0.072,0.53-0.221l3.576-3.574
		l2.159,2.158l-6.796,6.797c-0.293,0.293-0.293,0.77,0,1.062c0.146,0.146,0.338,0.221,0.53,0.221c0.192,0,0.384-0.072,0.53-0.221
		l6.796-6.797l2.039,2.039l-3.284,3.283c-0.293,0.293-0.293,0.769,0,1.062s0.768,0.293,1.061,0l3.119-3.116v2.563l-2.428,2.429
		c-0.293,0.293-0.293,0.77,0,1.062c0.146,0.146,0.338,0.22,0.53,0.22s0.384-0.073,0.53-0.22l1.368-1.368v2.304
		c0,0.414,0.336,0.75,0.75,0.75s0.75-0.336,0.75-0.75v-2.304l1.367,1.366c0.293,0.293,0.768,0.293,1.062,0
		c0.293-0.293,0.293-0.769,0-1.062l-2.429-2.428v-2.563l3.119,3.116c0.146,0.146,0.338,0.222,0.53,0.222
		c0.19,0,0.384-0.074,0.529-0.222c0.293-0.293,0.293-0.769,0-1.062l-3.283-3.282l2.041-2.039l6.793,6.796
		c0.146,0.146,0.338,0.221,0.529,0.221c0.192,0,0.385-0.072,0.53-0.221c0.293-0.293,0.293-0.77,0-1.062l-6.794-6.795l2.158-2.16
		l3.574,3.574c0.146,0.146,0.338,0.221,0.53,0.221s0.384-0.072,0.53-0.221c0.293-0.293,0.293-0.768,0-1.061L24,16.502h2.323
		l2.304,2.305c0.146,0.146,0.338,0.221,0.53,0.221c0.191,0,0.384-0.072,0.529-0.221c0.293-0.293,0.293-0.768,0-1.061l-1.244-1.244
		h2.311c0.414,0,0.75-0.336,0.75-0.75S31.167,15.002,30.753,15.002z M16.338,21.477l-0.584,0.584l-0.585-0.586l-0.166-0.164
		l-4.808-4.809l-0.286-0.285l-0.465-0.466l0.464-0.464l0.285-0.285l4.81-4.81l0.164-0.164l0.585-0.585l0.586,0.585l0.165,0.165
		l4.809,4.809l0.285,0.285l0.465,0.465l-0.465,0.465l-0.285,0.285l-4.809,4.811L16.338,21.477z"/>
</g>
<g>
</g>
<g>
</g>
<g>
</g>
<g>
</g>
<g>
</g>
<g>
</g>
<g>
</g>
<g>
</g>
<g>
</g>
<g>
</g>
<g>
</g>
<g>
</g>
<g>
</g>
<g>
</g>
<g>
</g>
</svg>
