<?xml version="1.0" encoding="iso-8859-1"?>
<!-- Generator: Adobe Illustrator 16.0.0, SVG Export Plug-In . SVG Version: 6.00 Build 0)  -->
<!DOCTYPE svg PUBLIC "-//W3C//DTD SVG 1.1//EN" "http://www.w3.org/Graphics/SVG/1.1/DTD/svg11.dtd">
<svg version="1.1" id="Capa_1" xmlns="http://www.w3.org/2000/svg" xmlns:xlink="http://www.w3.org/1999/xlink" x="0px" y="0px"
	 width="37.281px" height="37.281px" viewBox="0 0 37.281 37.281" style="enable-background:new 0 0 37.281 37.281;"
	 xml:space="preserve">
<g>
	<path d="M6.14,14.542c-0.144-0.248-0.059-0.568,0.192-0.711l1.993-1.148l-0.002-2.3c0-0.288,0.234-0.521,0.521-0.521
		c0.288,0,0.521,0.233,0.521,0.521l0.002,2.901l-2.514,1.451c-0.082,0.047-0.172,0.069-0.26,0.069
		C6.411,14.803,6.236,14.709,6.14,14.542z M30.43,22.546l-2.512,1.45l0.002,2.9c0,0.288,0.233,0.521,0.521,0.521
		s0.521-0.232,0.521-0.521l-0.002-2.299l1.992-1.148c0.248-0.145,0.333-0.463,0.191-0.712C30.998,22.487,30.681,22.402,30.43,22.546
		z M16.128,6.479l2.514,1.451l2.513-1.451c0.249-0.144,0.334-0.463,0.19-0.712c-0.144-0.25-0.462-0.334-0.711-0.19l-1.992,1.15
		l-1.993-1.15c-0.248-0.141-0.568-0.059-0.711,0.19S15.879,6.334,16.128,6.479z M21.154,30.803l-2.513-1.449l-2.514,1.45
		c-0.249,0.145-0.334,0.463-0.19,0.712c0.096,0.168,0.272,0.261,0.451,0.261c0.088,0,0.178-0.021,0.26-0.069l1.993-1.15l1.992,1.15
		c0.249,0.144,0.567,0.059,0.712-0.191C21.489,31.266,21.404,30.947,21.154,30.803z M8.844,27.419c0.288,0,0.521-0.232,0.521-0.521
		l-0.001-2.9L6.85,22.547c-0.247-0.142-0.567-0.06-0.711,0.191c-0.145,0.248-0.06,0.567,0.19,0.712L8.322,24.6l0.001,2.3
		C8.323,27.187,8.555,27.419,8.844,27.419z M28.438,9.863c-0.287,0-0.521,0.233-0.521,0.521v2.9l2.514,1.452
		c0.083,0.047,0.173,0.069,0.261,0.069c0.182,0,0.356-0.093,0.452-0.26c0.145-0.248,0.059-0.567-0.191-0.711l-1.994-1.149v-2.3
		C28.959,10.095,28.728,9.863,28.438,9.863z M37.281,18.641c0,0.287-0.232,0.521-0.521,0.521h-1.18l-1.284,2.225
		c-0.093,0.162-0.265,0.261-0.452,0.261h-2.866c-0.187,0-0.359-0.099-0.451-0.261l-0.446-0.769l-4.009,2.314l-0.002,4.63h0.889
		c0.188,0,0.358,0.1,0.452,0.261l1.437,2.485c0.093,0.16,0.093,0.359,0,0.521l-1.286,2.222l0.59,1.022
		c0.145,0.249,0.06,0.567-0.191,0.712c-0.081,0.047-0.171,0.069-0.26,0.069c-0.18,0-0.356-0.093-0.452-0.261l-0.59-1.023
		l-2.569,0.001c-0.188,0-0.358-0.099-0.452-0.26l-1.432-2.483c-0.094-0.162-0.094-0.361,0-0.521l0.444-0.771l-4.009-2.314
		l-4.008,2.313l0.444,0.766c0.094,0.162,0.094,0.361,0,0.521l-1.436,2.487c-0.093,0.16-0.265,0.26-0.452,0.26H10.62l-0.59,1.023
		c-0.096,0.168-0.272,0.261-0.451,0.261c-0.089,0-0.178-0.021-0.261-0.069c-0.249-0.145-0.334-0.462-0.19-0.712l0.589-1.022
		l-1.281-2.224c-0.093-0.162-0.093-0.36,0.001-0.521l1.435-2.487c0.092-0.161,0.264-0.261,0.451-0.261h0.888v-4.627L7.2,20.617
		l-0.444,0.768c-0.092,0.162-0.264,0.261-0.45,0.261H3.437c-0.188,0-0.359-0.099-0.453-0.261l-1.279-2.223H0.521
		C0.233,19.162,0,18.928,0,18.641c0-0.288,0.233-0.521,0.521-0.521h1.184l1.28-2.224c0.094-0.162,0.266-0.26,0.453-0.26l2.87,0.001
		c0.186,0,0.358,0.099,0.451,0.26l0.443,0.766l4.012-2.314V9.723h-0.89c-0.187,0-0.359-0.099-0.452-0.26L8.437,6.976
		C8.344,6.814,8.344,6.617,8.438,6.455L9.72,4.231L9.131,3.209C8.986,2.961,9.071,2.642,9.322,2.498
		c0.249-0.143,0.567-0.06,0.712,0.19l0.59,1.024l2.568-0.002c0.188,0,0.359,0.099,0.453,0.26l1.433,2.486
		c0.093,0.161,0.093,0.359-0.001,0.521l-0.442,0.765l4.01,2.315l4.007-2.312l-0.443-0.768c-0.094-0.162-0.094-0.36,0-0.521
		l1.435-2.486c0.093-0.162,0.265-0.26,0.452-0.26h2.566l0.59-1.025c0.145-0.25,0.462-0.332,0.712-0.19
		c0.25,0.144,0.335,0.462,0.191,0.711l-0.591,1.025l1.283,2.223c0.093,0.162,0.093,0.359,0,0.521l-1.437,2.486
		c-0.094,0.162-0.265,0.26-0.452,0.26h-0.887v4.628l4.012,2.314l0.443-0.765c0.092-0.162,0.265-0.26,0.45-0.26l2.869-0.003
		c0.001,0,0.001,0,0.001,0c0.188,0,0.359,0.099,0.454,0.26l1.275,2.224h1.184C37.049,18.121,37.281,18.352,37.281,18.641z
		 M33.545,20.604l0.834-1.442l0.298-0.519l-0.302-0.522l-0.832-1.441l-2.269,0.002l-0.441,0.765l-0.208,0.36l-0.181,0.314
		l-0.301,0.521l0.299,0.52l0.169,0.289l0.222,0.387l0.445,0.767H33.545L33.545,20.604z M25.03,14.953V9.722h-0.637l-3.277,5.677
		l1.573,2.722h6.555l0.32-0.553L25.03,14.953z M21.485,18.121l-0.974-1.682l-0.301-0.521H19.61l-1.942-0.001h-0.6l-0.301,0.521
		l-0.97,1.683l-0.3,0.521l0.301,0.521l0.971,1.682l0.3,0.521h0.601h1.94h0.602l0.301-0.521l0.972-1.682l0.301-0.521L21.485,18.121z
		 M24.392,4.752l-1.136,1.965l0.44,0.762l0.228,0.392l0.167,0.288l0.299,0.519h0.603h0.335h0.446h0.884l1.136-1.966l-0.834-1.441
		L26.658,4.75h-0.601h-1.666V4.752z M14.111,8.646L13.79,9.2l3.277,5.675l3.146,0.001l3.276-5.675l-0.32-0.552l-4.528,2.613
		L14.111,8.646z M10.322,5.273L9.488,6.716l1.135,1.965h0.886h0.448h0.333h0.599l0.301-0.521l0.169-0.294l0.22-0.38l0.444-0.766
		L12.89,4.754l-1.666,0.001h-0.602L10.322,5.273z M7.722,17.566l0.32,0.555h6.554l1.571-2.725l-3.277-5.675h-0.636v5.229
		L7.722,17.566z M6.67,19.455l0.169-0.293l0.3-0.521l-0.301-0.521l-0.183-0.319l-0.207-0.357l-0.442-0.766l-2.268-0.001
		l-0.831,1.443l-0.3,0.521l0.301,0.521l0.832,1.442h2.267l0.442-0.767L6.67,19.455z M12.252,22.331v5.229h0.636l3.277-5.674
		l-1.569-2.725H8.042l-0.321,0.554L12.252,22.331z M12.89,32.53l1.136-1.965l-0.444-0.767l-0.223-0.385l-0.167-0.291l-0.301-0.52
		h-0.6h-0.333h-0.448h-0.884l-1.135,1.966l0.833,1.441l0.299,0.521h0.601L12.89,32.53L12.89,32.53z M23.172,28.633l0.32-0.55
		l-3.276-5.676H17.07l-3.277,5.675l0.321,0.552l4.53-2.614L23.172,28.633z M26.959,32.008l0.834-1.442l-1.133-1.964h-0.89h-0.437
		h-0.34h-0.601l-0.301,0.521l-0.167,0.29l-0.21,0.364l-0.456,0.789l1.134,1.963l1.666-0.001h0.603L26.959,32.008z M29.56,19.714
		l-0.319-0.553h-6.554l-1.572,2.726l3.277,5.674h0.639V22.33L29.56,19.714z"/>
</g>
<g>
</g>
<g>
</g>
<g>
</g>
<g>
</g>
<g>
</g>
<g>
</g>
<g>
</g>
<g>
</g>
<g>
</g>
<g>
</g>
<g>
</g>
<g>
</g>
<g>
</g>
<g>
</g>
<g>
</g>
</svg>
