<?xml version="1.0" encoding="iso-8859-1"?>
<!-- Generator: Adobe Illustrator 16.0.0, SVG Export Plug-In . SVG Version: 6.00 Build 0)  -->
<!DOCTYPE svg PUBLIC "-//W3C//DTD SVG 1.1//EN" "http://www.w3.org/Graphics/SVG/1.1/DTD/svg11.dtd">
<svg version="1.1" id="Capa_1" xmlns="http://www.w3.org/2000/svg" xmlns:xlink="http://www.w3.org/1999/xlink" x="0px" y="0px"
	 width="35.046px" height="35.047px" viewBox="0 0 35.046 35.047" style="enable-background:new 0 0 35.046 35.047;"
	 xml:space="preserve">
<g>
	<path d="M32.759,23.842c0-0.178-0.096-0.342-0.25-0.432l-1.893-1.095c-0.154-0.09-0.345-0.09-0.5,0l-1.644,0.949l-1.066-0.615
		l1.224-0.326c0.268-0.069,0.426-0.346,0.354-0.61c-0.07-0.271-0.344-0.42-0.611-0.355l-1.354,0.363v-8.401l1.356,0.364
		c0.043,0.011,0.088,0.018,0.131,0.018c0.222,0,0.422-0.146,0.48-0.369c0.072-0.269-0.086-0.541-0.354-0.613l-1.223-0.328
		l1.063-0.615l1.643,0.947c0.078,0.045,0.164,0.066,0.25,0.066c0.087,0,0.173-0.021,0.25-0.066l1.896-1.092
		c0.154-0.09,0.25-0.254,0.25-0.435l-0.002-1.159l0.002-1.025c0-0.18-0.096-0.346-0.25-0.434l-1.896-1.095
		c-0.155-0.089-0.346-0.088-0.5,0.001l-1.891,1.092c-0.156,0.09-0.252,0.256-0.252,0.435v1.899l-1.066,0.614l0.328-1.225
		c0.07-0.269-0.088-0.541-0.354-0.612c-0.264-0.062-0.541,0.088-0.611,0.354l-0.361,1.354l-7.277-4.198l0.994-0.992
		c0.193-0.194,0.193-0.513,0-0.707c-0.194-0.194-0.514-0.194-0.708,0l-0.894,0.896V5.162l1.645-0.947
		c0.154-0.09,0.25-0.254,0.25-0.435V1.596c0-0.18-0.096-0.344-0.25-0.434l-1.895-1.095c-0.155-0.09-0.345-0.09-0.5,0l-1.895,1.095
		c-0.154,0.09-0.25,0.254-0.25,0.434v2.186c0,0.181,0.095,0.345,0.25,0.435l1.645,0.946v1.231l-0.896-0.896
		c-0.195-0.194-0.512-0.194-0.707,0s-0.195,0.513,0,0.707l0.995,0.993l-7.277,4.197l-0.363-1.354
		c-0.071-0.268-0.346-0.42-0.612-0.354c-0.267,0.072-0.425,0.348-0.354,0.613l0.328,1.223L7.071,10.91V9.011
		c0-0.179-0.095-0.345-0.25-0.433L4.929,7.484c-0.155-0.09-0.345-0.09-0.5-0.001L2.535,8.578c-0.154,0.088-0.25,0.254-0.25,0.433
		l-0.002,2.186c0,0.18,0.095,0.346,0.25,0.434l1.895,1.095c0.078,0.045,0.164,0.067,0.25,0.067c0.086,0,0.172-0.022,0.25-0.067
		l1.641-0.948l1.068,0.616l-1.223,0.328c-0.267,0.071-0.425,0.347-0.354,0.612c0.06,0.224,0.262,0.371,0.482,0.371
		c0.043,0,0.086-0.008,0.13-0.019l1.358-0.364v8.402L6.672,21.36c-0.262-0.062-0.54,0.086-0.612,0.354
		c-0.071,0.268,0.087,0.541,0.354,0.613l1.224,0.325l-1.066,0.615l-1.646-0.949c-0.155-0.09-0.344-0.088-0.499,0l-1.892,1.093
		c-0.155,0.09-0.251,0.256-0.251,0.434v2.186c0,0.181,0.095,0.347,0.25,0.435l1.893,1.094c0.078,0.045,0.164,0.068,0.25,0.068
		c0.086,0,0.172-0.023,0.25-0.068l1.893-1.094c0.155-0.088,0.25-0.254,0.25-0.435v-1.895l1.067-0.617L7.81,24.745
		c-0.071,0.266,0.087,0.541,0.354,0.61c0.043,0.013,0.087,0.019,0.13,0.019c0.221,0,0.423-0.148,0.482-0.371l0.363-1.357
		l7.275,4.201l-0.994,0.994c-0.195,0.195-0.195,0.512,0,0.707s0.512,0.195,0.707,0l0.896-0.896v1.234l-1.644,0.947
		c-0.155,0.088-0.25,0.254-0.25,0.432v2.188c0,0.178,0.095,0.342,0.25,0.432l1.895,1.094c0.078,0.045,0.164,0.068,0.25,0.068
		s0.173-0.023,0.25-0.068l1.894-1.094c0.152-0.09,0.25-0.254,0.25-0.432v-2.191c0-0.178-0.096-0.344-0.25-0.432l-1.645-0.949v-1.232
		l0.895,0.896c0.098,0.098,0.227,0.146,0.354,0.146c0.129,0,0.256-0.049,0.354-0.146c0.193-0.195,0.193-0.513,0-0.707l-0.993-0.992
		l7.274-4.201l0.363,1.355c0.061,0.225,0.262,0.371,0.482,0.371c0.043,0,0.086-0.007,0.129-0.019
		c0.268-0.07,0.426-0.346,0.354-0.611l-0.326-1.223l1.066,0.615v1.896c0,0.181,0.094,0.345,0.25,0.435l1.893,1.094
		c0.078,0.045,0.164,0.066,0.25,0.066s0.172-0.021,0.25-0.066l1.893-1.094c0.156-0.09,0.25-0.254,0.25-0.435l0.003-1.162
		L32.759,23.842z M28.974,9.299l1.395-0.805l1.393,0.803v1.609l-1.395,0.805l-1.393-0.805V9.299L28.974,9.299z M4.676,11.711
		l-1.395-0.807l0.002-1.607l1.392-0.803l1.394,0.805v1.605L4.676,11.711z M6.068,25.74l-1.393,0.808L3.282,25.74v-1.606l1.393-0.803
		l1.392,0.803L6.068,25.74L6.068,25.74z M9.029,13.194l1.276,0.736l3.077,3.591l-3.077,3.59l-1.276,0.736V13.194z M26.015,21.848
		l-1.275-0.736l-3.076-3.59l3.076-3.59l1.275-0.736V21.848z M23.111,20.749l-1.48-0.277l-2.696-0.506l-0.911,2.585l-0.5,1.422
		l-0.5-1.418l-0.912-2.59l-2.695,0.506l-1.481,0.277l0.978-1.144l1.786-2.083l-1.787-2.084l-0.978-1.143l1.481,0.276l2.695,0.507
		l0.912-2.593l0.5-1.419l0.5,1.423l0.911,2.589l2.697-0.507l1.479-0.276l-0.979,1.143l-1.785,2.084l1.787,2.084L23.111,20.749z
		 M25.519,12.328l-1.281,0.738l-4.646,0.87l-1.568-4.46V8.002L25.519,12.328z M16.128,3.491V1.885l1.395-0.805l1.393,0.805v1.606
		l-1.393,0.806L16.128,3.491z M17.023,8.002v1.476l-1.57,4.46l-4.645-0.87l-1.282-0.738L17.023,8.002z M9.529,22.713l1.277-0.738
		l4.645-0.869l1.57,4.457v1.479L9.529,22.713z M18.917,31.551v1.606l-1.394,0.806l-1.394-0.806v-1.606l1.394-0.804L18.917,31.551z
		 M18.023,27.042v-1.478l1.568-4.459l4.646,0.869l1.277,0.738L18.023,27.042z M31.759,25.74l-1.393,0.808l-1.394-0.808v-1.606
		l1.394-0.805l1.393,0.805V25.74z"/>
</g>
<g>
</g>
<g>
</g>
<g>
</g>
<g>
</g>
<g>
</g>
<g>
</g>
<g>
</g>
<g>
</g>
<g>
</g>
<g>
</g>
<g>
</g>
<g>
</g>
<g>
</g>
<g>
</g>
<g>
</g>
</svg>
