<?xml version="1.0" encoding="iso-8859-1"?>
<!-- Generator: Adobe Illustrator 16.0.0, SVG Export Plug-In . SVG Version: 6.00 Build 0)  -->
<!DOCTYPE svg PUBLIC "-//W3C//DTD SVG 1.1//EN" "http://www.w3.org/Graphics/SVG/1.1/DTD/svg11.dtd">
<svg version="1.1" id="Capa_1" xmlns="http://www.w3.org/2000/svg" xmlns:xlink="http://www.w3.org/1999/xlink" x="0px" y="0px"
	 width="37.019px" height="37.019px" viewBox="0 0 37.019 37.019" style="enable-background:new 0 0 37.019 37.019;"
	 xml:space="preserve">
<g>
	<path d="M33.938,27.289l-2.298-1.326l-0.432-1.823c-0.065-0.279-0.345-0.457-0.627-0.386c-0.281,0.064-0.454,0.348-0.388,0.627
		l0.205,0.868l-6.152-3.553l-2.267-2.644l2.502-2.918l6.287-3.63l-0.42,1.57c-0.075,0.279,0.091,0.563,0.368,0.638
		c0.045,0.012,0.091,0.019,0.136,0.019c0.229,0,0.439-0.153,0.501-0.387l0.69-2.577l1.891-1.091
		c0.248-0.145,0.334-0.461,0.191-0.713c-0.146-0.248-0.464-0.335-0.712-0.19l-1.995,1.15l-2.412-0.646
		c-0.276-0.065-0.563,0.092-0.638,0.369c-0.073,0.279,0.092,0.564,0.368,0.638l1.407,0.375l-6.482,3.744l-3.421,0.64l-1.212-3.454
		V8.446l3.104,3.103c0.103,0.104,0.235,0.152,0.369,0.152c0.133,0,0.267-0.051,0.368-0.152c0.202-0.202,0.202-0.533,0-0.736
		L19.03,6.973V1.994l1.512,1.512c0.103,0.102,0.235,0.152,0.368,0.152c0.134,0,0.267-0.052,0.37-0.152
		c0.202-0.204,0.202-0.534,0-0.737L18.51,0l-2.769,2.769c-0.203,0.203-0.203,0.533,0,0.737c0.204,0.203,0.534,0.203,0.737,0
		l1.512-1.512v4.978l-3.842,3.841c-0.203,0.204-0.203,0.534,0,0.737c0.203,0.203,0.534,0.203,0.736,0l3.104-3.104v4.145
		l-1.216,3.452l-3.42-0.64l-6.839-3.949l1.998-0.472c0.28-0.065,0.454-0.346,0.388-0.628c-0.067-0.279-0.348-0.457-0.627-0.386
		l-3.075,0.725L3.599,9.771c-0.25-0.146-0.568-0.059-0.712,0.19c-0.143,0.25-0.058,0.568,0.191,0.713l2.257,1.303l0.469,1.982
		c0.057,0.238,0.271,0.402,0.506,0.402c0.04,0,0.08-0.004,0.121-0.016c0.28-0.065,0.453-0.346,0.387-0.627l-0.242-1.027l5.958,3.44
		l2.502,2.919l-2.267,2.644L6.29,25.437l0.377-1.411c0.074-0.278-0.09-0.562-0.369-0.636c-0.277-0.066-0.563,0.091-0.637,0.369
		l-0.647,2.413l-1.935,1.116C2.831,27.432,2.745,27.749,2.888,28c0.097,0.166,0.272,0.26,0.453,0.26c0.088,0,0.178-0.021,0.26-0.068
		l1.83-1.059l2.577,0.69c0.045,0.013,0.09,0.019,0.135,0.019c0.23,0,0.441-0.152,0.502-0.385c0.074-0.28-0.09-0.563-0.369-0.639
		L6.707,26.4l6.291-3.632l3.775-0.708l1.217,3.453v4.144l-3.104-3.104c-0.203-0.203-0.533-0.203-0.736,0s-0.203,0.533,0,0.736
		l3.839,3.841v5.368c0,0.285,0.234,0.521,0.521,0.521c0.288,0,0.521-0.235,0.521-0.521V31.13l3.842-3.844
		c0.202-0.202,0.202-0.533,0-0.735c-0.203-0.203-0.534-0.203-0.736,0l-3.104,3.104v-4.143l1.216-3.454l3.776,0.708l6.651,3.841
		l-2.169,0.515c-0.281,0.063-0.454,0.347-0.387,0.627c0.056,0.238,0.27,0.401,0.505,0.401c0.04,0,0.081-0.004,0.121-0.015
		l3.23-0.765l-0.003-0.013l1.448,0.837c0.082,0.046,0.172,0.068,0.261,0.068c0.18,0,0.355-0.095,0.452-0.26
		C34.274,27.75,34.188,27.431,33.938,27.289z M21.307,21.196l-1.748-0.325L19.03,22.37l-0.521,1.483l-0.521-1.478l-0.531-1.507
		l-1.744,0.325l-1.365,0.256l1.138-1.324l0.922-1.075l-1.156-1.349l-0.902-1.054l1.555,0.293l0.166,0.029l0.406,0.077l0.982,0.184
		l0.531-1.506l0.521-1.477l0.521,1.481l0.528,1.502l0.985-0.186l0.406-0.075l0.165-0.031l1.554-0.291l-0.901,1.054l-1.156,1.349
		l0.922,1.075l1.139,1.324L21.307,21.196z"/>
</g>
<g>
</g>
<g>
</g>
<g>
</g>
<g>
</g>
<g>
</g>
<g>
</g>
<g>
</g>
<g>
</g>
<g>
</g>
<g>
</g>
<g>
</g>
<g>
</g>
<g>
</g>
<g>
</g>
<g>
</g>
</svg>
