<?xml version="1.0" encoding="iso-8859-1"?>
<!-- Generator: Adobe Illustrator 16.0.0, SVG Export Plug-In . SVG Version: 6.00 Build 0)  -->
<!DOCTYPE svg PUBLIC "-//W3C//DTD SVG 1.1//EN" "http://www.w3.org/Graphics/SVG/1.1/DTD/svg11.dtd">
<svg version="1.1" id="Capa_1" xmlns="http://www.w3.org/2000/svg" xmlns:xlink="http://www.w3.org/1999/xlink" x="0px" y="0px"
	 width="34.204px" height="34.204px" viewBox="0 0 34.204 34.204" style="enable-background:new 0 0 34.204 34.204;"
	 xml:space="preserve">
<g>
	<path d="M29.928,12.834c-0.202-0.202-0.535-0.203-0.736,0c-0.203,0.205-0.203,0.534,0,0.738l3.014,3.009H18.358l2.591-2.593
		l4.016-0.003c0.288,0,0.521-0.233,0.521-0.521s-0.232-0.521-0.521-0.521l-2.974,0.002l4.895-4.896c0.204-0.203,0.204-0.533,0-0.736
		c-0.202-0.203-0.533-0.203-0.736,0l-4.895,4.895V9.237c0-0.288-0.232-0.521-0.521-0.521c-0.285,0-0.521,0.233-0.521,0.521v4.013
		l-2.592,2.594V1.997l3.011,3.015c0.203,0.203,0.533,0.203,0.736,0c0.204-0.203,0.204-0.534,0-0.737l-4.267-4.274l-4.267,4.275
		c-0.203,0.203-0.203,0.534,0,0.737c0.103,0.101,0.236,0.152,0.369,0.152c0.135,0,0.267-0.051,0.369-0.153l3.009-3.015v13.848
		l-2.591-2.592l-0.004-4.016c0-0.288-0.233-0.521-0.521-0.521c-0.286,0-0.521,0.233-0.521,0.521l0.005,2.972L8.051,7.312
		c-0.203-0.203-0.535-0.203-0.737,0c-0.203,0.203-0.203,0.534,0,0.736l4.895,4.896H9.237c-0.288,0-0.521,0.233-0.521,0.521
		c0,0.288,0.233,0.521,0.521,0.521h4.015l2.593,2.594H1.996l3.012-3.012c0.203-0.203,0.203-0.533,0-0.736
		c-0.203-0.203-0.533-0.203-0.736,0L0,17.102l4.273,4.268c0.103,0.1,0.236,0.151,0.369,0.151s0.267-0.052,0.369-0.153
		c0.202-0.203,0.202-0.533,0-0.736l-3.014-3.008h13.848l-2.594,2.593l-4.014,0.003c-0.288,0-0.521,0.233-0.521,0.521
		c0,0.286,0.233,0.521,0.521,0.521l2.973-0.002l-4.895,4.894c-0.203,0.204-0.203,0.535,0,0.736c0.103,0.104,0.235,0.153,0.369,0.153
		s0.267-0.051,0.369-0.153l4.897-4.894v2.973c0,0.287,0.232,0.521,0.521,0.521c0.287,0,0.521-0.233,0.521-0.521v-4.015l2.591-2.595
		v13.85l-3.011-3.014c-0.203-0.201-0.533-0.201-0.737,0c-0.203,0.203-0.203,0.535,0,0.736l4.268,4.272l4.267-4.274
		c0.203-0.202,0.203-0.534,0-0.736s-0.534-0.203-0.736,0.002l-3.01,3.013V18.359l2.593,2.591l0.002,4.016
		c0,0.287,0.232,0.521,0.521,0.521c0.287,0,0.521-0.233,0.521-0.521l-0.002-2.972l4.896,4.896c0.102,0.103,0.234,0.152,0.368,0.152
		c0.133,0,0.267-0.051,0.368-0.152c0.204-0.203,0.204-0.534,0-0.736l-4.894-4.896h2.974c0.288,0,0.521-0.233,0.521-0.521
		c0-0.287-0.232-0.521-0.521-0.521h-4.016l-2.594-2.595h13.849l-3.014,3.013c-0.202,0.202-0.202,0.533,0,0.736
		c0.103,0.104,0.234,0.153,0.369,0.153c0.132,0,0.268-0.054,0.369-0.153l4.271-4.271L29.928,12.834z"/>
</g>
<g>
</g>
<g>
</g>
<g>
</g>
<g>
</g>
<g>
</g>
<g>
</g>
<g>
</g>
<g>
</g>
<g>
</g>
<g>
</g>
<g>
</g>
<g>
</g>
<g>
</g>
<g>
</g>
<g>
</g>
</svg>
