<?xml version="1.0" encoding="iso-8859-1"?>
<!-- Generator: Adobe Illustrator 16.0.0, SVG Export Plug-In . SVG Version: 6.00 Build 0)  -->
<!DOCTYPE svg PUBLIC "-//W3C//DTD SVG 1.1//EN" "http://www.w3.org/Graphics/SVG/1.1/DTD/svg11.dtd">
<svg version="1.1" id="Capa_1" xmlns="http://www.w3.org/2000/svg" xmlns:xlink="http://www.w3.org/1999/xlink" x="0px" y="0px"
	 width="32.292px" height="32.292px" viewBox="0 0 32.292 32.292" style="enable-background:new 0 0 32.292 32.292;"
	 xml:space="preserve">
<g>
	<path d="M31.771,15.625h-2.263l-6.021-5.96c-0.022-0.022-0.051-0.031-0.075-0.051l4.149-4.149c0.203-0.204,0.203-0.535,0-0.736
		c-0.202-0.202-0.533-0.202-0.736,0L16.667,14.889V8.17l4.612-4.618c0.203-0.203,0.203-0.533,0-0.736
		c-0.203-0.204-0.533-0.204-0.736,0l-3.876,3.882V0.521C16.667,0.235,16.432,0,16.146,0c-0.286,0-0.521,0.235-0.521,0.521v6.173
		l-3.878-3.878c-0.203-0.204-0.533-0.204-0.736,0c-0.203,0.203-0.203,0.533,0,0.736l4.615,4.614v6.722L5.465,4.729
		c-0.203-0.204-0.534-0.204-0.736,0c-0.202,0.202-0.202,0.533,0,0.736L8.94,9.677l-5.946,5.948H0.521
		C0.234,15.625,0,15.859,0,16.146s0.234,0.521,0.521,0.521h2.468l5.953,5.947l-4.212,4.212c-0.202,0.204-0.202,0.534,0,0.737
		c0.104,0.103,0.235,0.151,0.369,0.151c0.132,0,0.267-0.051,0.369-0.151l10.16-10.159v6.719l-4.614,4.617
		c-0.202,0.203-0.202,0.533,0,0.736c0.203,0.203,0.535,0.203,0.736,0l3.877-3.882v6.177c0,0.287,0.233,0.521,0.521,0.521
		c0.288,0,0.521-0.233,0.521-0.521v-6.173l3.879,3.878c0.103,0.102,0.236,0.152,0.369,0.152c0.134,0,0.267-0.051,0.369-0.152
		c0.202-0.203,0.202-0.533,0-0.736l-4.615-4.614v-6.722l10.159,10.159c0.104,0.103,0.236,0.151,0.368,0.151
		c0.133,0,0.268-0.051,0.369-0.151c0.204-0.203,0.204-0.533,0-0.737l-4.129-4.128c0.039-0.021,0.08-0.041,0.112-0.075l5.898-5.956
		h2.323c0.286,0,0.521-0.233,0.521-0.521S32.057,15.625,31.771,15.625z M22.755,10.408l5.273,5.218h-4.366l-3.146-3.11l2.188-2.189
		C22.721,10.353,22.731,10.384,22.755,10.408z M17.403,16.667h4.759l-2.368,2.391L17.403,16.667z M12.594,18.96l-2.295-2.294h4.589
		L12.594,18.96z M14.888,15.625h-4.587l2.292-2.295L14.888,15.625z M17.403,15.625l2.374-2.374l2.402,2.374H17.403z M9.677,10.414
		l2.18,2.18l-3.029,3.032h-4.36L9.677,10.414z M4.462,16.667h4.363l3.031,3.03l-2.18,2.181L4.462,16.667z M22.807,21.891
		c-0.03,0.032-0.049,0.07-0.069,0.109l-2.206-2.206l3.099-3.127h4.356L22.807,21.891z"/>
</g>
<g>
</g>
<g>
</g>
<g>
</g>
<g>
</g>
<g>
</g>
<g>
</g>
<g>
</g>
<g>
</g>
<g>
</g>
<g>
</g>
<g>
</g>
<g>
</g>
<g>
</g>
<g>
</g>
<g>
</g>
</svg>
