<?xml version="1.0" encoding="iso-8859-1"?>
<!-- Generator: Adobe Illustrator 16.0.0, SVG Export Plug-In . SVG Version: 6.00 Build 0)  -->
<!DOCTYPE svg PUBLIC "-//W3C//DTD SVG 1.1//EN" "http://www.w3.org/Graphics/SVG/1.1/DTD/svg11.dtd">
<svg version="1.1" id="Capa_1" xmlns="http://www.w3.org/2000/svg" xmlns:xlink="http://www.w3.org/1999/xlink" x="0px" y="0px"
	 width="31px" height="31px" viewBox="0 0 31 31" style="enable-background:new 0 0 31 31;" xml:space="preserve">
<g>
	<path d="M31,15.5c0,0.275-0.225,0.5-0.5,0.5h-6.382l4.405,4.406c0.194,0.195,0.194,0.512,0,0.707
		c-0.099,0.098-0.227,0.146-0.354,0.146s-0.256-0.049-0.354-0.146L22.704,16H16v6.992l5.316,5.318c0.195,0.193,0.195,0.512,0,0.707
		c-0.099,0.098-0.227,0.146-0.354,0.146s-0.256-0.05-0.354-0.146l-4.609-4.611V30.5c0,0.275-0.224,0.5-0.5,0.5s-0.5-0.225-0.5-0.5
		v-6.094l-4.61,4.611c-0.195,0.193-0.512,0.193-0.707,0c-0.195-0.195-0.195-0.514,0-0.707l5.317-5.318V16H8.294l-5.113,5.113
		c-0.098,0.098-0.226,0.146-0.354,0.146s-0.256-0.049-0.354-0.146c-0.195-0.195-0.195-0.512,0-0.707L6.88,16H0.5
		C0.225,16,0,15.775,0,15.5S0.225,15,0.5,15h6.382l-4.405-4.406c-0.195-0.195-0.195-0.512,0-0.707c0.194-0.195,0.512-0.195,0.707,0
		L8.296,15H15V8.008L9.684,2.69c-0.195-0.194-0.195-0.512,0-0.707c0.194-0.194,0.512-0.194,0.707,0L15,6.594V0.5
		C15,0.225,15.225,0,15.5,0S16,0.225,16,0.5v6.094l4.609-4.611c0.195-0.194,0.513-0.194,0.707,0c0.195,0.195,0.195,0.513,0,0.707
		L16,8.008V15h6.704l5.112-5.113c0.195-0.195,0.513-0.195,0.707,0c0.194,0.195,0.194,0.512,0,0.707L24.118,15H30.5
		C30.775,15,31,15.225,31,15.5z M11.443,19.557c-0.195-0.195-0.512-0.195-0.707,0l-3.84,3.84c-0.195,0.195-0.195,0.514,0,0.707
		c0.098,0.1,0.226,0.146,0.354,0.146s0.256-0.049,0.354-0.146l3.84-3.84C11.639,20.068,11.639,19.752,11.443,19.557z M10.736,11.443
		c0.098,0.098,0.226,0.146,0.354,0.146s0.256-0.049,0.354-0.146c0.195-0.195,0.195-0.512,0-0.707l-3.84-3.84
		c-0.194-0.195-0.512-0.195-0.707,0c-0.194,0.194-0.194,0.512,0,0.707L10.736,11.443z M20.264,19.557
		c-0.195-0.195-0.512-0.195-0.707,0s-0.195,0.512,0,0.707l3.84,3.84c0.1,0.1,0.228,0.146,0.354,0.146s0.256-0.049,0.354-0.146
		c0.193-0.193,0.193-0.512,0-0.707L20.264,19.557z M18.684,2.143c-0.195-0.194-0.513-0.194-0.707,0L17.75,2.37V1.418
		c0-0.276-0.225-0.5-0.5-0.5c-0.275,0-0.5,0.224-0.5,0.5v3.366l1.934-1.934C18.878,2.654,18.878,2.338,18.684,2.143z M17.75,13.25
		V8.732l3.407-3.408c0.194-0.195,0.194-0.512,0-0.707c-0.195-0.195-0.513-0.195-0.707,0l-3.7,3.701v5.932h5.645l3.847-3.846
		c0.194-0.194,0.194-0.512,0-0.706c-0.195-0.195-0.513-0.195-0.707,0L21.98,13.25H17.75z M28.007,12.173l-2.079,2.077h3.655
		c0.276,0,0.5-0.225,0.5-0.5s-0.224-0.5-0.5-0.5h-1.239l0.37-0.37c0.195-0.194,0.195-0.512,0-0.707
		C28.52,11.979,28.202,11.979,28.007,12.173z M29.583,16.75h-3.655l2.079,2.077c0.099,0.098,0.226,0.146,0.354,0.146
		c0.127,0,0.256-0.049,0.354-0.146c0.195-0.195,0.195-0.513,0-0.707l-0.369-0.37h1.238c0.275,0,0.5-0.225,0.5-0.5
		S29.859,16.75,29.583,16.75z M22.395,16.75H16.75v5.932l3.7,3.701c0.098,0.098,0.226,0.146,0.354,0.146
		c0.127,0,0.256-0.049,0.354-0.146c0.195-0.195,0.195-0.512,0-0.707l-3.407-3.408V17.75h4.229l3.553,3.552
		c0.195,0.195,0.512,0.195,0.707,0c0.195-0.194,0.195-0.512,0-0.706L22.395,16.75z M16.75,26.216v3.368c0,0.275,0.225,0.5,0.5,0.5
		c0.275,0,0.5-0.225,0.5-0.5v-0.952l0.227,0.226c0.194,0.195,0.512,0.195,0.707,0c0.194-0.193,0.194-0.512,0-0.707L16.75,26.216z
		 M12.316,28.857c0.195,0.193,0.513,0.193,0.707,0l0.227-0.228v0.952c0,0.275,0.225,0.5,0.5,0.5s0.5-0.225,0.5-0.5v-3.368
		l-1.934,1.937C12.122,28.346,12.122,28.662,12.316,28.857z M13.25,17.75v4.518l-3.407,3.408c-0.194,0.195-0.194,0.512,0,0.707
		c0.099,0.098,0.226,0.146,0.354,0.146c0.128,0,0.256-0.049,0.354-0.146l3.7-3.701V16.75H8.607l-3.846,3.846
		c-0.195,0.194-0.195,0.512,0,0.706c0.194,0.195,0.512,0.195,0.706,0l3.554-3.552H13.25z M2.993,18.827l2.079-2.077H1.417
		c-0.276,0-0.5,0.225-0.5,0.5s0.224,0.5,0.5,0.5h1.239l-0.37,0.37c-0.195,0.194-0.195,0.512,0,0.707
		c0.098,0.098,0.226,0.146,0.354,0.146S2.896,18.925,2.993,18.827z M1.417,14.25h3.655l-2.079-2.077
		c-0.195-0.194-0.513-0.194-0.707,0c-0.195,0.195-0.195,0.513,0,0.707l0.37,0.37H1.417c-0.276,0-0.5,0.225-0.5,0.5
		S1.141,14.25,1.417,14.25z M8.605,14.25h5.645V8.318l-3.7-3.701c-0.194-0.195-0.512-0.195-0.707,0
		c-0.194,0.195-0.194,0.512,0,0.707l3.407,3.408v4.518H9.021L5.467,9.698c-0.194-0.195-0.512-0.195-0.706,0
		c-0.195,0.194-0.195,0.512,0,0.706L8.605,14.25z M14.25,4.782V1.416c0-0.275-0.225-0.5-0.5-0.5s-0.5,0.225-0.5,0.5v0.952
		l-0.227-0.226c-0.194-0.195-0.512-0.195-0.707,0c-0.194,0.194-0.194,0.512,0,0.707L14.25,4.782z M19.549,11.436
		c0.1,0.104,0.229,0.154,0.361,0.154c0.124,0,0.249-0.046,0.346-0.139l4.008-3.84c0.198-0.191,0.205-0.508,0.016-0.707
		c-0.19-0.198-0.508-0.207-0.707-0.016l-4.008,3.84C19.365,10.92,19.357,11.236,19.549,11.436z"/>
</g>
<g>
</g>
<g>
</g>
<g>
</g>
<g>
</g>
<g>
</g>
<g>
</g>
<g>
</g>
<g>
</g>
<g>
</g>
<g>
</g>
<g>
</g>
<g>
</g>
<g>
</g>
<g>
</g>
<g>
</g>
</svg>
