<?xml version="1.0" encoding="iso-8859-1"?>
<!-- Generator: Adobe Illustrator 16.0.0, SVG Export Plug-In . SVG Version: 6.00 Build 0)  -->
<!DOCTYPE svg PUBLIC "-//W3C//DTD SVG 1.1//EN" "http://www.w3.org/Graphics/SVG/1.1/DTD/svg11.dtd">
<svg version="1.1" id="Capa_1" xmlns="http://www.w3.org/2000/svg" xmlns:xlink="http://www.w3.org/1999/xlink" x="0px" y="0px"
	 width="32.857px" height="32.857px" viewBox="0 0 32.857 32.857" style="enable-background:new 0 0 32.857 32.857;"
	 xml:space="preserve">
<g>
	<path d="M30.762,14.34c-0.195-0.195-0.513-0.195-0.707,0c-0.195,0.194-0.195,0.512,0,0.707l0.729,0.731h-1.84l-2.076-2.076
		c-0.194-0.194-0.513-0.194-0.707,0c-0.194,0.195-0.194,0.513,0,0.707l1.369,1.369h-2.026l-3.937-3.937l5.815-5.817
		c0.195-0.195,0.195-0.512,0-0.707c-0.195-0.195-0.512-0.195-0.707,0l-5.815,5.817l-3.938-3.937V5.172l1.52,1.52
		c0.194,0.195,0.512,0.195,0.707,0c0.194-0.195,0.194-0.512,0-0.707l-2.227-2.227V1.917l0.882,0.882
		c0.099,0.098,0.226,0.146,0.354,0.146c0.127,0,0.256-0.05,0.354-0.146c0.195-0.195,0.195-0.512,0-0.707l-2.088-2.089l-2.088,2.089
		c-0.195,0.195-0.195,0.512,0,0.707c0.194,0.195,0.512,0.195,0.707,0l0.881-0.882v1.842l-2.224,2.226
		c-0.195,0.195-0.195,0.512,0,0.707c0.098,0.098,0.226,0.146,0.354,0.146s0.256-0.049,0.354-0.146l1.518-1.519v2.024l-3.936,3.936
		L6.173,5.317c-0.195-0.195-0.512-0.195-0.707,0c-0.195,0.195-0.195,0.512,0,0.707l5.816,5.816l-3.938,3.938H5.321l1.369-1.369
		c0.194-0.194,0.194-0.512,0-0.707c-0.195-0.194-0.513-0.194-0.707,0l-2.076,2.076h-1.84l0.729-0.73
		c0.194-0.195,0.194-0.512,0-0.707c-0.195-0.195-0.513-0.195-0.707,0L0,16.43l2.089,2.088c0.098,0.099,0.226,0.146,0.354,0.146
		c0.127,0,0.256-0.049,0.354-0.146c0.195-0.194,0.195-0.512,0-0.707l-1.033-1.032h1.842l2.377,2.376
		c0.098,0.099,0.227,0.146,0.354,0.146c0.127,0,0.256-0.049,0.354-0.146c0.194-0.194,0.194-0.513,0-0.707l-1.672-1.669h2.326
		l3.938,3.938l-5.816,5.815c-0.195,0.194-0.195,0.513,0,0.707c0.098,0.099,0.227,0.146,0.354,0.146c0.129,0,0.256-0.049,0.354-0.146
		l5.815-5.815l3.937,3.937v2.323l-1.517-1.519c-0.195-0.193-0.512-0.193-0.707,0c-0.195,0.195-0.195,0.514,0,0.707l2.224,2.226
		v1.841l-0.88-0.879c-0.195-0.193-0.512-0.193-0.707,0c-0.195,0.195-0.195,0.514,0,0.707l2.09,2.088l2.087-2.088
		c0.195-0.193,0.195-0.512,0-0.707c-0.194-0.193-0.512-0.193-0.707,0l-0.884,0.885v-1.842l2.228-2.229
		c0.194-0.194,0.194-0.512,0-0.707c-0.195-0.194-0.513-0.194-0.707,0l-1.521,1.521v-2.329l3.937-3.938l5.817,5.816
		c0.099,0.099,0.226,0.146,0.354,0.146c0.127,0,0.256-0.049,0.354-0.146c0.195-0.194,0.195-0.513,0-0.707l-5.815-5.816l3.937-3.936
		h2.326l-1.669,1.668c-0.194,0.194-0.194,0.512,0,0.707c0.099,0.099,0.226,0.146,0.354,0.146s0.256-0.05,0.354-0.146l2.376-2.375
		h1.841l-1.031,1.03c-0.193,0.195-0.193,0.514,0,0.707c0.1,0.1,0.227,0.146,0.354,0.146s0.257-0.049,0.354-0.146l2.088-2.089
		L30.762,14.34z M24.09,15.779h-6.458l3.229-3.229L24.09,15.779z M20.154,11.843l-3.229,3.229V8.613L20.154,11.843z M15.924,8.615
		v6.457l-3.229-3.229L15.924,8.615z M11.988,12.549l3.229,3.229H8.758L11.988,12.549z M8.759,16.779h6.459l-3.229,3.229
		L8.759,16.779z M12.697,20.715l3.229-3.229v6.457L12.697,20.715z M16.924,23.944v-6.459l3.229,3.229L16.924,23.944z M20.861,20.007
		l-3.229-3.229h6.458L20.861,20.007z"/>
</g>
<g>
</g>
<g>
</g>
<g>
</g>
<g>
</g>
<g>
</g>
<g>
</g>
<g>
</g>
<g>
</g>
<g>
</g>
<g>
</g>
<g>
</g>
<g>
</g>
<g>
</g>
<g>
</g>
<g>
</g>
</svg>
