<?xml version="1.0" encoding="iso-8859-1"?>
<!-- Generator: Adobe Illustrator 16.0.0, SVG Export Plug-In . SVG Version: 6.00 Build 0)  -->
<!DOCTYPE svg PUBLIC "-//W3C//DTD SVG 1.1//EN" "http://www.w3.org/Graphics/SVG/1.1/DTD/svg11.dtd">
<svg version="1.1" id="Capa_1" xmlns="http://www.w3.org/2000/svg" xmlns:xlink="http://www.w3.org/1999/xlink" x="0px" y="0px"
	 width="36.07px" height="36.071px" viewBox="0 0 36.07 36.071" style="enable-background:new 0 0 36.07 36.071;"
	 xml:space="preserve">
<g>
	<path d="M26.082,22.379l7.646-2.047c0.142-0.036,0.222-0.179,0.187-0.318c-0.037-0.141-0.183-0.222-0.32-0.185l-8.148,2.181
		l-2.249-1.298v-5.354l2.249-1.3l8.148,2.183c0.021,0.008,0.044,0.011,0.066,0.011c0.113,0,0.221-0.076,0.252-0.194
		c0.036-0.14-0.045-0.282-0.186-0.32l-7.646-2.05L33.334,9.5c0.124-0.071,0.167-0.232,0.096-0.356
		c-0.073-0.126-0.234-0.167-0.356-0.096l-7.251,4.188l2.047-7.644c0.039-0.139-0.045-0.282-0.183-0.319
		c-0.137-0.036-0.282,0.044-0.319,0.184l-2.187,8.146l-2.249,1.3l-4.638-2.678V9.629l5.964-5.967c0.104-0.104,0.104-0.268,0-0.369
		c-0.102-0.103-0.267-0.103-0.368,0l-5.596,5.599V0.519c0-0.145-0.117-0.26-0.261-0.26s-0.26,0.115-0.26,0.26v8.374l-5.596-5.599
		c-0.103-0.103-0.267-0.103-0.369,0c-0.103,0.102-0.103,0.266,0,0.369l5.965,5.967v2.597l-4.638,2.678l-2.25-1.3L8.7,5.458
		c-0.037-0.14-0.18-0.221-0.32-0.184c-0.139,0.037-0.222,0.18-0.183,0.319l2.046,7.644L2.993,9.049
		C2.871,8.978,2.71,9.018,2.636,9.145C2.565,9.269,2.608,9.427,2.732,9.501l7.253,4.188l-7.646,2.05
		c-0.138,0.036-0.22,0.179-0.183,0.319c0.03,0.116,0.138,0.194,0.251,0.194c0.022,0,0.045-0.003,0.067-0.011l8.147-2.183l2.25,1.3
		v5.355l-2.25,1.298l-8.147-2.181c-0.136-0.037-0.282,0.044-0.32,0.185c-0.036,0.139,0.044,0.283,0.186,0.319l7.646,2.047
		L2.733,26.57c-0.124,0.072-0.167,0.232-0.097,0.356c0.05,0.084,0.138,0.131,0.228,0.131c0.044,0,0.089-0.012,0.13-0.035
		l7.251-4.188l-2.046,7.644c-0.039,0.139,0.044,0.281,0.183,0.32c0.022,0.006,0.044,0.008,0.066,0.008
		c0.115,0,0.221-0.075,0.251-0.193l2.184-8.146l2.25-1.301l4.638,2.678v2.597l-5.965,5.969c-0.103,0.102-0.103,0.267,0,0.368
		c0.103,0.104,0.267,0.104,0.369,0l5.596-5.597v8.374c0,0.145,0.116,0.26,0.26,0.26c0.144,0,0.261-0.115,0.261-0.26v-8.374
		l5.596,5.597c0.051,0.053,0.115,0.077,0.185,0.077c0.067,0,0.133-0.024,0.184-0.077c0.102-0.102,0.102-0.267,0-0.368l-5.964-5.969
		v-2.597l4.638-2.678l2.249,1.301l2.185,8.146c0.029,0.117,0.137,0.193,0.251,0.193c0.022,0,0.044-0.002,0.066-0.008
		c0.139-0.037,0.222-0.182,0.184-0.32l-2.047-7.644l7.251,4.188c0.041,0.023,0.086,0.035,0.13,0.035c0.09,0,0.178-0.047,0.227-0.131
		c0.071-0.124,0.028-0.282-0.096-0.356L26.082,22.379z M22.673,20.412l-0.781-0.452v-3.852l0.781-0.451V20.412z M18.296,14.934
		l2.294,1.324l-2.294,1.324V14.934z M17.775,17.583l-2.294-1.324l2.294-1.324V17.583z M17.515,18.036l-2.294,1.323V16.71
		L17.515,18.036z M17.775,18.488v2.648l-2.293-1.324L17.775,18.488z M18.296,18.488l2.293,1.324l-2.293,1.323V18.488z
		 M18.557,18.036l2.294-1.324v2.648L18.557,18.036z M22.412,15.208l-0.779,0.45l-3.337-1.924v-0.902L22.412,15.208z M17.775,12.831
		v0.902l-3.336,1.924l-0.779-0.45L17.775,12.831z M13.398,15.659l0.781,0.452v3.852l-0.781,0.452V15.659z M13.659,20.864
		l0.782-0.452l3.333,1.925v0.903L13.659,20.864z M18.296,23.24v-0.903l3.333-1.925l0.783,0.452L18.296,23.24z M12.731,2.743
		c-0.204-0.203-0.204-0.533,0-0.736c0.203-0.203,0.533-0.203,0.736,0l2.484,2.485V0.521C15.952,0.234,16.187,0,16.473,0
		c0.286,0,0.521,0.233,0.521,0.521v6.488L12.731,2.743z M3.197,7.664C3.341,7.416,3.66,7.33,3.908,7.472l3.441,1.985L6.44,6.064
		C6.366,5.786,6.53,5.5,6.809,5.427c0.282-0.068,0.563,0.092,0.638,0.369l1.561,5.824l-5.62-3.244
		C3.138,8.231,3.052,7.913,3.197,7.664z M13.136,14.004l3.857-2.225V9.954l-6.018-6.02L9.354,4.87l2.201,8.223L13.136,14.004z
		 M10.805,5.236l5.147,5.149v0.792l-2.816,1.626l-0.683-0.395l-1.886-7.033L10.805,5.236z M23.34,2.743l-4.263,4.263V0.521
		C19.077,0.233,19.312,0,19.598,0s0.521,0.233,0.521,0.521v3.971l2.483-2.486c0.204-0.202,0.533-0.202,0.737,0
		C23.543,2.209,23.543,2.541,23.34,2.743z M34.199,22.093l-3.396,0.91l3.442,1.986c0.25,0.144,0.335,0.462,0.192,0.711
		c-0.097,0.167-0.273,0.261-0.452,0.261c-0.088,0-0.178-0.021-0.261-0.068l-5.619-3.245l5.824-1.561
		c0.275-0.067,0.562,0.092,0.638,0.368C34.643,21.733,34.479,22.017,34.199,22.093z M19.077,11.779l3.857,2.225l1.581-0.912
		l2.201-8.223l-1.623-0.936l-6.017,6.02V11.779z M20.119,10.385l5.146-5.149l0.239,0.139l-1.887,7.033l-0.683,0.395l-2.815-1.626
		V10.385z M28.106,13.424l5.619-3.245c0.249-0.146,0.569-0.061,0.713,0.19c0.145,0.249,0.06,0.568-0.192,0.713l-3.442,1.987
		l3.396,0.91c0.281,0.074,0.444,0.36,0.369,0.636c-0.064,0.234-0.274,0.387-0.503,0.387c-0.045,0-0.09-0.006-0.135-0.019
		L28.106,13.424z M27.065,11.62l1.561-5.824c0.073-0.277,0.359-0.436,0.637-0.369c0.28,0.074,0.444,0.361,0.369,0.637l-0.909,3.393
		l3.439-1.985c0.247-0.146,0.567-0.06,0.713,0.192c0.145,0.249,0.06,0.567-0.192,0.712L27.065,11.62z M32.874,28.408
		c-0.145,0.25-0.462,0.335-0.712,0.191l-3.443-1.988l0.91,3.396c0.074,0.279-0.091,0.564-0.369,0.637
		c-0.047,0.013-0.092,0.019-0.137,0.019c-0.229,0-0.439-0.151-0.501-0.384l-1.56-5.825l5.62,3.245
		C32.934,27.84,33.019,28.158,32.874,28.408z M1.871,13.977l3.396-0.91l-3.443-1.986C1.575,10.938,1.49,10.62,1.632,10.37
		c0.145-0.25,0.462-0.333,0.712-0.191l5.62,3.245l-5.825,1.56c-0.045,0.012-0.09,0.018-0.135,0.018
		c-0.229,0-0.441-0.153-0.503-0.387C1.428,14.337,1.593,14.053,1.871,13.977z M23.34,33.327c0.203,0.204,0.203,0.533,0,0.737
		c-0.204,0.203-0.533,0.203-0.737,0l-2.483-2.486v3.972c0,0.286-0.235,0.521-0.521,0.521s-0.521-0.235-0.521-0.521v-6.488
		L23.34,33.327z M22.933,22.066l-3.855,2.226v1.825l6.017,6.021l1.623-0.937l-2.203-8.224L22.933,22.066z M25.265,30.834
		l-5.146-5.149v-0.791l2.813-1.627l0.685,0.396l1.887,7.033L25.265,30.834z M12.096,20.263v-4.455l-1.58-0.909L2.294,17.1v1.872
		l8.222,2.202L12.096,20.263z M3.336,18.172v-0.275l7.034-1.885l0.684,0.397v3.251l-0.684,0.395L3.336,18.172z M12.731,33.327
		l4.262-4.266v6.488c0,0.286-0.234,0.521-0.521,0.521c-0.287,0-0.521-0.235-0.521-0.521v-3.972l-2.484,2.486
		c-0.203,0.203-0.533,0.203-0.736,0C12.528,33.86,12.528,33.531,12.731,33.327z M9.006,24.451l-1.56,5.824
		c-0.064,0.232-0.274,0.385-0.503,0.385c-0.045,0-0.089-0.007-0.134-0.018c-0.279-0.074-0.444-0.36-0.369-0.638l0.91-3.395
		l-3.443,1.986c-0.249,0.145-0.569,0.059-0.712-0.19c-0.145-0.25-0.06-0.567,0.192-0.712L9.006,24.451z M7.965,22.646l-5.62,3.245
		c-0.083,0.049-0.173,0.07-0.26,0.07c-0.179,0-0.356-0.094-0.452-0.261c-0.145-0.249-0.06-0.567,0.192-0.713L5.267,23l-3.396-0.909
		c-0.28-0.074-0.443-0.361-0.369-0.636c0.075-0.278,0.367-0.438,0.638-0.368L7.965,22.646z M23.976,15.807v4.455l1.579,0.908
		l8.222-2.2v-1.873l-8.222-2.201L23.976,15.807z M32.733,17.897v0.275L25.7,20.058l-0.684-0.396V16.41l0.684-0.395L32.733,17.897z
		 M16.994,24.292l-3.855-2.226l-1.581,0.911l-2.203,8.224l1.622,0.937l6.018-6.021V24.292z M15.952,25.685l-5.147,5.149
		l-0.238-0.139l1.886-7.033l0.685-0.396l2.814,1.627V25.685z"/>
</g>
<g>
</g>
<g>
</g>
<g>
</g>
<g>
</g>
<g>
</g>
<g>
</g>
<g>
</g>
<g>
</g>
<g>
</g>
<g>
</g>
<g>
</g>
<g>
</g>
<g>
</g>
<g>
</g>
<g>
</g>
</svg>
