<?xml version="1.0" encoding="iso-8859-1"?>
<!-- Generator: Adobe Illustrator 16.0.0, SVG Export Plug-In . SVG Version: 6.00 Build 0)  -->
<!DOCTYPE svg PUBLIC "-//W3C//DTD SVG 1.1//EN" "http://www.w3.org/Graphics/SVG/1.1/DTD/svg11.dtd">
<svg version="1.1" id="Capa_1" xmlns="http://www.w3.org/2000/svg" xmlns:xlink="http://www.w3.org/1999/xlink" x="0px" y="0px"
	 width="31.504px" height="31.504px" viewBox="0 0 31.504 31.504" style="enable-background:new 0 0 31.504 31.504;"
	 xml:space="preserve">
<g>
	<path d="M31.502,15.753c0,0.414-0.336,0.75-0.75,0.75h-5.777l3.979,3.979c0.293,0.293,0.293,0.769,0,1.062
		c-0.146,0.146-0.34,0.219-0.531,0.219s-0.383-0.071-0.529-0.219l-5.039-5.041h-5.291l7.633,7.633c0.293,0.293,0.293,0.769,0,1.062
		c-0.146,0.146-0.338,0.221-0.53,0.221c-0.19,0-0.384-0.074-0.529-0.221l-7.633-7.633v5.578l5.244,5.245
		c0.293,0.293,0.293,0.769,0,1.062c-0.146,0.145-0.338,0.219-0.529,0.219c-0.192,0-0.385-0.072-0.53-0.219l-4.185-4.187v5.49
		c0,0.414-0.335,0.75-0.75,0.75s-0.75-0.336-0.75-0.75v-5.491l-4.184,4.187c-0.293,0.293-0.768,0.293-1.061,0s-0.293-0.769,0-1.062
		l5.244-5.245v-5.578L7.37,25.197c-0.146,0.146-0.338,0.221-0.53,0.221s-0.384-0.074-0.53-0.221c-0.293-0.293-0.293-0.769,0-1.062
		l7.632-7.633H8.651l-5.039,5.041c-0.146,0.146-0.338,0.219-0.53,0.219s-0.384-0.071-0.53-0.219c-0.293-0.293-0.293-0.769,0-1.062
		l3.979-3.979H0.752c-0.414,0-0.75-0.335-0.75-0.75s0.336-0.75,0.75-0.75H6.53l-3.979-3.979c-0.293-0.293-0.293-0.768,0-1.061
		s0.768-0.293,1.061,0l5.039,5.04h5.291L6.31,7.371c-0.293-0.293-0.293-0.768,0-1.061s0.768-0.293,1.061,0l7.632,7.632V8.363
		L9.759,3.118c-0.293-0.293-0.293-0.768,0-1.062c0.293-0.293,0.768-0.293,1.061,0l4.184,4.184V0.75c0-0.414,0.336-0.75,0.75-0.75
		s0.75,0.336,0.75,0.75v5.49l4.186-4.184c0.293-0.293,0.769-0.293,1.062,0c0.293,0.293,0.293,0.77,0,1.062l-5.244,5.245v5.579
		l7.632-7.632c0.293-0.293,0.77-0.293,1.062,0s0.293,0.768,0,1.061l-7.633,7.632h5.291l5.039-5.04c0.293-0.293,0.768-0.293,1.061,0
		s0.293,0.768,0,1.061l-3.979,3.979h5.776C31.166,15.003,31.502,15.339,31.502,15.753z"/>
</g>
<g>
</g>
<g>
</g>
<g>
</g>
<g>
</g>
<g>
</g>
<g>
</g>
<g>
</g>
<g>
</g>
<g>
</g>
<g>
</g>
<g>
</g>
<g>
</g>
<g>
</g>
<g>
</g>
<g>
</g>
</svg>
