<?xml version="1.0" encoding="iso-8859-1"?>
<!-- Generator: Adobe Illustrator 16.0.0, SVG Export Plug-In . SVG Version: 6.00 Build 0)  -->
<!DOCTYPE svg PUBLIC "-//W3C//DTD SVG 1.1//EN" "http://www.w3.org/Graphics/SVG/1.1/DTD/svg11.dtd">
<svg version="1.1" id="Capa_1" xmlns="http://www.w3.org/2000/svg" xmlns:xlink="http://www.w3.org/1999/xlink" x="0px" y="0px"
	 width="38.713px" height="38.714px" viewBox="0 0 38.713 38.714" style="enable-background:new 0 0 38.713 38.714;"
	 xml:space="preserve">
<g>
	<path d="M35.964,16.391L35.964,16.391c-0.725,0.012-1.4,0.303-1.903,0.822c-0.431,0.443-0.679,1.009-0.738,1.613h-5.306
		l4.366-4.366c0.203-0.202,0.203-0.533,0-0.736c-0.201-0.202-0.533-0.202-0.736,0l-5.103,5.103h-2.289l2.924-4l-4.923,0.537
		l1.146-1.985l6.969-1.867c0.277-0.074,0.442-0.36,0.368-0.637c-0.073-0.278-0.36-0.438-0.637-0.369l-5.965,1.598l2.659-4.602
		c0.347,0.156,0.716,0.26,1.097,0.26c0.948,0,1.839-0.505,2.326-1.319c0.764-1.28,0.343-2.946-0.937-3.713
		c-1.237-0.738-2.977-0.294-3.713,0.937c-0.368,0.621-0.478,1.349-0.298,2.051c0.112,0.456,0.351,0.858,0.665,1.19l-2.7,4.676
		l-1.599-5.966C21.564,5.339,21.279,5.182,21,5.249c-0.278,0.074-0.443,0.36-0.368,0.638l1.867,6.971l-1.147,1.984l-1.997-4.533
		l-1.999,4.533l-1.145-1.983l1.868-6.967c0.075-0.279-0.09-0.562-0.369-0.638c-0.276-0.068-0.562,0.091-0.637,0.369l-1.598,5.963
		l-2.666-4.619c0.955-0.832,1.224-2.254,0.566-3.394c-0.718-1.243-2.446-1.714-3.698-0.989C8.385,3.329,7.941,4.989,8.686,6.281
		c0.482,0.836,1.382,1.355,2.348,1.355c0.296,0,0.584-0.064,0.865-0.161l2.673,4.629l-5.962-1.598
		c-0.276-0.066-0.564,0.092-0.638,0.369c-0.074,0.28,0.091,0.564,0.369,0.639l6.968,1.867l1.146,1.985l-4.923-0.537l2.924,3.997
		h-2.292l-5.103-5.102c-0.203-0.202-0.533-0.202-0.736,0c-0.204,0.203-0.204,0.534,0,0.736l4.365,4.365H5.29
		c-0.338-1.114-1.373-1.936-2.622-1.936c0,0,0,0-0.001,0C1.176,16.912-0.02,18.146,0,19.641c0.022,1.469,1.237,2.666,2.707,2.666
		h0.042c1.386-0.021,2.502-1.089,2.64-2.436h5.303l-4.365,4.363c-0.204,0.203-0.204,0.533,0,0.736
		c0.102,0.102,0.235,0.152,0.369,0.152c0.133,0,0.267-0.052,0.369-0.152l5.102-5.1h2.292l-2.926,3.998l4.924-0.536l-1.143,1.98
		L8.34,27.183c-0.278,0.075-0.443,0.359-0.369,0.639c0.075,0.278,0.363,0.439,0.638,0.368l5.966-1.6l-2.654,4.599
		c-1.208-0.527-2.746-0.072-3.428,1.065c-0.371,0.621-0.478,1.349-0.301,2.051c0.177,0.7,0.616,1.29,1.238,1.662
		c0.419,0.251,0.898,0.383,1.385,0.383c0.948,0,1.84-0.504,2.327-1.318c0.371-0.622,0.477-1.349,0.3-2.051
		c-0.115-0.457-0.351-0.858-0.665-1.193l2.7-4.675l1.598,5.962c0.062,0.231,0.272,0.386,0.502,0.386c0.045,0,0.09-0.008,0.135-0.019
		c0.278-0.074,0.443-0.361,0.369-0.638l-1.867-6.968l1.146-1.984l1.998,4.532l1.997-4.532l1.146,1.98l-1.867,6.967
		c-0.074,0.28,0.09,0.563,0.368,0.639c0.045,0.012,0.091,0.02,0.135,0.02c0.232,0,0.439-0.154,0.503-0.386l1.598-5.966l2.667,4.621
		c-0.955,0.833-1.224,2.253-0.567,3.393c0.482,0.836,1.383,1.354,2.348,1.354c0.473,0,0.94-0.125,1.351-0.363
		c0.629-0.363,1.075-0.944,1.262-1.644c0.188-0.699,0.091-1.43-0.27-2.055c-0.629-1.092-2.038-1.585-3.219-1.201l-2.671-4.624
		l5.967,1.602c0.278,0.07,0.563-0.092,0.638-0.368c0.073-0.281-0.093-0.563-0.369-0.639l-6.972-1.869l-1.145-1.983l4.927,0.536
		l-2.928-3.996h2.294l5.099,5.102c0.104,0.102,0.237,0.152,0.369,0.152c0.133,0,0.267-0.052,0.368-0.152
		c0.204-0.203,0.204-0.533,0-0.736l-4.362-4.365h5.401c0.337,1.114,1.367,1.938,2.583,1.938h0.041
		c1.492-0.023,2.688-1.257,2.665-2.748C38.689,17.588,37.478,16.391,35.964,16.391z M26.281,5.462
		C26.172,5.03,26.237,4.581,26.465,4.2c0.304-0.508,0.839-0.812,1.433-0.812c0.022,0,0.043,0.008,0.065,0.01
		c0.275,0.01,0.546,0.083,0.786,0.226c0.062,0.039,0.115,0.085,0.173,0.13c0.647,0.509,0.837,1.43,0.404,2.154
		c-0.406,0.678-1.282,0.969-2.014,0.703c-0.094-0.035-0.186-0.075-0.273-0.126c-0.227-0.137-0.409-0.325-0.545-0.543
		C26.403,5.793,26.325,5.636,26.281,5.462z M9.59,5.759C9.22,5.118,9.334,4.331,9.809,3.81c0.112-0.124,0.238-0.238,0.391-0.325
		c0.148-0.085,0.307-0.14,0.473-0.177C10.79,3.283,10.91,3.26,11.03,3.26c0.595,0,1.149,0.32,1.445,0.833
		c0.369,0.637,0.259,1.415-0.206,1.936c-0.115,0.13-0.246,0.246-0.404,0.339c-0.157,0.09-0.328,0.144-0.502,0.176
		C10.684,6.668,9.941,6.368,9.59,5.759z M1.067,19.834c-0.01-0.068-0.023-0.139-0.024-0.211c-0.004-0.289,0.072-0.558,0.199-0.798
		c0.277-0.521,0.819-0.886,1.465-0.895c0.635,0,1.187,0.368,1.467,0.895c0.12,0.227,0.196,0.476,0.2,0.747
		c0.001,0.101-0.01,0.198-0.025,0.295c-0.129,0.778-0.799,1.38-1.616,1.395l-0.025,0.518v-0.518
		C1.875,21.262,1.186,20.638,1.067,19.834z M12.432,33.232c0.109,0.432,0.043,0.882-0.185,1.263
		c-0.304,0.506-0.84,0.809-1.433,0.809c-0.021,0-0.042-0.008-0.064-0.009c-0.276-0.011-0.547-0.083-0.786-0.226
		c-0.063-0.038-0.117-0.084-0.173-0.128c-0.288-0.227-0.498-0.534-0.588-0.895c-0.108-0.432-0.043-0.879,0.186-1.262
		c0.304-0.509,0.839-0.812,1.433-0.812c0.199,0,0.391,0.051,0.577,0.118c0.093,0.035,0.188,0.065,0.275,0.118
		c0.228,0.136,0.409,0.324,0.546,0.542C12.311,32.901,12.388,33.058,12.432,33.232z M27.678,32.1c0.596,0,1.147,0.32,1.444,0.834
		c0.223,0.385,0.282,0.834,0.166,1.264c-0.071,0.264-0.207,0.495-0.387,0.689c-0.111,0.122-0.238,0.236-0.391,0.322
		c-0.147,0.086-0.307,0.137-0.47,0.169c-0.685,0.141-1.447-0.16-1.803-0.778c-0.369-0.636-0.259-1.412,0.205-1.936
		c0.113-0.13,0.245-0.246,0.404-0.338c0.154-0.091,0.325-0.145,0.498-0.181C27.455,32.123,27.566,32.1,27.678,32.1z M20.971,22.143
		l-0.261,0.593l-1.353,3.066l-1.352-3.069l-0.26-0.59l-0.642,0.069l-3.334,0.363l1.982-2.707l0.38-0.519l-0.382-0.523l-1.98-2.707
		l3.333,0.363l0.641,0.068l0.26-0.589l1.354-3.069l1.352,3.069l0.26,0.591l0.642-0.07l3.333-0.363l-1.98,2.707l-0.381,0.523
		l0.379,0.519l1.981,2.707l-3.334-0.363L20.971,22.143z M34.536,19.868c-0.119-0.226-0.193-0.475-0.198-0.747
		c-0.001-0.1,0.011-0.197,0.024-0.295c0.054-0.333,0.207-0.64,0.445-0.889c0.31-0.32,0.726-0.499,1.201-0.505
		c0.827,0,1.518,0.625,1.636,1.426c0.01,0.071,0.021,0.142,0.023,0.213c0.004,0.287-0.072,0.556-0.195,0.796
		c-0.277,0.521-0.813,0.886-1.445,0.896l-0.023,0.517v-0.517C35.368,20.765,34.817,20.398,34.536,19.868z"/>
</g>
<g>
</g>
<g>
</g>
<g>
</g>
<g>
</g>
<g>
</g>
<g>
</g>
<g>
</g>
<g>
</g>
<g>
</g>
<g>
</g>
<g>
</g>
<g>
</g>
<g>
</g>
<g>
</g>
<g>
</g>
</svg>
