<?xml version="1.0" encoding="iso-8859-1"?>
<!-- Generator: Adobe Illustrator 16.0.0, SVG Export Plug-In . SVG Version: 6.00 Build 0)  -->
<!DOCTYPE svg PUBLIC "-//W3C//DTD SVG 1.1//EN" "http://www.w3.org/Graphics/SVG/1.1/DTD/svg11.dtd">
<svg version="1.1" id="Capa_1" xmlns="http://www.w3.org/2000/svg" xmlns:xlink="http://www.w3.org/1999/xlink" x="0px" y="0px"
	 width="38.586px" height="38.586px" viewBox="0 0 38.586 38.586" style="enable-background:new 0 0 38.586 38.586;"
	 xml:space="preserve">
<g>
	<path d="M37.301,17.036l-2.58,0.003l-1.004,1.731l-2.748,0.004l0.793-1.377c0.141-0.238,0.059-0.545-0.182-0.683
		c-0.238-0.138-0.545-0.058-0.684,0.183l-1.084,1.879l-2.047,0.002l2.188-3.793c0.139-0.239,0.057-0.545-0.185-0.684
		c-0.238-0.139-0.545-0.056-0.684,0.184l-2.479,4.295L24,18.784l2.805-3.83l-4.719,0.513l1.326-2.289h4.92
		c0.277,0,0.5-0.224,0.5-0.5c0-0.276-0.223-0.5-0.5-0.5h-4.34l1.027-1.772h2.127c0.274,0,0.5-0.223,0.5-0.5
		c0-0.275-0.226-0.5-0.5-0.5H25.6l1.354-2.342l2-0.004l1.293-2.23l-1.285-2.229l-2.579,0.002l-1.291,2.233l0.998,1.728l-1.396,2.414
		l-0.857-1.485c-0.137-0.239-0.441-0.323-0.682-0.184s-0.322,0.443-0.185,0.684l1.146,1.982l-1.025,1.769L20.842,7.85
		c-0.137-0.24-0.443-0.322-0.682-0.183c-0.24,0.138-0.322,0.442-0.184,0.683l2.533,4.393l-1.293,2.234l-1.923-4.358l-1.919,4.349
		l-1.364-2.363l2.454-4.254c0.139-0.238,0.057-0.545-0.184-0.683c-0.24-0.14-0.545-0.058-0.682,0.183l-2.168,3.754l-1.021-1.771
		l1.061-1.84c0.138-0.239,0.056-0.546-0.184-0.685c-0.24-0.137-0.546-0.056-0.685,0.185l-0.771,1.34l-1.297-2.247l1.002-1.732
		L12.25,2.625L9.672,2.629L8.377,4.86l1.287,2.229l2.004-0.003l1.339,2.318h-1.714c-0.276,0-0.5,0.224-0.5,0.5
		c0,0.275,0.224,0.5,0.5,0.5h2.293l1.022,1.771h-4.502c-0.275,0-0.5,0.225-0.5,0.5c0,0.276,0.225,0.5,0.5,0.5h5.08l1.323,2.294
		l-4.729-0.514l2.812,3.843l-2.75,0.004l-2.494-4.316c-0.14-0.239-0.447-0.322-0.684-0.184c-0.239,0.139-0.321,0.443-0.184,0.684
		l2.207,3.818L8.64,18.809l-1.101-1.91c-0.14-0.238-0.442-0.32-0.685-0.184c-0.238,0.139-0.32,0.444-0.184,0.684l0.814,1.41
		l-2.617,0.004l-0.994-1.727l-2.58,0.002L0,19.32l1.287,2.229l2.58-0.004l1.004-1.732L7.49,19.81l-0.815,1.416
		c-0.14,0.238-0.058,0.545,0.183,0.684c0.08,0.045,0.166,0.066,0.25,0.066c0.172,0,0.342-0.092,0.434-0.25l1.105-1.916l2.051-0.004
		L8.485,23.64c-0.14,0.238-0.058,0.545,0.183,0.684c0.079,0.045,0.165,0.066,0.25,0.066c0.172,0,0.341-0.092,0.433-0.25l2.504-4.336
		l2.731-0.004l-2.806,3.83l4.72-0.512l-1.349,2.327h-5.048c-0.275,0-0.5,0.224-0.5,0.5c0,0.274,0.225,0.5,0.5,0.5h4.467
		l-1.025,1.771H11.29c-0.276,0-0.5,0.225-0.5,0.5c0,0.277,0.224,0.5,0.5,0.5h1.675l-1.335,2.307l-2,0.002l-1.293,2.232l1.287,2.229
		l2.577-0.004l1.294-2.232l-0.998-1.729l1.312-2.266l0.795,1.373c0.092,0.16,0.26,0.25,0.432,0.25c0.086,0,0.172-0.021,0.25-0.066
		c0.24-0.139,0.322-0.441,0.184-0.684l-1.081-1.873l1.024-1.769l2.186,3.783c0.092,0.16,0.262,0.25,0.434,0.25
		c0.084,0,0.17-0.021,0.25-0.065c0.238-0.14,0.32-0.443,0.183-0.685l-2.472-4.281l1.379-2.381l1.92,4.358l1.92-4.354l1.303,2.257
		l-2.539,4.399c-0.141,0.237-0.059,0.545,0.182,0.683c0.08,0.047,0.166,0.067,0.25,0.067c0.172,0,0.342-0.091,0.434-0.25
		l2.252-3.897l1.023,1.771l-1.146,1.985c-0.14,0.24-0.058,0.547,0.184,0.685c0.08,0.045,0.166,0.065,0.25,0.065
		c0.174,0,0.342-0.09,0.434-0.25l0.855-1.485l1.361,2.356l-1.007,1.732l1.287,2.229l2.58-0.006l1.291-2.229l-1.285-2.229
		l-2.002,0.004l-1.317-2.283h1.545c0.274,0,0.5-0.223,0.5-0.5c0-0.274-0.226-0.5-0.5-0.5h-2.121l-1.023-1.771h4.332
		c0.277,0,0.5-0.225,0.5-0.5s-0.223-0.5-0.5-0.5h-4.91l-1.346-2.33l4.727,0.514l-2.812-3.844l2.582-0.004l2.516,4.355
		c0.095,0.16,0.263,0.25,0.435,0.25c0.086,0,0.172-0.021,0.25-0.066c0.238-0.139,0.32-0.443,0.184-0.684l-2.229-3.857l2.045-0.002
		l1.127,1.947c0.092,0.158,0.26,0.25,0.432,0.25c0.086,0,0.172-0.021,0.25-0.068c0.24-0.137,0.322-0.441,0.184-0.682l-0.838-1.449
		l2.785-0.004l1,1.729l2.576-0.002l1.293-2.23L37.301,17.036z M20.846,21.976l-0.25,0.566l-1.301,2.944l-1.301-2.95l-0.248-0.562
		l-0.622,0.065l-3.194,0.349l1.898-2.593l0.367-0.503l-0.362-0.496l-1.903-2.603l3.202,0.348l0.612,0.066l0.251-0.569l1.3-2.944
		l1.301,2.953l0.248,0.562l0.623-0.067l3.193-0.349l-1.896,2.593l-0.369,0.507l0.359,0.493l1.906,2.604l-3.199-0.349L20.846,21.976z
		"/>
</g>
<g>
</g>
<g>
</g>
<g>
</g>
<g>
</g>
<g>
</g>
<g>
</g>
<g>
</g>
<g>
</g>
<g>
</g>
<g>
</g>
<g>
</g>
<g>
</g>
<g>
</g>
<g>
</g>
<g>
</g>
</svg>
