<?xml version="1.0" encoding="iso-8859-1"?>
<!-- Generator: Adobe Illustrator 16.0.0, SVG Export Plug-In . SVG Version: 6.00 Build 0)  -->
<!DOCTYPE svg PUBLIC "-//W3C//DTD SVG 1.1//EN" "http://www.w3.org/Graphics/SVG/1.1/DTD/svg11.dtd">
<svg version="1.1" id="Capa_1" xmlns="http://www.w3.org/2000/svg" xmlns:xlink="http://www.w3.org/1999/xlink" x="0px" y="0px"
	 width="31px" height="31px" viewBox="0 0 31 31" style="enable-background:new 0 0 31 31;" xml:space="preserve">
<g>
	<path d="M30.5,15h-1.729l-1.533-1.531c-0.194-0.195-0.512-0.195-0.707,0c-0.195,0.195-0.195,0.512,0,0.707L27.357,15h-0.51
		l-1.908-1.906c-0.194-0.195-0.513-0.195-0.707,0c-0.194,0.195-0.194,0.512,0,0.707L25.434,15h-3.511l-1.501-3.717l3.428-3.426
		c0.193-0.195,0.193-0.512,0-0.707c-0.195-0.195-0.514-0.195-0.707,0l-3.453,3.453L16,9.037V5.566l1.198,1.199
		c0.194,0.194,0.512,0.194,0.706,0c0.195-0.195,0.195-0.513,0-0.707L16,4.152v-0.51l0.823,0.823c0.194,0.195,0.512,0.195,0.706,0
		c0.195-0.194,0.195-0.512,0-0.707L16,2.228V0.5C16,0.225,15.776,0,15.5,0S15,0.225,15,0.5v1.729L13.469,3.76
		c-0.195,0.195-0.195,0.512,0,0.707c0.098,0.098,0.226,0.146,0.354,0.146c0.128,0,0.256-0.049,0.354-0.146L15,3.643v0.51
		l-1.906,1.906c-0.195,0.195-0.195,0.512,0,0.707c0.098,0.099,0.226,0.146,0.354,0.146c0.128,0,0.256-0.049,0.354-0.146l1.199-1.199
		v3.51l-3.716,1.501L7.859,7.151c-0.195-0.194-0.512-0.194-0.707,0c-0.195,0.195-0.195,0.513,0,0.707l3.452,3.453L9.037,15H5.57
		l1.198-1.199c0.195-0.195,0.195-0.512,0-0.707c-0.195-0.195-0.512-0.195-0.707,0L4.156,15H3.645l0.822-0.824
		c0.195-0.195,0.195-0.513-0.001-0.707c-0.195-0.195-0.512-0.195-0.707,0L2.231,15H0.5C0.224,15,0,15.225,0,15.5S0.224,16,0.5,16
		h1.729l1.531,1.531c0.098,0.098,0.226,0.146,0.354,0.146c0.128,0,0.256-0.049,0.354-0.146c0.195-0.195,0.195-0.512,0-0.707
		L3.642,16h0.511l1.908,1.906c0.098,0.098,0.226,0.146,0.354,0.146s0.256-0.049,0.354-0.146c0.195-0.195,0.195-0.512,0-0.707
		L5.567,16h3.508l1.501,3.717L7.15,23.143c-0.195,0.195-0.195,0.513,0,0.707c0.098,0.1,0.226,0.146,0.354,0.146
		s0.256-0.049,0.354-0.146l3.453-3.453l3.69,1.566v3.469l-1.197-1.199c-0.195-0.193-0.512-0.193-0.707,0
		c-0.195,0.195-0.195,0.514,0,0.707L15,26.846v0.51l-0.822-0.82c-0.195-0.195-0.512-0.195-0.707,0c-0.195,0.193-0.195,0.512,0,0.707
		L15,28.77v1.73c0,0.275,0.224,0.5,0.5,0.5s0.5-0.225,0.5-0.5v-1.729l1.529-1.53c0.195-0.195,0.195-0.513,0-0.707
		c-0.194-0.195-0.512-0.195-0.706,0L16,27.355v-0.511l1.904-1.905c0.195-0.195,0.195-0.514,0-0.707
		c-0.194-0.195-0.512-0.195-0.706,0L16,25.432v-3.507l3.716-1.501l3.427,3.426c0.099,0.1,0.227,0.146,0.354,0.146
		s0.256-0.049,0.354-0.146c0.194-0.194,0.194-0.512,0-0.707L20.4,19.691l1.563-3.69h3.468l-1.197,1.197
		c-0.194,0.194-0.194,0.512,0,0.707c0.099,0.098,0.227,0.146,0.354,0.146s0.256-0.049,0.354-0.146l1.904-1.904h0.508l-0.82,0.822
		c-0.195,0.194-0.195,0.512,0,0.707c0.098,0.098,0.226,0.146,0.354,0.146c0.127,0,0.256-0.049,0.354-0.146L28.77,16h1.73
		c0.275,0,0.5-0.225,0.5-0.5S30.775,15,30.5,15z M20.876,16l-1.242,2.928l-0.231,0.545l-0.453,0.185L16,20.848l-0.548,0.221
		L15,20.877l-2.928-1.242l-0.544-0.229l-0.184-0.454l-1.191-2.95l-0.221-0.548l0.192-0.452l1.242-2.928l0.231-0.545l0.455-0.184
		L15,10.153l0.548-0.221L16,10.123l2.928,1.242l0.543,0.229l0.184,0.455l1.193,2.949l0.221,0.548L20.876,16z"/>
</g>
<g>
</g>
<g>
</g>
<g>
</g>
<g>
</g>
<g>
</g>
<g>
</g>
<g>
</g>
<g>
</g>
<g>
</g>
<g>
</g>
<g>
</g>
<g>
</g>
<g>
</g>
<g>
</g>
<g>
</g>
</svg>
