<?xml version="1.0" encoding="iso-8859-1"?>
<!-- Generator: Adobe Illustrator 16.0.0, SVG Export Plug-In . SVG Version: 6.00 Build 0)  -->
<!DOCTYPE svg PUBLIC "-//W3C//DTD SVG 1.1//EN" "http://www.w3.org/Graphics/SVG/1.1/DTD/svg11.dtd">
<svg version="1.1" id="Capa_1" xmlns="http://www.w3.org/2000/svg" xmlns:xlink="http://www.w3.org/1999/xlink" x="0px" y="0px"
	 width="36.074px" height="36.074px" viewBox="0 0 36.074 36.074" style="enable-background:new 0 0 36.074 36.074;"
	 xml:space="preserve">
<g>
	<path d="M33.466,26.345L26.461,22.3v-8.529l7.005-4.045c0.247-0.144,0.333-0.46,0.19-0.711c-0.144-0.249-0.464-0.334-0.711-0.19
		l-7.002,4.042l-6.668-3.847l5.172-5.171c0.203-0.202,0.203-0.533,0-0.737c-0.203-0.202-0.533-0.202-0.736,0l-5.154,5.156V0.521
		C18.558,0.234,18.323,0,18.037,0c-0.287,0-0.521,0.234-0.521,0.521v7.746l-5.151-5.154c-0.204-0.203-0.535-0.203-0.736,0
		c-0.204,0.204-0.204,0.534,0,0.737l5.169,5.172l-6.667,3.847l-7-4.042c-0.248-0.144-0.567-0.061-0.712,0.19
		C2.273,9.267,2.359,9.586,2.61,9.73l7.003,4.044v8.529L2.61,26.346c-0.249,0.146-0.334,0.461-0.192,0.713
		c0.096,0.166,0.273,0.261,0.452,0.261c0.087,0,0.177-0.022,0.26-0.071l7.004-4.045l6.664,3.852l-5.169,5.172
		c-0.204,0.202-0.204,0.532,0,0.736c0.202,0.202,0.533,0.202,0.736,0l5.151-5.155v7.745c0,0.287,0.234,0.521,0.521,0.521
		c0.286,0,0.521-0.233,0.521-0.521v-7.745l5.152,5.153c0.103,0.102,0.235,0.151,0.368,0.151c0.132,0,0.269-0.052,0.369-0.151
		c0.203-0.204,0.203-0.534,0-0.736l-5.172-5.172l6.665-3.852l7.006,4.045c0.081,0.049,0.171,0.071,0.261,0.071
		c0.179,0,0.354-0.095,0.45-0.261C33.8,26.805,33.714,26.487,33.466,26.345z M22.917,20.251l2.505-0.67v2.115L22.917,20.251z
		 M22.123,24.16c0.004,0.015,0.017,0.021,0.022,0.033l-0.826,0.476c-0.009-0.011-0.013-0.022-0.022-0.032l-2.74-2.74v-2.959
		l2.56,1.479L22.123,24.16z M10.653,17.565c0.013-0.002,0.025-0.002,0.04-0.005l3.741-1.004l2.562,1.479l-2.562,1.479l-3.744-1.002
		c-0.012-0.003-0.024,0-0.037-0.002V17.565L10.653,17.565z M13.952,11.913c-0.004-0.016-0.015-0.023-0.019-0.037l0.82-0.474
		c0.01,0.012,0.012,0.023,0.021,0.034l2.74,2.741v2.958l-2.562-1.48L13.952,11.913z M25.421,18.511
		c-0.014,0.002-0.024-0.001-0.039,0.002l-3.742,1.002l-2.562-1.479l2.562-1.479l3.741,1.004c0.016,0.003,0.026,0.003,0.04,0.005
		V18.511L25.421,18.511z M21.12,15.654l-2.562,1.48v-2.958l2.74-2.741c0.012-0.011,0.014-0.022,0.022-0.034l0.821,0.474
		c-0.006,0.014-0.016,0.022-0.02,0.037L21.12,15.654z M18.558,12.703V9.809l1.836,1.061L18.558,12.703z M17.516,12.703l-1.835-1.836
		l1.835-1.06V12.703z M14.956,20.417l2.561-1.479v2.959l-2.739,2.74c-0.01,0.01-0.014,0.021-0.022,0.032l-0.826-0.476
		c0.006-0.014,0.019-0.02,0.022-0.033L14.956,20.417z M17.516,23.369v2.892l-1.835-1.059L17.516,23.369z M18.558,23.369l1.836,1.835
		l-1.836,1.058V23.369z M25.421,16.492l-2.505-0.672l2.505-1.449V16.492z M22.398,14.917l0.672-2.505l1.835,1.06L22.398,14.917z
		 M13.005,12.413l0.673,2.505l-2.506-1.447L13.005,12.413z M13.158,15.82l-2.505,0.672v-2.118L13.158,15.82z M10.653,19.582
		l2.505,0.67l-2.505,1.449V19.582z M13.679,21.153l-0.673,2.504l-1.833-1.06L13.679,21.153z M23.067,23.658l-0.672-2.505
		l2.503,1.448L23.067,23.658z"/>
</g>
<g>
</g>
<g>
</g>
<g>
</g>
<g>
</g>
<g>
</g>
<g>
</g>
<g>
</g>
<g>
</g>
<g>
</g>
<g>
</g>
<g>
</g>
<g>
</g>
<g>
</g>
<g>
</g>
<g>
</g>
</svg>
