<?xml version="1.0" encoding="iso-8859-1"?>
<!-- Generator: Adobe Illustrator 16.0.0, SVG Export Plug-In . SVG Version: 6.00 Build 0)  -->
<!DOCTYPE svg PUBLIC "-//W3C//DTD SVG 1.1//EN" "http://www.w3.org/Graphics/SVG/1.1/DTD/svg11.dtd">
<svg version="1.1" id="Capa_1" xmlns="http://www.w3.org/2000/svg" xmlns:xlink="http://www.w3.org/1999/xlink" x="0px" y="0px"
	 width="37.711px" height="37.711px" viewBox="0 0 37.711 37.711" style="enable-background:new 0 0 37.711 37.711;"
	 xml:space="preserve">
<g>
	<path d="M20.945,15.245h-0.576h-3.021h-0.577l-0.288,0.5l-1.509,2.614l-0.288,0.5l0.288,0.5l1.509,2.615l0.288,0.5h0.578h3.018
		h0.578l0.289-0.5l1.508-2.615l0.289-0.5l-0.287-0.5l-1.51-2.614L20.945,15.245z M21.877,18.858l-0.289,0.5l-0.934,1.615l-0.287,0.5
		H19.79h-1.863H17.35l-0.288-0.498l-0.932-1.617l-0.289-0.5l0.289-0.5l0.932-1.614l0.289-0.5h0.576h1.865h0.576l0.289,0.5
		l0.932,1.614L21.877,18.858z M37.643,18.608l-1.179-2.042c-0.09-0.154-0.254-0.249-0.434-0.249l-2.357-0.001
		c-0.178,0-0.344,0.095-0.432,0.25l-1.033,1.792h-1.623l0.814-1.412c0.139-0.239,0.057-0.545-0.185-0.683
		c-0.235-0.136-0.545-0.056-0.682,0.183l-1.104,1.912h-2.047l2.207-3.825c0.142-0.239,0.06-0.545-0.182-0.683
		c-0.238-0.136-0.545-0.056-0.684,0.183l-2.496,4.325h-0.603l-2.953-5.114l0.302-0.519h4.997c0.275,0,0.5-0.224,0.5-0.5
		c0-0.276-0.225-0.5-0.5-0.5h-4.422l1.023-1.772h2.209c0.277,0,0.5-0.224,0.5-0.5s-0.223-0.5-0.5-0.5H25.15l0.811-1.403l2.068-0.001
		c0.178,0,0.344-0.095,0.432-0.25l1.183-2.042c0.09-0.155,0.09-0.346,0-0.5l-1.181-2.042c-0.088-0.155-0.254-0.251-0.434-0.251
		L25.67,2.466c-0.178,0-0.342,0.096-0.432,0.25l-1.174,2.039c-0.09,0.155-0.09,0.346,0,0.501L25.1,7.048l-0.812,1.404L23.471,7.04
		c-0.137-0.241-0.44-0.321-0.682-0.183c-0.24,0.138-0.322,0.444-0.184,0.683l1.104,1.913l-1.021,1.771l-2.209-3.826
		c-0.14-0.24-0.445-0.321-0.684-0.183c-0.24,0.138-0.322,0.444-0.184,0.683l2.498,4.326l-0.301,0.52h-5.907l-0.299-0.518
		l2.498-4.329c0.139-0.239,0.057-0.545-0.183-0.683c-0.238-0.136-0.546-0.056-0.684,0.183l-2.211,3.828l-1.021-1.771l1.104-1.916
		c0.138-0.239,0.056-0.545-0.185-0.683c-0.24-0.139-0.545-0.056-0.684,0.183l-0.814,1.415L12.61,7.045l1.034-1.792
		c0.09-0.155,0.09-0.345,0-0.5l-1.177-2.042c-0.09-0.154-0.254-0.249-0.433-0.25l-1.108-0.002L10.78,2.46H9.676
		c-0.178,0-0.344,0.095-0.433,0.25l-1.18,2.043c-0.089,0.155-0.089,0.345,0.001,0.5l1.179,2.041c0.089,0.155,0.254,0.25,0.433,0.25
		h1.104h0.003l0.961-0.001l0.812,1.405h-1.629c-0.275,0-0.5,0.224-0.5,0.5c0,0.276,0.225,0.5,0.5,0.5l2.205,0.001l1.023,1.771H9.739
		c-0.275,0-0.5,0.224-0.5,0.5c0,0.276,0.225,0.5,0.5,0.5h4.993l0.301,0.52l-2.948,5.118h-0.601l-2.498-4.326
		c-0.137-0.241-0.444-0.321-0.683-0.183c-0.239,0.138-0.321,0.444-0.184,0.683l2.211,3.826H8.282l-1.104-1.912
		c-0.138-0.241-0.445-0.321-0.683-0.183c-0.24,0.138-0.322,0.444-0.184,0.683l0.814,1.412H5.502l-1.033-1.792
		c-0.09-0.154-0.256-0.249-0.434-0.249l-2.354,0.001c-0.179,0-0.343,0.095-0.433,0.249l-1.181,2.041c-0.09,0.155-0.09,0.346,0,0.5
		l1.179,2.041c0.09,0.156,0.254,0.25,0.434,0.25l1.251,0.002h0.003h1.104c0.18,0,0.344-0.096,0.434-0.25l1.031-1.792h1.625
		l-0.814,1.414c-0.139,0.237-0.057,0.545,0.184,0.684c0.078,0.045,0.164,0.066,0.25,0.066c0.172,0,0.34-0.09,0.433-0.25l1.103-1.914
		h2.049l-2.211,3.828c-0.139,0.237-0.057,0.545,0.184,0.683c0.078,0.046,0.165,0.067,0.25,0.067c0.172,0,0.341-0.09,0.433-0.25
		l2.498-4.328h0.601l2.951,5.115l-0.3,0.52H9.747c-0.277,0-0.5,0.225-0.5,0.5s0.223,0.5,0.5,0.5h4.416l-1.021,1.771h-2.209
		c-0.276,0-0.5,0.223-0.5,0.5c0,0.274,0.224,0.5,0.5,0.5h1.632l-0.812,1.405H10.94l-0.156-0.002l-1.104,0.002
		c-0.178,0-0.342,0.097-0.432,0.25l-1.177,2.039c-0.09,0.153-0.09,0.345-0.001,0.5l1.178,2.043c0.09,0.153,0.254,0.25,0.434,0.25
		l1.1-0.002l0.148,0.002c0.003,0,0.005,0,0.005,0l1.104-0.002c0.18,0,0.344-0.095,0.434-0.25l1.178-2.041
		c0.089-0.153,0.089-0.347-0.001-0.5l-1.033-1.793l0.812-1.406l0.816,1.414c0.092,0.16,0.26,0.25,0.434,0.25
		c0.084,0,0.171-0.021,0.25-0.067c0.238-0.138,0.32-0.443,0.183-0.683l-1.104-1.914l1.021-1.771l2.21,3.826
		c0.093,0.16,0.261,0.25,0.433,0.25c0.086,0,0.172-0.021,0.25-0.066c0.24-0.139,0.321-0.445,0.184-0.684l-2.497-4.328l0.3-0.521
		h5.906l0.301,0.521l-2.496,4.324c-0.139,0.238-0.057,0.545,0.182,0.684c0.08,0.046,0.166,0.066,0.25,0.066
		c0.175,0,0.343-0.088,0.435-0.25l2.209-3.822l1.021,1.771l-1.102,1.912c-0.139,0.238-0.057,0.545,0.182,0.683
		c0.08,0.045,0.166,0.067,0.25,0.067c0.174,0,0.342-0.09,0.435-0.25l0.813-1.412l0.812,1.406l-1.035,1.791
		c-0.09,0.153-0.09,0.344,0,0.5l1.178,2.041c0.09,0.153,0.254,0.25,0.435,0.25l1.104,0.002c0.002,0,0.004,0,0.006,0l1.248-0.002
		c0.178,0,0.344-0.095,0.435-0.25l1.178-2.041c0.09-0.156,0.09-0.347,0-0.5l-1.178-2.043c-0.091-0.154-0.257-0.25-0.435-0.25
		l-1.254,0.002h-0.813l-0.812-1.408h1.633c0.277,0,0.5-0.224,0.5-0.5c0-0.274-0.223-0.5-0.5-0.5h-2.209l-1.022-1.771h4.42
		c0.274,0,0.5-0.225,0.5-0.5s-0.226-0.5-0.5-0.5h-4.996l-0.299-0.519l2.946-5.11h0.603l2.498,4.328c0.092,0.16,0.26,0.25,0.432,0.25
		c0.086,0,0.172-0.021,0.25-0.067c0.24-0.138,0.322-0.444,0.185-0.683l-2.211-3.828h2.049l1.104,1.914
		c0.092,0.16,0.26,0.25,0.433,0.25c0.086,0,0.172-0.021,0.25-0.066c0.239-0.139,0.321-0.445,0.184-0.684l-0.814-1.414h1.623
		l1.033,1.792c0.09,0.154,0.254,0.25,0.435,0.25h2.356c0.178,0,0.344-0.096,0.433-0.25l1.18-2.042
		C37.732,18.955,37.732,18.764,37.643,18.608z M25.076,5.006l0.889-1.541l1.23-0.001h0.551l0.277,0.479l0.614,1.063l-0.893,1.541
		l-0.967-0.001h-0.236l-0.578,0.001l-0.287-0.5L25.076,5.006z M9.971,3.463h0.553h0.266l0.146-0.001l0.815,0.001l0.891,1.542
		l-0.602,1.041l-0.289,0.499h-0.578l-1.2,0.001L9.082,5.004l0.613-1.062L9.971,3.463z M4.643,18.858l-0.288,0.5l-0.602,1.042H2.94
		l-0.967-0.002L1.36,19.337l-0.277-0.479l0.276-0.478l0.614-1.062l1.779-0.001l0.602,1.041L4.643,18.858z M12.64,32.712
		l-0.889,1.541h-0.812h-0.152h-0.271H9.973l-0.275-0.479l-0.613-1.062l0.889-1.541l0.811-0.002h0.155h0.237h0.576l0.289,0.5
		L12.64,32.712z M27.746,34.251l-0.543,0.002h-0.424l-0.812-0.002l-0.891-1.541l0.602-1.041l0.289-0.5h0.576h1.203l0.889,1.541
		l-0.61,1.062L27.746,34.251z M24.763,18.858l-0.288,0.5L22.1,23.473l-0.289,0.5h-0.576h-4.751h-0.577l-0.288-0.498l-2.376-4.117
		l-0.288-0.5l0.289-0.5l2.374-4.114l0.289-0.5h0.576h4.752h0.576l0.289,0.5l2.375,4.114L24.763,18.858z M33.074,18.858l0.289-0.5
		l0.6-1.042l1.781,0.001l0.613,1.062l0.274,0.48l-0.274,0.478l-0.613,1.063l-0.965-0.002h-0.814l-0.602-1.041L33.074,18.858z"/>
</g>
<g>
</g>
<g>
</g>
<g>
</g>
<g>
</g>
<g>
</g>
<g>
</g>
<g>
</g>
<g>
</g>
<g>
</g>
<g>
</g>
<g>
</g>
<g>
</g>
<g>
</g>
<g>
</g>
<g>
</g>
</svg>
