<?xml version="1.0" encoding="iso-8859-1"?>
<!-- Generator: Adobe Illustrator 16.0.0, SVG Export Plug-In . SVG Version: 6.00 Build 0)  -->
<!DOCTYPE svg PUBLIC "-//W3C//DTD SVG 1.1//EN" "http://www.w3.org/Graphics/SVG/1.1/DTD/svg11.dtd">
<svg version="1.1" id="Capa_1" xmlns="http://www.w3.org/2000/svg" xmlns:xlink="http://www.w3.org/1999/xlink" x="0px" y="0px"
	 width="37.282px" height="37.283px" viewBox="0 0 37.282 37.283" style="enable-background:new 0 0 37.282 37.283;"
	 xml:space="preserve">
<g>
	<path d="M34.592,27.252l-8.19-4.73l5.966-1.598c0.278-0.073,0.443-0.361,0.368-0.637c-0.073-0.278-0.36-0.443-0.637-0.369
		l-6.972,1.868l-0.115-0.066v-6.152l0.12-0.07l6.967,1.867c0.045,0.013,0.091,0.018,0.136,0.018c0.23,0,0.44-0.153,0.501-0.387
		c0.074-0.278-0.091-0.563-0.368-0.637l-5.961-1.598l8.186-4.727c0.249-0.144,0.334-0.462,0.191-0.711
		c-0.145-0.25-0.464-0.334-0.712-0.19l-8.189,4.728l1.599-5.966c0.074-0.278-0.091-0.563-0.368-0.638
		c-0.277-0.074-0.563,0.09-0.637,0.369l-1.868,6.973l-0.119,0.068l-5.327-3.076v-0.137l5.102-5.101c0.202-0.204,0.202-0.534,0-0.736
		c-0.202-0.204-0.534-0.204-0.736,0L19.162,9.98V0.521C19.162,0.233,18.928,0,18.641,0c-0.287,0-0.521,0.233-0.521,0.521v9.458
		l-4.366-4.364c-0.204-0.204-0.534-0.204-0.736,0c-0.203,0.203-0.203,0.533,0,0.736l5.102,5.101v0.137l-5.327,3.076l-0.119-0.069
		l-1.868-6.972c-0.075-0.277-0.36-0.442-0.638-0.369C9.891,7.329,9.726,7.616,9.8,7.893l1.599,5.966L3.209,9.13
		c-0.25-0.144-0.567-0.059-0.711,0.19c-0.144,0.25-0.059,0.568,0.191,0.711l8.186,4.728l-5.961,1.598
		c-0.278,0.074-0.442,0.36-0.369,0.637c0.062,0.233,0.273,0.387,0.502,0.387c0.045,0,0.089-0.005,0.135-0.018l6.968-1.867
		l0.121,0.07v6.152l-0.117,0.066l-6.972-1.868c-0.276-0.073-0.563,0.092-0.638,0.369c-0.074,0.278,0.091,0.563,0.369,0.637
		l5.967,1.598l-8.191,4.73c-0.25,0.142-0.334,0.461-0.191,0.712c0.097,0.167,0.272,0.26,0.452,0.26c0.088,0,0.178-0.022,0.26-0.071
		l8.188-4.728l-1.595,5.962c-0.075,0.279,0.09,0.563,0.369,0.638c0.044,0.014,0.09,0.018,0.135,0.018c0.23,0,0.44-0.151,0.502-0.386
		l1.866-6.968l0.12-0.067l5.327,3.076v0.133L13.02,30.93c-0.203,0.204-0.203,0.534,0,0.736c0.203,0.204,0.534,0.204,0.736,0
		l4.366-4.364v9.46c0,0.286,0.233,0.521,0.521,0.521c0.287,0,0.521-0.234,0.521-0.521v-9.46l4.366,4.366
		c0.103,0.104,0.236,0.152,0.369,0.152c0.134,0,0.267-0.051,0.368-0.152c0.202-0.202,0.202-0.532,0-0.736l-5.103-5.104v-0.134
		l5.328-3.076l0.119,0.068l1.866,6.968c0.062,0.232,0.273,0.385,0.501,0.385c0.045,0,0.09-0.004,0.136-0.019
		c0.278-0.073,0.443-0.358,0.368-0.637l-1.595-5.961l8.188,4.728c0.082,0.047,0.172,0.069,0.261,0.069
		c0.18,0,0.355-0.095,0.452-0.26C34.928,27.713,34.843,27.393,34.592,27.252z M19.161,24.494l-0.521,0.301l-0.521-0.301
		l-4.286-2.475l-0.521-0.301v-0.603v-4.948v-0.602l0.521-0.301l4.286-2.475l0.521-0.301l0.521,0.301l4.286,2.475l0.521,0.301v0.602
		v4.948v0.603l-0.521,0.301L19.161,24.494z"/>
</g>
<g>
</g>
<g>
</g>
<g>
</g>
<g>
</g>
<g>
</g>
<g>
</g>
<g>
</g>
<g>
</g>
<g>
</g>
<g>
</g>
<g>
</g>
<g>
</g>
<g>
</g>
<g>
</g>
<g>
</g>
</svg>
