<?xml version="1.0" encoding="iso-8859-1"?>
<!-- Generator: Adobe Illustrator 16.0.0, SVG Export Plug-In . SVG Version: 6.00 Build 0)  -->
<!DOCTYPE svg PUBLIC "-//W3C//DTD SVG 1.1//EN" "http://www.w3.org/Graphics/SVG/1.1/DTD/svg11.dtd">
<svg version="1.1" id="Capa_1" xmlns="http://www.w3.org/2000/svg" xmlns:xlink="http://www.w3.org/1999/xlink" x="0px" y="0px"
	 width="29.168px" height="29.168px" viewBox="0 0 29.168 29.168" style="enable-background:new 0 0 29.168 29.168;"
	 xml:space="preserve">
<g>
	<path d="M5.979,6.688c-0.195-0.194-0.195-0.512,0-0.707c0.194-0.194,0.512-0.194,0.707,0l3.84,3.84
		c0.195,0.195,0.195,0.513,0,0.707c-0.098,0.099-0.227,0.146-0.354,0.146s-0.256-0.049-0.354-0.146L5.979,6.688z M7.688,13.334
		h5.645V7.402l-3.7-3.701c-0.194-0.195-0.512-0.195-0.707,0c-0.194,0.195-0.194,0.512,0,0.707l3.407,3.408v4.518H8.104L4.55,8.782
		c-0.194-0.195-0.512-0.195-0.706,0c-0.195,0.194-0.195,0.512,0,0.706L7.688,13.334z M0.5,13.334h3.655l-2.079-2.077
		c-0.195-0.194-0.513-0.194-0.707,0c-0.195,0.195-0.195,0.513,0,0.707l0.37,0.37H0.5c-0.276,0-0.5,0.225-0.5,0.5
		S0.224,13.334,0.5,13.334z M14.583,7.592l5.817-5.818c0.195-0.194,0.195-0.512,0-0.707c-0.195-0.194-0.512-0.194-0.707,0
		l-5.11,5.111L9.475,1.067c-0.195-0.194-0.513-0.194-0.707,0c-0.195,0.195-0.195,0.513,0,0.707L14.583,7.592z M16.833,12.334V7.816
		l3.405-3.408c0.195-0.195,0.195-0.512,0-0.707c-0.194-0.195-0.512-0.195-0.706,0l-3.699,3.701v5.932h5.646l3.846-3.846
		c0.195-0.194,0.195-0.512,0-0.706c-0.195-0.195-0.512-0.195-0.707,0l-3.555,3.552H16.833z M27.089,11.257l-2.077,2.077h3.653
		c0.276,0,0.5-0.225,0.5-0.5s-0.224-0.5-0.5-0.5h-1.237l0.368-0.37c0.195-0.194,0.195-0.512,0-0.707
		C27.604,11.063,27.285,11.063,27.089,11.257z M2.077,17.911l2.079-2.077H0.5c-0.276,0-0.5,0.225-0.5,0.5s0.224,0.5,0.5,0.5h1.239
		l-0.37,0.37c-0.195,0.194-0.195,0.512,0,0.707c0.098,0.098,0.226,0.146,0.354,0.146C1.851,18.057,1.979,18.009,2.077,17.911z
		 M17.768,1.227c-0.195-0.194-0.515-0.194-0.707,0l-0.228,0.227V0.502c0-0.276-0.226-0.5-0.5-0.5s-0.5,0.224-0.5,0.5v3.366
		l1.935-1.934C17.96,1.738,17.96,1.422,17.768,1.227z M13.333,3.866V0.5c0-0.275-0.225-0.5-0.5-0.5s-0.5,0.225-0.5,0.5v0.952
		l-0.227-0.226c-0.194-0.195-0.512-0.195-0.707,0c-0.194,0.194-0.194,0.512,0,0.707L13.333,3.866z M18.632,10.52
		c0.101,0.104,0.229,0.154,0.361,0.154c0.123,0,0.248-0.046,0.346-0.139l4.009-3.84c0.196-0.191,0.205-0.508,0.016-0.707
		c-0.191-0.198-0.508-0.207-0.707-0.016l-4.008,3.84C18.449,10.004,18.44,10.32,18.632,10.52z M10.526,18.641
		c-0.195-0.195-0.512-0.195-0.707,0l-3.84,3.84c-0.195,0.195-0.195,0.514,0,0.707c0.098,0.1,0.226,0.146,0.354,0.146
		s0.256-0.049,0.354-0.146l3.84-3.84C10.722,19.152,10.722,18.836,10.526,18.641z M21.479,15.834h-5.646v5.932l3.699,3.701
		c0.098,0.098,0.227,0.146,0.354,0.146c0.127,0,0.256-0.049,0.354-0.146c0.194-0.195,0.194-0.512,0-0.707l-3.408-3.408v-4.518h4.229
		l3.554,3.552c0.194,0.195,0.512,0.195,0.707,0c0.194-0.194,0.194-0.512,0-0.706L21.479,15.834z M22.701,14.584l4.905-4.906
		c0.195-0.195,0.195-0.512,0-0.707c-0.194-0.195-0.512-0.195-0.707,0l-5.612,5.613l5.612,5.613c0.099,0.098,0.228,0.146,0.354,0.146
		c0.129,0,0.256-0.049,0.354-0.146c0.195-0.195,0.195-0.512,0-0.707L22.701,14.584z M19.348,18.641
		c-0.195-0.195-0.513-0.195-0.707,0c-0.195,0.195-0.195,0.512,0,0.707l3.84,3.84c0.098,0.1,0.227,0.146,0.354,0.146
		c0.129,0,0.256-0.049,0.355-0.146c0.192-0.193,0.192-0.512,0-0.707L19.348,18.641z M28.666,15.834h-3.653l2.077,2.077
		c0.101,0.098,0.228,0.146,0.354,0.146s0.257-0.049,0.354-0.146c0.195-0.195,0.195-0.513,0-0.707l-0.368-0.37h1.237
		c0.274,0,0.5-0.225,0.5-0.5S28.942,15.834,28.666,15.834z M14.583,21.576l-5.816,5.818c-0.195,0.193-0.195,0.512,0,0.707
		c0.194,0.193,0.512,0.193,0.707,0l5.109-5.111l5.11,5.111c0.098,0.098,0.227,0.146,0.354,0.146c0.129,0,0.258-0.05,0.355-0.146
		c0.195-0.195,0.195-0.514,0-0.707L14.583,21.576z M12.333,16.834v4.518L8.926,24.76c-0.194,0.195-0.194,0.512,0,0.707
		c0.099,0.098,0.226,0.146,0.354,0.146c0.128,0,0.256-0.049,0.354-0.146l3.7-3.701v-5.932H7.69L3.845,19.68
		c-0.195,0.194-0.195,0.512,0,0.706c0.194,0.195,0.512,0.195,0.706,0l3.554-3.552H12.333z M11.399,27.941
		c0.195,0.193,0.513,0.193,0.707,0l0.227-0.228v0.952c0,0.275,0.225,0.5,0.5,0.5s0.5-0.225,0.5-0.5v-3.368l-1.934,1.937
		C11.206,27.43,11.206,27.746,11.399,27.941z M2.267,8.971c-0.195-0.195-0.513-0.195-0.707,0c-0.195,0.195-0.195,0.512,0,0.707
		l4.905,4.906L1.56,19.49c-0.195,0.195-0.195,0.512,0,0.707c0.098,0.098,0.226,0.146,0.354,0.146s0.256-0.049,0.354-0.146
		l5.612-5.613L2.267,8.971z M15.833,25.3v3.368c0,0.275,0.226,0.5,0.5,0.5s0.5-0.225,0.5-0.5v-0.952l0.228,0.226
		c0.192,0.195,0.512,0.195,0.707,0c0.192-0.193,0.192-0.512,0-0.707L15.833,25.3z"/>
</g>
<g>
</g>
<g>
</g>
<g>
</g>
<g>
</g>
<g>
</g>
<g>
</g>
<g>
</g>
<g>
</g>
<g>
</g>
<g>
</g>
<g>
</g>
<g>
</g>
<g>
</g>
<g>
</g>
<g>
</g>
</svg>
