<?xml version="1.0" encoding="iso-8859-1"?>
<!-- Generator: Adobe Illustrator 16.0.0, SVG Export Plug-In . SVG Version: 6.00 Build 0)  -->
<!DOCTYPE svg PUBLIC "-//W3C//DTD SVG 1.1//EN" "http://www.w3.org/Graphics/SVG/1.1/DTD/svg11.dtd">
<svg version="1.1" id="Capa_1" xmlns="http://www.w3.org/2000/svg" xmlns:xlink="http://www.w3.org/1999/xlink" x="0px" y="0px"
	 width="32.292px" height="32.292px" viewBox="0 0 32.292 32.292" style="enable-background:new 0 0 32.292 32.292;"
	 xml:space="preserve">
<g>
	<path d="M32.292,16.146c0-0.286-0.233-0.521-0.521-0.521h-1.3l1.669-1.669c0.202-0.203,0.202-0.535,0-0.737
		c-0.203-0.203-0.534-0.203-0.736,0l-2.406,2.406h-0.923l1.2-1.2c0.2-0.204,0.2-0.534,0-0.736c-0.204-0.204-0.536-0.204-0.736,0
		l-1.936,1.937h-3.257c-0.116-1.602-0.751-3.059-1.743-4.202l5.959-5.959c0.203-0.204,0.203-0.534,0-0.736
		c-0.201-0.204-0.533-0.204-0.737,0l-5.959,5.959c-1.144-0.99-2.6-1.626-4.2-1.742V5.688l1.933-1.933
		c0.203-0.202,0.203-0.534,0-0.736c-0.203-0.202-0.533-0.202-0.736,0l-1.196,1.197V3.293l2.404-2.404c0.2-0.203,0.2-0.535,0-0.736
		c-0.204-0.203-0.536-0.203-0.736,0l-1.667,1.667V0.521C16.667,0.235,16.432,0,16.146,0s-0.521,0.235-0.521,0.521v1.3l-1.668-1.669
		c-0.202-0.203-0.533-0.203-0.737,0c-0.202,0.202-0.202,0.534,0,0.736l2.405,2.406v0.922l-1.198-1.199
		c-0.203-0.202-0.535-0.202-0.736,0c-0.203,0.203-0.203,0.534,0,0.736l1.934,1.935v3.256c-1.6,0.115-3.056,0.751-4.2,1.742
		L5.466,4.729c-0.204-0.204-0.535-0.204-0.736,0c-0.203,0.203-0.203,0.533,0,0.736l5.959,5.959c-0.992,1.146-1.627,2.6-1.743,4.202
		H5.691l-1.937-1.935c-0.202-0.202-0.534-0.202-0.736,0c-0.202,0.203-0.202,0.534,0,0.736l1.199,1.198H3.294l-2.405-2.403
		c-0.203-0.203-0.535-0.203-0.736,0c-0.203,0.203-0.203,0.533,0,0.736l1.668,1.667h-1.3C0.235,15.625,0,15.86,0,16.146
		c0,0.287,0.235,0.521,0.521,0.521h1.3l-1.668,1.67c-0.203,0.202-0.203,0.534,0,0.736c0.102,0.103,0.235,0.151,0.369,0.151
		s0.267-0.051,0.369-0.151l2.405-2.406h0.923l-1.199,1.198c-0.202,0.203-0.202,0.533,0,0.737c0.103,0.102,0.236,0.151,0.369,0.151
		s0.267-0.051,0.369-0.151l1.935-1.936h3.255c0.115,1.601,0.751,3.058,1.742,4.2l-5.958,5.958c-0.202,0.204-0.202,0.534,0,0.737
		c0.103,0.103,0.235,0.152,0.369,0.152c0.132,0,0.267-0.051,0.369-0.152l5.958-5.958c1.145,0.991,2.6,1.626,4.201,1.742v3.255
		l-1.933,1.938c-0.202,0.201-0.202,0.533,0,0.736c0.203,0.201,0.535,0.201,0.736,0l1.196-1.2v0.923l-2.403,2.406
		c-0.202,0.202-0.202,0.535,0,0.736c0.104,0.103,0.237,0.151,0.369,0.151s0.268-0.051,0.369-0.151l1.665-1.669v1.3
		c0,0.287,0.234,0.521,0.521,0.521c0.286,0,0.521-0.233,0.521-0.521v-1.299l1.669,1.668c0.2,0.202,0.533,0.202,0.736,0
		c0.2-0.202,0.2-0.534,0-0.736l-2.405-2.405v-0.923l1.199,1.199c0.103,0.102,0.236,0.151,0.369,0.151c0.134,0,0.27-0.051,0.37-0.151
		c0.203-0.204,0.203-0.535,0-0.736l-1.938-1.937v-3.256c1.602-0.115,3.059-0.751,4.202-1.742l5.957,5.958
		c0.105,0.103,0.237,0.152,0.371,0.152c0.132,0,0.267-0.051,0.368-0.152c0.203-0.203,0.203-0.533,0-0.737l-5.959-5.958
		c0.99-1.145,1.627-2.6,1.741-4.2h3.257l1.936,1.933c0.102,0.103,0.235,0.152,0.368,0.152c0.134,0,0.267-0.051,0.37-0.152
		c0.2-0.203,0.2-0.534,0-0.736l-1.201-1.196H29l2.404,2.402c0.102,0.102,0.236,0.151,0.368,0.151c0.135,0,0.267-0.051,0.37-0.151
		c0.2-0.204,0.2-0.534,0-0.736l-1.669-1.666h1.298C32.058,16.667,32.292,16.433,32.292,16.146z M22.304,16.667
		c-0.108,1.315-0.63,2.512-1.437,3.465c-0.224,0.266-0.47,0.511-0.736,0.736c-0.952,0.806-2.149,1.327-3.465,1.437
		c-0.172,0.015-0.345,0.026-0.521,0.026s-0.349-0.014-0.521-0.026c-1.314-0.108-2.513-0.63-3.466-1.437
		c-0.265-0.226-0.511-0.471-0.736-0.736c-0.804-0.953-1.325-2.149-1.436-3.465c-0.014-0.172-0.026-0.345-0.026-0.521
		s0.014-0.349,0.026-0.521c0.109-1.315,0.63-2.513,1.437-3.466c0.227-0.265,0.471-0.511,0.736-0.736
		c0.954-0.804,2.15-1.325,3.465-1.435c0.172-0.015,0.345-0.026,0.521-0.026s0.349,0.014,0.521,0.026
		c1.315,0.109,2.511,0.63,3.465,1.435c0.265,0.226,0.511,0.471,0.736,0.736c0.806,0.954,1.327,2.151,1.437,3.466
		c0.015,0.172,0.026,0.345,0.026,0.521S22.319,16.495,22.304,16.667z M19.937,13.09c-0.22-0.271-0.464-0.517-0.736-0.737
		c-0.711-0.574-1.58-0.944-2.534-1.048c-0.173-0.021-0.343-0.054-0.521-0.054s-0.348,0.034-0.521,0.054
		c-0.955,0.104-1.823,0.474-2.533,1.048c-0.273,0.22-0.517,0.466-0.737,0.737c-0.574,0.712-0.945,1.579-1.05,2.536
		c-0.02,0.173-0.053,0.343-0.053,0.521s0.034,0.348,0.053,0.521c0.104,0.955,0.476,1.822,1.05,2.534
		c0.218,0.272,0.464,0.516,0.737,0.736c0.71,0.574,1.577,0.944,2.533,1.048c0.173,0.021,0.343,0.053,0.521,0.053
		s0.348-0.032,0.521-0.053c0.956-0.104,1.823-0.474,2.534-1.048c0.272-0.221,0.519-0.464,0.736-0.736
		c0.574-0.712,0.945-1.579,1.05-2.534c0.019-0.173,0.053-0.343,0.053-0.521s-0.034-0.348-0.053-0.521
		C20.882,14.669,20.51,13.802,19.937,13.09z M19.945,16.667c-0.092,0.673-0.353,1.282-0.743,1.798
		c-0.212,0.278-0.46,0.524-0.736,0.736c-0.515,0.393-1.127,0.651-1.799,0.743c-0.172,0.021-0.343,0.053-0.521,0.053
		c-0.178,0-0.349-0.028-0.521-0.053c-0.672-0.092-1.281-0.351-1.799-0.743c-0.278-0.212-0.525-0.458-0.736-0.736
		c-0.391-0.515-0.651-1.125-0.743-1.798c-0.022-0.172-0.054-0.343-0.054-0.521s0.03-0.349,0.054-0.521
		c0.091-0.672,0.352-1.282,0.745-1.799c0.211-0.279,0.456-0.525,0.736-0.736c0.515-0.393,1.125-0.651,1.797-0.743
		c0.172-0.023,0.343-0.055,0.521-0.055c0.178,0,0.349,0.03,0.521,0.055c0.672,0.091,1.283,0.35,1.797,0.743
		c0.278,0.211,0.524,0.457,0.736,0.736c0.393,0.515,0.653,1.127,0.745,1.799c0.021,0.172,0.053,0.343,0.053,0.521
		S19.966,16.495,19.945,16.667z"/>
</g>
<g>
</g>
<g>
</g>
<g>
</g>
<g>
</g>
<g>
</g>
<g>
</g>
<g>
</g>
<g>
</g>
<g>
</g>
<g>
</g>
<g>
</g>
<g>
</g>
<g>
</g>
<g>
</g>
<g>
</g>
</svg>
