<?xml version="1.0" encoding="iso-8859-1"?>
<!-- Generator: Adobe Illustrator 16.0.0, SVG Export Plug-In . SVG Version: 6.00 Build 0)  -->
<!DOCTYPE svg PUBLIC "-//W3C//DTD SVG 1.1//EN" "http://www.w3.org/Graphics/SVG/1.1/DTD/svg11.dtd">
<svg version="1.1" id="Capa_1" xmlns="http://www.w3.org/2000/svg" xmlns:xlink="http://www.w3.org/1999/xlink" x="0px" y="0px"
	 width="36.074px" height="36.074px" viewBox="0 0 36.074 36.074" style="enable-background:new 0 0 36.074 36.074;"
	 xml:space="preserve">
<g>
	<path d="M33.465,26.344l-2.76-1.596l1.931-0.516c0.279-0.075,0.442-0.361,0.369-0.639c-0.074-0.279-0.361-0.436-0.638-0.368
		l-2.938,0.787l-1.503-0.868V12.929l1.502-0.869l2.941,0.79c0.045,0.013,0.091,0.019,0.136,0.019c0.229,0,0.439-0.152,0.502-0.386
		c0.073-0.278-0.089-0.563-0.369-0.637l-1.933-0.519l2.761-1.595c0.249-0.145,0.335-0.461,0.192-0.713
		c-0.146-0.248-0.465-0.335-0.713-0.19l-2.759,1.593l0.517-1.932c0.072-0.279-0.092-0.562-0.369-0.636
		c-0.275-0.066-0.563,0.089-0.638,0.369l-0.787,2.938l-1.499,0.867l-8.853-5.106V5.183l2.149-2.152c0.204-0.203,0.204-0.533,0-0.736
		c-0.201-0.203-0.532-0.203-0.736,0l-1.413,1.415V0.521C18.558,0.234,18.325,0,18.037,0s-0.521,0.234-0.521,0.521v3.188L16.1,2.294
		c-0.203-0.203-0.533-0.203-0.736,0c-0.204,0.203-0.204,0.533,0,0.736l2.152,2.152v1.735l-8.853,5.105l-1.5-0.865L6.375,8.22
		c-0.076-0.278-0.36-0.436-0.638-0.369C5.459,7.926,5.294,8.213,5.368,8.49l0.519,1.931L3.128,8.83
		C2.879,8.681,2.56,8.769,2.416,9.02C2.273,9.27,2.358,9.588,2.607,9.732l2.762,1.595l-1.934,0.519
		c-0.278,0.074-0.442,0.36-0.369,0.637c0.062,0.233,0.273,0.386,0.502,0.386c0.044,0,0.089-0.006,0.136-0.019l2.941-0.79
		l1.501,0.866v10.222l-1.502,0.866l-2.94-0.789c-0.278-0.065-0.563,0.092-0.638,0.368c-0.074,0.278,0.09,0.563,0.369,0.639
		l1.934,0.516l-2.761,1.596c-0.249,0.144-0.334,0.461-0.191,0.711c0.097,0.166,0.272,0.261,0.453,0.261
		c0.088,0,0.178-0.021,0.26-0.069l2.76-1.594l-0.517,1.931c-0.074,0.279,0.091,0.564,0.369,0.639
		c0.045,0.011,0.091,0.017,0.136,0.017c0.23,0,0.44-0.152,0.502-0.386l0.787-2.937l1.505-0.868l8.847,5.106v1.735l-2.152,2.152
		c-0.203,0.202-0.203,0.533,0,0.736c0.103,0.102,0.236,0.152,0.369,0.152c0.133,0,0.267-0.051,0.369-0.152l1.416-1.416v3.19
		c0,0.287,0.233,0.521,0.521,0.521c0.288,0,0.521-0.233,0.521-0.521v-3.188l1.412,1.414c0.204,0.203,0.535,0.203,0.737,0
		c0.203-0.203,0.203-0.534,0-0.736l-2.156-2.152v-1.737l8.848-5.106l1.504,0.868l0.786,2.938c0.064,0.233,0.275,0.386,0.503,0.386
		c0.045,0,0.09-0.006,0.136-0.019c0.278-0.074,0.442-0.36,0.368-0.637l-0.516-1.933l2.759,1.594c0.082,0.049,0.172,0.071,0.26,0.071
		c0.181,0,0.355-0.095,0.454-0.261C33.801,26.805,33.715,26.486,33.465,26.344z M18.557,8.119l7.811,4.504l-1.334,0.771
		l-0.009,0.001l-6.462-3.729l-0.005-0.013L18.557,8.119L18.557,8.119z M23.448,13.691l-3.258,0.61l-1.099-3.125L23.448,13.691z
		 M17.515,8.119v1.538l-0.004,0.012l-6.464,3.729l-0.006-0.001l-1.338-0.771L17.515,8.119z M16.979,11.176l-1.1,3.125l-3.258-0.61
		L16.979,11.176z M11.568,15.52l2.155,2.515l-2.155,2.514V15.52z M9.187,13.527l1.33,0.768l0.009,0.009v7.461l-0.009,0.008
		l-1.33,0.77V13.527z M17.515,27.952L9.71,23.443l1.332-0.766l0.009-0.003l6.461,3.729l0.003,0.011V27.952z M12.625,22.377
		l3.255-0.61l1.101,3.125L12.625,22.377z M18.036,24.754l-0.521-1.478l-0.95-2.697l-2.806,0.525l-1.543,0.288l1.019-1.188
		l1.861-2.172l-1.861-2.172l-1.019-1.189l1.543,0.288l2.806,0.526l0.95-2.699l0.521-1.478l0.521,1.482l0.949,2.695l2.808-0.526
		l1.543-0.288l-1.02,1.189l-1.861,2.172l1.861,2.172l1.02,1.188l-1.543-0.288l-2.808-0.525l-0.949,2.691L18.036,24.754z
		 M24.502,15.523v5.023l-2.153-2.512L24.502,15.523z M23.446,22.377l-4.354,2.515l1.099-3.125L23.446,22.377z M18.557,27.952v-1.54
		l0.004-0.01l6.46-3.729l0.012,0.002l1.329,0.768L18.557,27.952z M26.882,22.541l-1.328-0.768l-0.01-0.012v-7.454l0.01-0.012
		l1.328-0.767V22.541z"/>
</g>
<g>
</g>
<g>
</g>
<g>
</g>
<g>
</g>
<g>
</g>
<g>
</g>
<g>
</g>
<g>
</g>
<g>
</g>
<g>
</g>
<g>
</g>
<g>
</g>
<g>
</g>
<g>
</g>
<g>
</g>
</svg>
