<?xml version="1.0" encoding="iso-8859-1"?>
<!-- Generator: Adobe Illustrator 16.0.0, SVG Export Plug-In . SVG Version: 6.00 Build 0)  -->
<!DOCTYPE svg PUBLIC "-//W3C//DTD SVG 1.1//EN" "http://www.w3.org/Graphics/SVG/1.1/DTD/svg11.dtd">
<svg version="1.1" id="Capa_1" xmlns="http://www.w3.org/2000/svg" xmlns:xlink="http://www.w3.org/1999/xlink" x="0px" y="0px"
	 width="35.793px" height="35.793px" viewBox="0 0 35.793 35.793" style="enable-background:new 0 0 35.793 35.793;"
	 xml:space="preserve">
<g>
	<path d="M33.21,26.16l-0.98-0.566v-2.468c0-0.179-0.096-0.345-0.25-0.433l-2.385-1.377c-0.154-0.09-0.347-0.09-0.5,0l-2.137,1.232
		l-1.611-0.932l5.729-1.533c0.267-0.07,0.425-0.346,0.354-0.611c-0.071-0.265-0.346-0.424-0.613-0.354l-6.426,1.721l-2.157-2.944
		l2.159-2.949l6.423,1.722c0.043,0.012,0.087,0.017,0.13,0.017c0.222,0,0.423-0.147,0.481-0.371
		c0.071-0.267-0.087-0.541-0.354-0.612l-5.723-1.534l1.605-0.928l2.135,1.232c0.078,0.044,0.164,0.067,0.25,0.067
		s0.173-0.022,0.25-0.067l2.388-1.377c0.154-0.089,0.25-0.255,0.25-0.434l-0.002-2.463l0.982-0.568
		c0.238-0.138,0.32-0.444,0.184-0.683c-0.14-0.24-0.445-0.322-0.684-0.183l-0.982,0.568l-2.136-1.234
		c-0.153-0.089-0.345-0.089-0.5,0l-2.385,1.376c-0.155,0.089-0.25,0.254-0.25,0.433v2.467l-1.607,0.929l1.533-5.727
		c0.071-0.267-0.087-0.541-0.354-0.612c-0.264-0.07-0.541,0.087-0.611,0.354l-1.721,6.426l-3.631,0.395l-1.475-3.342l4.704-4.703
		c0.194-0.195,0.194-0.512,0-0.707c-0.194-0.195-0.512-0.195-0.707,0l-4.192,4.191v-1.86L20.53,6.49
		c0.155-0.089,0.25-0.254,0.25-0.433V3.301c0-0.179-0.095-0.344-0.25-0.433l-2.134-1.234V0.5c0-0.276-0.224-0.5-0.5-0.5
		s-0.5,0.224-0.5,0.5v1.134l-2.135,1.233c-0.155,0.089-0.25,0.254-0.25,0.433v2.756c0,0.179,0.096,0.344,0.25,0.433l2.135,1.23v1.86
		l-4.191-4.19c-0.195-0.195-0.512-0.195-0.707,0c-0.195,0.195-0.195,0.512,0,0.707l4.704,4.703l-1.474,3.342l-3.631-0.395
		L10.376,7.32c-0.071-0.267-0.344-0.425-0.612-0.354C9.497,7.037,9.339,7.312,9.41,7.578l1.534,5.727l-1.61-0.93V9.909
		c0-0.179-0.095-0.344-0.25-0.433L6.701,8.1c-0.154-0.089-0.346-0.089-0.5,0L4.066,9.334L3.083,8.766
		C2.844,8.627,2.538,8.71,2.4,8.949C2.262,9.188,2.344,9.494,2.583,9.632L3.566,10.2l-0.002,2.463c0,0.179,0.095,0.344,0.25,0.434
		l2.385,1.377c0.077,0.044,0.164,0.067,0.25,0.067c0.086,0,0.173-0.022,0.25-0.067l2.135-1.233l1.608,0.929l-5.723,1.534
		c-0.267,0.071-0.425,0.346-0.354,0.612c0.06,0.224,0.262,0.371,0.482,0.371c0.043,0,0.086-0.005,0.13-0.017l6.423-1.722
		l2.159,2.949l-2.156,2.944L4.977,19.12c-0.266-0.07-0.541,0.088-0.612,0.354c-0.071,0.266,0.087,0.541,0.354,0.611l5.728,1.533
		l-1.612,0.932l-2.139-1.232c-0.154-0.09-0.345-0.09-0.5,0l-2.383,1.375c-0.155,0.09-0.25,0.254-0.25,0.434l-0.002,2.469
		l-0.98,0.564c-0.239,0.139-0.321,0.443-0.183,0.684c0.093,0.16,0.261,0.25,0.434,0.25c0.085,0,0.171-0.021,0.25-0.066l0.983-0.567
		l2.134,1.233c0.077,0.043,0.164,0.066,0.25,0.066c0.086,0,0.173-0.021,0.25-0.066l2.385-1.379c0.154-0.09,0.25-0.254,0.25-0.434
		v-2.463l1.608-0.93l-1.531,5.723c-0.071,0.268,0.087,0.541,0.354,0.611c0.043,0.014,0.087,0.018,0.13,0.018
		c0.221,0,0.423-0.146,0.482-0.369l1.718-6.424l3.632-0.396l1.473,3.342l-4.703,4.701c-0.195,0.195-0.195,0.514,0,0.707
		c0.195,0.195,0.512,0.195,0.707,0l4.192-4.189v1.861l-2.134,1.23c-0.155,0.088-0.25,0.254-0.25,0.432v2.758
		c0,0.178,0.095,0.344,0.25,0.432l2.134,1.234v1.135c0,0.275,0.224,0.5,0.5,0.5s0.5-0.225,0.5-0.5v-1.135l2.135-1.232
		c0.155-0.09,0.25-0.254,0.25-0.434v-2.756c0-0.18-0.096-0.344-0.25-0.434l-2.135-1.23v-1.861l4.191,4.193
		c0.099,0.098,0.227,0.146,0.354,0.146s0.256-0.049,0.354-0.146c0.194-0.195,0.194-0.512,0-0.707l-4.703-4.703l1.474-3.342
		l3.632,0.396l1.719,6.423c0.061,0.223,0.263,0.37,0.481,0.37c0.043,0,0.086-0.006,0.13-0.019c0.268-0.069,0.426-0.344,0.354-0.61
		l-1.53-5.724l1.608,0.929v2.463c0,0.179,0.096,0.343,0.25,0.433l2.385,1.379c0.078,0.045,0.164,0.068,0.25,0.068
		c0.087,0,0.174-0.023,0.25-0.068l2.133-1.232l0.983,0.566c0.079,0.045,0.165,0.068,0.25,0.068c0.173,0,0.341-0.091,0.435-0.25
		C33.533,26.604,33.451,26.298,33.21,26.16z M6.448,13.463l-1.885-1.088l0.001-1.598v-0.578l0.5-0.289l1.385-0.8l1.883,1.087v1.6
		v0.578l-0.5,0.289L6.448,13.463z M19.781,32.203l-1.385,0.8l-0.5,0.289l-0.5-0.289l-1.385-0.801v-2.179l1.385-0.797l0.5-0.289
		l0.5,0.289l1.385,0.797V32.203z M18.396,22.957l-0.5,1.134l-0.5-1.135l-1.048-2.377l-2.585,0.28l-1.232,0.134l0.732-1l1.536-2.097
		l-1.536-2.098l-0.732-1l1.232,0.134l2.585,0.281l1.048-2.378l0.5-1.134l0.5,1.134l1.048,2.378l2.585-0.281l1.232-0.134l-0.732,1
		l-1.534,2.098l1.535,2.098l0.732,1l-1.232-0.135l-2.585-0.279L18.396,22.957z M16.011,3.589l1.385-0.8l0.5-0.289l0.5,0.289
		l1.385,0.8v2.178l-1.385,0.798l-0.5,0.288l-0.5-0.288l-1.385-0.798V3.589z M27.458,10.197l1.885-1.087l1.386,0.801l0.5,0.289v0.578
		l0.001,1.598l-1.888,1.088l-1.385-0.799l-0.5-0.289v-0.578L27.458,10.197L27.458,10.197z M8.334,25.591l-1.885,1.091L5.065,25.88
		l-0.502-0.289v-0.575l0.001-1.601l1.883-1.088l1.387,0.799l0.5,0.289v0.578V25.591L8.334,25.591z M29.345,26.682l-1.886-1.091
		v-1.595v-0.58l0.499-0.287l1.387-0.801l1.885,1.088v1.602v0.574l-0.501,0.289L29.345,26.682z"/>
</g>
<g>
</g>
<g>
</g>
<g>
</g>
<g>
</g>
<g>
</g>
<g>
</g>
<g>
</g>
<g>
</g>
<g>
</g>
<g>
</g>
<g>
</g>
<g>
</g>
<g>
</g>
<g>
</g>
<g>
</g>
</svg>
