<?xml version="1.0" encoding="iso-8859-1"?>
<!-- Generator: Adobe Illustrator 16.0.0, SVG Export Plug-In . SVG Version: 6.00 Build 0)  -->
<!DOCTYPE svg PUBLIC "-//W3C//DTD SVG 1.1//EN" "http://www.w3.org/Graphics/SVG/1.1/DTD/svg11.dtd">
<svg version="1.1" id="Capa_1" xmlns="http://www.w3.org/2000/svg" xmlns:xlink="http://www.w3.org/1999/xlink" x="0px" y="0px"
	 width="33.187px" height="33.186px" viewBox="0 0 33.187 33.186" style="enable-background:new 0 0 33.187 33.186;"
	 xml:space="preserve">
<g>
	<path d="M28.509,23.831h-3.062l-2.297-2.297h4.594c0.432,0,0.781-0.351,0.781-0.781c0-0.432-0.35-0.781-0.781-0.781h-4.837v-7.749
		h5.269c0.431,0,0.781-0.351,0.781-0.781c0-0.432-0.351-0.781-0.781-0.781h-4.849l1.302-1.304h3.7c0.432,0,0.781-0.35,0.781-0.781
		s-0.35-0.781-0.781-0.781H26.19l2.105-2.105c0.305-0.305,0.305-0.801,0-1.106c-0.306-0.305-0.8-0.305-1.105,0l-1.985,1.986V4.672
		c0-0.431-0.35-0.781-0.781-0.781s-0.781,0.35-0.781,0.781v3.459l-1.422,1.422l0.003-4.846c0-0.431-0.352-0.781-0.781-0.781
		c-0.432,0-0.781,0.349-0.781,0.781l-0.003,5.267h-7.747V5.138c0-0.431-0.35-0.781-0.781-0.781c-0.43,0-0.781,0.35-0.781,0.781
		v4.595L9.54,7.922V4.856c0-0.431-0.35-0.781-0.781-0.781c-0.432,0-0.781,0.35-0.781,0.781v1.503L6.199,4.583
		c-0.305-0.305-0.8-0.305-1.105,0c-0.305,0.306-0.305,0.801,0,1.106l2.289,2.288H4.855c-0.431,0-0.781,0.35-0.781,0.781
		c0,0.431,0.35,0.781,0.781,0.781h4.09l1.297,1.298H5.65c-0.431,0-0.781,0.35-0.781,0.781s0.35,0.781,0.781,0.781h4.837v7.749H5.221
		c-0.431,0-0.781,0.35-0.781,0.781s0.35,0.781,0.781,0.781l4.843-0.002L8.13,23.643H4.673c-0.431,0-0.781,0.35-0.781,0.781
		s0.35,0.781,0.781,0.781h1.895l-1.474,1.474c-0.305,0.306-0.305,0.801,0,1.106c0.152,0.152,0.352,0.229,0.553,0.229
		c0.2,0,0.399-0.076,0.552-0.229l1.592-1.593v2.136c0,0.432,0.351,0.781,0.781,0.781c0.432,0,0.781-0.35,0.781-0.781V24.63
		l1.815-1.815v4.847c0,0.431,0.35,0.781,0.781,0.781s0.781-0.351,0.781-0.781v-5.267h7.748v4.839c0,0.432,0.351,0.781,0.781,0.781
		c0.432,0,0.781-0.35,0.781-0.781V22.64l1.784,1.784v4.091c0,0.431,0.351,0.781,0.781,0.781c0.432,0,0.781-0.351,0.781-0.781v-2.528
		l1.801,1.801c0.152,0.152,0.354,0.229,0.554,0.229s0.398-0.076,0.552-0.229c0.305-0.306,0.305-0.801,0-1.105l-1.288-1.287h1.501
		c0.432,0,0.781-0.353,0.781-0.781C29.288,24.182,28.94,23.831,28.509,23.831z M13.155,20.832h-0.42H12.05v-0.684v-0.421v-7.083
		v-0.243v-0.862h0.862h0.242h7.083h0.42h0.686v0.685v0.418v7.087v0.242v0.859h-0.862h-0.243L13.155,20.832z M17.479,28.556v3.849
		c0,0.431-0.35,0.781-0.781,0.781s-0.781-0.351-0.781-0.781v-3.849c0-0.431,0.35-0.781,0.781-0.781S17.479,28.127,17.479,28.556z
		 M4.631,17.271H0.783c-0.431,0-0.781-0.35-0.781-0.781s0.35-0.781,0.781-0.781h3.848c0.431,0,0.781,0.35,0.781,0.781
		S5.062,17.271,4.631,17.271z M15.708,4.63l0.002-3.849C15.71,0.352,16.061,0,16.492,0c0.432,0,0.781,0.352,0.781,0.781L17.271,4.63
		c0,0.431-0.35,0.781-0.781,0.781C16.057,5.411,15.708,5.061,15.708,4.63z M33.185,16.703c0,0.431-0.352,0.781-0.781,0.781
		l-3.85-0.002c-0.432,0-0.781-0.351-0.781-0.781c0-0.432,0.35-0.781,0.781-0.781l3.85,0.002
		C32.833,15.921,33.185,16.271,33.185,16.703z"/>
</g>
<g>
</g>
<g>
</g>
<g>
</g>
<g>
</g>
<g>
</g>
<g>
</g>
<g>
</g>
<g>
</g>
<g>
</g>
<g>
</g>
<g>
</g>
<g>
</g>
<g>
</g>
<g>
</g>
<g>
</g>
</svg>
