<?xml version="1.0" encoding="iso-8859-1"?>
<!-- Generator: Adobe Illustrator 16.0.0, SVG Export Plug-In . SVG Version: 6.00 Build 0)  -->
<!DOCTYPE svg PUBLIC "-//W3C//DTD SVG 1.1//EN" "http://www.w3.org/Graphics/SVG/1.1/DTD/svg11.dtd">
<svg version="1.1" id="Capa_1" xmlns="http://www.w3.org/2000/svg" xmlns:xlink="http://www.w3.org/1999/xlink" x="0px" y="0px"
	 width="38.439px" height="38.44px" viewBox="0 0 38.439 38.44" style="enable-background:new 0 0 38.439 38.44;"
	 xml:space="preserve">
<g>
	<path d="M37.154,16.995l-2.57-0.002l-0.853,1.477h-5.597l3.768-3.766c0.293-0.293,0.293-0.769,0-1.062s-0.768-0.293-1.061,0
		l-4.828,4.826h-0.082c-0.213-1.918-1.234-3.591-2.711-4.683l0.047-0.084l6.591-1.766c0.399-0.107,0.637-0.519,0.53-0.919
		c-0.107-0.399-0.518-0.639-0.92-0.53l-5.141,1.377l2.796-4.841h1.703l1.286-2.227l-1.285-2.226l-2.57-0.002l-1.283,2.229
		l0.852,1.475l-2.797,4.846l-1.378-5.146c-0.106-0.399-0.517-0.637-0.919-0.53c-0.399,0.107-0.637,0.52-0.53,0.92l1.769,6.592
		l-0.043,0.076c-0.83-0.363-1.746-0.569-2.708-0.569c-0.962,0-1.876,0.204-2.706,0.569l-0.043-0.076l1.766-6.59
		c0.107-0.399-0.13-0.812-0.531-0.918c-0.396-0.105-0.811,0.131-0.918,0.529l-1.377,5.143l-2.797-4.845l0.853-1.477L12.179,2.57
		l-2.57,0.002L8.324,4.798l1.285,2.226l1.705,0.001l2.796,4.843l-5.141-1.377c-0.398-0.105-0.812,0.131-0.918,0.53
		c-0.107,0.4,0.13,0.812,0.531,0.919l6.59,1.766l0.046,0.08c-1.479,1.093-2.499,2.767-2.712,4.685h-0.084l-4.826-4.826
		c-0.293-0.293-0.769-0.293-1.062,0s-0.293,0.769,0,1.062l3.767,3.766H4.707l-0.853-1.475l-2.57-0.002L0,19.221l1.284,2.226h2.57
		l0.854-1.478h5.591l-3.765,3.765c-0.293,0.293-0.293,0.769,0,1.062c0.146,0.146,0.339,0.219,0.53,0.219
		c0.192,0,0.384-0.072,0.53-0.219l4.824-4.824h0.086c0.213,1.918,1.233,3.592,2.712,4.686l-0.044,0.075L8.576,26.5
		c-0.399,0.107-0.637,0.52-0.529,0.92c0.106,0.4,0.521,0.639,0.919,0.529l5.145-1.379l-2.798,4.848l-1.704-0.002l-1.286,2.229
		l1.287,2.226h2.569l1.285-2.226l-0.853-1.479l2.795-4.842l1.38,5.139c0.09,0.336,0.393,0.557,0.724,0.557
		c0.063,0,0.13-0.008,0.195-0.024c0.399-0.106,0.637-0.521,0.529-0.92l-1.767-6.588l0.043-0.074c0.83,0.363,1.744,0.568,2.706,0.568
		c0.963,0,1.877-0.205,2.708-0.57l0.043,0.074l-1.768,6.592c-0.106,0.399,0.131,0.812,0.531,0.918
		c0.065,0.019,0.13,0.024,0.194,0.024c0.332,0,0.634-0.221,0.724-0.555l1.377-5.145l2.798,4.848l-0.853,1.477l1.285,2.228
		l2.57-0.002l1.284-2.226l-1.284-2.227h-1.705l-2.798-4.846l5.144,1.379c0.398,0.107,0.812-0.131,0.918-0.529
		c0.107-0.4-0.129-0.812-0.529-0.92l-6.592-1.768l-0.045-0.08c1.478-1.092,2.498-2.766,2.711-4.684h0.09l4.822,4.824
		c0.146,0.146,0.338,0.221,0.53,0.221c0.19,0,0.384-0.072,0.529-0.221c0.293-0.293,0.293-0.769,0-1.062l-3.761-3.765h5.591
		l0.854,1.478h2.569l1.284-2.226L37.154,16.995z M24.475,19.22c0,0.257-0.041,0.503-0.076,0.75
		c-0.197,1.361-0.911,2.545-1.942,3.359c-0.394,0.311-0.819,0.574-1.291,0.766c-0.604,0.242-1.26,0.383-1.949,0.383
		s-1.345-0.141-1.947-0.383c-0.471-0.188-0.898-0.453-1.291-0.764c-1.033-0.816-1.747-2-1.944-3.361
		c-0.035-0.246-0.075-0.493-0.075-0.75s0.039-0.503,0.075-0.75c0.197-1.361,0.911-2.545,1.944-3.361
		c0.393-0.31,0.82-0.574,1.291-0.763c0.604-0.242,1.258-0.384,1.947-0.384c0.688,0,1.345,0.142,1.949,0.384
		c0.472,0.188,0.897,0.454,1.291,0.765c1.031,0.815,1.745,1.998,1.942,3.359C24.434,18.717,24.475,18.963,24.475,19.22z"/>
</g>
<g>
</g>
<g>
</g>
<g>
</g>
<g>
</g>
<g>
</g>
<g>
</g>
<g>
</g>
<g>
</g>
<g>
</g>
<g>
</g>
<g>
</g>
<g>
</g>
<g>
</g>
<g>
</g>
<g>
</g>
</svg>
