<?xml version="1.0" encoding="iso-8859-1"?>
<!-- Generator: Adobe Illustrator 16.0.0, SVG Export Plug-In . SVG Version: 6.00 Build 0)  -->
<!DOCTYPE svg PUBLIC "-//W3C//DTD SVG 1.1//EN" "http://www.w3.org/Graphics/SVG/1.1/DTD/svg11.dtd">
<svg version="1.1" id="Capa_1" xmlns="http://www.w3.org/2000/svg" xmlns:xlink="http://www.w3.org/1999/xlink" x="0px" y="0px"
	 width="37.783px" height="37.783px" viewBox="0 0 37.783 37.783" style="enable-background:new 0 0 37.783 37.783;"
	 xml:space="preserve">
<g>
	<path d="M34.972,27.281l-2.789-1.609l1.525-0.883c0.373-0.216,0.501-0.693,0.285-1.066c-0.217-0.373-0.694-0.499-1.067-0.283
		l-2.305,1.33l-1.896-1.096l4.536-2.618c0.372-0.216,0.5-0.691,0.285-1.066c-0.217-0.371-0.695-0.501-1.066-0.283l-5.318,3.067
		l-1.238-0.717c0.435-0.964,0.684-2.032,0.684-3.157c0-1.128-0.249-2.194-0.685-3.161l1.238-0.716l5.318,3.07
		c0.123,0.071,0.257,0.106,0.391,0.106c0.271,0,0.533-0.141,0.677-0.391c0.215-0.373,0.087-0.851-0.285-1.066l-4.538-2.622
		l1.898-1.095l2.307,1.333c0.123,0.071,0.258,0.106,0.391,0.106c0.27,0,0.532-0.141,0.677-0.391
		c0.216-0.373,0.088-0.852-0.285-1.067l-1.526-0.882l2.788-1.611c0.373-0.216,0.501-0.694,0.285-1.066
		c-0.216-0.372-0.695-0.5-1.066-0.284l-2.787,1.61v-1.76c0-0.431-0.351-0.781-0.781-0.781c-0.432,0-0.781,0.35-0.781,0.781
		l0.001,2.663l-1.896,1.095l0.001-5.235c0-0.432-0.349-0.781-0.781-0.781c-0.431,0-0.781,0.35-0.781,0.781l-0.001,6.139L25.14,14.39
		c-1.259-1.739-3.219-2.939-5.467-3.167V9.797l5.316-3.07c0.373-0.215,0.501-0.693,0.285-1.066
		c-0.216-0.374-0.694-0.501-1.066-0.285l-4.535,2.621V5.808l2.306-1.331c0.374-0.216,0.5-0.694,0.285-1.066
		c-0.217-0.372-0.695-0.502-1.066-0.285l-1.525,0.879V0.781C19.672,0.35,19.322,0,18.891,0S18.11,0.35,18.11,0.781v3.221
		l-1.524-0.881c-0.374-0.216-0.851-0.088-1.067,0.284c-0.216,0.372-0.088,0.85,0.285,1.066l2.306,1.333v2.188l-4.536-2.619
		c-0.372-0.215-0.851-0.088-1.066,0.286c-0.216,0.373-0.087,0.851,0.285,1.066l5.317,3.069v1.427
		c-2.248,0.227-4.208,1.428-5.467,3.167l-1.246-0.718V7.529c0-0.431-0.35-0.781-0.781-0.781s-0.781,0.35-0.781,0.781v5.237
		l-1.894-1.095L7.94,9.006c0-0.431-0.35-0.781-0.781-0.781s-0.781,0.35-0.781,0.781v1.76L3.589,9.158
		C3.216,8.942,2.738,9.07,2.522,9.442s-0.087,0.851,0.285,1.065l2.789,1.612l-1.525,0.88c-0.374,0.216-0.501,0.694-0.286,1.067
		c0.145,0.25,0.408,0.391,0.677,0.391c0.132,0,0.267-0.033,0.391-0.106l2.305-1.33l1.896,1.095l-4.537,2.619
		c-0.374,0.216-0.501,0.694-0.285,1.067c0.145,0.25,0.407,0.391,0.677,0.391c0.132,0,0.266-0.034,0.391-0.106l5.316-3.07
		l1.243,0.717c-0.436,0.966-0.683,2.034-0.683,3.16c0,1.128,0.248,2.19,0.683,3.157l-1.241,0.717l-5.32-3.065
		c-0.373-0.216-0.851-0.088-1.066,0.284c-0.216,0.374-0.086,0.852,0.287,1.067l4.536,2.617l-1.897,1.097l-2.304-1.333
		c-0.373-0.213-0.851-0.087-1.067,0.285c-0.216,0.373-0.088,0.852,0.285,1.067l1.525,0.882L2.81,27.277
		c-0.374,0.216-0.501,0.693-0.285,1.065c0.145,0.25,0.407,0.391,0.677,0.391c0.132,0,0.266-0.032,0.391-0.107l2.789-1.609
		l0.001,1.762c0,0.432,0.35,0.781,0.781,0.781l0,0c0.431,0,0.781-0.35,0.781-0.781l-0.002-2.665l1.898-1.095l-0.001,5.239
		c0,0.431,0.349,0.781,0.781,0.781c0.432,0,0.781-0.351,0.781-0.781l0.002-6.143l1.243-0.717c1.258,1.74,3.219,2.942,5.468,3.168
		v1.426l-5.315,3.069c-0.374,0.216-0.501,0.693-0.286,1.066c0.216,0.374,0.694,0.502,1.067,0.286l4.534-2.62v2.189l-2.306,1.33
		c-0.374,0.216-0.501,0.694-0.285,1.068c0.217,0.371,0.694,0.501,1.066,0.284l1.525-0.883v3.219c0,0.432,0.35,0.781,0.781,0.781
		s0.781-0.35,0.781-0.781v-3.221l1.528,0.885c0.122,0.069,0.257,0.106,0.391,0.106c0.27,0,0.532-0.142,0.677-0.391
		c0.216-0.374,0.087-0.853-0.285-1.068l-2.309-1.332v-2.188l4.536,2.62c0.123,0.069,0.258,0.104,0.391,0.104
		c0.271,0,0.533-0.141,0.677-0.391c0.216-0.373,0.089-0.851-0.285-1.066l-5.317-3.069v-1.426c2.25-0.226,4.209-1.426,5.469-3.168
		l1.244,0.717v6.143c0,0.431,0.35,0.781,0.781,0.781c0.43,0,0.781-0.351,0.781-0.781v-5.239l1.894,1.095l0.001,2.663
		c0,0.432,0.351,0.781,0.781,0.781c0.432,0,0.781-0.35,0.781-0.781v-1.76l2.788,1.611c0.124,0.071,0.258,0.107,0.391,0.107
		c0.271,0,0.533-0.141,0.678-0.391C35.474,27.974,35.345,27.497,34.972,27.281z M19.669,24.999
		c-0.256,0.032-0.516,0.055-0.781,0.055c-0.266,0-0.525-0.021-0.781-0.055C16.436,24.785,14.976,23.9,14,22.622
		c-0.316-0.412-0.584-0.862-0.788-1.349c-0.308-0.73-0.478-1.534-0.478-2.374c0-0.844,0.171-1.645,0.479-2.375
		c0.204-0.486,0.473-0.935,0.789-1.35c0.976-1.278,2.436-2.161,4.106-2.375c0.257-0.032,0.517-0.056,0.781-0.056
		c0.264,0,0.524,0.022,0.781,0.056c1.67,0.213,3.131,1.099,4.107,2.374c0.315,0.413,0.586,0.864,0.789,1.349
		c0.307,0.731,0.478,1.537,0.478,2.377c0,0.842-0.171,1.644-0.477,2.376c-0.204,0.484-0.473,0.934-0.789,1.349
		C22.802,23.9,21.341,24.785,19.669,24.999z"/>
</g>
<g>
</g>
<g>
</g>
<g>
</g>
<g>
</g>
<g>
</g>
<g>
</g>
<g>
</g>
<g>
</g>
<g>
</g>
<g>
</g>
<g>
</g>
<g>
</g>
<g>
</g>
<g>
</g>
<g>
</g>
</svg>
