<?xml version="1.0" encoding="iso-8859-1"?>
<!-- Generator: Adobe Illustrator 16.0.0, SVG Export Plug-In . SVG Version: 6.00 Build 0)  -->
<!DOCTYPE svg PUBLIC "-//W3C//DTD SVG 1.1//EN" "http://www.w3.org/Graphics/SVG/1.1/DTD/svg11.dtd">
<svg version="1.1" id="Capa_1" xmlns="http://www.w3.org/2000/svg" xmlns:xlink="http://www.w3.org/1999/xlink" x="0px" y="0px"
	 width="34.836px" height="34.836px" viewBox="0 0 34.836 34.836" style="enable-background:new 0 0 34.836 34.836;"
	 xml:space="preserve">
<g>
	<path d="M25.756,13.208l3.235-1.869l1.496,0.864l2.019-1.164V8.711l-2.019-1.166l-2.017,1.166v1.727l-3.234,1.867L17.94,8.095
		V4.357l1.498-0.865V1.164L17.419,0l-2.019,1.164v2.328l1.498,0.865v3.737l-7.297,4.209l-3.233-1.867V8.71L4.349,7.544L2.33,8.71
		v2.328l2.019,1.164l1.498-0.864l3.234,1.869v8.422l-3.234,1.867L4.35,22.632l-2.019,1.166l0.002,2.328l2.018,1.164l2.018-1.164
		v-1.729l3.235-1.867l7.293,4.211v3.737l-1.497,0.863v2.328l2.018,1.166l2.018-1.164v-2.328L17.94,30.48v-3.737l7.294-4.211
		l3.234,1.867v1.729l2.019,1.164l2.017-1.164l0.002-2.328l-2.019-1.166l-1.498,0.864l-3.233-1.867V13.208z M24.714,21.028
		L18.46,17.42l6.254-3.611V21.028z M24.195,12.906l-6.255,3.611v-7.22L24.195,12.906z M16.898,9.297v7.22l-6.255-3.611L16.898,9.297
		z M10.125,13.809l6.254,3.611l-6.254,3.608V13.809z M10.646,21.93l6.253-3.609v7.219L10.646,21.93z M17.94,25.539V18.32
		l6.253,3.609L17.94,25.539z"/>
</g>
<g>
</g>
<g>
</g>
<g>
</g>
<g>
</g>
<g>
</g>
<g>
</g>
<g>
</g>
<g>
</g>
<g>
</g>
<g>
</g>
<g>
</g>
<g>
</g>
<g>
</g>
<g>
</g>
<g>
</g>
</svg>
