<?xml version="1.0" encoding="iso-8859-1"?>
<!-- Generator: Adobe Illustrator 16.0.0, SVG Export Plug-In . SVG Version: 6.00 Build 0)  -->
<!DOCTYPE svg PUBLIC "-//W3C//DTD SVG 1.1//EN" "http://www.w3.org/Graphics/SVG/1.1/DTD/svg11.dtd">
<svg version="1.1" id="Capa_1" xmlns="http://www.w3.org/2000/svg" xmlns:xlink="http://www.w3.org/1999/xlink" x="0px" y="0px"
	 width="37.795px" height="37.795px" viewBox="0 0 37.795 37.795" style="enable-background:new 0 0 37.795 37.795;"
	 xml:space="preserve">
<g>
	<path d="M6.168,14.928c-0.215-0.374-0.087-0.851,0.285-1.066l1.862-1.074L8.313,10.64c0-0.432,0.349-0.782,0.78-0.782h0.001
		c0.431,0,0.781,0.349,0.781,0.78l0.002,3.052l-2.644,1.526c-0.122,0.071-0.257,0.106-0.39,0.106
		C6.576,15.318,6.313,15.178,6.168,14.928z M30.555,22.578L27.912,24.1l0.002,3.053c0,0.432,0.35,0.78,0.781,0.78c0,0,0,0,0.001,0
		c0.431,0,0.78-0.35,0.78-0.782l-0.002-2.148l1.86-1.072c0.373-0.215,0.501-0.692,0.285-1.064
		C31.407,22.49,30.928,22.36,30.555,22.578z M16.252,6.958l2.644,1.528l2.644-1.528c0.373-0.216,0.499-0.694,0.283-1.067
		c-0.214-0.372-0.69-0.502-1.064-0.284l-1.862,1.076l-1.863-1.076c-0.374-0.218-0.85-0.086-1.065,0.284
		C15.751,6.265,15.878,6.743,16.252,6.958z M21.54,30.833l-2.644-1.526l-2.644,1.528c-0.374,0.216-0.5,0.693-0.284,1.065
		c0.145,0.251,0.407,0.391,0.676,0.391c0.132,0,0.267-0.032,0.39-0.105l1.863-1.076l1.862,1.074
		c0.374,0.217,0.852,0.087,1.065-0.285C22.042,31.526,21.914,31.048,21.54,30.833z M9.098,27.935c0.431,0,0.781-0.35,0.781-0.781
		l-0.001-3.052l-2.644-1.524c-0.374-0.218-0.85-0.087-1.066,0.284c-0.215,0.373-0.087,0.851,0.285,1.066l1.862,1.074l0.001,2.148
		C8.316,27.585,8.667,27.935,9.098,27.935z M28.693,9.858c-0.432,0-0.781,0.35-0.781,0.781v3.052l2.645,1.525
		c0.123,0.071,0.257,0.105,0.39,0.105c0.271,0,0.534-0.141,0.677-0.391c0.215-0.373,0.087-0.85-0.285-1.066l-1.863-1.074v-2.148
		C29.474,10.208,29.124,9.858,28.693,9.858z M37.795,18.896c0,0.431-0.35,0.782-0.781,0.782h-1.027l-1.209,2.097
		c-0.141,0.24-0.398,0.391-0.677,0.391h-2.867c-0.279,0-0.537-0.15-0.675-0.391l-0.316-0.545l-3.652,2.109l-0.002,4.22h0.629
		c0.279,0,0.537,0.149,0.676,0.391l1.437,2.484c0.14,0.241,0.14,0.54,0,0.782l-1.211,2.092l0.515,0.892
		c0.216,0.372,0.088,0.85-0.285,1.065c-0.121,0.071-0.256,0.106-0.388,0.106c-0.272,0-0.535-0.141-0.678-0.391l-0.516-0.893H24.35
		c-0.28,0-0.538-0.149-0.677-0.391l-1.433-2.482c-0.14-0.242-0.14-0.54,0-0.781l0.314-0.544l-3.653-2.105l-3.653,2.104l0.314,0.543
		c0.14,0.241,0.14,0.539,0,0.781l-1.436,2.486c-0.139,0.241-0.398,0.391-0.675,0.391h-2.418l-0.516,0.893
		c-0.145,0.25-0.407,0.391-0.677,0.391c-0.132,0-0.267-0.033-0.39-0.106c-0.372-0.216-0.5-0.693-0.284-1.065l0.515-0.894
		l-1.206-2.093c-0.14-0.242-0.14-0.54,0-0.781l1.435-2.487c0.139-0.24,0.397-0.391,0.676-0.391h0.627V23.34l-3.653-2.109
		l-0.314,0.543c-0.14,0.241-0.398,0.391-0.676,0.391H3.703c-0.28,0-0.538-0.15-0.676-0.391l-1.213-2.097H0.781
		C0.35,19.677,0,19.327,0,18.896s0.35-0.781,0.781-0.781h1.033l1.206-2.093c0.141-0.241,0.398-0.391,0.677-0.391h0.001l2.87,0.002
		c0.28,0,0.537,0.149,0.675,0.391l0.312,0.54l3.654-2.108v-4.216h-0.628c-0.001,0-0.001,0-0.001,0c-0.28,0-0.539-0.149-0.676-0.391
		L8.469,7.362c-0.139-0.242-0.139-0.541,0-0.781l1.21-2.094L9.163,3.595c-0.215-0.372-0.087-0.85,0.285-1.065
		c0.375-0.218,0.852-0.086,1.066,0.284l0.517,0.895l2.415-0.002h0.001c0.28,0,0.538,0.151,0.675,0.391l1.433,2.487
		c0.139,0.242,0.139,0.542,0,0.781l-0.312,0.542l3.654,2.109l3.65-2.107l-0.313-0.542c-0.141-0.24-0.141-0.54,0-0.781l1.435-2.487
		c0.141-0.242,0.398-0.391,0.677-0.391h2.416l0.517-0.895c0.216-0.371,0.691-0.501,1.066-0.284c0.372,0.215,0.5,0.693,0.284,1.065
		l-0.515,0.895l1.206,2.094c0.142,0.241,0.142,0.542,0,0.781L27.885,9.85c-0.139,0.242-0.397,0.391-0.675,0.391h-0.001h-0.625v4.219
		l3.655,2.108l0.312-0.542c0.139-0.241,0.396-0.391,0.673-0.391l2.871-0.002l0,0c0.281,0,0.539,0.15,0.678,0.391l1.204,2.092h1.032
		C37.446,18.114,37.795,18.463,37.795,18.896z M33.649,20.602l0.532-0.925l0.451-0.778l-0.455-0.786l-0.528-0.919l-1.969,0.002
		l-0.347,0.6l-0.185,0.318l-0.046,0.078l-0.406,0.706l0.368,0.637l0.081,0.144l0.19,0.324l0.346,0.597L33.649,20.602L33.649,20.602z
		 M25.024,15.359v-5.123h-0.228l-1.731,2.999c1.54,1.139,2.603,2.881,2.824,4.879h3.456l0.113-0.196L25.024,15.359z M24.292,18.114
		c-0.203-1.417-0.946-2.65-2.021-3.499c-0.41-0.324-0.854-0.598-1.346-0.797c-0.629-0.252-1.311-0.4-2.028-0.4
		c-0.717,0-1.401,0.147-2.03,0.4c-0.49,0.196-0.934,0.473-1.345,0.797c-1.074,0.848-1.818,2.081-2.021,3.499
		c-0.037,0.257-0.079,0.514-0.079,0.781c0,0.268,0.042,0.524,0.079,0.782c0.203,1.417,0.948,2.65,2.023,3.498
		c0.41,0.325,0.853,0.601,1.345,0.798c0.629,0.252,1.312,0.399,2.028,0.399c0.718,0,1.401-0.147,2.028-0.399
		c0.492-0.195,0.936-0.474,1.346-0.798c1.075-0.848,1.818-2.081,2.021-3.498c0.038-0.258,0.079-0.515,0.079-0.782
		C24.372,18.629,24.331,18.372,24.292,18.114z M24.796,5.268l-0.984,1.706l0.337,0.583l0.195,0.338l0.086,0.15l0.366,0.629
		l0.745,0.002h0.156h0.375h0.687l0.985-1.706l-0.533-0.921l-0.452-0.781h-0.902H24.796L24.796,5.268z M14.461,9.257l-0.115,0.198
		l1.729,2.993c0.864-0.378,1.816-0.591,2.82-0.591c1.002,0,1.954,0.213,2.819,0.593l1.729-2.995L23.33,9.259l-4.433,2.56
		L14.461,9.257z M10.577,6.049L10.043,6.97l0.982,1.706h0.69h0.374h0.159l0.742-0.002l0.377-0.653l0.073-0.128l0.185-0.319
		l0.347-0.601l-0.982-1.706l-1.063,0.001L11.024,5.27L10.577,6.049z M8.33,17.917l0.112,0.197h3.456
		c0.223-1.998,1.285-3.74,2.826-4.879l-1.732-2.999h-0.228v5.121L8.33,17.917z M6.643,19.677l0.079-0.137l0.369-0.644l-0.412-0.713
		l-0.041-0.071l-0.182-0.314l-0.35-0.605L4.14,17.192l-0.533,0.921l-0.449,0.782l0.452,0.782l0.533,0.925h1.966l0.346-0.599
		L6.643,19.677z M12.766,22.435v5.118h0.228l1.732-3.001c-1.541-1.136-2.603-2.88-2.825-4.877H8.448l-0.114,0.198L12.766,22.435z
		 M12.995,32.525l0.983-1.705l-0.345-0.595l-0.189-0.326l-0.078-0.136l-0.372-0.646h-0.736h-0.166h-0.376h-0.684l-0.983,1.706
		l0.53,0.921l0.453,0.782h0.901L12.995,32.525L12.995,32.525z M23.332,28.535l0.112-0.195l-1.729-2.995
		c-0.865,0.377-1.817,0.591-2.819,0.591c-1.003,0-1.956-0.214-2.819-0.591l-1.729,2.992l0.115,0.198l4.435-2.56L23.332,28.535z
		 M27.213,31.744l0.535-0.922l-0.984-1.704h-0.706h-0.359h-0.146h-0.758l-0.371,0.644l-0.077,0.138l-0.152,0.261l-0.382,0.662
		l0.982,1.701h1.062h0.902L27.213,31.744z M29.458,19.874l-0.113-0.196h-3.454c-0.222,1.998-1.285,3.74-2.826,4.88l1.733,3.001
		h0.228l0.002-5.121L29.458,19.874z"/>
</g>
<g>
</g>
<g>
</g>
<g>
</g>
<g>
</g>
<g>
</g>
<g>
</g>
<g>
</g>
<g>
</g>
<g>
</g>
<g>
</g>
<g>
</g>
<g>
</g>
<g>
</g>
<g>
</g>
<g>
</g>
</svg>
