<?xml version="1.0" encoding="iso-8859-1"?>
<!-- Generator: Adobe Illustrator 16.0.0, SVG Export Plug-In . SVG Version: 6.00 Build 0)  -->
<!DOCTYPE svg PUBLIC "-//W3C//DTD SVG 1.1//EN" "http://www.w3.org/Graphics/SVG/1.1/DTD/svg11.dtd">
<svg version="1.1" id="Capa_1" xmlns="http://www.w3.org/2000/svg" xmlns:xlink="http://www.w3.org/1999/xlink" x="0px" y="0px"
	 width="36.076px" height="36.076px" viewBox="0 0 36.076 36.076" style="enable-background:new 0 0 36.076 36.076;"
	 xml:space="preserve">
<g>
	<path d="M33.526,19.576l-8.045,2.157l-0.127-0.073v-7.247l0.127-0.074l8.046,2.153c0.045,0.012,0.09,0.019,0.135,0.019
		c0.23,0,0.44-0.152,0.504-0.387c0.073-0.279-0.092-0.562-0.37-0.638l-7.038-1.884l6.708-3.875c0.248-0.144,0.334-0.46,0.191-0.711
		c-0.144-0.249-0.462-0.334-0.712-0.19l-6.707,3.873l1.887-7.037c0.073-0.279-0.091-0.563-0.369-0.639
		c-0.28-0.067-0.563,0.091-0.639,0.369l-2.152,8.045l-0.128,0.073l-6.278-3.622v-0.15l5.888-5.888c0.203-0.203,0.203-0.533,0-0.737
		c-0.203-0.203-0.533-0.203-0.736,0l-5.151,5.151V0.521C18.559,0.234,18.325,0,18.038,0s-0.521,0.234-0.521,0.521v7.744
		l-5.151-5.151c-0.202-0.203-0.533-0.203-0.736,0c-0.203,0.204-0.203,0.534,0,0.737l5.887,5.888v0.15l-6.278,3.622l-0.127-0.072
		L8.958,5.395C8.883,5.118,8.602,4.959,8.32,5.026C8.042,5.101,7.877,5.388,7.951,5.665l1.886,7.037L3.131,8.829
		c-0.248-0.144-0.569-0.061-0.713,0.19C2.274,9.268,2.36,9.587,2.61,9.731l6.708,3.875L2.279,15.49
		c-0.28,0.075-0.444,0.36-0.369,0.638c0.064,0.233,0.275,0.386,0.503,0.386c0.045,0,0.089-0.007,0.134-0.018l8.046-2.154
		l0.128,0.073v7.247l-0.128,0.073l-8.045-2.154c-0.28-0.065-0.563,0.091-0.638,0.368c-0.073,0.279,0.091,0.563,0.369,0.639
		l7.04,1.886l-6.708,3.875c-0.249,0.146-0.334,0.461-0.191,0.713c0.096,0.167,0.272,0.261,0.452,0.261
		c0.088,0,0.178-0.022,0.26-0.071l6.706-3.872l-1.886,7.035c-0.074,0.281,0.09,0.564,0.369,0.64c0.046,0.012,0.09,0.018,0.135,0.018
		c0.231,0,0.441-0.152,0.503-0.384l2.153-8.045l0.131-0.075l6.274,3.623v0.151l-5.887,5.89c-0.203,0.201-0.203,0.533,0,0.736
		c0.203,0.201,0.534,0.201,0.736,0l5.15-5.159v7.747c0,0.287,0.233,0.521,0.521,0.521s0.521-0.233,0.521-0.521v-7.747l5.15,5.153
		c0.102,0.102,0.235,0.152,0.368,0.152c0.134,0,0.268-0.051,0.369-0.152c0.203-0.204,0.203-0.534,0-0.736l-5.888-5.893v-0.151
		l6.274-3.622l0.129,0.073l2.153,8.044c0.064,0.233,0.274,0.387,0.503,0.387c0.045,0,0.09-0.006,0.136-0.019
		c0.278-0.075,0.442-0.359,0.369-0.639l-1.888-7.037l6.709,3.873c0.082,0.049,0.172,0.07,0.26,0.07c0.181,0,0.356-0.094,0.452-0.26
		c0.145-0.25,0.059-0.569-0.191-0.711l-6.709-3.876l7.04-1.887c0.28-0.075,0.444-0.361,0.37-0.639
		C34.091,19.667,33.811,19.511,33.526,19.576z M24.312,21.056l-5.234-3.021l5.234-3.021V21.056z M23.794,14.11l-5.235,3.024V11.09
		L23.794,14.11z M17.517,11.09v6.044l-5.235-3.023L17.517,11.09z M11.762,15.015l5.234,3.021l-5.234,3.021V15.015z M12.284,21.958
		l5.232-3.02v6.043L12.284,21.958z M18.559,24.98v-6.044l5.233,3.021L18.559,24.98z"/>
</g>
<g>
</g>
<g>
</g>
<g>
</g>
<g>
</g>
<g>
</g>
<g>
</g>
<g>
</g>
<g>
</g>
<g>
</g>
<g>
</g>
<g>
</g>
<g>
</g>
<g>
</g>
<g>
</g>
<g>
</g>
</svg>
