<?xml version="1.0" encoding="iso-8859-1"?>
<!-- Generator: Adobe Illustrator 16.0.0, SVG Export Plug-In . SVG Version: 6.00 Build 0)  -->
<!DOCTYPE svg PUBLIC "-//W3C//DTD SVG 1.1//EN" "http://www.w3.org/Graphics/SVG/1.1/DTD/svg11.dtd">
<svg version="1.1" id="Capa_1" xmlns="http://www.w3.org/2000/svg" xmlns:xlink="http://www.w3.org/1999/xlink" x="0px" y="0px"
	 width="31.857px" height="31.857px" viewBox="0 0 31.857 31.857" style="enable-background:new 0 0 31.857 31.857;"
	 xml:space="preserve">
<g>
	<path d="M27.383,22.396h-3.435l-1.726-1.725h4.41c0.414,0,0.75-0.336,0.75-0.75s-0.336-0.75-0.75-0.75h-5.81l3.104-3.104
		c0.293-0.293,0.293-0.768,0-1.061l-3.153-3.154l0.118-0.119h6.152c0.413,0,0.75-0.336,0.75-0.75c0-0.414-0.337-0.75-0.75-0.75
		h-4.652l1.729-1.73h3.082c0.414,0,0.75-0.336,0.75-0.75c0-0.414-0.336-0.75-0.75-0.75h-1.582l1.541-1.541
		c0.293-0.293,0.293-0.768,0-1.062c-0.293-0.293-0.768-0.293-1.061,0l-1.895,1.896V4.008c0-0.414-0.336-0.75-0.75-0.75
		s-0.75,0.336-0.75,0.75v3.788l-1.379,1.378V4.521c0-0.414-0.336-0.75-0.75-0.75s-0.75,0.336-0.75,0.75v6.153l-0.119,0.119
		l-3.154-3.154c-0.292-0.293-0.767-0.293-1.06,0l-3.104,3.104l0.001-5.808c0-0.414-0.336-0.75-0.75-0.75s-0.75,0.336-0.75,0.75
		l-0.001,4.41L9.168,7.619V4.184c0-0.414-0.336-0.75-0.75-0.75c-0.414,0-0.75,0.336-0.75,0.75v1.935L5.949,4.401
		c-0.293-0.293-0.768-0.293-1.061,0s-0.293,0.768,0,1.061L6.606,7.18H4.672c-0.414,0-0.75,0.336-0.75,0.75s0.336,0.75,0.75,0.75
		h3.434l1.726,1.725h-4.41c-0.414,0-0.75,0.336-0.75,0.75s0.336,0.75,0.75,0.75h5.809l-3.104,3.103
		c-0.293,0.293-0.293,0.768,0,1.061l3.153,3.153l-0.118,0.119H5.01c-0.414,0-0.75,0.336-0.75,0.75s0.336,0.75,0.75,0.75h4.652
		l-1.379,1.379H4.496c-0.414,0-0.75,0.336-0.75,0.75s0.336,0.75,0.75,0.75h2.287l-1.895,1.895c-0.293,0.293-0.293,0.77,0,1.062
		c0.146,0.146,0.338,0.219,0.53,0.219c0.191,0,0.384-0.071,0.529-0.219l1.541-1.541v1.582c0,0.414,0.337,0.75,0.75,0.75
		c0.414,0,0.75-0.336,0.75-0.75v-3.082l1.731-1.731v4.653c0,0.414,0.336,0.75,0.75,0.75s0.75-0.336,0.75-0.75v-6.153l0.119-0.119
		l3.154,3.155c0.141,0.142,0.33,0.22,0.529,0.22c0.199,0,0.391-0.078,0.53-0.22l3.104-3.104v5.807c0,0.414,0.336,0.75,0.75,0.75
		s0.75-0.336,0.75-0.75v-4.409l1.727,1.726v3.436c0,0.414,0.336,0.75,0.75,0.75s0.75-0.336,0.75-0.75v-1.938l1.717,1.719
		c0.146,0.146,0.338,0.219,0.531,0.219c0.191,0,0.383-0.072,0.529-0.219c0.293-0.293,0.293-0.769,0-1.062l-1.719-1.72h1.936
		c0.414,0,0.75-0.336,0.75-0.75C28.126,22.733,27.797,22.396,27.383,22.396z M16.029,21.848l-2.624-2.625l-1.061-1.062L9.72,15.536
		l2.624-2.624l1.061-1.061l2.624-2.624l2.625,2.624l1.062,1.061l2.623,2.624l-2.623,2.625l-1.062,1.062L16.029,21.848z
		 M16.78,27.415v3.692c0,0.414-0.336,0.75-0.75,0.75s-0.75-0.336-0.75-0.75v-3.692c0-0.413,0.336-0.75,0.75-0.75
		S16.78,27.002,16.78,27.415z M4.445,16.579H0.751c-0.414,0-0.75-0.335-0.75-0.75s0.336-0.75,0.75-0.75h3.694
		c0.414,0,0.75,0.336,0.75,0.75S4.859,16.579,4.445,16.579z M15.08,4.443l0.003-3.693c0-0.414,0.336-0.75,0.75-0.75h0.001
		c0.414,0,0.749,0.336,0.749,0.75l-0.002,3.693c0,0.414-0.336,0.75-0.75,0.75H15.83C15.415,5.193,15.08,4.857,15.08,4.443z
		 M31.856,16.035c0,0.414-0.337,0.75-0.75,0.75h-0.003l-3.692-0.002c-0.414,0-0.75-0.336-0.75-0.75s0.336-0.75,0.75-0.75h0.002
		l3.693,0.003C31.52,15.285,31.856,15.621,31.856,16.035z"/>
</g>
<g>
</g>
<g>
</g>
<g>
</g>
<g>
</g>
<g>
</g>
<g>
</g>
<g>
</g>
<g>
</g>
<g>
</g>
<g>
</g>
<g>
</g>
<g>
</g>
<g>
</g>
<g>
</g>
<g>
</g>
</svg>
