<?xml version="1.0" encoding="iso-8859-1"?>
<!-- Generator: Adobe Illustrator 16.0.0, SVG Export Plug-In . SVG Version: 6.00 Build 0)  -->
<!DOCTYPE svg PUBLIC "-//W3C//DTD SVG 1.1//EN" "http://www.w3.org/Graphics/SVG/1.1/DTD/svg11.dtd">
<svg version="1.1" id="Capa_1" xmlns="http://www.w3.org/2000/svg" xmlns:xlink="http://www.w3.org/1999/xlink" x="0px" y="0px"
	 width="31.002px" height="31.002px" viewBox="0 0 31.002 31.002" style="enable-background:new 0 0 31.002 31.002;"
	 xml:space="preserve">
<g>
	<path d="M31,15.501c0-0.275-0.225-0.5-0.5-0.5h-1.248l1.603-1.602c0.194-0.195,0.194-0.513,0-0.707
		c-0.195-0.195-0.513-0.195-0.707,0l-2.31,2.309h-5.426c-0.246-3.426-2.986-6.166-6.413-6.412V3.162l2.306-2.308
		C18.5,0.659,18.5,0.341,18.306,0.147c-0.195-0.195-0.513-0.195-0.707,0L16,1.748V0.501c0-0.275-0.224-0.5-0.5-0.5
		c-0.275,0-0.5,0.225-0.5,0.5v1.248l-1.602-1.602c-0.195-0.195-0.514-0.195-0.707,0c-0.195,0.194-0.195,0.512,0,0.707L15,3.163
		v5.426c-3.426,0.246-6.166,2.986-6.412,6.412H3.16l-2.308-2.307c-0.194-0.194-0.513-0.194-0.706,0
		c-0.195,0.195-0.195,0.513,0,0.707l1.6,1.6H0.5c-0.275,0-0.5,0.225-0.5,0.5s0.225,0.5,0.5,0.5h1.246l-1.6,1.603
		c-0.195,0.194-0.195,0.513,0,0.707c0.098,0.099,0.226,0.146,0.354,0.146s0.256-0.049,0.354-0.146l2.306-2.31h5.428
		c0.246,3.426,2.986,6.166,6.412,6.412v5.426l-2.307,2.31c-0.195,0.194-0.195,0.513,0,0.707c0.194,0.194,0.512,0.194,0.707,0
		l1.6-1.603v1.248c0,0.275,0.225,0.5,0.5,0.5c0.276,0,0.5-0.225,0.5-0.5v-1.248l1.601,1.603c0.098,0.099,0.227,0.146,0.354,0.146
		c0.129,0,0.256-0.049,0.354-0.146c0.194-0.194,0.194-0.513,0-0.707L16,27.839v-5.426c3.426-0.246,6.167-2.986,6.413-6.412h5.426
		l2.31,2.308c0.098,0.098,0.227,0.146,0.354,0.146c0.129,0,0.256-0.05,0.355-0.146c0.192-0.195,0.192-0.514,0-0.707l-1.604-1.601
		H30.5C30.775,16.001,31,15.776,31,15.501z M21.412,16.001c-0.242,2.875-2.537,5.171-5.413,5.412
		c-0.165,0.014-0.331,0.025-0.5,0.025s-0.335-0.014-0.5-0.025c-2.875-0.241-5.171-2.537-5.412-5.412
		c-0.014-0.165-0.023-0.331-0.023-0.5s0.012-0.335,0.023-0.5c0.241-2.875,2.537-5.171,5.412-5.412
		c0.165-0.014,0.331-0.025,0.5-0.025s0.335,0.013,0.5,0.025c2.875,0.241,5.17,2.537,5.413,5.412c0.014,0.165,0.023,0.331,0.023,0.5
		S21.426,15.836,21.412,16.001z M7.02,21.1l2.886-0.002v0.506v0.002l-0.002,2.379c0,0.274-0.225,0.5-0.5,0.5
		c-0.276,0-0.5-0.227-0.5-0.5l0.001-1.2l-3.779,3.684c-0.097,0.096-0.223,0.143-0.349,0.143c-0.13,0-0.261-0.051-0.358-0.15
		c-0.191-0.196-0.188-0.514,0.011-0.707l3.747-3.651H7.021c-0.276,0-0.5-0.226-0.5-0.5C6.521,21.324,6.743,21.1,7.02,21.1z
		 M23.98,9.903l-2.888,0.002V7.018c0-0.275,0.226-0.5,0.5-0.5c0.277,0,0.5,0.225,0.5,0.5v1.155l3.781-3.64
		c0.197-0.189,0.515-0.186,0.707,0.014c0.191,0.199,0.187,0.516-0.014,0.707l-3.791,3.648h1.201c0.274,0,0.5,0.224,0.5,0.5
		C24.479,9.679,24.256,9.903,23.98,9.903z M4.429,5.256C4.23,5.066,4.224,4.748,4.414,4.549c0.193-0.198,0.51-0.202,0.707-0.014
		l3.78,3.64V7.021c0-0.275,0.224-0.5,0.5-0.5c0.274,0,0.5,0.225,0.5,0.5v2.885H7.016c-0.275,0-0.5-0.223-0.5-0.5
		c0-0.275,0.225-0.5,0.5-0.5h1.2L4.429,5.256z M26.572,25.749c0.199,0.193,0.203,0.51,0.01,0.707
		c-0.098,0.103-0.229,0.15-0.356,0.15c-0.127,0-0.252-0.047-0.351-0.143l-3.778-3.683v1.197c0,0.275-0.226,0.5-0.5,0.5
		c-0.275,0-0.5-0.225-0.5-0.5v-2.377v-0.507l2.887-0.002c0.274,0,0.5,0.226,0.5,0.5c0,0.276-0.226,0.5-0.5,0.5l-1.156,0.002
		L26.572,25.749z M16,10.855c-0.166-0.019-0.329-0.051-0.5-0.051s-0.334,0.032-0.5,0.051c-2.186,0.235-3.91,1.961-4.146,4.146
		c-0.02,0.166-0.051,0.329-0.051,0.5s0.031,0.334,0.051,0.5c0.234,2.187,1.961,3.91,4.146,4.146c0.166,0.019,0.329,0.051,0.5,0.051
		s0.334-0.032,0.5-0.051c2.187-0.235,3.911-1.961,4.147-4.146c0.018-0.166,0.051-0.329,0.051-0.5s-0.033-0.334-0.051-0.5
		C19.91,12.815,18.187,11.091,16,10.855z M19.146,16.001c-0.226,1.635-1.513,2.922-3.147,3.146c-0.165,0.021-0.329,0.051-0.5,0.051
		s-0.335-0.028-0.5-0.051c-1.635-0.226-2.922-1.513-3.146-3.146c-0.021-0.165-0.052-0.329-0.052-0.5s0.028-0.335,0.052-0.5
		c0.225-1.635,1.512-2.922,3.146-3.146c0.165-0.021,0.329-0.051,0.5-0.051s0.335,0.028,0.5,0.051
		c1.635,0.225,2.922,1.512,3.147,3.146c0.021,0.165,0.051,0.329,0.051,0.5S19.168,15.836,19.146,16.001z"/>
</g>
<g>
</g>
<g>
</g>
<g>
</g>
<g>
</g>
<g>
</g>
<g>
</g>
<g>
</g>
<g>
</g>
<g>
</g>
<g>
</g>
<g>
</g>
<g>
</g>
<g>
</g>
<g>
</g>
<g>
</g>
</svg>
