<?xml version="1.0" encoding="iso-8859-1"?>
<!-- Generator: Adobe Illustrator 16.0.0, SVG Export Plug-In . SVG Version: 6.00 Build 0)  -->
<!DOCTYPE svg PUBLIC "-//W3C//DTD SVG 1.1//EN" "http://www.w3.org/Graphics/SVG/1.1/DTD/svg11.dtd">
<svg version="1.1" id="Capa_1" xmlns="http://www.w3.org/2000/svg" xmlns:xlink="http://www.w3.org/1999/xlink" x="0px" y="0px"
	 width="34.637px" height="34.637px" viewBox="0 0 34.637 34.637" style="enable-background:new 0 0 34.637 34.637;"
	 xml:space="preserve">
<g>
	<path d="M18.321,11.312l3.703,2.136l1.517-0.875l2.114-7.894l-1.558-0.898L18.321,9.56V11.312z M19.321,9.974l4.94-4.943
		l0.229,0.133l-1.812,6.752l-0.655,0.379l-2.703-1.561V9.974z M12.617,13.448l3.703-2.136V9.56l-5.777-5.779L8.986,4.679
		l2.114,7.894L12.617,13.448z M10.379,5.031l4.941,4.943v0.76l-2.703,1.561l-0.657-0.379l-1.81-6.752L10.379,5.031z M11.618,19.457
		V15.18L10.1,14.307L2.208,16.42l-0.001,1.799l7.895,2.113L11.618,19.457z M3.208,17.45l0.001-0.264l6.751-1.81l0.658,0.381v3.121
		l-0.657,0.379L3.208,17.45z M31.891,21.466l0.945-0.254l-0.26-0.968l-5.592,1.5l1.797,1.033l2.264-0.604l0.607,2.265l0.297,0.172
		l-0.375,0.647l-6.529-3.771l7.34-1.965c0.134-0.035,0.213-0.174,0.177-0.307c-0.033-0.135-0.173-0.213-0.308-0.178l-7.822,2.096
		l-2.159-1.248v-5.141l2.162-1.248l7.819,2.096c0.021,0.007,0.043,0.01,0.064,0.01c0.111,0,0.213-0.073,0.242-0.186
		c0.035-0.134-0.043-0.271-0.178-0.307l-7.338-1.967l6.526-3.77l0.375,0.648l-0.297,0.172l-0.604,2.266l-2.269-0.607l-1.789,1.035
		l5.588,1.498l0.261-0.967l-0.943-0.252l0.619-2.313l0.803-0.466l-2-3.463L30.51,7.388l-2.312-0.62l0.254-0.943l-0.967-0.26
		l-1.498,5.592l1.793-1.036l0.607-2.267l2.266,0.608l0.295-0.172l0.375,0.648l-6.527,3.77l1.967-7.34
		c0.035-0.133-0.045-0.271-0.178-0.306c-0.131-0.033-0.271,0.043-0.307,0.177l-2.096,7.822l-2.16,1.247l-4.454-2.569V9.243
		l5.726-5.727c0.1-0.098,0.1-0.256,0-0.354c-0.099-0.099-0.257-0.099-0.354,0l-5.372,5.373V1h0.753v0.342L19.978,3l-1.658,1.658
		v2.068l4.092-4.092l-0.707-0.707l-0.69,0.691l-1.694-1.691V0h-4v0.927l-1.692,1.691l-0.691-0.691l-0.707,0.707l4.092,4.092V4.658
		L14.664,3l1.658-1.658V1h0.75v7.539l-5.372-5.373c-0.098-0.099-0.256-0.099-0.354,0c-0.099,0.098-0.099,0.256,0,0.354l5.726,5.727
		v2.496l-4.453,2.569l-2.16-1.247L8.361,5.243C8.326,5.109,8.189,5.032,8.055,5.066C7.92,5.101,7.842,5.239,7.877,5.372l1.967,7.34
		l-6.528-3.77l0.375-0.648l0.296,0.172l2.266-0.608l0.606,2.267l1.793,1.036L7.154,5.569l-0.967,0.26l0.254,0.943l-2.312,0.62
		L3.325,6.927l-2,3.463l0.803,0.466l0.619,2.313l-0.945,0.252l0.261,0.967l5.589-1.498l-1.79-1.035l-2.269,0.607l-0.604-2.266
		l-0.297-0.172l0.375-0.648l6.528,3.77l-7.339,1.967c-0.134,0.035-0.213,0.173-0.177,0.307c0.029,0.109,0.13,0.183,0.24,0.183
		c0.021,0,0.043-0.003,0.063-0.01l7.821-2.096l2.162,1.248v5.141l-2.161,1.248l-7.822-2.096c-0.131-0.033-0.271,0.043-0.306,0.178
		c-0.036,0.134,0.043,0.271,0.177,0.306l7.339,1.967l-6.528,3.77l-0.375-0.646l0.297-0.172l0.606-2.266l2.265,0.605l1.796-1.035
		l-5.592-1.498L1.8,21.213l0.946,0.254l-0.621,2.312l-0.803,0.465l1.999,3.463l0.803-0.463l2.313,0.619l-0.254,0.945l0.967,0.26
		l1.497-5.59l-1.791,1.03L6.25,26.777l-2.267-0.605l-0.295,0.17l-0.376-0.648l6.527-3.77l-1.966,7.338
		c-0.036,0.135,0.043,0.271,0.178,0.307c0.021,0.006,0.043,0.01,0.063,0.01c0.11,0,0.212-0.073,0.241-0.186l2.097-7.822l2.162-1.248
		l4.451,2.57v2.494l-5.727,5.727c-0.098,0.099-0.098,0.256,0,0.354c0.099,0.099,0.257,0.099,0.354,0l5.372-5.373v7.539h-0.75v-0.34
		l-1.658-1.658l1.658-1.657v-2.07l-4.092,4.094l0.707,0.707l0.69-0.691l1.693,1.693v0.926h4v-0.926l1.691-1.693l0.69,0.691
		l0.707-0.707l-4.092-4.094v2.07l1.657,1.657l-1.657,1.658v0.34h-0.75v-7.539l5.372,5.375c0.05,0.05,0.111,0.072,0.177,0.072
		s0.129-0.022,0.178-0.072c0.099-0.098,0.099-0.256,0-0.354l-5.726-5.728v-2.495l4.451-2.57l2.16,1.248l2.098,7.822
		c0.027,0.112,0.131,0.186,0.24,0.186c0.021,0,0.043-0.002,0.063-0.008c0.134-0.035,0.213-0.174,0.177-0.308l-1.966-7.34
		l6.535,3.769l-0.375,0.649l-0.295-0.17l-2.269,0.604l-0.604-2.268l-1.795-1.031l1.498,5.59l0.967-0.26l-0.254-0.945l2.313-0.619
		l0.806,0.464l1.998-3.464l-0.804-0.465L31.891,21.466z M12.868,15.037l0.75,0.434v3.697l-0.75,0.434V15.037z M17.07,22.312
		l-3.951-2.281L13.87,19.6l3.2,1.848V22.312L17.07,22.312z M17.07,20.295l-2.201-1.271l2.201-1.271V20.295z M14.618,18.589v-2.543
		l2.201,1.271L14.618,18.589z M17.07,16.884l-2.202-1.271l2.202-1.271V16.884z M17.07,13.188l-3.203,1.848l-0.75-0.433l3.953-2.28
		V13.188z M17.57,12.323l3.954,2.28l-0.75,0.433l-3.204-1.848V12.323z M17.57,14.341l2.202,1.271l-2.202,1.271V14.341z
		 M20.022,16.046v2.543l-2.201-1.271L20.022,16.046z M17.57,17.752l2.202,1.271l-2.202,1.271V17.752z M17.57,22.312v-0.865
		l3.2-1.848l0.752,0.432L17.57,22.312z M21.772,19.6l-0.75-0.435v-3.697l0.75-0.433V19.6z M23.022,15.179v4.277l1.517,0.873
		l7.896-2.113l-0.003-1.799l-7.893-2.113L23.022,15.179z M31.432,17.186v0.264l-6.754,1.81l-0.655-0.381v-3.122l0.657-0.379
		L31.432,17.186z M16.32,23.324l-3.702-2.137L11.1,22.062l-2.114,7.895l1.557,0.898l5.777-5.779V23.324z M15.32,24.662l-4.941,4.943
		l-0.229-0.133l1.81-6.75l0.658-0.382l2.702,1.562V24.662L15.32,24.662z M22.022,21.188l-3.701,2.137v1.752l5.776,5.779l1.556-0.898
		l-2.114-7.895L22.022,21.188z M24.262,29.605l-4.94-4.943v-0.76l2.701-1.562l0.655,0.379l1.812,6.752L24.262,29.605z"/>
</g>
<g>
</g>
<g>
</g>
<g>
</g>
<g>
</g>
<g>
</g>
<g>
</g>
<g>
</g>
<g>
</g>
<g>
</g>
<g>
</g>
<g>
</g>
<g>
</g>
<g>
</g>
<g>
</g>
<g>
</g>
</svg>
