<?xml version="1.0" encoding="iso-8859-1"?>
<!-- Generator: Adobe Illustrator 16.0.0, SVG Export Plug-In . SVG Version: 6.00 Build 0)  -->
<!DOCTYPE svg PUBLIC "-//W3C//DTD SVG 1.1//EN" "http://www.w3.org/Graphics/SVG/1.1/DTD/svg11.dtd">
<svg version="1.1" id="Capa_1" xmlns="http://www.w3.org/2000/svg" xmlns:xlink="http://www.w3.org/1999/xlink" x="0px" y="0px"
	 width="38.724px" height="38.724px" viewBox="0 0 38.724 38.724" style="enable-background:new 0 0 38.724 38.724;"
	 xml:space="preserve">
<g>
	<path d="M36.506,26.727c-0.197-0.697-0.654-1.272-1.284-1.623c-0.403-0.226-0.858-0.344-1.318-0.344
		c-0.874,0-1.671,0.438-2.177,1.136l-1.527-0.881l1.472-0.848c0.248-0.146,0.333-0.462,0.191-0.713
		c-0.145-0.249-0.461-0.336-0.713-0.19l-1.991,1.15l-1.845-1.065l3.984-2.302c0.25-0.145,0.334-0.462,0.19-0.712
		c-0.144-0.248-0.461-0.334-0.711-0.191l-4.506,2.602l-2.407-1.39l4.533-1.999l-4.533-1.999l2.406-1.39l4.508,2.602
		c0.083,0.048,0.172,0.069,0.261,0.069c0.179,0,0.354-0.094,0.451-0.26c0.146-0.249,0.061-0.568-0.19-0.712l-3.987-2.302
		l1.845-1.066l1.993,1.15c0.082,0.048,0.171,0.069,0.261,0.069c0.18,0,0.355-0.093,0.452-0.26c0.146-0.25,0.06-0.568-0.191-0.712
		l-1.47-0.85l1.525-0.881c0.504,0.698,1.304,1.138,2.179,1.138c0.457,0,0.914-0.118,1.316-0.342c1.305-0.728,1.772-2.38,1.046-3.683
		c-0.7-1.257-2.41-1.753-3.685-1.048c-1.078,0.604-1.574,1.843-1.302,2.991l-1.6,0.924v-1.696c0-0.287-0.233-0.521-0.521-0.521
		c-0.288,0-0.521,0.233-0.521,0.521V13.4l-1.846,1.063V9.861c0-0.287-0.232-0.521-0.521-0.521s-0.521,0.234-0.521,0.521v5.203
		l-2.405,1.39l0.534-4.925l-4.001,2.931v-2.779l4.507-2.602c0.249-0.144,0.334-0.461,0.19-0.711
		c-0.144-0.25-0.462-0.336-0.711-0.191l-3.987,2.302v-2.13l1.993-1.152c0.249-0.144,0.334-0.463,0.19-0.712
		c-0.145-0.25-0.466-0.335-0.711-0.191l-1.472,0.85v-1.78c1.245-0.242,2.187-1.34,2.187-2.655C22.068,1.215,20.854,0,19.36,0
		s-2.707,1.215-2.707,2.708c0,1.314,0.942,2.41,2.186,2.655v1.778l-1.469-0.848c-0.244-0.145-0.566-0.06-0.711,0.191
		c-0.146,0.248-0.061,0.568,0.19,0.712l1.99,1.149v2.13l-3.983-2.299c-0.25-0.147-0.57-0.06-0.711,0.192
		c-0.146,0.248-0.061,0.567,0.19,0.711l4.504,2.598v2.782l-3.997-2.926l0.535,4.924l-2.407-1.389L12.97,9.867
		c0-0.288-0.234-0.521-0.521-0.521c-0.288,0-0.521,0.233-0.521,0.521l0.001,4.603l-1.847-1.065v-2.3
		c0-0.288-0.233-0.521-0.521-0.521c-0.287,0-0.521,0.233-0.521,0.521v1.699l-1.6-0.925c0.273-1.149-0.223-2.386-1.304-2.99
		C4.87,8.181,3.154,8.679,2.456,9.937c-0.727,1.303-0.258,2.955,1.046,3.681c0.402,0.225,0.854,0.344,1.315,0.344
		c0.875,0,1.674-0.439,2.18-1.137l1.527,0.881l-1.471,0.85c-0.25,0.143-0.336,0.46-0.192,0.71c0.097,0.167,0.273,0.26,0.452,0.26
		c0.087,0,0.179-0.022,0.26-0.069l1.992-1.15l1.846,1.064l-3.987,2.302c-0.249,0.145-0.333,0.462-0.191,0.712
		c0.097,0.167,0.273,0.261,0.452,0.261c0.088,0,0.178-0.022,0.26-0.07l4.507-2.601l2.408,1.39l-4.535,1.998l4.535,1.998
		l-2.408,1.391L7.948,20.15c-0.247-0.143-0.567-0.059-0.711,0.192c-0.145,0.248-0.06,0.567,0.19,0.711l3.984,2.303L9.566,24.42
		l-1.994-1.15c-0.25-0.146-0.567-0.059-0.711,0.192c-0.146,0.247-0.061,0.567,0.191,0.711l1.471,0.85l-1.526,0.881
		c-0.504-0.698-1.303-1.138-2.178-1.138c-0.458,0-0.915,0.12-1.318,0.344c-0.629,0.351-1.086,0.928-1.283,1.623
		c-0.197,0.697-0.114,1.427,0.238,2.06c0.476,0.855,1.383,1.39,2.366,1.39c0.001,0,0.001,0,0.001,0c0.456,0,0.912-0.118,1.314-0.342
		c0.632-0.352,1.09-0.931,1.287-1.626c0.128-0.455,0.125-0.919,0.019-1.366l1.601-0.924v1.701c0,0.286,0.234,0.521,0.521,0.521
		c0.288,0,0.521-0.234,0.521-0.521v-2.304l1.845-1.063v4.603c0,0.286,0.233,0.521,0.521,0.521c0.286,0,0.521-0.234,0.521-0.521
		v-5.204l2.407-1.39l-0.535,4.927l3.998-2.93v2.781l-4.504,2.599c-0.248,0.144-0.333,0.461-0.19,0.713
		c0.141,0.247,0.458,0.333,0.711,0.189l3.983-2.299v2.131l-1.99,1.15c-0.248,0.143-0.333,0.46-0.19,0.71
		c0.144,0.251,0.462,0.334,0.711,0.191l1.469-0.848v1.777c-1.242,0.243-2.188,1.341-2.188,2.656c0,1.493,1.212,2.708,2.707,2.708
		c1.494,0,2.708-1.215,2.708-2.708c0-1.315-0.939-2.41-2.185-2.656V31.58l1.472,0.85c0.082,0.048,0.172,0.069,0.261,0.069
		c0.179,0,0.354-0.094,0.45-0.261c0.145-0.247,0.06-0.567-0.189-0.71l-1.995-1.159v-2.13l3.987,2.301
		c0.081,0.049,0.172,0.069,0.261,0.069c0.179,0,0.354-0.094,0.45-0.261c0.145-0.248,0.06-0.567-0.19-0.711l-4.507-2.601v-2.778
		l3.999,2.927l-0.535-4.926l2.405,1.39v5.204c0,0.287,0.233,0.521,0.521,0.521c0.287,0,0.521-0.233,0.521-0.521v-4.604l1.845,1.065
		v2.302c0,0.288,0.234,0.521,0.521,0.521s0.521-0.232,0.521-0.521v-1.7l1.6,0.925c-0.107,0.446-0.108,0.912,0.02,1.366
		c0.195,0.696,0.654,1.274,1.286,1.627c0.403,0.222,0.856,0.34,1.314,0.34c0.98,0,1.888-0.532,2.366-1.39
		C36.618,28.151,36.702,27.423,36.506,26.727z M33.898,9.585c0.322,0,0.629,0.099,0.889,0.266c0.233,0.146,0.432,0.343,0.568,0.588
		c0.036,0.064,0.061,0.13,0.085,0.196c0.306,0.764,0.011,1.657-0.728,2.068c-0.69,0.382-1.595,0.188-2.094-0.401
		c-0.064-0.075-0.125-0.154-0.174-0.243c-0.13-0.235-0.191-0.49-0.2-0.742c-0.024-0.607,0.279-1.208,0.845-1.524
		C33.338,9.659,33.618,9.585,33.898,9.585z M6.275,12.062c-0.049,0.088-0.108,0.167-0.173,0.242
		c-0.499,0.586-1.403,0.785-2.094,0.403c-0.738-0.413-1.033-1.304-0.728-2.069c0.025-0.064,0.049-0.133,0.085-0.197
		C3.502,10.196,3.7,9.997,3.931,9.852c0.262-0.166,0.568-0.265,0.89-0.265c0.282,0,0.561,0.072,0.806,0.208
		c0.567,0.317,0.871,0.919,0.847,1.525C6.466,11.571,6.404,11.828,6.275,12.062z M5.627,28.925
		c-0.246,0.138-0.525,0.208-0.805,0.208c-0.324,0-0.629-0.099-0.891-0.265c-0.231-0.147-0.429-0.344-0.565-0.589
		c-0.037-0.063-0.061-0.13-0.085-0.196c-0.137-0.34-0.165-0.713-0.064-1.069c0.122-0.427,0.404-0.781,0.792-0.996
		c0.247-0.141,0.527-0.212,0.809-0.212c0.501,0,0.963,0.236,1.279,0.614c0.064,0.077,0.128,0.151,0.179,0.238
		c0.128,0.231,0.193,0.486,0.201,0.741c0.009,0.177-0.006,0.354-0.055,0.526C6.299,28.351,6.016,28.709,5.627,28.925z
		 M22.588,24.948l-2.707-1.981l-0.52-0.38l-0.522,0.382l-2.706,1.98l0.363-3.336l0.07-0.641l-0.59-0.261l-3.069-1.353l3.069-1.353
		l0.59-0.26l-0.069-0.641l-0.364-3.334l2.706,1.979l0.521,0.38l0.521-0.38l2.708-1.98l-0.363,3.334l-0.07,0.642l0.59,0.26
		l3.067,1.353l-3.067,1.354l-0.59,0.261l0.068,0.64L22.588,24.948z M18.861,1.129c0.158-0.051,0.324-0.085,0.499-0.085
		s0.34,0.034,0.499,0.084c0.674,0.214,1.168,0.838,1.168,1.583c0,0.734-0.482,1.353-1.146,1.573
		c-0.165,0.057-0.338,0.093-0.521,0.093s-0.356-0.037-0.521-0.093c-0.661-0.22-1.144-0.838-1.144-1.573
		C17.696,1.966,18.188,1.343,18.861,1.129z M19.859,37.59c-0.157,0.051-0.325,0.085-0.499,0.085s-0.339-0.034-0.498-0.084
		c-0.673-0.213-1.168-0.838-1.168-1.584c0-0.736,0.485-1.355,1.147-1.573c0.165-0.056,0.337-0.092,0.519-0.092
		c0.184,0,0.357,0.036,0.523,0.092c0.663,0.22,1.145,0.839,1.145,1.573C21.025,36.749,20.532,37.375,19.859,37.59z M33.092,28.925
		c-0.389-0.216-0.669-0.573-0.792-1.001c-0.049-0.173-0.063-0.348-0.055-0.525c0.011-0.256,0.072-0.509,0.2-0.741
		c0.052-0.089,0.116-0.162,0.18-0.239c0.316-0.378,0.775-0.616,1.278-0.616c0.282,0,0.562,0.073,0.809,0.212
		c0.389,0.215,0.671,0.569,0.793,0.998c0.102,0.358,0.072,0.729-0.064,1.069c-0.024,0.066-0.049,0.134-0.085,0.196
		c-0.137,0.244-0.344,0.439-0.58,0.582C34.272,29.164,33.62,29.219,33.092,28.925z"/>
</g>
<g>
</g>
<g>
</g>
<g>
</g>
<g>
</g>
<g>
</g>
<g>
</g>
<g>
</g>
<g>
</g>
<g>
</g>
<g>
</g>
<g>
</g>
<g>
</g>
<g>
</g>
<g>
</g>
<g>
</g>
</svg>
