<?xml version="1.0" encoding="iso-8859-1"?>
<!-- Generator: Adobe Illustrator 16.0.0, SVG Export Plug-In . SVG Version: 6.00 Build 0)  -->
<!DOCTYPE svg PUBLIC "-//W3C//DTD SVG 1.1//EN" "http://www.w3.org/Graphics/SVG/1.1/DTD/svg11.dtd">
<svg version="1.1" id="Capa_1" xmlns="http://www.w3.org/2000/svg" xmlns:xlink="http://www.w3.org/1999/xlink" x="0px" y="0px"
	 width="29.5px" height="29.5px" viewBox="0 0 29.5 29.5" style="enable-background:new 0 0 29.5 29.5;" xml:space="preserve">
<g>
	<path d="M18.062,28.164c0.306,0.306,0.306,0.801,0,1.106c-0.153,0.152-0.354,0.229-0.553,0.229c-0.199,0-0.398-0.076-0.552-0.229
		l-2.204-2.205l-2.206,2.205c-0.306,0.305-0.801,0.303-1.105,0c-0.306-0.306-0.306-0.801,0-1.106l3.311-3.31L18.062,28.164z
		 M14.751,4.646l3.313-3.311c0.305-0.305,0.305-0.801,0-1.106c-0.306-0.305-0.802-0.305-1.107,0l-2.206,2.208L12.547,0.23
		c-0.304-0.305-0.799-0.307-1.105,0c-0.307,0.305-0.307,0.8,0,1.105L14.751,4.646z M1.337,11.176c-0.305-0.305-0.801-0.305-1.106,0
		c-0.305,0.307-0.305,0.801,0,1.106l2.208,2.206l-2.208,2.208c-0.305,0.305-0.305,0.799,0,1.104
		c0.152,0.152,0.352,0.229,0.552,0.229c0.2,0,0.4-0.075,0.552-0.229l3.311-3.313L1.337,11.176z M27.062,14.489l2.208-2.208
		c0.305-0.305,0.305-0.8,0-1.105c-0.306-0.305-0.801-0.305-1.105,0l-3.314,3.312l3.314,3.313c0.152,0.152,0.353,0.228,0.552,0.228
		c0.2,0,0.399-0.074,0.553-0.228c0.305-0.307,0.305-0.801,0-1.105L27.062,14.489z M27.361,22.044c0,0.431-0.351,0.781-0.781,0.781
		l-2.651-0.001l2.422,2.422c0.307,0.305,0.307,0.8,0,1.104c-0.152,0.152-0.353,0.229-0.552,0.229c-0.2,0-0.399-0.075-0.552-0.229
		l-2.422-2.421v2.65c0,0.432-0.351,0.781-0.781,0.781c-0.432,0-0.781-0.35-0.781-0.781v-4.213l-2.122-2.122
		c-1.099,0.881-2.464,1.43-3.956,1.521l3.963,3.967c0.306,0.305,0.306,0.799,0,1.104c-0.152,0.152-0.353,0.23-0.551,0.23
		c-0.201,0-0.401-0.076-0.553-0.23l-3.297-3.298l-3.298,3.298c-0.305,0.305-0.801,0.305-1.106,0c-0.305-0.306-0.305-0.8,0-1.104
		l3.964-3.967c-1.486-0.094-2.847-0.644-3.943-1.521l-2.122,2.122v4.211c0,0.432-0.35,0.781-0.781,0.781S6.68,27.01,6.68,26.578
		V23.93l-2.422,2.421c-0.152,0.152-0.352,0.229-0.552,0.229c-0.199,0-0.399-0.075-0.551-0.229c-0.305-0.305-0.305-0.8,0-1.104
		l2.423-2.423H2.924c-0.431,0-0.781-0.351-0.781-0.781c0-0.432,0.35-0.781,0.781-0.781H7.14l2.12-2.121
		c-0.876-1.096-1.428-2.457-1.521-3.942l-3.965,3.964c-0.152,0.152-0.352,0.229-0.552,0.229c-0.199,0-0.4-0.076-0.551-0.229
		c-0.305-0.306-0.305-0.801,0-1.106l3.298-3.298l-3.3-3.299c-0.305-0.305-0.305-0.799,0-1.105c0.305-0.305,0.801-0.305,1.106,0
		l3.965,3.965c0.091-1.493,0.643-2.858,1.524-3.957L7.141,8.239L2.928,8.237c-0.432,0-0.781-0.35-0.781-0.781
		s0.35-0.781,0.781-0.781l2.651,0.001L3.157,4.253c-0.305-0.305-0.305-0.8,0-1.105c0.305-0.305,0.8-0.305,1.105,0l2.421,2.421V2.918
		c0-0.431,0.35-0.781,0.781-0.781c0.432,0,0.781,0.35,0.781,0.781v4.214l2.122,2.122c1.096-0.878,2.457-1.428,3.945-1.521
		l-3.959-3.96c-0.305-0.305-0.305-0.8,0-1.105s0.801-0.305,1.106,0l3.299,3.298l3.298-3.298c0.305-0.305,0.8-0.305,1.105,0
		c0.305,0.305,0.305,0.801,0,1.106l-3.958,3.958c1.488,0.093,2.846,0.645,3.943,1.521l2.121-2.122V2.92
		c0-0.432,0.351-0.781,0.781-0.781c0.432,0,0.781,0.35,0.781,0.781v2.649l2.422-2.421c0.306-0.305,0.802-0.305,1.107,0
		c0.305,0.306,0.305,0.8,0,1.105l-2.424,2.423h2.651c0.432,0,0.781,0.35,0.781,0.781c0,0.432-0.35,0.781-0.781,0.781h-4.214
		l-2.122,2.121c0.878,1.096,1.431,2.456,1.524,3.944l3.958-3.959c0.305-0.305,0.802-0.305,1.106,0c0.306,0.305,0.306,0.801,0,1.106
		l-3.304,3.299l3.3,3.299c0.306,0.305,0.306,0.801,0,1.105c-0.152,0.153-0.352,0.23-0.552,0.23c-0.201,0-0.4-0.076-0.553-0.23
		l-3.958-3.959c-0.095,1.488-0.646,2.849-1.523,3.945l2.12,2.121l4.214,0.002C27.012,21.263,27.361,21.612,27.361,22.044z
		 M18.018,19.119c0.419-0.315,0.791-0.684,1.104-1.106c0.686-0.914,1.105-2.035,1.105-3.266c0-1.23-0.42-2.351-1.105-3.266
		c-0.313-0.419-0.684-0.791-1.104-1.106C17.102,9.69,15.98,9.27,14.751,9.27s-2.351,0.419-3.265,1.105
		c-0.42,0.316-0.792,0.685-1.105,1.106c-0.686,0.915-1.106,2.036-1.106,3.266c0,1.23,0.42,2.352,1.106,3.266
		c0.313,0.421,0.683,0.791,1.105,1.106c0.915,0.686,2.036,1.106,3.265,1.106S17.102,19.806,18.018,19.119z"/>
</g>
<g>
</g>
<g>
</g>
<g>
</g>
<g>
</g>
<g>
</g>
<g>
</g>
<g>
</g>
<g>
</g>
<g>
</g>
<g>
</g>
<g>
</g>
<g>
</g>
<g>
</g>
<g>
</g>
<g>
</g>
</svg>
