<?xml version="1.0" encoding="iso-8859-1"?>
<!-- Generator: Adobe Illustrator 16.0.0, SVG Export Plug-In . SVG Version: 6.00 Build 0)  -->
<!DOCTYPE svg PUBLIC "-//W3C//DTD SVG 1.1//EN" "http://www.w3.org/Graphics/SVG/1.1/DTD/svg11.dtd">
<svg version="1.1" id="Capa_1" xmlns="http://www.w3.org/2000/svg" xmlns:xlink="http://www.w3.org/1999/xlink" x="0px" y="0px"
	 width="37.172px" height="37.172px" viewBox="0 0 37.172 37.172" style="enable-background:new 0 0 37.172 37.172;"
	 xml:space="preserve">
<g>
	<path d="M35.045,25.659c-0.188-0.668-0.628-1.224-1.233-1.56c-1.127-0.63-2.612-0.259-3.36,0.756l-1.458-0.842l1.41-0.813
		c0.24-0.14,0.322-0.444,0.185-0.685c-0.139-0.24-0.443-0.32-0.685-0.183l-1.91,1.104l-1.771-1.023l3.824-2.208
		c0.239-0.138,0.32-0.444,0.184-0.683c-0.138-0.24-0.442-0.321-0.684-0.185l-4.324,2.498l-0.521-0.301v-5.904l0.521-0.3l4.326,2.498
		c0.079,0.045,0.165,0.067,0.25,0.067c0.172,0,0.342-0.09,0.434-0.25c0.14-0.239,0.058-0.545-0.184-0.683l-3.826-2.209l1.771-1.023
		l1.911,1.104c0.078,0.045,0.164,0.067,0.25,0.067c0.173,0,0.342-0.089,0.434-0.25c0.14-0.239,0.058-0.545-0.184-0.683l-1.411-0.815
		l1.465-0.846c0.485,0.67,1.252,1.092,2.092,1.092c0.438,0,0.876-0.114,1.264-0.329c1.252-0.699,1.701-2.285,1.004-3.536
		C34.144,8.33,32.5,7.854,31.281,8.532c-1.036,0.58-1.513,1.768-1.25,2.87l-1.536,0.887v-1.631c0-0.276-0.225-0.5-0.5-0.5
		c-0.276,0-0.5,0.224-0.5,0.5v2.208l-1.771,1.021V9.471c0-0.276-0.225-0.5-0.5-0.5c-0.277,0-0.5,0.224-0.5,0.5v4.995l-0.521,0.301
		l-5.117-2.955v-0.6l4.327-2.498c0.238-0.138,0.32-0.444,0.183-0.683c-0.138-0.24-0.443-0.322-0.683-0.183l-3.827,2.21V8.012
		l1.913-1.104c0.238-0.138,0.32-0.444,0.183-0.683c-0.14-0.24-0.447-0.321-0.683-0.183l-1.413,0.815V5.147
		c1.194-0.234,2.1-1.286,2.1-2.548c0-1.433-1.166-2.599-2.6-2.599s-2.598,1.166-2.598,2.599c0,1.262,0.904,2.314,2.098,2.548v1.707
		l-1.41-0.814c-0.238-0.136-0.543-0.056-0.683,0.183c-0.14,0.239-0.058,0.545,0.183,0.683l1.91,1.104v2.046l-3.824-2.208
		c-0.238-0.137-0.545-0.056-0.683,0.183c-0.14,0.239-0.058,0.545,0.183,0.683l4.324,2.496v0.602l-5.113,2.953l-0.521-0.3
		L12.451,9.47c0-0.276-0.225-0.5-0.5-0.5c-0.276,0-0.5,0.224-0.5,0.5l0.001,4.417l-1.773-1.023v-2.208c0-0.276-0.224-0.5-0.5-0.5
		c-0.276,0-0.5,0.224-0.5,0.5v1.63L7.145,11.4c0.103-0.428,0.104-0.875-0.02-1.31C6.936,9.422,6.497,8.868,5.891,8.529
		C4.676,7.853,3.026,8.328,2.358,9.534C1.66,10.785,2.11,12.371,3.362,13.07c0.386,0.215,0.822,0.329,1.262,0.329
		c0.841,0,1.605-0.421,2.093-1.092l1.466,0.846l-1.412,0.816c-0.24,0.138-0.322,0.444-0.184,0.683
		c0.093,0.161,0.262,0.25,0.434,0.25c0.084,0,0.17-0.021,0.25-0.067l1.912-1.104l1.772,1.023l-3.829,2.211
		c-0.239,0.138-0.32,0.444-0.184,0.683c0.093,0.161,0.262,0.25,0.434,0.25c0.085,0,0.171-0.021,0.25-0.067l4.327-2.498l0.519,0.299
		v5.906l-0.521,0.3L7.627,19.34c-0.237-0.137-0.545-0.056-0.683,0.184c-0.139,0.238-0.057,0.545,0.183,0.684l3.824,2.208
		L9.18,23.438l-1.912-1.104c-0.238-0.138-0.545-0.058-0.684,0.185c-0.139,0.237-0.057,0.545,0.184,0.683l1.412,0.813l-1.466,0.848
		c-0.485-0.67-1.251-1.092-2.091-1.092c-0.441,0-0.878,0.113-1.264,0.328c-0.606,0.34-1.045,0.893-1.234,1.562
		c-0.189,0.667-0.107,1.368,0.23,1.975c0.457,0.823,1.326,1.333,2.271,1.333c0.438,0,0.876-0.113,1.263-0.328
		c0.606-0.338,1.045-0.893,1.235-1.561c0.123-0.436,0.12-0.883,0.019-1.311l1.537-0.889v1.632c0,0.276,0.223,0.5,0.5,0.5
		c0.275,0,0.5-0.224,0.5-0.5v-2.209l1.771-1.021v4.418c0,0.275,0.224,0.5,0.5,0.5c0.276,0,0.5-0.225,0.5-0.5v-4.996l0.521-0.301
		l5.113,2.953v0.603l-4.324,2.496c-0.238,0.138-0.32,0.444-0.183,0.683c0.092,0.161,0.26,0.25,0.433,0.25
		c0.086,0,0.172-0.021,0.25-0.066l3.824-2.209v2.048l-1.91,1.104c-0.238,0.14-0.32,0.444-0.183,0.685
		c0.139,0.238,0.442,0.318,0.683,0.183l1.41-0.813v1.707c-1.193,0.232-2.1,1.285-2.1,2.549c0,1.434,1.164,2.6,2.598,2.6
		s2.6-1.166,2.6-2.6c0-1.262-0.902-2.312-2.098-2.549v-1.709l1.413,0.816c0.078,0.045,0.165,0.066,0.25,0.066
		c0.172,0,0.34-0.088,0.433-0.25c0.139-0.238,0.057-0.545-0.183-0.684l-1.913-1.105v-2.045l3.827,2.209
		c0.238,0.139,0.546,0.059,0.683-0.184c0.139-0.238,0.057-0.545-0.183-0.683l-4.327-2.498v-0.601l5.112-2.953l0.521,0.301v4.996
		c0,0.275,0.224,0.5,0.5,0.5s0.5-0.225,0.5-0.5v-4.42l1.771,1.023v2.209c0,0.276,0.225,0.5,0.5,0.5s0.5-0.224,0.5-0.5v-1.631
		l1.535,0.887c-0.103,0.428-0.104,0.875,0.02,1.312c0.188,0.668,0.628,1.223,1.232,1.562c0.389,0.215,0.824,0.327,1.265,0.327
		c0.942,0,1.812-0.511,2.271-1.333C35.15,27.027,35.232,26.327,35.045,25.659z M32.542,9.202c0.311,0,0.604,0.094,0.854,0.254
		c0.224,0.14,0.414,0.33,0.545,0.566c0.035,0.062,0.059,0.125,0.082,0.189c0.293,0.734,0.01,1.59-0.699,1.986
		c-0.236,0.132-0.506,0.203-0.774,0.203c-0.482,0-0.927-0.226-1.229-0.591c-0.061-0.074-0.123-0.145-0.172-0.23
		c-0.125-0.227-0.185-0.47-0.192-0.713c-0.021-0.583,0.27-1.159,0.812-1.462C32.004,9.272,32.272,9.202,32.542,9.202z M6.023,11.58
		c-0.047,0.084-0.104,0.161-0.166,0.234c-0.479,0.563-1.35,0.753-2.01,0.385c-0.709-0.396-0.992-1.252-0.699-1.987
		c0.024-0.063,0.047-0.128,0.082-0.189c0.131-0.237,0.321-0.426,0.543-0.566c0.252-0.159,0.545-0.253,0.854-0.253
		c0.271,0,0.538,0.07,0.774,0.202c0.373,0.208,0.645,0.55,0.762,0.961c0.047,0.166,0.061,0.334,0.053,0.501
		C6.206,11.114,6.146,11.357,6.023,11.58z M5.401,27.768c-0.236,0.131-0.506,0.2-0.774,0.2c-0.31,0-0.603-0.094-0.854-0.253
		c-0.222-0.14-0.412-0.33-0.543-0.566c-0.035-0.062-0.058-0.125-0.082-0.188c-0.131-0.326-0.158-0.685-0.061-1.026
		c0.117-0.41,0.387-0.75,0.76-0.959c0.237-0.134,0.506-0.203,0.776-0.203c0.481,0,0.925,0.227,1.226,0.59
		c0.062,0.074,0.125,0.146,0.174,0.229c0.123,0.224,0.185,0.468,0.193,0.713c0.008,0.167-0.006,0.335-0.053,0.501
		C6.046,27.217,5.774,27.559,5.401,27.768z M19.085,24.202l-0.5,0.289l-0.5-0.289l-4.113-2.375l-0.502-0.289v-0.577v-4.752v-0.577
		l0.502-0.289l4.113-2.375l0.5-0.289l0.5,0.289l4.112,2.376l0.5,0.289v0.578v4.749v0.578l-0.5,0.289L19.085,24.202z M18.107,1.084
		c0.15-0.048,0.311-0.082,0.479-0.082s0.327,0.033,0.479,0.082c0.647,0.205,1.121,0.804,1.121,1.517c0,0.706-0.462,1.3-1.1,1.511
		c-0.158,0.053-0.324,0.088-0.5,0.088s-0.342-0.036-0.5-0.088c-0.635-0.212-1.098-0.805-1.098-1.511
		C16.987,1.888,17.46,1.289,18.107,1.084z M19.064,36.085c-0.151,0.048-0.312,0.082-0.479,0.082s-0.325-0.033-0.478-0.081
		c-0.646-0.204-1.121-0.804-1.121-1.52c0-0.707,0.465-1.301,1.101-1.512c0.158-0.052,0.323-0.087,0.498-0.087
		c0.177,0,0.343,0.036,0.502,0.089c0.636,0.211,1.099,0.805,1.099,1.51C20.183,35.282,19.71,35.88,19.064,36.085z M31.767,27.768
		c-0.373-0.209-0.643-0.551-0.76-0.961c-0.047-0.166-0.062-0.336-0.053-0.503c0.01-0.247,0.069-0.489,0.192-0.713
		c0.049-0.085,0.111-0.155,0.174-0.229c0.302-0.363,0.742-0.59,1.227-0.59c0.271,0,0.539,0.069,0.775,0.203
		c0.373,0.209,0.644,0.549,0.761,0.959c0.098,0.344,0.069,0.699-0.062,1.025c-0.023,0.062-0.047,0.128-0.082,0.188
		c-0.131,0.236-0.33,0.422-0.557,0.561C32.902,27.998,32.275,28.049,31.767,27.768z"/>
</g>
<g>
</g>
<g>
</g>
<g>
</g>
<g>
</g>
<g>
</g>
<g>
</g>
<g>
</g>
<g>
</g>
<g>
</g>
<g>
</g>
<g>
</g>
<g>
</g>
<g>
</g>
<g>
</g>
<g>
</g>
</svg>
