<?xml version="1.0" encoding="iso-8859-1"?>
<!-- Generator: Adobe Illustrator 16.0.0, SVG Export Plug-In . SVG Version: 6.00 Build 0)  -->
<!DOCTYPE svg PUBLIC "-//W3C//DTD SVG 1.1//EN" "http://www.w3.org/Graphics/SVG/1.1/DTD/svg11.dtd">
<svg version="1.1" id="Capa_1" xmlns="http://www.w3.org/2000/svg" xmlns:xlink="http://www.w3.org/1999/xlink" x="0px" y="0px"
	 width="31.504px" height="31.505px" viewBox="0 0 31.504 31.505" style="enable-background:new 0 0 31.504 31.505;"
	 xml:space="preserve">
<g>
	<path d="M30.752,15.002H23.76l3.119-3.119c0.293-0.293,0.293-0.768,0-1.061s-0.77-0.293-1.062,0l-4.178,4.179H20.63l-4.131-4.13
		V9.622l4.351-4.351c0.293-0.293,0.293-0.768,0-1.061s-0.769-0.293-1.062,0L16.5,7.5V0.75C16.5,0.336,16.164,0,15.75,0
		S15,0.336,15,0.75V7.5l-3.29-3.29c-0.293-0.293-0.768-0.293-1.061,0s-0.293,0.768,0,1.061l4.35,4.351v1.249l-4.13,4.13H9.86
		l-4.178-4.179c-0.293-0.293-0.768-0.293-1.061,0s-0.293,0.768,0,1.061l3.118,3.119H0.752c-0.414,0-0.75,0.336-0.75,0.75
		s0.336,0.75,0.75,0.75h6.991l-3.118,3.119c-0.293,0.293-0.293,0.768,0,1.061c0.146,0.146,0.338,0.221,0.53,0.221
		c0.192,0,0.384-0.072,0.53-0.221l4.179-4.179h1.008l4.13,4.13v1.249l-4.35,4.351c-0.293,0.293-0.293,0.77,0,1.062
		s0.768,0.293,1.061,0l3.29-3.29v6.75c0,0.414,0.336,0.75,0.75,0.75s0.75-0.336,0.75-0.75v-6.75l3.291,3.291
		c0.146,0.146,0.338,0.222,0.528,0.222c0.193,0,0.386-0.074,0.531-0.222c0.293-0.293,0.293-0.769,0-1.062l-4.352-4.352v-1.249
		l4.131-4.13h1.008l4.18,4.18c0.146,0.146,0.339,0.219,0.529,0.219c0.191,0,0.385-0.071,0.529-0.219
		c0.293-0.293,0.293-0.769,0-1.062l-3.117-3.119h6.99c0.414,0,0.75-0.336,0.75-0.75S31.167,15.002,30.752,15.002z M18.51,16.502
		l-2.008,2.009l-0.75,0.75l-0.75-0.75l-2.009-2.009l-0.75-0.75l0.75-0.75l2.009-2.009l0.75-0.75l0.75,0.75l2.008,2.009l0.75,0.75
		L18.51,16.502z M11.423,21.141l-2.321,2.321c-0.146,0.146-0.338,0.22-0.53,0.22c-0.192,0-0.384-0.072-0.53-0.22
		c-0.293-0.293-0.293-0.769,0-1.062l2.321-2.32c0.293-0.293,0.768-0.293,1.061,0S11.716,20.848,11.423,21.141z M19.774,10.84
		l2.61-2.781c0.283-0.302,0.759-0.317,1.06-0.034c0.303,0.284,0.317,0.758,0.035,1.06l-2.609,2.781
		c-0.146,0.157-0.348,0.237-0.549,0.237c-0.185,0-0.367-0.067-0.512-0.203C19.506,11.616,19.491,11.142,19.774,10.84z M8.042,9.103
		c-0.293-0.293-0.293-0.768,0-1.061s0.768-0.293,1.061,0l2.321,2.321c0.293,0.293,0.293,0.768,0,1.061
		c-0.146,0.146-0.338,0.22-0.53,0.22s-0.384-0.073-0.53-0.22L8.042,9.103z M23.444,22.385c0.303,0.284,0.317,0.758,0.035,1.061
		c-0.146,0.156-0.349,0.236-0.547,0.236c-0.185,0-0.369-0.065-0.515-0.203l-2.781-2.608c-0.301-0.284-0.315-0.759-0.032-1.062
		c0.282-0.302,0.758-0.314,1.061-0.033L23.444,22.385z"/>
</g>
<g>
</g>
<g>
</g>
<g>
</g>
<g>
</g>
<g>
</g>
<g>
</g>
<g>
</g>
<g>
</g>
<g>
</g>
<g>
</g>
<g>
</g>
<g>
</g>
<g>
</g>
<g>
</g>
<g>
</g>
</svg>
