<?xml version="1.0" encoding="iso-8859-1"?>
<!-- Generator: Adobe Illustrator 16.0.0, SVG Export Plug-In . SVG Version: 6.00 Build 0)  -->
<!DOCTYPE svg PUBLIC "-//W3C//DTD SVG 1.1//EN" "http://www.w3.org/Graphics/SVG/1.1/DTD/svg11.dtd">
<svg version="1.1" id="Capa_1" xmlns="http://www.w3.org/2000/svg" xmlns:xlink="http://www.w3.org/1999/xlink" x="0px" y="0px"
	 width="37.794px" height="37.794px" viewBox="0 0 37.794 37.794" style="enable-background:new 0 0 37.794 37.794;"
	 xml:space="preserve">
<g>
	<path d="M30.638,17.313l-0.914,1.584l0.915,1.585c0.216,0.372,0.088,0.85-0.284,1.065c-0.123,0.071-0.258,0.106-0.39,0.106
		c-0.271,0-0.534-0.141-0.678-0.391l-1.366-2.366l1.366-2.365c0.216-0.372,0.691-0.502,1.067-0.286
		C30.726,16.46,30.854,16.937,30.638,17.313z M11.65,11.08l2.733,0.002l1.367-2.367c0.216-0.374,0.087-0.851-0.285-1.066
		c-0.374-0.218-0.851-0.086-1.067,0.285l-0.915,1.585l-1.831-0.002c-0.001,0-0.001,0-0.001,0c-0.431,0-0.781,0.349-0.781,0.78
		S11.219,11.08,11.65,11.08z M26.141,26.713h-2.733l-1.365,2.365c-0.216,0.373-0.088,0.852,0.285,1.066
		c0.123,0.071,0.257,0.105,0.39,0.105c0.271,0,0.533-0.141,0.677-0.391l0.914-1.584h1.831c0.432,0,0.781-0.351,0.781-0.781
		C26.92,27.063,26.573,26.713,26.141,26.713z M22.041,8.715l1.367,2.367h2.733c0.432,0,0.781-0.35,0.781-0.781
		c0-0.431-0.35-0.781-0.781-0.781h-1.833l-0.915-1.585c-0.216-0.371-0.693-0.501-1.066-0.284
		C21.954,7.863,21.825,8.341,22.041,8.715z M15.75,29.08l-1.368-2.366h-2.733c-0.431,0-0.781,0.35-0.781,0.781
		c0,0.431,0.35,0.781,0.781,0.781h1.832l0.917,1.585c0.146,0.25,0.409,0.391,0.677,0.391c0.132,0,0.267-0.033,0.39-0.106
		C15.839,29.932,15.966,29.454,15.75,29.08z M7.437,21.549c0.123,0.071,0.257,0.107,0.39,0.107c0.271,0,0.533-0.141,0.677-0.391
		l1.366-2.365l-1.367-2.368c-0.215-0.371-0.691-0.501-1.066-0.285c-0.373,0.216-0.501,0.694-0.285,1.066l0.916,1.587l-0.914,1.584
		C6.936,20.858,7.064,21.333,7.437,21.549z M35.264,28.347c-0.145,0.25-0.408,0.391-0.677,0.391c-0.133,0-0.268-0.033-0.39-0.106
		l-0.89-0.515l-2.096,1.209c-0.121,0.069-0.257,0.105-0.391,0.105c-0.137,0-0.271-0.034-0.391-0.105l-2.484-1.435
		c-0.241-0.139-0.391-0.396-0.391-0.676l-0.002-2.417l-2.408-1.392c-1.259,1.74-3.219,2.94-5.467,3.168v2.773l2.093,1.208
		c0.242,0.141,0.391,0.396,0.391,0.676l0.001,2.868c0,0.28-0.149,0.537-0.392,0.676l-2.093,1.205v1.032
		c0,0.431-0.35,0.781-0.781,0.781s-0.781-0.351-0.781-0.781v-1.032l-2.095-1.207c-0.242-0.14-0.391-0.397-0.391-0.676l0.001-2.868
		c0-0.28,0.15-0.537,0.391-0.676l2.094-1.206v-2.773c-2.248-0.228-4.208-1.428-5.468-3.168l-2.408,1.392l0.002,2.415
		c0,0.281-0.15,0.539-0.391,0.676l-2.487,1.437c-0.12,0.069-0.255,0.105-0.391,0.105c-0.136,0-0.27-0.034-0.391-0.105l-2.095-1.209
		l-0.893,0.518c-0.123,0.068-0.257,0.105-0.39,0.105c-0.272,0-0.534-0.143-0.677-0.391c-0.216-0.375-0.087-0.853,0.285-1.068
		l0.893-0.517l0.001-2.414c0-0.282,0.15-0.538,0.391-0.677l2.487-1.434c0.242-0.141,0.541-0.141,0.781,0l2.093,1.208l2.407-1.39
		c-0.436-0.967-0.683-2.032-0.683-3.159c0-1.126,0.248-2.191,0.683-3.158l-2.406-1.39l-2.096,1.209
		c-0.12,0.07-0.254,0.105-0.391,0.105c-0.136,0-0.27-0.034-0.391-0.105l-2.485-1.434c-0.24-0.14-0.391-0.398-0.391-0.676
		l0.002-2.416l-0.894-0.517c-0.373-0.216-0.501-0.694-0.285-1.066C2.747,9.08,3.223,8.951,3.597,9.167L4.49,9.681l2.093-1.208
		c0.24-0.141,0.541-0.141,0.781,0L9.851,9.91c0.24,0.14,0.391,0.398,0.391,0.675L10.24,13l2.408,1.392
		c1.259-1.74,3.22-2.94,5.468-3.167V8.45L16.02,7.242c-0.242-0.14-0.391-0.397-0.391-0.676l0.002-2.87
		c0-0.279,0.15-0.538,0.391-0.675l2.094-1.208V0.781C18.116,0.35,18.466,0,18.897,0s0.781,0.35,0.781,0.781v1.032l2.093,1.206
		c0.242,0.141,0.391,0.399,0.391,0.677l-0.002,2.87c0,0.28-0.149,0.536-0.391,0.674l-2.091,1.208v2.772
		c2.249,0.227,4.208,1.427,5.467,3.167l2.409-1.392l-0.002-2.416c0-0.28,0.149-0.539,0.391-0.676l2.487-1.436
		c0.24-0.14,0.539-0.14,0.781,0l2.095,1.208L34.2,9.161c0.375-0.218,0.851-0.085,1.066,0.286c0.216,0.373,0.087,0.851-0.285,1.066
		l-0.894,0.516v2.417c0,0.279-0.15,0.538-0.391,0.675l-2.487,1.436c-0.12,0.069-0.255,0.105-0.391,0.105s-0.271-0.034-0.391-0.105
		l-2.092-1.209l-2.408,1.39c0.436,0.967,0.684,2.032,0.684,3.158c0,1.127-0.248,2.191-0.684,3.158l2.408,1.391l2.091-1.206
		c0.241-0.139,0.541-0.139,0.78,0l2.488,1.432c0.24,0.141,0.392,0.398,0.392,0.677l-0.002,2.414l0.893,0.517
		C35.351,27.497,35.48,27.974,35.264,28.347z M29.117,12.096l0.001,0.9l0.78,0.453l0.921,0.531l1.706-0.982v-1.063v-0.902
		l-0.78-0.451l-0.923-0.533l-1.707,0.983L29.117,12.096z M8.674,12.094l0.002-1.063l-1.706-0.985l-0.922,0.535L5.27,11.032
		l-0.001,0.902l-0.001,1.063l1.703,0.982l0.924-0.533l0.779-0.451V12.094z M8.674,25.698l-0.001-0.899l-0.781-0.451l-0.919-0.533
		l-1.706,0.982l-0.001,1.064v0.901l0.781,0.451l0.923,0.533l1.707-0.982L8.674,25.698z M23.783,22.622
		c0.315-0.413,0.586-0.864,0.789-1.351c0.307-0.73,0.478-1.534,0.478-2.374c0-0.839-0.171-1.644-0.478-2.374
		c-0.203-0.486-0.474-0.935-0.789-1.35c-0.977-1.277-2.437-2.161-4.106-2.375c-0.256-0.031-0.516-0.056-0.781-0.056
		c-0.266,0-0.525,0.022-0.781,0.056c-1.671,0.213-3.131,1.099-4.106,2.375c-0.316,0.413-0.585,0.864-0.789,1.35
		c-0.308,0.73-0.479,1.535-0.479,2.374c0,0.84,0.171,1.644,0.479,2.374c0.203,0.486,0.473,0.936,0.789,1.351
		c0.977,1.278,2.437,2.161,4.106,2.374c0.256,0.031,0.516,0.056,0.781,0.056c0.265,0,0.525-0.022,0.781-0.056
		C21.347,24.783,22.808,23.9,23.783,22.622z M17.19,6.113l0.924,0.531l0.781,0.452l0.781-0.452l0.919-0.531l0.002-1.968
		l-0.921-0.531l-0.784-0.452l-0.779,0.451l-0.922,0.532L17.19,6.113z M20.598,31.683l-0.921-0.532l-0.781-0.452l-0.781,0.452
		l-0.922,0.532l-0.001,1.966l0.923,0.531l0.782,0.451l0.78-0.449l0.922-0.533L20.598,31.683z M32.523,25.864l0.001-1.063
		l-1.707-0.981l-0.919,0.529L29.116,24.8v0.901l0.001,1.065l1.702,0.981l0.924-0.533l0.778-0.449L32.523,25.864z"/>
</g>
<g>
</g>
<g>
</g>
<g>
</g>
<g>
</g>
<g>
</g>
<g>
</g>
<g>
</g>
<g>
</g>
<g>
</g>
<g>
</g>
<g>
</g>
<g>
</g>
<g>
</g>
<g>
</g>
<g>
</g>
</svg>
