<?xml version="1.0" encoding="iso-8859-1"?>
<!-- Generator: Adobe Illustrator 16.0.0, SVG Export Plug-In . SVG Version: 6.00 Build 0)  -->
<!DOCTYPE svg PUBLIC "-//W3C//DTD SVG 1.1//EN" "http://www.w3.org/Graphics/SVG/1.1/DTD/svg11.dtd">
<svg version="1.1" id="Capa_1" xmlns="http://www.w3.org/2000/svg" xmlns:xlink="http://www.w3.org/1999/xlink" x="0px" y="0px"
	 width="39.221px" height="39.221px" viewBox="0 0 39.221 39.221" style="enable-background:new 0 0 39.221 39.221;"
	 xml:space="preserve">
<g>
	<path d="M36.214,16.393L36.214,16.393c-1.438,0.021-2.626,1.069-2.873,2.435h-1.064l0.623-1.081
		c0.216-0.374,0.087-0.852-0.284-1.067c-0.374-0.216-0.851-0.085-1.065,0.286l-1.073,1.862h-1.533l2.077-3.595
		c0.216-0.374,0.088-0.852-0.287-1.067c-0.373-0.216-0.852-0.087-1.064,0.286l-2.527,4.376h-0.536
		c-0.222-1.998-1.285-3.742-2.824-4.879l0.272-0.469h5.056c0.429,0,0.781-0.351,0.781-0.781c0-0.431-0.353-0.781-0.781-0.781h-4.152
		l0.765-1.325h2.147c0.431,0,0.781-0.35,0.781-0.781c0-0.431-0.351-0.781-0.781-0.781h-1.246l0.542-0.938
		c0.318,0.112,0.646,0.193,0.984,0.193c1.038,0,2.017-0.552,2.552-1.446c0.838-1.405,0.375-3.233-1.027-4.069
		c-0.46-0.276-0.985-0.418-1.518-0.418c-1.04,0-2.019,0.552-2.552,1.445c-0.661,1.106-0.504,2.468,0.271,3.407l-0.604,1.048
		l-0.625-1.08c-0.216-0.372-0.692-0.502-1.067-0.286c-0.372,0.215-0.5,0.694-0.285,1.067l1.074,1.861l-0.763,1.324L21.53,7.544
		c-0.216-0.371-0.693-0.503-1.066-0.286c-0.373,0.216-0.501,0.694-0.285,1.067l2.527,4.376l-0.27,0.464
		c-0.864-0.379-1.816-0.592-2.82-0.592c-1.002,0-1.954,0.213-2.819,0.59l-0.268-0.462l2.527-4.376
		c0.215-0.373,0.087-0.851-0.285-1.067c-0.374-0.218-0.851-0.085-1.066,0.286l-2.076,3.595l-0.763-1.324l1.074-1.863
		c0.216-0.374,0.088-0.852-0.287-1.065c-0.371-0.218-0.852-0.087-1.066,0.286l-0.624,1.08l-0.566-0.979
		c0.358-0.362,0.63-0.803,0.764-1.311c0.204-0.767,0.1-1.566-0.297-2.252c-0.529-0.916-1.514-1.483-2.572-1.483
		c-0.518,0-1.031,0.136-1.483,0.397C8.395,3.442,7.907,5.261,8.724,6.677c0.531,0.916,1.515,1.485,2.574,1.485
		c0.254,0,0.506-0.034,0.751-0.1l0.562,0.971h-1.245c-0.001,0-0.001,0-0.001,0c-0.432,0-0.781,0.348-0.781,0.778
		c0,0.434,0.349,0.784,0.78,0.784h2.15l0.762,1.324l-4.147,0.002c-0.431,0-0.781,0.35-0.781,0.781c0,0.432,0.35,0.781,0.781,0.781
		l5.052-0.002l0.267,0.468c-1.539,1.138-2.603,2.882-2.825,4.879h-0.535L9.56,14.454c-0.216-0.374-0.692-0.502-1.067-0.287
		c-0.373,0.216-0.501,0.694-0.286,1.068l2.076,3.595H8.752l-1.075-1.861c-0.215-0.372-0.693-0.502-1.066-0.287
		c-0.372,0.216-0.5,0.694-0.285,1.068l0.625,1.08H5.739c-0.425-1.125-1.514-1.936-2.814-1.936c0,0,0,0-0.002,0
		c-0.792,0.012-1.533,0.331-2.083,0.9C0.287,18.362-0.01,19.114,0,19.905c0.024,1.611,1.358,2.924,2.969,2.924h0.045
		c0.792-0.013,1.533-0.334,2.085-0.901c0.413-0.43,0.686-0.96,0.79-1.534h1.063l-0.625,1.08c-0.216,0.374-0.087,0.85,0.286,1.065
		c0.122,0.07,0.256,0.106,0.389,0.106c0.271,0,0.534-0.141,0.677-0.391l1.074-1.861h1.531l-2.076,3.595
		c-0.215,0.372-0.087,0.85,0.286,1.065c0.123,0.07,0.258,0.106,0.39,0.106c0.271,0,0.533-0.141,0.678-0.391l2.527-4.376h0.534
		c0.222,1.998,1.285,3.741,2.825,4.877l-0.271,0.47h-5.053c-0.432,0-0.781,0.35-0.781,0.781s0.35,0.781,0.781,0.781h4.148
		l-0.763,1.324l-2.149,0.002c-0.431,0-0.781,0.351-0.781,0.781s0.35,0.781,0.781,0.781l1.248-0.002l-0.543,0.939
		c-0.317-0.113-0.646-0.192-0.984-0.192c-1.04,0-2.019,0.551-2.549,1.444c-0.407,0.68-0.525,1.478-0.331,2.246
		c0.195,0.767,0.675,1.414,1.357,1.823c0.458,0.275,0.983,0.419,1.52,0.419c1.039,0,2.016-0.552,2.547-1.444
		c0.409-0.682,0.525-1.479,0.331-2.25c-0.11-0.436-0.323-0.824-0.598-1.158l0.604-1.05l0.625,1.083
		c0.146,0.25,0.408,0.391,0.678,0.391c0.132,0,0.267-0.033,0.39-0.106c0.373-0.216,0.501-0.693,0.286-1.065l-1.076-1.864
		l0.764-1.324l2.075,3.595c0.146,0.25,0.408,0.391,0.677,0.391c0.132,0,0.267-0.03,0.389-0.104c0.372-0.216,0.5-0.694,0.285-1.067
		l-2.527-4.376l0.269-0.462c0.864,0.381,1.816,0.592,2.819,0.592c1.002,0,1.957-0.216,2.821-0.592l0.269,0.464l-2.526,4.374
		c-0.216,0.371-0.087,0.85,0.284,1.065c0.124,0.07,0.259,0.106,0.391,0.106c0.271,0,0.533-0.141,0.677-0.391L23.6,28.08l0.765,1.326
		l-1.072,1.858c-0.215,0.374-0.087,0.852,0.285,1.067c0.121,0.071,0.256,0.104,0.389,0.104c0.271,0,0.533-0.141,0.677-0.391
		l0.622-1.077l0.568,0.977c-0.918,0.929-1.151,2.381-0.47,3.565c0.529,0.916,1.514,1.483,2.572,1.483
		c0.519,0,1.029-0.139,1.48-0.398c0.686-0.396,1.178-1.036,1.384-1.802c0.203-0.768,0.1-1.566-0.297-2.252
		c-0.527-0.916-1.514-1.483-2.572-1.483c-0.252,0-0.504,0.034-0.75,0.098l-0.562-0.973l1.246,0.002c0.002,0,0.002,0,0.002,0
		c0.431,0,0.781-0.35,0.781-0.781c0-0.431-0.351-0.781-0.781-0.781l-2.149-0.002l-0.766-1.324h4.152c0.43,0,0.781-0.351,0.781-0.781
		c0-0.432-0.352-0.781-0.781-0.781h-5.057l-0.271-0.47c1.539-1.138,2.603-2.879,2.824-4.877h0.536l2.526,4.376
		c0.145,0.25,0.407,0.391,0.677,0.391c0.133,0,0.268-0.034,0.389-0.105c0.374-0.216,0.503-0.694,0.287-1.066l-2.077-3.595h1.531
		l1.077,1.861c0.145,0.25,0.407,0.391,0.675,0.391c0.133,0,0.269-0.034,0.391-0.105c0.371-0.216,0.5-0.694,0.284-1.066l-0.623-1.08
		h1.209c0.423,1.125,1.504,1.937,2.771,1.937h0.043c1.635-0.026,2.945-1.377,2.924-3.013C39.202,17.705,37.873,16.393,36.214,16.393
		z M26.943,4.595c0.181-0.303,0.462-0.513,0.787-0.614c0.135-0.041,0.275-0.069,0.421-0.069c0.251,0,0.499,0.066,0.717,0.197
		c0.156,0.094,0.282,0.218,0.389,0.354c0.34,0.443,0.403,1.065,0.101,1.573c-0.287,0.48-0.853,0.729-1.392,0.666
		c-0.188-0.021-0.369-0.078-0.538-0.179c-0.344-0.204-0.562-0.54-0.644-0.903C26.709,5.28,26.751,4.915,26.943,4.595z M10.068,5.891
		C9.83,5.476,9.85,5,10.042,4.597c0.117-0.25,0.285-0.476,0.542-0.625c0.213-0.122,0.457-0.187,0.701-0.187
		c0.035,0,0.067,0.01,0.103,0.012c0.459,0.034,0.885,0.283,1.116,0.689c0.19,0.325,0.239,0.705,0.141,1.064
		c-0.022,0.085-0.075,0.152-0.112,0.231c-0.121,0.253-0.292,0.48-0.541,0.623c-0.252,0.146-0.54,0.173-0.82,0.145
		C10.724,6.507,10.3,6.286,10.068,5.891z M1.667,20.391c-0.065-0.158-0.109-0.332-0.11-0.513c-0.006-0.374,0.134-0.729,0.396-0.998
		c0.022-0.022,0.055-0.032,0.077-0.053C2.283,18.6,2.6,18.459,2.965,18.454c0.362,0,0.687,0.148,0.936,0.374
		c0.279,0.252,0.461,0.607,0.467,1.009c0.003,0.193-0.035,0.379-0.108,0.554c-0.066,0.163-0.162,0.315-0.288,0.445
		c-0.263,0.269-0.612,0.422-0.987,0.428l-0.021,0.777v-0.777C2.382,21.264,1.881,20.899,1.667,20.391z M12.276,34.625
		c-0.175,0.29-0.458,0.484-0.772,0.585c-0.375,0.123-0.798,0.108-1.152-0.103c-0.153-0.094-0.283-0.214-0.389-0.353
		c-0.116-0.152-0.205-0.323-0.252-0.513c-0.091-0.362-0.037-0.74,0.157-1.063c0.254-0.428,0.707-0.682,1.208-0.682
		c0.061,0,0.117,0.018,0.179,0.022c0.189,0.024,0.371,0.075,0.538,0.173c0.323,0.193,0.55,0.498,0.642,0.862
		c0.002,0.015-0.002,0.026,0.002,0.041C12.514,33.951,12.462,34.313,12.276,34.625z M28.034,32.637
		c0.459,0.036,0.884,0.286,1.116,0.689c0.188,0.323,0.236,0.704,0.141,1.064c-0.021,0.084-0.074,0.152-0.11,0.229
		c-0.122,0.253-0.293,0.482-0.544,0.624c-0.25,0.146-0.535,0.176-0.813,0.148c-0.445-0.042-0.875-0.264-1.104-0.661
		c-0.239-0.415-0.22-0.893-0.026-1.298c0.117-0.246,0.284-0.474,0.542-0.622c0.214-0.122,0.456-0.188,0.702-0.188
		C27.968,32.625,27.999,32.635,28.034,32.637z M27.923,36.211c0.249,0,0.502-0.041,0.747-0.128l0,0
		C28.427,36.169,28.172,36.212,27.923,36.211z M25.086,19.61c0,0.267-0.041,0.522-0.078,0.781c-0.204,1.417-0.948,2.648-2.021,3.498
		c-0.411,0.325-0.854,0.599-1.345,0.797c-0.631,0.252-1.314,0.4-2.032,0.4c-0.716,0-1.4-0.148-2.027-0.4
		c-0.492-0.196-0.935-0.472-1.344-0.797c-1.076-0.847-1.821-2.081-2.024-3.498c-0.038-0.259-0.079-0.515-0.079-0.781
		c0-0.269,0.042-0.525,0.079-0.782c0.204-1.417,0.948-2.651,2.024-3.501c0.409-0.324,0.853-0.598,1.344-0.796
		c0.63-0.252,1.311-0.399,2.027-0.399c0.717,0,1.4,0.146,2.03,0.399c0.492,0.197,0.936,0.474,1.345,0.798
		c1.074,0.848,1.818,2.082,2.022,3.499C25.045,19.084,25.086,19.341,25.086,19.61z M36.225,17.174
		c1.193-0.019,2.175,0.925,2.214,2.113l-0.002-0.002C38.39,18.096,37.413,17.156,36.225,17.174
		c-1.009,0.016-1.837,0.717-2.075,1.654h-0.004C34.383,17.893,35.213,17.19,36.225,17.174z M35.319,20.391
		c-0.278-0.254-0.459-0.608-0.466-1.009c-0.004-0.195,0.034-0.377,0.103-0.546h0.004c0.208-0.504,0.706-0.869,1.303-0.877
		c0.581,0,1.078,0.365,1.289,0.877h0.003c0.063,0.157,0.105,0.325,0.107,0.503c0.006,0.416-0.173,0.789-0.457,1.052
		c-0.244,0.226-0.565,0.368-0.925,0.373l-0.021,0.779v-0.779C35.897,20.764,35.569,20.619,35.319,20.391z"/>
</g>
<g>
</g>
<g>
</g>
<g>
</g>
<g>
</g>
<g>
</g>
<g>
</g>
<g>
</g>
<g>
</g>
<g>
</g>
<g>
</g>
<g>
</g>
<g>
</g>
<g>
</g>
<g>
</g>
<g>
</g>
</svg>
