<?xml version="1.0" encoding="iso-8859-1"?>
<!-- Generator: Adobe Illustrator 16.0.0, SVG Export Plug-In . SVG Version: 6.00 Build 0)  -->
<!DOCTYPE svg PUBLIC "-//W3C//DTD SVG 1.1//EN" "http://www.w3.org/Graphics/SVG/1.1/DTD/svg11.dtd">
<svg version="1.1" id="Capa_1" xmlns="http://www.w3.org/2000/svg" xmlns:xlink="http://www.w3.org/1999/xlink" x="0px" y="0px"
	 width="30.088px" height="30.088px" viewBox="0 0 30.088 30.088" style="enable-background:new 0 0 30.088 30.088;"
	 xml:space="preserve">
<g>
	<path d="M26.4,21.292l-4.043-0.001l-1.351-1.35v-9.804l1.349-1.349h4.047c0.414,0,0.75-0.336,0.75-0.75s-0.336-0.75-0.75-0.75
		h-2.547l2.326-2.326c0.293-0.293,0.293-0.768,0-1.061s-0.768-0.293-1.061,0l-2.325,2.325V3.684c0-0.414-0.336-0.75-0.75-0.75
		s-0.75,0.336-0.75,0.75v4.044L19.943,9.08h-9.798L8.793,7.728V3.683c0-0.414-0.336-0.75-0.75-0.75s-0.75,0.336-0.75,0.75v2.545
		L4.968,3.903C4.675,3.61,4.2,3.61,3.906,3.903c-0.293,0.293-0.293,0.768,0,1.061l2.326,2.325H3.687c-0.414,0-0.75,0.335-0.75,0.75
		c0,0.414,0.336,0.75,0.75,0.75L7.732,8.79l1.352,1.351l-0.001,9.798l-1.351,1.352H3.687c-0.414,0-0.75,0.336-0.75,0.75
		s0.336,0.75,0.75,0.75h2.545l-2.326,2.326c-0.293,0.293-0.293,0.768,0,1.061c0.146,0.146,0.339,0.221,0.531,0.221
		c0.191,0,0.383-0.072,0.529-0.221l2.325-2.324v2.545c0,0.414,0.336,0.75,0.75,0.75s0.75-0.336,0.75-0.75v-4.045l1.351-1.352h9.801
		l1.353,1.352v4.045c0,0.414,0.336,0.75,0.75,0.75s0.75-0.336,0.75-0.75v-2.545l2.325,2.324c0.146,0.146,0.338,0.221,0.529,0.221
		s0.385-0.072,0.529-0.221c0.293-0.293,0.293-0.768,0-1.061l-2.324-2.325h2.543c0.414,0,0.75-0.335,0.75-0.75
		C27.15,21.628,26.814,21.292,26.4,21.292z M11.648,19.502h-1.062v-1.062l0.001-6.798V10.58h1.061h6.799h1.062v1.059v6.805v1.06
		h-1.062L11.648,19.502L11.648,19.502z M30.088,15.041c0,0.414-0.336,0.75-0.75,0.75h-5.109l2.416,2.417
		c0.293,0.293,0.293,0.769,0,1.062c-0.146,0.146-0.338,0.221-0.529,0.221c-0.192,0-0.385-0.073-0.53-0.221l-3.696-3.697
		l-0.531-0.529l0.531-0.53l3.696-3.697c0.293-0.293,0.769-0.293,1.062,0s0.293,0.768,0,1.061l-2.418,2.417h5.111
		C29.752,14.291,30.088,14.627,30.088,15.041z M10.819,4.505c-0.293-0.293-0.293-0.768,0-1.061s0.769-0.293,1.062,0l2.417,2.417
		V0.75c0-0.414,0.336-0.75,0.75-0.75s0.75,0.336,0.75,0.75v5.111l2.416-2.417c0.293-0.293,0.769-0.293,1.062,0s0.293,0.768,0,1.061
		L15.58,8.202l-0.53,0.53l-0.53-0.53L10.819,4.505z M5.86,15.797H0.75c-0.414,0-0.75-0.336-0.75-0.75s0.336-0.75,0.75-0.75h5.11
		L3.444,11.88c-0.293-0.293-0.293-0.768,0-1.061s0.768-0.293,1.061,0l3.697,3.697l0.529,0.53l-0.529,0.53l-3.696,3.695
		c-0.146,0.146-0.338,0.221-0.53,0.221c-0.191,0-0.384-0.073-0.529-0.221c-0.293-0.293-0.293-0.769,0-1.062L5.86,15.797z
		 M19.27,25.583c0.293,0.293,0.293,0.769,0,1.062c-0.146,0.146-0.338,0.221-0.531,0.221c-0.191,0-0.383-0.073-0.529-0.221
		l-2.416-2.416v5.109c0,0.414-0.336,0.75-0.75,0.75s-0.75-0.336-0.75-0.75v-5.109l-2.417,2.416c-0.293,0.293-0.768,0.293-1.061,0
		s-0.293-0.769,0-1.062l3.695-3.697l0.53-0.528l0.53,0.528v0.001L19.27,25.583z"/>
</g>
<g>
</g>
<g>
</g>
<g>
</g>
<g>
</g>
<g>
</g>
<g>
</g>
<g>
</g>
<g>
</g>
<g>
</g>
<g>
</g>
<g>
</g>
<g>
</g>
<g>
</g>
<g>
</g>
<g>
</g>
</svg>
