<?xml version="1.0" encoding="iso-8859-1"?>
<!-- Generator: Adobe Illustrator 16.0.0, SVG Export Plug-In . SVG Version: 6.00 Build 0)  -->
<!DOCTYPE svg PUBLIC "-//W3C//DTD SVG 1.1//EN" "http://www.w3.org/Graphics/SVG/1.1/DTD/svg11.dtd">
<svg version="1.1" id="Capa_1" xmlns="http://www.w3.org/2000/svg" xmlns:xlink="http://www.w3.org/1999/xlink" x="0px" y="0px"
	 width="31.506px" height="31.506px" viewBox="0 0 31.506 31.506" style="enable-background:new 0 0 31.506 31.506;"
	 xml:space="preserve">
<g>
	<path d="M30.753,15.001h-3.289l1.801-1.799c0.293-0.292,0.293-0.768,0-1.061c-0.293-0.292-0.768-0.293-1.062,0L25.343,15h-5.381
		l-1.186-1.185h3.472c0.414,0,0.75-0.336,0.75-0.75s-0.336-0.75-0.75-0.75h-1.999l3.732-3.734c0.293-0.293,0.293-0.768,0-1.061
		s-0.77-0.293-1.062,0l-3.732,3.734v-2c0-0.414-0.336-0.75-0.75-0.75s-0.75,0.336-0.75,0.75v3.47l-1.186-1.185v-5.38l2.859-2.86
		c0.293-0.293,0.293-0.768,0-1.061c-0.293-0.293-0.769-0.293-1.062,0l-1.8,1.8V0.75c0-0.414-0.336-0.75-0.75-0.75
		s-0.75,0.336-0.75,0.75v3.289L13.2,2.24c-0.293-0.293-0.768-0.293-1.061,0c-0.293,0.292-0.293,0.768,0,1.061l2.858,2.86v5.38
		l-1.084,1.084V9.499c0-0.414-0.336-0.75-0.75-0.75s-0.75,0.336-0.75,0.75v1.858L8.579,7.522c-0.293-0.293-0.769-0.293-1.062,0
		c-0.293,0.292-0.293,0.768,0,1.061l3.834,3.834H9.495c-0.414,0-0.75,0.336-0.75,0.75s0.336,0.75,0.75,0.75h3.127l-1.084,1.084
		H6.163l-2.86-2.86c-0.293-0.293-0.768-0.293-1.062,0c-0.293,0.293-0.293,0.768,0,1.061l1.801,1.8H0.753
		c-0.414,0-0.75,0.336-0.75,0.75s0.336,0.75,0.75,0.75h3.289l-1.801,1.799c-0.293,0.293-0.293,0.77,0,1.062
		c0.146,0.146,0.339,0.22,0.531,0.22c0.19,0,0.383-0.072,0.529-0.22l2.86-2.858h5.381l1.185,1.185H9.256
		c-0.414,0-0.75,0.336-0.75,0.75s0.336,0.75,0.75,0.75h1.999l-3.731,3.733c-0.293,0.293-0.293,0.769,0,1.062
		c0.146,0.146,0.338,0.221,0.529,0.221c0.192,0,0.385-0.074,0.53-0.221l3.733-3.734v2.002c0,0.414,0.336,0.75,0.75,0.75
		s0.75-0.336,0.75-0.75v-3.473l1.185,1.186v5.381l-2.86,2.859c-0.293,0.293-0.293,0.768,0,1.062c0.293,0.293,0.769,0.293,1.062,0
		l1.8-1.801v3.289c0,0.414,0.336,0.75,0.75,0.75s0.75-0.336,0.75-0.75v-3.289l1.799,1.799c0.146,0.146,0.338,0.221,0.53,0.221
		s0.384-0.073,0.53-0.221c0.293-0.291,0.293-0.768,0-1.061l-2.859-2.864v-5.379l1.084-1.084v3.125c0,0.414,0.336,0.75,0.75,0.75
		s0.75-0.336,0.75-0.75v-1.856l3.834,3.834c0.146,0.146,0.338,0.221,0.529,0.221c0.193,0,0.385-0.072,0.531-0.221
		c0.293-0.291,0.293-0.769,0-1.062l-3.834-3.834h1.855c0.414,0,0.75-0.336,0.75-0.75s-0.336-0.75-0.75-0.75h-3.127l1.084-1.084
		h5.381l2.859,2.86c0.146,0.146,0.339,0.22,0.529,0.22c0.192,0,0.385-0.072,0.53-0.22c0.293-0.293,0.293-0.77,0-1.062l-1.8-1.799
		h3.293c0.414,0,0.75-0.336,0.75-0.75S31.167,15.001,30.753,15.001z M17.841,16.501l-1.338,1.338l-0.75,0.75l-0.75-0.75
		l-1.338-1.338l-0.75-0.75l0.75-0.75l1.338-1.338l0.75-0.75l0.75,0.75l1.338,1.338l0.75,0.75L17.841,16.501z"/>
</g>
<g>
</g>
<g>
</g>
<g>
</g>
<g>
</g>
<g>
</g>
<g>
</g>
<g>
</g>
<g>
</g>
<g>
</g>
<g>
</g>
<g>
</g>
<g>
</g>
<g>
</g>
<g>
</g>
<g>
</g>
</svg>
