<?xml version="1.0" encoding="iso-8859-1"?>
<!-- Generator: Adobe Illustrator 16.0.0, SVG Export Plug-In . SVG Version: 6.00 Build 0)  -->
<!DOCTYPE svg PUBLIC "-//W3C//DTD SVG 1.1//EN" "http://www.w3.org/Graphics/SVG/1.1/DTD/svg11.dtd">
<svg version="1.1" id="Capa_1" xmlns="http://www.w3.org/2000/svg" xmlns:xlink="http://www.w3.org/1999/xlink" x="0px" y="0px"
	 width="31.502px" height="31.503px" viewBox="0 0 31.502 31.503" style="enable-background:new 0 0 31.502 31.503;"
	 xml:space="preserve">
<g>
	<path d="M30.754,15.001h-3.289l1.799-1.799c0.293-0.292,0.293-0.768,0-1.061c-0.293-0.292-0.768-0.293-1.061,0L25.344,15h-4.152
		l-3.237-1.449l-1.449-3.237V6.16l2.86-2.86c0.294-0.293,0.294-0.768,0-1.061c-0.293-0.293-0.77-0.293-1.062,0l-1.799,1.8V0.75
		c0-0.414-0.336-0.75-0.75-0.75s-0.75,0.336-0.75,0.75v3.289L13.207,2.24c-0.293-0.293-0.769-0.293-1.062,0
		c-0.293,0.292-0.293,0.768,0,1.061l2.859,2.86v4.154l-1.45,3.236L10.316,15H6.165l-2.86-2.86c-0.293-0.293-0.768-0.293-1.061,0
		s-0.293,0.768,0,1.061l1.8,1.8H0.754c-0.414,0-0.75,0.336-0.75,0.75s0.336,0.75,0.75,0.75h3.289l-1.8,1.799
		c-0.293,0.293-0.293,0.769,0,1.062c0.146,0.146,0.338,0.221,0.529,0.221s0.385-0.072,0.53-0.221l2.86-2.857h4.153l3.236,1.449
		L15,21.189v4.153l-2.86,2.859c-0.293,0.293-0.293,0.768,0,1.062c0.293,0.293,0.769,0.293,1.062,0l1.8-1.8v3.289
		c0,0.414,0.336,0.75,0.75,0.75s0.75-0.336,0.75-0.75v-3.289l1.799,1.8c0.146,0.146,0.338,0.219,0.531,0.219
		c0.191,0,0.383-0.072,0.529-0.219c0.293-0.294,0.293-0.769,0-1.062l-2.859-2.861v-4.153l1.449-3.236l3.236-1.449h4.153l2.859,2.859
		c0.146,0.146,0.338,0.221,0.528,0.221c0.193,0,0.385-0.072,0.531-0.221c0.293-0.293,0.293-0.769,0-1.062l-1.801-1.799h3.289
		c0.414,0,0.75-0.336,0.75-0.75S31.168,15.001,30.754,15.001z M17.52,16.501l-0.701,0.313l-0.314,0.701l-0.75,1.674l-0.75-1.674
		l-0.313-0.701l-0.702-0.313l-1.677-0.75l1.676-0.75l0.702-0.314l0.313-0.702l0.75-1.674l0.75,1.674l0.314,0.702l0.702,0.314
		l1.676,0.75L17.52,16.501z M25.083,19.296c0,0.414-0.336,0.75-0.75,0.75h-4.283v4.283c0,0.414-0.336,0.75-0.75,0.75
		s-0.75-0.336-0.75-0.75v-5.783h5.783C24.747,18.546,25.083,18.882,25.083,19.296z M6.425,12.206c0-0.414,0.336-0.75,0.75-0.75
		h4.282V7.173c0-0.414,0.336-0.75,0.75-0.75s0.75,0.336,0.75,0.75v5.783H7.175C6.761,12.956,6.425,12.62,6.425,12.206z
		 M12.07,25.413c-0.414,0-0.75-0.336-0.75-0.75v-4.479H6.841c-0.414,0-0.75-0.336-0.75-0.75s0.336-0.75,0.75-0.75h5.979v5.979
		C12.82,25.077,12.484,25.413,12.07,25.413z M19.438,6.087c0.414,0,0.75,0.336,0.75,0.75v4.478h4.479c0.414,0,0.75,0.336,0.75,0.75
		s-0.336,0.75-0.75,0.75h-5.979V6.837C18.688,6.423,19.024,6.087,19.438,6.087z"/>
</g>
<g>
</g>
<g>
</g>
<g>
</g>
<g>
</g>
<g>
</g>
<g>
</g>
<g>
</g>
<g>
</g>
<g>
</g>
<g>
</g>
<g>
</g>
<g>
</g>
<g>
</g>
<g>
</g>
<g>
</g>
</svg>
