<?xml version="1.0" encoding="iso-8859-1"?>
<!-- Generator: Adobe Illustrator 16.0.0, SVG Export Plug-In . SVG Version: 6.00 Build 0)  -->
<!DOCTYPE svg PUBLIC "-//W3C//DTD SVG 1.1//EN" "http://www.w3.org/Graphics/SVG/1.1/DTD/svg11.dtd">
<svg version="1.1" id="Capa_1" xmlns="http://www.w3.org/2000/svg" xmlns:xlink="http://www.w3.org/1999/xlink" x="0px" y="0px"
	 width="32.815px" height="32.815px" viewBox="0 0 32.815 32.815" style="enable-background:new 0 0 32.815 32.815;"
	 xml:space="preserve">
<g>
	<path d="M4.581,23.55h4.681v4.681c0,0.432-0.35,0.781-0.781,0.781c-0.431,0-0.781-0.35-0.781-0.781v-3.118H4.581
		c-0.432,0-0.781-0.351-0.781-0.781C3.799,23.899,4.149,23.55,4.581,23.55z M29.016,8.481c0-0.432-0.351-0.781-0.781-0.781h-3.119
		V4.582c0-0.431-0.35-0.781-0.781-0.781s-0.781,0.349-0.781,0.781v4.681h4.682C28.665,9.263,29.016,8.913,29.016,8.481z
		 M4.764,9.079l4.683-0.001V4.395c0-0.431-0.35-0.781-0.781-0.781c-0.431,0-0.781,0.351-0.781,0.781v3.121L4.764,7.517
		c-0.431,0-0.781,0.35-0.781,0.781C3.982,8.729,4.333,9.079,4.764,9.079z M28.419,23.366h-4.685l0.002,4.684
		c0,0.433,0.35,0.781,0.781,0.781c0.431,0,0.781-0.35,0.781-0.781l-0.002-3.121h3.122c0.432,0,0.781-0.351,0.781-0.781
		C29.2,23.716,28.851,23.366,28.419,23.366z M32.813,16.406c0,0.432-0.35,0.781-0.781,0.781h-3.426l1.876,1.875
		c0.305,0.305,0.305,0.801,0,1.105c-0.151,0.151-0.354,0.23-0.554,0.23c-0.198,0-0.398-0.077-0.55-0.23l-2.979-2.979h-1.986
		L17.19,24.41v1.987l2.977,2.979c0.306,0.306,0.306,0.8,0,1.106c-0.151,0.152-0.352,0.228-0.55,0.228s-0.402-0.074-0.553-0.228
		l-1.874-1.875v3.426c0,0.432-0.35,0.781-0.781,0.781s-0.781-0.35-0.781-0.781v-3.426l-1.875,1.875c-0.305,0.305-0.8,0.305-1.105,0
		c-0.305-0.306-0.305-0.8,0-1.105l2.978-2.979V24.41l-7.219-7.22H6.418L3.438,20.17c-0.152,0.151-0.352,0.229-0.552,0.229
		c-0.199,0-0.4-0.077-0.551-0.229c-0.306-0.305-0.306-0.802,0-1.106l1.875-1.874H0.783c-0.432,0-0.781-0.35-0.781-0.781
		c0-0.431,0.35-0.781,0.781-0.781h3.426l-1.876-1.875c-0.305-0.305-0.305-0.8,0-1.105c0.307-0.305,0.801-0.305,1.106,0l2.979,2.979
		h1.989l7.219-7.218v-1.99l-2.978-2.979c-0.305-0.305-0.305-0.8,0-1.105c0.305-0.306,0.801-0.306,1.106,0l1.874,1.874V0.781
		C15.628,0.35,15.979,0,16.41,0s0.781,0.35,0.781,0.781v3.426l1.875-1.875c0.307-0.305,0.801-0.305,1.106,0
		c0.305,0.306,0.305,0.8,0,1.105l-2.979,2.979v1.99l7.216,7.218h1.992l2.979-2.979c0.305-0.305,0.801-0.305,1.105,0
		s0.305,0.8,0,1.105l-1.876,1.874h3.427C32.464,15.625,32.813,15.975,32.813,16.406z M22.2,17.188l0.778-0.78l-0.781-0.782
		l-5.009-5.008l-0.781-0.781l-0.781,0.781l-5.01,5.008l-0.781,0.781l0.781,0.781l5.01,5.011l0.782,0.781l0.78-0.779L22.2,17.188z
		 M28.063,21.834c0-0.431-0.351-0.781-0.781-0.781h-6.229v6.228c0,0.432,0.35,0.781,0.781,0.781c0.431,0,0.781-0.35,0.781-0.781
		v-4.665h4.666C27.713,22.615,28.063,22.266,28.063,21.834z M28.062,10.979c0-0.431-0.351-0.781-0.781-0.781h-4.664V5.532
		c0-0.431-0.351-0.781-0.781-0.781c-0.432,0-0.781,0.35-0.781,0.781v6.228h6.227C27.713,11.76,28.062,11.411,28.062,10.979z
		 M4.744,10.979c0,0.432,0.35,0.781,0.781,0.781h6.228V5.532c0-0.431-0.35-0.781-0.781-0.781s-0.781,0.35-0.781,0.781v4.666H5.525
		C5.094,10.198,4.744,10.548,4.744,10.979z M4.746,21.834c0,0.432,0.35,0.781,0.781,0.781h4.664v4.665
		c0,0.432,0.35,0.781,0.781,0.781s0.781-0.35,0.781-0.781v-6.228H5.527C5.096,21.053,4.746,21.403,4.746,21.834z"/>
</g>
<g>
</g>
<g>
</g>
<g>
</g>
<g>
</g>
<g>
</g>
<g>
</g>
<g>
</g>
<g>
</g>
<g>
</g>
<g>
</g>
<g>
</g>
<g>
</g>
<g>
</g>
<g>
</g>
<g>
</g>
</svg>
