<?xml version="1.0" encoding="iso-8859-1"?>
<!-- Generator: Adobe Illustrator 16.0.0, SVG Export Plug-In . SVG Version: 6.00 Build 0)  -->
<!DOCTYPE svg PUBLIC "-//W3C//DTD SVG 1.1//EN" "http://www.w3.org/Graphics/SVG/1.1/DTD/svg11.dtd">
<svg version="1.1" id="Capa_1" xmlns="http://www.w3.org/2000/svg" xmlns:xlink="http://www.w3.org/1999/xlink" x="0px" y="0px"
	 width="38.195px" height="38.195px" viewBox="0 0 38.195 38.195" style="enable-background:new 0 0 38.195 38.195;"
	 xml:space="preserve">
<g>
	<path d="M38.095,18.723l-1.18-2.043c-0.134-0.231-0.382-0.374-0.647-0.374l-2.356-0.001c-0.269,0-0.516,0.144-0.648,0.375
		l-0.961,1.666h-1.046l0.6-1.037c0.207-0.358,0.084-0.817-0.274-1.024c-0.359-0.209-0.816-0.082-1.023,0.274l-1.031,1.787h-1.469
		l1.991-3.449c0.207-0.358,0.084-0.817-0.274-1.024s-0.817-0.082-1.023,0.274l-2.426,4.199h-0.514
		c-0.215-1.917-1.234-3.59-2.712-4.683l0.261-0.45h4.854c0.414,0,0.75-0.337,0.75-0.75c0-0.414-0.336-0.75-0.75-0.75h-3.986
		l0.732-1.271h2.065c0.414,0,0.75-0.337,0.75-0.75c0-0.414-0.336-0.75-0.75-0.75h-1.199l0.521-0.904h1.924
		c0.269,0,0.517-0.144,0.649-0.375l1.181-2.041c0.135-0.232,0.135-0.519,0-0.75l-1.179-2.043c-0.135-0.231-0.383-0.375-0.649-0.375
		l-2.359,0.002c-0.268,0-0.516,0.144-0.647,0.375L24.09,4.868c-0.136,0.231-0.138,0.52-0.001,0.752l0.963,1.668L24.53,8.19
		L23.93,7.153c-0.207-0.357-0.664-0.483-1.024-0.274c-0.356,0.206-0.479,0.666-0.272,1.024l1.031,1.787l-0.733,1.271l-1.991-3.45
		c-0.207-0.358-0.666-0.481-1.024-0.274s-0.481,0.666-0.274,1.024l2.426,4.2l-0.259,0.447c-0.829-0.364-1.743-0.57-2.707-0.57
		c-0.963,0-1.877,0.205-2.706,0.57l-0.258-0.445l2.428-4.203c0.207-0.357,0.084-0.816-0.274-1.023
		c-0.36-0.209-0.817-0.084-1.024,0.273l-1.994,3.453l-0.732-1.271l1.031-1.789c0.207-0.359,0.084-0.818-0.273-1.024
		c-0.359-0.209-0.818-0.083-1.023,0.274l-0.601,1.039l-0.524-0.906l0.963-1.666c0.135-0.232,0.135-0.52,0-0.75l-1.178-2.041
		c-0.135-0.231-0.382-0.375-0.648-0.375l-1.121-0.002l-0.14,0.002L9.924,2.452c-0.001,0-0.001,0-0.001,0
		c-0.269,0-0.516,0.144-0.649,0.375L8.094,4.87C7.96,5.101,7.96,5.388,8.096,5.62l1.178,2.041c0.135,0.231,0.383,0.375,0.649,0.375
		h1.253h0.001l0.669-0.002l0.522,0.905h-1.194c-0.414,0-0.75,0.336-0.75,0.75s0.336,0.75,0.75,0.75h2.061l0.734,1.271H9.988
		c-0.413,0-0.75,0.337-0.75,0.75c0,0.414,0.337,0.75,0.75,0.75h4.85l0.262,0.453c-1.478,1.093-2.498,2.766-2.711,4.684h-0.514
		l-2.426-4.2c-0.207-0.356-0.664-0.481-1.024-0.274c-0.358,0.207-0.481,0.666-0.274,1.024l1.992,3.45h-1.47L7.641,16.56
		c-0.207-0.357-0.664-0.482-1.023-0.273c-0.358,0.207-0.48,0.666-0.274,1.023l0.599,1.037H5.897l-0.965-1.669
		c-0.134-0.229-0.381-0.373-0.647-0.373l-2.355,0.002c-0.269,0-0.516,0.144-0.648,0.373l-1.182,2.041
		c-0.134,0.231-0.134,0.519,0,0.75l1.18,2.041c0.134,0.23,0.381,0.375,0.648,0.375l2.357,0.002c0.268,0,0.516-0.145,0.648-0.375
		l0.961-1.668h1.047l-0.598,1.039c-0.207,0.357-0.084,0.816,0.273,1.023c0.117,0.066,0.247,0.102,0.374,0.102
		c0.26,0,0.512-0.137,0.649-0.375l1.032-1.789h1.47L8.147,23.3c-0.207,0.357-0.084,0.816,0.274,1.023
		c0.118,0.066,0.247,0.102,0.374,0.102c0.26,0,0.512-0.137,0.65-0.375l2.427-4.203h0.513c0.213,1.918,1.233,3.592,2.711,4.685
		l-0.261,0.45H9.988c-0.413,0-0.75,0.336-0.75,0.75s0.337,0.75,0.75,0.75h3.984l-0.734,1.271h-2.063c-0.414,0-0.75,0.336-0.75,0.75
		c0,0.413,0.336,0.75,0.75,0.75h1.198l-0.523,0.905l-0.666,0.002l-0.156-0.002L9.924,30.16c-0.268,0-0.515,0.146-0.648,0.375
		L8.1,32.574c-0.135,0.229-0.135,0.519-0.002,0.75l1.178,2.043c0.134,0.231,0.381,0.375,0.649,0.375h0.001l1.094-0.002l0.149,0.002
		c0.004,0,0.007,0,0.011,0h1.104c0.268,0,0.515-0.146,0.647-0.375l1.178-2.043c0.134-0.229,0.134-0.519,0-0.748l-0.961-1.668
		l0.522-0.905l0.601,1.038c0.139,0.24,0.391,0.375,0.649,0.375c0.127,0,0.256-0.032,0.374-0.103c0.357-0.207,0.48-0.664,0.273-1.022
		l-1.031-1.788l0.734-1.271l1.991,3.451c0.14,0.24,0.392,0.375,0.65,0.375c0.127,0,0.256-0.031,0.374-0.101
		c0.357-0.207,0.48-0.666,0.273-1.024l-2.426-4.201l0.258-0.443c0.829,0.363,1.743,0.568,2.707,0.568
		c0.963,0,1.877-0.205,2.706-0.57l0.259,0.449l-2.424,4.197c-0.207,0.356-0.085,0.815,0.273,1.022
		c0.117,0.067,0.247,0.103,0.374,0.103c0.26,0,0.513-0.135,0.649-0.375l1.991-3.448l0.733,1.271l-1.03,1.785
		c-0.206,0.357-0.084,0.816,0.273,1.023c0.119,0.068,0.248,0.102,0.375,0.102c0.26,0,0.512-0.135,0.649-0.375l0.599-1.035
		l0.521,0.904l-0.964,1.666c-0.134,0.232-0.134,0.52,0,0.75l1.18,2.041c0.134,0.23,0.382,0.375,0.647,0.375l1.104,0.002l0,0
		c0.004,0,0.008,0,0.01,0l1.244-0.002c0.268,0,0.516-0.143,0.647-0.375l1.181-2.041c0.133-0.23,0.133-0.518-0.002-0.75l-1.179-2.041
		c-0.134-0.23-0.382-0.375-0.647-0.375l-1.254,0.002l-0.671-0.002l-0.522-0.906h1.199c0.414,0,0.75-0.336,0.75-0.75
		s-0.336-0.75-0.75-0.75h-2.065l-0.732-1.271h3.984c0.414,0,0.75-0.336,0.75-0.75c0-0.413-0.336-0.75-0.75-0.75h-4.853l-0.256-0.45
		c1.478-1.093,2.498-2.767,2.712-4.685h0.512l2.428,4.201c0.14,0.24,0.392,0.375,0.65,0.375c0.127,0,0.256-0.031,0.373-0.102
		c0.358-0.207,0.48-0.666,0.274-1.023l-1.993-3.451h1.471l1.031,1.789c0.139,0.238,0.391,0.375,0.649,0.375
		c0.127,0,0.256-0.033,0.374-0.102c0.358-0.207,0.481-0.666,0.274-1.023l-0.602-1.039h1.047l0.962,1.668
		c0.134,0.23,0.381,0.375,0.648,0.375l0,0h2.356c0.269,0,0.515-0.145,0.648-0.375l1.179-2.041
		C38.229,19.242,38.229,18.954,38.095,18.723z M25.599,5.245l0.746-1.291h0.626l0.864-0.002l0.435,0.75l0.312,0.543l-0.747,1.291
		h-0.624l-0.196-0.002l-0.67,0.002l-0.435-0.75L25.599,5.245z M10.35,6.535L9.604,5.244l0.312-0.541l0.434-0.75h0.681l0.14-0.002
		h0.045l0.626,0.002l0.746,1.291l-0.312,0.541l-0.434,0.75h-0.866H10.35L10.35,6.535z M4.588,19.096l-0.433,0.75L3.843,20.39
		l-1.491-0.002L2.04,19.847l-0.434-0.75l0.432-0.749l0.312-0.54l1.492-0.002l0.312,0.542L4.588,19.096z M12.584,32.951l-0.743,1.291
		l-0.627,0.002h-0.04l-0.155-0.002h-0.67l-0.433-0.75l-0.312-0.541l0.744-1.291h0.625h0.04h0.156h0.669l0.434,0.75L12.584,32.951z
		 M27.836,31.659l0.744,1.291l-0.312,0.541l-0.434,0.75l-0.824,0.002h-0.04l-0.626-0.002l-0.746-1.291l0.312-0.541l0.437-0.75h0.863
		H27.836L27.836,31.659z M24.351,19.097c0,0.257-0.04,0.503-0.076,0.75c-0.195,1.361-0.91,2.545-1.941,3.359
		c-0.393,0.311-0.818,0.574-1.291,0.766c-0.604,0.242-1.259,0.383-1.947,0.383s-1.344-0.141-1.946-0.383
		c-0.473-0.188-0.898-0.453-1.291-0.766c-1.033-0.814-1.748-1.998-1.943-3.359c-0.036-0.246-0.076-0.493-0.076-0.75
		s0.04-0.503,0.076-0.75c0.195-1.361,0.91-2.545,1.941-3.359c0.394-0.311,0.819-0.574,1.291-0.765
		c0.604-0.242,1.26-0.384,1.948-0.384s1.345,0.142,1.948,0.384c0.472,0.188,0.897,0.454,1.29,0.765
		c1.031,0.815,1.746,1.998,1.941,3.358C24.311,18.594,24.351,18.84,24.351,19.097z M35.834,20.39l-0.82-0.002l-0.671,0.002
		l-0.312-0.543l-0.432-0.75l0.434-0.751l0.312-0.541l1.493,0.001l0.311,0.54l0.434,0.752l-0.432,0.749L35.834,20.39z"/>
</g>
<g>
</g>
<g>
</g>
<g>
</g>
<g>
</g>
<g>
</g>
<g>
</g>
<g>
</g>
<g>
</g>
<g>
</g>
<g>
</g>
<g>
</g>
<g>
</g>
<g>
</g>
<g>
</g>
<g>
</g>
</svg>
