<?xml version="1.0" encoding="iso-8859-1"?>
<!-- Generator: Adobe Illustrator 16.0.0, SVG Export Plug-In . SVG Version: 6.00 Build 0)  -->
<!DOCTYPE svg PUBLIC "-//W3C//DTD SVG 1.1//EN" "http://www.w3.org/Graphics/SVG/1.1/DTD/svg11.dtd">
<svg version="1.1" id="Capa_1" xmlns="http://www.w3.org/2000/svg" xmlns:xlink="http://www.w3.org/1999/xlink" x="0px" y="0px"
	 width="39.787px" height="39.787px" viewBox="0 0 39.787 39.787" style="enable-background:new 0 0 39.787 39.787;"
	 xml:space="preserve">
<g>
	<path d="M37.231,26.994c0-0.281-0.15-0.538-0.391-0.676l-2.126-1.229c-0.242-0.141-0.541-0.141-0.781,0l-1.735,1.003l-0.943-0.543
		l1.079-0.625c0.373-0.216,0.501-0.694,0.285-1.065c-0.214-0.372-0.689-0.503-1.066-0.285l-1.86,1.073l-1.323-0.765l3.593-2.075
		c0.371-0.216,0.5-0.693,0.284-1.065s-0.692-0.503-1.065-0.285l-4.164,2.405c0.382-0.913,0.594-1.916,0.594-2.966
		s-0.212-2.052-0.594-2.966l4.164,2.406c0.124,0.071,0.259,0.106,0.391,0.106c0.271,0,0.533-0.141,0.677-0.391
		c0.216-0.373,0.087-0.851-0.286-1.066l-3.597-2.076l1.325-0.763l1.861,1.074c0.124,0.07,0.259,0.105,0.391,0.105
		c0.272,0,0.534-0.14,0.677-0.391c0.216-0.373,0.088-0.851-0.286-1.067l-1.08-0.625l0.94-0.542l1.735,1.002
		c0.121,0.069,0.255,0.106,0.393,0.106c0.134,0,0.269-0.035,0.391-0.106l2.128-1.228c0.241-0.14,0.391-0.398,0.391-0.674
		l-0.002-1.306l0.002-1.151c0-0.28-0.149-0.538-0.391-0.675l-2.128-1.229c-0.241-0.14-0.542-0.14-0.783,0l-2.122,1.227
		c-0.243,0.14-0.393,0.398-0.393,0.676v2.006l-0.942,0.543v-1.248c0-0.432-0.35-0.781-0.781-0.781c-0.431,0-0.781,0.35-0.781,0.781
		v2.149l-1.323,0.764v-4.149c0-0.432-0.35-0.781-0.781-0.781c-0.431,0-0.781,0.35-0.781,0.781v4.824
		c-1.223-1.599-3.052-2.709-5.145-2.977l4.174-2.408c0.371-0.216,0.5-0.694,0.284-1.066c-0.214-0.371-0.692-0.501-1.065-0.284
		l-3.597,2.073V9.042l1.863-1.078c0.373-0.216,0.5-0.693,0.284-1.066c-0.216-0.372-0.689-0.502-1.067-0.285l-1.08,0.627V6.149
		l1.735-1.002c0.241-0.14,0.391-0.398,0.391-0.675V2.01c0-0.28-0.149-0.536-0.389-0.674l-2.128-1.23c-0.24-0.141-0.541-0.141-0.78,0
		l-2.129,1.229c-0.24,0.141-0.39,0.399-0.39,0.676v2.455c0,0.279,0.149,0.537,0.391,0.674l1.737,1.001v1.09l-1.079-0.625
		c-0.375-0.218-0.851-0.088-1.066,0.285c-0.216,0.373-0.087,0.851,0.285,1.066l1.86,1.075v1.529L15.52,8.489
		c-0.375-0.217-0.851-0.087-1.066,0.285c-0.216,0.374-0.087,0.85,0.285,1.066l4.172,2.408c-2.094,0.268-3.923,1.375-5.144,2.977
		L13.766,10.4c0-0.43-0.351-0.781-0.781-0.781c-0.432,0-0.781,0.351-0.781,0.781l0.001,4.15l-1.325-0.765v-2.148
		c0-0.431-0.352-0.781-0.781-0.781c-0.431,0-0.781,0.35-0.781,0.781v1.246L8.375,12.34l0.002-0.855l-0.002-1.149
		c0-0.28-0.151-0.536-0.391-0.675L5.858,8.433c-0.24-0.14-0.541-0.142-0.781,0L2.951,9.66c-0.244,0.141-0.393,0.399-0.393,0.678
		v2.456c0,0.28,0.15,0.537,0.391,0.674l2.126,1.229c0.12,0.07,0.254,0.107,0.391,0.107c0.134,0,0.27-0.035,0.391-0.107l1.735-1.003
		l0.941,0.544l-1.08,0.625c-0.373,0.215-0.5,0.693-0.285,1.067c0.145,0.25,0.407,0.391,0.677,0.391c0.132,0,0.267-0.034,0.389-0.107
		l1.861-1.073l1.327,0.764l-3.596,2.075c-0.373,0.215-0.501,0.694-0.285,1.066c0.146,0.25,0.408,0.391,0.677,0.391
		c0.132,0,0.267-0.032,0.39-0.105l4.164-2.404c-0.381,0.913-0.594,1.914-0.594,2.964c0,1.05,0.212,2.052,0.595,2.965l-4.164-2.404
		c-0.374-0.217-0.852-0.087-1.065,0.284c-0.216,0.373-0.087,0.851,0.284,1.066l3.594,2.075l-1.324,0.764l-1.864-1.073
		c-0.373-0.218-0.851-0.086-1.065,0.285c-0.215,0.373-0.087,0.851,0.284,1.066l1.08,0.624l-0.943,0.545l-1.738-1.002
		c-0.24-0.139-0.539-0.139-0.779,0.001l-2.124,1.225c-0.241,0.139-0.391,0.396-0.391,0.676l-0.002,1.159l0.002,0.147l-0.002,1.149
		c0,0.282,0.149,0.54,0.391,0.678l2.128,1.229c0.12,0.07,0.254,0.106,0.391,0.106c0.134,0,0.271-0.034,0.391-0.106l2.124-1.229
		c0.241-0.141,0.391-0.399,0.391-0.677V28.14v-0.694l0.946-0.545v1.25c0,0.431,0.35,0.781,0.781,0.781
		c0.43,0,0.781-0.351,0.781-0.781v-2.152l1.324-0.764v4.151c0,0.431,0.35,0.781,0.781,0.781c0.43,0,0.781-0.351,0.781-0.781v-4.824
		c1.223,1.6,3.052,2.709,5.144,2.975l-4.172,2.409c-0.373,0.215-0.501,0.693-0.285,1.065c0.146,0.25,0.408,0.391,0.677,0.391
		c0.132,0,0.267-0.032,0.39-0.104l3.593-2.073v1.53l-1.86,1.074c-0.373,0.215-0.501,0.693-0.285,1.065
		c0.146,0.253,0.408,0.391,0.677,0.391c0.132,0,0.267-0.032,0.39-0.105l1.079-0.624v1.09l-1.737,1.001
		c-0.241,0.14-0.391,0.397-0.391,0.677v2.452c0,0.28,0.149,0.538,0.39,0.676l2.129,1.229c0.119,0.069,0.255,0.107,0.39,0.107
		s0.27-0.035,0.39-0.107l2.128-1.229c0.239-0.141,0.389-0.396,0.389-0.676v-2.452c0-0.281-0.149-0.538-0.389-0.677l-1.737-1.001
		v-1.092l1.08,0.626c0.377,0.217,0.852,0.089,1.067-0.283c0.216-0.374,0.089-0.851-0.284-1.067l-1.863-1.077v-1.529l3.597,2.075
		c0.373,0.218,0.852,0.086,1.065-0.286c0.216-0.372,0.087-0.851-0.284-1.065l-4.174-2.409c2.095-0.269,3.922-1.375,5.145-2.975
		v4.824c0,0.431,0.35,0.781,0.781,0.781s0.781-0.351,0.781-0.781v-4.151l1.323,0.764v2.151c0,0.431,0.35,0.781,0.781,0.781
		s0.781-0.351,0.781-0.781v-1.248l0.944,0.542v2.005c0,0.281,0.149,0.539,0.391,0.677l2.124,1.229
		c0.121,0.07,0.255,0.107,0.393,0.107c0.134,0,0.269-0.035,0.391-0.107l2.126-1.229c0.241-0.141,0.391-0.398,0.391-0.677
		l0.002-1.307L37.231,26.994z M32.978,11.436v-0.651l1.345-0.777l0.565,0.325l0.779,0.45l0.002,0.903v0.653l-1.347,0.775
		l-0.563-0.324l-0.781-0.453V11.436L32.978,11.436z M5.463,13.115l-1.345-0.778v-0.65v-0.903l0.781-0.451l0.564-0.325l1.347,0.776
		v0.651l-0.002,0.901l-0.781,0.452L5.463,13.115z M6.808,29l-1.343,0.777L4.899,29.45L4.118,29l0.002-0.71l-0.002-0.146v-0.048
		v-0.649l1.345-0.777l0.563,0.326l0.781,0.451v0.902V29L6.808,29z M20.675,25.992c-0.257,0.03-0.517,0.055-0.782,0.055
		c-0.266,0-0.525-0.022-0.781-0.055c-1.671-0.214-3.131-1.1-4.105-2.376c-0.317-0.413-0.585-0.863-0.79-1.35
		c-0.308-0.73-0.479-1.534-0.479-2.374c0-0.84,0.171-1.644,0.479-2.375c0.203-0.486,0.473-0.935,0.79-1.35
		c0.976-1.277,2.436-2.161,4.105-2.374c0.256-0.032,0.516-0.056,0.781-0.056c0.265,0,0.525,0.022,0.782,0.056
		c1.67,0.213,3.131,1.099,4.104,2.374c0.316,0.413,0.585,0.864,0.789,1.35c0.309,0.73,0.479,1.535,0.479,2.375
		c0,0.84-0.17,1.644-0.479,2.374c-0.202,0.486-0.473,0.935-0.789,1.35C23.806,24.893,22.345,25.777,20.675,25.992z M18.547,2.452
		l0.565-0.326l0.781-0.451l0.782,0.451l0.563,0.325v1.554l-0.563,0.326l-0.782,0.451l-0.781-0.451l-0.565-0.326V2.452z
		 M21.238,37.33l-0.563,0.324l-0.782,0.453l-0.781-0.451l-0.565-0.325v-1.554l0.565-0.324l0.781-0.45l0.782,0.452l0.563,0.325V37.33
		z M32.979,28.347v-0.204l-0.002-0.697l0.781-0.452l0.563-0.326l1.347,0.778v0.65L35.667,29l-0.779,0.45l-0.565,0.327L32.978,29
		L32.979,28.347z"/>
</g>
<g>
</g>
<g>
</g>
<g>
</g>
<g>
</g>
<g>
</g>
<g>
</g>
<g>
</g>
<g>
</g>
<g>
</g>
<g>
</g>
<g>
</g>
<g>
</g>
<g>
</g>
<g>
</g>
<g>
</g>
</svg>
