<?xml version="1.0" encoding="iso-8859-1"?>
<!-- Generator: Adobe Illustrator 16.0.0, SVG Export Plug-In . SVG Version: 6.00 Build 0)  -->
<!DOCTYPE svg PUBLIC "-//W3C//DTD SVG 1.1//EN" "http://www.w3.org/Graphics/SVG/1.1/DTD/svg11.dtd">
<svg version="1.1" id="Capa_1" xmlns="http://www.w3.org/2000/svg" xmlns:xlink="http://www.w3.org/1999/xlink" x="0px" y="0px"
	 width="32.292px" height="32.292px" viewBox="0 0 32.292 32.292" style="enable-background:new 0 0 32.292 32.292;"
	 xml:space="preserve">
<g>
	<path d="M31.771,15.625H29.97l-1.597-1.595c-0.203-0.203-0.533-0.203-0.736,0s-0.203,0.533,0,0.736l0.86,0.859h-0.531l-1.985-1.986
		c-0.204-0.203-0.533-0.203-0.737,0c-0.203,0.203-0.203,0.533,0,0.736l1.249,1.25h-9.09l10.158-10.16
		c0.201-0.204,0.201-0.535,0-0.736c-0.201-0.202-0.533-0.202-0.736,0L16.667,14.889V5.8l1.248,1.249
		c0.202,0.202,0.533,0.202,0.735,0c0.204-0.203,0.204-0.535,0-0.736l-1.983-1.986V3.796l0.857,0.855
		c0.202,0.204,0.533,0.204,0.737,0c0.204-0.202,0.204-0.533,0-0.736l-1.595-1.591V0.521C16.667,0.235,16.433,0,16.146,0
		c-0.287,0-0.521,0.235-0.521,0.521v1.801l-1.594,1.593c-0.204,0.204-0.204,0.535,0,0.736c0.102,0.104,0.235,0.152,0.369,0.152
		c0.133,0,0.267-0.051,0.369-0.152l0.856-0.855v0.532l-1.984,1.985c-0.204,0.203-0.204,0.534,0,0.736
		c0.102,0.103,0.235,0.152,0.369,0.152c0.133,0,0.267-0.051,0.369-0.152l1.247-1.249v9.088L5.465,4.73
		c-0.203-0.202-0.533-0.202-0.736,0c-0.203,0.202-0.203,0.533,0,0.736l10.158,10.16H5.801l1.247-1.247
		c0.203-0.203,0.203-0.533,0-0.736c-0.204-0.204-0.534-0.204-0.736,0l-1.984,1.982h-0.53l0.856-0.857
		c0.204-0.203,0.204-0.533,0-0.736c-0.203-0.204-0.533-0.204-0.736,0l-1.594,1.593H0.521C0.233,15.625,0,15.859,0,16.146
		s0.233,0.521,0.521,0.521h1.8l1.597,1.596c0.102,0.102,0.235,0.151,0.369,0.151c0.133,0,0.267-0.051,0.369-0.151
		c0.203-0.204,0.203-0.533,0-0.737l-0.86-0.858h0.53l1.988,1.986c0.102,0.102,0.235,0.151,0.369,0.151s0.267-0.051,0.369-0.151
		c0.203-0.204,0.203-0.533,0-0.737L5.8,16.667h9.09L4.731,26.828c-0.203,0.203-0.203,0.532,0,0.736
		c0.103,0.102,0.236,0.152,0.369,0.152c0.133,0,0.267-0.051,0.369-0.152l10.156-10.159v9.087l-1.249-1.249
		c-0.203-0.202-0.533-0.202-0.736,0c-0.204,0.203-0.204,0.534,0,0.736l1.984,1.985v0.531l-0.858-0.854
		c-0.203-0.204-0.533-0.204-0.737,0c-0.204,0.201-0.204,0.533,0,0.736l1.595,1.591v1.803c0,0.287,0.233,0.521,0.521,0.521
		c0.288,0,0.521-0.233,0.521-0.521V29.97l1.593-1.594c0.204-0.203,0.204-0.534,0-0.736c-0.202-0.204-0.533-0.204-0.735,0
		l-0.857,0.855v-0.532l1.983-1.984c0.204-0.204,0.204-0.535,0-0.736c-0.202-0.204-0.533-0.204-0.735,0l-1.248,1.249v-9.087
		l10.159,10.159c0.103,0.102,0.235,0.152,0.369,0.152c0.133,0,0.267-0.051,0.368-0.152c0.204-0.204,0.204-0.533,0-0.736
		l-10.16-10.161h9.088l-1.247,1.247c-0.202,0.204-0.202,0.533,0,0.737c0.104,0.102,0.236,0.151,0.369,0.151
		c0.134,0,0.268-0.051,0.37-0.151l1.983-1.984h0.531l-0.858,0.856c-0.203,0.204-0.203,0.533,0,0.737
		c0.103,0.102,0.235,0.151,0.37,0.151c0.132,0,0.267-0.051,0.368-0.151l1.591-1.594h1.803c0.286,0,0.521-0.233,0.521-0.521
		S32.057,15.625,31.771,15.625z"/>
</g>
<g>
</g>
<g>
</g>
<g>
</g>
<g>
</g>
<g>
</g>
<g>
</g>
<g>
</g>
<g>
</g>
<g>
</g>
<g>
</g>
<g>
</g>
<g>
</g>
<g>
</g>
<g>
</g>
<g>
</g>
</svg>
