<?xml version="1.0" encoding="iso-8859-1"?>
<!-- Generator: Adobe Illustrator 16.0.0, SVG Export Plug-In . SVG Version: 6.00 Build 0)  -->
<!DOCTYPE svg PUBLIC "-//W3C//DTD SVG 1.1//EN" "http://www.w3.org/Graphics/SVG/1.1/DTD/svg11.dtd">
<svg version="1.1" id="Capa_1" xmlns="http://www.w3.org/2000/svg" xmlns:xlink="http://www.w3.org/1999/xlink" x="0px" y="0px"
	 width="38.441px" height="38.441px" viewBox="0 0 38.441 38.441" style="enable-background:new 0 0 38.441 38.441;"
	 xml:space="preserve">
<g>
	<path d="M32.165,25.833l-4.845-2.799l5.144-1.377c0.399-0.106,0.637-0.521,0.53-0.92s-0.521-0.64-0.918-0.529l-5.916,1.584
		c0.299-0.803,0.47-1.663,0.47-2.569c0-0.904-0.171-1.768-0.47-2.568l5.914,1.586c0.063,0.019,0.129,0.025,0.194,0.025
		c0.33,0,0.634-0.221,0.724-0.557c0.106-0.399-0.129-0.812-0.528-0.918l-5.142-1.379l4.842-2.797l1.479,0.854l2.227-1.285v-2.57
		l-2.227-1.285l-2.228,1.285v1.703l-4.846,2.799l1.379-5.145c0.106-0.4-0.131-0.812-0.53-0.919c-0.4-0.106-0.812,0.13-0.919,0.53
		l-1.584,5.908c-1.106-1.33-2.672-2.262-4.45-2.562l4.332-4.33c0.293-0.293,0.293-0.768,0-1.061s-0.769-0.293-1.062,0l-3.764,3.762
		v-5.59l1.475-0.853l0.002-2.571L19.222,0l-2.228,1.285l0.002,2.57l1.476,0.852v5.596l-3.767-3.768
		c-0.293-0.293-0.768-0.293-1.061,0s-0.293,0.769,0,1.062l4.331,4.331c-1.778,0.303-3.343,1.232-4.451,2.564l-1.583-5.908
		c-0.107-0.4-0.518-0.637-0.918-0.53c-0.4,0.106-0.638,0.519-0.531,0.919l1.377,5.141l-4.844-2.797V9.614L4.798,8.327L2.572,9.614
		v2.569l2.226,1.285l1.478-0.853l4.844,2.797l-5.143,1.377c-0.4,0.107-0.637,0.52-0.53,0.92c0.09,0.334,0.393,0.556,0.724,0.556
		c0.064,0,0.129-0.008,0.195-0.024l5.914-1.586c-0.298,0.803-0.469,1.664-0.469,2.568c0,0.906,0.171,1.768,0.469,2.572l-5.917-1.587
		c-0.399-0.106-0.812,0.13-0.919,0.529s0.13,0.812,0.53,0.92l5.144,1.377l-4.844,2.799l-1.476-0.854l-2.227,1.283l0.001,2.572
		l2.226,1.285l2.227-1.285v-1.705l4.842-2.795l-1.378,5.139c-0.107,0.4,0.13,0.812,0.53,0.92c0.065,0.019,0.13,0.025,0.195,0.025
		c0.331,0,0.634-0.221,0.724-0.557l1.584-5.912c1.107,1.332,2.672,2.264,4.45,2.566l-4.329,4.33c-0.293,0.293-0.293,0.768,0,1.061
		c0.146,0.146,0.338,0.221,0.53,0.221s0.384-0.074,0.53-0.221l3.766-3.768v5.598l-1.476,0.852l0.001,2.572l2.227,1.281l2.226-1.283
		v-2.57l-1.478-0.854v-5.592l3.765,3.764c0.293,0.293,0.769,0.293,1.062,0s0.293-0.77,0-1.062l-4.331-4.326
		c1.777-0.303,3.342-1.231,4.451-2.563l1.582,5.91c0.091,0.334,0.394,0.556,0.726,0.556c0.063,0,0.129-0.009,0.195-0.025
		c0.399-0.105,0.637-0.519,0.528-0.918l-1.377-5.144l4.846,2.8v1.702l2.228,1.287l2.227-1.287v-2.569l-2.227-1.285L32.165,25.833z
		 M19.97,25.079c-0.247,0.028-0.496,0.054-0.75,0.054s-0.503-0.021-0.75-0.054c-1.604-0.205-3.006-1.056-3.943-2.278
		c-0.303-0.396-0.561-0.83-0.757-1.295c-0.295-0.703-0.459-1.474-0.459-2.283s0.164-1.578,0.458-2.279
		c0.196-0.467,0.454-0.898,0.757-1.296c0.937-1.227,2.339-2.075,3.943-2.28c0.246-0.03,0.495-0.053,0.75-0.053
		s0.504,0.021,0.75,0.053c1.604,0.205,3.006,1.056,3.942,2.28c0.303,0.396,0.561,0.829,0.758,1.296
		c0.295,0.701,0.457,1.473,0.457,2.279c0,0.809-0.164,1.58-0.459,2.281c-0.195,0.467-0.453,0.897-0.758,1.295
		C22.976,24.025,21.574,24.874,19.97,25.079z"/>
</g>
<g>
</g>
<g>
</g>
<g>
</g>
<g>
</g>
<g>
</g>
<g>
</g>
<g>
</g>
<g>
</g>
<g>
</g>
<g>
</g>
<g>
</g>
<g>
</g>
<g>
</g>
<g>
</g>
<g>
</g>
</svg>
