<?xml version="1.0" encoding="iso-8859-1"?>
<!-- Generator: Adobe Illustrator 16.0.0, SVG Export Plug-In . SVG Version: 6.00 Build 0)  -->
<!DOCTYPE svg PUBLIC "-//W3C//DTD SVG 1.1//EN" "http://www.w3.org/Graphics/SVG/1.1/DTD/svg11.dtd">
<svg version="1.1" id="Capa_1" xmlns="http://www.w3.org/2000/svg" xmlns:xlink="http://www.w3.org/1999/xlink" x="0px" y="0px"
	 width="32.292px" height="32.292px" viewBox="0 0 32.292 32.292" style="enable-background:new 0 0 32.292 32.292;"
	 xml:space="preserve">
<g>
	<path d="M31.771,15.625h-3.439l1.248-1.25c0.203-0.203,0.203-0.533,0-0.736c-0.201-0.203-0.533-0.203-0.736,0l-1.983,1.987h-0.531
		l0.856-0.858c0.203-0.203,0.203-0.533,0-0.736c-0.204-0.203-0.533-0.203-0.736,0l-1.596,1.594h-2.017l-1.563-3.871l3.568-3.569
		c0.203-0.203,0.203-0.533,0-0.736c-0.204-0.203-0.533-0.203-0.736,0l-3.596,3.596l-3.843-1.63V7.438l1.591-1.594
		c0.204-0.203,0.204-0.533,0-0.736c-0.201-0.203-0.533-0.203-0.736,0l-0.854,0.857V5.433l1.981-1.985
		c0.204-0.203,0.204-0.534,0-0.737c-0.201-0.203-0.533-0.203-0.736,0l-1.245,1.247V0.521C16.667,0.234,16.433,0,16.146,0
		c-0.287,0-0.521,0.234-0.521,0.521v3.438l-1.25-1.249c-0.202-0.203-0.533-0.203-0.735,0c-0.204,0.203-0.204,0.533,0,0.737
		l1.984,1.985v0.531L14.77,5.104c-0.204-0.203-0.535-0.203-0.737,0c-0.203,0.203-0.203,0.534,0,0.737l1.592,1.594v2.018
		l-3.871,1.563L8.183,7.447c-0.202-0.203-0.533-0.203-0.736,0c-0.202,0.203-0.202,0.534,0,0.737l3.597,3.597l-1.63,3.844H7.438
		l-1.595-1.593c-0.203-0.202-0.533-0.203-0.736,0.001c-0.203,0.203-0.203,0.533,0,0.736l0.856,0.856h-0.53l-1.984-1.984
		c-0.203-0.203-0.535-0.203-0.736,0c-0.203,0.203-0.203,0.534,0,0.736l1.247,1.249H0.521C0.233,15.625,0,15.859,0,16.146
		s0.233,0.521,0.521,0.521H3.96l-1.249,1.251c-0.203,0.202-0.203,0.532,0,0.736c0.102,0.102,0.235,0.151,0.369,0.151
		s0.267-0.051,0.369-0.151l1.984-1.987h0.53l-0.856,0.857c-0.203,0.203-0.203,0.533,0,0.737c0.102,0.102,0.235,0.151,0.369,0.151
		s0.267-0.051,0.369-0.151l1.597-1.595h2.017l1.563,3.872l-3.57,3.568c-0.202,0.203-0.202,0.534,0,0.736
		c0.104,0.103,0.236,0.152,0.369,0.152s0.268-0.053,0.369-0.152l3.595-3.595l3.844,1.63v1.976l-1.591,1.595
		c-0.204,0.202-0.204,0.533,0,0.736c0.202,0.202,0.533,0.202,0.736,0l0.855-0.858v0.533l-1.982,1.983
		c-0.204,0.202-0.204,0.535,0,0.736c0.102,0.104,0.235,0.152,0.369,0.152s0.267-0.051,0.369-0.152l1.247-1.247v3.438
		c0,0.287,0.234,0.521,0.521,0.521c0.286,0,0.521-0.233,0.521-0.521v-3.438l1.249,1.249c0.203,0.203,0.533,0.203,0.737,0
		c0.202-0.203,0.202-0.534,0-0.736l-1.986-1.985v-0.531l0.858,0.858c0.103,0.102,0.237,0.151,0.369,0.151
		c0.135,0,0.267-0.052,0.369-0.151c0.201-0.203,0.201-0.534,0-0.736l-1.596-1.595v-2.018l3.872-1.564l3.57,3.569
		c0.102,0.104,0.235,0.152,0.368,0.152c0.134,0,0.267-0.051,0.368-0.152c0.204-0.201,0.204-0.534,0-0.736l-3.597-3.597l1.632-3.844
		h1.978l1.595,1.594c0.102,0.102,0.235,0.151,0.368,0.151c0.134,0,0.267-0.051,0.368-0.154c0.204-0.201,0.204-0.532,0-0.736
		l-0.866-0.854h0.531l1.983,1.984c0.104,0.103,0.236,0.151,0.369,0.151c0.132,0,0.267-0.051,0.369-0.151
		c0.202-0.203,0.202-0.533,0-0.737l-1.248-1.247h3.438c0.286,0,0.521-0.233,0.521-0.521S32.057,15.625,31.771,15.625z
		 M21.747,16.667l-1.292,3.05l-0.24,0.565l-0.475,0.192l-3.071,1.242l-0.571,0.23l-0.471-0.201l-3.05-1.292l-0.568-0.238
		l-0.191-0.475l-1.241-3.073l-0.232-0.57l0.2-0.471l1.294-3.05l0.239-0.567l0.475-0.192l3.071-1.24l0.571-0.23l0.471,0.2l3.05,1.294
		l0.567,0.241l0.191,0.474l1.241,3.071l0.231,0.57L21.747,16.667z"/>
</g>
<g>
</g>
<g>
</g>
<g>
</g>
<g>
</g>
<g>
</g>
<g>
</g>
<g>
</g>
<g>
</g>
<g>
</g>
<g>
</g>
<g>
</g>
<g>
</g>
<g>
</g>
<g>
</g>
<g>
</g>
</svg>
