<?xml version="1.0" encoding="iso-8859-1"?>
<!-- Generator: Adobe Illustrator 16.0.0, SVG Export Plug-In . SVG Version: 6.00 Build 0)  -->
<!DOCTYPE svg PUBLIC "-//W3C//DTD SVG 1.1//EN" "http://www.w3.org/Graphics/SVG/1.1/DTD/svg11.dtd">
<svg version="1.1" id="Capa_1" xmlns="http://www.w3.org/2000/svg" xmlns:xlink="http://www.w3.org/1999/xlink" x="0px" y="0px"
	 width="34.939px" height="34.939px" viewBox="0 0 34.939 34.939" style="enable-background:new 0 0 34.939 34.939;"
	 xml:space="preserve">
<g>
	<path d="M21.109,14.538c-0.211-0.261-0.447-0.496-0.707-0.707c-0.684-0.55-1.516-0.907-2.433-1.006
		c-0.167-0.019-0.329-0.052-0.5-0.052s-0.333,0.033-0.5,0.052c-0.917,0.099-1.749,0.456-2.433,1.006
		c-0.26,0.211-0.496,0.446-0.707,0.707c-0.551,0.683-0.907,1.515-1.006,2.433c-0.02,0.167-0.051,0.329-0.051,0.5
		s0.031,0.333,0.051,0.5c0.099,0.917,0.455,1.749,1.006,2.434c0.211,0.26,0.445,0.494,0.707,0.707
		c0.683,0.551,1.515,0.906,2.433,1.006c0.167,0.019,0.329,0.052,0.5,0.052s0.333-0.033,0.5-0.052c0.918-0.1,1.75-0.455,2.433-1.006
		c0.262-0.213,0.496-0.447,0.707-0.707c0.551-0.685,0.906-1.517,1.006-2.434c0.02-0.167,0.051-0.329,0.051-0.5
		s-0.031-0.333-0.051-0.5C22.016,16.054,21.657,15.221,21.109,14.538z M21.115,17.971c-0.088,0.645-0.338,1.23-0.713,1.727
		c-0.203,0.267-0.439,0.504-0.707,0.707c-0.494,0.375-1.082,0.625-1.727,0.713c-0.165,0.022-0.329,0.052-0.5,0.052
		s-0.335-0.028-0.5-0.052c-0.645-0.088-1.23-0.336-1.727-0.713c-0.267-0.203-0.504-0.44-0.707-0.707
		c-0.375-0.494-0.625-1.082-0.713-1.727c-0.021-0.165-0.051-0.329-0.051-0.5s0.028-0.335,0.051-0.5
		c0.088-0.644,0.338-1.23,0.715-1.726c0.203-0.268,0.439-0.504,0.707-0.707c0.494-0.376,1.08-0.625,1.725-0.713
		c0.165-0.023,0.329-0.052,0.5-0.052s0.335,0.028,0.5,0.052c0.645,0.088,1.23,0.337,1.725,0.713
		c0.268,0.203,0.504,0.439,0.707,0.707c0.377,0.494,0.627,1.082,0.715,1.726c0.021,0.165,0.051,0.329,0.051,0.5
		S21.137,17.806,21.115,17.971z M32.469,15.002c-1.189,0-2.187,0.846-2.418,1.969h-1.994l1.602-1.6c0.193-0.195,0.193-0.512,0-0.707
		c-0.195-0.195-0.514-0.195-0.707,0l-2.309,2.307h-2.262c-0.109-1.537-0.722-2.935-1.673-4.033l2.103-2.102l3.266-0.002
		c0.275,0,0.5-0.224,0.5-0.5c0-0.276-0.225-0.5-0.5-0.5l-2.266,0.001l2.619-2.618c0.194-0.195,0.194-0.512,0-0.707
		c-0.195-0.195-0.512-0.195-0.707,0l-2.617,2.617V6.864c0-0.276-0.225-0.5-0.5-0.5s-0.5,0.224-0.5,0.5v3.263l-2.104,2.104
		c-1.101-0.951-2.496-1.562-4.033-1.672V8.298l2.306-2.309c0.195-0.195,0.195-0.513,0-0.708c-0.195-0.194-0.512-0.195-0.707,0
		l-1.599,1.601V4.888c1.123-0.231,1.97-1.228,1.97-2.418c0-1.361-1.107-2.47-2.47-2.47s-2.47,1.109-2.47,2.47
		c0,1.19,0.848,2.188,1.97,2.418v1.994l-1.601-1.601c-0.195-0.195-0.512-0.195-0.707,0c-0.195,0.194-0.195,0.512,0,0.707
		l2.308,2.309v2.261c-1.536,0.11-2.935,0.721-4.032,1.672l-2.107-2.107l-0.041-3.264c-0.004-0.276-0.199-0.488-0.506-0.494
		c-0.275,0.003-0.496,0.229-0.494,0.506L9.818,9.11L7.216,6.509c-0.195-0.195-0.512-0.195-0.707,0c-0.195,0.195-0.195,0.512,0,0.707
		l2.633,2.633L6.857,9.876c-0.275,0.003-0.496,0.229-0.494,0.506c0.004,0.274,0.228,0.494,0.5,0.494c0.002,0,0.004,0,0.006,0
		l3.264-0.039l2.1,2.099c-0.953,1.1-1.562,2.497-1.674,4.033H8.298l-2.31-2.307c-0.195-0.194-0.513-0.195-0.707,0
		c-0.195,0.194-0.195,0.512,0,0.708l1.602,1.599H4.889c-0.23-1.124-1.229-1.971-2.419-1.971c-1.36,0-2.47,1.107-2.47,2.47
		c0,1.362,1.107,2.47,2.47,2.47c1.188,0,2.187-0.846,2.418-1.969h1.994L5.281,19.57c-0.195,0.193-0.195,0.512,0,0.707
		c0.098,0.098,0.226,0.146,0.354,0.146s0.256-0.05,0.354-0.146l2.309-2.309h2.263c0.11,1.536,0.722,2.936,1.673,4.032l-2.505,2.504
		l-3.31,0.002c-0.276,0-0.5,0.224-0.5,0.5s0.224,0.5,0.5,0.5l2.309-0.001l-2.215,2.215c-0.195,0.195-0.195,0.512,0,0.707
		c0.098,0.1,0.227,0.146,0.354,0.146c0.129,0,0.256-0.051,0.354-0.146l2.17-2.17v2.219c0,0.276,0.224,0.5,0.5,0.5
		c0.276,0,0.5-0.224,0.5-0.5v-3.219l2.55-2.551c1.1,0.953,2.496,1.562,4.033,1.674v2.259l-2.309,2.312
		c-0.194,0.194-0.194,0.513,0,0.709c0.099,0.097,0.227,0.146,0.354,0.146c0.127,0,0.257-0.049,0.354-0.146l1.601-1.604v1.995
		c-1.125,0.23-1.973,1.229-1.973,2.419c0,1.362,1.107,2.47,2.47,2.47c1.363,0,2.47-1.107,2.47-2.47c0-1.188-0.846-2.185-1.968-2.418
		v-1.993l1.599,1.6c0.195,0.194,0.514,0.194,0.707,0c0.195-0.194,0.195-0.513,0-0.707l-2.306-2.308v-2.263
		c1.537-0.11,2.935-0.721,4.033-1.674l2.707,2.707l0.041,3.332c0.004,0.273,0.227,0.494,0.5,0.494c0.002,0,0.004,0,0.006,0
		c0.274-0.002,0.496-0.229,0.494-0.506l-0.029-2.309l2.002,2.001c0.098,0.099,0.227,0.146,0.354,0.146
		c0.129,0,0.258-0.05,0.354-0.146c0.195-0.194,0.195-0.513,0-0.707l-1.965-1.966l2.217-0.026c0.277-0.003,0.498-0.229,0.494-0.506
		c-0.002-0.272-0.228-0.494-0.5-0.494c-0.002,0-0.004,0-0.006,0l-3.193,0.038l-2.766-2.765c0.95-1.099,1.562-2.496,1.672-4.032
		h2.258l2.311,2.309c0.1,0.096,0.227,0.146,0.354,0.146s0.258-0.05,0.354-0.146c0.195-0.195,0.195-0.514,0-0.709l-1.608-1.599h1.994
		c0.231,1.124,1.229,1.972,2.42,1.972c1.36,0,2.471-1.107,2.471-2.471C34.939,16.111,33.829,15.002,32.469,15.002z M3.844,17.971
		c-0.206,0.562-0.742,0.969-1.376,0.969c-0.811,0-1.471-0.658-1.471-1.47c0-0.811,0.66-1.47,1.471-1.47
		c0.635,0,1.171,0.406,1.377,0.971c0.057,0.156,0.094,0.323,0.094,0.499C3.939,17.646,3.902,17.813,3.844,17.971z M15.999,2.471
		c0-0.811,0.658-1.47,1.47-1.47s1.47,0.659,1.47,1.47c0,0.634-0.406,1.171-0.97,1.376c-0.157,0.058-0.323,0.093-0.5,0.093
		s-0.343-0.035-0.5-0.093C16.406,3.642,15.999,3.104,15.999,2.471z M18.937,32.471c0,0.812-0.658,1.471-1.47,1.471
		s-1.47-0.658-1.47-1.471c0-0.635,0.406-1.172,0.972-1.377c0.156-0.057,0.322-0.093,0.498-0.093c0.177,0,0.345,0.036,0.502,0.094
		C18.531,31.302,18.937,31.838,18.937,32.471z M23.381,17.971c-0.104,1.262-0.604,2.411-1.377,3.326
		c-0.218,0.255-0.453,0.492-0.707,0.707c-0.916,0.773-2.064,1.273-3.328,1.379c-0.165,0.014-0.331,0.025-0.5,0.025
		s-0.335-0.014-0.5-0.025c-1.263-0.105-2.412-0.605-3.327-1.379c-0.255-0.215-0.49-0.452-0.707-0.707
		c-0.771-0.915-1.271-2.062-1.378-3.326c-0.014-0.165-0.024-0.331-0.024-0.5s0.012-0.335,0.024-0.5
		c0.104-1.262,0.604-2.412,1.379-3.327c0.216-0.255,0.452-0.491,0.708-0.707c0.914-0.772,2.062-1.271,3.325-1.378
		c0.165-0.014,0.331-0.024,0.5-0.024s0.335,0.012,0.5,0.024c1.263,0.106,2.412,0.605,3.326,1.378
		c0.256,0.216,0.491,0.452,0.707,0.707c0.772,0.915,1.272,2.065,1.379,3.327c0.014,0.165,0.024,0.331,0.024,0.5
		S23.395,17.806,23.381,17.971z M32.469,18.943c-0.636,0-1.172-0.406-1.377-0.973c-0.058-0.156-0.095-0.323-0.095-0.499
		c0-0.177,0.037-0.344,0.095-0.501c0.207-0.562,0.742-0.969,1.377-0.969c0.811,0,1.471,0.659,1.471,1.47
		C33.939,18.283,33.279,18.943,32.469,18.943z"/>
</g>
<g>
</g>
<g>
</g>
<g>
</g>
<g>
</g>
<g>
</g>
<g>
</g>
<g>
</g>
<g>
</g>
<g>
</g>
<g>
</g>
<g>
</g>
<g>
</g>
<g>
</g>
<g>
</g>
<g>
</g>
</svg>
