<?xml version="1.0" encoding="iso-8859-1"?>
<!-- Generator: Adobe Illustrator 16.0.0, SVG Export Plug-In . SVG Version: 6.00 Build 0)  -->
<!DOCTYPE svg PUBLIC "-//W3C//DTD SVG 1.1//EN" "http://www.w3.org/Graphics/SVG/1.1/DTD/svg11.dtd">
<svg version="1.1" id="Capa_1" xmlns="http://www.w3.org/2000/svg" xmlns:xlink="http://www.w3.org/1999/xlink" x="0px" y="0px"
	 width="37.525px" height="37.524px" viewBox="0 0 37.525 37.524" style="enable-background:new 0 0 37.525 37.524;"
	 xml:space="preserve">
<g>
	<path d="M20.85,15.146h-0.578h-3.021h-0.576l-0.288,0.5l-1.51,2.615l-0.288,0.5l0.289,0.5l1.509,2.614l0.289,0.5h0.577l3.018,0.002
		h0.579l0.287-0.498l1.509-2.618l0.289-0.501l-0.288-0.499l-1.509-2.616L20.85,15.146z M21.783,18.76l-0.291,0.501l-0.933,1.616
		l-0.288,0.5h-0.577l-1.863-0.002h-0.576l-0.289-0.5l-0.933-1.614l-0.289-0.5l0.287-0.5l0.933-1.614l0.289-0.5h0.575h1.867h0.576
		l0.288,0.499l0.933,1.615L21.783,18.76z M37.457,18.509l-1.573-2.726c-0.089-0.155-0.254-0.25-0.435-0.25h-3.146
		c-0.181,0-0.345,0.095-0.435,0.25l-1.43,2.478h-3.93l1.794-3.106c0.14-0.239,0.058-0.545-0.183-0.683
		c-0.238-0.136-0.545-0.057-0.685,0.183l-1.993,3.453l-2.602-4.506h3.988c0.275,0,0.5-0.224,0.5-0.5c0-0.276-0.225-0.5-0.5-0.5
		h-3.938L25.031,8.9h2.859c0.18,0,0.346-0.095,0.434-0.25L29.9,5.921c0.09-0.155,0.09-0.345,0-0.5l-1.576-2.726
		c-0.088-0.155-0.254-0.25-0.434-0.25h-3.148c-0.179,0-0.344,0.095-0.433,0.25l-1.575,2.726c-0.09,0.155-0.09,0.345,0,0.5
		l1.432,2.48l-2.049,3.549l-1.793-3.104c-0.138-0.239-0.442-0.321-0.683-0.183c-0.239,0.138-0.321,0.444-0.183,0.683l1.905,3.302
		h-5.028l1.904-3.302c0.14-0.239,0.058-0.545-0.183-0.683c-0.239-0.137-0.546-0.056-0.683,0.183l-1.883,3.26l-2.142-3.708
		l1.433-2.475c0.09-0.155,0.09-0.346,0-0.501l-1.576-2.728c-0.09-0.154-0.254-0.25-0.434-0.25L9.624,2.443
		c-0.179,0-0.345,0.095-0.433,0.25L7.615,5.421c-0.09,0.155-0.09,0.345,0,0.5L9.191,8.65C9.281,8.805,9.445,8.9,9.625,8.9
		c0,0,0,0,0.001,0l2.858-0.003l2.139,3.705h-3.756c-0.276,0-0.5,0.224-0.5,0.5c0,0.276,0.224,0.5,0.5,0.5h3.809l-2.512,4.353
		l-1.907-3.299c-0.14-0.241-0.446-0.321-0.683-0.183c-0.239,0.138-0.321,0.444-0.184,0.683l1.802,3.105h-4.11L5.65,15.783
		c-0.089-0.155-0.254-0.25-0.433-0.25H2.071c-0.179,0-0.344,0.096-0.434,0.25l-1.57,2.728c-0.09,0.154-0.09,0.344,0,0.499
		l1.568,2.727c0.09,0.155,0.255,0.25,0.434,0.25l3.149,0.001c0.179,0,0.344-0.096,0.433-0.25l1.43-2.477h4.283l-1.968,3.407
		c-0.139,0.239-0.057,0.545,0.183,0.684c0.08,0.045,0.166,0.066,0.25,0.066c0.172,0,0.342-0.089,0.434-0.25l1.993-3.449l2.6,4.502
		h-3.983c-0.275,0-0.5,0.225-0.5,0.5s0.225,0.5,0.5,0.5h3.586l-1.967,3.403l-2.861,0.003c-0.18,0-0.344,0.094-0.434,0.25
		l-1.574,2.725c-0.09,0.154-0.09,0.347-0.002,0.5l1.572,2.728c0.09,0.155,0.256,0.25,0.434,0.25l3.152,0.002
		c0.18,0,0.344-0.096,0.435-0.25l1.571-2.729c0.09-0.154,0.09-0.344,0-0.5l-1.429-2.473l2.056-3.56l1.97,3.409
		c0.092,0.16,0.261,0.25,0.433,0.25c0.085,0,0.172-0.02,0.25-0.066c0.239-0.138,0.321-0.443,0.184-0.684l-2.08-3.604l5.373,0.002
		l-2.079,3.602c-0.14,0.238-0.058,0.546,0.183,0.684c0.079,0.045,0.165,0.066,0.25,0.066c0.172,0,0.342-0.09,0.434-0.25l1.879-3.254
		l1.967,3.402L22.742,31.6c-0.09,0.156-0.09,0.348,0,0.5l1.576,2.73c0.088,0.155,0.254,0.25,0.432,0.25h3.15
		c0.18,0,0.344-0.095,0.434-0.25l1.572-2.727c0.09-0.155,0.09-0.346,0-0.5l-1.574-2.73c-0.09-0.154-0.254-0.25-0.434-0.25
		c0,0,0,0-0.001,0l-2.858,0.004l-1.967-3.408l3.767,0.002c0.274,0,0.5-0.225,0.5-0.5s-0.226-0.5-0.5-0.5l-4.159-0.002l2.688-4.653
		l2.08,3.604c0.092,0.16,0.262,0.25,0.434,0.25c0.085,0,0.171-0.021,0.25-0.066c0.238-0.139,0.32-0.444,0.183-0.684l-1.976-3.409
		h4.104l1.428,2.474c0.09,0.155,0.254,0.25,0.434,0.25l3.15,0.002c0.18,0,0.345-0.095,0.435-0.25l1.573-2.729
		C37.547,18.853,37.547,18.663,37.457,18.509z M27.031,3.444h0.574l0.288,0.499l0.998,1.727l-1.287,2.229h-1.993h-0.576l-0.289-0.5
		l-0.998-1.73l1.285-2.226L27.031,3.444L27.031,3.444z M9.916,7.899L8.63,5.67l0.999-1.729l0.287-0.5h0.576h1.996l1.287,2.228
		l-1,1.727l-0.287,0.499H11.91L9.916,7.899z M6.216,18.761l-0.289,0.5l-0.998,1.728l-2.571-0.001L1.364,19.26l-0.288-0.499
		l0.287-0.5l0.996-1.729h2.568l0.999,1.729L6.216,18.761z M10.494,34.077h-0.58l-0.285-0.493L8.63,31.852l1.286-2.225h1.996h0.574
		l0.291,0.502l0.994,1.723l-1.283,2.229L10.494,34.077z M27.604,29.622l1.287,2.229l-0.997,1.729l-0.287,0.499h-0.576h-1.996
		l-1.287-2.229l1-1.725l0.289-0.5h0.576L27.604,29.622z M24.666,18.76l-0.287,0.501l-2.375,4.116l-0.288,0.5h-0.578l-4.75-0.002
		h-0.576l-0.289-0.5l-2.376-4.114l-0.288-0.5l0.288-0.5l2.374-4.114l0.289-0.5h0.576h4.753h0.577l0.288,0.499l2.376,4.115
		L24.666,18.76z M32.589,20.986l-0.994-1.725l-0.289-0.501l0.288-0.499l0.998-1.728h2.567l1,1.729l0.287,0.497l-0.289,0.502
		l-0.996,1.727L32.589,20.986z"/>
</g>
<g>
</g>
<g>
</g>
<g>
</g>
<g>
</g>
<g>
</g>
<g>
</g>
<g>
</g>
<g>
</g>
<g>
</g>
<g>
</g>
<g>
</g>
<g>
</g>
<g>
</g>
<g>
</g>
<g>
</g>
</svg>
