<?xml version="1.0" encoding="iso-8859-1"?>
<!-- Generator: Adobe Illustrator 16.0.0, SVG Export Plug-In . SVG Version: 6.00 Build 0)  -->
<!DOCTYPE svg PUBLIC "-//W3C//DTD SVG 1.1//EN" "http://www.w3.org/Graphics/SVG/1.1/DTD/svg11.dtd">
<svg version="1.1" id="Capa_1" xmlns="http://www.w3.org/2000/svg" xmlns:xlink="http://www.w3.org/1999/xlink" x="0px" y="0px"
	 width="37.281px" height="37.281px" viewBox="0 0 37.281 37.281" style="enable-background:new 0 0 37.281 37.281;"
	 xml:space="preserve">
<g>
	<path d="M10.876,10.043c0-0.287,0.233-0.521,0.521-0.521l1.98,0.001l0.99-1.717c0.145-0.249,0.459-0.334,0.712-0.19
		c0.249,0.144,0.334,0.462,0.192,0.711l-1.29,2.237l-2.582-0.001C11.109,10.564,10.876,10.329,10.876,10.043z M25.886,26.717
		l-2.581-0.002l-1.291,2.237c-0.145,0.249-0.06,0.567,0.191,0.712c0.082,0.047,0.172,0.069,0.26,0.069
		c0.182,0,0.356-0.094,0.454-0.26l0.987-1.716l1.979,0.002c0.288,0,0.521-0.233,0.521-0.521
		C26.407,26.952,26.174,26.717,25.886,26.717z M23.303,10.566h2.583c0.288,0,0.521-0.233,0.521-0.521
		c0-0.288-0.233-0.521-0.521-0.521h-1.98l-0.991-1.717c-0.145-0.251-0.462-0.334-0.713-0.19c-0.249,0.144-0.333,0.462-0.189,0.711
		L23.303,10.566z M13.977,26.717h-2.583c-0.287,0-0.521,0.233-0.521,0.521s0.233,0.521,0.521,0.521h1.982l0.992,1.716
		c0.097,0.166,0.272,0.26,0.451,0.26c0.088,0,0.179-0.022,0.26-0.069c0.249-0.146,0.334-0.461,0.191-0.713L13.977,26.717z
		 M7.312,21.069c0.083,0.047,0.172,0.069,0.26,0.069c0.18,0,0.355-0.094,0.452-0.261l1.289-2.235l-1.292-2.237
		c-0.144-0.251-0.462-0.335-0.711-0.191c-0.25,0.144-0.335,0.463-0.191,0.711l0.99,1.716l-0.989,1.716
		C6.979,20.607,7.064,20.924,7.312,21.069z M29.969,16.213c-0.247-0.143-0.568-0.058-0.712,0.19l-1.29,2.236l1.291,2.237
		c0.096,0.168,0.272,0.261,0.451,0.261c0.088,0,0.178-0.022,0.261-0.069c0.249-0.145,0.334-0.462,0.19-0.712l-0.99-1.717
		l0.988-1.715C30.303,16.677,30.218,16.358,29.969,16.213z M34.783,27.96c-0.096,0.166-0.271,0.26-0.451,0.26
		c-0.089,0-0.179-0.022-0.26-0.069l-1.021-0.589l-2.226,1.283c-0.081,0.045-0.171,0.069-0.261,0.069s-0.18-0.022-0.261-0.069
		l-2.483-1.435c-0.16-0.092-0.261-0.265-0.261-0.45l-0.001-2.569l-2.377-1.373l-4.283-0.466l-1.737,3.943v2.748l2.224,1.282
		c0.16,0.094,0.261,0.264,0.261,0.451l0.002,2.87c0,0.186-0.101,0.357-0.261,0.45l-2.226,1.28v1.183
		c0,0.286-0.233,0.521-0.521,0.521c-0.287,0-0.521-0.234-0.521-0.521v-1.183l-2.225-1.282c-0.16-0.093-0.26-0.265-0.26-0.45
		l0.001-2.87c0-0.186,0.1-0.358,0.26-0.449l2.224-1.284v-2.746l-1.737-3.943l-4.283,0.466L9.722,24.39l0.003,2.567
		c0,0.187-0.1,0.357-0.261,0.451l-2.487,1.437c-0.081,0.045-0.171,0.069-0.261,0.069s-0.181-0.022-0.26-0.069l-2.225-1.284
		l-1.024,0.59c-0.082,0.047-0.172,0.071-0.261,0.071c-0.179,0-0.355-0.093-0.451-0.26c-0.145-0.251-0.059-0.569,0.191-0.712
		l1.024-0.593l0.001-2.566c0-0.187,0.1-0.358,0.26-0.45l2.487-1.437c0.16-0.092,0.361-0.092,0.521,0l2.223,1.282l2.376-1.372
		l2.544-3.475l-2.544-3.476l-2.375-1.372l-2.226,1.284c-0.081,0.046-0.171,0.07-0.261,0.07s-0.181-0.023-0.26-0.07l-2.485-1.435
		c-0.161-0.093-0.26-0.265-0.26-0.452l0.002-2.566l-1.025-0.592C2.441,9.889,2.355,9.57,2.498,9.32
		c0.144-0.249,0.464-0.333,0.711-0.19l1.025,0.591l2.222-1.284c0.159-0.093,0.36-0.094,0.521,0l2.486,1.437
		c0.161,0.092,0.261,0.265,0.261,0.451l-0.001,2.566l2.376,1.373l4.283,0.466l1.737-3.943V8.041l-2.226-1.284
		c-0.16-0.092-0.26-0.264-0.26-0.452l0.002-2.87c0-0.185,0.1-0.357,0.26-0.451l2.224-1.283v-1.18C18.12,0.233,18.354,0,18.641,0
		c0.288,0,0.521,0.233,0.521,0.521v1.183l2.224,1.282c0.16,0.093,0.261,0.265,0.261,0.452l-0.003,2.87c0,0.186-0.1,0.357-0.26,0.451
		l-2.222,1.284v2.747l1.737,3.941l4.283-0.466l2.378-1.372l-0.003-2.566c0-0.187,0.1-0.359,0.26-0.452l2.487-1.436
		c0.16-0.093,0.36-0.093,0.521,0l2.225,1.284l1.024-0.591c0.247-0.144,0.567-0.06,0.711,0.19c0.146,0.249,0.06,0.568-0.19,0.711
		l-1.025,0.592v2.566c0,0.187-0.1,0.358-0.261,0.451l-2.486,1.436c-0.08,0.046-0.17,0.07-0.26,0.07c-0.091,0-0.182-0.023-0.261-0.07
		l-2.222-1.284l-2.377,1.373l-2.544,3.476l2.544,3.475l2.377,1.374l2.222-1.282c0.16-0.092,0.358-0.092,0.521,0l2.487,1.433
		c0.161,0.095,0.261,0.267,0.261,0.453l-0.002,2.565l1.024,0.592C34.843,27.392,34.929,27.711,34.783,27.96z M8.159,13.192
		l0.52-0.301v-0.603l0.001-1.664L6.715,9.489l-1.441,0.833l-0.52,0.301v0.602l-0.002,1.666l1.963,1.133L8.159,13.192z
		 M20.254,21.436l2.692,0.292l1.283,0.141l-0.763-1.042l-1.599-2.187l1.599-2.185l0.763-1.042l-1.283,0.14l-2.692,0.292
		l-1.093-2.478l-0.521-1.18l-0.521,1.181l-1.092,2.478l-2.693-0.292l-1.284-0.14l0.763,1.042l1.6,2.184l-1.6,2.186l-0.763,1.042
		l1.284-0.14l2.693-0.293l1.092,2.479l0.521,1.181l0.521-1.181L20.254,21.436z M28.602,12.288v0.602l0.521,0.301l1.44,0.833
		l1.965-1.134v-1.666v-0.602l-0.52-0.301l-1.443-0.833l-1.967,1.134L28.602,12.288z M16.675,6.007l1.445,0.831l0.521,0.3
		l0.521-0.301l1.44-0.832l0.002-2.269l-1.442-0.829l-0.522-0.301L18.12,2.905l-1.442,0.833L16.675,6.007z M8.68,24.994v-0.602
		l-0.521-0.301l-1.44-0.832l-1.966,1.134L4.752,26.06v0.602l0.521,0.3l1.444,0.834l1.966-1.134L8.68,24.994z M20.604,31.276
		l-1.442-0.832l-0.521-0.301l-0.521,0.301l-1.442,0.832l-0.001,2.268l1.444,0.831l0.522,0.302l0.52-0.3l1.444-0.831L20.604,31.276z
		 M32.527,26.056l0.001-1.664l-1.966-1.132l-1.439,0.83l-0.521,0.301v0.602l0.001,1.667l1.962,1.132l1.443-0.833l0.519-0.299
		L32.527,26.056z"/>
</g>
<g>
</g>
<g>
</g>
<g>
</g>
<g>
</g>
<g>
</g>
<g>
</g>
<g>
</g>
<g>
</g>
<g>
</g>
<g>
</g>
<g>
</g>
<g>
</g>
<g>
</g>
<g>
</g>
<g>
</g>
</svg>
