<?xml version="1.0" encoding="iso-8859-1"?>
<!-- Generator: Adobe Illustrator 16.0.0, SVG Export Plug-In . SVG Version: 6.00 Build 0)  -->
<!DOCTYPE svg PUBLIC "-//W3C//DTD SVG 1.1//EN" "http://www.w3.org/Graphics/SVG/1.1/DTD/svg11.dtd">
<svg version="1.1" id="Capa_1" xmlns="http://www.w3.org/2000/svg" xmlns:xlink="http://www.w3.org/1999/xlink" x="0px" y="0px"
	 width="31.002px" height="31.002px" viewBox="0 0 31.002 31.002" style="enable-background:new 0 0 31.002 31.002;"
	 xml:space="preserve">
<g>
	<path d="M26.318,10.535l4.312,1.155c0.268,0.072,0.425,0.347,0.354,0.613c-0.062,0.223-0.264,0.37-0.482,0.37
		c-0.043,0-0.086-0.006-0.13-0.017l-4.312-1.155c-0.267-0.072-0.425-0.346-0.354-0.613C25.777,10.623,26.051,10.47,26.318,10.535z
		 M16.463,12.968V8.14c0-0.133,0.053-0.26,0.146-0.354l5.227-5.225c0.161-0.162,0.408-0.193,0.604-0.08l0.869,0.502
		c0.196,0.113,0.292,0.345,0.233,0.562l-1.914,7.137c-0.035,0.129-0.118,0.237-0.233,0.303l-4.182,2.414
		c-0.077,0.045-0.164,0.067-0.25,0.067c-0.086,0-0.173-0.022-0.25-0.067C16.56,13.312,16.463,13.147,16.463,12.968z M17.464,12.103
		l3.252-1.877l1.762-6.566l-0.206-0.118L17.464,8.35V12.103z M30.372,18.344L26.06,19.5c-0.267,0.071-0.425,0.347-0.354,0.612
		c0.061,0.224,0.263,0.371,0.481,0.371c0.044,0,0.087-0.006,0.131-0.019l4.312-1.155c0.268-0.072,0.425-0.347,0.354-0.613
		C30.913,18.433,30.644,18.276,30.372,18.344z M5.792,8.614c0.061,0.224,0.263,0.371,0.483,0.371c0.042,0,0.086-0.006,0.129-0.018
		C6.671,8.895,6.83,8.621,6.757,8.356L5.604,4.044C5.533,3.778,5.259,3.624,4.993,3.69C4.724,3.761,4.566,4.036,4.639,4.301
		L5.792,8.614z M16.963,4.503c0.128,0,0.256-0.049,0.354-0.146l3.157-3.155c0.195-0.195,0.195-0.513,0-0.707
		c-0.194-0.195-0.512-0.195-0.707,0L16.61,3.65c-0.195,0.195-0.195,0.513,0,0.707C16.708,4.454,16.835,4.503,16.963,4.503z
		 M25.211,22.386c-0.072-0.267-0.349-0.42-0.612-0.354c-0.268,0.072-0.426,0.346-0.354,0.611l1.154,4.312
		c0.062,0.226,0.264,0.371,0.482,0.371c0.043,0,0.086-0.007,0.129-0.019c0.269-0.072,0.426-0.346,0.354-0.611L25.211,22.386z
		 M17.316,26.644c-0.194-0.193-0.513-0.193-0.707,0c-0.195,0.195-0.195,0.513,0,0.707l3.156,3.158
		c0.099,0.098,0.228,0.146,0.354,0.146s0.256-0.049,0.354-0.146c0.195-0.195,0.195-0.512,0-0.707L17.316,26.644z M24.6,8.969
		c0.043,0.011,0.086,0.017,0.129,0.017c0.223,0,0.424-0.146,0.483-0.371l1.154-4.312c0.069-0.267-0.088-0.54-0.354-0.612
		c-0.261-0.064-0.54,0.088-0.611,0.354l-1.153,4.312C24.174,8.623,24.332,8.897,24.6,8.969z M29.875,14.517
		c0.219,0.059,0.371,0.256,0.371,0.482v1.004c0,0.227-0.152,0.425-0.371,0.482l-7.141,1.912c-0.042,0.012-0.087,0.018-0.13,0.018
		c-0.087,0-0.173-0.021-0.25-0.066l-4.182-2.414c-0.154-0.09-0.25-0.254-0.25-0.434s0.096-0.344,0.25-0.434l4.184-2.414
		c0.115-0.065,0.253-0.082,0.38-0.051L29.875,14.517z M29.246,15.383l-6.567-1.76l-3.254,1.878l3.252,1.878l6.569-1.76V15.383
		L29.246,15.383z M14.393,7.786c0.095,0.094,0.146,0.221,0.146,0.354v4.828c0,0.18-0.096,0.344-0.25,0.434
		c-0.077,0.045-0.164,0.066-0.25,0.066s-0.173-0.021-0.25-0.066l-4.182-2.414c-0.115-0.065-0.198-0.176-0.233-0.303L7.459,3.547
		C7.4,3.328,7.497,3.097,7.692,2.985l0.869-0.502c0.195-0.115,0.442-0.084,0.604,0.078L14.393,7.786z M13.54,8.347L8.731,3.54
		L8.525,3.658l1.762,6.565L13.54,12.1V8.347z M23.541,27.455c0.058,0.219-0.037,0.448-0.232,0.562l-0.868,0.504
		c-0.078,0.045-0.165,0.067-0.252,0.067c-0.129,0-0.257-0.05-0.354-0.146l-5.227-5.229c-0.095-0.094-0.146-0.221-0.146-0.354v-4.827
		c0-0.179,0.096-0.345,0.25-0.433c0.154-0.092,0.346-0.092,0.5,0l4.182,2.414c0.115,0.063,0.198,0.174,0.233,0.303L23.541,27.455z
		 M22.476,27.345l-1.76-6.566l-3.252-1.877v3.754l4.808,4.809L22.476,27.345z M14.54,18.034v4.828c0,0.133-0.053,0.26-0.146,0.354
		L9.167,28.44c-0.097,0.099-0.225,0.146-0.354,0.146c-0.086,0-0.172-0.021-0.25-0.066l-0.867-0.502
		c-0.196-0.112-0.291-0.345-0.233-0.562l1.912-7.138c0.035-0.129,0.118-0.236,0.232-0.303l4.183-2.414
		c0.154-0.091,0.346-0.091,0.5,0C14.443,17.69,14.54,17.854,14.54,18.034z M13.54,18.899l-3.252,1.877l-1.76,6.565l0.204,0.118
		l4.808-4.809V18.899z M1.127,14.517l7.138-1.912c0.126-0.033,0.265-0.017,0.379,0.051l4.185,2.414
		c0.154,0.089,0.25,0.254,0.25,0.433c0,0.179-0.096,0.345-0.25,0.433l-4.182,2.415c-0.077,0.045-0.163,0.066-0.25,0.066
		c-0.044,0-0.088-0.006-0.13-0.018l-7.14-1.912c-0.219-0.059-0.371-0.257-0.371-0.482v-1.004C0.756,14.772,0.91,14.574,1.127,14.517
		z M1.756,15.619l6.569,1.76l3.253-1.878l-3.254-1.878l-6.567,1.76L1.756,15.619L1.756,15.619z M11.234,0.493
		c-0.195-0.195-0.513-0.195-0.707,0c-0.195,0.195-0.195,0.512,0,0.707l3.157,3.156c0.099,0.098,0.227,0.146,0.354,0.146
		s0.256-0.049,0.354-0.146c0.195-0.195,0.195-0.513,0-0.707L11.234,0.493z M13.686,26.644l-3.157,3.158
		c-0.195,0.195-0.195,0.512,0,0.707c0.098,0.098,0.226,0.146,0.354,0.146s0.256-0.049,0.354-0.146l3.157-3.158
		c0.195-0.194,0.195-0.512,0-0.707C14.2,26.449,13.88,26.448,13.686,26.644z M4.813,20.483c0.221,0,0.423-0.147,0.482-0.371
		c0.071-0.269-0.087-0.541-0.354-0.612l-4.312-1.156c-0.269-0.065-0.541,0.089-0.613,0.354c-0.07,0.268,0.087,0.541,0.354,0.613
		l4.312,1.154C4.728,20.478,4.771,20.483,4.813,20.483z M0.5,12.675c0.043,0,0.086-0.006,0.13-0.017l4.312-1.156
		c0.267-0.071,0.425-0.347,0.354-0.612c-0.072-0.267-0.342-0.42-0.613-0.354l-4.312,1.155c-0.268,0.072-0.425,0.347-0.354,0.613
		C0.079,12.526,0.28,12.675,0.5,12.675z M6.404,22.03c-0.263-0.063-0.54,0.089-0.612,0.354l-1.155,4.312
		c-0.07,0.268,0.087,0.541,0.354,0.613c0.043,0.01,0.086,0.017,0.129,0.017c0.221,0,0.423-0.147,0.482-0.371l1.155-4.312
		C6.831,22.377,6.671,22.104,6.404,22.03z"/>
</g>
<g>
</g>
<g>
</g>
<g>
</g>
<g>
</g>
<g>
</g>
<g>
</g>
<g>
</g>
<g>
</g>
<g>
</g>
<g>
</g>
<g>
</g>
<g>
</g>
<g>
</g>
<g>
</g>
<g>
</g>
</svg>
