<?xml version="1.0" encoding="iso-8859-1"?>
<!-- Generator: Adobe Illustrator 16.0.0, SVG Export Plug-In . SVG Version: 6.00 Build 0)  -->
<!DOCTYPE svg PUBLIC "-//W3C//DTD SVG 1.1//EN" "http://www.w3.org/Graphics/SVG/1.1/DTD/svg11.dtd">
<svg version="1.1" id="Capa_1" xmlns="http://www.w3.org/2000/svg" xmlns:xlink="http://www.w3.org/1999/xlink" x="0px" y="0px"
	 width="37.165px" height="37.165px" viewBox="0 0 37.165 37.165" style="enable-background:new 0 0 37.165 37.165;"
	 xml:space="preserve">
<g>
	<path d="M35.04,25.658c-0.188-0.668-0.628-1.223-1.233-1.561c-1.125-0.63-2.613-0.259-3.361,0.758l-4.413-2.549l5.729-1.533
		c0.267-0.07,0.425-0.347,0.354-0.611c-0.071-0.268-0.346-0.426-0.612-0.354L24.81,21.6l-0.111-0.063v-5.905l0.115-0.067
		l6.688,1.792c0.043,0.012,0.087,0.017,0.13,0.017c0.222,0,0.423-0.147,0.482-0.371c0.07-0.267-0.088-0.541-0.354-0.612
		l-5.724-1.534l4.417-2.55c0.484,0.67,1.251,1.092,2.092,1.092c0.439,0,0.876-0.114,1.264-0.329
		c1.251-0.698,1.702-2.284,1.004-3.536c-0.672-1.206-2.318-1.683-3.535-1.004c-1.037,0.579-1.513,1.768-1.251,2.87l-4.49,2.593
		l1.534-5.727c0.071-0.267-0.087-0.541-0.354-0.612c-0.265-0.071-0.54,0.086-0.611,0.354L24.313,14.7L24.2,14.766l-5.118-2.954
		V11.68l4.898-4.897c0.195-0.195,0.195-0.512,0-0.707c-0.194-0.195-0.512-0.195-0.707,0l-4.191,4.19V5.148
		c1.195-0.234,2.101-1.287,2.101-2.549c0-1.433-1.166-2.599-2.6-2.599c-1.433,0-2.599,1.166-2.599,2.599
		c0,1.262,0.904,2.314,2.098,2.548v5.118l-4.191-4.19c-0.195-0.195-0.512-0.195-0.707,0c-0.195,0.195-0.195,0.512,0,0.707
		l4.898,4.897v0.132l-5.114,2.953l-0.114-0.066l-1.793-6.693c-0.072-0.267-0.344-0.425-0.612-0.354
		c-0.267,0.071-0.425,0.346-0.354,0.612l1.535,5.727l-4.491-2.593c0.262-1.103-0.214-2.291-1.252-2.871
		C4.671,7.85,3.024,8.325,2.352,9.531c-0.697,1.251-0.247,2.837,1.005,3.536c0.386,0.215,0.822,0.329,1.262,0.329
		c0.841,0,1.607-0.421,2.092-1.092l4.417,2.55l-5.723,1.534C5.138,16.459,4.98,16.734,5.051,17c0.06,0.224,0.262,0.371,0.482,0.371
		c0.043,0,0.086-0.005,0.13-0.017l6.689-1.792l0.116,0.067v5.906l-0.112,0.062l-6.693-1.791c-0.267-0.07-0.541,0.086-0.612,0.354
		c-0.071,0.268,0.087,0.541,0.354,0.611l5.728,1.535l-4.421,2.551c-0.485-0.67-1.25-1.09-2.09-1.09c-0.44,0-0.877,0.112-1.264,0.328
		c-0.606,0.338-1.045,0.893-1.234,1.561s-0.108,1.369,0.23,1.977c0.458,0.822,1.329,1.332,2.272,1.332
		c0.44,0,0.876-0.111,1.263-0.328c0.606-0.338,1.044-0.893,1.234-1.561c0.124-0.436,0.12-0.883,0.018-1.311l4.489-2.593
		l-1.532,5.724c-0.071,0.268,0.087,0.541,0.354,0.61c0.043,0.013,0.087,0.019,0.13,0.019c0.221,0,0.423-0.146,0.482-0.371
		l1.791-6.689L12.97,22.4l5.114,2.953v0.129l-4.898,4.896c-0.195,0.195-0.195,0.514,0,0.707c0.195,0.195,0.512,0.195,0.707,0
		l4.191-4.189v5.119c-1.195,0.234-2.1,1.287-2.1,2.549c0,1.435,1.166,2.601,2.599,2.601c1.434,0,2.6-1.166,2.6-2.601
		c0-1.262-0.904-2.313-2.099-2.547v-5.121l4.191,4.191c0.099,0.1,0.227,0.146,0.354,0.146s0.257-0.049,0.354-0.146
		c0.195-0.193,0.195-0.512,0-0.707l-4.898-4.898v-0.129L24.2,22.4l0.114,0.064l1.791,6.689c0.061,0.223,0.263,0.371,0.481,0.371
		c0.043,0,0.086-0.006,0.131-0.019c0.267-0.069,0.425-0.344,0.354-0.61l-1.531-5.724l4.488,2.593
		c-0.103,0.428-0.105,0.875,0.019,1.311c0.189,0.668,0.629,1.223,1.235,1.561c0.386,0.215,0.822,0.328,1.263,0.328
		c0.942,0,1.812-0.512,2.271-1.334C35.147,27.025,35.228,26.326,35.04,25.658z M32.538,9.201c0.31,0,0.604,0.094,0.854,0.254
		c0.222,0.14,0.413,0.33,0.544,0.566c0.034,0.062,0.058,0.126,0.082,0.189c0.292,0.735,0.009,1.591-0.699,1.986
		c-0.237,0.132-0.506,0.203-0.775,0.203c-0.482,0-0.926-0.226-1.228-0.591c-0.062-0.074-0.125-0.145-0.172-0.23
		c-0.126-0.227-0.186-0.471-0.193-0.713c-0.021-0.583,0.27-1.159,0.812-1.462C31.999,9.27,32.268,9.201,32.538,9.201z M6.015,11.579
		c-0.047,0.084-0.104,0.161-0.166,0.234c-0.477,0.563-1.347,0.753-2.009,0.385c-0.708-0.396-0.992-1.252-0.7-1.987
		c0.025-0.063,0.047-0.127,0.082-0.189c0.132-0.236,0.323-0.426,0.545-0.566c0.252-0.16,0.545-0.254,0.854-0.254
		c0.27,0,0.538,0.07,0.775,0.202c0.544,0.304,0.835,0.879,0.812,1.462C6.2,11.107,6.141,11.352,6.015,11.579z M5.397,27.766
		c-0.238,0.131-0.506,0.201-0.776,0.201c-0.309,0-0.602-0.094-0.854-0.254c-0.221-0.141-0.412-0.33-0.544-0.566
		c-0.034-0.061-0.057-0.125-0.083-0.188c-0.131-0.326-0.157-0.683-0.059-1.026c0.117-0.41,0.386-0.75,0.759-0.959
		c0.238-0.134,0.506-0.203,0.777-0.203c0.483,0,0.925,0.227,1.226,0.59c0.061,0.074,0.125,0.146,0.172,0.229
		c0.124,0.224,0.185,0.468,0.195,0.713c0.006,0.169-0.006,0.337-0.053,0.503C6.04,27.215,5.77,27.557,5.397,27.766z M19.079,24.201
		l-0.5,0.289l-0.5-0.289l-4.114-2.377l-0.5-0.289v-0.578v-4.75v-0.578l0.5-0.289l4.114-2.376l0.5-0.289l0.5,0.289l4.114,2.376
		l0.5,0.289v0.578v4.75v0.578l-0.5,0.289L19.079,24.201z M18.1,1.082C18.252,1.034,18.412,1,18.58,1
		c0.167,0,0.326,0.033,0.478,0.081c0.647,0.205,1.122,0.804,1.122,1.518c0,0.707-0.463,1.3-1.101,1.511
		c-0.158,0.053-0.324,0.088-0.499,0.088c-0.176,0-0.342-0.036-0.501-0.088c-0.636-0.211-1.098-0.805-1.098-1.511
		C16.981,1.886,17.454,1.289,18.1,1.082z M19.058,36.084c-0.152,0.049-0.312,0.082-0.48,0.082c-0.167,0-0.326-0.033-0.478-0.08
		c-0.647-0.205-1.121-0.805-1.121-1.52c0-0.707,0.463-1.299,1.1-1.51c0.158-0.054,0.324-0.089,0.499-0.089
		c0.176,0,0.342,0.035,0.501,0.089c0.637,0.211,1.099,0.805,1.099,1.51C20.178,35.281,19.704,35.879,19.058,36.084z M31.762,27.766
		c-0.373-0.209-0.644-0.551-0.761-0.961c-0.047-0.166-0.061-0.334-0.053-0.502c0.01-0.248,0.07-0.49,0.194-0.715
		c0.047-0.084,0.11-0.154,0.172-0.229c0.301-0.363,0.743-0.59,1.227-0.59c0.271,0,0.539,0.069,0.776,0.203
		c0.373,0.207,0.643,0.547,0.76,0.957c0.099,0.344,0.071,0.7-0.06,1.026c-0.024,0.063-0.048,0.129-0.082,0.188
		c-0.132,0.236-0.33,0.422-0.558,0.56C32.897,27.996,32.27,28.047,31.762,27.766z"/>
</g>
<g>
</g>
<g>
</g>
<g>
</g>
<g>
</g>
<g>
</g>
<g>
</g>
<g>
</g>
<g>
</g>
<g>
</g>
<g>
</g>
<g>
</g>
<g>
</g>
<g>
</g>
<g>
</g>
<g>
</g>
</svg>
