<?xml version="1.0" encoding="iso-8859-1"?>
<!-- Generator: Adobe Illustrator 16.0.0, SVG Export Plug-In . SVG Version: 6.00 Build 0)  -->
<!DOCTYPE svg PUBLIC "-//W3C//DTD SVG 1.1//EN" "http://www.w3.org/Graphics/SVG/1.1/DTD/svg11.dtd">
<svg version="1.1" id="Capa_1" xmlns="http://www.w3.org/2000/svg" xmlns:xlink="http://www.w3.org/1999/xlink" x="0px" y="0px"
	 width="32.818px" height="32.819px" viewBox="0 0 32.818 32.819" style="enable-background:new 0 0 32.818 32.819;"
	 xml:space="preserve">
<g>
	<path d="M32.043,15.628h-2.271l1.424-1.425c0.305-0.305,0.305-0.8,0-1.106c-0.306-0.305-0.801-0.305-1.105,0l-2.53,2.532h-2.802
		l3.248-3.248c0.306-0.306,0.306-0.8,0-1.106c-0.305-0.305-0.8-0.305-1.105,0l-3.615,3.618c-0.236-1.067-0.715-2.046-1.378-2.873
		l6.53-6.527c0.305-0.305,0.305-0.8,0-1.105c-0.306-0.305-0.801-0.305-1.105,0l-6.529,6.527c-0.88-0.705-1.931-1.2-3.078-1.417
		l4.004-4.005c0.306-0.305,0.306-0.8,0-1.105c-0.305-0.305-0.801-0.305-1.105,0l-3.427,3.427v-2.29l2.53-2.53
		c0.306-0.305,0.306-0.8,0-1.105c-0.305-0.305-0.801-0.305-1.105,0l-1.425,1.424V0.781C17.197,0.35,16.847,0,16.416,0
		s-0.781,0.35-0.781,0.781v2.531l-1.425-1.424c-0.306-0.305-0.801-0.305-1.106,0c-0.306,0.305-0.306,0.8,0,1.105l2.531,2.53v2.291
		l-3.427-3.427c-0.305-0.305-0.801-0.305-1.106,0s-0.305,0.8,0,1.105l4.005,4.005c-1.15,0.217-2.199,0.713-3.079,1.417L5.498,4.388
		c-0.305-0.305-0.8-0.305-1.105,0s-0.305,0.8,0,1.105l6.529,6.527c-0.664,0.826-1.143,1.802-1.377,2.873l-3.618-3.618
		c-0.305-0.305-0.8-0.305-1.105,0c-0.305,0.307-0.305,0.801,0,1.106l3.247,3.248H5.79l-2.531-2.532c-0.305-0.305-0.8-0.305-1.105,0
		c-0.305,0.307-0.305,0.801,0,1.106l1.424,1.425H0.787c-0.432,0-0.781,0.35-0.781,0.781c0,0.431,0.35,0.781,0.781,0.781h2.792
		l-1.424,1.424c-0.305,0.306-0.305,0.8,0,1.104c0.152,0.153,0.352,0.23,0.551,0.23c0.199,0,0.401-0.075,0.552-0.23l2.53-2.528h2.281
		L4.82,20.44c-0.305,0.305-0.305,0.801,0,1.105c0.152,0.152,0.352,0.228,0.552,0.228c0.199,0,0.4-0.074,0.551-0.228l3.618-3.617
		c0.236,1.068,0.715,2.046,1.375,2.873l-6.527,6.526c-0.305,0.305-0.305,0.801,0,1.105c0.152,0.152,0.352,0.231,0.551,0.231
		c0.2,0,0.401-0.077,0.553-0.231l6.527-6.527c0.88,0.706,1.931,1.2,3.08,1.418l-4.001,4.002c-0.305,0.305-0.305,0.801,0,1.105
		c0.305,0.306,0.8,0.306,1.105,0l3.427-3.427v2.291l-2.531,2.529c-0.305,0.306-0.305,0.801,0,1.106c0.306,0.305,0.8,0.305,1.105,0
		l1.425-1.425v2.531c0,0.432,0.35,0.781,0.781,0.781c0.431,0,0.781-0.35,0.781-0.781v-2.531l1.426,1.425
		c0.152,0.151,0.352,0.229,0.551,0.229s0.401-0.076,0.552-0.229c0.305-0.306,0.305-0.801,0-1.106l-2.529-2.529v-2.291l3.428,3.427
		c0.151,0.151,0.352,0.229,0.552,0.229c0.199,0,0.4-0.075,0.552-0.229c0.305-0.305,0.305-0.801,0-1.105l-4.005-4.005
		c1.15-0.217,2.2-0.713,3.08-1.417l6.527,6.527c0.152,0.151,0.353,0.231,0.552,0.231c0.2,0,0.4-0.077,0.553-0.231
		c0.305-0.305,0.305-0.801,0-1.105l-6.528-6.526c0.662-0.827,1.142-1.805,1.376-2.873l3.617,3.617
		c0.152,0.152,0.352,0.228,0.551,0.228c0.201,0,0.401-0.074,0.553-0.228c0.305-0.305,0.305-0.801,0-1.105l-3.248-3.248h2.802
		l2.529,2.53c0.152,0.153,0.353,0.229,0.553,0.229c0.199,0,0.399-0.074,0.551-0.229c0.306-0.305,0.306-0.8,0-1.105l-1.424-1.425
		h2.271c0.432,0,0.781-0.351,0.781-0.781C32.813,15.977,32.474,15.628,32.043,15.628z M20.739,19.733
		c-0.289,0.374-0.625,0.71-0.999,0.997c-0.727,0.562-1.592,0.938-2.541,1.076c-0.258,0.036-0.513,0.078-0.782,0.078
		c-0.268,0-0.524-0.042-0.781-0.078c-0.95-0.139-1.814-0.515-2.541-1.076c-0.375-0.287-0.71-0.623-0.999-0.997
		c-0.562-0.727-0.938-1.591-1.076-2.542c-0.032-0.22-0.063-0.44-0.066-0.671c-0.001-0.038-0.012-0.072-0.012-0.11
		c0-0.039,0.01-0.072,0.012-0.111c0.005-0.229,0.035-0.45,0.066-0.67c0.138-0.951,0.514-1.817,1.076-2.543
		c0.289-0.375,0.624-0.71,0.999-0.999c0.727-0.559,1.591-0.935,2.541-1.074c0.257-0.036,0.514-0.078,0.781-0.078
		c0.269,0,0.524,0.042,0.782,0.078c0.949,0.139,1.814,0.515,2.541,1.074c0.374,0.289,0.71,0.625,0.999,0.999
		c0.562,0.726,0.938,1.592,1.076,2.543c0.03,0.22,0.062,0.44,0.065,0.67c0.001,0.039,0.012,0.072,0.012,0.111
		c0,0.038-0.011,0.072-0.012,0.11c-0.005,0.23-0.035,0.451-0.065,0.671C21.679,18.142,21.301,19.006,20.739,19.733z"/>
</g>
<g>
</g>
<g>
</g>
<g>
</g>
<g>
</g>
<g>
</g>
<g>
</g>
<g>
</g>
<g>
</g>
<g>
</g>
<g>
</g>
<g>
</g>
<g>
</g>
<g>
</g>
<g>
</g>
<g>
</g>
</svg>
