<?xml version="1.0" encoding="iso-8859-1"?>
<!-- Generator: Adobe Illustrator 16.0.0, SVG Export Plug-In . SVG Version: 6.00 Build 0)  -->
<!DOCTYPE svg PUBLIC "-//W3C//DTD SVG 1.1//EN" "http://www.w3.org/Graphics/SVG/1.1/DTD/svg11.dtd">
<svg version="1.1" id="Capa_1" xmlns="http://www.w3.org/2000/svg" xmlns:xlink="http://www.w3.org/1999/xlink" x="0px" y="0px"
	 width="37.242px" height="37.242px" viewBox="0 0 37.242 37.242" style="enable-background:new 0 0 37.242 37.242;"
	 xml:space="preserve">
<g>
	<path d="M29.958,25.466c0.04,0.021,0.085,0.034,0.13,0.034c0.09,0,0.177-0.047,0.226-0.131c0.071-0.124,0.028-0.282-0.096-0.355
		l-3.548-2.051l7.644-2.048c0.142-0.036,0.222-0.18,0.187-0.318c-0.037-0.141-0.181-0.222-0.32-0.187l-8.148,2.185l-3.552-2.051
		v-3.851l3.555-2.053l8.146,2.183c0.021,0.008,0.044,0.011,0.066,0.011c0.113,0,0.221-0.076,0.252-0.194
		c0.036-0.14-0.045-0.282-0.186-0.32l-7.644-2.049l3.547-2.049c0.124-0.072,0.167-0.233,0.097-0.356
		c-0.075-0.126-0.234-0.167-0.356-0.097l-3.548,2.05l2.047-7.646c0.039-0.138-0.045-0.282-0.183-0.318
		C28.134,5.821,27.99,5.9,27.953,6.039l-2.187,8.148l-3.55,2.051l-3.337-1.925V10.21l5.963-5.965c0.103-0.102,0.103-0.267,0-0.369
		c-0.102-0.103-0.267-0.103-0.368,0l-5.593,5.599v-4.1c0-0.144-0.117-0.26-0.26-0.26c-0.144,0-0.261,0.116-0.261,0.26v4.1
		l-5.596-5.595c-0.103-0.104-0.267-0.104-0.369,0c-0.104,0.102-0.104,0.266,0,0.369l5.964,5.965v4.104l-3.336,1.924l-3.552-2.051
		L9.288,6.042c-0.037-0.14-0.184-0.22-0.32-0.184c-0.139,0.037-0.222,0.18-0.183,0.319l2.046,7.646l-3.546-2.05
		c-0.123-0.07-0.282-0.029-0.357,0.097c-0.07,0.123-0.027,0.282,0.097,0.356l3.546,2.049l-7.644,2.049
		c-0.14,0.035-0.222,0.178-0.185,0.318c0.03,0.115,0.138,0.194,0.251,0.194c0.022,0,0.045-0.003,0.067-0.011l8.146-2.183
		l3.554,2.053v3.852l-3.552,2.051l-8.147-2.183c-0.136-0.035-0.282,0.044-0.32,0.185c-0.036,0.139,0.044,0.282,0.186,0.318
		l7.644,2.048l-3.548,2.051c-0.124,0.071-0.167,0.232-0.096,0.356c0.049,0.083,0.136,0.13,0.226,0.13
		c0.045,0,0.089-0.013,0.13-0.033l3.547-2.05l-2.046,7.644c-0.039,0.14,0.044,0.282,0.183,0.32c0.022,0.006,0.044,0.009,0.066,0.009
		c0.115,0,0.221-0.075,0.251-0.194l2.184-8.146l3.554-2.053l3.333,1.926v4.102l-5.965,5.967c-0.103,0.103-0.103,0.267,0,0.369
		c0.103,0.103,0.267,0.103,0.369,0l5.596-5.597v4.102c0,0.144,0.116,0.26,0.26,0.26c0.144,0,0.261-0.116,0.261-0.26v-4.102
		l5.596,5.599c0.051,0.051,0.115,0.075,0.185,0.075c0.067,0,0.133-0.024,0.184-0.075c0.102-0.104,0.102-0.267,0-0.369l-5.963-5.967
		v-4.105l3.332-1.926l3.555,2.052l2.185,8.147c0.029,0.117,0.137,0.194,0.251,0.194c0.022,0,0.046-0.003,0.065-0.009
		c0.14-0.037,0.224-0.181,0.185-0.32l-2.047-7.645L29.958,25.466z M21.436,19.944l-2.294-1.323l2.294-1.324V19.944z M21.175,16.845
		l-2.294,1.324V15.52L21.175,16.845z M18.36,15.52v2.649l-2.294-1.324L18.36,15.52z M15.806,17.297l2.294,1.324l-2.294,1.323V17.297
		z M16.067,20.396l2.293-1.325v2.647L16.067,20.396z M18.881,21.722v-2.648l2.293,1.323L18.881,21.722z M13.722,14.589l3.857-2.225
		V10.54l-6.018-6.02L9.939,5.455l2.201,8.223L13.722,14.589z M11.391,5.822l5.147,5.149v0.792l-2.816,1.626l-0.683-0.395
		L11.152,5.96L11.391,5.822z M2.087,15.202c-0.074-0.279,0.091-0.563,0.369-0.637l2.062-0.552l-2.025-1.171V9.309l3.061-1.763
		l2.022,1.167L7.024,6.652C6.95,6.374,7.115,6.089,7.393,6.014C7.667,5.948,7.957,6.106,8.03,6.383l1.561,5.826L7.57,11.04V9.915
		L5.552,8.749L3.535,9.915v2.327l2.018,1.166l0.976-0.563l2.021,1.167l-5.823,1.561c-0.046,0.011-0.091,0.018-0.136,0.018
		C2.362,15.587,2.15,15.432,2.087,15.202z M19.663,12.365l3.857,2.225l1.581-0.912l2.201-8.223L25.679,4.52l-6.017,6.02V12.365z
		 M20.705,10.971l5.146-5.149l0.239,0.139l-1.887,7.033l-0.683,0.395l-2.815-1.626V10.971z M27.651,12.207l1.561-5.826
		c0.074-0.279,0.363-0.436,0.637-0.369c0.28,0.074,0.444,0.361,0.369,0.636L29.667,8.71l2.022-1.166l3.06,1.764v3.531l-2.024,1.171
		l2.061,0.551c0.28,0.075,0.444,0.361,0.369,0.638c-0.064,0.232-0.274,0.385-0.503,0.385c-0.045,0-0.09-0.006-0.136-0.018
		l-5.822-1.561l2.021-1.167l0.977,0.564l2.017-1.166V9.911L31.69,8.745l-2.019,1.166v1.125L27.651,12.207z M13.318,3.329
		c-0.203-0.203-0.203-0.533,0-0.736c0.203-0.203,0.533-0.203,0.736,0L15.562,4.1V1.764L18.621,0l3.059,1.764V4.1l1.507-1.508
		c0.204-0.203,0.533-0.203,0.736,0c0.204,0.204,0.204,0.534,0,0.736l-4.261,4.263V5.258l0.977-0.563V2.367l-2.018-1.164
		l-2.019,1.164v2.327l0.977,0.564v2.334L13.318,3.329z M35.154,22.04c0.074,0.279-0.09,0.563-0.369,0.637l-2.061,0.553l2.024,1.168
		l-0.002,3.532l-3.06,1.767l-2.024-1.169l0.553,2.062c0.074,0.279-0.091,0.563-0.369,0.637c-0.047,0.013-0.092,0.02-0.136,0.02
		c-0.23,0-0.439-0.151-0.502-0.386l-1.561-5.823l2.021,1.169v1.123l2.018,1.165l2.018-1.165L33.707,25l-2.018-1.164L30.712,24.4
		l-2.019-1.168l5.821-1.559C34.794,21.6,35.079,21.765,35.154,22.04z M23.518,22.65l-3.855,2.228v1.824l6.017,6.021l1.623-0.936
		l-2.203-8.224L23.518,22.65z M25.85,31.419l-5.146-5.149v-0.792l2.813-1.628l0.685,0.396l1.887,7.036L25.85,31.419z M9.593,25.036
		l-1.561,5.823c-0.064,0.234-0.274,0.386-0.503,0.386c-0.045,0-0.089-0.007-0.134-0.02c-0.279-0.075-0.444-0.359-0.369-0.639
		l0.552-2.061l-2.024,1.17l-3.058-1.765l-0.002-3.533l2.024-1.168l-2.062-0.552c-0.278-0.075-0.441-0.361-0.369-0.639
		c0.075-0.276,0.361-0.436,0.639-0.369l5.822,1.561l-2.019,1.168l-0.976-0.563L3.534,25l0.002,2.326l2.018,1.167l2.018-1.165v-1.125
		L9.593,25.036z M24.561,16.393v4.455l1.579,0.909l8.222-2.201v-1.872l-8.22-2.201L24.561,16.393z M33.319,18.483v0.275
		l-7.033,1.886l-0.684-0.396v-3.252l0.684-0.395L33.319,18.483z M12.681,20.849v-4.456l-1.583-0.909l-8.219,2.201v1.872l8.222,2.202
		L12.681,20.849z M3.922,18.758v-0.275l7.034-1.885l0.684,0.397v3.251l-0.684,0.395L3.922,18.758z M17.579,24.877l-3.855-2.228
		l-1.581,0.913l-2.203,8.224l1.622,0.936l6.018-6.021V24.877z M16.538,26.27l-5.147,5.149l-0.238-0.139l1.886-7.034l0.685-0.396
		l2.814,1.628V26.27z M23.925,33.913c0.203,0.203,0.203,0.533,0,0.737c-0.204,0.202-0.533,0.202-0.737,0l-1.507-1.51v2.337
		l-3.06,1.765l-3.061-1.765V33.14l-1.507,1.51c-0.203,0.202-0.533,0.202-0.736,0c-0.204-0.204-0.204-0.534,0-0.737l4.262-4.266
		v2.336l-0.977,0.563v2.327l2.019,1.166l2.017-1.164v-2.328l-0.976-0.564v-2.336L23.925,33.913z"/>
</g>
<g>
</g>
<g>
</g>
<g>
</g>
<g>
</g>
<g>
</g>
<g>
</g>
<g>
</g>
<g>
</g>
<g>
</g>
<g>
</g>
<g>
</g>
<g>
</g>
<g>
</g>
<g>
</g>
<g>
</g>
</svg>
