<?xml version="1.0" encoding="iso-8859-1"?>
<!-- Generator: Adobe Illustrator 16.0.0, SVG Export Plug-In . SVG Version: 6.00 Build 0)  -->
<!DOCTYPE svg PUBLIC "-//W3C//DTD SVG 1.1//EN" "http://www.w3.org/Graphics/SVG/1.1/DTD/svg11.dtd">
<svg version="1.1" id="Capa_1" xmlns="http://www.w3.org/2000/svg" xmlns:xlink="http://www.w3.org/1999/xlink" x="0px" y="0px"
	 width="36.073px" height="36.073px" viewBox="0 0 36.073 36.073" style="enable-background:new 0 0 36.073 36.073;"
	 xml:space="preserve">
<g>
	<path d="M33.336,26.569c0.126,0.07,0.169,0.231,0.096,0.355c-0.049,0.084-0.137,0.131-0.226,0.131
		c-0.043,0-0.088-0.013-0.131-0.035l-7.251-4.187l2.049,7.644c0.037,0.138-0.045,0.282-0.185,0.319
		c-0.022,0.006-0.045,0.008-0.067,0.008c-0.115,0-0.22-0.074-0.252-0.193l-2.184-8.146l-6.889-3.977v7.952l5.966,5.969
		c0.102,0.102,0.102,0.267,0,0.368c-0.052,0.053-0.117,0.077-0.186,0.077c-0.067,0-0.134-0.024-0.185-0.077l-5.596-5.597v8.374
		c0,0.145-0.116,0.26-0.26,0.26c-0.144,0-0.261-0.115-0.261-0.26v-8.374l-5.596,5.597c-0.103,0.104-0.267,0.104-0.369,0
		c-0.103-0.102-0.103-0.267,0-0.368l5.964-5.969v-7.952l-6.888,3.977l-2.184,8.146c-0.031,0.116-0.136,0.193-0.252,0.193
		c-0.021,0-0.044-0.002-0.067-0.008c-0.138-0.037-0.221-0.182-0.184-0.319l2.049-7.644L2.998,27.02
		c-0.042,0.022-0.086,0.035-0.13,0.035c-0.089,0-0.177-0.047-0.225-0.131c-0.072-0.124-0.03-0.281,0.094-0.355l7.253-4.189
		l-7.646-2.047c-0.14-0.036-0.222-0.181-0.185-0.319c0.039-0.141,0.184-0.22,0.319-0.185l8.149,2.183l6.887-3.976l-6.887-3.977
		l-8.149,2.183c-0.022,0.008-0.045,0.011-0.066,0.011c-0.115,0-0.22-0.076-0.252-0.194c-0.037-0.14,0.045-0.282,0.185-0.32
		l7.645-2.049L2.737,9.503C2.612,9.431,2.57,9.27,2.643,9.146C2.714,9.023,2.875,8.98,2.998,9.05l7.251,4.188L8.2,5.595
		c-0.038-0.14,0.044-0.282,0.184-0.32c0.141-0.037,0.282,0.045,0.32,0.184l2.184,8.146l6.889,3.976V9.63l-5.964-5.967
		c-0.102-0.104-0.102-0.268,0-0.369c0.102-0.102,0.266-0.103,0.369,0l5.596,5.597V0.52c0-0.145,0.117-0.26,0.261-0.26
		c0.144,0,0.26,0.115,0.26,0.26v8.372l5.596-5.597c0.103-0.103,0.267-0.103,0.369,0c0.103,0.102,0.103,0.266,0,0.369L18.297,9.63
		v7.953l6.89-3.976l2.184-8.146c0.038-0.139,0.179-0.22,0.32-0.184c0.138,0.037,0.222,0.18,0.185,0.32l-2.049,7.644l7.251-4.188
		c0.124-0.07,0.282-0.029,0.354,0.096c0.073,0.124,0.03,0.284-0.094,0.357l-7.253,4.188l7.646,2.049
		c0.14,0.037,0.222,0.18,0.185,0.32c-0.032,0.116-0.138,0.194-0.253,0.194c-0.021,0-0.044-0.003-0.064-0.01l-8.149-2.183
		l-6.892,3.974l6.887,3.976l8.149-2.181c0.137-0.037,0.282,0.044,0.319,0.183c0.037,0.141-0.045,0.283-0.185,0.319l-7.646,2.049
		L33.336,26.569z M19.4,6.231c0.064,0.025,0.133,0.04,0.198,0.04c0.136,0,0.269-0.053,0.369-0.152l3.372-3.373
		c0.204-0.202,0.204-0.533,0-0.736c-0.202-0.202-0.532-0.202-0.736,0L20.12,4.494v-3.97c0-0.288-0.234-0.521-0.521-0.521
		c-0.285,0-0.521,0.232-0.521,0.521v5.229C19.078,5.96,19.205,6.151,19.4,6.231z M19.23,9.803l5.581-5.585
		c0.167-0.166,0.424-0.201,0.63-0.081l0.93,0.537c0.204,0.118,0.304,0.358,0.242,0.585l-2.043,7.627
		c-0.036,0.132-0.124,0.246-0.243,0.315l-4.469,2.581c-0.08,0.046-0.171,0.068-0.261,0.068c-0.089,0-0.18-0.022-0.26-0.068
		c-0.159-0.094-0.26-0.266-0.26-0.454v-5.158C19.078,10.032,19.133,9.9,19.23,9.803z M20.12,14.428l3.501-2.019l1.884-7.033
		l-0.238-0.139l-5.146,5.149V14.428z M27.579,10.953c0.093,0.07,0.204,0.108,0.316,0.108c0.09,0,0.18-0.023,0.261-0.071l4.529-2.614
		c0.248-0.145,0.334-0.461,0.191-0.712c-0.145-0.25-0.464-0.336-0.712-0.192l-3.439,1.985l0.908-3.393
		c0.074-0.278-0.09-0.562-0.368-0.637c-0.276-0.067-0.562,0.092-0.637,0.369l-1.234,4.608
		C27.338,10.609,27.411,10.825,27.579,10.953z M28.939,13.315c0.027,0.209,0.18,0.381,0.381,0.436l4.61,1.237
		c0.045,0.011,0.092,0.017,0.137,0.017c0.229,0,0.441-0.153,0.501-0.387c0.073-0.278-0.09-0.562-0.368-0.637l-3.397-0.909
		l3.442-1.986c0.248-0.144,0.334-0.462,0.191-0.712c-0.145-0.25-0.465-0.337-0.712-0.191l-4.532,2.617
		C29.013,12.901,28.913,13.107,28.939,13.315z M33.391,16.996c0.229,0.062,0.386,0.268,0.386,0.503v1.074
		c0,0.236-0.157,0.441-0.386,0.503l-7.627,2.042c-0.044,0.013-0.09,0.019-0.135,0.019c-0.09,0-0.18-0.022-0.26-0.069l-4.468-2.582
		c-0.161-0.091-0.261-0.264-0.261-0.451c0-0.187,0.1-0.358,0.261-0.451l4.468-2.581c0.118-0.07,0.262-0.086,0.395-0.053
		L33.391,16.996z M32.735,17.899l-7.033-1.886l-3.499,2.022l3.499,2.021l7.033-1.886V17.899z M34.569,21.456
		c-0.074-0.278-0.36-0.439-0.638-0.368l-4.609,1.235c-0.203,0.055-0.354,0.228-0.382,0.436c-0.026,0.207,0.073,0.412,0.256,0.519
		l4.533,2.616c0.081,0.049,0.171,0.069,0.261,0.069c0.179,0,0.354-0.094,0.451-0.261c0.145-0.248,0.061-0.567-0.191-0.712
		l-3.441-1.985l3.397-0.91C34.479,22.019,34.644,21.735,34.569,21.456z M32.684,27.696l-4.532-2.616
		c-0.184-0.106-0.412-0.092-0.577,0.036c-0.168,0.128-0.241,0.344-0.188,0.55l1.236,4.607c0.063,0.234,0.272,0.387,0.501,0.387
		c0.045,0,0.09-0.007,0.137-0.02c0.277-0.075,0.442-0.36,0.368-0.639l-0.909-3.394l3.443,1.988c0.246,0.145,0.567,0.057,0.711-0.192
		C33.019,28.16,32.933,27.84,32.684,27.696z M26.614,30.816c0.062,0.228-0.038,0.467-0.241,0.585l-0.929,0.539
		c-0.082,0.047-0.173,0.068-0.261,0.068c-0.135,0-0.269-0.054-0.369-0.152l-5.583-5.585c-0.098-0.098-0.152-0.229-0.152-0.368
		v-5.159c0-0.188,0.1-0.358,0.261-0.452c0.159-0.093,0.361-0.093,0.521,0l4.468,2.582c0.119,0.067,0.207,0.182,0.243,0.315
		L26.614,30.816z M25.504,30.697l-1.886-7.033l-3.499-2.019v4.04l5.146,5.149L25.504,30.697z M19.967,29.952
		c-0.149-0.15-0.371-0.193-0.567-0.111c-0.195,0.081-0.322,0.271-0.322,0.481v5.23c0,0.287,0.235,0.521,0.521,0.521
		c0.287,0,0.521-0.233,0.521-0.521v-3.971l2.483,2.486c0.204,0.201,0.534,0.201,0.736,0c0.204-0.204,0.204-0.535,0-0.736
		L19.967,29.952z M16.673,29.84c-0.195-0.08-0.418-0.037-0.568,0.111l-3.373,3.375c-0.204,0.202-0.204,0.533,0,0.734
		c0.203,0.204,0.533,0.204,0.736,0l2.484-2.483v3.971c0,0.287,0.233,0.521,0.521,0.521c0.287,0,0.521-0.234,0.521-0.521v-5.23
		C16.995,30.111,16.868,29.919,16.673,29.84z M16.843,26.269l-5.583,5.585c-0.1,0.1-0.233,0.152-0.369,0.152
		c-0.089,0-0.179-0.022-0.26-0.071l-0.93-0.537c-0.205-0.117-0.304-0.357-0.243-0.585l2.044-7.627
		c0.036-0.132,0.123-0.245,0.243-0.315l4.468-2.581c0.16-0.093,0.361-0.093,0.521,0c0.161,0.094,0.26,0.265,0.26,0.453v5.158
		C16.995,26.041,16.939,26.172,16.843,26.269z M15.953,21.645l-3.5,2.019l-1.885,7.033l0.238,0.138l5.147-5.149V21.645z
		 M8.496,25.118c-0.167-0.128-0.395-0.143-0.577-0.035l-4.532,2.616c-0.249,0.144-0.334,0.461-0.19,0.711
		c0.144,0.247,0.461,0.336,0.711,0.191l3.442-1.985l-0.909,3.393c-0.074,0.28,0.09,0.564,0.369,0.64
		c0.044,0.012,0.09,0.018,0.135,0.018c0.23,0,0.44-0.153,0.502-0.386l1.235-4.608C8.736,25.461,8.664,25.246,8.496,25.118z
		 M7.133,22.758c-0.027-0.21-0.178-0.381-0.381-0.436l-4.61-1.237c-0.276-0.067-0.563,0.092-0.638,0.368
		c-0.074,0.276,0.091,0.562,0.369,0.638L5.269,23l-3.442,1.987c-0.249,0.144-0.334,0.462-0.191,0.711
		c0.097,0.167,0.272,0.261,0.452,0.261c0.088,0,0.178-0.021,0.26-0.068l4.532-2.617C7.059,23.171,7.161,22.965,7.133,22.758z
		 M2.681,19.078c-0.228-0.063-0.386-0.269-0.386-0.504V17.5c0-0.236,0.158-0.441,0.386-0.502l7.627-2.042
		c0.132-0.034,0.276-0.019,0.395,0.053l4.468,2.581c0.161,0.094,0.26,0.265,0.26,0.451c0,0.188-0.099,0.359-0.26,0.453l-4.468,2.58
		c-0.081,0.047-0.17,0.068-0.261,0.068c-0.044,0-0.09-0.006-0.134-0.017L2.681,19.078z M3.337,18.174l7.032,1.885l3.5-2.021
		l-3.5-2.02l-7.032,1.886V18.174z M1.503,14.616c0.062,0.234,0.273,0.387,0.502,0.387c0.045,0,0.09-0.006,0.136-0.019l4.61-1.235
		c0.203-0.055,0.354-0.227,0.381-0.436c0.027-0.207-0.073-0.412-0.256-0.519l-4.531-2.616c-0.249-0.147-0.567-0.06-0.711,0.191
		c-0.144,0.248-0.059,0.568,0.19,0.712l3.442,1.986l-3.396,0.91C1.594,14.054,1.429,14.338,1.503,14.616z M3.389,8.377l4.529,2.614
		c0.081,0.048,0.171,0.071,0.26,0.071c0.112,0,0.224-0.037,0.316-0.108c0.168-0.128,0.241-0.344,0.187-0.548L7.446,5.798
		C7.371,5.521,7.086,5.36,6.809,5.429C6.53,5.502,6.365,5.79,6.44,6.066l0.909,3.393l-3.44-1.986
		c-0.25-0.147-0.567-0.06-0.711,0.192C3.053,7.914,3.139,8.232,3.389,8.377z M9.458,5.257C9.397,5.029,9.497,4.791,9.701,4.671
		l0.93-0.539c0.204-0.118,0.461-0.084,0.629,0.083l5.583,5.584c0.098,0.099,0.152,0.231,0.152,0.37v5.159
		c0,0.187-0.099,0.359-0.26,0.451c-0.081,0.047-0.171,0.07-0.26,0.07c-0.09,0-0.18-0.023-0.261-0.07L11.745,13.2
		c-0.12-0.066-0.207-0.181-0.243-0.315L9.458,5.257z M10.568,5.376l1.884,7.033l3.501,2.019v-4.042l-5.147-5.149L10.568,5.376z
		 M16.105,6.119c0.101,0.1,0.233,0.152,0.369,0.152c0.066,0,0.134-0.015,0.199-0.04c0.195-0.08,0.322-0.271,0.322-0.481V0.521
		C16.995,0.233,16.761,0,16.474,0c-0.288,0-0.521,0.233-0.521,0.521v3.971l-2.484-2.486c-0.203-0.202-0.533-0.202-0.736,0
		c-0.204,0.204-0.204,0.535,0,0.736L16.105,6.119z"/>
</g>
<g>
</g>
<g>
</g>
<g>
</g>
<g>
</g>
<g>
</g>
<g>
</g>
<g>
</g>
<g>
</g>
<g>
</g>
<g>
</g>
<g>
</g>
<g>
</g>
<g>
</g>
<g>
</g>
<g>
</g>
</svg>
