<?xml version="1.0" encoding="iso-8859-1"?>
<!-- Generator: Adobe Illustrator 16.0.0, SVG Export Plug-In . SVG Version: 6.00 Build 0)  -->
<!DOCTYPE svg PUBLIC "-//W3C//DTD SVG 1.1//EN" "http://www.w3.org/Graphics/SVG/1.1/DTD/svg11.dtd">
<svg version="1.1" id="Capa_1" xmlns="http://www.w3.org/2000/svg" xmlns:xlink="http://www.w3.org/1999/xlink" x="0px" y="0px"
	 width="32.292px" height="32.292px" viewBox="0 0 32.292 32.292" style="enable-background:new 0 0 32.292 32.292;"
	 xml:space="preserve">
<g>
	<path d="M31.771,15.625h-0.78l-2.294-2.292c-0.204-0.202-0.533-0.202-0.736,0c-0.204,0.203-0.204,0.534,0,0.736l1.557,1.556h-2.598
		l-4.758-4.758l5.402-5.401c0.204-0.204,0.204-0.535,0-0.736c-0.202-0.202-0.532-0.202-0.736,0l-5.402,5.401l-4.759-4.758V2.775
		l1.558,1.556c0.102,0.102,0.234,0.152,0.369,0.152c0.132,0,0.267-0.053,0.368-0.152c0.203-0.203,0.203-0.533,0-0.736l-2.295-2.293
		V0.521C16.667,0.235,16.432,0,16.146,0c-0.286,0-0.521,0.235-0.521,0.521v0.78l-2.292,2.294c-0.202,0.203-0.202,0.533,0,0.736
		c0.204,0.203,0.535,0.203,0.736,0l1.556-1.557v2.598l-4.758,4.757L5.465,4.728c-0.203-0.204-0.534-0.204-0.736,0
		c-0.202,0.203-0.202,0.533,0,0.736l5.401,5.402l-4.758,4.76H2.775l1.557-1.558c0.203-0.202,0.203-0.533,0-0.737
		c-0.204-0.202-0.534-0.202-0.737,0l-2.293,2.294H0.521C0.234,15.625,0,15.859,0,16.146s0.234,0.521,0.521,0.521h0.78l2.294,2.292
		C3.697,19.06,3.83,19.11,3.963,19.11c0.134,0,0.267-0.051,0.369-0.151c0.202-0.203,0.202-0.534,0-0.736l-1.559-1.556h2.598
		l4.757,4.759l-5.402,5.4c-0.204,0.204-0.204,0.534,0,0.737c0.102,0.103,0.236,0.151,0.369,0.151c0.134,0,0.267-0.051,0.369-0.151
		l5.401-5.401l4.758,4.757v2.598l-1.558-1.557c-0.202-0.202-0.533-0.202-0.736,0c-0.202,0.203-0.202,0.534,0,0.736l2.295,2.294
		v0.781c0,0.287,0.234,0.521,0.521,0.521c0.287,0,0.521-0.233,0.521-0.521v-0.78l2.292-2.294c0.202-0.203,0.202-0.533,0-0.736
		c-0.203-0.203-0.534-0.203-0.736,0l-1.556,1.558v-2.599l4.759-4.758l5.4,5.403c0.103,0.103,0.235,0.151,0.369,0.151
		c0.133,0,0.267-0.051,0.368-0.151c0.204-0.203,0.204-0.533,0-0.736l-5.401-5.403l4.757-4.758h2.597l-1.556,1.558
		c-0.203,0.201-0.203,0.533,0,0.736c0.103,0.103,0.236,0.153,0.369,0.153c0.134,0,0.268-0.053,0.368-0.153l2.292-2.294h0.782
		c0.286,0,0.521-0.234,0.521-0.521S32.057,15.625,31.771,15.625z M25.448,15.625h-8.045l4.022-4.022L25.448,15.625z M20.689,10.867
		l-4.022,4.021V6.844L20.689,10.867z M15.625,6.844v8.045l-4.022-4.021L15.625,6.844z M10.867,11.604l4.021,4.022H6.843
		L10.867,11.604z M6.843,16.667h8.045l-4.021,4.022L6.843,16.667z M11.603,21.425l4.022-4.021v8.044L11.603,21.425z M16.667,25.448
		v-8.044l4.022,4.021L16.667,25.448z M21.425,20.689l-4.022-4.022h8.045L21.425,20.689z"/>
</g>
<g>
</g>
<g>
</g>
<g>
</g>
<g>
</g>
<g>
</g>
<g>
</g>
<g>
</g>
<g>
</g>
<g>
</g>
<g>
</g>
<g>
</g>
<g>
</g>
<g>
</g>
<g>
</g>
<g>
</g>
</svg>
