<?xml version="1.0" encoding="iso-8859-1"?>
<!-- Generator: Adobe Illustrator 16.0.0, SVG Export Plug-In . SVG Version: 6.00 Build 0)  -->
<!DOCTYPE svg PUBLIC "-//W3C//DTD SVG 1.1//EN" "http://www.w3.org/Graphics/SVG/1.1/DTD/svg11.dtd">
<svg version="1.1" id="Capa_1" xmlns="http://www.w3.org/2000/svg" xmlns:xlink="http://www.w3.org/1999/xlink" x="0px" y="0px"
	 width="37.281px" height="37.281px" viewBox="0 0 37.281 37.281" style="enable-background:new 0 0 37.281 37.281;"
	 xml:space="preserve">
<g>
	<path d="M10.876,10.042c0-0.288,0.233-0.521,0.521-0.521l1.98,0.002l0.99-1.716c0.145-0.25,0.459-0.333,0.712-0.192
		c0.249,0.146,0.334,0.462,0.192,0.713l-1.29,2.236l-2.582-0.002C11.109,10.562,10.876,10.329,10.876,10.042z M25.886,26.717h-2.581
		l-1.289,2.234c-0.145,0.25-0.06,0.567,0.191,0.713c0.082,0.047,0.172,0.068,0.26,0.068c0.182,0,0.356-0.094,0.454-0.26l0.987-1.715
		h1.979c0.288,0,0.521-0.233,0.521-0.521C26.409,26.95,26.174,26.717,25.886,26.717z M23.303,10.564h2.583
		c0.288,0,0.521-0.233,0.521-0.521c0-0.287-0.233-0.521-0.521-0.521h-1.98l-0.991-1.716c-0.145-0.248-0.462-0.335-0.713-0.19
		c-0.248,0.144-0.333,0.46-0.189,0.711L23.303,10.564z M13.977,26.717h-2.583c-0.287,0-0.521,0.232-0.521,0.521
		c0,0.287,0.233,0.521,0.521,0.521h1.982l0.992,1.716c0.097,0.166,0.272,0.26,0.451,0.26c0.088,0,0.179-0.022,0.26-0.069
		c0.249-0.145,0.334-0.46,0.191-0.712L13.977,26.717z M7.312,21.069c0.083,0.047,0.172,0.067,0.26,0.067
		c0.18,0,0.355-0.094,0.452-0.261l1.289-2.235l-1.292-2.236c-0.144-0.25-0.461-0.337-0.711-0.191
		c-0.25,0.145-0.335,0.461-0.191,0.712l0.99,1.715l-0.989,1.715C6.979,20.606,7.064,20.922,7.312,21.069z M29.969,16.213
		c-0.252-0.147-0.569-0.06-0.712,0.192l-1.29,2.235l1.291,2.235c0.096,0.167,0.272,0.261,0.451,0.261
		c0.088,0,0.178-0.022,0.261-0.069c0.249-0.145,0.334-0.461,0.19-0.712l-0.99-1.715l0.988-1.714
		C30.303,16.675,30.218,16.358,29.969,16.213z M34.783,27.96c-0.096,0.166-0.271,0.26-0.451,0.26c-0.089,0-0.179-0.022-0.26-0.069
		l-1.021-0.589l-2.226,1.283c-0.081,0.047-0.171,0.069-0.261,0.069s-0.18-0.022-0.261-0.069l-2.483-1.435
		c-0.16-0.092-0.261-0.265-0.261-0.451l-0.001-2.57l-2.375-1.371l-4.285-0.464l-1.737,3.941v2.746l2.224,1.284
		c0.16,0.094,0.261,0.264,0.261,0.451l0.002,2.87c0,0.185-0.101,0.357-0.261,0.452l-2.226,1.281v1.18
		c0,0.288-0.233,0.521-0.521,0.521c-0.287,0-0.521-0.232-0.521-0.521v-1.183l-2.225-1.28c-0.16-0.095-0.26-0.268-0.26-0.452
		l0.001-2.87c0-0.186,0.1-0.358,0.26-0.449l2.224-1.284v-2.746l-1.737-3.941l-4.284,0.464l-2.375,1.371l0.002,2.568
		c0,0.187-0.1,0.359-0.261,0.451l-2.487,1.437c-0.08,0.047-0.171,0.069-0.261,0.069s-0.181-0.022-0.26-0.069l-2.225-1.283
		l-1.024,0.589c-0.082,0.049-0.171,0.071-0.261,0.071c-0.179,0-0.355-0.096-0.451-0.26c-0.145-0.251-0.059-0.57,0.191-0.712
		L3.71,26.66l0.001-2.569c0-0.186,0.1-0.358,0.26-0.451l2.487-1.435c0.16-0.094,0.361-0.094,0.521,0l2.223,1.282l2.375-1.372
		l2.545-3.477l-2.545-3.478l-2.374-1.372l-2.226,1.285c-0.08,0.046-0.171,0.069-0.261,0.069s-0.181-0.023-0.26-0.069l-2.485-1.434
		c-0.161-0.093-0.26-0.266-0.26-0.451l0.002-2.569L2.689,10.03C2.441,9.885,2.355,9.569,2.498,9.317
		C2.642,9.07,2.962,8.984,3.21,9.127l1.023,0.591l2.223-1.284c0.159-0.095,0.36-0.095,0.521,0L9.463,9.87
		c0.161,0.093,0.261,0.265,0.261,0.451l-0.001,2.567l2.375,1.371l4.284,0.465l1.737-3.938V8.041l-2.226-1.283
		c-0.16-0.093-0.26-0.265-0.26-0.452l0.002-2.87c0-0.187,0.1-0.358,0.26-0.452l2.224-1.282V0.521C18.12,0.233,18.354,0,18.641,0
		c0.288,0,0.521,0.233,0.521,0.521v1.183l2.224,1.281c0.16,0.094,0.261,0.265,0.261,0.452l-0.003,2.87c0,0.187-0.1,0.358-0.26,0.451
		L19.161,8.04v2.747l1.737,3.941l4.285-0.465l2.376-1.371l-0.003-2.568c0-0.188,0.1-0.359,0.26-0.452l2.487-1.435
		c0.16-0.095,0.36-0.095,0.521,0l2.225,1.284l1.024-0.591c0.247-0.145,0.567-0.06,0.711,0.19c0.146,0.25,0.06,0.569-0.19,0.711
		l-1.025,0.592v2.568c0,0.188-0.1,0.358-0.261,0.452l-2.486,1.436c-0.08,0.047-0.17,0.07-0.26,0.07c-0.091,0-0.182-0.023-0.261-0.07
		l-2.223-1.284l-2.375,1.372l-2.545,3.477l2.545,3.479l2.376,1.372l2.222-1.282c0.16-0.094,0.358-0.092,0.521,0l2.487,1.433
		c0.161,0.094,0.261,0.267,0.261,0.451l-0.002,2.567l1.024,0.591C34.843,27.392,34.929,27.711,34.783,27.96z M28.6,10.623
		l0.004,1.667v0.603l0.52,0.301l1.441,0.833l1.965-1.135v-1.666v-0.601l-0.52-0.299l-1.443-0.835L28.6,10.623z M8.68,10.625
		L6.715,9.488l-1.442,0.835l-0.519,0.299v0.602l-0.002,1.667l1.963,1.133l1.444-0.834l0.52-0.299v-0.603L8.68,10.625z M8.681,26.658
		l-0.003-1.666v-0.601L8.157,24.09l-1.44-0.834l-1.966,1.135L4.75,26.058v0.6l0.521,0.302l1.443,0.834L8.681,26.658z M18.12,6.838
		l0.521,0.3l0.521-0.301l1.44-0.832l0.002-2.268l-1.442-0.831l-0.522-0.301L18.12,2.906l-1.442,0.832l-0.002,2.269L18.12,6.838z
		 M19.161,30.444l-0.521-0.301l-0.521,0.301l-1.442,0.832l-0.001,2.268l1.444,0.832l0.522,0.302l0.52-0.3l1.444-0.832l-0.002-2.268
		L19.161,30.444z M24.229,21.868l-0.762-1.04l-1.6-2.188l1.6-2.188l0.762-1.04l-1.283,0.14l-2.692,0.292l-1.093-2.477l-0.521-1.18
		l-0.521,1.18l-1.092,2.478l-2.693-0.292l-1.284-0.14l0.762,1.04l1.601,2.188l-1.601,2.187l-0.762,1.04l1.284-0.141l2.693-0.291
		l1.092,2.479l0.521,1.18l0.521-1.18l1.093-2.479l2.692,0.291L24.229,21.868z M32.528,24.391l-1.966-1.131l-1.439,0.83l-0.521,0.301
		v0.601l0.001,1.668l1.962,1.134l1.444-0.834l0.518-0.3l0.001-0.602L32.528,24.391z"/>
</g>
<g>
</g>
<g>
</g>
<g>
</g>
<g>
</g>
<g>
</g>
<g>
</g>
<g>
</g>
<g>
</g>
<g>
</g>
<g>
</g>
<g>
</g>
<g>
</g>
<g>
</g>
<g>
</g>
<g>
</g>
</svg>
