<?xml version="1.0" encoding="iso-8859-1"?>
<!-- Generator: Adobe Illustrator 16.0.0, SVG Export Plug-In . SVG Version: 6.00 Build 0)  -->
<!DOCTYPE svg PUBLIC "-//W3C//DTD SVG 1.1//EN" "http://www.w3.org/Graphics/SVG/1.1/DTD/svg11.dtd">
<svg version="1.1" id="Capa_1" xmlns="http://www.w3.org/2000/svg" xmlns:xlink="http://www.w3.org/1999/xlink" x="0px" y="0px"
	 width="31.504px" height="31.504px" viewBox="0 0 31.504 31.504" style="enable-background:new 0 0 31.504 31.504;"
	 xml:space="preserve">
<g>
	<path d="M31.502,15.751c0,0.414-0.336,0.75-0.75,0.75h-3.289l1.801,1.799c0.293,0.293,0.293,0.769,0,1.062
		c-0.146,0.146-0.339,0.221-0.531,0.221c-0.19,0-0.383-0.072-0.528-0.221l-2.86-2.859h-8.84v8.84l2.857,2.861
		c0.293,0.293,0.293,0.768,0,1.061c-0.146,0.146-0.338,0.221-0.528,0.221s-0.386-0.073-0.53-0.221l-1.799-1.799v3.289
		c0,0.414-0.336,0.75-0.75,0.75s-0.75-0.336-0.75-0.75v-3.289l-1.8,1.799c-0.293,0.295-0.768,0.295-1.061,0
		c-0.293-0.293-0.293-0.768,0-1.061l2.86-2.859v-8.84h-8.84l-2.86,2.857c-0.146,0.146-0.338,0.221-0.53,0.221
		s-0.384-0.072-0.53-0.221c-0.293-0.293-0.293-0.769,0-1.062l1.799-1.799h-3.29c-0.414,0-0.75-0.335-0.75-0.75s0.336-0.75,0.75-0.75
		h3.289l-1.8-1.8c-0.293-0.293-0.293-0.768,0-1.061c0.293-0.293,0.768-0.293,1.061,0L6.162,15h8.84V6.16L12.143,3.3
		c-0.293-0.293-0.293-0.768,0-1.061c0.293-0.293,0.768-0.293,1.061,0l1.799,1.799V0.75c0-0.414,0.336-0.75,0.75-0.75
		s0.75,0.336,0.75,0.75v3.289l1.8-1.8c0.293-0.293,0.768-0.293,1.061,0c0.295,0.293,0.295,0.768,0,1.061l-2.858,2.86V15h8.84
		l2.86-2.859c0.293-0.293,0.77-0.293,1.062,0s0.293,0.768,0,1.061l-1.801,1.799h3.289C31.166,15.001,31.502,15.336,31.502,15.751z
		 M25.081,19.296c0-0.414-0.336-0.75-0.75-0.75h-5.783v5.783c0,0.414,0.336,0.75,0.75,0.75s0.75-0.336,0.75-0.75v-3.222l3.752,3.752
		c0.146,0.146,0.339,0.22,0.53,0.22s0.384-0.072,0.529-0.22c0.293-0.293,0.293-0.77,0-1.062l-3.752-3.752h3.223
		C24.745,20.046,25.081,19.71,25.081,19.296z M6.423,12.206c0,0.414,0.336,0.75,0.75,0.75h5.783V7.173c0-0.414-0.336-0.75-0.75-0.75
		s-0.75,0.336-0.75,0.75v3.222L7.704,6.643c-0.293-0.293-0.768-0.293-1.061,0s-0.293,0.768,0,1.061l3.752,3.752H7.173
		C6.759,11.456,6.423,11.792,6.423,12.206z M12.818,24.663v-5.229l0,0v-0.75H6.839c-0.414,0-0.75,0.336-0.75,0.75
		s0.336,0.75,0.75,0.75h3.418l-3.615,3.613c-0.293,0.293-0.293,0.77,0,1.062c0.146,0.146,0.338,0.22,0.53,0.22
		s0.384-0.072,0.53-0.22l3.615-3.614v3.418c0,0.414,0.336,0.75,0.75,0.75S12.818,25.077,12.818,24.663z M18.686,6.838v5.978h5.979
		c0.414,0,0.75-0.336,0.75-0.75s-0.336-0.75-0.75-0.75h-3.418l3.614-3.614c0.293-0.293,0.293-0.768,0-1.061s-0.77-0.293-1.062,0
		l-3.613,3.614V6.838c0-0.414-0.336-0.75-0.75-0.75S18.686,6.424,18.686,6.838z"/>
</g>
<g>
</g>
<g>
</g>
<g>
</g>
<g>
</g>
<g>
</g>
<g>
</g>
<g>
</g>
<g>
</g>
<g>
</g>
<g>
</g>
<g>
</g>
<g>
</g>
<g>
</g>
<g>
</g>
<g>
</g>
</svg>
