<?xml version="1.0" encoding="iso-8859-1"?>
<!-- Generator: Adobe Illustrator 16.0.0, SVG Export Plug-In . SVG Version: 6.00 Build 0)  -->
<!DOCTYPE svg PUBLIC "-//W3C//DTD SVG 1.1//EN" "http://www.w3.org/Graphics/SVG/1.1/DTD/svg11.dtd">
<svg version="1.1" id="Capa_1" xmlns="http://www.w3.org/2000/svg" xmlns:xlink="http://www.w3.org/1999/xlink" x="0px" y="0px"
	 width="31.859px" height="31.858px" viewBox="0 0 31.859 31.858" style="enable-background:new 0 0 31.859 31.858;"
	 xml:space="preserve">
<g>
	<path d="M27.369,22.877h-2.94l-2.205-2.205h4.41c0.414,0,0.75-0.336,0.75-0.75s-0.336-0.75-0.75-0.75h-4.779
		c0.529-0.964,0.832-2.068,0.832-3.243c0-1.585-0.553-3.042-1.471-4.195h5.832c0.414,0,0.75-0.336,0.75-0.75
		c0-0.414-0.336-0.75-0.75-0.75h-4.654l1.25-1.25h3.552c0.414,0,0.75-0.337,0.75-0.75c0-0.414-0.336-0.75-0.75-0.75h-2.052
		l2.021-2.021c0.293-0.293,0.293-0.768,0-1.061s-0.768-0.293-1.061,0l-1.906,1.906v-1.82c0-0.414-0.336-0.75-0.75-0.75
		s-0.75,0.336-0.75,0.75v3.32l-1.365,1.365l0.002-4.652c0-0.414-0.336-0.75-0.75-0.75c-0.413,0-0.75,0.336-0.75,0.75l-0.002,5.902
		c-1.104-0.785-2.448-1.252-3.904-1.252c-1.295,0-2.502,0.373-3.531,1.007V4.934c0-0.414-0.336-0.75-0.75-0.75
		c-0.414,0-0.75,0.336-0.75,0.75v4.411L9.158,7.607V4.664c0-0.414-0.336-0.75-0.75-0.75s-0.75,0.336-0.75,0.75v1.443L5.953,4.402
		c-0.293-0.293-0.769-0.293-1.062,0s-0.293,0.768,0,1.061L7.088,7.66H4.663c-0.414,0-0.75,0.336-0.75,0.75s0.336,0.75,0.75,0.75
		h3.925l1.246,1.246H5.425c-0.414,0-0.75,0.336-0.75,0.75s0.336,0.75,0.75,0.75h5.086c-0.839,1.125-1.342,2.516-1.342,4.023
		c0,1.245,0.345,2.409,0.935,3.413H5.013c-0.414,0-0.75,0.336-0.75,0.75s0.336,0.75,0.75,0.75h4.65l-1.857,1.856h-3.32
		c-0.414,0-0.75,0.336-0.75,0.75s0.336,0.75,0.75,0.75h1.82l-1.415,1.414c-0.293,0.293-0.293,0.769,0,1.062
		c0.146,0.146,0.338,0.221,0.53,0.221c0.191,0,0.384-0.072,0.529-0.221l1.531-1.529v2.051c0,0.414,0.336,0.75,0.75,0.75
		c0.413,0,0.75-0.336,0.75-0.75v-3.551l1.741-1.742v4.652c0,0.414,0.336,0.75,0.75,0.75s0.75-0.336,0.75-0.75v-4.979
		c1.063,0.699,2.336,1.11,3.703,1.11c1.38,0,2.664-0.418,3.734-1.131v4.586c0,0.414,0.336,0.75,0.75,0.75s0.75-0.336,0.75-0.75
		v-4.41l1.713,1.714v3.926c0,0.414,0.336,0.75,0.75,0.75s0.75-0.336,0.75-0.75v-2.426l1.729,1.729
		c0.146,0.146,0.34,0.219,0.531,0.219s0.383-0.072,0.529-0.219c0.293-0.293,0.293-0.769,0-1.062l-1.236-1.238h1.441
		c0.414,0,0.75-0.336,0.75-0.75C28.117,23.211,27.783,22.877,27.369,22.877z M15.928,21.188c-1.254,0-2.391-0.459-3.295-1.193
		c-0.137-0.109-0.283-0.213-0.408-0.338c-0.098-0.096-0.175-0.211-0.264-0.312c-0.123-0.145-0.254-0.281-0.36-0.438
		c-0.585-0.848-0.931-1.871-0.931-2.977c0-1.305,0.494-2.484,1.283-3.404c0.328-0.383,0.697-0.726,1.121-1
		c0.824-0.535,1.801-0.854,2.854-0.854c1.106,0,2.129,0.346,2.978,0.931c0.414,0.286,0.77,0.644,1.088,1.032
		c0.733,0.904,1.192,2.041,1.192,3.295c0,1.053-0.317,2.029-0.854,2.854c-0.09,0.139-0.194,0.262-0.297,0.391
		c-0.121,0.152-0.235,0.312-0.373,0.451c-0.104,0.104-0.221,0.186-0.33,0.279C18.412,20.693,17.234,21.188,15.928,21.188z
		 M16.78,27.413v3.695c0,0.413-0.336,0.75-0.75,0.75s-0.75-0.337-0.75-0.75v-3.695c0-0.414,0.336-0.75,0.75-0.75
		S16.78,26.999,16.78,27.413z M4.445,16.579H0.751c-0.414,0-0.75-0.336-0.75-0.75s0.336-0.75,0.75-0.75h3.694
		c0.414,0,0.75,0.336,0.75,0.75S4.859,16.579,4.445,16.579z M15.08,4.443l0.002-3.693c0-0.413,0.336-0.75,0.75-0.75
		c0.414,0,0.75,0.337,0.75,0.75L16.58,4.443c0,0.414-0.336,0.75-0.75,0.75C15.414,5.193,15.08,4.857,15.08,4.443z M31.857,16.034
		c0,0.414-0.337,0.75-0.75,0.75l-3.695-0.002c-0.414,0-0.75-0.336-0.75-0.75s0.336-0.75,0.75-0.75l3.695,0.002
		C31.52,15.284,31.857,15.62,31.857,16.034z"/>
</g>
<g>
</g>
<g>
</g>
<g>
</g>
<g>
</g>
<g>
</g>
<g>
</g>
<g>
</g>
<g>
</g>
<g>
</g>
<g>
</g>
<g>
</g>
<g>
</g>
<g>
</g>
<g>
</g>
<g>
</g>
</svg>
