<?xml version="1.0" encoding="iso-8859-1"?>
<!-- Generator: Adobe Illustrator 16.0.0, SVG Export Plug-In . SVG Version: 6.00 Build 0)  -->
<!DOCTYPE svg PUBLIC "-//W3C//DTD SVG 1.1//EN" "http://www.w3.org/Graphics/SVG/1.1/DTD/svg11.dtd">
<svg version="1.1" id="Capa_1" xmlns="http://www.w3.org/2000/svg" xmlns:xlink="http://www.w3.org/1999/xlink" x="0px" y="0px"
	 width="38.205px" height="38.205px" viewBox="0 0 38.205 38.205" style="enable-background:new 0 0 38.205 38.205;"
	 xml:space="preserve">
<g>
	<path d="M38.105,18.727l-1.179-2.042c-0.135-0.231-0.382-0.374-0.649-0.374l-2.356-0.001c-0.269,0-0.516,0.144-0.648,0.375
		l-0.961,1.667h-4.289l3.768-3.766c0.293-0.293,0.293-0.769,0-1.062s-0.769-0.293-1.062,0L25.9,18.35h-0.082
		c-0.213-1.918-1.233-3.592-2.712-4.683l0.047-0.084l6.591-1.766c0.399-0.107,0.637-0.519,0.529-0.919
		c-0.106-0.399-0.518-0.639-0.919-0.53l-5.141,1.377l2.142-3.707h0.661l0.148,0.002c0.003,0,0.007,0,0.01,0l1.104-0.002
		c0.269,0,0.516-0.143,0.648-0.373l1.181-2.043c0.135-0.231,0.135-0.518,0-0.75l-1.181-2.04c-0.135-0.232-0.382-0.375-0.649-0.375
		h-2.356c-0.269,0-0.515,0.145-0.648,0.375l-1.178,2.039c-0.135,0.232-0.136,0.519-0.001,0.75l0.963,1.668L22.915,11l-1.378-5.146
		c-0.106-0.399-0.521-0.637-0.918-0.53c-0.399,0.107-0.639,0.52-0.531,0.92l1.767,6.594l-0.043,0.074
		c-0.83-0.365-1.744-0.569-2.708-0.569c-0.963,0-1.877,0.204-2.707,0.569l-0.044-0.076l1.766-6.59
		c0.107-0.399-0.13-0.812-0.53-0.918c-0.4-0.105-0.812,0.131-0.919,0.529l-1.378,5.141l-2.143-3.711l0.962-1.664
		c0.134-0.232,0.134-0.519,0-0.75l-1.179-2.041c-0.134-0.231-0.38-0.375-0.648-0.375L9.925,2.455c-0.268,0-0.516,0.144-0.649,0.375
		l-1.18,2.045C7.963,5.105,7.963,5.393,8.097,5.623l1.179,2.041C9.41,7.896,9.657,8.039,9.925,8.039h1.104c0.003,0,0.006,0,0.01,0
		h0.812l2.142,3.709l-5.142-1.377c-0.397-0.105-0.811,0.131-0.918,0.53c-0.107,0.4,0.13,0.812,0.531,0.919l6.591,1.766l0.046,0.082
		c-1.478,1.091-2.499,2.765-2.712,4.683h-0.086l-4.826-4.826c-0.293-0.293-0.768-0.293-1.061,0s-0.293,0.769,0,1.062l3.766,3.766
		H5.896l-0.962-1.667c-0.134-0.231-0.381-0.374-0.649-0.374H1.929c-0.268,0-0.515,0.143-0.649,0.374L0.1,18.727
		c-0.134,0.231-0.133,0.519,0,0.75l1.178,2.043c0.134,0.231,0.381,0.375,0.649,0.375h1.249c0.002,0,0.004,0,0.005,0h1.104
		c0.268,0,0.515-0.146,0.649-0.375l0.96-1.666h4.284l-3.763,3.764c-0.293,0.293-0.293,0.768,0,1.061
		c0.146,0.146,0.338,0.221,0.53,0.221c0.192,0,0.384-0.073,0.53-0.221l4.823-4.822h0.087c0.213,1.918,1.234,3.59,2.711,4.683
		l-0.045,0.077l-6.594,1.77c-0.4,0.106-0.637,0.52-0.53,0.92c0.107,0.399,0.522,0.639,0.919,0.528l5.144-1.379l-2.144,3.713h-0.823
		L9.919,30.17c-0.267,0-0.514,0.144-0.647,0.375l-1.178,2.037c-0.134,0.231-0.135,0.521,0,0.752l1.179,2.041
		c0.134,0.231,0.381,0.375,0.649,0.375h1.248c0.002,0,0.004,0,0.005,0h1.104c0.268,0,0.515-0.146,0.649-0.375l1.178-2.041
		c0.134-0.231,0.134-0.521,0-0.75l-0.962-1.666l2.143-3.713l1.379,5.142c0.09,0.334,0.393,0.555,0.724,0.555
		c0.064,0,0.13-0.008,0.195-0.023c0.4-0.107,0.637-0.52,0.53-0.92l-1.768-6.588l0.044-0.076c0.83,0.365,1.744,0.57,2.707,0.57
		c0.962,0,1.877-0.205,2.708-0.568l0.042,0.072L20.08,31.96c-0.107,0.398,0.13,0.812,0.529,0.918c0.064,0.02,0.13,0.025,0.195,0.025
		c0.331,0,0.634-0.221,0.724-0.557l1.378-5.144l2.146,3.713l-0.964,1.666c-0.134,0.231-0.134,0.519,0,0.75l1.179,2.043
		c0.134,0.229,0.381,0.375,0.648,0.375h1.104c0.001,0,0.003,0,0.005,0h1.248c0.269,0,0.517-0.144,0.648-0.375l1.18-2.043
		c0.134-0.231,0.133-0.519,0-0.75l-1.179-2.041c-0.134-0.231-0.382-0.375-0.649-0.375l-1.923,0.002l-2.144-3.713l5.143,1.379
		c0.399,0.106,0.812-0.131,0.919-0.53c0.106-0.4-0.13-0.812-0.53-0.918l-6.591-1.769l-0.046-0.08
		c1.479-1.091,2.499-2.765,2.712-4.683h0.085l4.822,4.824c0.146,0.146,0.338,0.219,0.529,0.219s0.384-0.071,0.529-0.219
		c0.293-0.293,0.293-0.77,0-1.062l-3.762-3.764h4.286l0.963,1.666c0.134,0.231,0.381,0.375,0.648,0.375h2.356
		c0.269,0,0.516-0.144,0.648-0.375l1.179-2.041C38.239,19.245,38.239,18.958,38.105,18.727z M25.609,5.25l0.746-1.291h0.625
		l0.865-0.002l0.434,0.75l0.314,0.543l-0.748,1.291h-0.625h-0.042l-0.155-0.002l-0.669,0.002l-0.434-0.75L25.609,5.25z
		 M10.359,6.541L9.613,5.248l0.313-0.541l0.433-0.75l0.818-0.002h0.047l0.625,0.002l0.746,1.291l-0.312,0.541l-0.434,0.75h-0.865
		L10.359,6.541z M4.597,19.102l-0.432,0.75l-0.312,0.541H2.361l-0.312-0.541l-0.433-0.75l0.433-0.749l0.312-0.541h1.492l0.312,0.541
		L4.597,19.102z M12.595,32.956l-0.745,1.291h-0.626h-0.865l-0.434-0.75l-0.312-0.539l0.746-1.293h0.624h0.866l0.433,0.75
		L12.595,32.956z M27.847,31.663l0.746,1.293l-0.312,0.541l-0.434,0.75l-0.821,0.002h-0.043l-0.626-0.002l-0.747-1.291l0.312-0.541
		l0.435-0.75h0.866L27.847,31.663z M24.361,19.102c0,0.257-0.04,0.503-0.075,0.75c-0.197,1.361-0.911,2.545-1.943,3.359
		c-0.394,0.311-0.819,0.576-1.291,0.766c-0.604,0.242-1.26,0.383-1.949,0.383s-1.345-0.141-1.949-0.383
		c-0.471-0.188-0.898-0.455-1.291-0.766c-1.033-0.814-1.746-1.998-1.943-3.359c-0.036-0.246-0.076-0.493-0.076-0.75
		s0.04-0.503,0.076-0.75c0.197-1.361,0.911-2.545,1.944-3.359c0.393-0.311,0.819-0.576,1.291-0.765
		c0.604-0.242,1.259-0.384,1.948-0.384s1.344,0.142,1.949,0.384c0.471,0.188,0.897,0.453,1.291,0.765
		c1.032,0.814,1.746,1.998,1.943,3.359C24.321,18.599,24.361,18.845,24.361,19.102z M35.846,20.394l-1.492-0.002l-0.312-0.541
		l-0.433-0.75l0.433-0.75l0.312-0.542l1.492,0.001l0.312,0.541l0.432,0.75l-0.432,0.75L35.846,20.394z"/>
</g>
<g>
</g>
<g>
</g>
<g>
</g>
<g>
</g>
<g>
</g>
<g>
</g>
<g>
</g>
<g>
</g>
<g>
</g>
<g>
</g>
<g>
</g>
<g>
</g>
<g>
</g>
<g>
</g>
<g>
</g>
</svg>
