<?xml version="1.0" encoding="iso-8859-1"?>
<!-- Generator: Adobe Illustrator 16.0.0, SVG Export Plug-In . SVG Version: 6.00 Build 0)  -->
<!DOCTYPE svg PUBLIC "-//W3C//DTD SVG 1.1//EN" "http://www.w3.org/Graphics/SVG/1.1/DTD/svg11.dtd">
<svg version="1.1" id="Capa_1" xmlns="http://www.w3.org/2000/svg" xmlns:xlink="http://www.w3.org/1999/xlink" x="0px" y="0px"
	 width="39.284px" height="39.285px" viewBox="0 0 39.284 39.285" style="enable-background:new 0 0 39.284 39.285;"
	 xml:space="preserve">
<g>
	<path d="M36.72,26.741c0-0.188-0.102-0.357-0.261-0.452l-2.126-1.229c-0.16-0.093-0.362-0.093-0.521,0l-1.868,1.079l-1.46-0.847
		l1.469-0.85c0.25-0.143,0.336-0.461,0.191-0.711c-0.145-0.249-0.461-0.335-0.713-0.191l-1.989,1.15l-1.846-1.063l3.983-2.303
		c0.251-0.143,0.336-0.461,0.192-0.711c-0.146-0.25-0.463-0.335-0.713-0.192l-4.443,2.566l-2.453-3.354l2.451-3.353l4.447,2.566
		c0.082,0.048,0.171,0.07,0.261,0.07c0.179,0,0.354-0.096,0.45-0.261c0.146-0.25,0.061-0.568-0.189-0.713l-3.987-2.302l1.845-1.064
		l1.991,1.149c0.084,0.048,0.174,0.069,0.261,0.069c0.181,0,0.356-0.095,0.452-0.26c0.146-0.249,0.06-0.568-0.191-0.712
		l-1.471-0.848l1.46-0.845l1.868,1.076c0.079,0.047,0.169,0.069,0.26,0.069c0.09,0,0.18-0.022,0.261-0.069l2.128-1.227
		c0.159-0.093,0.261-0.264,0.261-0.453l-0.002-1.305l0.002-1.149c0-0.188-0.1-0.361-0.261-0.455l-2.128-1.226
		c-0.163-0.095-0.362-0.093-0.521,0l-2.126,1.226c-0.161,0.093-0.261,0.266-0.261,0.453v2.156l-1.463,0.845v-1.699
		c0-0.288-0.231-0.521-0.521-0.521c-0.287,0-0.521,0.233-0.521,0.521v2.301l-1.845,1.063v-4.602c0-0.286-0.233-0.521-0.521-0.521
		c-0.288,0-0.521,0.235-0.521,0.521v5.133L21.9,15.717l-1.674-3.8l4.448-2.566c0.248-0.145,0.333-0.462,0.189-0.712
		c-0.143-0.25-0.462-0.335-0.711-0.191l-3.99,2.311V8.628l1.992-1.152c0.25-0.143,0.335-0.463,0.191-0.711
		c-0.145-0.25-0.466-0.335-0.712-0.192l-1.471,0.852V5.732l1.866-1.077c0.16-0.093,0.261-0.264,0.261-0.452V1.749
		c0-0.187-0.101-0.358-0.261-0.452l-2.126-1.229c-0.16-0.092-0.358-0.092-0.521,0l-2.128,1.229c-0.16,0.094-0.259,0.265-0.259,0.452
		v2.454c0,0.188,0.099,0.358,0.26,0.452l1.867,1.077v1.69l-1.469-0.849c-0.244-0.144-0.566-0.059-0.711,0.192
		c-0.146,0.247-0.061,0.568,0.19,0.711l1.99,1.15v2.132L15.137,8.46c-0.25-0.147-0.569-0.06-0.711,0.191
		c-0.146,0.248-0.061,0.567,0.19,0.711l4.444,2.564l-1.675,3.802l-4.131-0.449l-0.001-5.132c0-0.288-0.234-0.521-0.521-0.521
		c-0.288,0-0.521,0.233-0.521,0.521l0.001,4.603l-1.847-1.066v-2.303c0-0.288-0.233-0.521-0.521-0.521
		c-0.287,0-0.521,0.233-0.521,0.521v1.699l-1.463-0.846l0.002-1.008l-0.002-1.149c0-0.188-0.1-0.358-0.26-0.451L5.475,8.399
		C5.316,8.306,5.119,8.306,4.954,8.398L2.828,9.627c-0.159,0.092-0.261,0.265-0.261,0.452v2.454c0,0.188,0.102,0.359,0.261,0.454
		l2.126,1.228c0.081,0.047,0.171,0.069,0.26,0.069s0.182-0.022,0.26-0.069l1.868-1.078l1.463,0.846l-1.471,0.85
		c-0.25,0.144-0.336,0.461-0.192,0.711c0.098,0.167,0.273,0.26,0.452,0.26c0.087,0,0.179-0.022,0.26-0.069l1.99-1.149l1.848,1.064
		L7.706,17.95c-0.248,0.146-0.333,0.462-0.191,0.713c0.097,0.166,0.273,0.26,0.452,0.26c0.088,0,0.178-0.022,0.26-0.07l4.446-2.565
		l2.452,3.352l-2.454,3.353l-4.443-2.565c-0.249-0.144-0.568-0.06-0.711,0.192c-0.145,0.247-0.059,0.567,0.19,0.711l3.984,2.302
		l-1.845,1.064l-1.994-1.151c-0.25-0.146-0.567-0.059-0.711,0.192c-0.146,0.247-0.061,0.568,0.19,0.711l1.471,0.85l-1.463,0.846
		l-1.87-1.076c-0.159-0.092-0.359-0.093-0.519,0.001l-2.124,1.225c-0.161,0.095-0.261,0.266-0.261,0.453l-0.002,1.157l0.002,0.148
		l-0.002,1.149c0,0.188,0.099,0.361,0.26,0.455l2.128,1.228c0.079,0.047,0.171,0.07,0.26,0.07s0.18-0.023,0.26-0.07l2.124-1.229
		c0.16-0.093,0.261-0.265,0.261-0.451v-1.307v-0.85l1.467-0.847v1.702c0,0.287,0.232,0.521,0.521,0.521
		c0.287,0,0.521-0.233,0.521-0.521v-2.301l1.845-1.066v4.604c0,0.287,0.233,0.521,0.521,0.521c0.287,0,0.521-0.233,0.521-0.521
		v-5.134l4.131-0.45l1.676,3.803l-4.445,2.564c-0.249,0.144-0.334,0.46-0.19,0.711c0.142,0.248,0.459,0.334,0.711,0.192l3.983-2.299
		v2.131l-1.99,1.15c-0.249,0.144-0.334,0.46-0.19,0.711c0.144,0.249,0.464,0.333,0.711,0.19l1.469-0.848v1.691l-1.867,1.075
		c-0.16,0.094-0.26,0.265-0.26,0.452v2.452c0,0.188,0.1,0.359,0.259,0.453l2.128,1.229c0.081,0.046,0.171,0.069,0.26,0.069
		s0.18-0.023,0.26-0.069l2.127-1.229c0.16-0.093,0.259-0.265,0.259-0.453v-2.452c0-0.188-0.099-0.358-0.261-0.452l-1.864-1.082
		v-1.692l1.471,0.85c0.081,0.048,0.173,0.068,0.261,0.068c0.179,0,0.354-0.093,0.451-0.26c0.145-0.247,0.06-0.568-0.191-0.712
		l-1.992-1.152v-2.13l3.986,2.301c0.082,0.048,0.173,0.068,0.261,0.068c0.179,0,0.355-0.094,0.451-0.261
		c0.145-0.247,0.06-0.567-0.191-0.711l-4.446-2.566l1.675-3.8l4.13,0.45v5.132c0,0.288,0.235,0.521,0.521,0.521
		c0.289,0,0.521-0.233,0.521-0.521V24.53l1.845,1.063v2.303c0,0.287,0.234,0.521,0.521,0.521c0.288,0,0.521-0.233,0.521-0.521
		v-1.701l1.465,0.847v2.153c0,0.188,0.1,0.358,0.261,0.452l2.126,1.229c0.079,0.047,0.169,0.069,0.26,0.069
		c0.09,0,0.18-0.022,0.261-0.069l2.126-1.229c0.159-0.094,0.261-0.264,0.261-0.452l0.002-1.308v-1.146H36.72z M32.466,11.635v-1.253
		l1.604-0.929l1.107,0.638l0.498,0.288v0.577l0.002,1.281l-1.607,0.926l-1.084-0.627l-0.521-0.3V11.635L32.466,11.635z
		 M3.605,10.958v-0.578l0.499-0.287L5.21,9.454l1.607,0.929v1.253v0.6l-0.521,0.301l-1.084,0.627l-1.605-0.929v-1.278H3.605z
		 M6.816,28.898l-1.603,0.929l-1.116-0.646L3.606,28.9l0.002-0.577v-0.28l-0.002-0.15v-0.847l1.605-0.928l1.084,0.626l0.521,0.302
		v0.6V28.898L6.816,28.898z M20.163,24.913l-0.521,1.18l-0.521-1.181l-1.092-2.478l-2.693,0.291l-1.284,0.139l0.762-1.038
		l1.601-2.188l-1.601-2.187l-0.762-1.04l1.284,0.14l2.693,0.292l1.092-2.478l0.521-1.181l0.521,1.181l1.092,2.478l2.692-0.292
		l1.283-0.14l-0.761,1.04l-1.601,2.187l1.601,2.188l0.761,1.038l-1.283-0.139l-2.692-0.291L20.163,24.913z M18.035,2.048
		l1.106-0.638l0.499-0.287l0.499,0.287l1.106,0.638v1.855l-1.083,0.625l-0.521,0.3l-0.521-0.3l-1.085-0.625V2.048z M21.247,37.228
		l-1.106,0.639l-0.499,0.288l-0.499-0.288l-1.106-0.639v-1.854l1.085-0.627l0.521-0.3l0.521,0.3l1.084,0.627L21.247,37.228
		L21.247,37.228z M32.467,27.891v-0.246l-0.002-0.6l0.521-0.302l1.084-0.629l1.607,0.931l-0.002,1.277V28.9l-0.489,0.281
		l-1.116,0.646l-1.604-0.929L32.467,27.891z"/>
</g>
<g>
</g>
<g>
</g>
<g>
</g>
<g>
</g>
<g>
</g>
<g>
</g>
<g>
</g>
<g>
</g>
<g>
</g>
<g>
</g>
<g>
</g>
<g>
</g>
<g>
</g>
<g>
</g>
<g>
</g>
</svg>
