<?xml version="1.0" encoding="iso-8859-1"?>
<!-- Generator: Adobe Illustrator 16.0.0, SVG Export Plug-In . SVG Version: 6.00 Build 0)  -->
<!DOCTYPE svg PUBLIC "-//W3C//DTD SVG 1.1//EN" "http://www.w3.org/Graphics/SVG/1.1/DTD/svg11.dtd">
<svg version="1.1" id="Capa_1" xmlns="http://www.w3.org/2000/svg" xmlns:xlink="http://www.w3.org/1999/xlink" x="0px" y="0px"
	 width="32.295px" height="32.295px" viewBox="0 0 32.295 32.295" style="enable-background:new 0 0 32.295 32.295;"
	 xml:space="preserve">
<g>
	<path d="M32.294,16.147c0-0.288-0.234-0.521-0.521-0.521h-1.3l1.669-1.669c0.202-0.203,0.202-0.533,0-0.736s-0.534-0.203-0.736,0
		l-2.405,2.405h-0.924l1.199-1.2c0.202-0.204,0.202-0.534,0-0.737c-0.203-0.203-0.534-0.203-0.736,0l-1.935,1.937h-3.257
		c-0.115-1.601-0.751-3.057-1.744-4.201l1.192-1.19c0.408,0.268,0.891,0.426,1.411,0.426c1.418,0,2.573-1.154,2.573-2.572
		c0-0.521-0.157-1.006-0.426-1.412l1.21-1.21c0.203-0.204,0.203-0.534,0-0.737c-0.201-0.203-0.532-0.203-0.736,0l-1.21,1.211
		c-0.406-0.267-0.89-0.425-1.41-0.425c-1.417,0-2.571,1.154-2.571,2.573c0,0.521,0.155,1.004,0.423,1.41l-1.191,1.191
		c-1.146-0.991-2.6-1.627-4.2-1.742V5.688l1.934-1.933c0.202-0.203,0.202-0.534,0-0.737c-0.203-0.203-0.535-0.203-0.736,0
		l-1.197,1.196V3.293l2.404-2.404c0.201-0.203,0.201-0.534,0-0.736c-0.204-0.203-0.535-0.203-0.737,0l-1.667,1.667V0.522
		c0-0.288-0.234-0.521-0.52-0.521c-0.287,0-0.521,0.233-0.521,0.521v1.3l-1.669-1.668c-0.202-0.203-0.533-0.203-0.736,0
		c-0.202,0.203-0.202,0.533,0,0.736l2.405,2.406v0.922L14.43,3.019c-0.204-0.203-0.535-0.203-0.737,0
		c-0.203,0.203-0.203,0.534,0,0.737l1.935,1.935v3.256c-1.6,0.115-3.057,0.75-4.2,1.742l-1.191-1.191
		c0.268-0.405,0.425-0.89,0.425-1.41c0-1.419-1.154-2.573-2.574-2.573c-0.521,0-1.004,0.158-1.41,0.425l-1.211-1.21
		c-0.203-0.203-0.533-0.203-0.736,0c-0.204,0.203-0.204,0.533,0,0.737l1.21,1.21C5.671,7.081,5.514,7.564,5.514,8.087
		c0,1.418,1.154,2.572,2.573,2.572c0.521,0,1.005-0.158,1.411-0.426l1.191,1.19c-0.99,1.145-1.627,2.601-1.742,4.201H5.691
		l-1.936-1.934c-0.203-0.203-0.534-0.203-0.736,0c-0.203,0.203-0.203,0.533,0,0.736l1.198,1.198H3.295l-2.407-2.403
		c-0.203-0.203-0.533-0.203-0.736,0c-0.202,0.204-0.202,0.534,0,0.736l1.67,1.667H0.524c-0.287,0-0.521,0.233-0.521,0.521
		c0,0.287,0.234,0.521,0.521,0.521h1.3l-1.669,1.668c-0.203,0.203-0.203,0.535,0,0.736c0.103,0.104,0.236,0.152,0.369,0.152
		c0.133,0,0.266-0.051,0.369-0.152l2.406-2.404h0.922l-1.198,1.197c-0.203,0.203-0.203,0.535,0,0.736
		c0.103,0.104,0.236,0.152,0.369,0.152c0.133,0,0.266-0.051,0.369-0.152l1.936-1.934h3.255c0.115,1.601,0.751,3.056,1.742,4.201
		L9.503,22.06c-0.406-0.267-0.89-0.426-1.41-0.426c-1.418,0-2.573,1.154-2.573,2.573c0,0.521,0.157,1.006,0.425,1.41l-1.209,1.21
		c-0.203,0.203-0.203,0.533,0,0.736c0.102,0.102,0.236,0.151,0.369,0.151c0.134,0,0.267-0.051,0.369-0.151l1.209-1.21
		c0.406,0.268,0.89,0.427,1.411,0.427c1.417,0,2.573-1.154,2.573-2.575c0-0.521-0.158-1.005-0.425-1.409l1.191-1.19
		c1.146,0.99,2.6,1.627,4.201,1.742v3.256l-1.932,1.936c-0.203,0.203-0.203,0.535,0,0.736c0.203,0.202,0.534,0.203,0.736-0.001
		l1.196-1.197V29l-2.403,2.405c-0.202,0.204-0.202,0.535,0,0.737c0.103,0.103,0.236,0.152,0.369,0.152
		c0.132,0,0.268-0.051,0.368-0.154l1.666-1.667v1.3c0,0.286,0.233,0.521,0.521,0.521s0.52-0.235,0.52-0.521v-1.299l1.669,1.666
		c0.202,0.204,0.533,0.204,0.736,0c0.202-0.201,0.202-0.532,0-0.736l-2.41-2.405v-0.923l1.198,1.197
		c0.103,0.104,0.236,0.152,0.368,0.152c0.133,0,0.269-0.051,0.369-0.152c0.204-0.201,0.204-0.533,0-0.736l-1.936-1.934v-3.256
		c1.602-0.114,3.059-0.752,4.201-1.742l1.191,1.19c-0.268,0.405-0.425,0.889-0.425,1.409c0,1.42,1.153,2.575,2.573,2.575
		c0.521,0,1.005-0.159,1.41-0.427l1.209,1.21c0.104,0.102,0.236,0.151,0.369,0.151s0.267-0.051,0.368-0.151
		c0.204-0.203,0.204-0.533,0-0.736l-1.21-1.21c0.269-0.404,0.425-0.89,0.425-1.41c0-1.418-1.153-2.573-2.572-2.573
		c-0.521,0-1.005,0.159-1.411,0.426l-1.191-1.191c0.991-1.146,1.627-2.601,1.742-4.201h3.257l1.935,1.932
		c0.102,0.104,0.235,0.152,0.368,0.152c0.134,0,0.267-0.051,0.37-0.152c0.202-0.201,0.202-0.533,0-0.736l-1.199-1.194h0.922
		l2.405,2.4c0.103,0.101,0.235,0.152,0.368,0.152c0.132,0,0.267-0.053,0.369-0.152c0.201-0.203,0.201-0.533,0-0.737l-1.667-1.663
		h1.298C32.06,16.668,32.294,16.433,32.294,16.147z M24.207,6.555c0.232,0,0.449,0.055,0.646,0.148
		c0.324,0.152,0.584,0.413,0.737,0.736c0.091,0.197,0.148,0.415,0.148,0.647c0,0.845-0.688,1.531-1.532,1.531
		c-0.232,0-0.45-0.057-0.646-0.149c-0.324-0.152-0.585-0.413-0.736-0.738c-0.093-0.197-0.147-0.414-0.147-0.646
		C22.678,7.243,23.363,6.555,24.207,6.555z M9.473,8.732C9.32,9.056,9.06,9.316,8.736,9.469C8.54,9.561,8.322,9.618,8.09,9.618
		c-0.846,0-1.532-0.686-1.532-1.531c0-0.233,0.058-0.45,0.149-0.647C6.859,7.116,7.12,6.855,7.443,6.703
		C7.641,6.612,7.857,6.555,8.09,6.555c0.845,0,1.53,0.687,1.53,1.532C9.62,8.317,9.565,8.534,9.473,8.732z M8.09,25.737
		c-0.233,0-0.451-0.058-0.647-0.15c-0.325-0.151-0.585-0.412-0.736-0.737c-0.091-0.195-0.149-0.412-0.149-0.646
		c0-0.844,0.687-1.53,1.532-1.53c0.232,0,0.448,0.055,0.645,0.149c0.324,0.151,0.584,0.412,0.737,0.736
		c0.094,0.195,0.149,0.413,0.149,0.645C9.62,25.051,8.933,25.737,8.09,25.737z M22.825,23.56c0.152-0.325,0.413-0.586,0.736-0.736
		c0.197-0.094,0.413-0.149,0.646-0.149c0.845,0,1.532,0.687,1.532,1.53c0,0.233-0.056,0.451-0.148,0.646
		c-0.153,0.325-0.413,0.586-0.737,0.736c-0.196,0.093-0.414,0.15-0.646,0.15c-0.846,0-1.53-0.687-1.53-1.533
		C22.678,23.975,22.731,23.757,22.825,23.56z M22.307,16.668c-0.108,1.314-0.63,2.513-1.437,3.466
		c-0.224,0.266-0.47,0.511-0.735,0.736c-0.953,0.804-2.15,1.324-3.466,1.437c-0.171,0.014-0.344,0.024-0.52,0.024
		c-0.176,0-0.349-0.013-0.521-0.024c-1.315-0.111-2.513-0.632-3.466-1.437c-0.266-0.226-0.511-0.471-0.735-0.736
		c-0.805-0.953-1.326-2.15-1.437-3.466c-0.014-0.172-0.026-0.345-0.026-0.521c0-0.176,0.014-0.349,0.026-0.521
		c0.109-1.315,0.63-2.513,1.437-3.466c0.226-0.266,0.471-0.512,0.736-0.736c0.953-0.805,2.15-1.325,3.465-1.436
		c0.172-0.014,0.345-0.026,0.521-0.026c0.176,0,0.349,0.013,0.52,0.026c1.315,0.11,2.512,0.63,3.465,1.436
		c0.266,0.224,0.511,0.471,0.736,0.736c0.806,0.953,1.326,2.151,1.437,3.466c0.015,0.172,0.026,0.345,0.026,0.521
		C22.333,16.323,22.321,16.495,22.307,16.668z M19.939,13.09c-0.22-0.271-0.464-0.517-0.736-0.736
		c-0.712-0.573-1.579-0.944-2.534-1.048c-0.172-0.019-0.342-0.053-0.52-0.053c-0.178,0-0.348,0.035-0.521,0.053
		c-0.955,0.104-1.822,0.475-2.534,1.048c-0.272,0.22-0.517,0.465-0.736,0.736c-0.574,0.712-0.945,1.579-1.05,2.535
		c-0.02,0.174-0.053,0.343-0.053,0.521c0,0.178,0.033,0.347,0.053,0.521c0.104,0.955,0.474,1.822,1.048,2.532
		c0.22,0.272,0.466,0.518,0.736,0.737c0.713,0.573,1.58,0.945,2.536,1.049c0.173,0.02,0.343,0.055,0.521,0.055
		c0.178,0,0.348-0.035,0.52-0.055c0.956-0.104,1.823-0.476,2.536-1.049c0.271-0.22,0.517-0.465,0.736-0.737
		c0.574-0.711,0.943-1.577,1.048-2.532c0.02-0.174,0.053-0.343,0.053-0.521c0-0.178-0.033-0.347-0.053-0.521
		C20.885,14.671,20.513,13.803,19.939,13.09z M19.946,16.668c-0.091,0.67-0.352,1.28-0.742,1.796
		c-0.212,0.28-0.459,0.525-0.736,0.736c-0.515,0.392-1.127,0.652-1.8,0.744c-0.171,0.024-0.342,0.055-0.521,0.055
		c-0.178,0-0.349-0.029-0.521-0.055c-0.672-0.092-1.281-0.351-1.799-0.744c-0.278-0.211-0.525-0.456-0.736-0.736
		c-0.391-0.515-0.651-1.126-0.743-1.796c-0.022-0.172-0.053-0.343-0.053-0.521c0-0.178,0.029-0.349,0.053-0.521
		c0.092-0.671,0.352-1.282,0.745-1.798c0.212-0.278,0.458-0.525,0.737-0.736c0.515-0.392,1.125-0.651,1.797-0.743
		c0.172-0.024,0.343-0.054,0.521-0.054c0.178,0,0.349,0.03,0.521,0.054c0.673,0.091,1.282,0.351,1.798,0.743
		c0.278,0.211,0.524,0.458,0.736,0.736c0.393,0.515,0.653,1.127,0.744,1.798c0.021,0.172,0.053,0.343,0.053,0.521
		C19.999,16.325,19.969,16.495,19.946,16.668z"/>
</g>
<g>
</g>
<g>
</g>
<g>
</g>
<g>
</g>
<g>
</g>
<g>
</g>
<g>
</g>
<g>
</g>
<g>
</g>
<g>
</g>
<g>
</g>
<g>
</g>
<g>
</g>
<g>
</g>
<g>
</g>
</svg>
