<?xml version="1.0" encoding="iso-8859-1"?>
<!-- Generator: Adobe Illustrator 16.0.0, SVG Export Plug-In . SVG Version: 6.00 Build 0)  -->
<!DOCTYPE svg PUBLIC "-//W3C//DTD SVG 1.1//EN" "http://www.w3.org/Graphics/SVG/1.1/DTD/svg11.dtd">
<svg version="1.1" id="Capa_1" xmlns="http://www.w3.org/2000/svg" xmlns:xlink="http://www.w3.org/1999/xlink" x="0px" y="0px"
	 width="31px" height="31px" viewBox="0 0 31 31" style="enable-background:new 0 0 31 31;" xml:space="preserve">
<g>
	<path d="M30.5,15h-5.925l3.722-3.723c0.195-0.195,0.195-0.512,0-0.707c-0.195-0.195-0.512-0.195-0.707,0L23.16,15h-6.454
		l1.86-1.861l3.125-0.002c0.275,0,0.5-0.224,0.5-0.5c0-0.276-0.225-0.5-0.5-0.5l0,0l-2.123,0.001l6.891-6.891
		c0.195-0.195,0.195-0.512,0-0.707c-0.195-0.195-0.512-0.195-0.707,0l-6.891,6.89V9.306c0-0.276-0.223-0.5-0.5-0.5
		c-0.275,0-0.5,0.224-0.5,0.5v3.124L16,14.292V7.844l4.428-4.434c0.195-0.196,0.195-0.512,0-0.708c-0.195-0.194-0.512-0.195-0.707,0
		L16,6.429V0.5C16,0.224,15.776,0,15.5,0S15,0.224,15,0.5v5.925l-3.723-3.722c-0.195-0.195-0.512-0.195-0.707,0
		c-0.195,0.195-0.195,0.512,0,0.707L15,7.84v6.454l-1.862-1.862l-0.002-3.125c0-0.276-0.224-0.5-0.5-0.5l0,0
		c-0.276,0-0.5,0.224-0.5,0.5l0.001,2.123L5.246,4.539c-0.195-0.195-0.512-0.195-0.707,0c-0.195,0.195-0.195,0.512,0,0.707
		l6.89,6.89H9.306c-0.276,0-0.5,0.224-0.5,0.5c0,0.276,0.224,0.5,0.5,0.5h3.123L14.292,15H7.844L3.41,10.572
		c-0.195-0.194-0.512-0.195-0.708,0c-0.195,0.196-0.195,0.512,0,0.708L6.428,15H0.5C0.224,15,0,15.224,0,15.5S0.224,16,0.5,16h5.925
		l-3.722,3.723c-0.195,0.195-0.195,0.512,0,0.707c0.098,0.098,0.226,0.146,0.354,0.146s0.256-0.049,0.354-0.146L7.841,16h6.452
		l-1.862,1.861l-3.124,0.003c-0.276,0-0.5,0.224-0.5,0.5s0.224,0.5,0.5,0.5l0,0l2.122-0.001l-6.89,6.89
		c-0.195,0.195-0.195,0.513,0,0.707c0.098,0.099,0.226,0.146,0.354,0.146s0.256-0.049,0.354-0.146l6.89-6.89v2.123
		c0,0.277,0.224,0.5,0.5,0.5c0.276,0,0.5-0.223,0.5-0.5V18.57L15,16.706v6.45l-4.428,4.434c-0.195,0.196-0.195,0.512,0,0.708
		c0.195,0.194,0.512,0.195,0.708,0L15,24.57v5.93c0,0.275,0.224,0.5,0.5,0.5s0.5-0.225,0.5-0.5v-5.925l3.723,3.722
		c0.098,0.098,0.228,0.146,0.354,0.146s0.256-0.049,0.354-0.146c0.193-0.195,0.193-0.512,0-0.707L16,23.16v-6.452l1.861,1.862
		l0.002,3.123c0,0.274,0.224,0.5,0.5,0.5c0.275,0,0.5-0.226,0.5-0.5V19.57l6.89,6.891c0.099,0.098,0.226,0.146,0.354,0.146
		c0.127,0,0.254-0.049,0.352-0.147c0.195-0.194,0.195-0.512,0-0.707l-6.891-6.89h2.125c0.277,0,0.5-0.225,0.5-0.5
		c0-0.276-0.223-0.5-0.5-0.5h-3.125L16.706,16h6.45l4.434,4.428c0.098,0.098,0.227,0.146,0.354,0.146
		c0.129,0,0.258-0.049,0.354-0.146c0.195-0.195,0.195-0.512,0-0.707L24.57,16h5.93c0.275,0,0.5-0.224,0.5-0.5S30.775,15,30.5,15z"/>
</g>
<g>
</g>
<g>
</g>
<g>
</g>
<g>
</g>
<g>
</g>
<g>
</g>
<g>
</g>
<g>
</g>
<g>
</g>
<g>
</g>
<g>
</g>
<g>
</g>
<g>
</g>
<g>
</g>
<g>
</g>
</svg>
