<?xml version="1.0" encoding="iso-8859-1"?>
<!-- Generator: Adobe Illustrator 16.0.0, SVG Export Plug-In . SVG Version: 6.00 Build 0)  -->
<!DOCTYPE svg PUBLIC "-//W3C//DTD SVG 1.1//EN" "http://www.w3.org/Graphics/SVG/1.1/DTD/svg11.dtd">
<svg version="1.1" id="Capa_1" xmlns="http://www.w3.org/2000/svg" xmlns:xlink="http://www.w3.org/1999/xlink" x="0px" y="0px"
	 width="36.071px" height="36.071px" viewBox="0 0 36.071 36.071" style="enable-background:new 0 0 36.071 36.071;"
	 xml:space="preserve">
<g>
	<path d="M33.525,19.577l-8.044,2.153l-6.405-3.694l6.405-3.698l8.044,2.155c0.045,0.013,0.091,0.018,0.136,0.018
		c0.231,0,0.44-0.153,0.502-0.386c0.074-0.278-0.09-0.564-0.369-0.638l-7.038-1.885l3.145-1.815l3.071,0.824
		c0.044,0.013,0.09,0.018,0.135,0.018c0.232,0,0.442-0.153,0.503-0.386c0.074-0.278-0.091-0.564-0.368-0.638l-2.067-0.554
		l2.29-1.322c0.247-0.144,0.332-0.462,0.189-0.712c-0.144-0.25-0.465-0.334-0.711-0.19l-2.287,1.32l0.553-2.063
		c0.072-0.278-0.09-0.563-0.369-0.637c-0.274-0.072-0.563,0.09-0.636,0.369l-0.823,3.069L26.235,12.7l1.887-7.036
		c0.072-0.278-0.091-0.563-0.369-0.638c-0.275-0.073-0.563,0.09-0.638,0.37l-2.154,8.042l-6.404,3.696V9.737l5.888-5.889
		c0.204-0.203,0.204-0.533,0-0.736c-0.203-0.203-0.533-0.203-0.736,0l-5.151,5.152v-3.63l2.248-2.248
		c0.204-0.203,0.204-0.533,0-0.736c-0.203-0.203-0.533-0.203-0.736,0l-1.512,1.512V0.521C18.557,0.233,18.323,0,18.036,0
		c-0.288,0-0.521,0.233-0.521,0.521v2.642l-1.512-1.512c-0.203-0.203-0.533-0.203-0.736,0s-0.203,0.534,0,0.736l2.248,2.248v3.63
		l-5.151-5.152c-0.204-0.203-0.534-0.203-0.736,0c-0.204,0.203-0.204,0.533,0,0.736l5.887,5.889v7.396l-6.405-3.698L8.955,5.392
		C8.88,5.115,8.596,4.951,8.317,5.023C8.039,5.098,7.875,5.384,7.948,5.662l1.886,7.036L6.69,10.882L5.867,7.812
		C5.792,7.533,5.509,7.371,5.229,7.444c-0.278,0.073-0.443,0.36-0.369,0.637l0.553,2.063l-2.288-1.32
		c-0.249-0.144-0.567-0.06-0.711,0.19c-0.144,0.25-0.058,0.568,0.191,0.711l2.289,1.322l-2.067,0.554
		c-0.278,0.074-0.443,0.36-0.369,0.637c0.062,0.234,0.273,0.387,0.502,0.387c0.044,0,0.089-0.005,0.136-0.018l3.072-0.824
		l3.143,1.815l-7.039,1.885c-0.278,0.074-0.443,0.361-0.369,0.638c0.062,0.233,0.272,0.387,0.502,0.387
		c0.045,0,0.09-0.005,0.135-0.018l8.045-2.155l6.404,3.698l-6.404,3.696l-8.045-2.154c-0.275-0.071-0.563,0.092-0.637,0.368
		c-0.074,0.279,0.091,0.563,0.369,0.638l7.039,1.886l-3.145,1.816l-3.069-0.824c-0.277-0.073-0.563,0.09-0.638,0.369
		c-0.075,0.278,0.09,0.563,0.369,0.636l2.064,0.554l-2.289,1.323c-0.249,0.143-0.334,0.461-0.19,0.711
		c0.097,0.168,0.272,0.261,0.452,0.261c0.088,0,0.178-0.022,0.26-0.069l2.289-1.323l-0.552,2.064
		c-0.074,0.277,0.091,0.563,0.369,0.637c0.044,0.012,0.09,0.019,0.135,0.019c0.23,0,0.441-0.153,0.502-0.386l0.822-3.07l3.143-1.813
		l-1.886,7.035c-0.074,0.278,0.091,0.563,0.369,0.638c0.045,0.013,0.091,0.018,0.135,0.018c0.23,0,0.44-0.153,0.503-0.387
		l2.155-8.043l6.405-3.697v7.395l-5.887,5.89c-0.204,0.202-0.204,0.533,0,0.736c0.203,0.202,0.533,0.202,0.736,0l5.15-5.149v3.63
		l-2.248,2.247c-0.203,0.202-0.203,0.534,0,0.736s0.533,0.202,0.736,0l1.512-1.512v2.643c0,0.286,0.233,0.521,0.521,0.521
		c0.287,0,0.521-0.235,0.521-0.521v-2.643l1.512,1.512c0.102,0.103,0.235,0.151,0.369,0.151s0.267-0.051,0.368-0.151
		c0.204-0.202,0.204-0.534,0-0.736l-2.248-2.247v-3.63l5.151,5.153c0.102,0.103,0.235,0.152,0.368,0.152
		c0.134,0,0.269-0.053,0.369-0.152c0.204-0.203,0.204-0.534,0-0.736l-5.889-5.89v-7.396l6.403,3.696l2.154,8.045
		c0.063,0.234,0.274,0.387,0.502,0.387c0.045,0,0.09-0.006,0.136-0.019c0.279-0.073,0.442-0.361,0.369-0.637l-1.888-7.037
		l3.146,1.814l0.822,3.069c0.062,0.232,0.272,0.387,0.501,0.387c0.044,0,0.089-0.005,0.135-0.018
		c0.28-0.075,0.442-0.361,0.369-0.638l-0.552-2.062l2.288,1.32c0.083,0.049,0.172,0.071,0.261,0.071c0.18,0,0.355-0.094,0.452-0.26
		c0.143-0.251,0.058-0.568-0.19-0.714l-2.289-1.321l2.065-0.553c0.277-0.074,0.442-0.36,0.368-0.639
		c-0.074-0.277-0.359-0.443-0.638-0.369l-3.068,0.824l-3.146-1.816l7.038-1.885c0.28-0.075,0.445-0.361,0.369-0.639
		C34.09,19.67,33.807,19.504,33.525,19.577z"/>
</g>
<g>
</g>
<g>
</g>
<g>
</g>
<g>
</g>
<g>
</g>
<g>
</g>
<g>
</g>
<g>
</g>
<g>
</g>
<g>
</g>
<g>
</g>
<g>
</g>
<g>
</g>
<g>
</g>
<g>
</g>
</svg>
