<?xml version="1.0" encoding="iso-8859-1"?>
<!-- Generator: Adobe Illustrator 16.0.0, SVG Export Plug-In . SVG Version: 6.00 Build 0)  -->
<!DOCTYPE svg PUBLIC "-//W3C//DTD SVG 1.1//EN" "http://www.w3.org/Graphics/SVG/1.1/DTD/svg11.dtd">
<svg version="1.1" id="Capa_1" xmlns="http://www.w3.org/2000/svg" xmlns:xlink="http://www.w3.org/1999/xlink" x="0px" y="0px"
	 width="37.708px" height="37.708px" viewBox="0 0 37.708 37.708" style="enable-background:new 0 0 37.708 37.708;"
	 xml:space="preserve">
<g>
	<path d="M35.248,25.671c0-0.178-0.098-0.343-0.25-0.435l-2.041-1.18c-0.152-0.089-0.346-0.089-0.5,0l-1.792,1.035l-4.36-2.518
		l5.729-1.534c0.267-0.071,0.425-0.348,0.354-0.612c-0.07-0.267-0.346-0.426-0.611-0.354l-6.426,1.721l-2.156-2.945l2.158-2.948
		l6.424,1.722c0.043,0.012,0.086,0.017,0.129,0.017c0.223,0,0.424-0.146,0.482-0.371c0.071-0.267-0.087-0.541-0.354-0.611
		l-5.723-1.534l4.354-2.515l1.792,1.034c0.078,0.044,0.164,0.067,0.25,0.067s0.172-0.022,0.25-0.067l2.043-1.177
		c0.155-0.089,0.25-0.254,0.25-0.433l-0.002-1.254l0.001-1.105c0-0.179-0.096-0.344-0.25-0.434l-2.042-1.178
		c-0.153-0.089-0.345-0.089-0.5,0l-2.04,1.178c-0.154,0.089-0.251,0.254-0.251,0.433v2.07l-4.356,2.516l1.534-5.727
		c0.071-0.268-0.087-0.541-0.354-0.612c-0.264-0.069-0.54,0.086-0.61,0.354L24.654,14.7l-3.631,0.395l-1.474-3.342l4.703-4.703
		c0.194-0.195,0.194-0.512,0-0.707s-0.513-0.195-0.707,0l-4.192,4.193V5.503l1.792-1.033c0.153-0.089,0.25-0.254,0.25-0.433V1.68
		c0-0.178-0.097-0.343-0.25-0.433l-2.042-1.181c-0.154-0.089-0.345-0.089-0.5,0l-2.042,1.181c-0.154,0.089-0.25,0.254-0.25,0.433
		v2.357c0,0.179,0.095,0.344,0.25,0.433l1.792,1.032v5.033l-4.191-4.19c-0.195-0.195-0.512-0.195-0.707,0s-0.195,0.512,0,0.707
		l4.703,4.703l-1.474,3.342l-3.631-0.395l-1.722-6.427c-0.072-0.267-0.344-0.423-0.612-0.354c-0.267,0.071-0.425,0.346-0.354,0.612
		l1.535,5.727l-4.358-2.517l0.001-0.966L7.542,9.675c0-0.179-0.096-0.343-0.25-0.433L5.251,8.064c-0.154-0.089-0.345-0.09-0.499,0
		L2.709,9.243c-0.155,0.089-0.25,0.254-0.25,0.433l-0.001,2.357c0,0.179,0.095,0.344,0.25,0.433l2.042,1.18
		c0.078,0.044,0.164,0.067,0.25,0.067s0.172-0.022,0.25-0.067l1.79-1.035l4.357,2.517l-5.723,1.534
		c-0.267,0.07-0.425,0.346-0.354,0.611c0.06,0.225,0.262,0.371,0.482,0.371c0.043,0,0.086-0.005,0.13-0.017l6.424-1.722l2.159,2.947
		l-2.156,2.945l-6.426-1.721c-0.264-0.071-0.541,0.087-0.612,0.354c-0.071,0.269,0.087,0.541,0.354,0.612l5.728,1.534l-4.362,2.519
		l-1.793-1.034c-0.155-0.089-0.345-0.088-0.499,0L2.71,25.24c-0.155,0.089-0.251,0.254-0.251,0.433l-0.001,1.105l0.001,0.146
		l-0.001,1.104c0,0.181,0.095,0.346,0.25,0.436l2.042,1.179C4.829,29.687,4.915,29.71,5,29.71s0.172-0.022,0.25-0.067l2.041-1.179
		c0.155-0.089,0.25-0.254,0.25-0.434l-0.001-1.254l0.001-0.813l4.359-2.519l-1.532,5.725c-0.071,0.267,0.087,0.541,0.354,0.611
		c0.043,0.013,0.087,0.018,0.13,0.018c0.221,0,0.423-0.147,0.482-0.371l1.719-6.422l3.632-0.396l1.473,3.343l-4.703,4.701
		c-0.195,0.195-0.195,0.514,0,0.707c0.195,0.195,0.512,0.195,0.707,0l4.191-4.19v5.036l-1.792,1.031
		c-0.155,0.091-0.25,0.256-0.25,0.435v2.355c0,0.18,0.095,0.345,0.25,0.435l2.042,1.18c0.078,0.044,0.164,0.067,0.25,0.067
		s0.173-0.022,0.25-0.067l2.042-1.18c0.153-0.089,0.25-0.254,0.25-0.435v-2.355c0-0.179-0.096-0.344-0.25-0.435l-1.792-1.032v-5.036
		l4.191,4.191c0.1,0.1,0.227,0.146,0.354,0.146s0.256-0.049,0.354-0.146c0.195-0.193,0.195-0.512,0-0.707l-4.703-4.702l1.474-3.343
		l3.633,0.396l1.719,6.422c0.061,0.223,0.262,0.371,0.482,0.371c0.043,0,0.086-0.005,0.129-0.018
		c0.268-0.07,0.426-0.346,0.354-0.611l-1.531-5.725l4.357,2.518v2.068c0,0.18,0.096,0.345,0.25,0.434l2.042,1.179
		c0.078,0.044,0.164,0.067,0.25,0.067s0.172-0.022,0.25-0.067l2.041-1.179c0.153-0.089,0.25-0.254,0.25-0.434l0.001-1.255
		L35.248,25.671z M3.458,10.519V9.965l0.479-0.276L5,9.076l1.542,0.889v1.203v0.577l-0.5,0.289L5,12.636l-1.542-0.891V10.519z
		 M20.395,35.737l-1.062,0.613l-0.479,0.277l-0.479-0.277l-1.062-0.613v-1.778l1.041-0.603l0.5-0.288l0.5,0.288l1.042,0.603
		L20.395,35.737L20.395,35.737z M19.354,23.914l-0.5,1.133l-0.5-1.134l-1.048-2.378l-2.585,0.279l-1.232,0.136l0.732-1l1.534-2.098
		l-1.535-2.098l-0.732-1l1.232,0.134l2.585,0.281l1.048-2.378l0.5-1.134l0.5,1.134l1.047,2.378l2.586-0.281l1.231-0.134l-0.731,1
		l-1.534,2.098l1.534,2.099l0.732,1l-1.232-0.136L20.4,21.536L19.354,23.914z M17.312,1.967l1.062-0.614l0.479-0.276l0.479,0.276
		l1.062,0.613v1.78l-1.04,0.601l-0.5,0.289l-0.5-0.288l-1.042-0.601V1.967z M31.163,10.783V9.966l1.542-0.89l1.062,0.612
		l0.479,0.276v0.555l0.001,1.229l-1.543,0.889l-1.041-0.601l-0.5-0.289V11.17V10.783z M6.542,27.741L5,28.632L3.93,28.013
		l-0.47-0.271v-0.556v-0.265l-0.001-0.146v-0.812L5,25.072l1.041,0.601l0.5,0.289v0.578L6.542,27.741z M31.166,26.774v-0.235v-0.577
		l0.5-0.289l1.041-0.604l1.542,0.894v1.226v0.556l-0.472,0.271l-1.069,0.619l-1.542-0.891V26.774z"/>
</g>
<g>
</g>
<g>
</g>
<g>
</g>
<g>
</g>
<g>
</g>
<g>
</g>
<g>
</g>
<g>
</g>
<g>
</g>
<g>
</g>
<g>
</g>
<g>
</g>
<g>
</g>
<g>
</g>
<g>
</g>
</svg>
