<?xml version="1.0" encoding="iso-8859-1"?>
<!-- Generator: Adobe Illustrator 16.0.0, SVG Export Plug-In . SVG Version: 6.00 Build 0)  -->
<!DOCTYPE svg PUBLIC "-//W3C//DTD SVG 1.1//EN" "http://www.w3.org/Graphics/SVG/1.1/DTD/svg11.dtd">
<svg version="1.1" id="Capa_1" xmlns="http://www.w3.org/2000/svg" xmlns:xlink="http://www.w3.org/1999/xlink" x="0px" y="0px"
	 width="34px" height="34px" viewBox="0 0 34 34" style="enable-background:new 0 0 34 34;" xml:space="preserve">
<g>
	<g>
		<path d="M33.5,16.5h-3.752l1.406-1.406c0.193-0.195,0.193-0.512,0-0.707c-0.195-0.195-0.514-0.195-0.707,0L28.334,16.5h-3.59
			l-1.883-4.656l2.625-2.625c0.193-0.195,0.193-0.512,0-0.707c-0.195-0.195-0.514-0.195-0.707,0l-2.657,2.658L17.5,9.21V5.665
			l2.109-2.111c0.193-0.195,0.193-0.512,0-0.707c-0.195-0.195-0.514-0.195-0.707,0L17.5,4.251V0.5C17.5,0.224,17.276,0,17,0
			s-0.5,0.224-0.5,0.5v3.751l-1.404-1.404c-0.194-0.195-0.512-0.195-0.707,0c-0.194,0.195-0.194,0.512,0,0.707L16.5,5.666v3.59
			l-4.654,1.882L9.221,8.513c-0.194-0.195-0.512-0.195-0.707,0c-0.194,0.195-0.194,0.512,0,0.707l2.657,2.657L9.208,16.5H5.664
			l-2.111-2.109c-0.194-0.195-0.512-0.195-0.707,0c-0.194,0.195-0.194,0.512,0,0.707L4.249,16.5H0.5C0.224,16.5,0,16.724,0,17
			c0,0.275,0.224,0.5,0.5,0.5h3.751l-1.405,1.406c-0.194,0.195-0.194,0.512,0,0.707c0.099,0.098,0.227,0.146,0.354,0.146
			s0.256-0.049,0.354-0.146l2.11-2.113h3.592l1.882,4.656l-2.624,2.623c-0.194,0.195-0.194,0.513,0,0.707
			c0.099,0.099,0.227,0.146,0.354,0.146s0.256-0.049,0.354-0.146l2.656-2.656l4.622,1.96v3.544l-2.111,2.111
			c-0.194,0.195-0.194,0.512,0,0.707c0.195,0.195,0.513,0.195,0.707,0l1.404-1.403V33.5c0,0.275,0.224,0.5,0.5,0.5
			s0.5-0.225,0.5-0.5v-3.751l1.404,1.403c0.098,0.099,0.226,0.146,0.354,0.146c0.129,0,0.256-0.049,0.354-0.146
			c0.195-0.194,0.195-0.512,0-0.707L17.5,28.334v-3.59l4.654-1.883l2.625,2.625c0.098,0.099,0.226,0.146,0.354,0.146
			c0.129,0,0.256-0.049,0.354-0.146c0.195-0.194,0.195-0.512,0-0.707l-2.657-2.658l1.963-4.621h3.542l2.113,2.109
			c0.098,0.098,0.226,0.146,0.354,0.146c0.129,0,0.256-0.049,0.354-0.146c0.195-0.195,0.195-0.512,0-0.707L29.75,17.5h3.75
			c0.275,0,0.5-0.225,0.5-0.5C34,16.724,33.775,16.5,33.5,16.5z M23.705,17.5l-1.639,3.859l-0.236,0.556l-0.443,0.179L17.5,23.666
			l-0.558,0.227L16.5,23.704l-3.86-1.636l-0.555-0.235l-0.18-0.444L10.334,17.5l-0.227-0.56l0.187-0.44l1.639-3.861l0.235-0.554
			l0.444-0.18l3.888-1.571l0.558-0.226l0.442,0.188l3.859,1.637l0.556,0.236l0.181,0.444l1.57,3.887l0.227,0.561L23.705,17.5z"/>
		<path d="M21.216,13.49l-0.184-0.455l-0.544-0.231L17.5,11.538l-0.452-0.192L16.5,11.567l-3.01,1.216l-0.455,0.184l-0.231,0.544
			L11.535,16.5l-0.191,0.452l0.222,0.548l1.218,3.01l0.185,0.456l0.544,0.229l2.988,1.268l0.452,0.191l0.548-0.221l3.009-1.218
			l0.454-0.184l0.231-0.546l1.269-2.987l0.19-0.451L22.434,16.5L21.216,13.49z M21.377,17.5l-0.943,2.227l-0.229,0.535l-0.464,0.188
			L17.5,21.355l-0.538,0.217L16.5,21.376l-2.226-0.942l-0.535-0.228l-0.188-0.464L12.645,17.5l-0.219-0.54l0.195-0.46l0.945-2.227
			l0.227-0.534l0.465-0.188l2.242-0.906l0.538-0.217l0.462,0.196l2.227,0.944l0.535,0.227l0.188,0.464l0.904,2.241l0.219,0.539
			L21.377,17.5z"/>
	</g>
</g>
<g>
</g>
<g>
</g>
<g>
</g>
<g>
</g>
<g>
</g>
<g>
</g>
<g>
</g>
<g>
</g>
<g>
</g>
<g>
</g>
<g>
</g>
<g>
</g>
<g>
</g>
<g>
</g>
<g>
</g>
</svg>
