<?xml version="1.0" encoding="iso-8859-1"?>
<!-- Generator: Adobe Illustrator 16.0.0, SVG Export Plug-In . SVG Version: 6.00 Build 0)  -->
<!DOCTYPE svg PUBLIC "-//W3C//DTD SVG 1.1//EN" "http://www.w3.org/Graphics/SVG/1.1/DTD/svg11.dtd">
<svg version="1.1" id="Capa_1" xmlns="http://www.w3.org/2000/svg" xmlns:xlink="http://www.w3.org/1999/xlink" x="0px" y="0px"
	 width="31.508px" height="31.508px" viewBox="0 0 31.508 31.508" style="enable-background:new 0 0 31.508 31.508;"
	 xml:space="preserve">
<g>
	<path d="M30.758,15.002h-6.99l3.117-3.119c0.293-0.293,0.293-0.768,0-1.061s-0.768-0.293-1.061,0l-4.107,4.107V10.85l5.582-5.58
		c0.293-0.293,0.293-0.768,0-1.061s-0.77-0.293-1.062,0l-5.58,5.58h-4.148V9.622l4.35-4.351c0.293-0.293,0.293-0.768,0-1.061
		s-0.768-0.293-1.061,0L16.506,7.5V0.75c0-0.414-0.335-0.75-0.75-0.75s-0.75,0.336-0.75,0.75V7.5l-3.29-3.29
		c-0.293-0.293-0.768-0.293-1.061,0s-0.293,0.768,0,1.061l4.35,4.351V9.79h-4.149L5.275,4.21c-0.293-0.293-0.768-0.293-1.061,0
		s-0.293,0.768,0,1.061l5.58,5.579v4.079l-4.106-4.104c-0.293-0.293-0.768-0.293-1.061,0c-0.293,0.293-0.293,0.768,0,1.061
		l3.118,3.119H0.754c-0.414,0-0.75,0.336-0.75,0.75s0.336,0.75,0.75,0.75h6.991l-3.118,3.119c-0.293,0.293-0.293,0.77,0,1.062
		c0.146,0.146,0.338,0.219,0.53,0.219c0.192,0,0.384-0.071,0.53-0.219l4.106-4.106v4.078l-5.58,5.579
		c-0.293,0.293-0.293,0.769,0,1.062c0.146,0.146,0.338,0.22,0.53,0.22c0.192,0,0.384-0.072,0.53-0.22l5.58-5.58h4.15v0.168
		l-4.35,4.351c-0.293,0.293-0.293,0.77,0,1.062s0.768,0.293,1.061,0l3.29-3.291v6.75c0,0.414,0.336,0.75,0.75,0.75
		s0.75-0.336,0.75-0.75v-6.75l3.291,3.291c0.146,0.146,0.338,0.221,0.529,0.221s0.385-0.072,0.529-0.221
		c0.293-0.293,0.293-0.768,0-1.061l-4.351-4.353v-0.168h4.149l5.58,5.58c0.146,0.146,0.338,0.222,0.529,0.222
		c0.192,0,0.385-0.074,0.531-0.222c0.293-0.293,0.293-0.769,0-1.062l-5.582-5.58v-4.077l4.107,4.106
		c0.146,0.146,0.338,0.221,0.528,0.221c0.193,0,0.386-0.073,0.531-0.221c0.293-0.293,0.293-0.768,0-1.061l-3.119-3.119h6.995
		c0.414,0,0.75-0.336,0.75-0.75S31.172,15.002,30.758,15.002z M20.219,12.353v2.65v1.5v2.649v1.062h-1.061h-2.65h-1.5h-2.65h-1.061
		v-1.06v-2.652v-1.5v-2.65v-1.06h1.062h2.649h1.5h2.648h1.062V12.353z"/>
</g>
<g>
</g>
<g>
</g>
<g>
</g>
<g>
</g>
<g>
</g>
<g>
</g>
<g>
</g>
<g>
</g>
<g>
</g>
<g>
</g>
<g>
</g>
<g>
</g>
<g>
</g>
<g>
</g>
<g>
</g>
</svg>
