<?xml version="1.0" encoding="iso-8859-1"?>
<!-- Generator: Adobe Illustrator 16.0.0, SVG Export Plug-In . SVG Version: 6.00 Build 0)  -->
<!DOCTYPE svg PUBLIC "-//W3C//DTD SVG 1.1//EN" "http://www.w3.org/Graphics/SVG/1.1/DTD/svg11.dtd">
<svg version="1.1" id="Capa_1" xmlns="http://www.w3.org/2000/svg" xmlns:xlink="http://www.w3.org/1999/xlink" x="0px" y="0px"
	 width="31px" height="31px" viewBox="0 0 31 31" style="enable-background:new 0 0 31 31;" xml:space="preserve">
<g>
	<path d="M30.5,15h-1.665l1.519-1.52c0.195-0.195,0.195-0.512,0-0.707c-0.193-0.195-0.512-0.195-0.707,0L27.421,15h-1.842
		l0.882-0.882c0.195-0.195,0.195-0.512,0-0.707c-0.195-0.195-0.512-0.195-0.707,0L24.165,15h-7.457l9.753-9.753
		c0.195-0.195,0.195-0.512,0-0.707c-0.195-0.195-0.512-0.195-0.707,0L16,14.294V6.836l1.588-1.59c0.195-0.196,0.195-0.512,0-0.708
		c-0.195-0.194-0.512-0.195-0.708,0L16,5.421V3.58l2.225-2.227c0.195-0.195,0.195-0.512,0-0.707s-0.512-0.195-0.707,0L16,2.165V0.5
		C16,0.224,15.776,0,15.5,0S15,0.224,15,0.5v1.666l-1.519-1.519c-0.195-0.195-0.512-0.195-0.707,0c-0.195,0.195-0.195,0.512,0,0.707
		L15,3.58v1.842l-0.882-0.883c-0.195-0.195-0.512-0.195-0.707,0c-0.195,0.195-0.195,0.512,0,0.707L15,6.836v7.456L5.248,4.54
		c-0.195-0.195-0.512-0.195-0.707,0c-0.195,0.195-0.195,0.512,0,0.707L14.294,15H6.836l-1.59-1.588
		c-0.195-0.194-0.512-0.195-0.708,0c-0.195,0.196-0.195,0.512,0,0.708L5.42,15H3.579l-2.227-2.224c-0.195-0.195-0.512-0.195-0.707,0
		c-0.195,0.195-0.195,0.512,0,0.707L2.165,15H0.5C0.224,15,0,15.224,0,15.5S0.224,16,0.5,16h1.666l-1.519,1.52
		c-0.195,0.195-0.195,0.514,0,0.707c0.098,0.1,0.226,0.146,0.354,0.146s0.256-0.049,0.354-0.146L3.581,16h1.841l-0.883,0.882
		c-0.195,0.195-0.195,0.513,0,0.707c0.098,0.099,0.226,0.146,0.354,0.146s0.256-0.049,0.354-0.146L6.837,16h7.458l-9.753,9.753
		c-0.195,0.195-0.195,0.513,0,0.707c0.098,0.099,0.226,0.146,0.354,0.146s0.256-0.049,0.354-0.146L15,16.708v7.457l-1.588,1.589
		c-0.195,0.195-0.195,0.512,0,0.707c0.098,0.098,0.226,0.146,0.354,0.146s0.256-0.049,0.354-0.146L15,25.58v1.84l-2.224,2.227
		c-0.195,0.195-0.195,0.514,0,0.707c0.195,0.195,0.512,0.195,0.707,0L15,28.835V30.5c0,0.275,0.224,0.5,0.5,0.5s0.5-0.225,0.5-0.5
		v-1.666l1.52,1.52c0.1,0.099,0.228,0.146,0.354,0.146s0.256-0.049,0.354-0.146c0.193-0.194,0.193-0.513,0-0.707L16,27.419v-1.84
		l0.882,0.882c0.195,0.195,0.513,0.195,0.707,0c0.195-0.195,0.195-0.512,0-0.707L16,24.165v-7.459l9.754,9.754
		c0.098,0.099,0.227,0.146,0.354,0.146c0.129,0,0.256-0.049,0.354-0.146c0.195-0.194,0.195-0.512,0-0.707L16.708,16h7.457
		l1.589,1.588c0.098,0.098,0.227,0.146,0.354,0.146c0.129,0,0.256-0.049,0.354-0.146c0.195-0.195,0.195-0.512,0-0.707L25.58,16
		h1.841l2.226,2.225c0.1,0.099,0.228,0.146,0.354,0.146s0.256-0.051,0.354-0.146c0.193-0.194,0.193-0.513,0-0.707L28.835,16H30.5
		c0.275,0,0.5-0.224,0.5-0.5S30.775,15,30.5,15z"/>
</g>
<g>
</g>
<g>
</g>
<g>
</g>
<g>
</g>
<g>
</g>
<g>
</g>
<g>
</g>
<g>
</g>
<g>
</g>
<g>
</g>
<g>
</g>
<g>
</g>
<g>
</g>
<g>
</g>
<g>
</g>
</svg>
