<?xml version="1.0" encoding="iso-8859-1"?>
<!-- Generator: Adobe Illustrator 16.0.0, SVG Export Plug-In . SVG Version: 6.00 Build 0)  -->
<!DOCTYPE svg PUBLIC "-//W3C//DTD SVG 1.1//EN" "http://www.w3.org/Graphics/SVG/1.1/DTD/svg11.dtd">
<svg version="1.1" id="Capa_1" xmlns="http://www.w3.org/2000/svg" xmlns:xlink="http://www.w3.org/1999/xlink" x="0px" y="0px"
	 width="34px" height="34px" viewBox="0 0 34 34" style="enable-background:new 0 0 34 34;" xml:space="preserve">
<g>
	<path d="M33.222,16.219h-9.224c-0.131-1.17-0.547-2.255-1.181-3.183h5.661c0.434,0,0.781-0.35,0.781-0.781
		c0-0.431-0.35-0.781-0.781-0.781h-4.845l1.711-1.711h3.396c0.431,0,0.781-0.35,0.781-0.781S29.171,8.2,28.74,8.2h-1.833
		l1.698-1.698c0.306-0.305,0.306-0.801,0-1.106c-0.305-0.305-0.799-0.305-1.104,0l-1.883,1.883v-2.2c0-0.431-0.35-0.781-0.781-0.781
		s-0.781,0.35-0.781,0.781v3.762l-1.528,1.527V5.522c0-0.431-0.35-0.781-0.781-0.781c-0.431,0-0.781,0.35-0.781,0.781v5.664
		c-0.927-0.633-2.011-1.05-3.181-1.18V0.781C17.784,0.35,17.435,0,17.003,0s-0.781,0.35-0.781,0.781v9.225
		c-1.098,0.121-2.116,0.499-3.004,1.066V5.954c0-0.432-0.35-0.781-0.781-0.781s-0.781,0.35-0.781,0.781v4.594L9.951,8.841v-3.58
		c0-0.431-0.35-0.781-0.781-0.781c-0.431,0-0.781,0.35-0.781,0.781v2.018L6.506,5.396c-0.305-0.305-0.799-0.305-1.105,0
		c-0.305,0.305-0.305,0.801,0,1.106l1.881,1.881H5.269c-0.431,0-0.781,0.35-0.781,0.781c0,0.431,0.35,0.781,0.781,0.781h3.576
		l1.707,1.708H5.957c-0.431,0-0.781,0.35-0.781,0.781c0,0.431,0.35,0.781,0.781,0.781h5.12c-0.568,0.887-0.946,1.906-1.067,3.003
		H0.784c-0.431,0-0.781,0.35-0.781,0.781s0.35,0.781,0.781,0.781h9.225c0.13,1.17,0.546,2.255,1.179,3.181l-5.662,0.002
		c-0.433,0-0.781,0.35-0.781,0.781c0,0.429,0.35,0.781,0.781,0.781l4.847-0.002l-1.528,1.527H5.084
		c-0.432,0-0.781,0.351-0.781,0.781c0,0.432,0.35,0.781,0.781,0.781h2.199L5.4,27.498c-0.306,0.306-0.306,0.801,0,1.106
		c0.152,0.151,0.352,0.228,0.552,0.228c0.2,0,0.4-0.074,0.552-0.228l1.699-1.7v1.834c0,0.432,0.35,0.781,0.781,0.781
		c0.431,0,0.781-0.35,0.781-0.781v-3.396l1.71-1.711l-0.001,4.846c0,0.432,0.349,0.781,0.781,0.781c0.431,0,0.781-0.35,0.781-0.781
		v-5.662c0.926,0.632,2.011,1.048,3.181,1.179v9.226C16.218,33.649,16.568,34,17,34c0.431,0,0.781-0.351,0.781-0.781v-9.226
		c1.099-0.12,2.116-0.499,3.005-1.066v5.119c0,0.431,0.35,0.781,0.781,0.781s0.781-0.351,0.781-0.781v-4.594l1.888,1.89v3.579
		c0,0.431,0.353,0.781,0.781,0.781c0.432,0,0.781-0.351,0.781-0.781v-2.017l1.699,1.697c0.151,0.152,0.352,0.229,0.551,0.229
		c0.2,0,0.399-0.075,0.552-0.229c0.305-0.306,0.305-0.8,0-1.105L26.902,25.8h2.015c0.432,0,0.781-0.352,0.781-0.781
		c0-0.432-0.35-0.781-0.781-0.781H25.34l-1.89-1.891h4.596c0.432,0,0.781-0.35,0.781-0.781c0-0.431-0.35-0.781-0.781-0.781h-5.12
		c0.569-0.887,0.945-1.906,1.067-3.003h9.224c0.432,0,0.781-0.35,0.781-0.781S33.653,16.219,33.222,16.219z M21.373,20.266
		c-0.135,0.182-0.272,0.358-0.428,0.519c-0.053,0.056-0.105,0.108-0.158,0.159c-0.162,0.153-0.339,0.292-0.519,0.426
		c-0.735,0.552-1.609,0.912-2.563,1.036c-0.232,0.029-0.462,0.07-0.703,0.07s-0.472-0.041-0.704-0.07
		c-0.954-0.124-1.826-0.484-2.562-1.036c-0.42-0.315-0.791-0.685-1.105-1.105c-0.551-0.733-0.912-1.607-1.036-2.562
		c-0.03-0.231-0.071-0.463-0.071-0.704c0-0.242,0.041-0.472,0.071-0.706c0.125-0.953,0.484-1.827,1.036-2.562
		c0.134-0.179,0.272-0.356,0.428-0.517c0.052-0.055,0.104-0.107,0.159-0.159c0.161-0.153,0.339-0.291,0.519-0.425
		c0.735-0.552,1.608-0.912,2.562-1.036c0.232-0.03,0.462-0.071,0.703-0.071s0.472,0.041,0.704,0.071
		c0.955,0.124,1.827,0.484,2.562,1.036c0.419,0.313,0.79,0.683,1.106,1.103c0.551,0.736,0.911,1.61,1.034,2.563
		c0.03,0.233,0.07,0.462,0.07,0.705c0,0.242-0.04,0.473-0.07,0.704C22.282,18.658,21.926,19.531,21.373,20.266z"/>
</g>
<g>
</g>
<g>
</g>
<g>
</g>
<g>
</g>
<g>
</g>
<g>
</g>
<g>
</g>
<g>
</g>
<g>
</g>
<g>
</g>
<g>
</g>
<g>
</g>
<g>
</g>
<g>
</g>
<g>
</g>
</svg>
