<?xml version="1.0" encoding="iso-8859-1"?>
<!-- Generator: Adobe Illustrator 16.0.0, SVG Export Plug-In . SVG Version: 6.00 Build 0)  -->
<!DOCTYPE svg PUBLIC "-//W3C//DTD SVG 1.1//EN" "http://www.w3.org/Graphics/SVG/1.1/DTD/svg11.dtd">
<svg version="1.1" id="Capa_1" xmlns="http://www.w3.org/2000/svg" xmlns:xlink="http://www.w3.org/1999/xlink" x="0px" y="0px"
	 width="37.712px" height="37.711px" viewBox="0 0 37.712 37.711" style="enable-background:new 0 0 37.712 37.711;"
	 xml:space="preserve">
<g>
	<path d="M37.644,18.605l-1.179-2.042c-0.09-0.153-0.254-0.249-0.434-0.249l-2.357-0.002c-0.178,0-0.344,0.096-0.433,0.25
		l-1.032,1.792h-1.623l0.813-1.412c0.14-0.239,0.058-0.545-0.184-0.683c-0.239-0.141-0.547-0.057-0.684,0.183l-1.104,1.912h-2.047
		l2.207-3.825c0.141-0.238,0.059-0.545-0.183-0.683c-0.237-0.138-0.545-0.058-0.683,0.183l-2.497,4.325h-0.602l-0.914-1.58
		l1.652-2.258l-2.779,0.303l-0.912-1.579l0.299-0.52h4.998c0.275,0,0.5-0.225,0.5-0.5c0-0.276-0.225-0.5-0.5-0.5h-4.42l1.022-1.771
		h2.209c0.276,0,0.5-0.224,0.5-0.5c0-0.275-0.224-0.5-0.5-0.5h-1.632l0.811-1.402l2.068-0.002c0.18,0,0.344-0.094,0.434-0.25
		l1.182-2.041c0.09-0.153,0.09-0.346,0-0.5l-1.18-2.041c-0.09-0.155-0.256-0.252-0.435-0.252l-2.358,0.002
		c-0.18,0-0.344,0.097-0.434,0.25l-1.178,2.039c-0.091,0.156-0.091,0.347,0,0.502l1.034,1.793L24.28,8.449l-0.815-1.412
		c-0.139-0.24-0.443-0.322-0.684-0.184c-0.238,0.139-0.32,0.443-0.183,0.684l1.104,1.912l-1.021,1.771L20.47,7.396
		c-0.139-0.24-0.444-0.321-0.683-0.183c-0.238,0.138-0.32,0.442-0.183,0.683l2.497,4.326l-0.302,0.521h-1.823l-1.129-2.561
		l-1.129,2.561h-1.824l-0.299-0.519l2.498-4.328c0.139-0.239,0.057-0.545-0.184-0.683c-0.236-0.139-0.545-0.058-0.683,0.183
		l-2.211,3.827l-1.022-1.771l1.105-1.916c0.138-0.238,0.056-0.545-0.184-0.684c-0.242-0.137-0.547-0.057-0.685,0.184l-0.815,1.416
		l-0.812-1.406l1.035-1.793c0.089-0.154,0.089-0.346-0.001-0.5l-1.18-2.041c-0.088-0.153-0.254-0.25-0.432-0.25H9.667
		c-0.179,0-0.344,0.097-0.433,0.25l-1.18,2.043c-0.089,0.154-0.089,0.346,0.001,0.5l1.179,2.041c0.089,0.153,0.254,0.25,0.433,0.25
		h1.104c0.001,0,0.002,0,0.003,0l0.962-0.002l0.812,1.405l-1.629-0.001c-0.275,0-0.5,0.225-0.5,0.5c0,0.276,0.225,0.5,0.5,0.5
		l2.207,0.001l1.021,1.771H9.73c-0.275,0-0.5,0.224-0.5,0.5c0,0.276,0.225,0.5,0.5,0.5h4.993l0.301,0.521l-0.912,1.58l-2.78-0.302
		l1.651,2.258l-0.895,1.579h-0.603l-2.498-4.326c-0.138-0.24-0.444-0.32-0.683-0.183c-0.239,0.138-0.321,0.442-0.184,0.683
		l2.209,3.826H8.281l-1.104-1.912c-0.139-0.24-0.443-0.322-0.682-0.184c-0.24,0.139-0.322,0.443-0.184,0.684l0.814,1.412H5.504
		l-1.035-1.793c-0.09-0.154-0.256-0.249-0.434-0.249l-2.354,0.001c-0.179,0-0.343,0.096-0.433,0.249l-1.181,2.041
		c-0.09,0.155-0.09,0.347,0,0.5l1.179,2.041c0.09,0.153,0.254,0.25,0.434,0.25l2.357,0.002c0.178,0,0.344-0.097,0.432-0.25
		l1.033-1.792h1.625l-0.815,1.413c-0.138,0.237-0.056,0.545,0.185,0.684c0.078,0.045,0.164,0.066,0.25,0.066
		c0.172,0,0.34-0.09,0.434-0.25l1.103-1.913h2.048l-2.209,3.827c-0.14,0.237-0.058,0.545,0.182,0.682
		c0.08,0.047,0.166,0.068,0.25,0.068c0.173,0,0.342-0.091,0.434-0.25l2.498-4.327h0.602l0.912,1.579l-1.654,2.258l2.781-0.303
		l0.912,1.582l-0.299,0.518H9.747c-0.276,0-0.5,0.225-0.5,0.5s0.224,0.5,0.5,0.5h4.417l-1.021,1.771h-2.209
		c-0.276,0-0.5,0.225-0.5,0.5c0,0.277,0.224,0.5,0.5,0.5h1.632l-0.812,1.406l-0.81,0.002l-0.158-0.002l-1.104,0.002
		c-0.178,0-0.342,0.096-0.433,0.25l-1.176,2.037c-0.09,0.154-0.09,0.346-0.001,0.5l1.177,2.043c0.091,0.154,0.255,0.252,0.435,0.252
		h2.357c0.18,0,0.344-0.098,0.434-0.25l1.178-2.041c0.089-0.154,0.089-0.346,0-0.5l-1.034-1.793l0.812-1.406l0.816,1.414
		c0.092,0.16,0.26,0.25,0.434,0.25c0.084,0,0.17-0.021,0.25-0.066c0.238-0.139,0.32-0.442,0.183-0.684l-1.104-1.914l1.021-1.771
		l2.21,3.826c0.092,0.16,0.261,0.25,0.433,0.25c0.086,0,0.172-0.021,0.25-0.067c0.239-0.138,0.321-0.442,0.184-0.683l-2.497-4.326
		l0.3-0.521h1.823l1.129,2.562l1.13-2.562h1.823l0.301,0.521l-2.496,4.324c-0.139,0.24-0.057,0.545,0.183,0.685
		c0.08,0.045,0.166,0.065,0.25,0.065c0.173,0,0.343-0.09,0.435-0.25l2.209-3.824l1.021,1.771l-1.103,1.91
		c-0.14,0.238-0.058,0.545,0.183,0.684c0.08,0.045,0.166,0.066,0.25,0.066c0.172,0,0.343-0.09,0.435-0.25l0.813-1.41l0.812,1.404
		l-1.039,1.791c-0.09,0.152-0.09,0.344,0,0.5l1.179,2.041c0.09,0.154,0.254,0.25,0.435,0.25l1.104,0.002c0.001,0,0.002,0,0.004,0
		l1.25-0.002c0.178,0,0.344-0.096,0.432-0.25l1.181-2.043c0.089-0.154,0.089-0.346-0.001-0.498l-1.18-2.041
		c-0.088-0.154-0.254-0.25-0.433-0.25l-1.254,0.002l-0.813-0.002l-0.813-1.407l1.633,0.001c0.276,0,0.5-0.224,0.5-0.5
		c0-0.275-0.224-0.5-0.5-0.5l-2.209-0.001l-1.023-1.771h4.42c0.274,0,0.5-0.225,0.5-0.5s-0.226-0.5-0.5-0.5H22.98l-0.3-0.52
		l0.913-1.58l2.779,0.301l-1.652-2.256l0.912-1.58h0.602l2.498,4.328c0.092,0.159,0.26,0.25,0.433,0.25
		c0.086,0,0.172-0.021,0.25-0.068c0.239-0.137,0.321-0.441,0.185-0.682l-2.209-3.828h2.047l1.104,1.914
		c0.092,0.159,0.262,0.25,0.435,0.25c0.084,0,0.171-0.021,0.25-0.066c0.237-0.139,0.319-0.443,0.183-0.684l-0.815-1.414h1.623
		l1.035,1.792c0.088,0.153,0.254,0.25,0.433,0.25h2.356c0.18,0,0.344-0.097,0.435-0.25l1.179-2.042
		C37.733,18.952,37.733,18.759,37.644,18.605z M25.076,5.003l0.89-1.543h1.229h0.552l0.277,0.479l0.613,1.062l-0.892,1.541
		l-0.967-0.002l-0.236,0.002h-0.578l-0.287-0.498L25.076,5.003z M9.971,3.46l0.552-0.002h0.411h0.814l0.892,1.543l-0.603,1.041
		l-0.289,0.5h-0.576H9.971L9.081,5.001l0.612-1.062L9.971,3.46z M4.643,18.854l-0.289,0.501l-0.601,1.042l-1.779-0.002L1.36,19.333
		l-0.277-0.479l0.276-0.478l0.614-1.062l1.779-0.001l0.602,1.042L4.643,18.854z M12.64,32.709L11.75,34.25h-0.966h-0.272H9.969
		l-0.274-0.479l-0.612-1.062l0.889-1.541l0.808-0.002l0.157,0.002h0.238h0.576l0.289,0.5L12.64,32.709z M27.747,34.25h-0.543h-0.423
		h-0.814l-0.892-1.543l0.603-1.041l0.289-0.498h0.576l1.203-0.002l0.889,1.541l-0.611,1.062L27.747,34.25z M24.765,18.854
		l-0.289,0.5l-0.403,0.699l-0.511-0.699l-0.366-0.499l0.366-0.501l0.512-0.698l0.403,0.698L24.765,18.854z M24.135,21.942
		l-0.543-0.06l-0.543-0.06l-2.025-0.221l-0.614-0.065l-0.251,0.567l-0.821,1.861l-0.222,0.5l-0.221,0.5h-0.072l-0.221-0.5l-0.22-0.5
		l-0.822-1.861l-0.25-0.567l-0.614,0.065l-2.026,0.221l-0.543,0.06l-0.545,0.06l-0.035-0.062l0.322-0.44l0.323-0.441l1.203-1.643
		l0.364-0.5l-0.365-0.5l-1.202-1.645l-0.322-0.44l-0.323-0.44l0.037-0.062l0.543,0.059l0.543,0.061l2.024,0.22l0.614,0.065
		l0.251-0.566l0.821-1.863l0.221-0.5l0.221-0.5h0.074l0.22,0.5l0.222,0.5l0.821,1.865l0.25,0.566l0.616-0.067l2.024-0.22
		l0.543-0.061l0.543-0.059l0.035,0.062l-0.321,0.439l-0.322,0.441l-1.203,1.645l-0.365,0.501l0.364,0.499L23.526,21l0.322,0.441
		l0.321,0.44L24.135,21.942z M21.812,23.968h-0.577h-0.807l0.351-0.79l0.25-0.568l0.614,0.065l0.859,0.095L22.1,23.469
		L21.812,23.968z M16.483,23.968h-0.577l-0.288-0.499l-0.402-0.697l0.859-0.094l0.615-0.066l0.25,0.566l0.35,0.79H16.483
		L16.483,23.968z M12.955,18.855l0.289-0.5l0.402-0.697l0.51,0.697l0.366,0.5l-0.366,0.5l-0.51,0.698l-0.403-0.698L12.955,18.855z
		 M15.906,13.74h0.576h0.806l-0.349,0.791l-0.251,0.567l-0.614-0.066l-0.858-0.094l0.401-0.698L15.906,13.74z M21.235,13.74h0.576
		l0.289,0.5l0.401,0.697l-0.857,0.093l-0.617,0.067l-0.249-0.565l-0.351-0.792H21.235L21.235,13.74z M33.075,18.855l0.289-0.501
		l0.602-1.042l1.779,0.002l0.611,1.061l0.276,0.48l-0.274,0.479l-0.613,1.062h-1.779l-0.603-1.042L33.075,18.855z"/>
</g>
<g>
</g>
<g>
</g>
<g>
</g>
<g>
</g>
<g>
</g>
<g>
</g>
<g>
</g>
<g>
</g>
<g>
</g>
<g>
</g>
<g>
</g>
<g>
</g>
<g>
</g>
<g>
</g>
<g>
</g>
</svg>
