<?xml version="1.0" encoding="iso-8859-1"?>
<!-- Generator: Adobe Illustrator 16.0.0, SVG Export Plug-In . SVG Version: 6.00 Build 0)  -->
<!DOCTYPE svg PUBLIC "-//W3C//DTD SVG 1.1//EN" "http://www.w3.org/Graphics/SVG/1.1/DTD/svg11.dtd">
<svg version="1.1" id="Capa_1" xmlns="http://www.w3.org/2000/svg" xmlns:xlink="http://www.w3.org/1999/xlink" x="0px" y="0px"
	 width="34.628px" height="34.629px" viewBox="0 0 34.628 34.629" style="enable-background:new 0 0 34.628 34.629;"
	 xml:space="preserve">
<g>
	<path d="M32.126,25.291l-6.979-4.029v-7.893l6.979-4.029c0.238-0.139,0.32-0.443,0.184-0.684c-0.139-0.238-0.444-0.322-0.684-0.183
		l-6.978,4.028l-6.334-3.654l5.15-5.152c0.195-0.195,0.195-0.512,0-0.707c-0.193-0.195-0.512-0.195-0.707,0l-4.943,4.945V0.5
		c0-0.276-0.224-0.5-0.5-0.5s-0.5,0.224-0.5,0.5v7.434L11.87,2.989c-0.195-0.195-0.513-0.195-0.707,0
		c-0.195,0.195-0.195,0.512,0,0.707l5.152,5.151l-6.334,3.654L3.003,8.473C2.765,8.335,2.458,8.415,2.32,8.656
		C2.181,8.895,2.263,9.201,2.503,9.34l6.979,4.029v7.893l-6.979,4.029c-0.238,0.139-0.32,0.441-0.183,0.684
		c0.093,0.158,0.261,0.25,0.433,0.25c0.086,0,0.172-0.021,0.25-0.068l6.98-4.028l6.332,3.651l-5.153,5.154
		c-0.195,0.194-0.195,0.512,0,0.707c0.195,0.194,0.512,0.194,0.707,0l4.947-4.947v7.436c0,0.275,0.225,0.5,0.5,0.5
		s0.5-0.225,0.5-0.5v-7.436l4.944,4.947c0.1,0.098,0.228,0.146,0.354,0.146s0.257-0.05,0.354-0.146c0.195-0.195,0.195-0.513,0-0.707
		l-5.152-5.154l6.331-3.654l6.979,4.029c0.078,0.047,0.164,0.068,0.25,0.068c0.172,0,0.34-0.091,0.434-0.25
		C32.448,25.732,32.366,25.427,32.126,25.291z M24.148,20.682l-5.834-3.368l5.834-3.368V20.682z M17.815,16.449V9.713l5.835,3.367
		L17.815,16.449z M16.815,9.712v6.735l-5.835-3.368L16.815,9.712z M10.482,13.946l5.834,3.368l-5.834,3.368V13.946z M16.815,18.18
		v6.731l-5.831-3.365L16.815,18.18z M17.815,24.914v-6.732l5.831,3.365L17.815,24.914z"/>
</g>
<g>
</g>
<g>
</g>
<g>
</g>
<g>
</g>
<g>
</g>
<g>
</g>
<g>
</g>
<g>
</g>
<g>
</g>
<g>
</g>
<g>
</g>
<g>
</g>
<g>
</g>
<g>
</g>
<g>
</g>
</svg>
