<?xml version="1.0" encoding="iso-8859-1"?>
<!-- Generator: Adobe Illustrator 16.0.0, SVG Export Plug-In . SVG Version: 6.00 Build 0)  -->
<!DOCTYPE svg PUBLIC "-//W3C//DTD SVG 1.1//EN" "http://www.w3.org/Graphics/SVG/1.1/DTD/svg11.dtd">
<svg version="1.1" id="Capa_1" xmlns="http://www.w3.org/2000/svg" xmlns:xlink="http://www.w3.org/1999/xlink" x="0px" y="0px"
	 width="31.506px" height="31.506px" viewBox="0 0 31.506 31.506" style="enable-background:new 0 0 31.506 31.506;"
	 xml:space="preserve">
<g>
	<path d="M30.76,15.003h-2.43l1.367-1.368c0.293-0.293,0.293-0.768,0-1.062c-0.293-0.293-0.769-0.293-1.062,0l-2.429,2.43h-2.439
		l3.118-3.118c0.293-0.293,0.293-0.768,0-1.062c-0.293-0.293-0.769-0.293-1.062,0l-3.473,3.473c-0.58-2.624-2.687-4.678-5.339-5.179
		l3.845-3.845c0.293-0.293,0.293-0.768,0-1.061s-0.769-0.293-1.062,0l-3.29,3.29V5.053l2.18-2.179c0.293-0.293,0.293-0.768,0-1.061
		s-0.769-0.293-1.062,0L16.506,2.93V0.75c0-0.414-0.336-0.75-0.75-0.75s-0.75,0.336-0.75,0.75v2.68l-1.618-1.617
		c-0.293-0.293-0.768-0.293-1.061,0c-0.293,0.293-0.293,0.768,0,1.061l2.679,2.679v1.949l-3.29-3.29
		c-0.293-0.293-0.768-0.293-1.062,0c-0.293,0.293-0.293,0.768,0,1.061L14.5,9.118c-2.652,0.501-4.759,2.555-5.339,5.179
		l-3.473-3.473c-0.293-0.293-0.768-0.293-1.061,0c-0.293,0.294-0.293,0.769,0,1.062l3.118,3.118H5.305l-2.429-2.43
		c-0.293-0.293-0.769-0.293-1.062,0c-0.293,0.294-0.293,0.769,0,1.062l1.368,1.368h-2.43c-0.414,0-0.75,0.336-0.75,0.75
		s0.336,0.75,0.75,0.75h2.43l-1.368,1.367c-0.293,0.293-0.293,0.768,0,1.061c0.146,0.146,0.339,0.221,0.53,0.221
		s0.384-0.072,0.53-0.221l2.429-2.428h2.439l-3.118,3.118c-0.293,0.293-0.293,0.769,0,1.062c0.146,0.146,0.338,0.219,0.53,0.219
		c0.191,0,0.384-0.071,0.529-0.219l3.473-3.473c0.579,2.624,2.687,4.678,5.339,5.18l-3.845,3.844c-0.293,0.293-0.293,0.769,0,1.062
		s0.769,0.293,1.062,0l3.29-3.29v1.947l-2.679,2.679c-0.293,0.293-0.293,0.769,0,1.062s0.768,0.293,1.061,0l1.618-1.617v2.68
		c0,0.414,0.336,0.75,0.75,0.75s0.75-0.336,0.75-0.75v-2.18l1.118,1.117c0.146,0.146,0.338,0.221,0.528,0.221
		c0.192,0,0.385-0.073,0.53-0.221c0.293-0.293,0.293-0.769,0-1.062l-2.174-2.179v-2.449l3.29,3.29
		c0.146,0.146,0.338,0.222,0.529,0.222s0.385-0.074,0.529-0.222c0.293-0.293,0.293-0.769,0-1.062l-3.844-3.844
		c2.652-0.502,4.76-2.556,5.34-5.18l3.473,3.473c0.146,0.146,0.338,0.219,0.529,0.219s0.383-0.071,0.529-0.219
		c0.293-0.293,0.293-0.769,0-1.062l-3.118-3.118h2.438l2.43,2.43c0.146,0.146,0.338,0.219,0.529,0.219s0.385-0.071,0.529-0.219
		c0.293-0.293,0.293-0.769,0-1.062l-1.367-1.368h2.431c0.414,0,0.75-0.336,0.75-0.75S31.174,15.003,30.76,15.003z M16.51,20.936
		c-0.247,0.035-0.493,0.075-0.75,0.075c-0.257,0-0.503-0.04-0.75-0.075c-2.295-0.332-4.1-2.138-4.432-4.433
		c-0.031-0.211-0.062-0.423-0.065-0.643c-0.001-0.037-0.011-0.07-0.011-0.107s0.01-0.07,0.011-0.107
		c0.005-0.22,0.034-0.432,0.065-0.643c0.332-2.295,2.137-4.1,4.432-4.432c0.247-0.036,0.493-0.076,0.75-0.076
		c0.257,0,0.503,0.04,0.75,0.076c2.295,0.332,4.1,2.137,4.432,4.432c0.031,0.211,0.062,0.423,0.065,0.643
		c0.001,0.037,0.011,0.07,0.011,0.107s-0.01,0.07-0.011,0.107c-0.005,0.22-0.034,0.432-0.065,0.643
		C20.61,18.798,18.805,20.604,16.51,20.936z M27.3,26.232c0.293,0.293,0.293,0.769,0,1.062c-0.146,0.146-0.338,0.22-0.53,0.22
		c-0.19,0-0.384-0.072-0.529-0.22l-2.61-2.61c-0.293-0.293-0.293-0.769,0-1.062s0.769-0.293,1.062,0L27.3,26.232z M8.306,23.621
		c0.293,0.293,0.293,0.768,0,1.062l-2.613,2.609c-0.146,0.146-0.339,0.22-0.529,0.22c-0.192,0-0.385-0.071-0.53-0.22
		c-0.293-0.293-0.293-0.77,0-1.062l2.613-2.609C7.54,23.328,8.014,23.328,8.306,23.621z M4.633,5.965
		C4.341,5.671,4.341,5.196,4.634,4.903c0.294-0.293,0.77-0.291,1.062,0l2.609,2.615C8.597,7.811,8.597,8.287,8.304,8.58
		c-0.146,0.146-0.339,0.219-0.53,0.219s-0.385-0.073-0.53-0.22L4.633,5.965z M23.626,8.585c-0.293-0.293-0.293-0.77,0-1.061
		l2.614-2.611c0.295-0.294,0.77-0.292,1.062,0c0.293,0.293,0.293,0.77,0,1.061l-2.614,2.611c-0.146,0.146-0.34,0.22-0.529,0.22
		C23.964,8.805,23.774,8.732,23.626,8.585z"/>
</g>
<g>
</g>
<g>
</g>
<g>
</g>
<g>
</g>
<g>
</g>
<g>
</g>
<g>
</g>
<g>
</g>
<g>
</g>
<g>
</g>
<g>
</g>
<g>
</g>
<g>
</g>
<g>
</g>
<g>
</g>
</svg>
