<?xml version="1.0" encoding="iso-8859-1"?>
<!-- Generator: Adobe Illustrator 16.0.0, SVG Export Plug-In . SVG Version: 6.00 Build 0)  -->
<!DOCTYPE svg PUBLIC "-//W3C//DTD SVG 1.1//EN" "http://www.w3.org/Graphics/SVG/1.1/DTD/svg11.dtd">
<svg version="1.1" id="Capa_1" xmlns="http://www.w3.org/2000/svg" xmlns:xlink="http://www.w3.org/1999/xlink" x="0px" y="0px"
	 width="35.789px" height="35.789px" viewBox="0 0 35.789 35.789" style="enable-background:new 0 0 35.789 35.789;"
	 xml:space="preserve">
<g>
	<g>
		<path d="M35.29,17.395h-3.235l1.094-1.896c0.139-0.239,0.057-0.545-0.185-0.683c-0.239-0.139-0.545-0.056-0.682,0.183
			l-1.375,2.382l-0.945-1.637c-0.09-0.155-0.254-0.25-0.435-0.25h-2.192c-0.181,0-0.344,0.095-0.435,0.25l-0.953,1.651h-1.28
			l-2.953-5.114l0.642-1.109h1.906c0.178,0,0.344-0.095,0.432-0.25l1.1-1.902c0.088-0.155,0.088-0.346,0-0.5l-0.945-1.635
			l2.75,0.001c0.275,0,0.5-0.224,0.5-0.5c0-0.276-0.225-0.5-0.5-0.5l-2.188-0.001l1.618-2.803c0.14-0.239,0.058-0.545-0.182-0.683
			c-0.24-0.139-0.545-0.057-0.684,0.183l-1.619,2.803l-1.094-1.896c-0.139-0.239-0.443-0.322-0.684-0.183
			c-0.238,0.138-0.32,0.444-0.183,0.683l1.375,2.383h-1.894c-0.178,0-0.344,0.095-0.434,0.25l-1.098,1.9
			c-0.09,0.154-0.09,0.345,0,0.5l0.953,1.653l-0.639,1.108h-5.906L14.3,10.671l0.954-1.648c0.09-0.155,0.09-0.346,0-0.5l-1.1-1.902
			c-0.089-0.155-0.254-0.25-0.433-0.25h-1.885l1.373-2.381c0.138-0.239,0.056-0.545-0.184-0.683
			c-0.24-0.139-0.545-0.056-0.683,0.183l-1.094,1.897l-1.62-2.805c-0.139-0.24-0.445-0.321-0.683-0.183
			C8.706,2.538,8.624,2.844,8.762,3.083l1.619,2.803H8.195c-0.276,0-0.5,0.224-0.5,0.5c0,0.276,0.224,0.5,0.5,0.5h2.747L9.998,8.522
			c-0.089,0.155-0.089,0.345,0,0.5l1.099,1.902c0.089,0.155,0.254,0.25,0.433,0.25l0,0l1.905-0.001l0.642,1.111l-2.953,5.11H9.841
			l-0.953-1.651c-0.089-0.155-0.254-0.25-0.433-0.25H6.261c-0.179,0-0.344,0.095-0.433,0.25l-0.945,1.639L3.508,15
			c-0.139-0.24-0.445-0.321-0.683-0.183c-0.239,0.138-0.321,0.444-0.183,0.683l1.094,1.895H0.5c-0.276,0-0.5,0.224-0.5,0.5
			s0.224,0.5,0.5,0.5h3.237l-1.094,1.897c-0.138,0.237-0.056,0.545,0.183,0.683c0.079,0.045,0.165,0.067,0.25,0.067
			c0.173,0,0.341-0.09,0.434-0.25l1.375-2.383l0.943,1.636c0.089,0.155,0.254,0.25,0.433,0.25h2.195c0.179,0,0.344-0.095,0.433-0.25
			l0.952-1.65h1.283l2.953,5.113l-0.641,1.11l-1.908,0.001c-0.178,0-0.343,0.095-0.433,0.25l-1.098,1.897
			c-0.089,0.154-0.089,0.345,0,0.5l0.945,1.637H8.193c-0.276,0-0.5,0.226-0.5,0.5c0,0.276,0.224,0.5,0.5,0.5h2.189l-1.619,2.805
			c-0.138,0.237-0.056,0.545,0.183,0.683c0.079,0.045,0.165,0.067,0.25,0.067c0.173,0,0.341-0.089,0.434-0.25l1.619-2.807
			l1.096,1.897c0.093,0.161,0.261,0.25,0.434,0.25c0.085,0,0.171-0.021,0.25-0.067c0.239-0.138,0.321-0.442,0.183-0.683
			l-1.376-2.382l1.888,0.001l0,0c0.179,0,0.344-0.098,0.433-0.25l1.096-1.903c0.089-0.155,0.089-0.345,0-0.5l-0.952-1.647
			l0.641-1.11h5.906l0.641,1.11l-0.954,1.647c-0.091,0.155-0.091,0.346,0,0.5l1.098,1.903c0.091,0.154,0.255,0.25,0.435,0.25h1.889
			l-1.373,2.379c-0.139,0.239-0.057,0.545,0.184,0.683c0.08,0.045,0.166,0.067,0.25,0.067c0.174,0,0.342-0.09,0.435-0.25
			l1.094-1.896l1.619,2.806c0.092,0.161,0.26,0.25,0.435,0.25c0.084,0,0.17-0.021,0.25-0.067c0.237-0.138,0.319-0.444,0.182-0.683
			l-1.619-2.807H27.6c0.276,0,0.5-0.224,0.5-0.5c0-0.274-0.224-0.5-0.5-0.5h-2.748l0.942-1.635c0.088-0.154,0.088-0.345,0-0.5
			l-1.099-1.903c-0.09-0.153-0.254-0.25-0.434-0.25l0,0l-1.904,0.004l-0.641-1.11l2.951-5.111h1.281l0.951,1.649
			c0.09,0.154,0.254,0.25,0.434,0.25l2.197,0.002l0,0c0.18,0,0.344-0.096,0.434-0.25l0.943-1.638l1.375,2.384
			c0.094,0.161,0.262,0.25,0.434,0.25c0.086,0,0.172-0.021,0.25-0.067c0.24-0.138,0.322-0.444,0.184-0.683l-1.098-1.896h3.236
			c0.275,0,0.5-0.224,0.5-0.5S35.566,17.395,35.29,17.395z M30.049,17.895l-0.289,0.5l-0.52,0.9l-1.619-0.001l-0.518-0.899
			l-0.289-0.5l0.287-0.499l0.521-0.902h1.617l0.521,0.902L30.049,17.895z M23.801,17.895l-0.289,0.5l-2.375,4.114l-0.289,0.5H20.27
			h-4.75h-0.577l-0.289-0.5l-2.375-4.114l-0.289-0.5l0.289-0.5l2.376-4.114l0.289-0.5h0.577h4.751h0.578l0.289,0.5l2.373,4.114
			L23.801,17.895z M23.395,7.371h0.578l0.289,0.5l0.521,0.899l-0.81,1.402h-1.041h-0.578l-0.289-0.5l-0.521-0.903l0.81-1.4
			L23.395,7.371z M11.818,10.17l-0.81-1.402l0.521-0.902l0.288-0.5h0.578h1.04l0.811,1.402l-0.521,0.899l-0.29,0.5h-0.576
			L11.818,10.17z M8.975,17.895l-0.289,0.5l-0.521,0.901H6.547l-0.518-0.901l-0.288-0.5l0.289-0.5l0.52-0.901h1.617l0.52,0.901
			L8.975,17.895z M12.395,28.42h-0.58l-0.288-0.498l-0.521-0.903l0.809-1.397l1.042-0.001h0.576l0.29,0.501l0.519,0.897
			l-0.808,1.402L12.395,28.42z M23.971,25.619l0.809,1.4l-0.518,0.9l-0.289,0.501h-0.578h-1.041l-0.811-1.402l0.521-0.898l0.289-0.5
			h0.578L23.971,25.619z"/>
		<path d="M19.982,14.28h-0.578h-3.019h-0.577l-0.289,0.5l-1.509,2.614l-0.289,0.5l0.289,0.5l1.51,2.614l0.289,0.5h0.577h3.018
			h0.578l0.289-0.5l1.508-2.614l0.289-0.5l-0.289-0.5l-1.508-2.614L19.982,14.28z M20.915,17.895l-0.289,0.5l-0.933,1.614
			l-0.289,0.5h-0.577h-1.865h-0.577l-0.289-0.5l-0.931-1.614l-0.289-0.5l0.289-0.5l0.932-1.614l0.289-0.5h0.577h1.864h0.577
			l0.289,0.5l0.932,1.614L20.915,17.895z"/>
	</g>
</g>
<g>
</g>
<g>
</g>
<g>
</g>
<g>
</g>
<g>
</g>
<g>
</g>
<g>
</g>
<g>
</g>
<g>
</g>
<g>
</g>
<g>
</g>
<g>
</g>
<g>
</g>
<g>
</g>
<g>
</g>
</svg>
