<?xml version="1.0" encoding="iso-8859-1"?>
<!-- Generator: Adobe Illustrator 16.0.0, SVG Export Plug-In . SVG Version: 6.00 Build 0)  -->
<!DOCTYPE svg PUBLIC "-//W3C//DTD SVG 1.1//EN" "http://www.w3.org/Graphics/SVG/1.1/DTD/svg11.dtd">
<svg version="1.1" id="Capa_1" xmlns="http://www.w3.org/2000/svg" xmlns:xlink="http://www.w3.org/1999/xlink" x="0px" y="0px"
	 width="34.357px" height="34.356px" viewBox="0 0 34.357 34.356" style="enable-background:new 0 0 34.357 34.356;"
	 xml:space="preserve">
<g>
	<path d="M14.818,20.429l-5.187,5.186c-0.132,0.133-0.305,0.198-0.478,0.198s-0.347-0.065-0.478-0.198
		c-0.265-0.264-0.265-0.693,0-0.956l5.187-5.187c0.265-0.265,0.693-0.265,0.957,0C15.083,19.736,15.083,20.164,14.818,20.429z
		 M19.53,14.759c0.132,0.133,0.305,0.197,0.478,0.197s0.347-0.064,0.479-0.197l5.186-5.186c0.266-0.264,0.266-0.693,0-0.958
		c-0.265-0.265-0.693-0.265-0.958,0L19.527,13.8C19.265,14.066,19.265,14.493,19.53,14.759z M13.861,14.759
		c0.132,0.133,0.305,0.197,0.478,0.197s0.347-0.064,0.478-0.197c0.265-0.266,0.265-0.692,0-0.958L9.63,8.615
		c-0.264-0.265-0.692-0.265-0.957,0s-0.265,0.693,0,0.958L13.861,14.759z M20.487,19.472c-0.265-0.265-0.693-0.265-0.957,0
		c-0.265,0.265-0.265,0.692,0,0.957l5.186,5.186c0.132,0.133,0.306,0.198,0.479,0.198s0.346-0.065,0.478-0.198
		c0.266-0.264,0.266-0.693,0-0.956L20.487,19.472z M26.791,17.791h-4.047l4.869,4.87c0.264,0.264,0.264,0.693,0,0.958
		c-0.133,0.132-0.306,0.196-0.479,0.196s-0.346-0.064-0.479-0.196l-5.826-5.828h-2.977v2.489l6.071,6.071
		c0.264,0.262,0.264,0.691,0,0.956c-0.133,0.132-0.306,0.197-0.479,0.197s-0.346-0.065-0.479-0.197l-5.112-5.113v4.661l3.41,3.412
		l-4.089,4.089l-4.088-4.089l3.411-3.412v-4.169l-4.623,4.623c-0.265,0.265-0.692,0.265-0.957,0c-0.265-0.265-0.265-0.693,0-0.958
		l5.58-5.58v-2.978h-2.488l-5.825,5.827c-0.132,0.132-0.305,0.196-0.478,0.196s-0.347-0.064-0.478-0.196
		c-0.265-0.265-0.265-0.694,0-0.958l4.866-4.869H7.563l-3.474,3.474L0,17.18l4.089-4.088l3.349,3.349h4.66l-4.867-4.868
		c-0.265-0.265-0.265-0.693,0-0.958c0.264-0.265,0.692-0.265,0.957,0l5.826,5.826H16.5v-2.977l-5.579-5.581
		c-0.265-0.264-0.265-0.692,0-0.957c0.265-0.265,0.693-0.265,0.957,0l4.623,4.622V7.5L13.09,4.09L17.179,0l4.088,4.09L17.855,7.5
		v4.536l5.112-5.112c0.265-0.265,0.694-0.265,0.959,0c0.265,0.265,0.265,0.694,0,0.957l-6.071,6.071v2.487h2.977l5.827-5.826
		c0.264-0.265,0.691-0.265,0.956,0c0.265,0.265,0.265,0.692,0,0.957l-4.867,4.869h4.171l3.349-3.349l4.09,4.088l-4.09,4.088
		L26.791,17.791z M28.092,17.178l0.614,0.614l1.559,1.559l1.559-1.559l0.614-0.614l-0.738-0.74l-1.435-1.433l-1.432,1.433
		L28.092,17.178z M6.259,17.178l-0.74-0.74l-1.433-1.433l-1.433,1.433l-0.74,0.74l0.614,0.614l1.559,1.559l1.56-1.559L6.259,17.178z
		 M17.851,28.77l-0.677-0.677l-0.677,0.677l-1.496,1.498l1.496,1.495l0.677,0.678l0.677-0.678l1.496-1.495L17.851,28.77z
		 M17.851,5.584l1.496-1.496L17.851,2.59l-0.677-0.676L16.498,2.59l-1.496,1.498l1.496,1.496l0.677,0.677L17.851,5.584z"/>
</g>
<g>
</g>
<g>
</g>
<g>
</g>
<g>
</g>
<g>
</g>
<g>
</g>
<g>
</g>
<g>
</g>
<g>
</g>
<g>
</g>
<g>
</g>
<g>
</g>
<g>
</g>
<g>
</g>
<g>
</g>
</svg>
