<?xml version="1.0" encoding="iso-8859-1"?>
<!-- Generator: Adobe Illustrator 16.0.0, SVG Export Plug-In . SVG Version: 6.00 Build 0)  -->
<!DOCTYPE svg PUBLIC "-//W3C//DTD SVG 1.1//EN" "http://www.w3.org/Graphics/SVG/1.1/DTD/svg11.dtd">
<svg version="1.1" id="Capa_1" xmlns="http://www.w3.org/2000/svg" xmlns:xlink="http://www.w3.org/1999/xlink" x="0px" y="0px"
	 width="36.282px" height="36.282px" viewBox="0 0 36.282 36.282" style="enable-background:new 0 0 36.282 36.282;"
	 xml:space="preserve">
<g>
	<path d="M9.466,8.734c0-0.413,0.336-0.75,0.75-0.75l2.062,0.001l1.031-1.787c0.206-0.357,0.665-0.482,1.023-0.274
		c0.358,0.207,0.481,0.665,0.274,1.024l-1.463,2.537l-2.931-0.001C9.802,9.484,9.466,9.148,9.466,8.734z M26.069,26.797l-2.93-0.002
		l-1.463,2.537c-0.207,0.359-0.084,0.816,0.272,1.023c0.118,0.068,0.248,0.102,0.375,0.102c0.26,0,0.512-0.135,0.649-0.375
		l1.029-1.787l2.062,0.002c0.414,0,0.75-0.336,0.75-0.75S26.483,26.797,26.069,26.797z M23.14,9.487h2.93
		c0.414,0,0.75-0.337,0.75-0.75c0-0.414-0.336-0.75-0.75-0.75h-2.064l-1.03-1.789c-0.206-0.356-0.665-0.481-1.023-0.273
		c-0.357,0.207-0.48,0.666-0.273,1.023L23.14,9.487z M13.145,26.797h-2.931c-0.414,0-0.75,0.336-0.75,0.75s0.336,0.75,0.75,0.75
		h2.064l1.032,1.787c0.14,0.24,0.392,0.375,0.649,0.375c0.127,0,0.257-0.031,0.375-0.102c0.357-0.207,0.48-0.666,0.273-1.023
		L13.145,26.797z M5.658,20.954c0.118,0.067,0.248,0.101,0.375,0.101c0.26,0,0.512-0.136,0.649-0.375l1.464-2.538L6.68,15.604
		c-0.207-0.357-0.664-0.482-1.024-0.273c-0.357,0.207-0.48,0.666-0.273,1.023l1.03,1.788L5.384,19.93
		C5.176,20.288,5.299,20.746,5.658,20.954z M30.625,15.329c-0.359-0.207-0.817-0.082-1.023,0.274l-1.465,2.537l1.466,2.538
		c0.139,0.24,0.391,0.375,0.649,0.375c0.127,0,0.257-0.031,0.373-0.102c0.358-0.207,0.481-0.666,0.274-1.023l-1.032-1.788
		l1.031-1.787C31.107,15.995,30.984,15.538,30.625,15.329z M33.855,27.213c-0.139,0.24-0.391,0.375-0.649,0.375
		c-0.127,0-0.256-0.031-0.375-0.102l-0.854-0.494l-2.012,1.16c-0.116,0.066-0.246,0.102-0.375,0.102
		c-0.131,0-0.26-0.033-0.375-0.102l-2.385-1.377c-0.231-0.133-0.375-0.381-0.375-0.648v-0.604h-4.049l-2.027,3.51l0.521,0.301
		c0.232,0.135,0.375,0.381,0.375,0.648l0.001,2.754c0,0.269-0.144,0.516-0.376,0.648l-2.01,1.157v0.99c0,0.414-0.336,0.75-0.75,0.75
		s-0.75-0.336-0.75-0.75v-0.99l-2.012-1.159c-0.231-0.134-0.375-0.382-0.375-0.648l0.002-2.754c0-0.269,0.144-0.516,0.375-0.648
		l0.521-0.301l-2.025-3.508H9.831v0.602c0,0.27-0.144,0.518-0.375,0.648l-2.388,1.379c-0.116,0.066-0.245,0.102-0.375,0.102
		c-0.13,0-0.259-0.033-0.375-0.102l-2.011-1.16L3.45,27.488c-0.119,0.066-0.248,0.102-0.375,0.102c-0.26,0-0.512-0.137-0.649-0.375
		c-0.207-0.359-0.084-0.818,0.274-1.025l0.857-0.496l0.001-2.317c0-0.271,0.144-0.517,0.375-0.649l2.388-1.377
		c0.231-0.135,0.518-0.135,0.75,0l0.521,0.301l2.022-3.506l-2.023-3.507L7.07,14.938c-0.115,0.067-0.244,0.101-0.375,0.101
		c-0.13,0-0.259-0.032-0.375-0.101l-2.385-1.377c-0.232-0.134-0.375-0.382-0.375-0.649l0.002-2.319l-0.859-0.496
		C2.346,9.89,2.223,9.431,2.43,9.073C2.636,8.716,3.095,8.592,3.453,8.8l0.858,0.494l2.009-1.16c0.23-0.135,0.519-0.135,0.75,0
		l2.387,1.379c0.231,0.134,0.375,0.382,0.375,0.648v0.601h4.05l2.022-3.505l-0.522-0.303c-0.232-0.134-0.375-0.381-0.375-0.649
		l0.002-2.755c0-0.268,0.144-0.516,0.375-0.648l2.01-1.16V0.75c0-0.414,0.336-0.75,0.75-0.75s0.75,0.336,0.75,0.75v0.99l2.011,1.158
		c0.231,0.135,0.375,0.383,0.375,0.65l-0.003,2.755c0,0.269-0.144,0.515-0.375,0.647l-0.52,0.302l2.024,3.508h4.045v-0.602
		c0-0.269,0.145-0.517,0.375-0.649l2.388-1.378c0.231-0.135,0.519-0.135,0.75,0l2.012,1.16l0.856-0.496
		c0.359-0.209,0.818-0.082,1.024,0.275c0.207,0.357,0.084,0.816-0.274,1.023l-0.857,0.496v2.32c0,0.268-0.145,0.516-0.375,0.648
		l-2.389,1.378c-0.114,0.067-0.243,0.101-0.375,0.101c-0.129,0-0.26-0.033-0.375-0.101l-0.52-0.301l-2.023,3.507l2.024,3.507
		l0.519-0.299c0.231-0.135,0.52-0.135,0.75-0.002l2.389,1.375c0.23,0.135,0.376,0.383,0.376,0.65l-0.002,2.318l0.856,0.494
		C33.939,26.396,34.062,26.855,33.855,27.213z M31.224,24.829l0.001-1.021l-1.639-0.942l-0.573,0.332
		c-0.056,0.063-0.116,0.125-0.193,0.17c-0.027,0.017-0.059,0.012-0.086,0.022c-0.035,0.015-0.07,0.019-0.105,0.027l-0.674,0.389
		v0.709c0.021,0.058,0.029,0.117,0.037,0.178c0.002,0.027,0.018,0.054,0.018,0.082c0,0.093-0.022,0.177-0.053,0.259v0.662
		l1.635,0.942l0.886-0.512l0.748-0.432L31.224,24.829L31.224,24.829z M25.482,19.088c-0.095,0.734-0.295,1.434-0.589,2.086
		l2.312,1.334l0.188-0.109L25.482,19.088z M18.143,33.246l0.749-0.434l0.886-0.51l-0.001-1.89l-0.638-0.367
		c-0.062-0.019-0.125-0.016-0.183-0.049c-0.025-0.017-0.041-0.039-0.064-0.058c-0.044-0.032-0.086-0.065-0.12-0.106l-0.63-0.36
		l-0.621,0.357c-0.037,0.043-0.082,0.078-0.129,0.113c-0.021,0.018-0.037,0.039-0.062,0.055c-0.06,0.035-0.125,0.035-0.188,0.053
		l-0.633,0.363l-0.001,1.887l0.886,0.512L18.143,33.246z M18.14,3.036L17.392,3.47l-0.885,0.511l-0.002,1.888l0.574,0.332
		l0.312,0.18l0.134,0.076l0.616,0.355l0.625-0.361l0.125-0.072l0.304-0.176l0.579-0.334l0.002-1.888l-0.885-0.51L18.14,3.036z
		 M23.591,15.862c-0.195-0.467-0.454-0.897-0.759-1.296c-0.937-1.227-2.338-2.075-3.94-2.28c-0.246-0.03-0.495-0.053-0.75-0.053
		s-0.504,0.021-0.75,0.053c-1.604,0.205-3.006,1.055-3.941,2.28c-0.304,0.396-0.562,0.829-0.758,1.296
		c-0.295,0.701-0.459,1.473-0.459,2.279s0.164,1.578,0.459,2.279c0.195,0.467,0.454,0.898,0.758,1.297
		c0.937,1.227,2.338,2.074,3.941,2.279c0.246,0.029,0.495,0.053,0.75,0.053s0.504-0.021,0.75-0.053
		c1.604-0.205,3.006-1.055,3.94-2.279c0.305-0.396,0.562-0.83,0.759-1.297c0.295-0.701,0.459-1.473,0.459-2.279
		S23.886,16.563,23.591,15.862z M27.395,13.885l-0.19-0.11l-2.311,1.334c0.294,0.651,0.495,1.353,0.589,2.087L27.395,13.885z
		 M30.475,10.155l-0.887-0.511l-1.637,0.944v0.65v0.371v0.161l0.002,0.704l0.615,0.355c0.057,0.011,0.112,0.033,0.168,0.058
		c0.026,0.012,0.057,0.013,0.082,0.026c0.078,0.047,0.141,0.107,0.196,0.175l0.568,0.329l1.639-0.943v-1.021v-0.867L30.475,10.155z
		 M22.623,12.257c0.578,0.44,1.09,0.965,1.518,1.555l2.312-1.336v-0.219H22.623z M19.081,7.998l-0.189,0.109v2.662
		c0.735,0.074,1.44,0.26,2.1,0.533L19.081,7.998z M15.295,11.303c0.656-0.273,1.359-0.458,2.096-0.532V8.11l-0.189-0.109
		L15.295,11.303z M9.83,12.256v0.22l2.313,1.336c0.427-0.591,0.938-1.114,1.517-1.556H9.83z M7.269,13.089l0.312-0.181l0.134-0.076
		l0.614-0.355v-0.723v-0.146l0.002-0.354v-0.667L6.693,9.642l-0.885,0.512l-0.748,0.434L5.06,11.453l-0.001,1.022l1.635,0.942
		L7.269,13.089z M10.801,17.196c0.094-0.734,0.295-1.436,0.589-2.087l-2.311-1.334l-0.189,0.11L10.801,17.196z M8.891,22.398
		l0.188,0.109l2.311-1.334c-0.294-0.652-0.494-1.352-0.589-2.084L8.891,22.398z M5.809,26.127l0.886,0.512l1.637-0.945v-0.659
		c-0.029-0.082-0.053-0.166-0.053-0.259c0-0.028,0.014-0.055,0.018-0.084c0.007-0.059,0.015-0.116,0.035-0.172L8.33,23.807
		L7.664,23.42c-0.039-0.01-0.076-0.016-0.112-0.029c-0.028-0.014-0.06-0.008-0.085-0.022c-0.08-0.045-0.145-0.106-0.199-0.177
		L6.7,22.864l-1.638,0.942l-0.001,1.021v0.865L5.809,26.127z M13.66,24.025c-0.578-0.44-1.09-0.965-1.517-1.555L9.83,23.807v0.219
		H13.66z M17.204,28.284l0.188-0.108v-2.664c-0.736-0.074-1.439-0.259-2.098-0.531L17.204,28.284z M20.991,24.979
		c-0.658,0.273-1.363,0.459-2.1,0.533v2.662l0.189,0.109L20.991,24.979z M26.453,24.025v-0.219l-2.312-1.336
		c-0.428,0.59-0.938,1.111-1.518,1.555H26.453z"/>
</g>
<g>
</g>
<g>
</g>
<g>
</g>
<g>
</g>
<g>
</g>
<g>
</g>
<g>
</g>
<g>
</g>
<g>
</g>
<g>
</g>
<g>
</g>
<g>
</g>
<g>
</g>
<g>
</g>
<g>
</g>
</svg>
