<?xml version="1.0" encoding="iso-8859-1"?>
<!-- Generator: Adobe Illustrator 16.0.0, SVG Export Plug-In . SVG Version: 6.00 Build 0)  -->
<!DOCTYPE svg PUBLIC "-//W3C//DTD SVG 1.1//EN" "http://www.w3.org/Graphics/SVG/1.1/DTD/svg11.dtd">
<svg version="1.1" id="Capa_1" xmlns="http://www.w3.org/2000/svg" xmlns:xlink="http://www.w3.org/1999/xlink" x="0px" y="0px"
	 width="31.504px" height="31.504px" viewBox="0 0 31.504 31.504" style="enable-background:new 0 0 31.504 31.504;"
	 xml:space="preserve">
<g>
	<path d="M30.756,15.002h-6.992l3.119-3.118c0.293-0.293,0.293-0.768,0-1.062c-0.293-0.293-0.77-0.293-1.062,0l-3.471,3.473
		c-0.58-2.624-2.687-4.678-5.339-5.179l3.843-3.845c0.293-0.293,0.293-0.768,0-1.061s-0.769-0.293-1.062,0L16.503,7.5V0.75
		c0-0.414-0.336-0.75-0.75-0.75s-0.75,0.336-0.75,0.75V7.5l-3.29-3.29c-0.293-0.293-0.768-0.293-1.061,0s-0.293,0.768,0,1.061
		l3.843,3.845c-2.652,0.501-4.759,2.555-5.339,5.179l-3.471-3.473c-0.293-0.293-0.768-0.293-1.061,0
		c-0.293,0.294-0.293,0.769,0,1.062l3.118,3.118h-6.99c-0.414,0-0.75,0.336-0.75,0.75s0.336,0.75,0.75,0.75h6.991L4.625,19.62
		c-0.293,0.293-0.293,0.768,0,1.062c0.146,0.146,0.338,0.219,0.53,0.219c0.192,0,0.384-0.071,0.53-0.219l3.471-3.473
		c0.58,2.624,2.687,4.678,5.339,5.179l-3.843,3.845c-0.293,0.293-0.293,0.769,0,1.062s0.768,0.293,1.061,0l3.29-3.29v6.75
		c0,0.414,0.336,0.75,0.75,0.75s0.75-0.336,0.75-0.75v-6.75l3.291,3.29c0.146,0.146,0.338,0.22,0.528,0.22
		c0.191,0,0.386-0.072,0.531-0.22c0.293-0.293,0.293-0.769,0-1.062l-3.844-3.845c2.651-0.501,4.76-2.555,5.338-5.179l3.473,3.473
		c0.146,0.146,0.338,0.219,0.529,0.219s0.385-0.071,0.529-0.219c0.293-0.294,0.293-0.769,0-1.062l-3.117-3.118h6.99
		c0.414,0,0.75-0.336,0.75-0.75S31.17,15.002,30.756,15.002z M16.506,20.934c-0.248,0.036-0.494,0.076-0.75,0.076
		s-0.503-0.04-0.75-0.076c-2.295-0.332-4.101-2.137-4.433-4.432c-0.03-0.211-0.06-0.423-0.064-0.641
		c-0.001-0.037-0.011-0.072-0.011-0.109s0.01-0.072,0.011-0.109c0.004-0.218,0.034-0.43,0.064-0.641
		c0.332-2.295,2.137-4.1,4.433-4.432c0.247-0.036,0.493-0.076,0.75-0.076c0.257,0,0.502,0.04,0.75,0.076
		c2.295,0.332,4.102,2.137,4.434,4.432c0.029,0.211,0.06,0.423,0.062,0.641c0.002,0.037,0.012,0.072,0.012,0.109
		s-0.01,0.072-0.012,0.109c-0.004,0.218-0.033,0.43-0.062,0.641C20.605,18.797,18.801,20.602,16.506,20.934z M27.297,26.23
		c0.293,0.293,0.293,0.77,0,1.062c-0.146,0.146-0.338,0.22-0.531,0.22c-0.191,0-0.383-0.071-0.529-0.22l-2.61-2.609
		c-0.293-0.293-0.293-0.77,0-1.062s0.769-0.293,1.062,0L27.297,26.23z M8.3,23.62c0.293,0.293,0.293,0.768,0,1.062l-2.612,2.61
		c-0.146,0.146-0.338,0.22-0.53,0.22c-0.192,0-0.384-0.072-0.53-0.22c-0.293-0.293-0.293-0.769,0-1.062l2.612-2.61
		C7.533,23.327,8.007,23.327,8.3,23.62z M4.628,5.964C4.336,5.671,4.336,5.195,4.629,4.902c0.292-0.293,0.768-0.293,1.061,0
		l2.611,2.615C8.593,7.81,8.593,8.286,8.3,8.578c-0.146,0.146-0.338,0.22-0.53,0.22s-0.384-0.073-0.531-0.22L4.628,5.964z
		 M23.621,8.584c-0.291-0.293-0.291-0.77,0-1.061l2.615-2.611c0.291-0.293,0.768-0.293,1.061,0s0.293,0.77,0,1.061l-2.615,2.611
		c-0.145,0.146-0.338,0.22-0.529,0.22C23.962,8.804,23.77,8.731,23.621,8.584z"/>
</g>
<g>
</g>
<g>
</g>
<g>
</g>
<g>
</g>
<g>
</g>
<g>
</g>
<g>
</g>
<g>
</g>
<g>
</g>
<g>
</g>
<g>
</g>
<g>
</g>
<g>
</g>
<g>
</g>
<g>
</g>
</svg>
