<?xml version="1.0" encoding="iso-8859-1"?>
<!-- Generator: Adobe Illustrator 16.0.0, SVG Export Plug-In . SVG Version: 6.00 Build 0)  -->
<!DOCTYPE svg PUBLIC "-//W3C//DTD SVG 1.1//EN" "http://www.w3.org/Graphics/SVG/1.1/DTD/svg11.dtd">
<svg version="1.1" id="Capa_1" xmlns="http://www.w3.org/2000/svg" xmlns:xlink="http://www.w3.org/1999/xlink" x="0px" y="0px"
	 width="32.292px" height="32.292px" viewBox="0 0 32.292 32.292" style="enable-background:new 0 0 32.292 32.292;"
	 xml:space="preserve">
<g>
	<g>
		<path d="M31.771,15.625h-6.173l3.878-3.878c0.203-0.203,0.203-0.533,0-0.737c-0.204-0.203-0.533-0.203-0.737,0l-4.549,4.55
			l-1.934-4.787l5.309-5.309c0.204-0.204,0.204-0.534,0-0.736c-0.201-0.204-0.532-0.204-0.736,0l-5.344,5.343l-4.719-2.001
			l4.517-4.52c0.201-0.204,0.201-0.533,0-0.737c-0.203-0.203-0.535-0.204-0.736,0l-3.88,3.883V0.521C16.667,0.234,16.432,0,16.146,0
			c-0.286,0-0.521,0.234-0.521,0.521v6.172l-3.878-3.877c-0.203-0.204-0.533-0.204-0.736,0c-0.203,0.203-0.203,0.533,0,0.736
			l4.551,4.552l-4.785,1.936L5.464,4.729c-0.203-0.204-0.534-0.204-0.736,0c-0.202,0.203-0.202,0.533,0,0.736l5.345,5.345
			l-2.004,4.716L3.55,11.013c-0.204-0.203-0.535-0.204-0.737,0c-0.204,0.204-0.204,0.533,0,0.737l3.881,3.875H0.521
			C0.234,15.625,0,15.859,0,16.146s0.234,0.521,0.521,0.521h6.173l-3.878,3.878c-0.203,0.203-0.203,0.533,0,0.736
			c0.102,0.102,0.237,0.153,0.369,0.153c0.134,0,0.266-0.052,0.369-0.153l4.552-4.551l1.935,4.786l-5.311,5.312
			c-0.203,0.203-0.203,0.534,0,0.736c0.102,0.104,0.236,0.152,0.369,0.152c0.134,0,0.267-0.051,0.369-0.152l5.344-5.344l4.717,2
			l-4.515,4.52c-0.203,0.204-0.203,0.535,0,0.737c0.202,0.202,0.533,0.203,0.736,0l3.875-3.883v6.177
			c0,0.287,0.234,0.521,0.521,0.521c0.287,0,0.521-0.233,0.521-0.521v-6.172l3.879,3.877c0.102,0.102,0.235,0.152,0.368,0.152
			c0.132,0,0.267-0.051,0.368-0.152c0.202-0.203,0.202-0.533,0-0.736l-4.551-4.552l4.787-1.937l5.311,5.312
			c0.103,0.104,0.237,0.152,0.369,0.152c0.135,0,0.268-0.051,0.368-0.152c0.204-0.202,0.204-0.533,0-0.736l-5.346-5.346l2.005-4.713
			l4.519,4.514c0.103,0.1,0.234,0.152,0.369,0.152c0.133,0,0.267-0.053,0.368-0.152c0.203-0.205,0.203-0.535,0-0.738l-3.886-3.878
			h6.177c0.286,0,0.521-0.233,0.521-0.521S32.057,15.625,31.771,15.625z M23.132,16.667l-1.709,4.019l-0.246,0.58l-0.46,0.186
			l-4.051,1.639l-0.583,0.236l-0.459-0.196l-4.02-1.706l-0.577-0.244l-0.188-0.464l-1.638-4.049l-0.236-0.584l0.196-0.457
			l1.708-4.021l0.246-0.578l0.461-0.187l4.049-1.638l0.582-0.235l0.459,0.196l4.022,1.706l0.578,0.246l0.188,0.461l1.636,4.05
			l0.236,0.584L23.132,16.667z"/>
		<path d="M20.54,12.49l-0.191-0.474l-0.568-0.241l-3.113-1.319l-0.471-0.2l-0.57,0.229l-3.134,1.267l-0.473,0.191l-0.239,0.568
			l-1.323,3.113l-0.199,0.471l0.23,0.57l1.27,3.135l0.193,0.476l0.566,0.239l3.11,1.319l0.471,0.2l0.571-0.229l3.136-1.269
			l0.474-0.19l0.239-0.567l1.323-3.114l0.199-0.47l-0.23-0.57L20.54,12.49z M20.708,16.667l-0.985,2.319l-0.235,0.557l-0.483,0.196
			l-2.337,0.944l-0.561,0.226l-0.481-0.204l-2.318-0.982l-0.556-0.236l-0.196-0.484l-0.945-2.335l-0.229-0.562l0.204-0.479
			l0.983-2.319l0.238-0.558l0.483-0.196l2.336-0.943l0.56-0.226l0.481,0.205l2.32,0.983l0.56,0.236l0.195,0.482l0.941,2.336
			l0.229,0.562L20.708,16.667z"/>
	</g>
</g>
<g>
</g>
<g>
</g>
<g>
</g>
<g>
</g>
<g>
</g>
<g>
</g>
<g>
</g>
<g>
</g>
<g>
</g>
<g>
</g>
<g>
</g>
<g>
</g>
<g>
</g>
<g>
</g>
<g>
</g>
</svg>
