<?xml version="1.0" encoding="iso-8859-1"?>
<!-- Generator: Adobe Illustrator 16.0.0, SVG Export Plug-In . SVG Version: 6.00 Build 0)  -->
<!DOCTYPE svg PUBLIC "-//W3C//DTD SVG 1.1//EN" "http://www.w3.org/Graphics/SVG/1.1/DTD/svg11.dtd">
<svg version="1.1" id="Capa_1" xmlns="http://www.w3.org/2000/svg" xmlns:xlink="http://www.w3.org/1999/xlink" x="0px" y="0px"
	 width="40.044px" height="40.044px" viewBox="0 0 40.044 40.044" style="enable-background:new 0 0 40.044 40.044;"
	 xml:space="preserve">
<g>
	<path d="M33.246,27.055l-5.463-3.152l5.965-1.597c0.278-0.074,0.442-0.36,0.368-0.638c-0.073-0.277-0.357-0.442-0.637-0.369
		l-6.691,1.793l-2.248-3.07l2.248-3.068l6.689,1.794c0.045,0.013,0.092,0.018,0.137,0.018c0.23,0,0.44-0.152,0.501-0.386
		c0.074-0.278-0.09-0.564-0.369-0.636l-5.961-1.601l5.459-3.151l1.8,1.039l2.32-1.338l-0.002-2.676l-2.318-1.339l-2.319,1.338v2.074
		l-5.462,3.155l1.599-5.966c0.073-0.279-0.092-0.563-0.368-0.637c-0.278-0.075-0.563,0.089-0.638,0.368l-1.794,6.694l-3.781,0.412
		l-1.536-3.488l4.898-4.897c0.204-0.203,0.204-0.534,0-0.736c-0.201-0.204-0.533-0.204-0.736,0l-4.362,4.363V5.053l1.798-1.038
		V1.339L20.023,0l-2.321,1.339l0.002,2.676l1.798,1.038v6.308l-4.367-4.368c-0.204-0.204-0.534-0.204-0.737,0
		c-0.203,0.203-0.203,0.533,0,0.736l4.901,4.901l-1.536,3.481l-3.782-0.412l-1.793-6.692c-0.074-0.278-0.359-0.442-0.637-0.368
		c-0.278,0.074-0.443,0.36-0.369,0.637l1.597,5.962L7.32,12.086l-0.001-2.075l-2.32-1.34l-2.319,1.34v2.676l2.319,1.339l1.799-1.039
		l5.46,3.152l-5.963,1.598c-0.278,0.073-0.443,0.36-0.369,0.636c0.062,0.234,0.273,0.387,0.502,0.387
		c0.045,0,0.09-0.005,0.136-0.018l6.691-1.793l2.247,3.068l-2.248,3.071l-6.693-1.794c-0.277-0.074-0.562,0.09-0.638,0.368
		c-0.074,0.279,0.091,0.563,0.369,0.638l5.965,1.6l-5.46,3.15l-1.798-1.037l-2.32,1.342l0.001,2.678l2.319,1.339l2.32-1.339v-2.075
		l5.457-3.151l-1.598,5.962c-0.074,0.278,0.091,0.563,0.369,0.638c0.045,0.013,0.091,0.018,0.136,0.018
		c0.23,0,0.439-0.153,0.502-0.386l1.794-6.692l3.784-0.412l1.535,3.48l-4.9,4.9c-0.203,0.203-0.203,0.533,0,0.736
		c0.103,0.103,0.236,0.151,0.369,0.151c0.133,0,0.267-0.051,0.369-0.151l4.366-4.368v6.309l-1.798,1.038l0.001,2.678l2.32,1.337
		l2.32-1.339v-2.676l-1.802-1.04v-6.303l4.364,4.362c0.203,0.203,0.535,0.203,0.736,0c0.204-0.202,0.204-0.533,0-0.736l-4.898-4.895
		l1.536-3.484l3.781,0.413l1.794,6.691c0.063,0.234,0.273,0.387,0.501,0.387c0.045,0,0.09-0.005,0.137-0.018
		c0.277-0.074,0.442-0.36,0.368-0.638l-1.597-5.965l5.462,3.155v2.074l2.319,1.34l2.318-1.34v-2.676l-2.318-1.339L33.246,27.055z
		 M20.542,25.293l-0.52,1.181l-0.521-1.181l-1.092-2.479l-2.691,0.291l-1.286,0.142l0.762-1.04l1.601-2.188l-1.599-2.185
		l-0.763-1.042l1.284,0.14l2.693,0.292l1.092-2.479l0.521-1.182l0.521,1.185l1.091,2.476l2.693-0.293l1.284-0.14l-0.765,1.042
		l-1.599,2.185l1.601,2.187l0.763,1.041l-1.286-0.142l-2.691-0.291L20.542,25.293z"/>
</g>
<g>
</g>
<g>
</g>
<g>
</g>
<g>
</g>
<g>
</g>
<g>
</g>
<g>
</g>
<g>
</g>
<g>
</g>
<g>
</g>
<g>
</g>
<g>
</g>
<g>
</g>
<g>
</g>
<g>
</g>
</svg>
