<?xml version="1.0" encoding="iso-8859-1"?>
<!-- Generator: Adobe Illustrator 16.0.0, SVG Export Plug-In . SVG Version: 6.00 Build 0)  -->
<!DOCTYPE svg PUBLIC "-//W3C//DTD SVG 1.1//EN" "http://www.w3.org/Graphics/SVG/1.1/DTD/svg11.dtd">
<svg version="1.1" id="Capa_1" xmlns="http://www.w3.org/2000/svg" xmlns:xlink="http://www.w3.org/1999/xlink" x="0px" y="0px"
	 width="33.432px" height="33.432px" viewBox="0 0 33.432 33.432" style="enable-background:new 0 0 33.432 33.432;"
	 xml:space="preserve">
<g>
	<path d="M32.555,18.079c-0.08-0.265-0.358-0.414-0.623-0.334l-7.813,2.362l-0.291-0.156l-3.078-3.367l2.857-3.559l0.282-0.177
		l7.945,1.856c0.037,0.009,0.076,0.013,0.113,0.013c0.228,0,0.433-0.156,0.485-0.386c0.062-0.269-0.104-0.538-0.374-0.601
		l-6.971-1.628l2.543-1.579l1.463,0.783l1.899-1.18l-0.07-2.234L28.95,6.835l-1.898,1.181l0.054,1.657l-2.547,1.581l1.635-6.975
		c0.062-0.269-0.104-0.538-0.373-0.601c-0.279-0.06-0.539,0.105-0.604,0.373l-1.857,7.948l-0.281,0.174l-4.459,0.984l-1.653-4.255
		l-0.012-0.331l5.583-5.953c0.188-0.201,0.179-0.518-0.022-0.707c-0.199-0.188-0.519-0.179-0.707,0.021l-4.896,5.223l-0.096-2.991
		l1.409-0.876l-0.069-2.235L16.182,0l-1.898,1.179l0.07,2.235l1.463,0.783l0.096,2.994l-5.223-4.9
		c-0.199-0.188-0.519-0.178-0.707,0.022c-0.188,0.202-0.18,0.518,0.022,0.707l5.951,5.585l0.011,0.331l-1.377,4.352l-4.512-0.696
		l-0.293-0.157L7.421,4.623C7.341,4.359,7.06,4.208,6.798,4.29C6.533,4.37,6.384,4.649,6.464,4.914l2.076,6.855l-2.642-1.414
		L5.844,8.697L3.872,7.641L1.973,8.822l0.072,2.234l1.971,1.056l1.409-0.875l2.639,1.412l-6.853,2.072
		c-0.265,0.08-0.414,0.359-0.334,0.623c0.065,0.216,0.264,0.355,0.479,0.355c0.047,0,0.096-0.007,0.145-0.021l7.811-2.361
		l0.295,0.159l3.08,3.368L9.83,20.402l-0.279,0.174l-7.95-1.857C1.33,18.656,1.065,18.824,1,19.092
		c-0.062,0.27,0.104,0.539,0.374,0.602l6.976,1.629l-2.548,1.582l-1.461-0.782l-1.899,1.182l0.072,2.234l1.971,1.055l1.899-1.18
		L6.33,23.755l2.543-1.58l-1.631,6.972c-0.062,0.27,0.104,0.536,0.373,0.602c0.039,0.008,0.076,0.012,0.113,0.012
		c0.229,0,0.434-0.154,0.487-0.385l1.856-7.943l0.281-0.174l4.461-0.984l1.651,4.256l0.011,0.33l-5.582,5.953
		c-0.188,0.201-0.178,0.519,0.023,0.707c0.097,0.09,0.219,0.135,0.342,0.135c0.133,0,0.268-0.053,0.365-0.157l4.896-5.224
		l0.096,2.994l-1.407,0.875l0.071,2.234l1.972,1.055l1.899-1.18l-0.071-2.234l-1.464-0.783l-0.096-2.994l5.223,4.898
		c0.199,0.188,0.518,0.18,0.705-0.021c0.188-0.2,0.181-0.518-0.021-0.706l-5.951-5.585l-0.011-0.331l1.377-4.353l4.514,0.695
		l0.293,0.158l2.361,7.807c0.065,0.217,0.266,0.355,0.479,0.355c0.047,0,0.097-0.008,0.145-0.021
		c0.267-0.08,0.414-0.357,0.334-0.623l-2.071-6.85l2.639,1.412l0.054,1.658l1.975,1.055l1.896-1.18l-0.07-2.234l-1.972-1.057
		l-1.409,0.875l-2.644-1.416l6.854-2.073C32.487,18.624,32.635,18.343,32.555,18.079z M20.699,19.415l-2.551-0.396l-0.78,2.461
		l-0.453,1.437l-0.547-1.404l-0.935-2.405l-2.522,0.559l-1.469,0.322l0.943-1.174l1.615-2.013l-1.741-1.905l-1.017-1.112
		l1.488,0.229l2.551,0.394l0.779-2.461l0.453-1.436l0.547,1.405l0.934,2.405l2.521-0.557l1.471-0.324l-0.942,1.174l-1.615,2.012
		l1.741,1.905l1.018,1.111L20.699,19.415z"/>
</g>
<g>
</g>
<g>
</g>
<g>
</g>
<g>
</g>
<g>
</g>
<g>
</g>
<g>
</g>
<g>
</g>
<g>
</g>
<g>
</g>
<g>
</g>
<g>
</g>
<g>
</g>
<g>
</g>
<g>
</g>
</svg>
