<?xml version="1.0" encoding="iso-8859-1"?>
<!-- Generator: Adobe Illustrator 16.0.0, SVG Export Plug-In . SVG Version: 6.00 Build 0)  -->
<!DOCTYPE svg PUBLIC "-//W3C//DTD SVG 1.1//EN" "http://www.w3.org/Graphics/SVG/1.1/DTD/svg11.dtd">
<svg version="1.1" id="Capa_1" xmlns="http://www.w3.org/2000/svg" xmlns:xlink="http://www.w3.org/1999/xlink" x="0px" y="0px"
	 width="32.815px" height="32.815px" viewBox="0 0 32.815 32.815" style="enable-background:new 0 0 32.815 32.815;"
	 xml:space="preserve">
<g>
	<path d="M32.032,15.626h-2.81l1.341-1.342c0.306-0.305,0.306-0.8,0-1.105c-0.305-0.305-0.8-0.305-1.104,0l-2.445,2.447h-2.013
		l3.429-3.425c0.305-0.306,0.305-0.8,0-1.105c-0.304-0.305-0.798-0.306-1.105,0L23.6,14.819L18.123,9.34l3.42-3.418
		c0.305-0.305,0.305-0.8,0-1.105c-0.306-0.305-0.802-0.305-1.107,0l-3.249,3.249V5.504l2.167-2.168c0.305-0.305,0.305-0.801,0-1.105
		c-0.305-0.305-0.802-0.305-1.106,0l-1.062,1.063V0.781C17.185,0.35,16.835,0,16.403,0c-0.431,0-0.781,0.35-0.781,0.781v3.236
		l-1.787-1.785c-0.305-0.305-0.8-0.305-1.105,0c-0.306,0.305-0.306,0.8,0,1.105l2.89,2.89v1.837l-3.249-3.247
		c-0.305-0.305-0.801-0.305-1.106,0s-0.305,0.8,0,1.105l3.42,3.418l-5.478,5.479l-3.723-3.723c-0.305-0.305-0.8-0.305-1.105,0
		s-0.305,0.801,0,1.105l3.426,3.425H5.069L2.623,13.18c-0.305-0.304-0.801-0.306-1.106,0c-0.305,0.304-0.305,0.8,0,1.105
		l1.341,1.341H0.783c-0.432,0-0.781,0.35-0.781,0.781c0,0.432,0.35,0.781,0.781,0.781h2.254l-1.509,1.511
		c-0.305,0.305-0.305,0.8,0,1.104c0.152,0.152,0.353,0.23,0.551,0.23c0.201,0,0.401-0.075,0.553-0.23l2.615-2.615h2.568
		l-3.428,3.427c-0.305,0.306-0.305,0.802,0,1.107c0.152,0.151,0.352,0.228,0.553,0.228c0.199,0,0.399-0.075,0.551-0.228l3.725-3.726
		l5.479,5.479l-3.422,3.42c-0.305,0.305-0.305,0.799,0,1.104c0.152,0.152,0.353,0.229,0.553,0.229c0.198,0,0.399-0.077,0.55-0.229
		l3.249-3.247v2.524l-2.891,2.891c-0.305,0.305-0.305,0.8,0,1.105c0.152,0.152,0.352,0.229,0.552,0.229
		c0.198,0,0.399-0.076,0.551-0.229l1.789-1.786v2.546c0,0.432,0.35,0.781,0.781,0.781c0.432,0,0.781-0.35,0.781-0.781v-1.823
		l1.064,1.063c0.305,0.306,0.8,0.306,1.104,0c0.306-0.306,0.306-0.801,0-1.105l-2.167-2.167v-3.25l3.249,3.249
		c0.306,0.305,0.8,0.305,1.105,0c0.305-0.306,0.305-0.8,0-1.104l-3.42-3.419l5.477-5.479l3.725,3.724
		c0.153,0.151,0.353,0.229,0.554,0.229c0.199,0,0.399-0.076,0.552-0.229c0.305-0.306,0.305-0.801,0-1.106l-3.429-3.428h1.844
		l2.614,2.614c0.152,0.152,0.354,0.231,0.554,0.231c0.199,0,0.398-0.077,0.551-0.231c0.306-0.305,0.306-0.8,0-1.104l-1.51-1.51
		h2.979c0.432,0,0.781-0.35,0.781-0.781C32.813,15.976,32.464,15.626,32.032,15.626z M17.018,22.371l-0.61,0.61l-0.608-0.61
		l-0.173-0.173l-5.01-5.01l-0.297-0.297l-0.484-0.483l0.484-0.484l0.299-0.298l5.008-5.007l0.171-0.173l0.61-0.609l0.61,0.609
		l0.171,0.171l5.009,5.009l0.298,0.298l0.483,0.484l-0.483,0.484L22.2,17.188L17.188,22.2L17.018,22.371z M8.212,24.604
		c0.305,0.305,0.305,0.801,0,1.105l-2.722,2.72c-0.152,0.153-0.352,0.23-0.55,0.23c-0.201,0-0.402-0.075-0.553-0.23
		c-0.305-0.305-0.305-0.801,0-1.106l2.722-2.719C7.413,24.299,7.907,24.299,8.212,24.604z M4.386,5.922
		c-0.305-0.305-0.305-0.8,0-1.105s0.8-0.305,1.105,0l2.722,2.722c0.305,0.305,0.305,0.8,0,1.105C8.061,8.796,7.86,8.873,7.662,8.873
		c-0.2,0-0.401-0.076-0.552-0.229L4.386,5.922z M23.88,8.642c-0.305-0.305-0.305-0.8,0-1.105l2.723-2.718
		c0.308-0.305,0.802-0.304,1.104,0c0.306,0.306,0.306,0.801,0,1.106l-2.722,2.719c-0.152,0.152-0.353,0.229-0.55,0.229
		C24.232,8.871,24.033,8.793,23.88,8.642z M27.699,27.325c0.305,0.306,0.305,0.801,0,1.106c-0.152,0.151-0.353,0.23-0.552,0.23
		s-0.4-0.077-0.553-0.23l-2.719-2.725c-0.305-0.306-0.305-0.8,0-1.104c0.308-0.306,0.804-0.304,1.107,0.001L27.699,27.325z"/>
</g>
<g>
</g>
<g>
</g>
<g>
</g>
<g>
</g>
<g>
</g>
<g>
</g>
<g>
</g>
<g>
</g>
<g>
</g>
<g>
</g>
<g>
</g>
<g>
</g>
<g>
</g>
<g>
</g>
<g>
</g>
</svg>
