<?xml version="1.0" encoding="iso-8859-1"?>
<!-- Generator: Adobe Illustrator 16.0.0, SVG Export Plug-In . SVG Version: 6.00 Build 0)  -->
<!DOCTYPE svg PUBLIC "-//W3C//DTD SVG 1.1//EN" "http://www.w3.org/Graphics/SVG/1.1/DTD/svg11.dtd">
<svg version="1.1" id="Capa_1" xmlns="http://www.w3.org/2000/svg" xmlns:xlink="http://www.w3.org/1999/xlink" x="0px" y="0px"
	 width="37.707px" height="37.707px" viewBox="0 0 37.707 37.707" style="enable-background:new 0 0 37.707 37.707;"
	 xml:space="preserve">
<g>
	<path d="M35.246,25.671c0-0.178-0.096-0.343-0.25-0.433l-2.041-1.18c-0.154-0.09-0.346-0.09-0.5,0l-1.792,1.035l-4.36-2.519
		l5.728-1.534c0.268-0.07,0.426-0.346,0.354-0.611c-0.072-0.267-0.344-0.426-0.613-0.354l-6.691,1.792l-0.111-0.063V15.9
		l0.115-0.067l6.688,1.792c0.043,0.012,0.088,0.017,0.131,0.017c0.222,0,0.423-0.147,0.482-0.371
		c0.07-0.267-0.088-0.541-0.354-0.612l-5.724-1.534l4.354-2.514l1.792,1.033c0.078,0.044,0.164,0.067,0.25,0.067
		s0.172-0.022,0.25-0.067l2.043-1.177c0.154-0.089,0.25-0.254,0.25-0.433l-0.002-1.253l0.001-1.104c0-0.179-0.095-0.344-0.25-0.434
		l-2.042-1.178c-0.154-0.089-0.346-0.089-0.5,0l-2.04,1.177c-0.155,0.089-0.251,0.254-0.251,0.433v2.07l-4.357,2.516l1.535-5.727
		c0.071-0.267-0.087-0.541-0.354-0.612c-0.266-0.071-0.541,0.086-0.612,0.354l-1.793,6.693l-0.114,0.066l-5.115-2.952V11.95
		l4.898-4.897c0.195-0.195,0.195-0.512,0-0.707c-0.195-0.195-0.512-0.195-0.707,0l-4.191,4.19V5.503l1.791-1.033
		c0.155-0.089,0.25-0.254,0.25-0.433V1.68c0-0.178-0.095-0.343-0.248-0.433l-2.042-1.18c-0.154-0.089-0.345-0.089-0.5,0l-2.042,1.18
		c-0.154,0.089-0.25,0.254-0.25,0.433v2.357c0,0.179,0.095,0.344,0.25,0.433l1.792,1.033v5.033l-4.191-4.19
		c-0.195-0.195-0.512-0.195-0.707,0c-0.195,0.195-0.195,0.512,0,0.707l4.898,4.897v0.132l-5.114,2.953l-0.114-0.066l-1.793-6.693
		c-0.071-0.267-0.345-0.425-0.612-0.354c-0.267,0.071-0.425,0.346-0.354,0.612l1.535,5.727l-4.358-2.517l0.001-0.965L7.542,9.675
		c0-0.179-0.096-0.343-0.25-0.433L5.251,8.065c-0.154-0.089-0.345-0.09-0.499,0L2.71,9.243C2.556,9.332,2.46,9.497,2.46,9.676
		l-0.001,2.357c0,0.179,0.095,0.344,0.25,0.433l2.042,1.18c0.078,0.044,0.164,0.067,0.25,0.067s0.172-0.022,0.25-0.067l1.79-1.035
		l4.357,2.516l-5.723,1.534c-0.267,0.071-0.425,0.346-0.354,0.612c0.06,0.224,0.262,0.371,0.482,0.371
		c0.043,0,0.086-0.005,0.13-0.017l6.689-1.792l0.116,0.067v5.905l-0.112,0.063l-6.693-1.792c-0.265-0.068-0.541,0.087-0.612,0.354
		c-0.071,0.268,0.087,0.541,0.354,0.611l5.728,1.534l-4.362,2.521l-1.793-1.035c-0.155-0.088-0.345-0.088-0.499,0L2.71,25.24
		c-0.155,0.089-0.251,0.254-0.251,0.433l-0.001,1.106l0.001,0.146l-0.001,1.104c0,0.18,0.095,0.345,0.25,0.435l2.042,1.181
		C4.829,29.688,4.915,29.71,5,29.71s0.172-0.021,0.25-0.065l2.041-1.181c0.155-0.089,0.25-0.254,0.25-0.433l-0.001-1.254
		l0.001-0.814l4.359-2.518l-1.532,5.724c-0.071,0.269,0.087,0.541,0.354,0.612c0.043,0.012,0.087,0.017,0.13,0.017
		c0.221,0,0.423-0.146,0.482-0.37l1.791-6.689l0.115-0.065l5.114,2.953v0.128l-4.898,4.898c-0.195,0.195-0.195,0.512,0,0.707
		s0.512,0.195,0.707,0l4.191-4.191v5.036l-1.792,1.032c-0.155,0.09-0.25,0.255-0.25,0.434v2.357c0,0.178,0.095,0.343,0.25,0.433
		l2.042,1.181c0.078,0.045,0.164,0.066,0.25,0.066s0.173-0.021,0.25-0.066l2.042-1.181c0.154-0.089,0.25-0.254,0.25-0.433V33.67
		c0-0.179-0.096-0.344-0.25-0.434l-1.793-1.033v-5.036l4.191,4.192c0.099,0.099,0.228,0.146,0.354,0.146
		c0.129,0,0.256-0.049,0.354-0.146c0.193-0.194,0.193-0.512,0-0.707l-4.898-4.899v-0.129l5.115-2.953l0.114,0.065l1.791,6.689
		c0.062,0.223,0.263,0.37,0.481,0.37c0.043,0,0.086-0.005,0.129-0.017c0.269-0.071,0.427-0.346,0.354-0.612l-1.532-5.724
		l4.358,2.517v2.069c0,0.179,0.095,0.344,0.25,0.433l2.042,1.181c0.078,0.043,0.164,0.065,0.25,0.065s0.172-0.021,0.25-0.065
		l2.041-1.181c0.154-0.089,0.25-0.254,0.25-0.433l0.001-1.254L35.246,25.671z M31.161,10.783V9.966l1.542-0.89l1.062,0.613
		l0.479,0.276v0.555l0.001,1.228l-1.543,0.889l-1.041-0.601l-0.5-0.289V11.17V10.783z M3.457,10.519V9.965l0.479-0.276l1.062-0.613
		L6.54,9.965v1.203v0.577l-0.5,0.289l-1.041,0.602l-1.542-0.891V10.519z M6.54,27.741l-1.541,0.891l-1.071-0.618l-0.47-0.271v-0.554
		v-0.267l-0.001-0.146v-0.814l1.541-0.891l1.041,0.601l0.5,0.289v0.578L6.54,27.741z M19.352,24.471l-0.5,0.289l-0.5-0.289
		l-4.114-2.377l-0.5-0.289v-0.578v-4.75v-0.578l0.5-0.289l4.114-2.376l0.5-0.289l0.5,0.289l4.115,2.376l0.5,0.289v0.578v4.75v0.578
		l-0.5,0.289L19.352,24.471z M17.31,1.967l1.062-0.613l0.479-0.277l0.479,0.277l1.062,0.613v1.78l-1.041,0.601l-0.5,0.288
		l-0.5-0.288l-1.042-0.601L17.31,1.967L17.31,1.967z M20.392,35.738l-1.062,0.613l-0.479,0.276l-0.479-0.276l-1.062-0.613v-1.779
		l1.042-0.602l0.5-0.287l0.5,0.287l1.042,0.602v1.779H20.392z M31.164,26.775v-0.236v-0.577l0.5-0.289l1.041-0.603l1.542,0.893
		v1.227v0.555l-0.47,0.271l-1.071,0.619l-1.542-0.893V26.775z"/>
</g>
<g>
</g>
<g>
</g>
<g>
</g>
<g>
</g>
<g>
</g>
<g>
</g>
<g>
</g>
<g>
</g>
<g>
</g>
<g>
</g>
<g>
</g>
<g>
</g>
<g>
</g>
<g>
</g>
<g>
</g>
</svg>
