<?xml version="1.0" encoding="iso-8859-1"?>
<!-- Generator: Adobe Illustrator 16.0.0, SVG Export Plug-In . SVG Version: 6.00 Build 0)  -->
<!DOCTYPE svg PUBLIC "-//W3C//DTD SVG 1.1//EN" "http://www.w3.org/Graphics/SVG/1.1/DTD/svg11.dtd">
<svg version="1.1" id="Capa_1" xmlns="http://www.w3.org/2000/svg" xmlns:xlink="http://www.w3.org/1999/xlink" x="0px" y="0px"
	 width="31.006px" height="31.006px" viewBox="0 0 31.006 31.006" style="enable-background:new 0 0 31.006 31.006;"
	 xml:space="preserve">
<g>
	<path d="M30.499,15.003h-1.584l-3.006-3c-0.195-0.195-0.513-0.195-0.707,0c-0.195,0.195-0.195,0.514,0,0.707l2.299,2.293h-2.922
		l-3.938-3.936l4.254-4.254c0.195-0.195,0.195-0.513,0-0.707c-0.194-0.195-0.512-0.195-0.707,0l-4.254,4.254l-3.935-3.937V3.501
		l2.294,2.297c0.195,0.195,0.512,0.195,0.707,0c0.195-0.194,0.195-0.512,0-0.707l-3.001-3.005V0.503c0-0.275-0.224-0.5-0.5-0.5
		s-0.5,0.225-0.5,0.5v1.584l-3,3.005c-0.195,0.195-0.195,0.513,0,0.707c0.098,0.099,0.226,0.146,0.354,0.146
		c0.129,0,0.257-0.049,0.354-0.146L15,3.503v2.921l-3.936,3.937L6.809,6.107c-0.194-0.194-0.512-0.194-0.707,0
		c-0.194,0.195-0.194,0.513,0,0.707l4.255,4.254L6.42,15.003H3.498l2.296-2.295c0.195-0.195,0.195-0.512,0-0.707
		c-0.195-0.195-0.512-0.195-0.707,0l-3.004,3.002H0.5c-0.276,0-0.5,0.225-0.5,0.5s0.224,0.5,0.5,0.5h1.584l3.006,3
		c0.099,0.098,0.227,0.146,0.354,0.146s0.256-0.049,0.354-0.146c0.195-0.195,0.195-0.514,0-0.707L3.5,16.003h2.921l3.938,3.936
		l-4.255,4.254c-0.194,0.195-0.194,0.513,0,0.707c0.099,0.099,0.227,0.146,0.354,0.146s0.256-0.049,0.354-0.146l4.254-4.254
		l3.935,3.938v2.922l-2.295-2.295c-0.195-0.195-0.512-0.195-0.707,0s-0.195,0.512,0,0.707l3.002,3.002v1.584
		c0,0.277,0.224,0.5,0.5,0.5s0.5-0.223,0.5-0.5v-1.584l3-3.004c0.194-0.195,0.194-0.514,0-0.707c-0.194-0.195-0.513-0.195-0.707,0
		L16,27.503v-2.922l3.936-3.936l4.256,4.254c0.098,0.098,0.225,0.145,0.354,0.145c0.127,0,0.256-0.049,0.354-0.145
		c0.195-0.195,0.195-0.515,0-0.707l-4.254-4.254l3.938-3.938h2.922l-2.295,2.294c-0.194,0.194-0.194,0.515,0,0.707
		c0.099,0.101,0.226,0.146,0.354,0.146s0.256-0.049,0.354-0.146l3.004-3.001h1.584c0.275,0,0.5-0.224,0.5-0.5
		S30.775,15.003,30.499,15.003z M23.165,15.003h-6.459l3.229-3.229L23.165,15.003z M19.229,11.067L16,14.296V7.838L19.229,11.067z
		 M15,7.837v6.458l-3.229-3.229L15,7.837z M11.064,11.774l3.229,3.229H7.835L11.064,11.774z M7.834,16.003h6.458l-3.229,3.229
		L7.834,16.003z M11.771,19.938L15,16.71v6.457L11.771,19.938z M16,23.167V16.71l3.229,3.229L16,23.167z M19.936,19.231
		l-3.229-3.229h6.459L19.936,19.231z"/>
</g>
<g>
</g>
<g>
</g>
<g>
</g>
<g>
</g>
<g>
</g>
<g>
</g>
<g>
</g>
<g>
</g>
<g>
</g>
<g>
</g>
<g>
</g>
<g>
</g>
<g>
</g>
<g>
</g>
<g>
</g>
</svg>
