<?xml version="1.0" encoding="iso-8859-1"?>
<!-- Generator: Adobe Illustrator 16.0.0, SVG Export Plug-In . SVG Version: 6.00 Build 0)  -->
<!DOCTYPE svg PUBLIC "-//W3C//DTD SVG 1.1//EN" "http://www.w3.org/Graphics/SVG/1.1/DTD/svg11.dtd">
<svg version="1.1" id="Capa_1" xmlns="http://www.w3.org/2000/svg" xmlns:xlink="http://www.w3.org/1999/xlink" x="0px" y="0px"
	 width="36.402px" height="36.402px" viewBox="0 0 36.402 36.402" style="enable-background:new 0 0 36.402 36.402;"
	 xml:space="preserve">
<g>
	<path d="M21.99,15.146c-0.218-0.271-0.464-0.517-0.736-0.736c-0.712-0.574-1.578-0.946-2.534-1.049
		c-0.173-0.02-0.343-0.054-0.521-0.054c-0.178,0-0.348,0.034-0.521,0.054c-0.956,0.103-1.823,0.475-2.533,1.049
		c-0.273,0.219-0.519,0.465-0.737,0.736c-0.574,0.712-0.945,1.579-1.05,2.534c-0.02,0.173-0.053,0.342-0.053,0.521
		c0,0.177,0.034,0.346,0.053,0.521c0.104,0.954,0.476,1.823,1.05,2.534c0.218,0.271,0.464,0.516,0.737,0.736
		c0.71,0.574,1.577,0.945,2.533,1.049c0.173,0.019,0.343,0.053,0.521,0.053c0.178,0,0.348-0.034,0.521-0.053
		c0.956-0.104,1.822-0.475,2.534-1.049c0.272-0.219,0.519-0.465,0.736-0.736c0.573-0.713,0.944-1.58,1.05-2.534
		c0.019-0.175,0.053-0.344,0.053-0.521c0-0.18-0.034-0.349-0.053-0.521C22.935,16.725,22.563,15.856,21.99,15.146z M21.998,18.722
		c-0.092,0.672-0.352,1.282-0.744,1.798c-0.212,0.277-0.457,0.524-0.737,0.736c-0.515,0.392-1.125,0.651-1.796,0.742
		c-0.172,0.023-0.343,0.053-0.521,0.053c-0.178,0-0.349-0.029-0.521-0.053c-0.672-0.091-1.281-0.351-1.797-0.742
		c-0.28-0.212-0.525-0.459-0.736-0.736c-0.393-0.515-0.653-1.127-0.745-1.798c-0.022-0.173-0.054-0.344-0.054-0.521
		c0-0.18,0.03-0.351,0.054-0.521c0.091-0.671,0.352-1.281,0.745-1.797c0.211-0.279,0.456-0.525,0.736-0.737
		c0.515-0.392,1.125-0.651,1.797-0.743c0.172-0.023,0.343-0.053,0.521-0.053c0.178,0,0.349,0.028,0.521,0.053
		c0.671,0.092,1.281,0.351,1.796,0.743c0.28,0.212,0.525,0.458,0.737,0.737c0.393,0.515,0.652,1.127,0.744,1.797
		c0.021,0.171,0.053,0.342,0.053,0.521C22.051,18.378,22.02,18.549,21.998,18.722z M33.823,15.629c-1.237,0-2.276,0.881-2.519,2.051
		h-3.653l3.877-3.878c0.204-0.203,0.204-0.533,0-0.736c-0.202-0.203-0.532-0.203-0.736,0l-4.614,4.615h-0.779
		c-0.113-1.601-0.75-3.057-1.741-4.201l5.959-5.958c0.202-0.204,0.202-0.534,0-0.737s-0.534-0.203-0.736,0l-5.959,5.958
		c-1.146-0.99-2.601-1.626-4.201-1.741v-0.775l4.612-4.618c0.203-0.205,0.203-0.534,0-0.738c-0.203-0.202-0.533-0.203-0.735,0
		L18.72,8.753V5.095c1.169-0.24,2.053-1.279,2.053-2.52c0-1.417-1.153-2.573-2.573-2.573c-1.419,0-2.573,1.154-2.573,2.573
		c0,1.24,0.882,2.278,2.051,2.519v3.653L13.8,4.87c-0.203-0.203-0.533-0.203-0.736,0c-0.203,0.203-0.203,0.533,0,0.737l4.615,4.614
		V11c-1.6,0.115-3.058,0.752-4.201,1.741L7.519,6.784c-0.204-0.203-0.535-0.203-0.736,0c-0.204,0.203-0.204,0.533,0,0.737
		l5.958,5.958c-0.99,1.146-1.627,2.6-1.742,4.201h-0.776l-4.617-4.613c-0.203-0.202-0.533-0.203-0.736,0
		c-0.204,0.205-0.204,0.534,0,0.737l3.882,3.875H5.094c-0.24-1.171-1.28-2.053-2.52-2.053C1.157,15.626,0,16.78,0,18.199
		s1.156,2.573,2.574,2.573c1.238,0,2.277-0.881,2.519-2.051h3.654l-3.878,3.879c-0.204,0.202-0.204,0.533,0,0.736
		c0.102,0.102,0.235,0.151,0.369,0.151c0.134,0,0.267-0.051,0.369-0.151l4.614-4.615H11c0.114,1.602,0.752,3.057,1.742,4.201
		L6.784,28.88c-0.203,0.203-0.203,0.535,0,0.736c0.102,0.104,0.236,0.153,0.369,0.153c0.134,0,0.267-0.052,0.369-0.153l5.958-5.957
		c1.146,0.991,2.601,1.626,4.201,1.742v0.774l-4.613,4.619c-0.203,0.203-0.203,0.533,0,0.736c0.204,0.203,0.534,0.203,0.737,0
		l3.876-3.881v3.657c-1.169,0.239-2.053,1.279-2.053,2.519c0,1.419,1.154,2.574,2.573,2.574c1.42,0,2.573-1.154,2.573-2.574
		c0-1.238-0.882-2.276-2.051-2.519v-3.652l3.878,3.876c0.103,0.104,0.236,0.152,0.369,0.152c0.132,0,0.267-0.051,0.368-0.152
		c0.201-0.202,0.201-0.533,0-0.736l-4.616-4.614v-0.779c1.6-0.114,3.057-0.751,4.201-1.742l5.959,5.959
		c0.102,0.104,0.236,0.152,0.368,0.152c0.135,0,0.268-0.051,0.368-0.152c0.204-0.202,0.204-0.532,0-0.736l-5.957-5.959
		c0.99-1.145,1.627-2.6,1.741-4.201h0.775l4.618,4.614c0.103,0.101,0.236,0.152,0.368,0.152c0.133,0,0.267-0.052,0.369-0.152
		c0.203-0.204,0.203-0.535,0-0.737l-3.88-3.877h3.655c0.24,1.172,1.281,2.055,2.521,2.055c1.417,0,2.572-1.153,2.572-2.573
		C36.402,16.785,35.242,15.629,33.823,15.629z M4.007,18.722c-0.214,0.586-0.773,1.009-1.433,1.009
		c-0.845,0-1.533-0.686-1.533-1.531c0-0.845,0.688-1.531,1.533-1.531c0.661,0,1.22,0.423,1.434,1.012
		c0.06,0.163,0.098,0.336,0.098,0.52C4.106,18.384,4.068,18.557,4.007,18.722z M16.669,2.575c0-0.845,0.686-1.531,1.531-1.531
		s1.531,0.687,1.531,1.531c0,0.662-0.423,1.22-1.011,1.434c-0.163,0.061-0.336,0.097-0.52,0.097c-0.185,0-0.358-0.036-0.522-0.098
		C17.093,3.794,16.669,3.236,16.669,2.575z M19.729,33.826c0,0.845-0.685,1.529-1.53,1.529s-1.532-0.685-1.532-1.529
		c0-0.661,0.423-1.221,1.012-1.435c0.163-0.059,0.335-0.096,0.52-0.096c0.184,0,0.358,0.037,0.522,0.098
		C19.307,32.607,19.729,33.165,19.729,33.826z M24.357,18.722c-0.109,1.314-0.63,2.513-1.437,3.465
		c-0.226,0.265-0.47,0.512-0.736,0.736c-0.952,0.805-2.15,1.325-3.464,1.437c-0.172,0.015-0.345,0.025-0.521,0.025
		c-0.176,0-0.349-0.013-0.521-0.025c-1.315-0.11-2.513-0.63-3.465-1.437c-0.265-0.225-0.51-0.472-0.736-0.736
		c-0.805-0.954-1.326-2.149-1.437-3.465c-0.015-0.173-0.026-0.346-0.026-0.521c0-0.177,0.014-0.351,0.026-0.521
		c0.109-1.315,0.63-2.513,1.437-3.465c0.227-0.266,0.471-0.511,0.736-0.736c0.952-0.804,2.15-1.325,3.465-1.437
		c0.172-0.014,0.345-0.025,0.521-0.025c0.176,0,0.349,0.013,0.521,0.025c1.314,0.11,2.512,0.63,3.464,1.437
		c0.267,0.225,0.511,0.471,0.736,0.736c0.806,0.953,1.326,2.15,1.437,3.465c0.014,0.171,0.026,0.345,0.026,0.521
		C24.384,18.376,24.371,18.549,24.357,18.722z M33.823,19.734c-0.661,0-1.218-0.424-1.434-1.013
		c-0.06-0.163-0.098-0.338-0.098-0.521c0-0.184,0.038-0.358,0.1-0.521c0.214-0.585,0.771-1.009,1.432-1.009
		c0.846,0,1.533,0.686,1.533,1.531C35.356,19.047,34.669,19.734,33.823,19.734z"/>
</g>
<g>
</g>
<g>
</g>
<g>
</g>
<g>
</g>
<g>
</g>
<g>
</g>
<g>
</g>
<g>
</g>
<g>
</g>
<g>
</g>
<g>
</g>
<g>
</g>
<g>
</g>
<g>
</g>
<g>
</g>
</svg>
