<?xml version="1.0" encoding="iso-8859-1"?>
<!-- Generator: Adobe Illustrator 16.0.0, SVG Export Plug-In . SVG Version: 6.00 Build 0)  -->
<!DOCTYPE svg PUBLIC "-//W3C//DTD SVG 1.1//EN" "http://www.w3.org/Graphics/SVG/1.1/DTD/svg11.dtd">
<svg version="1.1" id="Capa_1" xmlns="http://www.w3.org/2000/svg" xmlns:xlink="http://www.w3.org/1999/xlink" x="0px" y="0px"
	 width="37.285px" height="37.285px" viewBox="0 0 37.285 37.285" style="enable-background:new 0 0 37.285 37.285;"
	 xml:space="preserve">
<g>
	<path d="M34.592,27.25l-2.73-1.577l1.825-1.055c0.248-0.145,0.334-0.463,0.191-0.712c-0.145-0.25-0.463-0.336-0.712-0.19
		l-2.346,1.355l-2.501-1.445l4.91-2.834c0.249-0.145,0.335-0.462,0.191-0.712c-0.145-0.248-0.462-0.333-0.712-0.191l-5.432,3.136
		l-2.268-1.309v-6.152l1.953-1.127l5.748,3.318c0.082,0.047,0.172,0.07,0.261,0.07c0.179,0,0.355-0.094,0.451-0.261
		c0.146-0.249,0.061-0.567-0.191-0.711l-5.229-3.017l2.503-1.444l2.661,1.537c0.081,0.047,0.171,0.07,0.26,0.07
		c0.181,0,0.355-0.092,0.452-0.26c0.146-0.249,0.06-0.568-0.191-0.711l-2.141-1.238l3.046-1.758
		c0.248-0.144,0.334-0.462,0.191-0.711c-0.145-0.251-0.461-0.334-0.712-0.19l-2.887,1.667V8.692c0-0.288-0.234-0.521-0.521-0.521
		c-0.287,0-0.521,0.233-0.521,0.521v2.707l-2.501,1.444V7.176c0-0.288-0.232-0.521-0.521-0.521c-0.286,0-0.521,0.233-0.521,0.521
		v6.269l-2.111,1.22l-5.328-3.076V9.336l5.591-3.228c0.247-0.144,0.333-0.462,0.19-0.711c-0.144-0.25-0.463-0.334-0.711-0.19
		l-5.07,2.927V5.245l2.506-1.447c0.248-0.144,0.333-0.462,0.19-0.712s-0.462-0.333-0.712-0.19l-1.984,1.147V0.521
		C19.163,0.234,18.928,0,18.642,0c-0.286,0-0.521,0.234-0.521,0.521v3.518l-1.977-1.143c-0.249-0.143-0.568-0.059-0.712,0.19
		c-0.146,0.25-0.06,0.568,0.191,0.712l2.498,1.442v2.889l-5.063-2.924c-0.248-0.142-0.568-0.059-0.711,0.19
		c-0.146,0.249-0.061,0.568,0.19,0.711l5.584,3.224v2.257l-5.326,3.076l-2.107-1.217l-0.002-6.272c0-0.288-0.232-0.521-0.521-0.521
		c-0.286,0-0.521,0.233-0.521,0.521l0.002,5.67l-2.5-1.445V8.692c0-0.288-0.234-0.521-0.521-0.521c-0.288,0-0.521,0.233-0.521,0.521
		V10.8L3.214,9.13c-0.248-0.142-0.568-0.059-0.713,0.19C2.356,9.57,2.442,9.889,2.693,10.032l3.048,1.759L3.6,13.027
		c-0.25,0.144-0.335,0.463-0.191,0.712c0.098,0.168,0.273,0.26,0.452,0.26c0.087,0,0.177-0.022,0.26-0.07l2.659-1.536l2.502,1.445
		l-5.226,3.016c-0.25,0.144-0.335,0.462-0.191,0.711c0.096,0.167,0.272,0.261,0.451,0.261c0.088,0,0.178-0.022,0.26-0.07
		l5.745-3.317l1.953,1.127v6.15l-2.269,1.309l-5.427-3.134c-0.248-0.143-0.568-0.06-0.712,0.191
		c-0.145,0.248-0.06,0.567,0.192,0.712l4.907,2.834l-2.5,1.443L4.12,23.718c-0.249-0.143-0.568-0.059-0.711,0.192
		c-0.146,0.247-0.061,0.567,0.19,0.711l1.825,1.052L2.69,27.252c-0.248,0.145-0.333,0.462-0.191,0.712
		c0.097,0.167,0.272,0.261,0.451,0.261c0.089,0,0.179-0.021,0.26-0.069l2.893-1.672v2.471c0,0.287,0.234,0.521,0.521,0.521
		c0.286,0,0.521-0.233,0.521-0.521v-3.073l2.5-1.445v6.034c0,0.287,0.234,0.521,0.521,0.521s0.521-0.233,0.521-0.521v-6.637
		l2.107-1.217l5.326,3.078v2.619l-5.584,3.225c-0.248,0.145-0.333,0.462-0.19,0.713c0.095,0.166,0.271,0.26,0.451,0.26
		c0.089,0,0.179-0.022,0.26-0.068l5.063-2.924v2.887l-2.498,1.444c-0.248,0.143-0.333,0.462-0.191,0.712
		c0.143,0.25,0.46,0.332,0.712,0.189l1.977-1.142v3.153c0,0.287,0.234,0.521,0.521,0.521c0.287,0,0.521-0.234,0.521-0.521v-3.159
		l1.984,1.147c0.082,0.047,0.171,0.069,0.261,0.069c0.18,0,0.356-0.094,0.451-0.261c0.146-0.248,0.061-0.567-0.19-0.712
		l-2.505-1.446v-2.889l5.07,2.93c0.247,0.142,0.568,0.06,0.711-0.191c0.146-0.248,0.06-0.568-0.19-0.713l-5.591-3.229v-2.615
		l5.325-3.076l2.112,1.219v6.633c0,0.287,0.231,0.521,0.521,0.521c0.287,0,0.521-0.233,0.521-0.521v-6.032l2.502,1.445v3.071
		c0,0.285,0.232,0.521,0.521,0.521c0.287,0,0.521-0.235,0.521-0.521v-2.471l2.887,1.668c0.083,0.047,0.173,0.068,0.26,0.068
		c0.18,0,0.356-0.094,0.453-0.261C34.929,27.712,34.843,27.394,34.592,27.25z M19.163,24.494l-0.521,0.301l-0.521-0.301
		l-4.284-2.477l-0.521-0.301v-0.602v-4.947v-0.602l0.521-0.301l4.284-2.474l0.521-0.301l0.521,0.301l4.284,2.474l0.523,0.301v0.601
		v4.95v0.602l-0.523,0.302L19.163,24.494z"/>
</g>
<g>
</g>
<g>
</g>
<g>
</g>
<g>
</g>
<g>
</g>
<g>
</g>
<g>
</g>
<g>
</g>
<g>
</g>
<g>
</g>
<g>
</g>
<g>
</g>
<g>
</g>
<g>
</g>
<g>
</g>
</svg>
