<?xml version="1.0" encoding="iso-8859-1"?>
<!-- Generator: Adobe Illustrator 16.0.0, SVG Export Plug-In . SVG Version: 6.00 Build 0)  -->
<!DOCTYPE svg PUBLIC "-//W3C//DTD SVG 1.1//EN" "http://www.w3.org/Graphics/SVG/1.1/DTD/svg11.dtd">
<svg version="1.1" id="Capa_1" xmlns="http://www.w3.org/2000/svg" xmlns:xlink="http://www.w3.org/1999/xlink" x="0px" y="0px"
	 width="31px" height="31px" viewBox="0 0 31 31" style="enable-background:new 0 0 31 31;" xml:space="preserve">
<g>
	<path d="M30.5,15h-3.443l1.603-1.602c0.194-0.195,0.194-0.512,0-0.707c-0.195-0.195-0.513-0.195-0.707,0L25.643,15h-3.229
		c-0.109-1.537-0.723-2.934-1.672-4.033l5.72-5.72c0.195-0.195,0.195-0.512,0-0.707c-0.194-0.195-0.512-0.195-0.707,0l-5.72,5.72
		c-1.1-0.952-2.497-1.562-4.033-1.672v-3.23l2.307-2.307c0.194-0.195,0.194-0.512,0-0.707c-0.195-0.195-0.513-0.195-0.707,0
		l-1.6,1.6V0.5c0-0.276-0.224-0.5-0.5-0.5s-0.5,0.224-0.5,0.5v3.444l-1.603-1.6c-0.194-0.195-0.512-0.195-0.707,0
		c-0.194,0.195-0.194,0.512,0,0.707l2.309,2.306v3.23c-1.536,0.11-2.936,0.721-4.033,1.672l-5.72-5.72
		c-0.195-0.195-0.513-0.195-0.707,0c-0.194,0.195-0.194,0.512,0,0.707l5.72,5.72c-0.951,1.099-1.562,2.496-1.672,4.033H5.36
		l-2.31-2.307c-0.194-0.195-0.512-0.195-0.707,0c-0.194,0.195-0.194,0.512,0,0.707l1.601,1.6H0.5c-0.275,0-0.5,0.224-0.5,0.5
		s0.225,0.5,0.5,0.5h3.443l-1.602,1.603c-0.195,0.194-0.195,0.512,0,0.707c0.098,0.098,0.227,0.146,0.354,0.146
		c0.129,0,0.257-0.049,0.354-0.146l2.308-2.31h3.229c0.11,1.538,0.722,2.935,1.672,4.034l-5.72,5.719
		c-0.195,0.195-0.195,0.514,0,0.707c0.098,0.1,0.227,0.146,0.354,0.146c0.129,0,0.256-0.049,0.354-0.146l5.72-5.719
		c1.1,0.951,2.497,1.561,4.033,1.672v3.229l-2.307,2.31c-0.194,0.194-0.194,0.512,0,0.709c0.099,0.096,0.227,0.146,0.354,0.146
		s0.257-0.05,0.354-0.146l1.598-1.603V30.5c0,0.275,0.225,0.5,0.5,0.5s0.5-0.225,0.5-0.5v-3.445l1.602,1.603
		c0.195,0.194,0.512,0.194,0.707,0c0.195-0.195,0.195-0.513,0-0.707L16,25.641v-3.229c1.536-0.111,2.936-0.723,4.033-1.672
		l5.72,5.719c0.099,0.1,0.226,0.146,0.354,0.146c0.127,0,0.256-0.049,0.354-0.146c0.195-0.193,0.195-0.512,0-0.707l-5.72-5.719
		c0.95-1.1,1.562-2.496,1.672-4.034h3.229l2.309,2.306c0.098,0.096,0.227,0.146,0.354,0.146c0.129,0,0.256-0.05,0.354-0.146
		c0.194-0.197,0.194-0.513,0-0.709L27.057,16H30.5c0.275,0,0.5-0.224,0.5-0.5S30.775,15,30.5,15z M21.412,16
		c-0.105,1.262-0.605,2.413-1.379,3.327c-0.217,0.254-0.452,0.491-0.707,0.707c-0.914,0.772-2.064,1.272-3.326,1.379
		c-0.165,0.014-0.331,0.024-0.5,0.024s-0.335-0.014-0.5-0.024c-1.262-0.106-2.412-0.604-3.326-1.379
		c-0.255-0.216-0.49-0.453-0.707-0.707C10.194,18.411,9.694,17.264,9.588,16c-0.014-0.165-0.025-0.331-0.025-0.5
		s0.013-0.335,0.025-0.5c0.105-1.262,0.605-2.412,1.379-3.326c0.217-0.255,0.452-0.492,0.707-0.707
		c0.914-0.773,2.064-1.273,3.326-1.379c0.165-0.014,0.331-0.025,0.5-0.025s0.335,0.012,0.5,0.025
		c1.262,0.106,2.412,0.605,3.326,1.379c0.255,0.215,0.49,0.452,0.707,0.707c0.773,0.915,1.273,2.064,1.379,3.326
		c0.014,0.165,0.025,0.331,0.025,0.5S21.426,15.834,21.412,16z M19.139,12.567c-0.209-0.261-0.445-0.496-0.707-0.707
		c-0.682-0.551-1.514-0.908-2.432-1.007c-0.166-0.018-0.329-0.051-0.5-0.051s-0.334,0.033-0.5,0.051
		c-0.918,0.099-1.75,0.456-2.432,1.007c-0.262,0.21-0.498,0.446-0.707,0.707c-0.551,0.683-0.908,1.515-1.008,2.432
		c-0.019,0.167-0.051,0.329-0.051,0.5s0.032,0.333,0.051,0.5c0.1,0.917,0.457,1.75,1.008,2.433c0.209,0.26,0.445,0.495,0.707,0.707
		c0.682,0.551,1.514,0.907,2.432,1.006c0.166,0.02,0.329,0.053,0.5,0.053s0.334-0.033,0.5-0.053c0.918-0.099,1.75-0.455,2.432-1.006
		c0.262-0.211,0.498-0.447,0.707-0.707c0.551-0.685,0.908-1.517,1.008-2.433c0.02-0.167,0.052-0.329,0.052-0.5
		s-0.032-0.333-0.052-0.5C20.047,14.083,19.689,13.25,19.139,12.567z M19.146,16c-0.088,0.645-0.338,1.23-0.715,1.725
		c-0.203,0.269-0.438,0.504-0.707,0.707c-0.494,0.377-1.081,0.625-1.726,0.713c-0.165,0.023-0.329,0.051-0.5,0.051
		s-0.335-0.026-0.5-0.051c-0.645-0.088-1.23-0.336-1.725-0.713c-0.269-0.203-0.504-0.438-0.707-0.707
		C12.19,17.23,11.94,16.643,11.852,16c-0.021-0.165-0.051-0.329-0.051-0.5s0.028-0.335,0.051-0.5
		c0.088-0.644,0.338-1.231,0.715-1.725c0.203-0.267,0.438-0.504,0.707-0.707c0.494-0.376,1.08-0.625,1.725-0.713
		c0.165-0.023,0.329-0.051,0.5-0.051s0.335,0.028,0.5,0.051c0.645,0.088,1.229,0.337,1.726,0.713
		c0.269,0.203,0.504,0.44,0.707,0.707c0.377,0.494,0.627,1.082,0.715,1.725c0.021,0.165,0.051,0.329,0.051,0.5
		S19.168,15.834,19.146,16z M17.562,14.146c-0.188-0.281-0.426-0.522-0.708-0.707c-0.258-0.169-0.545-0.293-0.854-0.357
		c-0.161-0.033-0.329-0.051-0.5-0.051s-0.339,0.018-0.5,0.051c-0.312,0.064-0.599,0.188-0.854,0.357
		c-0.28,0.185-0.521,0.426-0.707,0.707c-0.168,0.256-0.293,0.543-0.356,0.854c-0.033,0.162-0.051,0.329-0.051,0.5
		s0.018,0.338,0.051,0.5c0.063,0.311,0.188,0.598,0.356,0.854c0.187,0.281,0.427,0.521,0.707,0.707
		c0.258,0.17,0.545,0.293,0.854,0.357c0.161,0.033,0.329,0.051,0.5,0.051s0.339-0.018,0.5-0.051
		c0.312-0.064,0.599-0.188,0.854-0.357c0.282-0.186,0.521-0.426,0.708-0.707c0.168-0.256,0.293-0.543,0.355-0.854
		c0.033-0.162,0.053-0.329,0.053-0.5s-0.02-0.338-0.053-0.5C17.854,14.688,17.73,14.401,17.562,14.146z M16.876,16
		c-0.015,0.042-0.03,0.081-0.049,0.122c-0.146,0.312-0.396,0.562-0.707,0.707c-0.039,0.019-0.079,0.032-0.12,0.049
		c-0.156,0.058-0.323,0.092-0.5,0.092c-0.177,0-0.343-0.034-0.5-0.092c-0.041-0.017-0.081-0.03-0.12-0.049
		c-0.312-0.146-0.562-0.396-0.707-0.707c-0.019-0.041-0.034-0.08-0.049-0.122c-0.058-0.157-0.095-0.324-0.095-0.5
		s0.037-0.343,0.095-0.5c0.015-0.041,0.03-0.081,0.049-0.121c0.146-0.311,0.396-0.561,0.707-0.707
		c0.039-0.018,0.079-0.034,0.12-0.049c0.157-0.057,0.323-0.093,0.5-0.093c0.177,0,0.344,0.036,0.5,0.093
		c0.041,0.015,0.081,0.031,0.12,0.049c0.312,0.146,0.562,0.396,0.707,0.707c0.019,0.04,0.034,0.08,0.049,0.121
		c0.058,0.157,0.095,0.324,0.095,0.5S16.934,15.842,16.876,16z"/>
</g>
<g>
</g>
<g>
</g>
<g>
</g>
<g>
</g>
<g>
</g>
<g>
</g>
<g>
</g>
<g>
</g>
<g>
</g>
<g>
</g>
<g>
</g>
<g>
</g>
<g>
</g>
<g>
</g>
<g>
</g>
</svg>
