<?xml version="1.0" encoding="iso-8859-1"?>
<!-- Generator: Adobe Illustrator 16.0.0, SVG Export Plug-In . SVG Version: 6.00 Build 0)  -->
<!DOCTYPE svg PUBLIC "-//W3C//DTD SVG 1.1//EN" "http://www.w3.org/Graphics/SVG/1.1/DTD/svg11.dtd">
<svg version="1.1" id="Capa_1" xmlns="http://www.w3.org/2000/svg" xmlns:xlink="http://www.w3.org/1999/xlink" x="0px" y="0px"
	 width="38.015px" height="38.014px" viewBox="0 0 38.015 38.014" style="enable-background:new 0 0 38.015 38.014;"
	 xml:space="preserve">
<g>
	<path d="M37.916,18.628l-1.574-2.727c-0.134-0.232-0.382-0.375-0.647-0.375h-3.147c-0.269,0-0.517,0.143-0.648,0.375l-1.357,2.354
		h-3.353l1.575-2.73c0.207-0.358,0.084-0.817-0.272-1.024c-0.359-0.208-0.818-0.084-1.024,0.274l-1.802,3.119
		c-0.247-1.486-0.979-2.807-2.028-3.798l3.441-0.001c0.413,0,0.75-0.336,0.75-0.75s-0.337-0.75-0.75-0.75l-3.505,0.001l1.849-3.202
		h2.716c0.269,0,0.517-0.143,0.649-0.375l1.575-2.729c0.134-0.232,0.134-0.52,0-0.75l-1.575-2.727
		c-0.134-0.231-0.382-0.375-0.649-0.375h-3.149c-0.27,0-0.518,0.144-0.649,0.375L22.764,5.54c-0.134,0.23-0.134,0.518,0,0.75
		l1.359,2.354l-1.762,3.051l-1.574-2.729c-0.206-0.358-0.665-0.481-1.024-0.274c-0.358,0.207-0.481,0.666-0.274,1.024l1.668,2.89
		c-0.676-0.228-1.396-0.355-2.148-0.355c-0.671,0-1.316,0.102-1.93,0.283l1.627-2.816c0.207-0.357,0.084-0.816-0.274-1.023
		c-0.36-0.209-0.817-0.084-1.024,0.273l-1.664,2.885L13.89,8.646l1.36-2.351c0.134-0.231,0.134-0.519,0-0.751l-1.577-2.729
		c-0.134-0.232-0.382-0.375-0.648-0.375H9.877c-0.268,0-0.516,0.143-0.648,0.375L7.653,5.543c-0.133,0.231-0.133,0.518,0,0.75
		l1.576,2.729c0.135,0.231,0.383,0.375,0.649,0.375h0.001l2.714-0.004l1.851,3.204h-3.322c-0.414,0-0.75,0.336-0.75,0.75
		s0.336,0.75,0.75,0.75h3.262c-0.994,0.938-1.709,2.168-1.992,3.558l-1.662-2.877c-0.207-0.359-0.664-0.481-1.024-0.274
		c-0.359,0.207-0.481,0.666-0.274,1.024l1.578,2.729H7.479l-1.357-2.354c-0.135-0.231-0.383-0.375-0.649-0.375H2.32
		c-0.269,0-0.516,0.145-0.649,0.377L0.1,18.634c-0.133,0.23-0.133,0.518,0,0.748l1.569,2.725c0.134,0.231,0.382,0.377,0.649,0.377
		l3.149,0.002c0.269,0,0.517-0.144,0.649-0.375l1.357-2.354h3.705L9.427,22.79c-0.207,0.356-0.084,0.815,0.274,1.022
		c0.117,0.067,0.246,0.103,0.374,0.103c0.26,0,0.512-0.136,0.649-0.375l1.715-2.97c0.347,1.449,1.154,2.726,2.269,3.646h-3.59
		c-0.414,0-0.75,0.336-0.75,0.75s0.336,0.75,0.75,0.75h3.151l-1.678,2.903l-2.718,0.003c-0.269,0-0.517,0.143-0.649,0.375
		L7.65,31.721c-0.135,0.231-0.135,0.52,0,0.75L9.222,35.2c0.133,0.23,0.381,0.375,0.648,0.375l3.152,0.002
		c0.269,0,0.516-0.145,0.649-0.377l1.572-2.729c0.133-0.231,0.133-0.52-0.001-0.75l-1.355-2.348l1.766-3.059l1.754,3.033
		c0.139,0.24,0.391,0.375,0.65,0.375c0.127,0,0.256-0.031,0.373-0.1c0.358-0.207,0.481-0.666,0.274-1.025l-1.841-3.188
		c0.674,0.227,1.393,0.354,2.142,0.354c0.834,0,1.63-0.158,2.368-0.437l-1.889,3.271c-0.207,0.357-0.084,0.816,0.273,1.023
		c0.118,0.067,0.247,0.102,0.374,0.102c0.261,0,0.514-0.135,0.65-0.375l1.663-2.881l1.677,2.904l-1.36,2.348
		c-0.135,0.231-0.136,0.52,0,0.75l1.575,2.729c0.134,0.231,0.382,0.375,0.649,0.375h3.149c0.269,0,0.517-0.144,0.648-0.375
		l1.572-2.728c0.135-0.231,0.135-0.518,0-0.75l-1.574-2.729c-0.135-0.231-0.383-0.375-0.649-0.375h-0.004l-2.714,0.005l-1.678-2.906
		h3.33c0.414,0,0.75-0.336,0.75-0.75s-0.336-0.75-0.75-0.75h-3.77c1.169-0.967,2.009-2.318,2.321-3.857l1.838,3.184
		c0.139,0.24,0.391,0.375,0.65,0.375c0.127,0,0.256-0.031,0.373-0.102c0.357-0.207,0.48-0.666,0.273-1.023l-1.751-3.033h3.526
		l1.354,2.351c0.133,0.231,0.381,0.375,0.648,0.375l3.149,0.002c0.271,0,0.518-0.144,0.649-0.375l1.573-2.729
		C38.05,19.146,38.05,18.859,37.916,18.628z M26.836,3.939h0.866l0.434,0.75l0.708,1.227l-1.143,1.979h-1.416h-0.867l-0.434-0.75
		l-0.709-1.229l1.143-1.977H26.836z M10.304,7.894L9.161,5.915L9.87,4.687l0.433-0.75h0.866h1.417l1.145,1.979L13.02,7.143
		l-0.434,0.749l-0.865,0.001L10.304,7.894z M6.169,19.005l-0.433,0.75l-0.709,1.229l-2.283-0.002l-0.706-1.228l-0.433-0.75
		l0.433-0.75l0.708-1.229h2.281l0.709,1.229L6.169,19.005z M11.171,34.071h-0.87L9.87,33.325l-0.709-1.23l1.142-1.975l1.419-0.002
		h0.864l0.434,0.752l0.707,1.225l-1.141,1.979L11.171,34.071z M27.702,30.116l1.142,1.979l-0.708,1.229l-0.433,0.75h-0.866h-1.418
		l-1.144-1.979l0.711-1.227l0.435-0.749l0.864-0.001L27.702,30.116z M22.242,23.114c-0.394,0.312-0.819,0.576-1.291,0.766
		c-0.604,0.242-1.258,0.383-1.947,0.383s-1.346-0.141-1.948-0.383c-0.471-0.188-0.897-0.455-1.29-0.766
		c-1.033-0.814-1.746-1.998-1.943-3.359c-0.035-0.246-0.075-0.493-0.075-0.75s0.04-0.503,0.075-0.75
		c0.197-1.361,0.91-2.544,1.943-3.359c0.393-0.311,0.818-0.574,1.289-0.765c0.604-0.242,1.26-0.384,1.949-0.384
		s1.346,0.142,1.948,0.384c0.471,0.188,0.896,0.454,1.291,0.765c1.032,0.814,1.745,1.998,1.941,3.359
		c0.035,0.247,0.075,0.493,0.075,0.75s-0.04,0.503-0.075,0.75C23.988,21.116,23.276,22.299,22.242,23.114z M32.978,20.98
		l-0.707-1.226l-0.434-0.75l0.434-0.749l0.709-1.229h2.28l0.709,1.229l0.433,0.748l-0.435,0.751l-0.707,1.228L32.978,20.98z"/>
</g>
<g>
</g>
<g>
</g>
<g>
</g>
<g>
</g>
<g>
</g>
<g>
</g>
<g>
</g>
<g>
</g>
<g>
</g>
<g>
</g>
<g>
</g>
<g>
</g>
<g>
</g>
<g>
</g>
<g>
</g>
</svg>
