<?xml version="1.0" encoding="iso-8859-1"?>
<!-- Generator: Adobe Illustrator 16.0.0, SVG Export Plug-In . SVG Version: 6.00 Build 0)  -->
<!DOCTYPE svg PUBLIC "-//W3C//DTD SVG 1.1//EN" "http://www.w3.org/Graphics/SVG/1.1/DTD/svg11.dtd">
<svg version="1.1" id="Capa_1" xmlns="http://www.w3.org/2000/svg" xmlns:xlink="http://www.w3.org/1999/xlink" x="0px" y="0px"
	 width="32.292px" height="32.292px" viewBox="0 0 32.292 32.292" style="enable-background:new 0 0 32.292 32.292;"
	 xml:space="preserve">
<g>
	<path d="M31.771,15.625h-3.32l1.669-1.669c0.202-0.203,0.202-0.535,0-0.737c-0.202-0.203-0.534-0.203-0.736,0l-2.406,2.406h-3.631
		c-0.115-1.602-0.751-3.059-1.744-4.202l5.96-5.959c0.203-0.204,0.203-0.534,0-0.736c-0.202-0.204-0.533-0.204-0.736,0l-5.959,5.959
		c-1.145-0.99-2.6-1.626-4.2-1.742V5.583l2.402-2.404c0.203-0.202,0.203-0.533,0-0.736s-0.533-0.203-0.736,0l-1.666,1.667V0.521
		C16.667,0.235,16.432,0,16.146,0c-0.286,0-0.521,0.235-0.521,0.521v3.588l-1.669-1.667c-0.203-0.203-0.533-0.203-0.736,0
		s-0.203,0.534,0,0.736l2.405,2.404v3.363c-1.6,0.115-3.057,0.751-4.2,1.742L5.465,4.729c-0.203-0.204-0.534-0.204-0.736,0
		c-0.202,0.203-0.202,0.533,0,0.736l5.96,5.959c-0.993,1.146-1.627,2.6-1.744,4.202H5.85l-2.406-2.403
		c-0.204-0.203-0.534-0.203-0.737,0s-0.203,0.533,0,0.736l1.669,1.667H0.521C0.234,15.625,0,15.859,0,16.146
		s0.234,0.521,0.521,0.521h3.856l-1.668,1.669c-0.204,0.203-0.204,0.535,0,0.736c0.103,0.104,0.236,0.152,0.369,0.152
		s0.267-0.051,0.369-0.152l2.404-2.405h3.096c0.115,1.601,0.751,3.056,1.741,4.2l-5.958,5.958c-0.202,0.204-0.202,0.533,0,0.737
		c0.104,0.102,0.235,0.152,0.369,0.152c0.132,0,0.267-0.051,0.369-0.152l5.958-5.958c1.145,0.991,2.6,1.626,4.201,1.742v3.365
		l-2.402,2.404c-0.203,0.204-0.203,0.533,0,0.736c0.102,0.103,0.235,0.153,0.369,0.153c0.134,0,0.267-0.053,0.369-0.153l1.665-1.666
		v3.585c0,0.287,0.234,0.521,0.521,0.521c0.287,0,0.521-0.233,0.521-0.521v-3.587l1.669,1.671c0.203,0.201,0.533,0.201,0.737,0
		c0.202-0.204,0.202-0.535,0-0.737l-2.406-2.406v-3.363c1.602-0.114,3.059-0.753,4.201-1.742l5.958,5.958
		c0.104,0.104,0.236,0.152,0.368,0.152c0.133,0,0.267-0.051,0.369-0.152c0.204-0.202,0.204-0.533,0-0.736l-5.958-5.959
		c0.989-1.146,1.628-2.6,1.742-4.2h3.631l2.404,2.403c0.103,0.102,0.234,0.151,0.369,0.151c0.132,0,0.267-0.052,0.368-0.151
		c0.203-0.203,0.203-0.536,0-0.736l-1.668-1.668h3.318c0.286,0,0.521-0.234,0.521-0.521S32.057,15.625,31.771,15.625z
		 M22.304,16.667c-0.11,1.314-0.631,2.512-1.436,3.465c-0.225,0.266-0.471,0.511-0.736,0.736c-0.953,0.806-2.151,1.327-3.466,1.437
		c-0.172,0.015-0.345,0.026-0.521,0.026c-0.176,0-0.349-0.014-0.521-0.026c-1.315-0.109-2.513-0.631-3.466-1.437
		c-0.266-0.226-0.511-0.471-0.737-0.736c-0.804-0.953-1.325-2.15-1.435-3.465c-0.014-0.172-0.026-0.345-0.026-0.521
		s0.014-0.349,0.026-0.521c0.109-1.315,0.63-2.513,1.436-3.466c0.227-0.265,0.471-0.511,0.737-0.736
		c0.953-0.804,2.15-1.325,3.465-1.435c0.172-0.015,0.345-0.026,0.521-0.026c0.176,0,0.349,0.014,0.521,0.026
		c1.314,0.109,2.512,0.63,3.465,1.435c0.266,0.226,0.511,0.471,0.736,0.736c0.806,0.954,1.326,2.151,1.437,3.466V16.667z"/>
	<path d="M21.012,15.625c-0.104-0.957-0.477-1.823-1.05-2.536c-0.22-0.271-0.464-0.517-0.736-0.735
		c-0.712-0.574-1.579-0.944-2.533-1.047c-0.173-0.021-0.343-0.054-0.521-0.054c-0.178,0-0.348,0.033-0.521,0.054
		c-0.955,0.103-1.822,0.474-2.534,1.047c-0.272,0.218-0.516,0.464-0.736,0.735c-0.574,0.712-0.946,1.579-1.05,2.536
		c-0.02,0.173-0.053,0.343-0.053,0.521s0.033,0.348,0.053,0.521c0.104,0.955,0.474,1.823,1.048,2.532
		c0.22,0.272,0.466,0.517,0.736,0.736c0.712,0.576,1.579,0.948,2.536,1.05c0.173,0.021,0.343,0.056,0.521,0.056
		c0.178,0,0.348-0.034,0.521-0.056c0.956-0.102,1.823-0.474,2.535-1.05c0.271-0.22,0.517-0.464,0.736-0.736
		c0.574-0.71,0.944-1.577,1.048-2.532V15.625z M19.97,16.666c-0.091,0.671-0.352,1.281-0.742,1.796
		c-0.212,0.281-0.458,0.524-0.736,0.738c-0.515,0.391-1.127,0.651-1.799,0.743c-0.172,0.023-0.343,0.056-0.521,0.056
		c-0.178,0-0.349-0.03-0.521-0.056c-0.672-0.092-1.281-0.353-1.799-0.743c-0.279-0.214-0.525-0.457-0.736-0.738
		c-0.391-0.515-0.651-1.125-0.743-1.796c-0.022-0.172-0.053-0.343-0.053-0.521s0.029-0.349,0.053-0.521
		c0.092-0.672,0.352-1.282,0.745-1.799c0.212-0.278,0.458-0.525,0.737-0.736c0.515-0.391,1.125-0.649,1.797-0.741
		c0.172-0.023,0.343-0.054,0.521-0.054c0.178,0,0.349,0.029,0.521,0.054c0.672,0.091,1.281,0.35,1.797,0.741
		c0.278,0.211,0.524,0.458,0.736,0.736c0.393,0.515,0.653,1.127,0.744,1.799c0.022,0.172,0.054,0.343,0.054,0.521
		S19.993,16.493,19.97,16.666z"/>
</g>
<g>
</g>
<g>
</g>
<g>
</g>
<g>
</g>
<g>
</g>
<g>
</g>
<g>
</g>
<g>
</g>
<g>
</g>
<g>
</g>
<g>
</g>
<g>
</g>
<g>
</g>
<g>
</g>
<g>
</g>
</svg>
