<?xml version="1.0" encoding="iso-8859-1"?>
<!-- Generator: Adobe Illustrator 16.0.0, SVG Export Plug-In . SVG Version: 6.00 Build 0)  -->
<!DOCTYPE svg PUBLIC "-//W3C//DTD SVG 1.1//EN" "http://www.w3.org/Graphics/SVG/1.1/DTD/svg11.dtd">
<svg version="1.1" id="Capa_1" xmlns="http://www.w3.org/2000/svg" xmlns:xlink="http://www.w3.org/1999/xlink" x="0px" y="0px"
	 width="31.003px" height="31.004px" viewBox="0 0 31.003 31.004" style="enable-background:new 0 0 31.003 31.004;"
	 xml:space="preserve">
<g>
	<path d="M31.001,15.501c0-0.275-0.225-0.5-0.5-0.5h-1.247l1.601-1.602c0.194-0.195,0.194-0.513,0-0.707
		c-0.194-0.195-0.513-0.195-0.707,0l-2.308,2.309h-4.103l-3.782-1.062l-0.019-0.232l2.471-4.403l4.054-4.054
		c0.194-0.195,0.194-0.512,0-0.707s-0.513-0.195-0.707,0l-4.589,4.589l-3.74,2.101l-0.232-0.106l-1.19-4.25V3.164l2.31-2.311
		c0.193-0.195,0.193-0.513,0-0.707c-0.195-0.195-0.514-0.195-0.707,0l-1.603,1.605v-1.25c0-0.275-0.224-0.5-0.5-0.5
		s-0.5,0.225-0.5,0.5v1.246l-1.6-1.6c-0.195-0.195-0.512-0.195-0.707,0c-0.195,0.194-0.195,0.512,0,0.707l2.307,2.307v3.216
		l-1.39,4.951l-3.591-2.017L5.25,4.54c-0.195-0.194-0.512-0.194-0.707,0c-0.195,0.194-0.195,0.512,0,0.707l3.729,3.729l2.764,4.926
		l-3.912,1.099h-3.96l-2.309-2.307c-0.195-0.194-0.512-0.194-0.708,0c-0.195,0.195-0.195,0.513,0,0.707l1.601,1.6H0.501
		c-0.276,0-0.5,0.225-0.5,0.5s0.224,0.5,0.5,0.5H1.75l-1.601,1.602c-0.195,0.195-0.195,0.513,0,0.707
		c0.098,0.099,0.226,0.146,0.354,0.146s0.256-0.049,0.354-0.146l2.309-2.309h2.381l4.73,1.329l0.511,0.657l-1.948,3.472
		l-4.296,4.295c-0.195,0.195-0.195,0.514,0,0.707c0.098,0.1,0.226,0.146,0.354,0.146s0.256-0.049,0.354-0.146l3.761-3.76
		l3.832-2.152l0.997,0.379l1.162,4.143v2.771l-2.307,2.311c-0.195,0.193-0.195,0.513,0,0.707c0.098,0.099,0.226,0.146,0.354,0.146
		s0.256-0.049,0.354-0.146l1.6-1.604v1.246c0,0.274,0.224,0.5,0.5,0.5s0.5-0.226,0.5-0.5v-1.248l1.603,1.602
		c0.194,0.195,0.513,0.195,0.707,0c0.194-0.194,0.194-0.512,0-0.707l-2.312-2.309v-3.271l1.089-3.883l0.9-0.149l4.186,2.348
		l3.579,3.58c0.099,0.098,0.228,0.146,0.354,0.146s0.256-0.049,0.354-0.146c0.195-0.195,0.195-0.512,0-0.707l-4.621-4.621
		l-1.893-3.373l0.324-0.344l5.043-1.416h2.523l2.309,2.307c0.098,0.099,0.226,0.146,0.354,0.146s0.256-0.049,0.354-0.146
		c0.194-0.195,0.194-0.512,0-0.707l-1.603-1.6H30.5C30.777,16.001,31.001,15.776,31.001,15.501z M21.618,16.001l-3.286,0.922
		l0.896,1.598l1.277,2.277l-0.943-0.529l-2.933-1.646L16,20.867l-0.57,2.03L15,21.369l-0.771-2.746l-2.607,1.465l-1.269,0.711
		l1.097-1.953l1.078-1.922l-3.284-0.923l-0.991-0.277l2.569-0.723l1.708-0.479l-1.645-2.933l-0.53-0.942l2.28,1.278l1.596,0.896
		l0.771-2.744l0.43-1.53l0.57,2.031l0.629,2.243l1.921-1.077l1.955-1.099l-0.712,1.27l-1.463,2.605l1.708,0.479l2.568,0.722
		L21.618,16.001z"/>
</g>
<g>
</g>
<g>
</g>
<g>
</g>
<g>
</g>
<g>
</g>
<g>
</g>
<g>
</g>
<g>
</g>
<g>
</g>
<g>
</g>
<g>
</g>
<g>
</g>
<g>
</g>
<g>
</g>
<g>
</g>
</svg>
