<?xml version="1.0" encoding="iso-8859-1"?>
<!-- Generator: Adobe Illustrator 16.0.0, SVG Export Plug-In . SVG Version: 6.00 Build 0)  -->
<!DOCTYPE svg PUBLIC "-//W3C//DTD SVG 1.1//EN" "http://www.w3.org/Graphics/SVG/1.1/DTD/svg11.dtd">
<svg version="1.1" id="Capa_1" xmlns="http://www.w3.org/2000/svg" xmlns:xlink="http://www.w3.org/1999/xlink" x="0px" y="0px"
	 width="31px" height="31px" viewBox="0 0 31 31" style="enable-background:new 0 0 31 31;" xml:space="preserve">
<g>
	<path d="M5.071,16.75l-3.125,3.126c-0.098,0.099-0.226,0.146-0.354,0.146c-0.128,0-0.256-0.049-0.354-0.146
		c-0.195-0.194-0.195-0.512,0-0.707l1.418-1.419H0.5c-0.276,0-0.5-0.225-0.5-0.5s0.224-0.5,0.5-0.5H5.071z M10.525,11.232
		c0.098,0.095,0.224,0.143,0.35,0.143c0.13,0,0.259-0.05,0.357-0.15c0.193-0.197,0.19-0.514-0.007-0.707l-4.594-4.5
		C6.433,5.828,6.116,5.83,5.924,6.026c-0.193,0.197-0.19,0.515,0.007,0.707L10.525,11.232z M11.229,19.771
		c-0.195-0.195-0.512-0.195-0.707,0l-4.594,4.594c-0.195,0.195-0.195,0.512,0,0.707c0.098,0.098,0.226,0.146,0.354,0.146
		c0.128,0,0.256-0.049,0.354-0.146l4.594-4.594C11.424,20.283,11.424,19.967,11.229,19.771z M22.395,14.25l4.895-4.893
		c0.193-0.195,0.193-0.512,0-0.707c-0.195-0.195-0.514-0.195-0.707,0l-4.602,4.6h-2.002l-2.229-2.227V8.732l4.805-4.805
		c0.195-0.195,0.195-0.513,0-0.707c-0.195-0.195-0.512-0.195-0.707,0L16.75,8.318v3.119l2.812,2.812L22.395,14.25L22.395,14.25z
		 M20.08,0.746c-0.195-0.195-0.512-0.195-0.707,0L17.75,2.369V0.5c0-0.275-0.225-0.5-0.5-0.5c-0.275,0-0.5,0.225-0.5,0.5v4.283
		l3.33-3.33C20.275,1.258,20.275,0.941,20.08,0.746z M30.5,14.25c0.275,0,0.5-0.225,0.5-0.5s-0.225-0.5-0.5-0.5h-2.156l1.418-1.418
		c0.195-0.195,0.195-0.512,0-0.707s-0.512-0.195-0.707,0L25.93,14.25H30.5z M19.771,11.229c0.098,0.099,0.226,0.146,0.354,0.146
		s0.256-0.049,0.354-0.146l4.5-4.5c0.195-0.194,0.195-0.512,0-0.707c-0.193-0.194-0.512-0.194-0.707,0l-4.5,4.5
		C19.576,10.717,19.576,11.033,19.771,11.229z M0.5,14.25h4.571l-3.125-3.125c-0.195-0.195-0.512-0.195-0.707,0
		c-0.195,0.195-0.195,0.512,0,0.707l1.418,1.418H0.5c-0.276,0-0.5,0.225-0.5,0.5S0.224,14.25,0.5,14.25z M20.479,19.771
		c-0.193-0.195-0.512-0.195-0.707,0c-0.193,0.193-0.193,0.512,0,0.707l4.596,4.594c0.098,0.098,0.226,0.146,0.354,0.146
		c0.127,0,0.256-0.049,0.354-0.146c0.194-0.195,0.194-0.512,0-0.707L20.479,19.771z M22.395,16.75h-2.83l-2.812,2.812v3.119l5.1,5.1
		c0.098,0.098,0.226,0.146,0.354,0.146s0.256-0.049,0.354-0.146c0.195-0.195,0.195-0.512,0-0.707l-4.805-4.807v-2.291l2.229-2.229
		h2.002l4.602,4.602c0.193,0.194,0.514,0.194,0.707,0c0.193-0.195,0.193-0.513,0-0.707L22.395,16.75z M16.75,26.218V30.5
		c0,0.275,0.225,0.5,0.5,0.5c0.275,0,0.5-0.225,0.5-0.5v-1.868l1.623,1.624c0.195,0.195,0.512,0.195,0.707,0s0.195-0.512,0-0.707
		L16.75,26.218z M10.92,30.255c0.195,0.195,0.512,0.195,0.707,0l1.623-1.624V30.5c0,0.275,0.224,0.5,0.5,0.5s0.5-0.225,0.5-0.5
		v-4.283l-3.33,3.331C10.725,29.743,10.725,30.061,10.92,30.255z M30.5,16.75h-4.57l3.125,3.126
		c0.098,0.099,0.228,0.146,0.354,0.146s0.256-0.049,0.354-0.146c0.193-0.194,0.193-0.512,0-0.707l-1.418-1.419H30.5
		c0.275,0,0.5-0.225,0.5-0.5S30.775,16.75,30.5,16.75z M8.606,16.75l-4.893,4.895c-0.195,0.194-0.195,0.513,0,0.707
		c0.195,0.194,0.512,0.194,0.707,0l4.6-4.602h2.003l2.227,2.229v2.289l-4.805,4.808c-0.195,0.194-0.195,0.512,0,0.707
		c0.098,0.098,0.226,0.146,0.354,0.146s0.256-0.049,0.354-0.146l5.098-5.101v-3.117l-2.812-2.812L8.606,16.75L8.606,16.75z
		 M8.445,3.221c-0.195,0.195-0.195,0.512,0,0.707l4.805,4.805v2.291l-2.227,2.228H9.02l-4.6-4.601c-0.195-0.194-0.512-0.194-0.707,0
		c-0.195,0.195-0.195,0.513,0,0.707l4.893,4.894h2.831l2.812-2.812V8.32L9.151,3.222C8.957,3.025,8.641,3.025,8.445,3.221z M13.75,0
		c-0.276,0-0.5,0.225-0.5,0.5v1.869l-1.623-1.623c-0.195-0.195-0.512-0.195-0.707,0c-0.195,0.195-0.195,0.512,0,0.707l3.33,3.33V0.5
		C14.25,0.225,14.026,0,13.75,0z"/>
</g>
<g>
</g>
<g>
</g>
<g>
</g>
<g>
</g>
<g>
</g>
<g>
</g>
<g>
</g>
<g>
</g>
<g>
</g>
<g>
</g>
<g>
</g>
<g>
</g>
<g>
</g>
<g>
</g>
<g>
</g>
</svg>
