<?xml version="1.0" encoding="iso-8859-1"?>
<!-- Generator: Adobe Illustrator 16.0.0, SVG Export Plug-In . SVG Version: 6.00 Build 0)  -->
<!DOCTYPE svg PUBLIC "-//W3C//DTD SVG 1.1//EN" "http://www.w3.org/Graphics/SVG/1.1/DTD/svg11.dtd">
<svg version="1.1" id="Capa_1" xmlns="http://www.w3.org/2000/svg" xmlns:xlink="http://www.w3.org/1999/xlink" x="0px" y="0px"
	 width="32.818px" height="32.818px" viewBox="0 0 32.818 32.818" style="enable-background:new 0 0 32.818 32.818;"
	 xml:space="preserve">
<g>
	<path d="M29.109,24.424c0,0.432-0.351,0.781-0.781,0.781h-3.119v3.121c0,0.432-0.351,0.781-0.781,0.781
		c-0.432,0-0.781-0.35-0.781-0.781v-4.684h4.682C28.759,23.643,29.109,23.994,29.109,24.424z M4.676,9.354h4.682V4.672
		c0-0.432-0.35-0.781-0.781-0.781S7.795,4.24,7.795,4.672v3.12H4.676c-0.431,0-0.781,0.35-0.781,0.781
		C3.895,9.004,4.245,9.354,4.676,9.354z M3.71,24.241c0,0.432,0.35,0.781,0.781,0.781h3.121v3.121c0,0.431,0.35,0.781,0.781,0.781
		s0.781-0.351,0.781-0.781V23.46H4.492C4.061,23.46,3.71,23.808,3.71,24.241z M28.926,8.39c0-0.431-0.35-0.781-0.781-0.781h-3.121
		v-3.12c0-0.432-0.35-0.781-0.781-0.781s-0.781,0.35-0.781,0.781v4.683h4.684C28.576,9.171,28.926,8.822,28.926,8.39z
		 M32.815,16.407c0,0.432-0.35,0.781-0.781,0.781h-3.426l1.876,1.875c0.305,0.305,0.305,0.8,0,1.104
		c-0.152,0.152-0.354,0.231-0.554,0.231c-0.198,0-0.398-0.077-0.55-0.231l-2.979-2.978h-3.78v3.877h4.665
		c0.431,0,0.781,0.35,0.781,0.781c0,0.429-0.351,0.781-0.781,0.781h-4.665v4.664c0,0.432-0.351,0.781-0.781,0.781
		c-0.432,0-0.781-0.35-0.781-0.781v-4.673h-3.866V26.4l2.977,2.979c0.306,0.306,0.306,0.8,0,1.105
		c-0.151,0.152-0.352,0.229-0.55,0.229s-0.402-0.075-0.553-0.229l-1.874-1.874v3.426c0,0.432-0.35,0.781-0.781,0.781
		s-0.781-0.35-0.781-0.781v-3.426l-1.875,1.876c-0.305,0.305-0.8,0.305-1.105,0c-0.305-0.306-0.305-0.801,0-1.106l2.979-2.979
		v-3.779h-3.865v4.673c0,0.432-0.35,0.781-0.781,0.781c-0.431,0-0.781-0.35-0.781-0.781V22.63H5.537
		c-0.431,0-0.781-0.351-0.781-0.781c0-0.432,0.35-0.781,0.781-0.781h4.666v-3.876H6.421l-2.979,2.977
		C3.29,20.32,3.09,20.399,2.89,20.399c-0.2,0-0.4-0.077-0.552-0.231c-0.305-0.305-0.305-0.8,0-1.104l1.874-1.874H0.785
		c-0.432,0-0.781-0.35-0.781-0.781c0-0.431,0.35-0.781,0.781-0.781H4.21l-1.875-1.875c-0.305-0.305-0.305-0.8,0-1.105
		c0.306-0.305,0.8-0.305,1.105,0l2.979,2.979h3.781V11.76H5.536c-0.431,0-0.781-0.35-0.781-0.781c0-0.431,0.35-0.781,0.781-0.781
		h4.666V5.533c0-0.431,0.35-0.781,0.781-0.781s0.781,0.35,0.781,0.781v4.665h3.865v-3.78L12.65,3.438
		c-0.305-0.305-0.305-0.8,0-1.105c0.305-0.305,0.8-0.305,1.105,0l1.874,1.875V0.781C15.629,0.35,15.979,0,16.411,0
		c0.431,0,0.781,0.35,0.781,0.781v3.426l1.875-1.875c0.306-0.305,0.8-0.305,1.104,0c0.306,0.306,0.306,0.8,0,1.105l-2.978,2.979
		v3.78h3.866V5.532c0-0.431,0.35-0.781,0.781-0.781c0.431,0,0.781,0.35,0.781,0.781v4.665h4.666c0.432,0,0.781,0.35,0.781,0.781
		c0,0.432-0.35,0.781-0.781,0.781h-4.666v3.866h3.78l2.979-2.978c0.305-0.305,0.799-0.305,1.106,0c0.305,0.305,0.305,0.8,0,1.105
		l-1.876,1.874h3.427C32.466,15.626,32.815,15.976,32.815,16.407z M21.057,15.626V11.76H17.19h-1.562h-3.865v3.866v1.562v3.865
		h3.865h1.562h3.866v-3.865V15.626z"/>
</g>
<g>
</g>
<g>
</g>
<g>
</g>
<g>
</g>
<g>
</g>
<g>
</g>
<g>
</g>
<g>
</g>
<g>
</g>
<g>
</g>
<g>
</g>
<g>
</g>
<g>
</g>
<g>
</g>
<g>
</g>
</svg>
