<?xml version="1.0" encoding="iso-8859-1"?>
<!-- Generator: Adobe Illustrator 16.0.0, SVG Export Plug-In . SVG Version: 6.00 Build 0)  -->
<!DOCTYPE svg PUBLIC "-//W3C//DTD SVG 1.1//EN" "http://www.w3.org/Graphics/SVG/1.1/DTD/svg11.dtd">
<svg version="1.1" id="Capa_1" xmlns="http://www.w3.org/2000/svg" xmlns:xlink="http://www.w3.org/1999/xlink" x="0px" y="0px"
	 width="35.041px" height="35.041px" viewBox="0 0 35.041 35.041" style="enable-background:new 0 0 35.041 35.041;"
	 xml:space="preserve">
<g>
	<path d="M32.76,23.845c0-0.181-0.098-0.345-0.25-0.435l-1.895-1.094c-0.154-0.089-0.345-0.089-0.5,0l-1.699,0.98l-6.215-3.588
		l2.627-0.705c0.268-0.069,0.426-0.346,0.354-0.61c-0.072-0.269-0.347-0.425-0.613-0.354l-3.594,0.963l-2.456-1.418l2.459-1.42
		l3.592,0.962c0.043,0.012,0.088,0.017,0.131,0.017c0.221,0,0.424-0.147,0.482-0.371c0.07-0.267-0.088-0.541-0.354-0.612
		l-2.627-0.703l6.322-3.65l1.586,0.916c0.078,0.044,0.164,0.067,0.25,0.067s0.174-0.022,0.25-0.067l1.896-1.092
		c0.154-0.089,0.25-0.254,0.25-0.433l-0.002-1.162V9.011c0-0.179-0.094-0.344-0.25-0.434l-1.895-1.092
		c-0.152-0.089-0.344-0.089-0.5,0l-1.891,1.091c-0.156,0.089-0.252,0.254-0.252,0.433v1.962l-6.268,3.619l0.702-2.627
		c0.072-0.267-0.086-0.541-0.354-0.612c-0.266-0.069-0.538,0.087-0.61,0.354l-0.963,3.593l-2.459,1.42v-2.839l2.629-2.631
		c0.194-0.195,0.194-0.512,0-0.707s-0.513-0.195-0.707,0l-1.92,1.925V5.161l1.644-0.948c0.155-0.089,0.25-0.254,0.25-0.433V1.594
		c0-0.178-0.095-0.343-0.248-0.433L17.77,0.066c-0.154-0.089-0.345-0.089-0.5,0l-1.894,1.094c-0.154,0.089-0.25,0.254-0.25,0.433
		v2.186c0,0.179,0.095,0.344,0.25,0.433l1.644,0.948v7.305l-1.923-1.924c-0.195-0.195-0.512-0.195-0.707,0
		c-0.195,0.195-0.195,0.512,0,0.707l2.63,2.631v2.839l-2.459-1.42l-0.963-3.593c-0.071-0.267-0.346-0.423-0.612-0.354
		c-0.267,0.071-0.425,0.346-0.354,0.612l0.704,2.627l-6.269-3.619l0.001-0.939L7.066,9.01c0-0.179-0.096-0.343-0.25-0.433
		L4.923,7.484c-0.154-0.089-0.345-0.09-0.499,0L2.531,8.577c-0.155,0.089-0.25,0.254-0.25,0.433l-0.001,2.186
		c0,0.179,0.095,0.344,0.25,0.433l1.894,1.094c0.078,0.044,0.164,0.067,0.25,0.067c0.086,0,0.172-0.022,0.25-0.067l1.586-0.917
		l6.324,3.651l-2.626,0.703c-0.267,0.071-0.425,0.346-0.354,0.612c0.06,0.223,0.262,0.371,0.482,0.371
		c0.043,0,0.086-0.005,0.13-0.017l3.592-0.962l2.46,1.42l-2.458,1.418l-3.594-0.963c-0.265-0.069-0.541,0.088-0.612,0.354
		s0.087,0.541,0.354,0.61l2.628,0.705L6.62,23.297l-1.7-0.978c-0.155-0.089-0.345-0.088-0.499,0L2.529,23.41
		c-0.155,0.09-0.251,0.254-0.251,0.435l-0.001,1.026l0.001,0.135l-0.001,1.022c0,0.179,0.095,0.345,0.25,0.435l1.894,1.095
		c0.078,0.044,0.164,0.065,0.25,0.065s0.172-0.021,0.25-0.065l1.893-1.095c0.155-0.09,0.25-0.254,0.25-0.434l-0.001-1.162v-0.67
		l6.27-3.619l-0.703,2.625c-0.071,0.268,0.087,0.541,0.354,0.611c0.043,0.012,0.087,0.018,0.13,0.018
		c0.221,0,0.423-0.146,0.482-0.371l0.961-3.592l2.46-1.42v2.84l-2.63,2.631c-0.195,0.194-0.195,0.513,0,0.707
		c0.195,0.194,0.512,0.194,0.707,0l1.923-1.924v7.176l-1.644,0.947c-0.155,0.09-0.25,0.254-0.25,0.435v2.186
		c0,0.179,0.095,0.343,0.25,0.433l1.894,1.096c0.078,0.044,0.164,0.066,0.25,0.066s0.173-0.021,0.25-0.066l1.893-1.096
		c0.153-0.088,0.25-0.254,0.25-0.433V31.26c0-0.18-0.095-0.346-0.25-0.434l-1.641-0.947v-7.176l1.924,1.924
		c0.098,0.099,0.227,0.146,0.354,0.146c0.129,0,0.257-0.049,0.354-0.146c0.195-0.194,0.195-0.512,0-0.707l-2.631-2.631v-2.838
		l2.461,1.42l0.961,3.59c0.06,0.225,0.263,0.371,0.481,0.371c0.043,0,0.087-0.004,0.13-0.017c0.268-0.071,0.426-0.346,0.354-0.612
		l-0.703-2.625l6.269,3.621v1.832c0,0.18,0.096,0.344,0.25,0.434l1.896,1.095c0.078,0.044,0.164,0.065,0.25,0.065
		s0.172-0.021,0.25-0.065l1.893-1.095c0.154-0.09,0.25-0.254,0.25-0.434l0.002-1.162L32.76,23.845z M28.973,9.301l1.395-0.804
		L31.761,9.3v1.61l-1.396,0.803l-1.393-0.804l-0.002-0.873L28.973,9.301z M4.673,11.712l-1.394-0.805L3.281,9.3l1.392-0.803
		l1.394,0.804v1.608L4.673,11.712z M4.672,26.545L3.279,25.74v-0.738l-0.001-0.135v-0.732l1.393-0.805l1.385,0.799
		c0.003,0.008,0.004,0.015,0.007,0.021v1.593L4.672,26.545z M16.125,3.492V1.882l1.394-0.805l1.393,0.805v1.609L17.52,4.294
		L16.125,3.492z M18.914,31.549v1.609l-1.394,0.805l-1.394-0.805v-1.609l1.33-0.766c0.022,0.002,0.042,0.012,0.064,0.012
		s0.042-0.01,0.064-0.012L18.914,31.549z M31.76,25.742l-1.395,0.805l-1.394-0.805v-0.875v-0.715
		c0.004-0.008,0.006-0.016,0.008-0.023l1.386-0.801l1.395,0.808V25.742z"/>
</g>
<g>
</g>
<g>
</g>
<g>
</g>
<g>
</g>
<g>
</g>
<g>
</g>
<g>
</g>
<g>
</g>
<g>
</g>
<g>
</g>
<g>
</g>
<g>
</g>
<g>
</g>
<g>
</g>
<g>
</g>
</svg>
