<?xml version="1.0" encoding="iso-8859-1"?>
<!-- Generator: Adobe Illustrator 16.0.0, SVG Export Plug-In . SVG Version: 6.00 Build 0)  -->
<!DOCTYPE svg PUBLIC "-//W3C//DTD SVG 1.1//EN" "http://www.w3.org/Graphics/SVG/1.1/DTD/svg11.dtd">
<svg version="1.1" id="Capa_1" xmlns="http://www.w3.org/2000/svg" xmlns:xlink="http://www.w3.org/1999/xlink" x="0px" y="0px"
	 width="34.355px" height="34.354px" viewBox="0 0 34.355 34.354" style="enable-background:new 0 0 34.355 34.354;"
	 xml:space="preserve">
<g>
	<path d="M13.339,27.139c-0.374,0-0.677-0.304-0.677-0.677v-3.812l-3.943,3.942c-0.132,0.133-0.305,0.198-0.479,0.198
		c-0.173,0-0.347-0.065-0.478-0.198c-0.264-0.265-0.264-0.692,0-0.957l3.943-3.943H7.893c-0.374,0-0.677-0.303-0.677-0.677
		c0-0.372,0.303-0.676,0.677-0.676h5.447h0.677v0.676v5.447C14.016,26.835,13.713,27.139,13.339,27.139z M20.338,7.894v5.447v0.677
		h0.676h5.446c0.373,0,0.676-0.303,0.676-0.677s-0.303-0.677-0.676-0.677h-3.812l3.943-3.943c0.265-0.264,0.265-0.692,0-0.957
		s-0.693-0.265-0.957,0l-3.943,3.943V7.894c0-0.374-0.303-0.677-0.677-0.677C20.641,7.217,20.338,7.52,20.338,7.894z M7.564,13.485
		c0,0.374,0.303,0.677,0.677,0.677l5.919-0.001V8.242c0-0.374-0.303-0.677-0.677-0.677c-0.374,0-0.677,0.303-0.677,0.677v3.607
		L8.719,7.763c-0.265-0.265-0.693-0.265-0.958,0c-0.264,0.265-0.264,0.693,0,0.957l4.086,4.087l-3.607,0.001
		C7.867,12.808,7.564,13.111,7.564,13.485z M26.791,20.871c0-0.373-0.303-0.677-0.677-0.677h-5.242h-0.677v0.677v5.243
		c0,0.373,0.303,0.676,0.677,0.676c0.373,0,0.676-0.303,0.676-0.676v-3.608l4.089,4.087c0.132,0.133,0.305,0.197,0.478,0.197
		s0.347-0.064,0.479-0.197c0.265-0.265,0.265-0.692,0-0.957l-4.089-4.088h3.609C26.488,21.548,26.791,21.245,26.791,20.871z
		 M34.355,17.178l-4.09,4.088l-3.41-3.411h-9v9.001l3.409,3.41l-4.089,4.089l-4.087-4.089l3.411-3.412v-8.999h-9l-3.412,3.41
		L0,17.178l4.089-4.088L7.5,16.5h9v-9l-3.411-3.412L17.176,0l4.089,4.089l-3.41,3.41V16.5h9.001l3.409-3.411L34.355,17.178z
		 M6.261,17.178L5.584,16.5l-1.497-1.496L2.59,16.5l-0.677,0.677l0.677,0.677l1.497,1.497l1.497-1.497L6.261,17.178z M17.853,28.771
		l-0.678-0.678L16.5,28.769l-1.497,1.499l1.497,1.497l0.676,0.676l0.678-0.678l1.496-1.495L17.853,28.771z M17.853,5.583
		l1.496-1.496l-1.496-1.496l-0.678-0.678L16.5,2.59l-1.497,1.498L16.5,5.586l0.676,0.676L17.853,5.583z M31.762,17.854l0.676-0.677
		L31.762,16.5l-1.497-1.496L28.767,16.5l-0.677,0.677l0.678,0.677l1.497,1.497L31.762,17.854z"/>
</g>
<g>
</g>
<g>
</g>
<g>
</g>
<g>
</g>
<g>
</g>
<g>
</g>
<g>
</g>
<g>
</g>
<g>
</g>
<g>
</g>
<g>
</g>
<g>
</g>
<g>
</g>
<g>
</g>
<g>
</g>
</svg>
