<?xml version="1.0" encoding="iso-8859-1"?>
<!-- Generator: Adobe Illustrator 16.0.0, SVG Export Plug-In . SVG Version: 6.00 Build 0)  -->
<!DOCTYPE svg PUBLIC "-//W3C//DTD SVG 1.1//EN" "http://www.w3.org/Graphics/SVG/1.1/DTD/svg11.dtd">
<svg version="1.1" id="Capa_1" xmlns="http://www.w3.org/2000/svg" xmlns:xlink="http://www.w3.org/1999/xlink" x="0px" y="0px"
	 width="37.525px" height="37.525px" viewBox="0 0 37.525 37.525" style="enable-background:new 0 0 37.525 37.525;"
	 xml:space="preserve">
<g>
	<path d="M37.457,18.51l-1.573-2.727c-0.089-0.154-0.254-0.25-0.435-0.25h-3.146c-0.181,0-0.345,0.096-0.435,0.25l-1.426,2.479
		h-3.932l1.793-3.105c0.141-0.238,0.059-0.545-0.184-0.683c-0.237-0.138-0.545-0.056-0.684,0.183l-1.994,3.453l-0.822-1.427
		l1.652-2.259l-2.781,0.303l-0.647-1.123l3.987-0.002c0.277,0,0.5-0.224,0.5-0.5c0-0.275-0.223-0.5-0.5-0.5l-3.938,0.002
		l2.139-3.703h2.859c0.18,0,0.344-0.096,0.434-0.25L29.9,5.922c0.09-0.154,0.09-0.346,0-0.5l-1.574-2.727
		c-0.09-0.154-0.254-0.25-0.434-0.25h-3.148c-0.18,0-0.344,0.096-0.434,0.25l-1.574,2.727c-0.091,0.154-0.091,0.346,0,0.5
		l1.43,2.479l-2.049,3.551l-1.791-3.104c-0.139-0.239-0.443-0.323-0.684-0.183c-0.238,0.138-0.32,0.442-0.183,0.683l1.906,3.304
		h-1.473l-1.13-2.563l-1.13,2.562h-1.296l1.906-3.304c0.139-0.239,0.057-0.545-0.184-0.683c-0.24-0.139-0.546-0.058-0.684,0.183
		l-1.883,3.261L13.35,8.399l1.434-2.475c0.09-0.155,0.09-0.348,0-0.501l-1.578-2.729c-0.088-0.154-0.254-0.25-0.432-0.25H9.626
		c-0.18,0-0.344,0.096-0.434,0.25L7.618,5.423c-0.09,0.153-0.09,0.346,0,0.5l1.576,2.729c0.088,0.153,0.254,0.25,0.433,0.25
		c0,0,0,0,0.001,0l2.857-0.005l2.139,3.705h-3.756c-0.275,0-0.5,0.224-0.5,0.5c0,0.276,0.225,0.5,0.5,0.5h3.811l-0.65,1.126
		l-2.779-0.302l1.652,2.257l-0.734,1.271l-1.907-3.299c-0.14-0.238-0.446-0.322-0.683-0.183c-0.239,0.138-0.321,0.442-0.184,0.683
		l1.798,3.107h-4.11L5.65,15.783c-0.089-0.154-0.254-0.25-0.433-0.25H2.071c-0.179,0-0.344,0.096-0.434,0.25l-1.57,2.729
		c-0.09,0.154-0.09,0.346,0,0.499l1.568,2.728c0.09,0.154,0.255,0.25,0.434,0.25l3.149,0.002c0.179,0,0.344-0.096,0.433-0.25
		l1.43-2.479h4.283l-1.968,3.409c-0.139,0.237-0.057,0.545,0.183,0.682c0.08,0.047,0.166,0.068,0.25,0.068
		c0.172,0,0.342-0.091,0.434-0.25l1.993-3.451l0.647,1.123l-1.652,2.258l2.781-0.303l0.822,1.424h-3.982c-0.276,0-0.5,0.225-0.5,0.5
		c0,0.274,0.224,0.5,0.5,0.5h3.584l-1.965,3.403l-2.862,0.003c-0.179,0-0.345,0.096-0.433,0.25L7.62,31.603
		c-0.09,0.154-0.09,0.346,0,0.5l1.572,2.727c0.09,0.154,0.254,0.25,0.434,0.25l3.152,0.002c0.178,0,0.344-0.096,0.434-0.25
		l1.572-2.73c0.088-0.153,0.088-0.344-0.002-0.498l-1.428-2.473l2.055-3.561l1.971,3.41c0.092,0.16,0.261,0.25,0.433,0.25
		c0.085,0,0.171-0.021,0.25-0.066c0.239-0.139,0.321-0.443,0.183-0.684l-2.08-3.604l1.47,0.001l1.129,2.561l1.129-2.561l1.646,0.002
		l-2.078,3.602c-0.139,0.238-0.057,0.545,0.183,0.684c0.079,0.045,0.165,0.066,0.25,0.066c0.173,0,0.341-0.09,0.433-0.25
		l1.881-3.254l1.966,3.402l-1.435,2.471c-0.09,0.156-0.09,0.348,0,0.502l1.576,2.729c0.09,0.154,0.254,0.25,0.434,0.25h3.15
		c0.178,0,0.344-0.096,0.432-0.25l1.574-2.728c0.09-0.153,0.09-0.346,0-0.5l-1.576-2.729c-0.088-0.153-0.254-0.25-0.433-0.25
		c0,0,0,0-0.001,0l-2.857,0.005l-1.967-3.406h3.765c0.276,0,0.5-0.226,0.5-0.5c0-0.275-0.224-0.5-0.5-0.5h-4.16l0.821-1.426
		l2.779,0.303l-1.652-2.256l0.736-1.275l2.08,3.604c0.092,0.16,0.262,0.25,0.434,0.25c0.084,0,0.171-0.021,0.25-0.066
		c0.238-0.139,0.32-0.442,0.184-0.684l-1.971-3.409h4.104l1.428,2.475c0.09,0.154,0.254,0.25,0.434,0.25l3.15,0.002
		c0.18,0,0.345-0.096,0.435-0.25l1.573-2.729C37.547,18.855,37.547,18.664,37.457,18.51z M27.031,3.446h0.573l0.289,0.5l0.998,1.728
		l-1.287,2.229h-1.993h-0.576l-0.289-0.5l-0.998-1.729l1.287-2.227L27.031,3.446L27.031,3.446z M9.916,7.901L8.63,5.672l0.999-1.729
		l0.287-0.5h0.576h1.996l1.287,2.229l-1,1.727l-0.287,0.498L11.91,7.898L9.916,7.901z M6.216,18.762l-0.289,0.5l-0.998,1.729
		l-2.571-0.002l-0.994-1.728l-0.288-0.499l0.287-0.499l0.996-1.729h2.569l0.998,1.729L6.216,18.762z M10.494,34.078h-0.58
		l-0.285-0.493L8.63,31.853l1.286-2.225l1.996-0.002h0.576l0.289,0.5l0.994,1.725l-1.283,2.229L10.494,34.078z M27.604,29.623
		l1.287,2.229l-0.998,1.729l-0.286,0.498h-0.576h-1.996l-1.287-2.229l1-1.727l0.289-0.498l0.574-0.002L27.604,29.623z
		 M24.039,21.851l-0.543-0.06l-0.543-0.062l-2.027-0.219l-0.612-0.065l-0.251,0.569l-0.821,1.86l-0.222,0.5l-0.221,0.5h-0.072
		l-0.221-0.5l-0.22-0.5l-0.822-1.864l-0.25-0.566l-0.615,0.066l-2.025,0.221l-0.543,0.061l-0.543,0.059l-0.037-0.062l0.324-0.438
		l0.321-0.441l1.203-1.645l0.364-0.499l-0.365-0.503l-1.203-1.645l-0.322-0.44l-0.322-0.44l0.035-0.062l0.543,0.059l0.545,0.061
		l2.023,0.22l0.615,0.065l0.25-0.565l0.822-1.863l0.221-0.5l0.221-0.5h0.074l0.221,0.5l0.221,0.5l0.821,1.863l0.25,0.567
		l0.614-0.066l2.024-0.221l0.545-0.061l0.543-0.059l0.035,0.062l-0.321,0.44l-0.322,0.44l-1.203,1.645l-0.364,0.501l0.363,0.499
		l1.204,1.645l0.322,0.441l0.321,0.438L24.039,21.851z M22.003,23.378l-0.288,0.5h-0.578h-0.806l0.35-0.791l0.251-0.568l0.612,0.066
		l0.861,0.094L22.003,23.378z M16.387,23.875h-0.576l-0.289-0.5l-0.402-0.696l0.858-0.092l0.616-0.068l0.249,0.566l0.349,0.79
		H16.387z M12.858,18.762l0.288-0.5l0.402-0.697l0.51,0.697l0.367,0.501l-0.365,0.499l-0.511,0.698l-0.403-0.698L12.858,18.762z
		 M15.52,14.149l0.289-0.5h0.576h0.807l-0.35,0.791l-0.25,0.566l-0.615-0.066l-0.859-0.094L15.52,14.149z M21.137,13.649h0.578
		l0.288,0.499l0.4,0.697l-0.857,0.093l-0.615,0.067l-0.25-0.566l-0.35-0.79H21.137L21.137,13.649z M23.464,19.262l-0.365-0.499
		l0.366-0.501l0.511-0.697l0.402,0.697l0.287,0.5l-0.286,0.5l-0.403,0.698L23.464,19.262z M32.589,20.987l-0.995-1.725l-0.288-0.5
		l0.288-0.5l0.998-1.729h2.567l1,1.729l0.287,0.497l-0.289,0.503l-0.996,1.727L32.589,20.987z"/>
</g>
<g>
</g>
<g>
</g>
<g>
</g>
<g>
</g>
<g>
</g>
<g>
</g>
<g>
</g>
<g>
</g>
<g>
</g>
<g>
</g>
<g>
</g>
<g>
</g>
<g>
</g>
<g>
</g>
<g>
</g>
</svg>
