<?xml version="1.0" encoding="iso-8859-1"?>
<!-- Generator: Adobe Illustrator 16.0.0, SVG Export Plug-In . SVG Version: 6.00 Build 0)  -->
<!DOCTYPE svg PUBLIC "-//W3C//DTD SVG 1.1//EN" "http://www.w3.org/Graphics/SVG/1.1/DTD/svg11.dtd">
<svg version="1.1" id="Capa_1" xmlns="http://www.w3.org/2000/svg" xmlns:xlink="http://www.w3.org/1999/xlink" x="0px" y="0px"
	 width="31.004px" height="31.004px" viewBox="0 0 31.004 31.004" style="enable-background:new 0 0 31.004 31.004;"
	 xml:space="preserve">
<g>
	<g>
		<path d="M31,15.502c0-0.275-0.225-0.5-0.5-0.5h-1.247l1.601-1.602c0.195-0.195,0.195-0.513,0-0.707
			c-0.193-0.195-0.512-0.195-0.707,0l-2.308,2.309h-5.427c-0.11-1.537-0.721-2.936-1.674-4.033l2.103-2.102l3.267-0.002
			c0.275,0,0.5-0.225,0.5-0.5c0-0.276-0.225-0.5-0.5-0.5l-2.266,0.002l2.618-2.619c0.194-0.195,0.194-0.512,0-0.707
			c-0.194-0.195-0.513-0.195-0.707,0l-2.616,2.617V4.894c0-0.276-0.225-0.5-0.5-0.5c-0.277,0-0.5,0.224-0.5,0.5v3.264l-2.104,2.104
			c-1.1-0.951-2.496-1.562-4.032-1.672V3.163l2.308-2.308c0.193-0.195,0.193-0.513,0-0.707c-0.195-0.195-0.514-0.195-0.707,0
			l-1.601,1.601V0.502c0-0.275-0.225-0.5-0.5-0.5s-0.5,0.225-0.5,0.5V1.75l-1.602-1.602c-0.194-0.195-0.512-0.195-0.707,0
			c-0.194,0.194-0.194,0.512,0,0.707l2.309,2.309V8.59c-1.536,0.11-2.934,0.721-4.032,1.672L8.861,8.155L8.822,4.889
			C8.818,4.614,8.623,4.405,8.316,4.395C8.04,4.399,7.818,4.625,7.822,4.901l0.027,2.242L5.248,4.541
			c-0.195-0.195-0.513-0.195-0.707,0c-0.194,0.195-0.194,0.512,0,0.707l2.633,2.633L4.89,7.908C4.613,7.911,4.392,8.137,4.396,8.414
			c0.002,0.273,0.227,0.494,0.5,0.494c0.002,0,0.004,0,0.006,0L8.165,8.87l2.099,2.099c-0.951,1.1-1.562,2.496-1.673,4.033H3.164
			l-2.309-2.307c-0.194-0.195-0.512-0.195-0.707,0c-0.194,0.195-0.194,0.512,0,0.707l1.602,1.6H0.5c-0.275,0-0.5,0.225-0.5,0.5
			s0.225,0.5,0.5,0.5h1.247l-1.601,1.603c-0.195,0.194-0.195,0.513,0,0.707c0.098,0.099,0.226,0.146,0.354,0.146
			s0.256-0.049,0.354-0.146l2.307-2.31h5.427c0.11,1.536,0.721,2.935,1.672,4.032l-2.503,2.503l-3.312,0.002
			c-0.275,0-0.5,0.226-0.5,0.5c0,0.275,0.225,0.5,0.5,0.5l2.312-0.002L4.54,25.754c-0.194,0.195-0.194,0.513,0,0.707
			c0.099,0.099,0.226,0.146,0.354,0.146c0.127,0,0.256-0.049,0.354-0.146l2.17-2.17v2.219c0,0.276,0.225,0.5,0.5,0.5
			s0.5-0.224,0.5-0.5v-3.219l2.55-2.55c1.099,0.952,2.496,1.562,4.033,1.673v5.427l-2.306,2.309c-0.195,0.194-0.195,0.513,0,0.707
			c0.098,0.099,0.226,0.146,0.354,0.146s0.256-0.049,0.354-0.146l1.598-1.602v1.247c0,0.275,0.225,0.5,0.5,0.5s0.5-0.225,0.5-0.5
			v-1.248l1.603,1.603c0.193,0.194,0.512,0.194,0.707,0c0.193-0.194,0.193-0.513,0-0.707l-2.31-2.31v-5.426
			c1.537-0.11,2.937-0.721,4.033-1.673l2.704,2.706l0.041,3.332c0.006,0.272,0.229,0.494,0.5,0.494c0.004,0,0.006,0,0.008,0
			c0.275-0.004,0.497-0.23,0.492-0.506l-0.026-2.311l2.001,2.002c0.1,0.1,0.227,0.146,0.354,0.146s0.256-0.049,0.354-0.146
			c0.194-0.193,0.194-0.513,0-0.707l-1.966-1.966l2.218-0.026c0.276-0.003,0.497-0.229,0.494-0.506
			c-0.003-0.273-0.228-0.494-0.5-0.494c-0.002,0-0.004,0-0.006,0l-3.194,0.038l-2.766-2.766c0.949-1.1,1.562-2.496,1.672-4.032
			h5.428l2.309,2.307c0.098,0.098,0.226,0.146,0.354,0.146s0.256-0.05,0.354-0.146c0.195-0.195,0.195-0.514,0-0.707l-1.6-1.6h1.246
			C30.775,16.002,31,15.777,31,15.502z M21.438,15.502c0,0.169-0.012,0.335-0.023,0.5c-0.104,1.263-0.604,2.411-1.378,3.326
			c-0.218,0.255-0.452,0.49-0.707,0.707c-0.915,0.773-2.063,1.273-3.327,1.379c-0.165,0.014-0.331,0.025-0.5,0.025
			s-0.335-0.014-0.5-0.025c-1.263-0.104-2.412-0.604-3.327-1.379c-0.255-0.217-0.49-0.452-0.707-0.707
			c-0.771-0.915-1.271-2.063-1.378-3.326c-0.014-0.165-0.024-0.331-0.024-0.5s0.012-0.335,0.024-0.5
			c0.104-1.262,0.604-2.412,1.379-3.327c0.216-0.255,0.452-0.491,0.707-0.707c0.915-0.772,2.063-1.272,3.326-1.378
			c0.165-0.014,0.331-0.025,0.5-0.025s0.335,0.013,0.5,0.025c1.264,0.105,2.411,0.605,3.326,1.378
			c0.255,0.216,0.49,0.452,0.707,0.707c0.771,0.915,1.271,2.065,1.379,3.327C21.426,15.167,21.438,15.333,21.438,15.502z"/>
		<path d="M18.432,11.861C17.75,11.31,16.917,10.954,16,10.855c-0.166-0.02-0.329-0.052-0.5-0.052s-0.334,0.032-0.5,0.052
			c-0.917,0.099-1.75,0.455-2.432,1.006c-0.262,0.211-0.496,0.447-0.707,0.707c-0.551,0.684-0.908,1.516-1.008,2.434
			c-0.019,0.166-0.051,0.329-0.051,0.5s0.032,0.334,0.051,0.5c0.1,0.917,0.457,1.749,1.008,2.433
			c0.209,0.262,0.445,0.495,0.707,0.707c0.682,0.551,1.514,0.906,2.432,1.006c0.166,0.02,0.329,0.051,0.5,0.051
			s0.334-0.031,0.5-0.051c0.918-0.1,1.75-0.455,2.432-1.006c0.262-0.212,0.498-0.445,0.707-0.707
			c0.551-0.684,0.908-1.516,1.008-2.433c0.02-0.166,0.051-0.329,0.051-0.5s-0.031-0.334-0.051-0.5
			c-0.1-0.918-0.457-1.75-1.008-2.434C18.928,12.309,18.691,12.072,18.432,11.861z M19.195,15.502c0,0.171-0.027,0.335-0.051,0.5
			c-0.088,0.646-0.336,1.23-0.713,1.726c-0.203,0.268-0.439,0.504-0.707,0.707c-0.494,0.377-1.083,0.625-1.727,0.713
			c-0.165,0.021-0.329,0.051-0.5,0.051s-0.335-0.027-0.5-0.051c-0.644-0.088-1.231-0.336-1.726-0.713
			c-0.268-0.203-0.504-0.439-0.707-0.707c-0.377-0.494-0.625-1.08-0.713-1.726c-0.022-0.165-0.051-0.329-0.051-0.5
			s0.027-0.335,0.051-0.5c0.088-0.645,0.336-1.23,0.713-1.727c0.203-0.268,0.439-0.504,0.707-0.707
			c0.494-0.377,1.082-0.625,1.726-0.713c0.165-0.022,0.329-0.052,0.5-0.052s0.335,0.028,0.5,0.052
			c0.644,0.088,1.229,0.336,1.727,0.713c0.268,0.203,0.504,0.439,0.707,0.707c0.377,0.494,0.625,1.082,0.713,1.727
			C19.168,15.167,19.195,15.331,19.195,15.502z"/>
	</g>
</g>
<g>
</g>
<g>
</g>
<g>
</g>
<g>
</g>
<g>
</g>
<g>
</g>
<g>
</g>
<g>
</g>
<g>
</g>
<g>
</g>
<g>
</g>
<g>
</g>
<g>
</g>
<g>
</g>
<g>
</g>
</svg>
