<?xml version="1.0" encoding="iso-8859-1"?>
<!-- Generator: Adobe Illustrator 16.0.0, SVG Export Plug-In . SVG Version: 6.00 Build 0)  -->
<!DOCTYPE svg PUBLIC "-//W3C//DTD SVG 1.1//EN" "http://www.w3.org/Graphics/SVG/1.1/DTD/svg11.dtd">
<svg version="1.1" id="Capa_1" xmlns="http://www.w3.org/2000/svg" xmlns:xlink="http://www.w3.org/1999/xlink" x="0px" y="0px"
	 width="38.489px" height="38.489px" viewBox="0 0 38.489 38.489" style="enable-background:new 0 0 38.489 38.489;"
	 xml:space="preserve">
<g>
	<path d="M33.729,13.479l2.236-1.285V9.621l-2.236-1.288l-2.234,1.288v1.996l-2.416,1.391v-1.714c0-0.276-0.225-0.5-0.5-0.5
		c-0.276,0-0.5,0.224-0.5,0.5v2.289l-1.771,1.02v-4.494c0-0.276-0.225-0.5-0.5-0.5c-0.277,0-0.5,0.224-0.5,0.5v5.069l-0.423,0.243
		l-5.139-2.958v-0.656l4.253-2.455c0.238-0.138,0.32-0.443,0.184-0.683c-0.139-0.24-0.445-0.322-0.684-0.183l-3.753,2.167V8.608
		l1.839-1.063c0.238-0.138,0.32-0.444,0.184-0.683c-0.141-0.24-0.447-0.321-0.684-0.184l-1.339,0.774V4.858l1.735-1V1.286L19.245,0
		l-2.236,1.286v2.573l1.736,1v2.678L17.261,6.68c-0.237-0.136-0.544-0.056-0.683,0.184c-0.139,0.238-0.057,0.545,0.183,0.683
		l1.984,1.146v2.045l-3.897-2.25c-0.238-0.138-0.546-0.057-0.684,0.183c-0.139,0.239-0.057,0.545,0.184,0.683l4.397,2.539v0.572
		l-5.14,2.958l-0.568-0.328l-0.001-4.984c0-0.276-0.224-0.5-0.5-0.5s-0.5,0.224-0.5,0.5l0.001,4.409l-1.773-1.021v-2.204
		c0-0.276-0.224-0.5-0.5-0.5c-0.275,0-0.5,0.224-0.5,0.5v1.628l-2.269-1.305V9.622L4.76,8.334L2.524,9.622v2.573L4.76,13.48
		l1.735-0.997l2.271,1.307l-1.414,0.817c-0.238,0.138-0.32,0.443-0.183,0.683c0.093,0.161,0.261,0.25,0.433,0.25
		c0.086,0,0.172-0.021,0.25-0.067l1.916-1.106l1.775,1.021L7.71,17.601c-0.239,0.139-0.321,0.444-0.183,0.684
		c0.092,0.161,0.261,0.25,0.433,0.25c0.085,0,0.171-0.021,0.25-0.067l4.335-2.502l0.561,0.322v5.911l-0.525,0.302l-4.368-2.523
		c-0.237-0.137-0.546-0.056-0.683,0.184c-0.139,0.239-0.057,0.545,0.183,0.684l3.867,2.232L9.806,24.1l-1.951-1.127
		c-0.238-0.137-0.545-0.056-0.684,0.185c-0.139,0.237-0.057,0.545,0.184,0.683l1.449,0.838l-2.31,1.328l-1.733-0.998l-2.236,1.287
		l0.002,2.572l2.234,1.287l2.236-1.287V26.87l2.27-1.308v1.591c0,0.274,0.225,0.5,0.5,0.5c0.276,0,0.5-0.226,0.5-0.5v-2.165
		l1.771-1.02v4.369c0,0.276,0.224,0.5,0.5,0.5c0.275,0,0.5-0.224,0.5-0.5v-4.945l0.568-0.326l5.14,2.958v0.53l-4.397,2.539
		c-0.24,0.139-0.322,0.444-0.184,0.685c0.092,0.159,0.26,0.25,0.434,0.25c0.084,0,0.17-0.021,0.25-0.067l3.897-2.25v2.045
		l-1.984,1.146c-0.239,0.138-0.321,0.443-0.183,0.683s0.443,0.32,0.683,0.183l1.484-0.855v2.721l-1.736,0.998v2.572l2.236,1.286
		l2.235-1.286v-2.572l-1.735-0.998v-2.638l1.338,0.772c0.078,0.045,0.166,0.067,0.25,0.067c0.173,0,0.341-0.089,0.435-0.25
		c0.14-0.239,0.058-0.545-0.185-0.683l-1.838-1.062v-2.046l3.752,2.167c0.238,0.139,0.547,0.059,0.685-0.183
		c0.14-0.239,0.058-0.546-0.185-0.685l-4.252-2.455v-0.614l5.139-2.957l0.421,0.241v5.031c0,0.275,0.226,0.5,0.5,0.5
		c0.276,0,0.5-0.225,0.5-0.5v-4.455l1.772,1.021v2.249c0,0.275,0.224,0.5,0.5,0.5c0.275,0,0.5-0.225,0.5-0.5V25.48l2.414,1.391
		v1.998l2.236,1.287l2.234-1.287l0.002-2.572l-2.236-1.287l-1.732,0.998l-2.383-1.371l1.375-0.795
		c0.24-0.138,0.322-0.443,0.185-0.683c-0.138-0.241-0.443-0.321-0.685-0.185l-1.877,1.084l-1.773-1.021l3.794-2.19
		c0.239-0.138,0.321-0.442,0.184-0.683c-0.139-0.24-0.444-0.321-0.684-0.184l-4.296,2.479l-0.451-0.26V16.29l0.486-0.28l4.262,2.46
		c0.078,0.045,0.165,0.067,0.25,0.067c0.172,0,0.341-0.09,0.433-0.25c0.14-0.239,0.058-0.545-0.183-0.684l-3.762-2.17l1.775-1.021
		l1.842,1.063c0.08,0.045,0.166,0.067,0.25,0.067c0.174,0,0.342-0.089,0.435-0.25c0.139-0.239,0.057-0.545-0.185-0.683l-1.34-0.774
		l2.346-1.35L33.729,13.479z M24.384,16.861v4.761v0.575l-0.503,0.289l-4.136,2.381l-0.5,0.288l-0.5-0.288l-4.137-2.381
		l-0.504-0.289v-0.575v-4.761v-0.575l0.504-0.289l4.137-2.381l0.5-0.288l0.5,0.288l4.136,2.381l0.503,0.289V16.861z"/>
</g>
<g>
</g>
<g>
</g>
<g>
</g>
<g>
</g>
<g>
</g>
<g>
</g>
<g>
</g>
<g>
</g>
<g>
</g>
<g>
</g>
<g>
</g>
<g>
</g>
<g>
</g>
<g>
</g>
<g>
</g>
</svg>
