<?xml version="1.0" encoding="iso-8859-1"?>
<!-- Generator: Adobe Illustrator 16.0.0, SVG Export Plug-In . SVG Version: 6.00 Build 0)  -->
<!DOCTYPE svg PUBLIC "-//W3C//DTD SVG 1.1//EN" "http://www.w3.org/Graphics/SVG/1.1/DTD/svg11.dtd">
<svg version="1.1" id="Capa_1" xmlns="http://www.w3.org/2000/svg" xmlns:xlink="http://www.w3.org/1999/xlink" x="0px" y="0px"
	 width="32.819px" height="32.819px" viewBox="0 0 32.819 32.819" style="enable-background:new 0 0 32.819 32.819;"
	 xml:space="preserve">
<g>
	<path d="M32.042,15.628H24.76l3.247-3.25c0.306-0.305,0.306-0.8,0-1.105c-0.305-0.305-0.799-0.305-1.104,0l-3.42,3.42l-2.125-2.125
		l7.078-7.077c0.305-0.305,0.305-0.8,0-1.105c-0.306-0.305-0.801-0.305-1.105,0l-7.078,7.077l-2.248-2.249l3.723-3.724
		c0.306-0.305,0.306-0.8,0-1.105c-0.305-0.305-0.801-0.305-1.105,0l-3.428,3.427V0.781C17.194,0.35,16.844,0,16.413,0
		s-0.781,0.35-0.781,0.781v7.031l-3.427-3.427c-0.305-0.305-0.8-0.305-1.105,0s-0.305,0.8,0,1.105l3.725,3.725l-2.25,2.249
		L5.497,4.387c-0.305-0.305-0.8-0.305-1.105,0s-0.305,0.8,0,1.105l7.079,7.078l-2.125,2.125l-3.42-3.421
		c-0.305-0.305-0.8-0.305-1.105,0s-0.305,0.8,0,1.105l3.248,3.25H0.786c-0.432,0-0.781,0.35-0.781,0.781
		c0,0.431,0.35,0.781,0.781,0.781h7.281L4.819,20.44c-0.305,0.305-0.305,0.801,0,1.105c0.152,0.151,0.352,0.23,0.552,0.23
		c0.201,0,0.4-0.077,0.553-0.23l3.419-3.42l2.124,2.126L4.39,27.326c-0.305,0.305-0.305,0.802,0,1.106
		c0.152,0.153,0.352,0.23,0.552,0.23s0.4-0.075,0.552-0.23l7.078-7.077l2.249,2.25l-3.724,3.723c-0.305,0.305-0.305,0.801,0,1.105
		c0.305,0.306,0.8,0.306,1.105,0l3.427-3.427v7.031c0,0.432,0.35,0.781,0.781,0.781c0.431,0,0.781-0.35,0.781-0.781v-7.031
		l3.428,3.428c0.151,0.153,0.352,0.23,0.552,0.23c0.199,0,0.4-0.075,0.552-0.23c0.305-0.305,0.305-0.802,0-1.106l-3.726-3.723
		l2.248-2.25l7.08,7.078c0.152,0.152,0.353,0.231,0.552,0.231c0.2,0,0.4-0.077,0.553-0.231c0.305-0.305,0.305-0.801,0-1.105
		l-7.08-7.078l2.126-2.124l3.419,3.42c0.152,0.152,0.352,0.23,0.553,0.23c0.2,0,0.399-0.075,0.552-0.23
		c0.305-0.305,0.305-0.8,0-1.104l-3.248-3.249h7.281c0.432,0,0.781-0.351,0.781-0.781C32.814,15.979,32.472,15.628,32.042,15.628z
		 M16.899,22.496l-0.484,0.486l-0.483-0.485l-0.297-0.296l-5.009-5.011l-0.172-0.172l-0.609-0.609l0.609-0.609l0.173-0.172
		l5.008-5.01l0.297-0.296l0.484-0.485l0.485,0.485l0.297,0.296l5.01,5.01l0.171,0.172l0.61,0.608l-0.61,0.609l-0.171,0.172
		l-5.009,5.01L16.899,22.496z"/>
</g>
<g>
</g>
<g>
</g>
<g>
</g>
<g>
</g>
<g>
</g>
<g>
</g>
<g>
</g>
<g>
</g>
<g>
</g>
<g>
</g>
<g>
</g>
<g>
</g>
<g>
</g>
<g>
</g>
<g>
</g>
</svg>
