<?xml version="1.0" encoding="iso-8859-1"?>
<!-- Generator: Adobe Illustrator 16.0.0, SVG Export Plug-In . SVG Version: 6.00 Build 0)  -->
<!DOCTYPE svg PUBLIC "-//W3C//DTD SVG 1.1//EN" "http://www.w3.org/Graphics/SVG/1.1/DTD/svg11.dtd">
<svg version="1.1" id="Capa_1" xmlns="http://www.w3.org/2000/svg" xmlns:xlink="http://www.w3.org/1999/xlink" x="0px" y="0px"
	 width="32.821px" height="32.821px" viewBox="0 0 32.821 32.821" style="enable-background:new 0 0 32.821 32.821;"
	 xml:space="preserve">
<g>
	<path d="M32.044,15.628h-2.531l1.424-1.425c0.306-0.306,0.306-0.8,0-1.105c-0.305-0.305-0.801-0.305-1.105,0l-2.53,2.53H24.76
		l3.248-3.249c0.306-0.305,0.306-0.8,0-1.105c-0.305-0.305-0.801-0.305-1.105,0l-4.276,4.278V10.98c0-0.432-0.351-0.781-0.781-0.781
		h-4.647v-0.175l4.533-4.532c0.306-0.305,0.306-0.8,0-1.105c-0.305-0.305-0.801-0.305-1.105,0l-3.428,3.427V5.262l2.271-2.27
		c0.306-0.305,0.306-0.8,0-1.105c-0.305-0.305-0.8-0.305-1.105,0l-1.165,1.164V0.781C17.197,0.35,16.848,0,16.417,0
		s-0.781,0.35-0.781,0.781v2.792L13.95,1.888c-0.305-0.305-0.8-0.305-1.105,0c-0.306,0.305-0.306,0.8,0,1.105l2.791,2.791v2.03
		l-3.427-3.427c-0.305-0.305-0.8-0.305-1.105,0s-0.305,0.8,0,1.105l4.532,4.532v0.175h-4.647c-0.431,0-0.781,0.35-0.781,0.781v4.571
		L5.93,11.274c-0.305-0.305-0.8-0.305-1.105,0s-0.305,0.8,0,1.105l3.248,3.249H5.532l-2.53-2.53c-0.305-0.305-0.8-0.305-1.106,0
		c-0.305,0.306-0.305,0.8,0,1.105l1.425,1.425H0.79c-0.432,0-0.781,0.35-0.781,0.781c0,0.432,0.35,0.781,0.781,0.781h2.531
		l-1.425,1.424c-0.305,0.305-0.305,0.8,0,1.105c0.152,0.152,0.353,0.23,0.552,0.23c0.2,0,0.4-0.076,0.553-0.23l2.53-2.529h2.541
		l-3.248,3.249c-0.305,0.306-0.305,0.801,0,1.105c0.152,0.152,0.352,0.23,0.552,0.23c0.199,0,0.4-0.076,0.551-0.23l4.277-4.277
		v4.572c0,0.431,0.35,0.781,0.781,0.781h4.646v0.175l-4.533,4.531c-0.305,0.306-0.305,0.802,0,1.107
		c0.306,0.305,0.801,0.305,1.106,0l3.427-3.428v2.03l-2.791,2.791c-0.305,0.305-0.305,0.802,0,1.106c0.305,0.306,0.8,0.306,1.105,0
		l1.686-1.686v2.791c0,0.432,0.35,0.781,0.781,0.781c0.432,0,0.781-0.35,0.781-0.781V29.77l1.165,1.165
		c0.151,0.151,0.352,0.229,0.551,0.229c0.2,0,0.4-0.076,0.552-0.229c0.306-0.305,0.306-0.802,0-1.106l-2.27-2.27v-2.552l3.428,3.429
		c0.151,0.151,0.352,0.23,0.552,0.23c0.198,0,0.4-0.077,0.552-0.23c0.305-0.306,0.305-0.801,0-1.106l-4.533-4.532v-0.175h4.646
		c0.432,0,0.781-0.351,0.781-0.781v-4.572l4.277,4.279c0.152,0.151,0.352,0.228,0.551,0.228c0.2,0,0.401-0.075,0.553-0.228
		c0.305-0.308,0.305-0.802,0-1.107l-3.248-3.249h2.541l2.529,2.531c0.152,0.151,0.353,0.229,0.553,0.229
		c0.198,0,0.399-0.076,0.552-0.229c0.305-0.306,0.305-0.801,0-1.105L29.5,17.191h2.531c0.432,0,0.781-0.35,0.781-0.781
		C32.812,15.979,32.475,15.628,32.044,15.628z M21.065,21.056H17.2h-1.563h-3.866V17.19v-1.562v-3.865h3.866H17.2h3.865v3.865v1.562
		V21.056z M28.439,27.325c0.305,0.306,0.305,0.801,0,1.106c-0.151,0.151-0.354,0.229-0.553,0.229c-0.198,0-0.399-0.075-0.551-0.229
		l-2.72-2.72c-0.305-0.307-0.305-0.802,0-1.106c0.307-0.306,0.801-0.305,1.106,0L28.439,27.325z M8.654,24.605
		c0.305,0.305,0.305,0.8,0,1.106l-2.722,2.72C5.78,28.583,5.579,28.66,5.381,28.66c-0.201,0-0.401-0.075-0.552-0.229
		c-0.305-0.306-0.305-0.801,0-1.106l2.722-2.72C7.855,24.299,8.35,24.3,8.654,24.605z M4.828,6.213
		c-0.304-0.305-0.304-0.8,0.001-1.105c0.306-0.306,0.8-0.304,1.106,0.001l2.718,2.723c0.304,0.305,0.304,0.8-0.001,1.105
		C8.5,9.09,8.299,9.166,8.1,9.166c-0.199,0-0.4-0.076-0.553-0.229L4.828,6.213z M24.612,8.943c-0.305-0.305-0.305-0.8,0-1.105
		l2.724-2.72c0.305-0.305,0.8-0.304,1.105,0.001c0.305,0.305,0.305,0.8,0,1.105l-2.724,2.72c-0.152,0.152-0.354,0.228-0.551,0.228
		C24.965,9.171,24.766,9.096,24.612,8.943z"/>
</g>
<g>
</g>
<g>
</g>
<g>
</g>
<g>
</g>
<g>
</g>
<g>
</g>
<g>
</g>
<g>
</g>
<g>
</g>
<g>
</g>
<g>
</g>
<g>
</g>
<g>
</g>
<g>
</g>
<g>
</g>
</svg>
