<?xml version="1.0" encoding="iso-8859-1"?>
<!-- Generator: Adobe Illustrator 16.0.0, SVG Export Plug-In . SVG Version: 6.00 Build 0)  -->
<!DOCTYPE svg PUBLIC "-//W3C//DTD SVG 1.1//EN" "http://www.w3.org/Graphics/SVG/1.1/DTD/svg11.dtd">
<svg version="1.1" id="Capa_1" xmlns="http://www.w3.org/2000/svg" xmlns:xlink="http://www.w3.org/1999/xlink" x="0px" y="0px"
	 width="35.79px" height="35.79px" viewBox="0 0 35.79 35.79" style="enable-background:new 0 0 35.79 35.79;" xml:space="preserve"
	>
<g>
	<path d="M7.161,22.223l0.026-0.047l0.865,0.5l-0.026,0.047c-0.092,0.159-0.261,0.25-0.434,0.25c-0.019,0-0.034-0.013-0.053-0.016
		l-0.355-0.205C7.079,22.6,7.061,22.395,7.161,22.223z M9.969,8.988l2.785,0.001l1.393-2.414c0.139-0.239,0.057-0.545-0.184-0.683
		c-0.241-0.138-0.545-0.056-0.685,0.184l-1.103,1.913L9.967,7.988c-0.276,0-0.5,0.224-0.5,0.5C9.469,8.765,9.693,8.988,9.969,8.988z
		 M25.823,26.801h-2.785l-1.393,2.411c-0.138,0.239-0.056,0.545,0.186,0.683c0.078,0.045,0.164,0.067,0.25,0.067
		c0.172,0,0.34-0.09,0.434-0.25l1.104-1.911h2.207c0.274,0,0.5-0.224,0.5-0.5C26.323,27.025,26.099,26.801,25.823,26.801z
		 M23.038,8.99h2.785c0.275,0,0.5-0.224,0.5-0.5c0-0.276-0.225-0.5-0.5-0.5h-2.207l-1.105-1.913
		c-0.139-0.24-0.443-0.321-0.684-0.183c-0.241,0.138-0.32,0.444-0.184,0.683L23.038,8.99z M12.754,26.801H9.967
		c-0.276,0-0.5,0.225-0.5,0.5c0,0.276,0.224,0.5,0.5,0.5h2.209l1.105,1.912c0.092,0.161,0.26,0.25,0.432,0.25
		c0.086,0,0.172-0.021,0.25-0.066c0.24-0.139,0.322-0.443,0.184-0.684L12.754,26.801z M5.536,20.492
		c0.08,0.045,0.166,0.066,0.25,0.066c0.174,0,0.342-0.09,0.435-0.25l1.391-2.413l-1.394-2.413c-0.139-0.24-0.445-0.321-0.684-0.183
		c-0.238,0.138-0.32,0.444-0.183,0.683l1.104,1.913l-1.104,1.913C5.213,20.047,5.295,20.354,5.536,20.492z M30.254,15.3
		c-0.238-0.136-0.545-0.056-0.685,0.183l-1.392,2.412l1.395,2.414c0.093,0.16,0.261,0.25,0.433,0.25c0.086,0,0.172-0.021,0.25-0.066
		c0.24-0.139,0.322-0.444,0.184-0.684l-1.104-1.914l1.104-1.912C30.577,15.745,30.495,15.438,30.254,15.3z M33.392,26.842
		c-0.093,0.16-0.261,0.25-0.433,0.25c-0.086,0-0.172-0.021-0.25-0.066l-0.98-0.565l-2.137,1.231
		c-0.077,0.043-0.164,0.066-0.25,0.066s-0.174-0.021-0.25-0.066l-2.385-1.377c-0.153-0.088-0.25-0.254-0.25-0.433v-0.854h-4.441
		l-2.225,3.852l0.736,0.428c0.154,0.088,0.25,0.254,0.25,0.432l0.001,2.755c0,0.179-0.096,0.344-0.25,0.433l-2.133,1.229v1.136
		c0,0.274-0.225,0.5-0.5,0.5s-0.5-0.226-0.5-0.5v-1.136l-2.136-1.23c-0.154-0.089-0.25-0.254-0.25-0.433l0.001-2.755
		c0-0.178,0.096-0.344,0.25-0.432l0.738-0.427l-2.224-3.849H9.332l0.002,0.851c0,0.179-0.096,0.345-0.25,0.435l-2.387,1.377
		c-0.078,0.045-0.164,0.068-0.25,0.068c-0.087,0-0.174-0.023-0.25-0.068L4.06,26.46l-0.982,0.567
		c-0.08,0.045-0.166,0.066-0.25,0.066c-0.172,0-0.342-0.089-0.434-0.25c-0.139-0.238-0.057-0.545,0.184-0.683l0.982-0.567
		l0.001-2.465c0-0.179,0.097-0.344,0.25-0.434l2.388-1.377c0.153-0.09,0.346-0.09,0.5,0l0.736,0.426l2.221-3.848l-2.222-3.849
		l-0.737,0.426c-0.078,0.044-0.164,0.067-0.25,0.067c-0.086,0-0.174-0.022-0.25-0.067l-2.386-1.377
		c-0.155-0.089-0.25-0.255-0.25-0.434l0.002-2.464L2.58,9.63C2.341,9.492,2.259,9.186,2.396,8.947
		c0.139-0.239,0.445-0.32,0.684-0.183l0.983,0.568l2.134-1.233c0.152-0.089,0.344-0.09,0.5,0l2.385,1.379
		c0.156,0.089,0.25,0.255,0.25,0.433v0.85h4.443l2.223-3.846l-0.74-0.427c-0.154-0.089-0.25-0.254-0.25-0.434l0.002-2.755
		c0-0.178,0.096-0.343,0.25-0.433l2.135-1.233V0.5c0-0.276,0.225-0.5,0.5-0.5s0.5,0.224,0.5,0.5v1.135l2.134,1.231
		c0.154,0.089,0.25,0.254,0.25,0.434l-0.002,2.755c0,0.178-0.096,0.343-0.25,0.433l-0.733,0.425l2.224,3.849h4.44l-0.002-0.851
		c0-0.179,0.096-0.344,0.25-0.434l2.388-1.378c0.153-0.089,0.346-0.089,0.5,0l2.136,1.233l0.982-0.568
		c0.24-0.138,0.545-0.057,0.684,0.183c0.14,0.239,0.058,0.545-0.184,0.683l-0.983,0.568v2.464c0,0.179-0.097,0.344-0.25,0.433
		l-2.388,1.378c-0.076,0.044-0.163,0.067-0.25,0.067c-0.086,0-0.172-0.022-0.25-0.067l-0.735-0.426l-2.222,3.849l2.223,3.849
		l0.734-0.425c0.154-0.088,0.345-0.088,0.5,0l2.389,1.375c0.154,0.09,0.25,0.255,0.25,0.435l-0.002,2.462l0.982,0.568
		C33.45,26.297,33.531,26.604,33.392,26.842z M31.227,25.014l0.001-1.597L29.34,22.33l-0.734,0.424l-0.348,0.201l-0.301,0.173
		l-0.5,0.289v0.578v0.319v0.43v0.852l1.885,1.088l1.386-0.802l0.498-0.286L31.227,25.014z M27.491,13.547L26.96,13.24l-2.283,1.318
		l-2.443,3.337l2.442,3.337l2.283,1.316l0.531-0.306l-2.514-4.348L27.491,13.547z M19.779,30.025l-0.762-0.438l-0.339-0.194
		l-0.283-0.166l-0.5-0.289l-0.5,0.289l-0.279,0.162l-0.349,0.2l-0.757,0.437l-0.001,2.177L17.395,33l0.501,0.289l0.499-0.287
		l1.386-0.798L19.779,30.025z M16.008,5.767l0.736,0.425l0.371,0.214l0.279,0.16l0.5,0.288l0.5-0.289l0.281-0.163l0.367-0.212
		l0.732-0.424l0.002-2.178l-1.381-0.797l-0.502-0.289l-0.498,0.287l-1.385,0.8L16.008,5.767z M22.528,19.994l-1.535-2.099
		l1.535-2.098l0.732-1l-1.232,0.134l-2.585,0.281l-1.048-2.379l-0.5-1.133l-0.5,1.134l-1.049,2.379l-2.585-0.281l-1.232-0.134
		l0.732,1l1.536,2.097l-1.536,2.098l-0.732,1l1.232-0.134l2.585-0.281l1.049,2.379l0.5,1.134l0.5-1.134l1.048-2.379l2.585,0.281
		l1.232,0.134L22.528,19.994z M30.728,9.91l-1.386-0.8l-1.887,1.089v0.847v0.432l0.002,0.32v0.577l0.5,0.289l0.28,0.163l0.367,0.213
		l0.732,0.424l1.888-1.089v-1.6v-0.578L30.728,9.91z M18.927,7.413L18.395,7.72v2.637l1.667,3.784l4.111-0.447l2.283-1.317
		l-0.002-0.613h-5.02L18.927,7.413z M9.333,11.761v0.614l2.283,1.318l4.111,0.447l1.668-3.785V7.719l-0.531-0.306l-2.509,4.347
		L9.333,11.761L9.333,11.761z M7.183,13.04l0.37-0.213l0.279-0.162l0.5-0.289v-0.578v-0.326V11.05V10.2L6.446,9.11l-1.384,0.8
		l-0.499,0.289v0.578l-0.002,1.599l1.885,1.088L7.183,13.04z M8.302,22.245l0.53,0.306l2.281-1.316l2.443-3.339l-2.442-3.337
		l-2.281-1.317l-0.531,0.307l2.511,4.348L8.302,22.245z M7.187,22.176l-0.026,0.047c-0.1,0.172-0.082,0.375,0.023,0.529L6.45,22.328
		l-1.887,1.089l-0.001,1.599v0.578l0.5,0.288l1.386,0.8l1.887-1.088v-0.851v-0.427l-0.002-0.321v-0.577l-0.5-0.289L7.54,22.96
		c0.02,0.002,0.035,0.017,0.055,0.017c0.172,0,0.341-0.09,0.433-0.25l0.026-0.047L7.187,22.176z M16.866,28.378l0.529-0.306v-2.637
		l-1.668-3.785l-4.111,0.447l-2.283,1.316l0.002,0.611l5.021,0.002L16.866,28.378z M26.457,24.029v-0.612L24.174,22.1l-4.111-0.447
		l-1.667,3.783v2.639l0.531,0.307l2.512-4.352H26.457L26.457,24.029z"/>
</g>
<g>
</g>
<g>
</g>
<g>
</g>
<g>
</g>
<g>
</g>
<g>
</g>
<g>
</g>
<g>
</g>
<g>
</g>
<g>
</g>
<g>
</g>
<g>
</g>
<g>
</g>
<g>
</g>
<g>
</g>
</svg>
