<?xml version="1.0" encoding="iso-8859-1"?>
<!-- Generator: Adobe Illustrator 16.0.0, SVG Export Plug-In . SVG Version: 6.00 Build 0)  -->
<!DOCTYPE svg PUBLIC "-//W3C//DTD SVG 1.1//EN" "http://www.w3.org/Graphics/SVG/1.1/DTD/svg11.dtd">
<svg version="1.1" id="Capa_1" xmlns="http://www.w3.org/2000/svg" xmlns:xlink="http://www.w3.org/1999/xlink" x="0px" y="0px"
	 width="32.292px" height="32.292px" viewBox="0 0 32.292 32.292" style="enable-background:new 0 0 32.292 32.292;"
	 xml:space="preserve">
<g>
	<path d="M32.292,16.146c0,0.287-0.234,0.521-0.521,0.521H16.667v15.104c0,0.287-0.234,0.521-0.521,0.521
		c-0.286,0-0.521-0.233-0.521-0.521V16.667H0.521C0.234,16.667,0,16.433,0,16.146s0.234-0.521,0.521-0.521h15.104V0.521
		C15.625,0.235,15.859,0,16.146,0c0.287,0,0.521,0.235,0.521,0.521v15.104h15.104C32.057,15.625,32.292,15.859,32.292,16.146z
		 M11.919,20.372c-0.203-0.203-0.533-0.203-0.736,0l-4,4c-0.203,0.203-0.203,0.535,0,0.736c0.103,0.104,0.235,0.152,0.369,0.152
		s0.267-0.051,0.369-0.152l4-4C12.124,20.905,12.124,20.575,11.919,20.372z M11.183,11.92c0.102,0.102,0.235,0.152,0.369,0.152
		s0.267-0.051,0.369-0.152c0.204-0.203,0.204-0.533,0-0.737l-4-4c-0.202-0.203-0.534-0.203-0.737,0
		c-0.202,0.202-0.202,0.534,0,0.736L11.183,11.92z M21.108,20.372c-0.203-0.203-0.533-0.203-0.736,0
		c-0.204,0.203-0.204,0.533,0,0.736l4,4c0.104,0.104,0.236,0.152,0.369,0.152c0.132,0,0.267-0.051,0.369-0.152
		c0.201-0.201,0.201-0.533,0-0.736L21.108,20.372z M19.461,2.232c-0.203-0.202-0.533-0.202-0.736,0L18.49,2.469V1.477
		c0-0.287-0.234-0.521-0.521-0.521c-0.286,0-0.521,0.233-0.521,0.521v3.507l2.014-2.015C19.665,2.765,19.665,2.436,19.461,2.232z
		 M27.332,10.837c0.203-0.202,0.203-0.533,0-0.735c-0.202-0.204-0.533-0.204-0.735,0l-3.702,3.7H18.49V9.096l3.549-3.55
		c0.202-0.204,0.202-0.534,0-0.737c-0.203-0.203-0.534-0.203-0.736,0l-3.854,3.855v6.179h5.88L27.332,10.837z M30.816,14.844
		c0.287,0,0.521-0.234,0.521-0.521c0-0.287-0.233-0.521-0.521-0.521h-1.291l0.385-0.386c0.204-0.202,0.204-0.533,0-0.736
		c-0.202-0.202-0.532-0.202-0.736,0l-2.165,2.164H30.816z M30.816,17.448h-3.808l2.165,2.164c0.103,0.102,0.235,0.151,0.369,0.151
		c0.133,0,0.267-0.051,0.368-0.151c0.204-0.203,0.204-0.534,0-0.736l-0.384-0.386h1.29c0.286,0,0.521-0.234,0.521-0.521
		C31.337,17.682,31.103,17.448,30.816,17.448z M23.328,17.448h-5.88v6.179l3.854,3.855c0.102,0.102,0.235,0.153,0.369,0.153
		c0.132,0,0.267-0.052,0.368-0.153c0.203-0.203,0.203-0.533,0-0.736l-3.549-3.55V18.49h4.405l3.701,3.7
		c0.203,0.203,0.533,0.203,0.736,0s0.203-0.533,0-0.736L23.328,17.448z M17.448,27.308v3.509c0,0.287,0.234,0.521,0.521,0.521
		c0.287,0,0.521-0.233,0.521-0.521v-0.992l0.235,0.235c0.203,0.203,0.533,0.203,0.736,0c0.203-0.201,0.203-0.533,0-0.736
		L17.448,27.308z M12.829,30.06c0.203,0.201,0.534,0.201,0.736,0l0.236-0.237v0.992c0,0.287,0.235,0.521,0.521,0.521
		s0.521-0.233,0.521-0.521v-3.509l-2.015,2.018C12.627,29.527,12.627,29.857,12.829,30.06z M4.96,21.454
		c-0.204,0.203-0.204,0.533,0,0.736c0.202,0.203,0.533,0.203,0.735,0l3.703-3.7h4.405v4.706l-3.548,3.55
		c-0.203,0.203-0.203,0.533,0,0.736c0.103,0.102,0.235,0.153,0.369,0.153c0.133,0,0.267-0.052,0.368-0.153l3.854-3.855v-6.179H8.966
		L4.96,21.454z M1.476,17.448c-0.288,0-0.521,0.234-0.521,0.521c0,0.286,0.233,0.521,0.521,0.521h1.29l-0.385,0.386
		c-0.204,0.202-0.204,0.533,0,0.736c0.102,0.102,0.235,0.151,0.369,0.151c0.132,0,0.267-0.051,0.369-0.151l2.166-2.164H1.476z
		 M1.476,14.844h3.807L3.118,12.68c-0.204-0.202-0.535-0.202-0.736,0c-0.204,0.204-0.204,0.535,0,0.736l0.385,0.386h-1.29
		c-0.288,0-0.521,0.234-0.521,0.521C0.955,14.609,1.188,14.844,1.476,14.844z M8.963,14.844h5.88V8.665L10.989,4.81
		c-0.202-0.203-0.533-0.203-0.736,0c-0.202,0.203-0.202,0.533,0,0.737l3.549,3.55v4.706H9.396l-3.702-3.7
		c-0.202-0.204-0.533-0.204-0.735,0c-0.204,0.202-0.204,0.533,0,0.735L8.963,14.844z M14.844,4.981V1.475
		c0-0.286-0.235-0.521-0.521-0.521s-0.521,0.234-0.521,0.521v0.992l-0.236-0.235c-0.202-0.203-0.533-0.203-0.736,0
		c-0.202,0.202-0.202,0.533,0,0.737L14.844,4.981z M20.363,11.913c0.104,0.108,0.238,0.16,0.377,0.16
		c0.129,0,0.259-0.048,0.36-0.145l4.175-4c0.206-0.199,0.213-0.529,0.016-0.736c-0.198-0.206-0.528-0.215-0.735-0.017l-4.176,4
		C20.172,11.375,20.164,11.704,20.363,11.913z"/>
</g>
<g>
</g>
<g>
</g>
<g>
</g>
<g>
</g>
<g>
</g>
<g>
</g>
<g>
</g>
<g>
</g>
<g>
</g>
<g>
</g>
<g>
</g>
<g>
</g>
<g>
</g>
<g>
</g>
<g>
</g>
</svg>
