<?xml version="1.0" encoding="iso-8859-1"?>
<!-- Generator: Adobe Illustrator 16.0.0, SVG Export Plug-In . SVG Version: 6.00 Build 0)  -->
<!DOCTYPE svg PUBLIC "-//W3C//DTD SVG 1.1//EN" "http://www.w3.org/Graphics/SVG/1.1/DTD/svg11.dtd">
<svg version="1.1" id="Capa_1" xmlns="http://www.w3.org/2000/svg" xmlns:xlink="http://www.w3.org/1999/xlink" x="0px" y="0px"
	 width="35.043px" height="35.044px" viewBox="0 0 35.043 35.044" style="enable-background:new 0 0 35.043 35.044;"
	 xml:space="preserve">
<g>
	<path d="M32.758,23.844c0-0.18-0.096-0.344-0.25-0.434l-1.893-1.093c-0.154-0.09-0.346-0.09-0.5,0l-1.643,0.949l-3.123-1.803
		v-7.892l3.121-1.802l1.645,0.949c0.078,0.045,0.164,0.067,0.25,0.067s0.174-0.022,0.25-0.067l1.893-1.093
		c0.154-0.088,0.25-0.254,0.25-0.434V9.006c0-0.178-0.094-0.344-0.25-0.433l-1.895-1.096c-0.154-0.089-0.346-0.088-0.5,0.001
		l-1.893,1.095c-0.156,0.089-0.25,0.255-0.25,0.433l0.002,1.162v0.734l-3.119,1.803l-6.333-3.653l5.151-5.152
		c0.195-0.193,0.195-0.512,0-0.707c-0.194-0.193-0.512-0.193-0.707,0l-4.944,4.948V5.162l1.644-0.949
		c0.155-0.088,0.25-0.254,0.25-0.434V1.595c0-0.179-0.095-0.343-0.25-0.433l-1.894-1.095c-0.155-0.09-0.345-0.09-0.5,0l-1.895,1.096
		c-0.154,0.09-0.25,0.254-0.25,0.433v2.186c0,0.18,0.095,0.346,0.25,0.434l1.644,0.949v2.979l-4.945-4.945
		c-0.195-0.194-0.512-0.194-0.707,0c-0.195,0.195-0.195,0.513,0,0.707l5.153,5.15l-6.334,3.654l-3.119-1.802l0.001-1.896
		c0-0.18-0.095-0.344-0.25-0.434L4.926,7.483c-0.154-0.09-0.345-0.09-0.5-0.001L2.531,8.578c-0.155,0.09-0.25,0.254-0.25,0.434
		L2.28,10.174l0.001,1.023c0,0.18,0.096,0.346,0.25,0.434l1.893,1.093c0.077,0.045,0.164,0.067,0.25,0.067s0.172-0.022,0.25-0.067
		l1.644-0.949l3.121,1.803v7.891l-3.122,1.803l-1.643-0.949c-0.155-0.09-0.346-0.09-0.5,0l-1.893,1.093
		c-0.154,0.09-0.25,0.254-0.25,0.434v2.188c0,0.18,0.095,0.344,0.25,0.434l1.895,1.095c0.077,0.044,0.164,0.065,0.25,0.065
		c0.086,0,0.173-0.021,0.25-0.066l1.893-1.094c0.155-0.09,0.25-0.254,0.25-0.434L7.067,24.14l3.123-1.804l6.331,3.652l-5.152,5.154
		c-0.195,0.195-0.195,0.512,0,0.707c0.195,0.195,0.512,0.195,0.707,0l4.945-4.947v2.98l-1.644,0.947
		c-0.155,0.09-0.25,0.254-0.25,0.434v2.186c0,0.181,0.095,0.345,0.25,0.435l1.895,1.094c0.078,0.045,0.164,0.066,0.25,0.066
		s0.173-0.021,0.25-0.066l1.893-1.094c0.153-0.09,0.25-0.254,0.25-0.435v-2.186c0-0.18-0.095-0.344-0.25-0.434l-1.644-0.949V26.9
		l4.944,4.947c0.1,0.098,0.227,0.146,0.354,0.146c0.127,0,0.257-0.051,0.354-0.146c0.195-0.195,0.195-0.512,0-0.707l-5.153-5.154
		l6.332-3.653l3.123,1.804l-0.002,1.896c0,0.181,0.094,0.345,0.25,0.435l1.894,1.094c0.075,0.045,0.163,0.066,0.25,0.066
		c0.086,0,0.172-0.021,0.25-0.065l1.895-1.095c0.154-0.09,0.25-0.254,0.25-0.435l0.002-1.161L32.758,23.844z M6.066,10.909
		l-0.5,0.288l-0.894,0.519l-1.393-0.805V9.878V9.302l0.5-0.288l0.894-0.517l1.393,0.805l-0.002,0.873v0.158L6.066,10.909z
		 M24.353,20.89l-5.834-3.368l5.834-3.368V20.89z M18.915,33.161l-0.894,0.515l-0.5,0.287l-0.5-0.289l-0.894-0.517v-1.606
		l0.894-0.516l0.5-0.289l0.5,0.289l0.894,0.516V33.161z M16.126,1.883l0.895-0.515l0.5-0.289l0.5,0.287l0.894,0.518v1.607
		l-0.894,0.517l-0.5,0.287l-0.5-0.287L16.127,3.49L16.126,1.883L16.126,1.883z M30.366,8.497l1.395,0.805l0.002,0.873v0.736
		l-1.395,0.805l-1.394-0.807V9.302L30.366,8.497z M23.855,13.288l-5.834,3.368V9.921L23.855,13.288z M17.021,9.92v6.734
		l-5.834-3.367L17.021,9.92z M10.688,14.153l5.833,3.368l-5.833,3.368V14.153z M6.068,25.743L4.675,26.55l-0.894-0.519l-0.5-0.288
		v-0.576V24.87v-0.736l1.393-0.803l0.894,0.517l0.499,0.289v0.577L6.068,25.743z M11.188,21.754l5.832-3.367v6.735L11.188,21.754z
		 M18.021,25.122v-6.733l5.833,3.368L18.021,25.122z M28.974,24.711v-0.576l0.5-0.289l0.894-0.518l1.395,0.805v1.033v0.575
		l-0.5,0.288l-0.895,0.518l-1.394-0.806V24.711z"/>
</g>
<g>
</g>
<g>
</g>
<g>
</g>
<g>
</g>
<g>
</g>
<g>
</g>
<g>
</g>
<g>
</g>
<g>
</g>
<g>
</g>
<g>
</g>
<g>
</g>
<g>
</g>
<g>
</g>
<g>
</g>
</svg>
