<?xml version="1.0" encoding="iso-8859-1"?>
<!-- Generator: Adobe Illustrator 16.0.0, SVG Export Plug-In . SVG Version: 6.00 Build 0)  -->
<!DOCTYPE svg PUBLIC "-//W3C//DTD SVG 1.1//EN" "http://www.w3.org/Graphics/SVG/1.1/DTD/svg11.dtd">
<svg version="1.1" id="Capa_1" xmlns="http://www.w3.org/2000/svg" xmlns:xlink="http://www.w3.org/1999/xlink" x="0px" y="0px"
	 width="40.045px" height="40.045px" viewBox="0 0 40.045 40.045" style="enable-background:new 0 0 40.045 40.045;"
	 xml:space="preserve">
<g>
	<path d="M38.708,17.704h-2.678l-1.037,1.798h-6.309l4.365-4.367c0.204-0.203,0.204-0.533,0-0.736c-0.201-0.203-0.532-0.203-0.736,0
		l-5.103,5.104h-3.144l-1.572-2.724l1.576-2.725l6.967-1.867c0.276-0.074,0.441-0.361,0.369-0.637
		c-0.074-0.278-0.361-0.441-0.638-0.369l-5.961,1.597l3.149-5.457h2.076L31.375,5l-1.339-2.319l-2.678-0.001L26.019,5l1.04,1.797
		l-3.152,5.461l-1.6-5.966c-0.072-0.279-0.358-0.441-0.636-0.369c-0.279,0.074-0.444,0.36-0.369,0.638l1.868,6.972l-1.572,2.723
		h-3.145l-1.572-2.723l1.867-6.969c0.074-0.278-0.09-0.563-0.369-0.638c-0.277-0.072-0.563,0.091-0.637,0.369l-1.598,5.963
		l-3.152-5.46L14.03,5l-1.34-2.32l-2.677,0.001L8.674,5l1.339,2.319l2.076,0.001l3.152,5.459l-5.963-1.598
		C9,11.108,8.715,11.272,8.641,11.551c-0.074,0.277,0.091,0.563,0.368,0.637l6.969,1.867l1.573,2.724l-1.573,2.724h-3.145
		l-5.103-5.104c-0.204-0.203-0.534-0.203-0.737,0s-0.203,0.533,0,0.736l4.367,4.367H5.054l-1.039-1.797l-2.677-0.001L0,20.024
		l1.339,2.318h2.677l1.04-1.799h6.303l-4.365,4.363c-0.203,0.202-0.203,0.535,0,0.737c0.102,0.104,0.235,0.152,0.369,0.152
		c0.133,0,0.267-0.051,0.369-0.152l5.101-5.101h3.147l1.571,2.724l-1.57,2.719l-6.973,1.869c-0.278,0.073-0.442,0.362-0.369,0.637
		c0.075,0.28,0.362,0.446,0.638,0.369l5.967-1.598l-3.156,5.465l-2.074-0.003l-1.34,2.322l1.341,2.316h2.676l1.338-2.318
		l-1.039-1.801l3.151-5.457l1.599,5.959c0.063,0.234,0.273,0.387,0.502,0.387c0.044,0,0.089-0.004,0.135-0.016
		c0.278-0.075,0.443-0.362,0.369-0.639l-1.869-6.968l1.573-2.723h3.143l1.573,2.72l-1.867,6.968c-0.074,0.28,0.091,0.563,0.369,0.64
		c0.045,0.012,0.092,0.016,0.137,0.016c0.229,0,0.439-0.151,0.5-0.387l1.598-5.963l3.153,5.465l-1.04,1.797l1.339,2.32l2.678-0.001
		l1.339-2.319l-1.339-2.319h-2.075L24.8,27.262l5.966,1.599c0.28,0.078,0.563-0.089,0.637-0.368
		c0.075-0.279-0.092-0.563-0.368-0.638l-6.971-1.868l-1.572-2.723l1.572-2.722h3.146l5.1,5.102c0.103,0.103,0.236,0.151,0.368,0.151
		c0.133,0,0.268-0.051,0.368-0.151c0.204-0.203,0.204-0.534,0-0.737l-4.358-4.362h6.304l1.039,1.799h2.677l1.338-2.318
		L38.708,17.704z M21.596,22.744h-0.602h-1.942h-0.602l-0.3-0.521l-0.97-1.679l-0.301-0.521l0.301-0.521l0.971-1.682l0.301-0.521
		h0.602h1.941l0.006-0.011l0.596,0.011l0.29,0.526l0.155-0.257l-0.146,0.251l0.969,1.682l0.302,0.521l-0.302,0.521l-0.972,1.683
		L21.596,22.744z M21.607,16.777h0.291l0.002,0.005L21.607,16.777z M22.195,17.305l-0.144-0.258l0.146,0.251L22.195,17.305z
		 M21.301,16.777l-0.15,0.252l0.145-0.252H21.301z"/>
</g>
<g>
</g>
<g>
</g>
<g>
</g>
<g>
</g>
<g>
</g>
<g>
</g>
<g>
</g>
<g>
</g>
<g>
</g>
<g>
</g>
<g>
</g>
<g>
</g>
<g>
</g>
<g>
</g>
<g>
</g>
</svg>
