<?xml version="1.0" encoding="iso-8859-1"?>
<!-- Generator: Adobe Illustrator 16.0.0, SVG Export Plug-In . SVG Version: 6.00 Build 0)  -->
<!DOCTYPE svg PUBLIC "-//W3C//DTD SVG 1.1//EN" "http://www.w3.org/Graphics/SVG/1.1/DTD/svg11.dtd">
<svg version="1.1" id="Capa_1" xmlns="http://www.w3.org/2000/svg" xmlns:xlink="http://www.w3.org/1999/xlink" x="0px" y="0px"
	 width="37.283px" height="37.283px" viewBox="0 0 37.283 37.283" style="enable-background:new 0 0 37.283 37.283;"
	 xml:space="preserve">
<g>
	<path d="M9.866,8.843c0-0.287,0.233-0.521,0.521-0.521l2.3,0.001l1.149-1.992c0.144-0.25,0.46-0.333,0.712-0.192
		c0.25,0.146,0.335,0.462,0.193,0.713l-1.45,2.512l-2.902-0.001C10.099,9.364,9.866,9.131,9.866,8.843z M26.901,27.919L24,27.917
		L22.55,30.43c-0.145,0.25-0.06,0.567,0.192,0.714c0.081,0.047,0.171,0.067,0.26,0.067c0.18,0,0.354-0.094,0.453-0.261l1.149-1.991
		l2.299,0.002c0.287,0,0.521-0.234,0.521-0.521C27.423,28.153,27.189,27.919,26.901,27.919z M24,9.368h2.901
		c0.288,0,0.521-0.234,0.521-0.521c0-0.289-0.232-0.521-0.521-0.521h-2.299l-1.15-1.994c-0.146-0.25-0.462-0.335-0.714-0.19
		c-0.248,0.144-0.333,0.46-0.189,0.711L24,9.368z M13.288,27.919h-2.903c-0.288,0-0.521,0.233-0.521,0.521s0.233,0.521,0.521,0.521
		h2.301l1.151,1.991c0.096,0.167,0.271,0.261,0.45,0.261c0.089,0,0.179-0.022,0.26-0.069c0.25-0.145,0.335-0.461,0.192-0.712
		L13.288,27.919z M5.769,21.349c0.083,0.047,0.173,0.068,0.26,0.068c0.181,0,0.356-0.094,0.453-0.261l1.449-2.513L6.479,16.13
		c-0.145-0.248-0.464-0.335-0.712-0.191c-0.25,0.144-0.334,0.461-0.191,0.712l1.15,1.993l-1.15,1.992
		C5.432,20.884,5.518,21.204,5.769,21.349z M31.516,15.938c-0.247-0.143-0.567-0.059-0.712,0.191l-1.451,2.512l1.452,2.515
		c0.097,0.167,0.271,0.261,0.45,0.261c0.09,0,0.181-0.022,0.261-0.07c0.25-0.144,0.336-0.462,0.192-0.711l-1.15-1.994l1.15-1.991
		C31.853,16.403,31.767,16.083,31.516,15.938z M34.786,27.962c-0.098,0.167-0.272,0.26-0.452,0.26c-0.089,0-0.179-0.022-0.26-0.069
		l-1.021-0.589l-2.226,1.283c-0.08,0.047-0.171,0.069-0.261,0.069c-0.091,0-0.182-0.022-0.261-0.069l-2.484-1.435
		c-0.159-0.092-0.261-0.265-0.261-0.451v-0.89h-4.625l-2.318,4.013l0.768,0.443c0.161,0.094,0.261,0.265,0.261,0.451l0.001,2.87
		c0,0.185-0.1,0.357-0.261,0.452l-2.225,1.281v1.18c0,0.288-0.233,0.521-0.521,0.521c-0.287,0-0.521-0.232-0.521-0.521V35.58
		l-2.226-1.28c-0.16-0.095-0.26-0.268-0.26-0.452l0.001-2.87c0-0.185,0.1-0.357,0.26-0.449l0.77-0.445l-2.317-4.011H9.722v0.888
		c0,0.187-0.098,0.359-0.261,0.451l-2.486,1.437c-0.079,0.047-0.17,0.069-0.261,0.069c-0.089,0-0.18-0.022-0.26-0.069l-2.225-1.283
		l-1.024,0.589c-0.082,0.049-0.171,0.071-0.261,0.071c-0.179,0-0.354-0.095-0.451-0.26c-0.146-0.251-0.06-0.57,0.191-0.712
		l1.024-0.591l0.001-2.569c0-0.185,0.1-0.357,0.26-0.451l2.487-1.435c0.16-0.094,0.36-0.094,0.521,0l0.768,0.443l2.314-4.008
		l-2.317-4.011l-0.768,0.445c-0.079,0.047-0.17,0.069-0.261,0.069c-0.089,0-0.18-0.022-0.26-0.069L3.97,13.642
		c-0.16-0.093-0.26-0.266-0.26-0.451l0.002-2.569l-1.025-0.591C2.438,9.887,2.353,9.57,2.496,9.318
		c0.144-0.248,0.463-0.333,0.711-0.19l1.024,0.59l2.223-1.284c0.16-0.095,0.36-0.095,0.521,0l2.486,1.436
		c0.16,0.093,0.261,0.265,0.261,0.451v0.886h4.627l2.314-4.006l-0.77-0.445c-0.16-0.093-0.26-0.266-0.26-0.453l0.002-2.869
		c0-0.187,0.1-0.358,0.26-0.452l2.226-1.281v-1.18C18.121,0.233,18.354,0,18.642,0c0.288,0,0.521,0.233,0.521,0.521v1.183
		l2.225,1.28c0.16,0.095,0.261,0.266,0.261,0.453l-0.002,2.869c0,0.188-0.101,0.359-0.261,0.452l-0.767,0.444l2.318,4.01h4.623
		v-0.888c0-0.188,0.1-0.359,0.261-0.452l2.487-1.435c0.159-0.095,0.359-0.095,0.521,0l2.225,1.284l1.023-0.591
		c0.248-0.145,0.567-0.06,0.712,0.19c0.146,0.25,0.061,0.569-0.191,0.711l-1.024,0.592v2.568c0,0.188-0.101,0.358-0.26,0.452
		l-2.487,1.436c-0.08,0.047-0.17,0.07-0.261,0.07c-0.092,0-0.181-0.023-0.261-0.07l-0.766-0.445l-2.315,4.011l2.316,4.01
		l0.765-0.443c0.161-0.094,0.359-0.092,0.521,0l2.488,1.433c0.159,0.094,0.26,0.267,0.26,0.451l-0.002,2.567l1.023,0.591
		C34.845,27.394,34.93,27.713,34.786,27.962z M32.531,26.06l0.001-1.667l-1.968-1.131L29.8,23.704l-0.361,0.208l-0.315,0.181
		l-0.521,0.301v0.601v0.334v0.447v0.887l1.964,1.134l1.444-0.834l0.518-0.3L32.531,26.06z M28.638,14.113l-0.556-0.322l-2.374,1.372
		l-2.546,3.479l2.545,3.477l2.376,1.372l0.554-0.32l-2.616-4.528L28.638,14.113z M20.606,31.281l-0.795-0.459l-0.353-0.202
		l-0.295-0.172l-0.521-0.301l-0.521,0.299l-0.291,0.169l-0.364,0.209l-0.788,0.457l-0.001,2.266l1.444,0.833l0.522,0.301l0.52-0.299
		l1.443-0.832L20.606,31.281z M16.677,6.007l0.769,0.443l0.385,0.222l0.291,0.168l0.521,0.3l0.521-0.301l0.294-0.17l0.379-0.22
		l0.766-0.442l0.002-2.268l-1.441-0.832l-0.523-0.301L18.12,2.907l-1.443,0.832V6.007z M23.47,20.831l-1.601-2.188l1.601-2.187
		l0.763-1.04l-1.284,0.14l-2.692,0.292l-1.093-2.478l-0.521-1.18l-0.521,1.18l-1.093,2.478l-2.692-0.292l-1.284-0.14l0.762,1.04
		l1.601,2.187l-1.601,2.188l-0.762,1.039l1.284-0.14l2.692-0.292l1.093,2.479l0.521,1.181l0.521-1.181l1.093-2.479l2.692,0.292
		l1.284,0.14L23.47,20.831z M32.01,10.326L30.567,9.49l-1.966,1.135v0.883v0.451l0.002,0.333v0.602l0.519,0.301l0.293,0.168
		l0.385,0.222l0.762,0.441l1.967-1.135v-1.666v-0.601L32.01,10.326z M19.718,7.724l-0.555,0.319v2.747l1.737,3.94l4.285-0.465
		l2.375-1.371l-0.002-0.638h-5.228L19.718,7.724z M9.723,12.252v0.639l2.376,1.372l4.284,0.465l1.738-3.94V8.042l-0.553-0.32
		l-2.614,4.529L9.723,12.252L9.723,12.252z M7.484,13.585l0.386-0.224l0.291-0.169l0.521-0.299v-0.602v-0.338v-0.439v-0.887
		L6.716,9.49l-1.442,0.836l-0.519,0.299v0.602l-0.002,1.667l1.963,1.133L7.484,13.585z M8.65,23.174l0.552,0.32l2.375-1.374
		l2.545-3.477l-2.545-3.478l-2.375-1.371l-0.553,0.322l2.615,4.53L8.65,23.174z M5.275,26.961l1.444,0.834l1.965-1.136v-0.885V25.33
		l-0.002-0.336v-0.601l-0.521-0.301l-0.305-0.177l-0.369-0.214l-0.764-0.443l-1.967,1.135L4.756,26.06v0.6L5.275,26.961z
		 M17.571,29.561l0.551-0.319v-2.746l-1.738-3.941L12.1,23.02l-2.376,1.371l0.002,0.637l5.23,0.003L17.571,29.561z M27.561,25.033
		v-0.638l-2.375-1.373l-4.285-0.464l-1.737,3.939v2.748l0.554,0.319l2.616-4.532H27.561L27.561,25.033z"/>
</g>
<g>
</g>
<g>
</g>
<g>
</g>
<g>
</g>
<g>
</g>
<g>
</g>
<g>
</g>
<g>
</g>
<g>
</g>
<g>
</g>
<g>
</g>
<g>
</g>
<g>
</g>
<g>
</g>
<g>
</g>
</svg>
