<?xml version="1.0" encoding="iso-8859-1"?>
<!-- Generator: Adobe Illustrator 16.0.0, SVG Export Plug-In . SVG Version: 6.00 Build 0)  -->
<!DOCTYPE svg PUBLIC "-//W3C//DTD SVG 1.1//EN" "http://www.w3.org/Graphics/SVG/1.1/DTD/svg11.dtd">
<svg version="1.1" id="Capa_1" xmlns="http://www.w3.org/2000/svg" xmlns:xlink="http://www.w3.org/1999/xlink" x="0px" y="0px"
	 width="32.818px" height="32.818px" viewBox="0 0 32.818 32.818" style="enable-background:new 0 0 32.818 32.818;"
	 xml:space="preserve">
<g>
	<path d="M32.034,15.628h-3.426l1.876-1.875c0.305-0.305,0.305-0.8,0-1.105c-0.306-0.305-0.8-0.305-1.104,0l-2.981,2.979h-1.989
		L17.19,8.409v-1.99l2.979-2.98c0.306-0.305,0.306-0.8,0-1.105c-0.305-0.305-0.8-0.305-1.105,0l-1.874,1.875V0.781
		C17.189,0.35,16.84,0,16.409,0c-0.432,0-0.781,0.35-0.781,0.781v3.425l-1.873-1.875c-0.305-0.304-0.8-0.306-1.105,0
		c-0.305,0.304-0.305,0.8,0,1.105l2.976,2.979v1.99l-7.219,7.218H6.417l-2.979-2.979c-0.305-0.306-0.801-0.306-1.106,0
		c-0.305,0.305-0.305,0.801,0,1.106l1.876,1.875H0.785c-0.432,0-0.781,0.35-0.781,0.781c0,0.432,0.35,0.781,0.781,0.781H4.21
		l-1.876,1.874c-0.305,0.304-0.305,0.802,0,1.106c0.152,0.151,0.354,0.229,0.553,0.229c0.198,0,0.399-0.077,0.551-0.229l2.979-2.979
		h1.988l7.22,7.221v1.987l-2.979,2.98c-0.305,0.306-0.305,0.8,0,1.105c0.305,0.305,0.801,0.305,1.106,0l1.875-1.874v3.426
		c0,0.432,0.35,0.781,0.781,0.781c0.431,0,0.781-0.35,0.781-0.781v-3.425l1.874,1.875c0.15,0.152,0.352,0.228,0.552,0.228
		c0.199,0,0.4-0.074,0.551-0.228c0.306-0.306,0.306-0.801,0-1.106l-2.977-2.979v-1.987l7.221-7.221h1.987l2.981,2.979
		c0.15,0.151,0.352,0.23,0.551,0.23c0.198,0,0.399-0.076,0.551-0.23c0.305-0.305,0.305-0.801,0-1.105l-1.874-1.875h3.427
		c0.432,0,0.781-0.35,0.781-0.781C32.815,15.979,32.466,15.628,32.034,15.628z M17.19,22.2l-0.781,0.781L15.628,22.2l-5.01-5.01
		l-0.781-0.781l0.781-0.781l5.01-5.008l0.781-0.781l0.781,0.781l5.009,5.008l0.781,0.782l-0.778,0.78L17.19,22.2z M28.065,21.837
		c0,0.432-0.351,0.781-0.781,0.781h-3.561l3.763,3.766c0.306,0.305,0.306,0.799,0,1.104c-0.151,0.152-0.352,0.229-0.551,0.229
		s-0.4-0.075-0.551-0.229l-3.766-3.764v3.561c0,0.431-0.351,0.781-0.781,0.781c-0.432,0-0.781-0.351-0.781-0.781v-5.447v-0.781
		h0.781h5.446C27.715,21.056,28.065,21.406,28.065,21.837z M21.838,11.764h-0.781v-0.781V5.535c0-0.431,0.35-0.781,0.781-0.781
		c0.431,0,0.781,0.35,0.781,0.781v3.561l3.766-3.764c0.305-0.305,0.8-0.305,1.104,0c0.306,0.305,0.306,0.799,0,1.104l-3.766,3.765
		h3.561c0.431,0,0.781,0.35,0.781,0.781c0,0.431-0.351,0.781-0.781,0.781H21.838z M4.746,10.982c0-0.432,0.35-0.781,0.781-0.781
		h3.561L5.324,6.436c-0.305-0.305-0.305-0.799,0-1.104s0.8-0.305,1.105,0l3.765,3.764V5.535c0-0.431,0.35-0.781,0.781-0.781
		c0.43,0,0.781,0.35,0.781,0.781v5.447v0.781h-0.781H5.528C5.096,11.764,4.746,11.414,4.746,10.982z M10.974,21.056h0.781v0.78
		v0.004l-0.002,5.445c0,0.431-0.35,0.781-0.781,0.781c-0.431,0-0.781-0.351-0.781-0.781l0.002-3.559L6.428,27.49
		c-0.152,0.152-0.352,0.229-0.552,0.229s-0.4-0.075-0.551-0.229c-0.305-0.305-0.305-0.8,0-1.104l3.764-3.765H5.528
		c-0.431,0-0.781-0.351-0.781-0.781c0-0.432,0.35-0.781,0.781-0.781h5.447v-0.003H10.974z"/>
</g>
<g>
</g>
<g>
</g>
<g>
</g>
<g>
</g>
<g>
</g>
<g>
</g>
<g>
</g>
<g>
</g>
<g>
</g>
<g>
</g>
<g>
</g>
<g>
</g>
<g>
</g>
<g>
</g>
<g>
</g>
</svg>
