<?xml version="1.0" encoding="iso-8859-1"?>
<!-- Generator: Adobe Illustrator 16.0.0, SVG Export Plug-In . SVG Version: 6.00 Build 0)  -->
<!DOCTYPE svg PUBLIC "-//W3C//DTD SVG 1.1//EN" "http://www.w3.org/Graphics/SVG/1.1/DTD/svg11.dtd">
<svg version="1.1" id="Capa_1" xmlns="http://www.w3.org/2000/svg" xmlns:xlink="http://www.w3.org/1999/xlink" x="0px" y="0px"
	 width="34.628px" height="34.629px" viewBox="0 0 34.628 34.629" style="enable-background:new 0 0 34.628 34.629;"
	 xml:space="preserve">
<g>
	<path d="M18.315,27.902l4.092,4.092L21.7,32.701l-0.69-0.691l-1.692,1.693v0.926h-4v-0.926l-1.693-1.693l-0.691,0.691l-0.708-0.707
		l4.092-4.092v2.07l-1.658,1.657l1.658,1.658v0.34h2v-0.34l1.658-1.658l-1.658-1.657v-2.07H18.315z M28.382,7.854l2.266,0.608
		l0.296-0.172l1,1.73l-0.297,0.172l-0.604,2.266l-2.269-0.607l-1.791,1.036l5.59,1.497l0.261-0.967l-0.945-0.252l0.619-2.313
		l0.803-0.465l-2-3.464l-0.803,0.465l-2.312-0.62l0.253-0.942l-0.966-0.261l-1.499,5.592l1.792-1.036L28.382,7.854z M24.537,14.3
		l7.891,2.113l0.002,1.799l-7.896,2.112l-1.515-0.872v-4.277L24.537,14.3z M24.673,15.375l-0.656,0.379v3.121l0.656,0.381
		l6.752-1.81v-0.264L24.673,15.375z M31.884,21.462l0.947-0.254l-0.26-0.968l-5.592,1.5l1.796,1.033l2.265-0.604l0.607,2.265
		l0.296,0.172l-1,1.731l-0.295-0.17l-2.267,0.604l-0.607-2.268l-1.794-1.031l1.499,5.59l0.966-0.26l-0.253-0.945l2.314-0.619
		l0.804,0.464l2-3.464l-0.804-0.465L31.884,21.462z M23.532,22.059l2.115,7.895l-1.556,0.898l-5.776-5.779V23.32l3.702-2.137
		L23.532,22.059z M24.483,29.471l-1.81-6.755l-0.656-0.379l-2.702,1.562v0.76l4.94,4.943L24.483,29.471z M16.315,25.072
		l-5.777,5.779l-1.557-0.898l2.115-7.895l1.517-0.875l3.702,2.137V25.072z M15.315,23.898l-2.702-1.562l-0.659,0.381l-1.809,6.751
		l0.229,0.133l4.941-4.943V23.898z M6.248,26.773L3.981,26.17l-0.295,0.17l-1-1.732l0.296-0.172l0.608-2.264l2.264,0.604
		l1.796-1.033l-5.592-1.498l-0.259,0.967l0.946,0.252l-0.621,2.312L1.321,24.24l2,3.465l0.803-0.465l2.313,0.619l-0.253,0.945
		l0.966,0.26l1.498-5.588l-1.791,1.03L6.248,26.773z M10.095,14.3l1.518,0.875v4.277l-1.516,0.872l-7.895-2.112l0.002-1.798
		L10.095,14.3z M10.613,15.753l-0.658-0.381l-6.751,1.81v0.264l6.752,1.81l0.658-0.381L10.613,15.753L10.613,15.753z M2.742,13.166
		L1.797,13.42l0.259,0.967l5.59-1.498l-1.791-1.036l-2.267,0.608l-0.606-2.267l-0.297-0.172l1-1.731l0.296,0.172l2.265-0.607
		l0.607,2.266l1.792,1.037L7.146,5.567L6.18,5.827L6.433,6.77L4.121,7.39L3.318,6.924l-2,3.465l0.803,0.465L2.742,13.166z
		 M11.096,12.569L8.981,4.675l1.557-0.898l5.777,5.779v1.752l-3.703,2.136L11.096,12.569z M10.145,5.16l1.809,6.752l0.658,0.379
		l2.703-1.561V9.97l-4.941-4.943L10.145,5.16z M16.315,4.658L14.657,3l1.658-1.659V1h2v0.342L19.973,3l-1.658,1.658v2.068
		l4.092-4.092L21.7,1.927l-0.69,0.691l-1.692-1.691V0h-4v0.928l-1.692,1.691l-0.692-0.691l-0.708,0.706l4.092,4.092V4.658H16.315z
		 M18.315,9.556l5.776-5.779l1.558,0.898l-2.114,7.894l-1.517,0.875l-3.703-2.136V9.556z M19.315,10.73l2.703,1.561l0.657-0.379
		l1.81-6.753l-0.229-0.132l-4.94,4.943V10.73z"/>
</g>
<g>
</g>
<g>
</g>
<g>
</g>
<g>
</g>
<g>
</g>
<g>
</g>
<g>
</g>
<g>
</g>
<g>
</g>
<g>
</g>
<g>
</g>
<g>
</g>
<g>
</g>
<g>
</g>
<g>
</g>
</svg>
