<?xml version="1.0" encoding="iso-8859-1"?>
<!-- Generator: Adobe Illustrator 16.0.0, SVG Export Plug-In . SVG Version: 6.00 Build 0)  -->
<!DOCTYPE svg PUBLIC "-//W3C//DTD SVG 1.1//EN" "http://www.w3.org/Graphics/SVG/1.1/DTD/svg11.dtd">
<svg version="1.1" id="Capa_1" xmlns="http://www.w3.org/2000/svg" xmlns:xlink="http://www.w3.org/1999/xlink" x="0px" y="0px"
	 width="32.294px" height="32.294px" viewBox="0 0 32.294 32.294" style="enable-background:new 0 0 32.294 32.294;"
	 xml:space="preserve">
<g>
	<path d="M31.77,15.627h-6.646l4.589-4.59c0.201-0.203,0.201-0.533,0-0.736c-0.203-0.204-0.534-0.204-0.736,0l-5.326,5.326h-3.228
		l-3.756-3.755V8.343l5.539-5.54c0.202-0.202,0.202-0.534,0-0.736c-0.202-0.202-0.533-0.202-0.736,0L16.666,6.87V0.522
		c0-0.286-0.234-0.521-0.521-0.521c-0.288,0-0.521,0.235-0.521,0.521V6.87l-4.802-4.803c-0.204-0.202-0.534-0.202-0.736,0
		c-0.204,0.203-0.204,0.534,0,0.736l5.538,5.54v3.528l-3.755,3.755H8.642l-5.326-5.326c-0.204-0.204-0.534-0.204-0.736,0
		c-0.204,0.203-0.204,0.533,0,0.736l4.588,4.59H0.521C0.233,15.627,0,15.86,0,16.147s0.233,0.521,0.521,0.521h6.648l-4.589,4.59
		c-0.204,0.204-0.204,0.533,0,0.737c0.102,0.102,0.235,0.151,0.369,0.151s0.267-0.051,0.369-0.151l5.326-5.327h3.228l3.756,3.756
		v3.528l-5.538,5.54c-0.204,0.201-0.204,0.532,0,0.736c0.203,0.201,0.533,0.201,0.736,0l4.802-4.804v6.348
		c0,0.287,0.234,0.521,0.521,0.521c0.288,0,0.521-0.233,0.521-0.521v-6.348l4.802,4.804c0.102,0.102,0.236,0.151,0.368,0.151
		c0.135,0,0.269-0.052,0.368-0.151c0.204-0.204,0.204-0.535,0-0.736l-5.539-5.54v-3.528l3.756-3.756h3.228l5.326,5.327
		c0.103,0.102,0.234,0.151,0.368,0.151c0.132,0,0.267-0.051,0.368-0.151c0.203-0.204,0.203-0.533,0-0.737l-4.589-4.59h6.648
		c0.286,0,0.521-0.233,0.521-0.521S32.058,15.627,31.77,15.627z M15.625,18.951l-2.283-2.283h2.283V18.951z M15.625,15.627h-2.283
		l2.283-2.283V15.627z M16.667,18.951v-2.283h2.283L16.667,18.951z M16.667,15.627v-2.283l2.283,2.283H16.667z M11.697,21.333
		L6.912,26.12c-0.102,0.103-0.235,0.152-0.369,0.152c-0.133,0-0.267-0.051-0.369-0.152c-0.203-0.203-0.203-0.534,0-0.736
		l4.786-4.787c0.203-0.201,0.534-0.201,0.736,0C11.898,20.801,11.899,21.13,11.697,21.333z M20.595,10.961l4.688-4.688
		c0.203-0.203,0.533-0.203,0.736,0c0.203,0.202,0.203,0.534,0,0.736l-4.688,4.688c-0.103,0.103-0.236,0.152-0.369,0.152
		c-0.134,0-0.267-0.051-0.369-0.152C20.391,11.495,20.391,11.165,20.595,10.961z M6.178,7.014C5.973,6.813,5.97,6.483,6.171,6.277
		C6.372,6.073,6.702,6.07,6.907,6.27l4.786,4.688c0.205,0.2,0.208,0.531,0.007,0.736c-0.103,0.105-0.237,0.155-0.372,0.155
		c-0.131,0-0.262-0.05-0.365-0.15L6.178,7.014z M26.115,25.382c0.204,0.204,0.204,0.533,0,0.736
		c-0.102,0.103-0.233,0.152-0.368,0.152c-0.134,0-0.267-0.051-0.368-0.152l-4.787-4.785c-0.201-0.203-0.201-0.535,0-0.736
		c0.202-0.203,0.535-0.203,0.736,0L26.115,25.382z M3.868,9.749c-0.203-0.203-0.203-0.534,0-0.737c0.204-0.203,0.534-0.203,0.736,0
		l4.792,4.792h2.085l2.321-2.32V9.098L8.797,4.09c-0.203-0.203-0.203-0.533,0-0.736C9,3.15,9.331,3.15,9.533,3.354l5.311,5.312
		v3.249l-2.93,2.929H8.966L3.868,9.749z M14.844,23.628l-5.311,5.312c-0.102,0.103-0.235,0.151-0.369,0.151
		s-0.267-0.051-0.369-0.151c-0.203-0.202-0.203-0.534,0-0.735l5.005-5.007v-2.387l-2.321-2.319H9.395l-4.792,4.791
		c-0.203,0.204-0.533,0.204-0.736,0c-0.203-0.201-0.203-0.533,0-0.736l5.097-5.097h2.948l2.93,2.93v3.249H14.844L14.844,23.628z
		 M28.423,22.546c0.202,0.203,0.202,0.534,0,0.736c-0.203,0.204-0.534,0.204-0.736,0l-4.793-4.791h-2.085l-2.321,2.319v2.387
		l5.005,5.008c0.203,0.202,0.203,0.533,0,0.736c-0.102,0.102-0.236,0.151-0.368,0.151c-0.135,0-0.269-0.051-0.368-0.151
		l-5.312-5.313v-3.249l2.93-2.929h2.948L28.423,22.546z M17.447,8.666l5.311-5.312c0.202-0.203,0.533-0.203,0.736,0
		c0.202,0.204,0.202,0.534,0,0.736l-5.006,5.008v2.386l2.322,2.32h2.085l4.792-4.792c0.203-0.203,0.533-0.203,0.736,0
		c0.203,0.202,0.203,0.534,0,0.737l-5.097,5.097h-2.948l-2.929-2.929V8.667L17.447,8.666L17.447,8.666z"/>
</g>
<g>
</g>
<g>
</g>
<g>
</g>
<g>
</g>
<g>
</g>
<g>
</g>
<g>
</g>
<g>
</g>
<g>
</g>
<g>
</g>
<g>
</g>
<g>
</g>
<g>
</g>
<g>
</g>
<g>
</g>
</svg>
