<?xml version="1.0" encoding="iso-8859-1"?>
<!-- Generator: Adobe Illustrator 16.0.0, SVG Export Plug-In . SVG Version: 6.00 Build 0)  -->
<!DOCTYPE svg PUBLIC "-//W3C//DTD SVG 1.1//EN" "http://www.w3.org/Graphics/SVG/1.1/DTD/svg11.dtd">
<svg version="1.1" id="Capa_1" xmlns="http://www.w3.org/2000/svg" xmlns:xlink="http://www.w3.org/1999/xlink" x="0px" y="0px"
	 width="31.503px" height="31.503px" viewBox="0 0 31.503 31.503" style="enable-background:new 0 0 31.503 31.503;"
	 xml:space="preserve">
<g>
	<path d="M19.435,6.088c0.414,0,0.75,0.336,0.75,0.75v3.417l3.762-3.761c0.293-0.293,0.769-0.293,1.062,0s0.293,0.768,0,1.061
		l-3.761,3.761h3.418c0.414,0,0.75,0.336,0.75,0.75s-0.336,0.75-0.75,0.75h-5.229h-0.75v-0.75V6.838
		C18.685,6.424,19.021,6.088,19.435,6.088z M10.229,11.455H7.173c-0.414,0-0.75,0.336-0.75,0.75s0.336,0.75,0.75,0.75h5.782V7.171
		c0-0.414-0.336-0.75-0.75-0.75s-0.75,0.336-0.75,0.75v3.396L7.567,6.506c-0.287-0.3-0.762-0.31-1.061-0.023
		C6.208,6.77,6.195,7.244,6.483,7.544L10.229,11.455z M31.501,15.751c0,0.414-0.336,0.75-0.75,0.75h-3.289l1.801,1.799
		c0.293,0.293,0.293,0.769,0,1.062c-0.146,0.146-0.339,0.221-0.531,0.221c-0.19,0-0.383-0.072-0.528-0.221l-2.86-2.859h-4.152
		l-3.236,1.449l-1.449,3.236v4.153l2.859,2.861c0.293,0.293,0.293,0.768,0,1.062c-0.146,0.146-0.338,0.219-0.53,0.219
		s-0.384-0.072-0.53-0.219l-1.799-1.8v3.289c0,0.414-0.336,0.75-0.75,0.75s-0.75-0.336-0.75-0.75v-3.289l-1.8,1.8
		c-0.293,0.293-0.769,0.293-1.062,0c-0.293-0.294-0.293-0.769,0-1.062l2.86-2.859v-4.153l-1.449-3.236l-3.237-1.449H6.166
		l-2.86,2.857c-0.146,0.146-0.339,0.221-0.53,0.221s-0.383-0.072-0.529-0.221c-0.293-0.293-0.293-0.769,0-1.062l1.8-1.799H0.751
		c-0.414,0-0.75-0.335-0.75-0.75s0.336-0.75,0.75-0.75h3.289l-1.801-1.8c-0.293-0.293-0.293-0.768,0-1.061
		c0.294-0.293,0.769-0.293,1.062,0L6.162,15h4.152l3.238-1.449L15,10.314V6.161l-2.858-2.86c-0.293-0.293-0.293-0.768,0-1.061
		c0.293-0.293,0.768-0.293,1.061,0l1.799,1.799V0.75c0-0.414,0.336-0.75,0.75-0.75s0.75,0.336,0.75,0.75v3.289l1.8-1.8
		c0.293-0.293,0.77-0.293,1.062,0c0.293,0.293,0.293,0.768,0,1.061l-2.86,2.86v4.154l1.449,3.237L21.191,15h4.151l2.86-2.859
		c0.294-0.293,0.77-0.292,1.062,0c0.293,0.293,0.293,0.768,0,1.061l-1.802,1.799h3.288C31.166,15.001,31.501,15.336,31.501,15.751z
		 M19.193,15.751l-1.676-0.75l-0.702-0.314l-0.314-0.702l-0.75-1.674l-0.75,1.674l-0.314,0.702l-0.701,0.314l-1.676,0.75l1.676,0.75
		l0.701,0.313l0.314,0.701l0.75,1.674l0.75-1.674l0.314-0.701l0.702-0.313L19.193,15.751z M21.275,20.046h3.055
		c0.414,0,0.75-0.336,0.75-0.75s-0.336-0.75-0.75-0.75h-5.782v5.783c0,0.414,0.336,0.75,0.75,0.75s0.75-0.336,0.75-0.75v-3.396
		l3.888,4.062c0.146,0.153,0.344,0.229,0.541,0.229c0.188,0,0.373-0.067,0.521-0.207c0.299-0.287,0.312-0.762,0.022-1.062
		L21.275,20.046z M12.817,24.663v-5.229v-0.75h-0.75H6.838c-0.414,0-0.75,0.336-0.75,0.75s0.336,0.75,0.75,0.75h3.418l-3.761,3.762
		c-0.293,0.293-0.293,0.769,0,1.062c0.146,0.146,0.338,0.22,0.529,0.22c0.192,0,0.385-0.072,0.531-0.22l3.76-3.762v3.418
		c0,0.414,0.336,0.75,0.75,0.75S12.817,25.077,12.817,24.663z"/>
</g>
<g>
</g>
<g>
</g>
<g>
</g>
<g>
</g>
<g>
</g>
<g>
</g>
<g>
</g>
<g>
</g>
<g>
</g>
<g>
</g>
<g>
</g>
<g>
</g>
<g>
</g>
<g>
</g>
<g>
</g>
</svg>
