<?xml version="1.0" encoding="iso-8859-1"?>
<!-- Generator: Adobe Illustrator 16.0.0, SVG Export Plug-In . SVG Version: 6.00 Build 0)  -->
<!DOCTYPE svg PUBLIC "-//W3C//DTD SVG 1.1//EN" "http://www.w3.org/Graphics/SVG/1.1/DTD/svg11.dtd">
<svg version="1.1" id="Capa_1" xmlns="http://www.w3.org/2000/svg" xmlns:xlink="http://www.w3.org/1999/xlink" x="0px" y="0px"
	 width="29.5px" height="29.5px" viewBox="0 0 29.5 29.5" style="enable-background:new 0 0 29.5 29.5;" xml:space="preserve">
<g>
	<path d="M18.062,28.164c0.306,0.306,0.306,0.8,0,1.105c-0.153,0.152-0.354,0.23-0.553,0.23c-0.199,0-0.398-0.076-0.552-0.23
		l-2.204-2.204l-2.206,2.204c-0.306,0.305-0.801,0.304-1.105,0c-0.306-0.306-0.306-0.8,0-1.105l3.311-3.31L18.062,28.164z
		 M14.751,4.645l3.313-3.311c0.305-0.305,0.305-0.8,0-1.105c-0.306-0.305-0.802-0.305-1.107,0l-2.206,2.206l-2.204-2.205
		c-0.304-0.304-0.799-0.306-1.105,0c-0.307,0.304-0.307,0.8,0,1.105L14.751,4.645z M1.337,11.177c-0.305-0.305-0.801-0.305-1.106,0
		c-0.305,0.306-0.305,0.8,0,1.105l2.208,2.206l-2.208,2.209c-0.305,0.305-0.305,0.799,0,1.104c0.152,0.152,0.352,0.229,0.552,0.229
		c0.2,0,0.4-0.074,0.552-0.229l3.311-3.313L1.337,11.177z M27.062,14.489l2.208-2.208c0.305-0.304,0.305-0.8,0-1.105
		c-0.304-0.304-0.8-0.305-1.105,0l-3.314,3.312l3.314,3.312c0.152,0.152,0.353,0.228,0.552,0.228c0.2,0,0.399-0.074,0.553-0.229
		c0.305-0.306,0.305-0.8,0-1.105L27.062,14.489z M27.361,22.043c0,0.432-0.351,0.781-0.781,0.781h-2.651l2.422,2.422
		c0.307,0.305,0.307,0.8,0,1.104c-0.152,0.152-0.353,0.229-0.552,0.229c-0.2,0-0.399-0.074-0.552-0.229l-2.422-2.422v2.65
		c0,0.432-0.351,0.781-0.781,0.781c-0.432,0-0.781-0.35-0.781-0.781v-4.213l-1.407-1.407H9.646l-1.407,1.407v4.212
		c0,0.432-0.35,0.781-0.781,0.781c-0.432,0-0.781-0.35-0.781-0.781v-2.649l-2.422,2.422c-0.152,0.152-0.352,0.229-0.551,0.229
		c-0.2,0-0.401-0.074-0.552-0.229c-0.307-0.305-0.307-0.8,0-1.104l2.421-2.423H2.922c-0.431,0-0.781-0.351-0.781-0.781
		c0-0.432,0.35-0.781,0.781-0.781h4.213l1.408-1.408L8.544,9.644L7.136,8.237L2.922,8.236c-0.431,0-0.781-0.35-0.781-0.781
		c0-0.432,0.35-0.781,0.781-0.781h2.651L3.152,4.251c-0.307-0.305-0.307-0.8,0-1.105c0.305-0.305,0.8-0.305,1.105,0l2.422,2.422
		V2.917c0-0.431,0.35-0.781,0.781-0.781s0.781,0.35,0.781,0.781v4.214l1.408,1.408h10.207l1.409-1.408V2.918
		c0-0.431,0.35-0.781,0.781-0.781s0.781,0.35,0.781,0.781v2.65l2.422-2.422c0.306-0.305,0.801-0.305,1.105,0
		c0.306,0.305,0.306,0.8,0,1.105l-2.423,2.423h2.653c0.432,0,0.781,0.35,0.781,0.781s-0.35,0.781-0.781,0.781H22.37l-1.405,1.405
		v10.211l1.407,1.407l4.212,0.001C27.012,21.262,27.361,21.611,27.361,22.043z M18.293,19.396h1.105v-1.105v-7.086v-1.103h-1.105
		h-7.082h-1.106v1.106l-0.001,7.083v1.106h1.105L18.293,19.396L18.293,19.396z M25.727,10.345l-4.403,4.404l4.404,4.404
		c0.152,0.152,0.352,0.231,0.552,0.231c0.198,0,0.4-0.076,0.552-0.231c0.305-0.305,0.305-0.8,0-1.104l-3.298-3.299l3.298-3.299
		c0.305-0.305,0.305-0.8,0-1.105C26.525,10.04,26.031,10.04,25.727,10.345z M14.752,8.177l4.405-4.403
		c0.305-0.305,0.305-0.8,0-1.105c-0.306-0.305-0.802-0.305-1.107,0l-3.297,3.299l-3.299-3.299c-0.305-0.305-0.8-0.305-1.105,0
		s-0.305,0.8,0,1.105L14.752,8.177z M2.666,18.055c-0.305,0.306-0.305,0.8,0,1.104c0.152,0.153,0.352,0.231,0.551,0.231
		c0.2,0,0.401-0.076,0.552-0.231l4.404-4.403l-4.405-4.404c-0.305-0.305-0.8-0.305-1.105,0c-0.305,0.306-0.305,0.8,0,1.105
		l3.298,3.299L2.666,18.055z M14.746,21.326l-4.403,4.405c-0.305,0.305-0.305,0.799,0,1.104c0.305,0.305,0.8,0.305,1.105,0
		l3.298-3.298l3.297,3.299c0.152,0.152,0.352,0.23,0.552,0.23c0.199,0,0.4-0.076,0.553-0.23c0.306-0.306,0.306-0.8,0-1.104
		L14.746,21.326z"/>
</g>
<g>
</g>
<g>
</g>
<g>
</g>
<g>
</g>
<g>
</g>
<g>
</g>
<g>
</g>
<g>
</g>
<g>
</g>
<g>
</g>
<g>
</g>
<g>
</g>
<g>
</g>
<g>
</g>
<g>
</g>
</svg>
