<?xml version="1.0" encoding="iso-8859-1"?>
<!-- Generator: Adobe Illustrator 16.0.0, SVG Export Plug-In . SVG Version: 6.00 Build 0)  -->
<!DOCTYPE svg PUBLIC "-//W3C//DTD SVG 1.1//EN" "http://www.w3.org/Graphics/SVG/1.1/DTD/svg11.dtd">
<svg version="1.1" id="Capa_1" xmlns="http://www.w3.org/2000/svg" xmlns:xlink="http://www.w3.org/1999/xlink" x="0px" y="0px"
	 width="32.817px" height="32.817px" viewBox="0 0 32.817 32.817" style="enable-background:new 0 0 32.817 32.817;"
	 xml:space="preserve">
<g>
	<path d="M32.814,16.409c0,0.432-0.35,0.781-0.781,0.781h-7.281l3.247,3.249c0.306,0.306,0.306,0.801,0,1.105
		c-0.152,0.153-0.352,0.229-0.551,0.229s-0.401-0.074-0.552-0.229l-4.354-4.354h-5.354v5.604l4.533,4.532
		c0.306,0.306,0.306,0.801,0,1.106c-0.152,0.151-0.352,0.23-0.554,0.23c-0.198,0-0.398-0.077-0.55-0.23l-3.429-3.429v7.031
		c0,0.432-0.349,0.781-0.781,0.781c-0.433,0-0.781-0.35-0.781-0.781v-7.031l-3.427,3.428c-0.305,0.305-0.8,0.305-1.105,0
		c-0.305-0.306-0.305-0.802,0-1.107l4.532-4.531V17.19h-5.353l-4.353,4.353c-0.152,0.153-0.352,0.23-0.553,0.23
		c-0.2,0-0.399-0.075-0.552-0.23c-0.305-0.305-0.305-0.799,0-1.104l3.248-3.249H0.784c-0.432,0-0.781-0.35-0.781-0.781
		c0-0.431,0.35-0.781,0.781-0.781h7.282l-3.248-3.249c-0.305-0.305-0.305-0.8,0-1.105c0.305-0.305,0.8-0.305,1.105,0l4.353,4.354
		h5.353v-5.603l-4.531-4.532c-0.305-0.305-0.305-0.8,0-1.105s0.8-0.305,1.105,0l3.427,3.427V0.781C15.629,0.35,15.979,0,16.411,0
		s0.781,0.35,0.781,0.781v7.031l3.427-3.427c0.305-0.305,0.802-0.305,1.106,0c0.306,0.305,0.306,0.8,0,1.105l-4.533,4.532v5.603
		h5.354l4.354-4.354c0.306-0.305,0.801-0.305,1.105,0c0.306,0.306,0.306,0.8,0,1.105l-3.248,3.249h7.283
		C32.465,15.628,32.814,15.978,32.814,16.409z M14.127,18.691c-0.305-0.306-0.8-0.306-1.105,0l-5.187,5.186
		c-0.305,0.305-0.305,0.8,0,1.104c0.152,0.153,0.352,0.231,0.552,0.231s0.4-0.076,0.552-0.231l5.187-5.185
		C14.433,19.491,14.433,18.996,14.127,18.691z M18.691,14.127c0.151,0.152,0.352,0.229,0.551,0.229c0.201,0,0.401-0.076,0.553-0.229
		l5.187-5.186c0.306-0.305,0.306-0.8,0-1.105c-0.305-0.305-0.8-0.305-1.105,0l-5.187,5.186
		C18.386,13.327,18.386,13.822,18.691,14.127z M13.023,14.127c0.152,0.152,0.352,0.229,0.552,0.229s0.4-0.076,0.552-0.229
		c0.305-0.305,0.305-0.8,0-1.105L8.941,7.836c-0.305-0.305-0.8-0.305-1.105,0s-0.305,0.8,0,1.105L13.023,14.127z M19.796,18.691
		c-0.305-0.306-0.802-0.306-1.106,0c-0.306,0.305-0.306,0.8,0,1.105l5.187,5.185c0.151,0.153,0.353,0.231,0.552,0.231
		c0.2,0,0.4-0.076,0.552-0.231c0.306-0.305,0.306-0.8,0-1.104L19.796,18.691z"/>
</g>
<g>
</g>
<g>
</g>
<g>
</g>
<g>
</g>
<g>
</g>
<g>
</g>
<g>
</g>
<g>
</g>
<g>
</g>
<g>
</g>
<g>
</g>
<g>
</g>
<g>
</g>
<g>
</g>
<g>
</g>
</svg>
