<?xml version="1.0" encoding="iso-8859-1"?>
<!-- Generator: Adobe Illustrator 16.0.0, SVG Export Plug-In . SVG Version: 6.00 Build 0)  -->
<!DOCTYPE svg PUBLIC "-//W3C//DTD SVG 1.1//EN" "http://www.w3.org/Graphics/SVG/1.1/DTD/svg11.dtd">
<svg version="1.1" id="Capa_1" xmlns="http://www.w3.org/2000/svg" xmlns:xlink="http://www.w3.org/1999/xlink" x="0px" y="0px"
	 width="39.225px" height="39.225px" viewBox="0 0 39.225 39.225" style="enable-background:new 0 0 39.225 39.225;"
	 xml:space="preserve">
<g>
	<path d="M36.216,16.395L36.216,16.395c-0.794,0.011-1.536,0.33-2.087,0.9c-0.416,0.427-0.687,0.959-0.79,1.535H28.9l3.926-3.923
		c0.305-0.305,0.305-0.801,0-1.106c-0.306-0.306-0.802-0.306-1.106,0l-5.028,5.027h-0.087c-0.222-1.998-1.284-3.74-2.824-4.878
		l0.049-0.087l6.867-1.84c0.415-0.111,0.663-0.541,0.55-0.958c-0.109-0.416-0.539-0.666-0.957-0.552l-5.354,1.435l2.227-3.857
		c0.319,0.112,0.646,0.193,0.985,0.193c1.04,0,2.017-0.554,2.551-1.445c0.838-1.405,0.376-3.232-1.026-4.069
		c-0.461-0.275-0.986-0.419-1.52-0.419c-1.039,0-2.016,0.553-2.551,1.445c-0.66,1.107-0.504,2.468,0.271,3.407l-2.291,3.971
		l-1.436-5.36c-0.111-0.416-0.541-0.663-0.957-0.552c-0.417,0.111-0.665,0.542-0.552,0.958l1.84,6.867l-0.045,0.079
		c-0.864-0.379-1.816-0.592-2.819-0.592s-1.955,0.213-2.82,0.592l-0.044-0.077l1.84-6.866c0.112-0.416-0.136-0.846-0.552-0.957
		c-0.416-0.109-0.846,0.136-0.957,0.551l-1.436,5.357L13.39,7.27c0.916-0.929,1.151-2.38,0.469-3.564
		c-0.529-0.916-1.515-1.483-2.572-1.483c-0.519,0-1.031,0.138-1.481,0.399C9.119,3.015,8.629,3.654,8.422,4.421
		c-0.205,0.767-0.1,1.567,0.296,2.252c0.529,0.916,1.516,1.484,2.573,1.484c0.254,0,0.505-0.033,0.75-0.099l2.248,3.892
		l-5.355-1.434c-0.415-0.109-0.845,0.136-0.957,0.552c-0.111,0.417,0.135,0.846,0.553,0.957l6.865,1.84l0.049,0.085
		c-1.54,1.138-2.602,2.88-2.824,4.878h-0.089l-5.027-5.027c-0.305-0.305-0.8-0.305-1.105,0s-0.305,0.801,0,1.106l3.923,3.923H5.736
		c-0.425-1.126-1.514-1.937-2.814-1.937l0,0C1.288,16.918-0.023,18.27,0,19.907c0.024,1.611,1.356,2.924,2.968,2.924h0.043
		c1.438-0.022,2.624-1.069,2.873-2.436h4.437L6.4,24.315c-0.305,0.305-0.305,0.801,0,1.105c0.152,0.152,0.352,0.23,0.552,0.23
		s0.4-0.075,0.552-0.23l5.025-5.023h0.091c0.222,1.998,1.285,3.742,2.825,4.879l-0.046,0.08l-6.87,1.843
		c-0.417,0.112-0.663,0.541-0.552,0.958c0.111,0.415,0.543,0.666,0.958,0.552l5.359-1.438l-2.222,3.85
		c-1.286-0.438-2.837,0.083-3.544,1.27c-0.839,1.401-0.379,3.229,1.025,4.066c0.461,0.277,0.986,0.422,1.519,0.422
		c1.04,0,2.016-0.554,2.55-1.446c0.406-0.681,0.522-1.48,0.329-2.25c-0.109-0.436-0.321-0.824-0.6-1.158l2.291-3.969l1.436,5.354
		c0.093,0.349,0.409,0.578,0.754,0.578c0.066,0,0.135-0.008,0.203-0.024c0.417-0.111,0.664-0.541,0.552-0.958l-1.839-6.86
		l0.045-0.079c0.864,0.378,1.817,0.592,2.819,0.592c1.001,0,1.954-0.214,2.818-0.592l0.045,0.077l-1.839,6.864
		c-0.112,0.415,0.135,0.847,0.552,0.956c0.066,0.021,0.136,0.026,0.202,0.026c0.345,0,0.66-0.229,0.755-0.58l1.436-5.355
		l2.254,3.904c-0.36,0.361-0.63,0.803-0.765,1.311c-0.205,0.764-0.1,1.564,0.296,2.252c0.528,0.915,1.515,1.483,2.572,1.483
		c0.519,0,1.031-0.139,1.48-0.399c0.687-0.395,1.178-1.035,1.383-1.802c0.206-0.764,0.101-1.564-0.296-2.252
		c-0.528-0.915-1.514-1.482-2.571-1.482c-0.256,0-0.508,0.034-0.752,0.1l-2.249-3.896l5.356,1.437
		c0.416,0.113,0.847-0.135,0.957-0.551c0.112-0.417-0.135-0.846-0.55-0.958l-6.87-1.842l-0.047-0.082
		c1.542-1.137,2.604-2.882,2.825-4.88h0.09l5.023,5.025c0.152,0.152,0.352,0.23,0.552,0.23c0.198,0,0.4-0.076,0.553-0.23
		c0.305-0.305,0.305-0.799,0-1.104l-3.92-3.923h4.585c0.424,1.125,1.506,1.937,2.77,1.937h0.045
		c1.636-0.023,2.947-1.375,2.922-3.013C39.204,17.706,37.874,16.395,36.216,16.395z M26.945,4.597
		c0.181-0.303,0.464-0.514,0.788-0.615c0.135-0.042,0.277-0.07,0.423-0.07c0.252,0,0.5,0.068,0.717,0.198
		c0.154,0.093,0.282,0.217,0.387,0.353c0.34,0.443,0.402,1.065,0.1,1.575c-0.287,0.48-0.853,0.727-1.392,0.664
		c-0.188-0.022-0.369-0.077-0.538-0.179c-0.345-0.204-0.562-0.538-0.641-0.901C26.711,5.282,26.753,4.917,26.945,4.597z
		 M10.07,5.893c-0.188-0.325-0.238-0.704-0.14-1.064c0.022-0.083,0.075-0.152,0.111-0.229c0.121-0.253,0.292-0.481,0.543-0.625
		c0.213-0.124,0.456-0.19,0.7-0.19c0.034,0,0.065,0.012,0.099,0.014c0.462,0.033,0.888,0.284,1.12,0.69
		c0.24,0.415,0.22,0.893,0.027,1.298c-0.118,0.247-0.286,0.474-0.541,0.622c-0.252,0.146-0.54,0.174-0.821,0.146
		C10.728,6.509,10.3,6.288,10.07,5.893z M1.67,20.392c-0.066-0.158-0.108-0.329-0.112-0.511c-0.006-0.417,0.174-0.791,0.461-1.052
		c0.248-0.226,0.575-0.369,0.943-0.374c0.361,0,0.688,0.148,0.938,0.374c0.278,0.253,0.461,0.606,0.466,1.01
		c0.003,0.195-0.035,0.382-0.104,0.553c-0.208,0.504-0.701,0.865-1.278,0.873l-0.021,0.777v-0.777
		C2.383,21.265,1.883,20.9,1.67,20.392z M12.279,34.623c-0.181,0.304-0.462,0.514-0.788,0.614c-0.134,0.043-0.275,0.07-0.422,0.07
		c-0.251,0-0.5-0.068-0.716-0.198c-0.156-0.094-0.282-0.216-0.388-0.352c-0.341-0.447-0.403-1.064-0.099-1.576
		c0.257-0.428,0.708-0.685,1.209-0.685c0.061,0,0.12,0.019,0.18,0.023c0.188,0.025,0.372,0.076,0.538,0.177
		c0.321,0.192,0.549,0.498,0.641,0.861c0.003,0.014-0.001,0.027,0.002,0.042C12.516,33.954,12.465,34.313,12.279,34.623z
		 M28.034,32.638c0.463,0.032,0.887,0.283,1.118,0.689c0.188,0.324,0.239,0.704,0.14,1.065c-0.021,0.083-0.074,0.151-0.11,0.23
		c-0.121,0.254-0.293,0.48-0.544,0.623c-0.252,0.146-0.538,0.173-0.818,0.146c-0.444-0.043-0.872-0.263-1.101-0.659
		c-0.188-0.326-0.239-0.704-0.141-1.066c0.021-0.083,0.074-0.151,0.11-0.229c0.121-0.255,0.293-0.48,0.544-0.625
		c0.214-0.122,0.455-0.189,0.699-0.189C27.969,32.623,28,32.636,28.034,32.638z M28.672,36.085L28.672,36.085
		c0.133,0,0.267-0.033,0.391-0.106C28.94,36.052,28.805,36.085,28.672,36.085z M25.088,19.61c0,0.267-0.042,0.523-0.077,0.781
		c-0.206,1.417-0.949,2.651-2.025,3.499c-0.411,0.324-0.854,0.6-1.345,0.796c-0.63,0.252-1.312,0.401-2.029,0.401
		s-1.4-0.149-2.029-0.401c-0.49-0.195-0.936-0.472-1.345-0.796c-1.076-0.848-1.819-2.082-2.025-3.499
		c-0.038-0.258-0.08-0.515-0.08-0.781c0-0.269,0.042-0.524,0.08-0.781c0.206-1.418,0.949-2.651,2.024-3.499
		c0.409-0.324,0.854-0.598,1.345-0.797c0.629-0.252,1.312-0.4,2.029-0.4s1.399,0.147,2.029,0.4c0.491,0.196,0.934,0.473,1.345,0.797
		c1.076,0.849,1.818,2.081,2.024,3.499C25.046,19.086,25.088,19.342,25.088,19.61z M35.323,20.392
		c-0.277-0.254-0.46-0.608-0.468-1.012c-0.003-0.194,0.036-0.378,0.108-0.551c0.065-0.163,0.163-0.316,0.289-0.446
		c0.262-0.271,0.612-0.421,1.012-0.426c0.579,0,1.079,0.363,1.291,0.872c0.063,0.158,0.107,0.329,0.109,0.511
		c0.006,0.416-0.174,0.79-0.457,1.052c-0.245,0.227-0.566,0.368-0.927,0.374l-0.021,0.776v-0.776
		C35.898,20.766,35.572,20.62,35.323,20.392z"/>
</g>
<g>
</g>
<g>
</g>
<g>
</g>
<g>
</g>
<g>
</g>
<g>
</g>
<g>
</g>
<g>
</g>
<g>
</g>
<g>
</g>
<g>
</g>
<g>
</g>
<g>
</g>
<g>
</g>
<g>
</g>
</svg>
