<?xml version="1.0" encoding="iso-8859-1"?>
<!-- Generator: Adobe Illustrator 16.0.0, SVG Export Plug-In . SVG Version: 6.00 Build 0)  -->
<!DOCTYPE svg PUBLIC "-//W3C//DTD SVG 1.1//EN" "http://www.w3.org/Graphics/SVG/1.1/DTD/svg11.dtd">
<svg version="1.1" id="Capa_1" xmlns="http://www.w3.org/2000/svg" xmlns:xlink="http://www.w3.org/1999/xlink" x="0px" y="0px"
	 width="34.002px" height="34.002px" viewBox="0 0 34.002 34.002" style="enable-background:new 0 0 34.002 34.002;"
	 xml:space="preserve">
<g>
	<path d="M33.222,16.218H23.211v-3.181h5.268c0.432,0,0.781-0.35,0.781-0.781c0-0.431-0.35-0.781-0.781-0.781h-4.844l1.711-1.712
		h3.395c0.431,0,0.781-0.35,0.781-0.781c0-0.43-0.351-0.781-0.781-0.781h-1.832l1.697-1.698c0.306-0.305,0.306-0.8,0-1.105
		c-0.305-0.305-0.8-0.305-1.105,0l-1.882,1.882V5.08c0-0.431-0.35-0.781-0.781-0.781s-0.781,0.35-0.781,0.781v3.761l-1.528,1.527
		V5.523c0-0.431-0.35-0.781-0.781-0.781c-0.431,0-0.781,0.35-0.781,0.781v5.267h-3.182V0.781C17.783,0.35,17.434,0,17.002,0
		s-0.781,0.35-0.781,0.781v10.009h-3.004V5.954c0-0.432-0.351-0.781-0.781-0.781c-0.431,0-0.781,0.35-0.781,0.781v4.594L9.95,8.842
		V5.263c0-0.431-0.35-0.781-0.781-0.781c-0.431,0-0.781,0.35-0.781,0.781V7.28L6.505,5.397c-0.305-0.305-0.8-0.305-1.105,0
		s-0.305,0.8,0,1.105l1.881,1.882H5.268c-0.432,0-0.781,0.35-0.781,0.781s0.35,0.781,0.781,0.781h3.576l1.705,1.706H5.956
		c-0.431,0-0.781,0.35-0.781,0.781c0,0.431,0.35,0.781,0.781,0.781h4.836v3.004H0.783c-0.431,0-0.781,0.35-0.781,0.78
		c0,0.432,0.35,0.781,0.781,0.781h10.009v3.183H5.526c-0.431,0-0.781,0.35-0.781,0.781c0,0.429,0.35,0.781,0.781,0.781h4.847
		l-1.527,1.526H5.085c-0.432,0-0.781,0.351-0.781,0.781c0,0.432,0.35,0.781,0.781,0.781h2.199l-1.882,1.883
		c-0.305,0.306-0.305,0.801,0,1.106c0.152,0.151,0.353,0.229,0.552,0.229s0.4-0.075,0.552-0.229l1.699-1.7v1.834
		c0,0.432,0.35,0.781,0.781,0.781c0.432,0,0.781-0.35,0.781-0.781v-3.396l1.71-1.711l-0.001,4.847c0,0.432,0.349,0.781,0.781,0.781
		c0.432,0,0.781-0.35,0.781-0.781V23.21h3.181v10.011c0,0.431,0.35,0.781,0.781,0.781s0.781-0.351,0.781-0.781V23.21h3.005v4.838
		c0,0.431,0.35,0.781,0.781,0.781s0.781-0.351,0.781-0.781v-4.594l1.889,1.888v3.58c0,0.431,0.352,0.781,0.781,0.781
		c0.432,0,0.781-0.351,0.781-0.781v-2.018l1.698,1.699c0.151,0.152,0.352,0.229,0.55,0.229c0.201,0,0.402-0.076,0.553-0.229
		c0.307-0.308,0.307-0.802,0-1.107L26.904,25.8h2.015c0.432,0,0.781-0.351,0.781-0.781c0-0.432-0.35-0.781-0.781-0.781h-3.577
		l-1.89-1.891h4.594c0.432,0,0.781-0.35,0.781-0.781c0-0.431-0.35-0.781-0.781-0.781h-4.837v-3.003H33.22
		c0.432,0,0.781-0.35,0.781-0.781S33.653,16.218,33.222,16.218z M13.462,21.646h-0.42h-0.686v-0.687v-0.417v-7.085v-0.241v-0.863
		h0.863h0.243h7.082h0.421h0.683v0.684v0.42v7.084v0.241v0.863h-0.862h-0.243H13.462z"/>
</g>
<g>
</g>
<g>
</g>
<g>
</g>
<g>
</g>
<g>
</g>
<g>
</g>
<g>
</g>
<g>
</g>
<g>
</g>
<g>
</g>
<g>
</g>
<g>
</g>
<g>
</g>
<g>
</g>
<g>
</g>
</svg>
