<?xml version="1.0" encoding="iso-8859-1"?>
<!-- Generator: Adobe Illustrator 16.0.0, SVG Export Plug-In . SVG Version: 6.00 Build 0)  -->
<!DOCTYPE svg PUBLIC "-//W3C//DTD SVG 1.1//EN" "http://www.w3.org/Graphics/SVG/1.1/DTD/svg11.dtd">
<svg version="1.1" id="Capa_1" xmlns="http://www.w3.org/2000/svg" xmlns:xlink="http://www.w3.org/1999/xlink" x="0px" y="0px"
	 width="35.795px" height="35.795px" viewBox="0 0 35.795 35.795" style="enable-background:new 0 0 35.795 35.795;"
	 xml:space="preserve">
<g>
	<path d="M33.212,26.161l-1.375-0.793l-1.146-4.304c-0.071-0.268-0.343-0.428-0.612-0.354c-0.267,0.071-0.426,0.345-0.354,0.612
		l0.89,3.339l-4.301-2.483v-8.562l4.3-2.482l-0.896,3.337c-0.07,0.267,0.088,0.541,0.354,0.612c0.043,0.012,0.086,0.017,0.129,0.017
		c0.222,0,0.423-0.147,0.483-0.371l1.151-4.303l1.375-0.794c0.238-0.138,0.32-0.444,0.184-0.683
		c-0.139-0.241-0.443-0.321-0.684-0.183l-1.354,0.781L27.02,8.384c-0.269-0.069-0.541,0.087-0.613,0.354
		c-0.07,0.267,0.087,0.541,0.354,0.612l3.374,0.904l-4.319,2.494L18.398,8.47V3.524l2.426,2.419
		c0.195,0.194,0.514,0.195,0.708-0.001c0.194-0.195,0.194-0.512-0.001-0.707L18.398,2.11V0.5c0-0.276-0.223-0.5-0.5-0.5
		s-0.5,0.224-0.5,0.5v1.542l-3.194,3.204c-0.193,0.196-0.193,0.512,0.002,0.707c0.098,0.097,0.226,0.146,0.354,0.146
		s0.257-0.049,0.354-0.147l2.485-2.494V8.47l-7.417,4.279l-4.319-2.494l3.375-0.898c0.268-0.071,0.427-0.345,0.354-0.612
		C9.319,8.478,9.05,8.321,8.78,8.39L4.435,9.546l-1.352-0.78C2.846,8.63,2.538,8.71,2.4,8.949C2.261,9.188,2.343,9.494,2.583,9.632
		l1.375,0.794l1.146,4.303c0.06,0.224,0.262,0.371,0.483,0.371c0.042,0,0.086-0.005,0.129-0.017
		c0.267-0.071,0.426-0.345,0.354-0.612l-0.89-3.339l4.301,2.483v8.563l-4.3,2.481l0.895-3.339c0.071-0.266-0.087-0.541-0.354-0.611
		c-0.262-0.07-0.54,0.087-0.612,0.354l-1.152,4.306l-1.375,0.794C2.345,26.3,2.263,26.605,2.4,26.846
		c0.092,0.16,0.261,0.25,0.433,0.25c0.085,0,0.171-0.021,0.25-0.066l1.354-0.781l4.339,1.163c0.044,0.012,0.087,0.017,0.13,0.017
		c0.221,0,0.423-0.146,0.483-0.371c0.07-0.267-0.087-0.541-0.354-0.611l-3.374-0.903l4.322-2.495l7.415,4.28v4.944l-2.426-2.418
		c-0.195-0.194-0.514-0.194-0.708,0c-0.194,0.195-0.194,0.512,0.001,0.707l3.133,3.123v1.611c0,0.275,0.224,0.5,0.5,0.5
		s0.5-0.225,0.5-0.5v-1.542l3.194-3.205c0.193-0.196,0.193-0.513-0.002-0.707c-0.194-0.194-0.513-0.194-0.707,0.001l-2.485,2.492
		v-5.012l7.416-4.279l4.319,2.494l-3.373,0.898c-0.268,0.07-0.427,0.344-0.354,0.611c0.061,0.225,0.262,0.371,0.483,0.371
		c0.042,0,0.086-0.005,0.129-0.018l4.343-1.156l1.353,0.781c0.078,0.045,0.165,0.065,0.25,0.065c0.172,0,0.342-0.09,0.434-0.25
		C33.534,26.605,33.452,26.298,33.212,26.161z M24.616,13.21l-4.5,0.843l-1.518-4.315L24.616,13.21z M17.197,9.739l-1.52,4.314
		L11.18,13.21L17.197,9.739z M10.483,14.424l2.977,3.472l-2.977,3.472V14.424z M11.184,22.583l4.494-0.843l1.52,4.314L11.184,22.583
		z M17.898,25.031l-0.5-1.418L16.336,20.6l-3.137,0.588l-1.479,0.276l0.979-1.144l2.077-2.424l-2.078-2.424l-0.979-1.143
		l1.479,0.278l3.137,0.588l1.062-3.015l0.5-1.418l0.5,1.421l1.06,3.012l3.142-0.589l1.479-0.277L23.1,15.472l-2.078,2.424
		l2.079,2.424l0.979,1.144L22.6,21.188L19.458,20.6l-1.06,3.012L17.898,25.031z M18.598,26.055l1.518-4.314l4.497,0.843
		L18.598,26.055z M25.313,21.37l-2.978-3.474l2.978-3.473V21.37z"/>
</g>
<g>
</g>
<g>
</g>
<g>
</g>
<g>
</g>
<g>
</g>
<g>
</g>
<g>
</g>
<g>
</g>
<g>
</g>
<g>
</g>
<g>
</g>
<g>
</g>
<g>
</g>
<g>
</g>
<g>
</g>
</svg>
