<?xml version="1.0" encoding="iso-8859-1"?>
<!-- Generator: Adobe Illustrator 16.0.0, SVG Export Plug-In . SVG Version: 6.00 Build 0)  -->
<!DOCTYPE svg PUBLIC "-//W3C//DTD SVG 1.1//EN" "http://www.w3.org/Graphics/SVG/1.1/DTD/svg11.dtd">
<svg version="1.1" id="Capa_1" xmlns="http://www.w3.org/2000/svg" xmlns:xlink="http://www.w3.org/1999/xlink" x="0px" y="0px"
	 width="31.504px" height="31.505px" viewBox="0 0 31.504 31.505" style="enable-background:new 0 0 31.504 31.505;"
	 xml:space="preserve">
<g>
	<path d="M30.759,15H27.47l1.8-1.799c0.293-0.293,0.293-0.768,0-1.061s-0.769-0.293-1.062,0l-2.86,2.858h-2.875
		c-0.156-1.415-0.756-2.696-1.65-3.711h0.146h5.229c0.414,0,0.75-0.336,0.75-0.75s-0.336-0.75-0.75-0.75H22.78l3.613-3.614
		c0.293-0.293,0.293-0.768,0-1.061s-0.768-0.293-1.061,0l-3.614,3.613V5.307c0-0.414-0.336-0.75-0.75-0.75s-0.75,0.336-0.75,0.75
		v5.229v0.147c-1.015-0.896-2.296-1.494-3.711-1.65V6.157l2.86-2.86c0.293-0.293,0.293-0.768,0-1.061s-0.77-0.293-1.062,0l-1.8,1.8
		V0.75c0-0.414-0.336-0.75-0.75-0.75s-0.75,0.336-0.75,0.75v3.289l-1.799-1.8c-0.293-0.294-0.768-0.294-1.061,0
		c-0.293,0.293-0.293,0.768,0,1.061l2.859,2.86v2.876c-1.415,0.157-2.695,0.755-3.71,1.649v-0.146V5.311
		c0-0.414-0.336-0.75-0.75-0.75s-0.75,0.336-0.75,0.75v3.418L6.18,5.115c-0.293-0.294-0.768-0.294-1.061,0
		c-0.293,0.293-0.293,0.768,0,1.061L8.733,9.79H5.315c-0.414,0-0.75,0.336-0.75,0.75s0.336,0.75,0.75,0.75h5.229h0.146
		c-0.895,1.016-1.494,2.296-1.651,3.711H6.165l-2.86-2.859c-0.293-0.293-0.768-0.293-1.061,0s-0.293,0.768,0,1.061l1.8,1.8H0.754
		c-0.414,0-0.75,0.336-0.75,0.75s0.336,0.75,0.75,0.75h3.289l-1.799,1.799c-0.293,0.293-0.293,0.769,0,1.062
		c0.146,0.146,0.338,0.221,0.53,0.221s0.384-0.073,0.53-0.221l2.86-2.858H9.04c0.158,1.419,0.759,2.703,1.659,3.722h-0.154H5.315
		c-0.414,0-0.75,0.336-0.75,0.75c0,0.412,0.336,0.75,0.75,0.75h3.418l-3.614,3.612c-0.293,0.293-0.293,0.769,0,1.062
		c0.146,0.146,0.338,0.221,0.53,0.221s0.384-0.073,0.53-0.221l3.614-3.613v3.417c0,0.414,0.336,0.75,0.75,0.75s0.75-0.336,0.75-0.75
		v-5.228V20.82c1.015,0.896,2.295,1.492,3.71,1.648v2.876l-2.86,2.86c-0.293,0.293-0.293,0.77,0,1.062s0.768,0.293,1.061,0
		l1.8-1.802v3.289c0,0.414,0.336,0.75,0.75,0.75s0.75-0.336,0.75-0.75v-3.289l1.799,1.802c0.146,0.146,0.338,0.219,0.53,0.219
		c0.19,0,0.384-0.072,0.528-0.219c0.293-0.293,0.293-0.77,0-1.062l-2.857-2.86v-2.876c1.415-0.156,2.695-0.756,3.711-1.648v0.156
		v5.228c0,0.414,0.336,0.75,0.75,0.75s0.75-0.336,0.75-0.75v-3.417L25.33,26.4c0.146,0.146,0.338,0.221,0.528,0.221
		c0.192,0,0.385-0.073,0.53-0.221c0.293-0.293,0.293-0.769,0-1.062l-3.614-3.612h3.418c0.414,0,0.75-0.336,0.75-0.75
		s-0.336-0.75-0.75-0.75h-5.229h-0.154c0.898-1.019,1.5-2.303,1.658-3.722h2.875l2.859,2.858c0.146,0.146,0.339,0.222,0.531,0.222
		c0.19,0,0.383-0.073,0.528-0.222c0.293-0.293,0.293-0.768,0-1.061l-1.8-1.8h3.289c0.414,0,0.75-0.336,0.75-0.75
		S31.173,15,30.759,15z M21.018,15.75c0,0.257-0.041,0.503-0.076,0.75c-0.332,2.295-2.138,4.1-4.434,4.432
		c-0.247,0.036-0.493,0.076-0.75,0.076s-0.503-0.04-0.75-0.076c-2.295-0.332-4.101-2.137-4.433-4.432
		c-0.036-0.247-0.076-0.493-0.076-0.75s0.04-0.503,0.076-0.75c0.332-2.295,2.137-4.1,4.433-4.432
		c0.247-0.036,0.493-0.076,0.75-0.076s0.503,0.04,0.75,0.076C18.803,10.9,20.61,12.705,20.942,15
		C20.977,15.247,21.018,15.493,21.018,15.75z"/>
</g>
<g>
</g>
<g>
</g>
<g>
</g>
<g>
</g>
<g>
</g>
<g>
</g>
<g>
</g>
<g>
</g>
<g>
</g>
<g>
</g>
<g>
</g>
<g>
</g>
<g>
</g>
<g>
</g>
<g>
</g>
</svg>
