<?xml version="1.0" encoding="iso-8859-1"?>
<!-- Generator: Adobe Illustrator 16.0.0, SVG Export Plug-In . SVG Version: 6.00 Build 0)  -->
<!DOCTYPE svg PUBLIC "-//W3C//DTD SVG 1.1//EN" "http://www.w3.org/Graphics/SVG/1.1/DTD/svg11.dtd">
<svg version="1.1" id="Capa_1" xmlns="http://www.w3.org/2000/svg" xmlns:xlink="http://www.w3.org/1999/xlink" x="0px" y="0px"
	 width="34.938px" height="34.938px" viewBox="0 0 34.938 34.938" style="enable-background:new 0 0 34.938 34.938;"
	 xml:space="preserve">
<g>
	<path d="M32.946,24.1c-0.181-0.635-0.598-1.161-1.173-1.482c-1.062-0.592-2.463-0.25-3.18,0.699l-2.753-1.59l6.757-1.811
		c0.268-0.07,0.426-0.346,0.354-0.611c-0.07-0.268-0.345-0.426-0.611-0.354l-7.724,2.067l-1.944-1.123v-4.853l1.945-1.124
		l7.724,2.068c0.043,0.012,0.087,0.018,0.13,0.018c0.222,0,0.423-0.147,0.481-0.371c0.071-0.268-0.087-0.541-0.354-0.612
		l-6.757-1.81l2.76-1.595c0.463,0.624,1.183,1.017,1.972,1.017l0,0c0.417,0,0.833-0.108,1.2-0.312
		c1.188-0.664,1.616-2.17,0.954-3.359c-0.638-1.146-2.204-1.599-3.359-0.955c-0.979,0.546-1.43,1.663-1.193,2.704l-2.831,1.635
		l1.811-6.755c0.07-0.268-0.087-0.541-0.354-0.612c-0.266-0.071-0.54,0.086-0.611,0.354l-2.069,7.722l-1.946,1.124l-4.204-2.429
		V9.504l5.652-5.653c0.195-0.195,0.195-0.512,0-0.707c-0.194-0.195-0.512-0.195-0.707,0L17.968,8.09V4.889
		C19.093,4.658,19.94,3.66,19.94,2.47c0-1.362-1.109-2.47-2.471-2.47s-2.47,1.107-2.47,2.47c0,1.189,0.846,2.186,1.969,2.418V8.09
		l-4.945-4.946c-0.195-0.195-0.512-0.195-0.707,0c-0.195,0.195-0.195,0.512,0,0.707l5.652,5.653v2.247l-4.203,2.426l-1.947-1.124
		L8.749,5.331C8.677,5.063,8.404,4.905,8.137,4.977C7.87,5.048,7.712,5.323,7.783,5.589l1.81,6.755l-2.831-1.635
		c0.236-1.041-0.215-2.158-1.194-2.704c-1.152-0.642-2.72-0.191-3.36,0.956c-0.662,1.188-0.234,2.695,0.956,3.359
		c0.367,0.204,0.782,0.312,1.2,0.312c0.789,0,1.509-0.393,1.971-1.017l2.76,1.595l-6.757,1.81c-0.267,0.071-0.425,0.346-0.354,0.612
		c0.06,0.224,0.262,0.371,0.482,0.371c0.043,0,0.086-0.006,0.13-0.018l7.723-2.068l1.946,1.124v4.853l-1.945,1.123l-7.723-2.067
		c-0.265-0.07-0.541,0.086-0.612,0.354c-0.071,0.268,0.087,0.541,0.354,0.611l6.757,1.811l-2.753,1.589
		c-0.717-0.948-2.12-1.288-3.178-0.698c-0.576,0.321-0.993,0.85-1.173,1.482c-0.18,0.633-0.103,1.301,0.218,1.876
		c0.436,0.782,1.263,1.269,2.159,1.269c0.418,0,0.833-0.107,1.2-0.312c0.576-0.32,0.993-0.848,1.173-1.482
		c0.115-0.405,0.113-0.821,0.022-1.223l2.831-1.635l-1.811,6.755c-0.071,0.267,0.087,0.541,0.354,0.612
		c0.043,0.012,0.087,0.017,0.13,0.017c0.221,0,0.422-0.147,0.482-0.371l2.069-7.721l1.946-1.124l4.203,2.428v2.247l-5.652,5.654
		c-0.195,0.194-0.195,0.512,0,0.707c0.195,0.194,0.512,0.194,0.707,0l4.945-4.947v3.202c-1.124,0.23-1.971,1.229-1.971,2.419
		c0,1.36,1.108,2.47,2.47,2.47s2.471-1.107,2.471-2.47c0-1.19-0.847-2.187-1.97-2.418v-3.203l4.945,4.947
		c0.099,0.098,0.227,0.146,0.354,0.146s0.257-0.049,0.354-0.146c0.195-0.195,0.195-0.513,0-0.707l-5.653-5.652v-2.247l4.203-2.426
		l1.945,1.124l2.068,7.722c0.061,0.223,0.263,0.37,0.482,0.37c0.043,0,0.086-0.005,0.13-0.017c0.268-0.071,0.425-0.348,0.354-0.612
		l-1.812-6.755l2.831,1.635c-0.092,0.399-0.094,0.816,0.021,1.223c0.18,0.636,0.597,1.162,1.173,1.482
		c0.367,0.204,0.782,0.312,1.2,0.312c0.896,0,1.724-0.485,2.158-1.269C33.047,25.4,33.125,24.734,32.946,24.1z M30.568,8.696
		c0.268,0,0.523,0.072,0.747,0.203c0.222,0.13,0.409,0.318,0.54,0.551c0.042,0.076,0.072,0.155,0.101,0.234
		c0.229,0.662-0.037,1.414-0.669,1.766c-0.219,0.122-0.465,0.187-0.713,0.187l0,0c-0.433,0-0.83-0.196-1.105-0.516
		c-0.064-0.074-0.13-0.15-0.181-0.239c-0.125-0.226-0.178-0.469-0.179-0.708c-0.002-0.519,0.264-1.021,0.747-1.291
		C30.073,8.76,30.32,8.696,30.568,8.696z M5.651,10.881c-0.049,0.088-0.108,0.169-0.174,0.242c-0.443,0.498-1.226,0.66-1.825,0.326
		c-0.632-0.353-0.899-1.104-0.669-1.766C3.01,9.604,3.042,9.525,3.084,9.45c0.13-0.231,0.318-0.421,0.54-0.551
		c0.223-0.131,0.479-0.203,0.747-0.203c0.248,0,0.495,0.064,0.713,0.187c0.483,0.27,0.749,0.773,0.747,1.292
		C5.828,10.412,5.776,10.656,5.651,10.881z M5.083,26.058c-0.219,0.122-0.466,0.187-0.714,0.187c-0.267,0-0.524-0.071-0.747-0.202
		c-0.222-0.13-0.41-0.318-0.539-0.552c-0.042-0.076-0.074-0.153-0.102-0.232c-0.099-0.283-0.112-0.588-0.028-0.885
		c0.107-0.377,0.355-0.688,0.698-0.881c0.219-0.123,0.465-0.188,0.714-0.188c0.432,0,0.829,0.196,1.105,0.516
		c0.065,0.074,0.13,0.15,0.18,0.239c0.123,0.22,0.179,0.462,0.18,0.708c0,0.137-0.012,0.273-0.05,0.41
		C5.673,25.554,5.425,25.867,5.083,26.058z M17.968,22.033l-0.5,0.289l-0.5-0.289l-3.202-1.849l-0.5-0.289v-0.577V15.62v-0.579
		l0.5-0.287l3.203-1.85l0.5-0.289l0.5,0.289l3.203,1.85l0.5,0.287v0.579v3.697v0.578l-0.5,0.289L17.968,22.033z M16.968,1.094
		C17.125,1.035,17.292,1,17.468,1s0.343,0.035,0.499,0.093c0.564,0.205,0.972,0.742,0.972,1.376s-0.407,1.171-0.972,1.376
		c-0.156,0.057-0.323,0.093-0.499,0.093c-0.177,0-0.344-0.036-0.501-0.094c-0.563-0.206-0.969-0.742-0.969-1.376
		S16.405,1.3,16.968,1.094z M17.968,33.846c-0.157,0.059-0.324,0.094-0.501,0.094c-0.176,0-0.343-0.035-0.499-0.093
		c-0.564-0.205-0.971-0.742-0.971-1.376s0.406-1.171,0.971-1.376c0.156-0.058,0.323-0.093,0.499-0.093
		c0.177,0,0.344,0.035,0.501,0.094c0.563,0.206,0.97,0.742,0.97,1.376S18.53,33.64,17.968,33.846z M31.298,26.031
		c-0.438,0.244-0.992,0.279-1.443,0.026c-0.343-0.19-0.591-0.504-0.698-0.882c-0.038-0.137-0.05-0.273-0.049-0.41
		c0.001-0.245,0.057-0.488,0.18-0.708c0.05-0.089,0.114-0.164,0.18-0.239c0.275-0.318,0.674-0.515,1.104-0.515
		c0.249,0,0.495,0.063,0.714,0.187c0.344,0.191,0.591,0.504,0.698,0.881c0.083,0.296,0.07,0.602-0.028,0.885
		c-0.027,0.08-0.06,0.158-0.103,0.232C31.722,25.724,31.526,25.904,31.298,26.031z"/>
</g>
<g>
</g>
<g>
</g>
<g>
</g>
<g>
</g>
<g>
</g>
<g>
</g>
<g>
</g>
<g>
</g>
<g>
</g>
<g>
</g>
<g>
</g>
<g>
</g>
<g>
</g>
<g>
</g>
<g>
</g>
</svg>
