<?xml version="1.0" encoding="iso-8859-1"?>
<!-- Generator: Adobe Illustrator 16.0.0, SVG Export Plug-In . SVG Version: 6.00 Build 0)  -->
<!DOCTYPE svg PUBLIC "-//W3C//DTD SVG 1.1//EN" "http://www.w3.org/Graphics/SVG/1.1/DTD/svg11.dtd">
<svg version="1.1" id="Capa_1" xmlns="http://www.w3.org/2000/svg" xmlns:xlink="http://www.w3.org/1999/xlink" x="0px" y="0px"
	 width="31.004px" height="31.003px" viewBox="0 0 31.004 31.003" style="enable-background:new 0 0 31.004 31.003;"
	 xml:space="preserve">
<g>
	<path d="M30.999,15.502c0-0.275-0.224-0.5-0.5-0.5h-1.248l1.603-1.602c0.193-0.195,0.193-0.513,0-0.707
		c-0.195-0.195-0.514-0.195-0.707,0l-2.311,2.309H27.35c-0.121-2.896-1.281-5.523-3.121-7.523l0.349-0.348l3.264-0.002
		c0.276,0,0.5-0.225,0.5-0.5s-0.224-0.5-0.5-0.5l0,0l-2.263,0.002l0.882-0.883c0.194-0.195,0.194-0.512,0-0.707
		c-0.194-0.195-0.513-0.195-0.707,0l-0.881,0.881V3.161c0-0.276-0.224-0.5-0.5-0.5c-0.274,0-0.5,0.224-0.5,0.5v3.262l-0.351,0.35
		c-2-1.838-4.625-2.998-7.521-3.119V3.167l2.308-2.31c0.193-0.194,0.193-0.512,0-0.707c-0.195-0.194-0.514-0.194-0.707,0
		l-1.601,1.603V0.503c0-0.275-0.224-0.5-0.5-0.5s-0.5,0.225-0.5,0.5v1.248l-1.602-1.602c-0.195-0.195-0.512-0.195-0.707,0
		c-0.195,0.194-0.195,0.512,0,0.707l2.309,2.309v0.488c-2.896,0.121-5.522,1.279-7.522,3.119L7.13,6.423L7.128,3.16
		c0-0.276-0.224-0.5-0.5-0.5l0,0c-0.276,0-0.5,0.225-0.5,0.5l0.001,2.263L5.247,4.541c-0.195-0.195-0.512-0.195-0.707,0
		c-0.195,0.194-0.195,0.512,0,0.707L5.423,6.13H3.157c-0.276,0-0.5,0.224-0.5,0.5c0,0.276,0.224,0.5,0.5,0.5h3.266l0.349,0.349
		c-1.84,2-2.999,4.627-3.12,7.522H3.163l-2.308-2.308c-0.195-0.194-0.512-0.194-0.707,0c-0.195,0.195-0.195,0.513,0,0.707
		l1.601,1.601H0.5c-0.276,0-0.5,0.224-0.5,0.5s0.224,0.5,0.5,0.5h1.248l-1.602,1.604c-0.195,0.193-0.195,0.512,0,0.707
		c0.098,0.098,0.226,0.146,0.354,0.146s0.256-0.049,0.354-0.146l2.309-2.311h0.488c0.122,2.896,1.28,5.521,3.119,7.521l-0.348,0.349
		l-3.264,0.002c-0.276,0-0.5,0.227-0.5,0.5c0,0.276,0.224,0.5,0.5,0.5l0,0l2.263-0.002l-0.882,0.883
		c-0.195,0.194-0.195,0.514,0,0.707c0.098,0.1,0.226,0.146,0.354,0.146s0.256-0.049,0.354-0.146l0.883-0.883v2.266
		c0,0.276,0.224,0.5,0.5,0.5s0.5-0.224,0.5-0.5v-3.266l0.348-0.349c2,1.842,4.627,3,7.523,3.121v0.487l-2.307,2.31
		c-0.195,0.194-0.195,0.513,0,0.707C12.792,30.954,12.92,31,13.048,31s0.256-0.049,0.354-0.146l1.6-1.603V30.5
		c0,0.275,0.224,0.5,0.5,0.5s0.5-0.225,0.5-0.5v-1.248l1.604,1.603c0.193,0.194,0.512,0.194,0.707,0
		c0.193-0.194,0.193-0.513,0-0.707l-2.312-2.308v-0.487c2.896-0.121,5.522-1.279,7.522-3.119l0.349,0.349l0.002,3.262
		c0,0.276,0.226,0.5,0.5,0.5l0,0c0.276,0,0.5-0.225,0.5-0.5l-0.001-2.261l0.88,0.88c0.099,0.1,0.228,0.146,0.354,0.146
		s0.256-0.049,0.354-0.146c0.195-0.193,0.195-0.512,0-0.707l-0.881-0.881l2.266-0.002c0.275,0,0.5-0.226,0.5-0.5
		c0-0.275-0.225-0.5-0.5-0.5l0,0l-3.265,0.002l-0.349-0.349c1.84-2,3-4.627,3.121-7.522h0.487l2.31,2.307
		c0.098,0.098,0.226,0.146,0.354,0.146s0.256-0.05,0.354-0.146c0.194-0.195,0.194-0.515,0-0.707l-1.604-1.601H30.5
		C30.775,16.002,30.999,15.777,30.999,15.502z M24.598,15.002l-4.703-1.32l2.393-4.262l0.236-0.236
		c1.406,1.562,2.297,3.586,2.414,5.818H24.598z M22.678,15.502l-1.781,0.5l-2.496,0.7l1.271,2.266l0.903,1.609l-1.614-0.906
		l-2.262-1.271l-0.7,2.494l-0.5,1.78l-0.5-1.78l-0.7-2.494l-2.267,1.271l-1.609,0.903l0.906-1.613l1.269-2.262L10.103,16
		L8.32,15.501l1.779-0.5l2.498-0.702l-1.27-2.262l-0.905-1.612l1.611,0.904l2.265,1.271l0.7-2.494l0.5-1.78l0.5,1.78l0.7,2.494
		l2.261-1.269l1.615-0.906l-0.902,1.606L18.4,14.299l2.498,0.703L22.678,15.502z M21.572,8.719l-4.254,2.389l-1.319-4.703v-0.34
		c2.231,0.117,4.255,1.006,5.817,2.412L21.572,8.719z M15,6.404l-1.319,4.701l-4.259-2.39l-0.24-0.239
		C10.743,7.072,12.768,6.182,15,6.064V6.404z M8.714,9.424l2.389,4.258l-4.701,1.32h-0.34c0.117-2.23,1.008-4.257,2.413-5.816
		L8.714,9.424z M6.404,16.002l4.7,1.318l-2.387,4.255l-0.244,0.243c-1.404-1.562-2.294-3.586-2.412-5.816H6.404z M9.417,22.291
		l4.264-2.396l1.319,4.7v0.345c-2.232-0.117-4.258-1.008-5.819-2.414L9.417,22.291z M16,24.599l1.318-4.701l4.26,2.393l0.238,0.238
		c-1.562,1.404-3.586,2.295-5.817,2.412L16,24.599L16,24.599z M22.284,21.58l-2.39-4.259l4.701-1.318h0.342
		c-0.117,2.23-1.008,4.257-2.414,5.816L22.284,21.58z M26.35,15.002h-0.912c-0.117-2.37-1.063-4.52-2.562-6.172l0.646-0.645
		C25.182,10.004,26.229,12.381,26.35,15.002z M22.814,7.479l-0.646,0.646c-1.65-1.495-3.801-2.44-6.169-2.56V4.653
		C18.619,4.773,20.996,5.818,22.814,7.479z M15,4.652v0.912c-2.37,0.117-4.519,1.063-6.171,2.56L8.184,7.479
		C10.001,5.818,12.378,4.773,15,4.652z M7.477,8.188l0.645,0.645c-1.496,1.65-2.441,3.802-2.56,6.171H4.65
		C4.771,12.381,5.817,10.005,7.477,8.188z M4.649,16.002h0.912c0.118,2.369,1.064,4.521,2.559,6.17l-0.645,0.646
		C5.816,21,4.771,18.623,4.649,16.002z M8.183,23.524l0.645-0.646C10.48,24.374,12.63,25.32,15,25.44v0.912
		C12.378,26.231,10.001,25.185,8.183,23.524z M16,26.353v-0.912c2.37-0.117,4.52-1.063,6.17-2.561l0.646,0.646
		C20.997,25.187,18.62,26.231,16,26.353z M23.521,22.817l-0.646-0.646c1.496-1.649,2.44-3.802,2.562-6.171h0.912
		C26.229,18.624,25.182,21,23.521,22.817z"/>
</g>
<g>
</g>
<g>
</g>
<g>
</g>
<g>
</g>
<g>
</g>
<g>
</g>
<g>
</g>
<g>
</g>
<g>
</g>
<g>
</g>
<g>
</g>
<g>
</g>
<g>
</g>
<g>
</g>
<g>
</g>
</svg>
