<?xml version="1.0" encoding="iso-8859-1"?>
<!-- Generator: Adobe Illustrator 16.0.0, SVG Export Plug-In . SVG Version: 6.00 Build 0)  -->
<!DOCTYPE svg PUBLIC "-//W3C//DTD SVG 1.1//EN" "http://www.w3.org/Graphics/SVG/1.1/DTD/svg11.dtd">
<svg version="1.1" id="Capa_1" xmlns="http://www.w3.org/2000/svg" xmlns:xlink="http://www.w3.org/1999/xlink" x="0px" y="0px"
	 width="32.294px" height="32.294px" viewBox="0 0 32.294 32.294" style="enable-background:new 0 0 32.294 32.294;"
	 xml:space="preserve">
<g>
	<path d="M7.315,21.978l3.006-0.002v0.525v0.004l-0.002,2.476c0,0.288-0.234,0.521-0.521,0.521s-0.521-0.232-0.521-0.521
		l0.001-1.248l-3.937,3.836c-0.101,0.1-0.232,0.148-0.364,0.148c-0.135,0-0.271-0.053-0.373-0.156
		c-0.2-0.207-0.196-0.537,0.011-0.736l3.904-3.805H7.318c-0.287,0-0.521-0.233-0.521-0.521C6.794,22.21,7.026,21.978,7.315,21.978z
		 M8.565,9.276H7.313c-0.287,0-0.521,0.233-0.521,0.521s0.234,0.521,0.521,0.521l3.006-0.001V7.312c0-0.288-0.234-0.521-0.521-0.521
		S9.277,7.025,9.277,7.312v1.201L5.34,4.723C5.135,4.525,4.804,4.53,4.604,4.737C4.404,4.945,4.41,5.275,4.618,5.474L8.565,9.276z
		 M25.503,9.795c0-0.287-0.235-0.521-0.521-0.521h-1.253l3.949-3.801c0.207-0.199,0.214-0.529,0.015-0.736
		c-0.2-0.207-0.53-0.212-0.737-0.014l-3.937,3.79V7.312c0-0.288-0.233-0.521-0.521-0.521s-0.521,0.233-0.521,0.521v3.006
		l3.006-0.001C25.27,10.316,25.503,10.083,25.503,9.795z M20.988,15.626c0.02,0.174,0.053,0.343,0.053,0.521
		c0,0.178-0.033,0.347-0.053,0.521c-0.245,2.276-2.043,4.073-4.319,4.319c-0.173,0.019-0.343,0.054-0.521,0.054
		c-0.178,0-0.348-0.035-0.521-0.054c-2.277-0.244-4.073-2.043-4.319-4.319c-0.02-0.174-0.053-0.343-0.053-0.521
		c0-0.178,0.033-0.347,0.053-0.521c0.245-2.277,2.042-4.073,4.319-4.319c0.173-0.019,0.343-0.053,0.521-0.053
		c0.178,0,0.348,0.035,0.521,0.053C18.946,11.553,20.742,13.349,20.988,15.626z M19.998,16.147c0-0.178-0.029-0.349-0.054-0.521
		c-0.233-1.703-1.574-3.042-3.277-3.277c-0.172-0.024-0.343-0.054-0.521-0.054c-0.178,0-0.349,0.03-0.521,0.054
		c-1.704,0.233-3.044,1.573-3.277,3.277c-0.023,0.172-0.054,0.343-0.054,0.521c0,0.178,0.029,0.349,0.054,0.521
		c0.233,1.702,1.574,3.042,3.277,3.277c0.172,0.023,0.343,0.054,0.521,0.054c0.178,0,0.349-0.029,0.521-0.054
		c1.703-0.234,3.044-1.574,3.277-3.277C19.969,16.496,19.998,16.325,19.998,16.147z M31.773,16.668h-1.299l1.668,1.664
		c0.202,0.203,0.202,0.533,0,0.738c-0.103,0.102-0.236,0.151-0.369,0.151c-0.134,0-0.267-0.052-0.368-0.151L29,16.668h-0.31
		c-0.094,0.5-0.334,0.965-0.705,1.334c-0.485,0.485-1.132,0.753-1.819,0.753c-0.687,0-1.333-0.268-1.818-0.753
		c-0.368-0.369-0.61-0.832-0.706-1.334h-0.293c-0.257,3.568-3.111,6.423-6.68,6.679v0.361c0.482,0.095,0.938,0.318,1.295,0.676
		c0.486,0.485,0.754,1.131,0.754,1.817c-0.001,0.688-0.269,1.335-0.754,1.819c-0.359,0.36-0.807,0.598-1.295,0.697v0.281
		l2.404,2.404c0.202,0.204,0.202,0.535,0,0.736c-0.104,0.104-0.236,0.153-0.37,0.153c-0.133,0-0.267-0.051-0.368-0.153l-1.667-1.667
		v1.299c0,0.287-0.233,0.521-0.521,0.521c-0.287,0-0.521-0.234-0.521-0.521v-1.299l-1.667,1.667c-0.203,0.204-0.534,0.204-0.736,0
		c-0.203-0.201-0.203-0.532,0-0.736l2.403-2.404v-0.277c-0.491-0.102-0.939-0.34-1.301-0.701c-1.003-1.003-1.003-2.634,0-3.637
		c0.36-0.359,0.818-0.585,1.301-0.677v-0.36c-3.569-0.256-6.423-3.11-6.679-6.679H8.651c-0.096,0.5-0.335,0.963-0.706,1.333
		c-0.485,0.485-1.131,0.753-1.819,0.753c-0.686,0-1.332-0.268-1.818-0.753c-0.369-0.369-0.609-0.833-0.706-1.332H3.293l-2.404,2.405
		c-0.102,0.103-0.235,0.151-0.369,0.151s-0.267-0.051-0.369-0.151c-0.202-0.202-0.202-0.534,0-0.736l1.668-1.669H0.523
		c-0.288,0-0.521-0.234-0.521-0.521c0-0.288,0.233-0.521,0.521-0.521h1.298l-1.667-1.666c-0.203-0.203-0.203-0.533,0-0.737
		c0.202-0.203,0.534-0.203,0.736,0l2.404,2.401h0.325c0.106-0.475,0.337-0.912,0.689-1.264c0.973-0.97,2.666-0.972,3.638,0
		c0.351,0.352,0.585,0.789,0.688,1.264h0.313c0.256-3.568,3.11-6.423,6.679-6.679V8.681c-0.491-0.1-0.939-0.34-1.301-0.7
		c-1.003-1.003-1.003-2.636,0-3.639c0.36-0.359,0.818-0.583,1.301-0.677v-0.37l-2.405-2.405c-0.203-0.203-0.203-0.534,0-0.736
		c0.202-0.203,0.534-0.203,0.736,0l1.669,1.667v-1.3c0-0.288,0.233-0.521,0.521-0.521c0.287,0,0.521,0.233,0.521,0.521v1.299
		l1.665-1.667c0.203-0.204,0.534-0.203,0.736-0.001c0.203,0.203,0.203,0.533,0,0.736l-2.401,2.405v0.372
		c0.482,0.094,0.938,0.318,1.295,0.675c0.486,0.485,0.754,1.131,0.754,1.82c-0.001,0.688-0.269,1.333-0.754,1.819
		c-0.359,0.359-0.807,0.598-1.295,0.698v0.268c3.568,0.256,6.423,3.111,6.68,6.679h0.31c0.105-0.474,0.337-0.912,0.689-1.263
		c0.972-0.97,2.665-0.972,3.638,0c0.351,0.351,0.584,0.788,0.688,1.262h0.324l2.407-2.405c0.201-0.203,0.533-0.203,0.735,0
		c0.202,0.203,0.202,0.533,0,0.736l-1.667,1.671h1.3c0.288,0,0.521,0.233,0.521,0.521C32.294,16.434,32.062,16.668,31.773,16.668z
		 M7.659,16.182c0-0.194-0.038-0.381-0.107-0.556c-0.076-0.195-0.189-0.375-0.342-0.527c-0.288-0.289-0.673-0.448-1.082-0.448
		c-0.41,0-0.793,0.159-1.083,0.448c-0.152,0.152-0.266,0.332-0.341,0.527c-0.067,0.175-0.107,0.363-0.107,0.556
		c0,0.168,0.033,0.331,0.085,0.486c0.074,0.221,0.194,0.426,0.363,0.596c0.579,0.578,1.587,0.578,2.165,0
		c0.17-0.17,0.289-0.375,0.364-0.596C7.624,16.513,7.659,16.35,7.659,16.182z M15.627,7.58c0.335,0.116,0.707,0.116,1.042-0.001
		c0.207-0.071,0.399-0.177,0.559-0.335c0.289-0.289,0.448-0.673,0.448-1.082c0-0.41-0.157-0.794-0.448-1.083
		c-0.16-0.161-0.352-0.276-0.559-0.351c-0.166-0.061-0.342-0.097-0.524-0.097c-0.18,0-0.353,0.036-0.518,0.095
		c-0.209,0.075-0.403,0.191-0.564,0.353c-0.597,0.597-0.597,1.567,0,2.166C15.223,7.404,15.419,7.509,15.627,7.58z M16.669,24.767
		c-0.166-0.06-0.342-0.096-0.524-0.096c-0.18,0-0.353,0.036-0.518,0.094c-0.209,0.075-0.403,0.193-0.564,0.355
		c-0.597,0.595-0.597,1.567,0,2.164c0.16,0.16,0.356,0.267,0.564,0.337c0.335,0.115,0.707,0.115,1.042-0.002
		c0.207-0.071,0.399-0.177,0.559-0.335c0.289-0.287,0.448-0.673,0.448-1.083c0-0.409-0.157-0.793-0.448-1.081
		C17.067,24.959,16.876,24.845,16.669,24.767z M22.333,16.147c0-0.176-0.013-0.349-0.025-0.521
		c-0.251-2.995-2.643-5.386-5.638-5.638c-0.172-0.014-0.345-0.026-0.521-0.026c-0.176,0-0.349,0.013-0.521,0.026
		c-2.995,0.251-5.386,2.643-5.638,5.638c-0.014,0.172-0.025,0.345-0.025,0.521c0,0.176,0.013,0.349,0.025,0.521
		c0.251,2.994,2.643,5.386,5.638,5.638c0.172,0.014,0.345,0.024,0.521,0.024c0.176,0,0.349-0.013,0.521-0.024
		c2.995-0.252,5.387-2.644,5.638-5.638C22.321,16.496,22.333,16.323,22.333,16.147z M27.697,16.184c0-0.194-0.039-0.382-0.107-0.558
		c-0.076-0.195-0.191-0.373-0.342-0.525c-0.288-0.289-0.672-0.448-1.082-0.448s-0.793,0.159-1.082,0.448
		c-0.151,0.152-0.266,0.331-0.342,0.525c-0.067,0.175-0.107,0.364-0.107,0.558c0,0.169,0.033,0.33,0.085,0.484
		c0.073,0.222,0.194,0.427,0.364,0.598c0.577,0.578,1.586,0.578,2.164,0c0.17-0.171,0.288-0.376,0.363-0.598
		C27.664,16.514,27.697,16.351,27.697,16.184z M23.777,23.018h1.207c0.285,0,0.521-0.233,0.521-0.521
		c0-0.286-0.235-0.521-0.521-0.521l-3.009,0.002v0.527v2.476c0,0.287,0.234,0.521,0.521,0.521s0.521-0.233,0.521-0.521v-1.248
		l3.937,3.836c0.103,0.1,0.233,0.148,0.364,0.148c0.136,0,0.271-0.053,0.373-0.156c0.2-0.207,0.196-0.537-0.011-0.736L23.777,23.018
		z"/>
</g>
<g>
</g>
<g>
</g>
<g>
</g>
<g>
</g>
<g>
</g>
<g>
</g>
<g>
</g>
<g>
</g>
<g>
</g>
<g>
</g>
<g>
</g>
<g>
</g>
<g>
</g>
<g>
</g>
<g>
</g>
</svg>
