<?xml version="1.0" encoding="iso-8859-1"?>
<!-- Generator: Adobe Illustrator 16.0.0, SVG Export Plug-In . SVG Version: 6.00 Build 0)  -->
<!DOCTYPE svg PUBLIC "-//W3C//DTD SVG 1.1//EN" "http://www.w3.org/Graphics/SVG/1.1/DTD/svg11.dtd">
<svg version="1.1" id="Capa_1" xmlns="http://www.w3.org/2000/svg" xmlns:xlink="http://www.w3.org/1999/xlink" x="0px" y="0px"
	 width="36.284px" height="36.284px" viewBox="0 0 36.284 36.284" style="enable-background:new 0 0 36.284 36.284;"
	 xml:space="preserve">
<g>
	<path d="M33.579,26.189l-0.854-0.492v-2.322c0-0.27-0.145-0.518-0.375-0.648l-2.386-1.377c-0.231-0.137-0.519-0.137-0.75,0
		l-2.012,1.16l-0.964-0.557l5.146-1.377c0.398-0.107,0.638-0.52,0.529-0.92c-0.105-0.398-0.521-0.637-0.918-0.529l-5.915,1.584
		c0.297-0.803,0.47-1.664,0.47-2.567c0-0.905-0.173-1.769-0.471-2.571l5.916,1.586c0.065,0.019,0.13,0.025,0.195,0.025
		c0.331,0,0.634-0.221,0.724-0.557c0.107-0.399-0.13-0.812-0.528-0.918l-5.143-1.379l0.959-0.553l2.011,1.159
		c0.115,0.067,0.245,0.101,0.375,0.101s0.26-0.033,0.375-0.101l2.388-1.377c0.23-0.134,0.375-0.382,0.375-0.649l-0.001-2.319
		l0.856-0.495c0.359-0.207,0.481-0.666,0.274-1.023c-0.207-0.359-0.667-0.481-1.024-0.275l-0.856,0.496l-2.01-1.161
		c-0.231-0.136-0.52-0.136-0.75,0l-2.387,1.376c-0.23,0.134-0.375,0.382-0.375,0.648v2.323l-0.961,0.556l1.378-5.146
		c0.107-0.399-0.13-0.812-0.529-0.919c-0.397-0.104-0.812,0.131-0.919,0.529l-1.582,5.914c-1.107-1.332-2.674-2.264-4.45-2.565
		l4.33-4.329c0.293-0.293,0.293-0.768,0-1.061s-0.77-0.293-1.062,0l-3.765,3.764V8.111l2.009-1.157
		c0.232-0.134,0.375-0.381,0.375-0.648V3.55c0-0.268-0.143-0.516-0.375-0.649l-2.01-1.161V0.75c0-0.414-0.336-0.75-0.75-0.75
		s-0.75,0.336-0.75,0.75v0.99l-2.01,1.161c-0.232,0.134-0.375,0.382-0.375,0.649v2.756c0,0.27,0.143,0.516,0.375,0.648l2.009,1.157
		v1.112l-3.765-3.764c-0.293-0.293-0.768-0.293-1.061,0s-0.293,0.768,0,1.061l4.33,4.329c-1.778,0.303-3.343,1.233-4.45,2.565
		L10.862,7.5c-0.107-0.398-0.52-0.635-0.918-0.529c-0.4,0.107-0.638,0.52-0.531,0.919l1.378,5.146l-0.963-0.558v-2.321
		c0-0.268-0.143-0.516-0.375-0.648L7.07,8.133c-0.232-0.136-0.519-0.136-0.75,0L4.31,9.294L3.452,8.798
		C3.094,8.592,2.635,8.714,2.428,9.073C2.221,9.43,2.344,9.889,2.702,10.096l0.858,0.495L3.559,12.91
		c0,0.269,0.143,0.517,0.375,0.649l2.385,1.377c0.116,0.067,0.246,0.101,0.375,0.101c0.129,0,0.259-0.033,0.375-0.101l2.01-1.16
		l0.961,0.554l-5.141,1.379c-0.4,0.106-0.637,0.519-0.53,0.918c0.09,0.336,0.393,0.557,0.724,0.557c0.064,0,0.129-0.008,0.195-0.025
		l5.916-1.586c-0.298,0.803-0.469,1.666-0.469,2.571c0,0.903,0.17,1.767,0.468,2.567l-5.915-1.584
		c-0.396-0.105-0.811,0.131-0.918,0.529c-0.107,0.4,0.13,0.812,0.531,0.92l5.145,1.377L9.082,22.51L7.07,21.35
		c-0.231-0.135-0.517-0.135-0.75,0l-2.383,1.377c-0.232,0.133-0.375,0.381-0.375,0.646l-0.001,2.324l-0.856,0.492
		c-0.359,0.207-0.481,0.666-0.274,1.025c0.139,0.239,0.391,0.375,0.65,0.375c0.127,0,0.256-0.033,0.375-0.104l0.858-0.493
		l2.009,1.159c0.116,0.068,0.246,0.103,0.375,0.103c0.13,0,0.259-0.032,0.375-0.103l2.385-1.379
		c0.232-0.135,0.375-0.383,0.375-0.649v-2.317l0.961-0.556l-1.375,5.142c-0.107,0.399,0.131,0.812,0.531,0.918
		c0.065,0.02,0.13,0.024,0.194,0.024c0.331,0,0.634-0.221,0.724-0.558l1.581-5.907c1.107,1.332,2.672,2.263,4.449,2.565
		l-4.328,4.328c-0.293,0.293-0.293,0.769,0,1.062c0.293,0.293,0.768,0.293,1.061,0l3.765-3.767v1.115l-2.009,1.156
		c-0.232,0.135-0.375,0.381-0.375,0.648v2.756c0,0.268,0.143,0.516,0.375,0.648l2.01,1.161v0.99c0,0.414,0.336,0.75,0.75,0.75
		s0.75-0.336,0.75-0.75v-0.99l2.01-1.161c0.232-0.134,0.375-0.382,0.375-0.648v-2.752c0-0.271-0.143-0.516-0.375-0.648l-2.009-1.156
		v-1.115l3.765,3.766c0.146,0.146,0.338,0.221,0.53,0.221s0.384-0.072,0.53-0.221c0.293-0.293,0.293-0.768,0-1.061l-4.329-4.33
		c1.777-0.303,3.343-1.232,4.45-2.564l1.581,5.908c0.09,0.336,0.393,0.557,0.724,0.557c0.063,0,0.129-0.008,0.194-0.023
		c0.398-0.106,0.638-0.52,0.529-0.918l-1.375-5.143l0.962,0.557v2.316c0,0.27,0.145,0.516,0.375,0.648l2.387,1.381
		c0.114,0.066,0.246,0.102,0.375,0.102s0.259-0.033,0.375-0.102l2.007-1.16l0.856,0.494c0.118,0.068,0.247,0.102,0.375,0.102
		c0.261,0,0.513-0.135,0.65-0.375C34.061,26.855,33.938,26.396,33.579,26.189z M27.952,10.587l1.634-0.942l0.888,0.513l0.75,0.433
		v0.866v1.021l-1.638,0.942l-0.884-0.51l-0.75-0.434v-0.863V10.587z M8.327,12.477l-0.75,0.433l-0.885,0.512l-1.634-0.943v-1.021
		v-0.865l0.75-0.434l0.886-0.512l1.633,0.941v1.023V12.477z M8.328,25.693l-1.635,0.945l-0.885-0.513l-0.751-0.435v-0.862v-1.022
		l1.634-0.941l0.886,0.51l0.75,0.434v0.867L8.328,25.693L8.328,25.693z M18.89,23.997c-0.246,0.03-0.495,0.054-0.75,0.054
		s-0.504-0.021-0.75-0.054c-1.604-0.205-3.006-1.056-3.943-2.28c-0.303-0.396-0.561-0.828-0.757-1.296
		c-0.295-0.7-0.458-1.472-0.458-2.279s0.164-1.578,0.458-2.279c0.196-0.467,0.454-0.898,0.757-1.296
		c0.937-1.227,2.339-2.075,3.943-2.28c0.246-0.03,0.495-0.053,0.75-0.053s0.504,0.021,0.75,0.053
		c1.604,0.205,3.006,1.055,3.941,2.28c0.305,0.396,0.562,0.829,0.759,1.296c0.295,0.701,0.457,1.473,0.457,2.279
		s-0.163,1.579-0.457,2.279c-0.196,0.468-0.454,0.897-0.759,1.296C21.896,22.943,20.494,23.792,18.89,23.997z M16.505,3.979
		l0.885-0.511l0.75-0.434l0.75,0.434l0.885,0.511v1.89l-0.885,0.51l-0.75,0.434l-0.75-0.434l-0.885-0.51V3.979z M19.775,32.305
		l-0.885,0.512l-0.75,0.434l-0.75-0.434l-0.885-0.512v-1.89l0.885-0.51l0.75-0.435l0.75,0.435l0.885,0.51V32.305z M29.587,26.639
		l-1.636-0.945v-1.02v-0.867l0.749-0.433l0.887-0.512l1.636,0.942v1.021v0.863l-0.751,0.436L29.587,26.639z"/>
</g>
<g>
</g>
<g>
</g>
<g>
</g>
<g>
</g>
<g>
</g>
<g>
</g>
<g>
</g>
<g>
</g>
<g>
</g>
<g>
</g>
<g>
</g>
<g>
</g>
<g>
</g>
<g>
</g>
<g>
</g>
</svg>
