<?xml version="1.0" encoding="iso-8859-1"?>
<!-- Generator: Adobe Illustrator 16.0.0, SVG Export Plug-In . SVG Version: 6.00 Build 0)  -->
<!DOCTYPE svg PUBLIC "-//W3C//DTD SVG 1.1//EN" "http://www.w3.org/Graphics/SVG/1.1/DTD/svg11.dtd">
<svg version="1.1" id="Capa_1" xmlns="http://www.w3.org/2000/svg" xmlns:xlink="http://www.w3.org/1999/xlink" x="0px" y="0px"
	 width="37.803px" height="37.804px" viewBox="0 0 37.803 37.804" style="enable-background:new 0 0 37.803 37.804;"
	 xml:space="preserve">
<g>
	<path d="M37.021,18.12H34.1l0.914-1.584c0.215-0.373,0.087-0.85-0.286-1.065c-0.374-0.217-0.852-0.087-1.067,0.284l-1.203,2.092
		l-0.76-1.316c-0.141-0.241-0.398-0.391-0.678-0.391h-2.284c-0.279,0-0.538,0.15-0.674,0.391l-0.92,1.59h-1.243
		c-0.222-1.998-1.284-3.74-2.824-4.879l0.626-1.082h1.836c0.28,0,0.538-0.15,0.676-0.391l1.144-1.981
		c0.141-0.241,0.141-0.542,0-0.781l-0.759-1.313l2.413,0.001l0,0c0.431,0,0.781-0.351,0.781-0.781c0-0.432-0.349-0.781-0.781-0.781
		L27.18,6.13L28.64,3.6c0.216-0.373,0.088-0.851-0.283-1.066c-0.372-0.216-0.853-0.087-1.068,0.285l-1.46,2.529l-0.914-1.584
		c-0.216-0.372-0.695-0.502-1.066-0.285c-0.373,0.216-0.5,0.694-0.285,1.066l1.207,2.092h-1.52c-0.28,0-0.537,0.15-0.676,0.391
		l-1.146,1.979c-0.139,0.24-0.139,0.54,0,0.781l0.921,1.591l-0.624,1.078c-0.864-0.38-1.816-0.594-2.819-0.594
		c-1.003,0-1.956,0.214-2.82,0.594l-0.624-1.081l0.919-1.586c0.14-0.241,0.14-0.542,0-0.782l-1.146-1.98
		c-0.14-0.242-0.397-0.391-0.676-0.391l-1.514-0.002l1.205-2.09c0.216-0.374,0.086-0.852-0.287-1.066
		c-0.374-0.217-0.851-0.087-1.067,0.285L11.984,5.35l-1.461-2.534c-0.216-0.372-0.695-0.5-1.067-0.284
		C9.083,2.748,8.955,3.226,9.171,3.598l1.46,2.531H8.798c-0.431,0-0.781,0.35-0.781,0.781s0.351,0.781,0.781,0.781h2.41
		l-0.759,1.314c-0.14,0.242-0.139,0.542,0,0.781l1.145,1.981c0.14,0.24,0.397,0.391,0.676,0.391l0,0l1.834-0.002l0.627,1.084
		c-1.54,1.139-2.603,2.881-2.825,4.879h-1.245l-0.917-1.588c-0.14-0.242-0.397-0.391-0.676-0.391H6.782
		c-0.279,0-0.538,0.15-0.677,0.391l-0.759,1.314l-1.207-2.092c-0.217-0.372-0.695-0.501-1.067-0.284
		c-0.373,0.216-0.501,0.694-0.286,1.065l0.915,1.584h-2.92C0.35,18.12,0,18.471,0,18.901c0,0.432,0.35,0.781,0.781,0.781h2.921
		l-0.915,1.584c-0.215,0.374-0.087,0.851,0.286,1.066c0.123,0.071,0.257,0.105,0.391,0.105c0.27,0,0.532-0.141,0.677-0.391
		l1.206-2.091l0.756,1.312c0.14,0.242,0.397,0.393,0.676,0.393h2.287l0,0c0.279,0,0.538-0.148,0.676-0.391l0.917-1.588h1.245
		c0.222,1.998,1.285,3.741,2.825,4.88l-0.626,1.083l-1.838,0.002c-0.279,0-0.536,0.149-0.676,0.391l-1.144,1.978
		c-0.139,0.24-0.139,0.541,0,0.781l0.76,1.316H8.793c-0.431,0-0.781,0.35-0.781,0.781c0,0.43,0.35,0.781,0.781,0.781h1.829
		l-1.46,2.528c-0.215,0.373-0.087,0.851,0.286,1.066c0.123,0.071,0.257,0.105,0.391,0.105c0.27,0,0.532-0.141,0.677-0.391
		l1.461-2.531l0.916,1.584c0.145,0.25,0.407,0.391,0.677,0.391c0.132,0,0.268-0.033,0.391-0.106
		c0.373-0.216,0.501-0.693,0.286-1.065l-1.207-2.09h1.516l0,0c0.279,0,0.537-0.149,0.677-0.391l1.142-1.981
		c0.14-0.24,0.139-0.542,0-0.78l-0.916-1.586l0.623-1.08c0.865,0.379,1.817,0.593,2.82,0.593c1.004,0,1.956-0.214,2.82-0.593
		l0.624,1.08l-0.921,1.585c-0.141,0.239-0.141,0.541,0,0.782l1.146,1.98c0.14,0.241,0.396,0.391,0.674,0.391l1.519,0.002
		l-1.203,2.088c-0.215,0.374-0.087,0.85,0.285,1.065c0.122,0.071,0.256,0.106,0.391,0.106c0.269,0,0.531-0.141,0.677-0.391
		l0.913-1.584l1.462,2.531c0.145,0.25,0.407,0.391,0.678,0.391c0.132,0,0.267-0.032,0.391-0.105
		c0.372-0.216,0.499-0.693,0.283-1.066l-1.462-2.533h1.832c0.431,0,0.781-0.35,0.781-0.781c0-0.429-0.351-0.781-0.781-0.781h-2.412
		l0.757-1.312c0.139-0.239,0.139-0.54,0-0.78l-1.144-1.979c-0.14-0.242-0.397-0.391-0.677-0.391l0,0L23.7,25.647l-0.627-1.087
		c1.539-1.138,2.603-2.881,2.824-4.879h1.245l0.916,1.585c0.14,0.241,0.396,0.391,0.675,0.391l2.289,0.002l0,0
		c0.278,0,0.537-0.149,0.676-0.391l0.759-1.314l1.206,2.092c0.146,0.25,0.409,0.391,0.678,0.391c0.132,0,0.267-0.032,0.391-0.104
		c0.374-0.216,0.501-0.693,0.286-1.067L34.1,19.681h2.922c0.431,0,0.781-0.349,0.781-0.781C37.803,18.468,37.452,18.12,37.021,18.12
		z M23.003,9.396l0.692-1.198h0.484h0.901l0.451,0.781l0.24,0.417l-0.692,1.2h-0.481h-0.903l-0.452-0.781L23.003,9.396z
		 M12.72,10.598l-0.694-1.2l0.242-0.418l0.451-0.781L13.622,8.2h0.481l0.695,1.199l-0.242,0.416l-0.452,0.781h-0.9L12.72,10.598z
		 M14.796,28.405l-0.692,1.199h-0.481h-0.904l-0.449-0.779l-0.243-0.419l0.693-1.196h0.483l0.901-0.002l0.452,0.783L14.796,28.405z
		 M25.081,27.208l0.692,1.199l-0.24,0.416l-0.451,0.783l-0.902-0.002h-0.483l-0.693-1.198l0.241-0.417l0.451-0.779h0.902
		L25.081,27.208z M31.259,18.9l-0.451,0.782l-0.237,0.416l-1.388-0.002l-0.239-0.414l-0.453-0.781l0.451-0.779l0.241-0.419h1.385
		l0.24,0.419L31.259,18.9z M24.377,18.901c0,0.268-0.041,0.523-0.078,0.781c-0.206,1.418-0.949,2.651-2.024,3.499
		c-0.409,0.324-0.854,0.598-1.344,0.797c-0.631,0.253-1.312,0.4-2.03,0.4s-1.4-0.147-2.029-0.4c-0.49-0.195-0.936-0.473-1.345-0.797
		c-1.075-0.848-1.818-2.081-2.024-3.499c-0.038-0.257-0.079-0.514-0.079-0.781s0.042-0.523,0.079-0.781
		c0.206-1.417,0.949-2.65,2.024-3.499c0.409-0.324,0.854-0.598,1.345-0.797c0.629-0.252,1.312-0.4,2.029-0.4s1.399,0.147,2.03,0.4
		c0.49,0.196,0.935,0.473,1.344,0.797c1.075,0.848,1.818,2.082,2.024,3.499C24.336,18.379,24.377,18.636,24.377,18.901z
		 M9.308,18.901l-0.451,0.781l-0.242,0.416H7.231L6.99,19.683l-0.451-0.781L6.99,18.12l0.241-0.416h1.383l0.242,0.416L9.308,18.901z
		"/>
</g>
<g>
</g>
<g>
</g>
<g>
</g>
<g>
</g>
<g>
</g>
<g>
</g>
<g>
</g>
<g>
</g>
<g>
</g>
<g>
</g>
<g>
</g>
<g>
</g>
<g>
</g>
<g>
</g>
<g>
</g>
</svg>
