<?xml version="1.0" encoding="iso-8859-1"?>
<!-- Generator: Adobe Illustrator 16.0.0, SVG Export Plug-In . SVG Version: 6.00 Build 0)  -->
<!DOCTYPE svg PUBLIC "-//W3C//DTD SVG 1.1//EN" "http://www.w3.org/Graphics/SVG/1.1/DTD/svg11.dtd">
<svg version="1.1" id="Capa_1" xmlns="http://www.w3.org/2000/svg" xmlns:xlink="http://www.w3.org/1999/xlink" x="0px" y="0px"
	 width="35.798px" height="35.798px" viewBox="0 0 35.798 35.798" style="enable-background:new 0 0 35.798 35.798;"
	 xml:space="preserve">
<g>
	<path d="M35.285,17.398h-3.521l1.061-1.838c0.138-0.239,0.056-0.545-0.184-0.685c-0.242-0.138-0.545-0.056-0.684,0.185
		l-1.348,2.338h-2.681l2.729-4.729c0.138-0.238,0.056-0.545-0.184-0.683c-0.238-0.142-0.545-0.058-0.684,0.183l-3.02,5.229h-4.148
		l2.777-3.796l-4.752,0.518l2.115-3.664h6.04c0.275,0,0.5-0.225,0.5-0.5c0-0.277-0.225-0.5-0.5-0.5h-5.463l1.341-2.318h2.7
		c0.274,0,0.5-0.225,0.5-0.5c0-0.276-0.226-0.5-0.5-0.5h-2.125l1.765-3.053c0.138-0.24,0.056-0.545-0.185-0.684
		C26.6,2.26,26.292,2.344,26.154,2.585l-1.764,3.051L23.33,3.798c-0.139-0.239-0.445-0.323-0.684-0.184
		c-0.238,0.139-0.32,0.443-0.183,0.684l1.351,2.338l-1.338,2.318l-2.73-4.728c-0.139-0.239-0.445-0.323-0.684-0.183
		c-0.239,0.138-0.32,0.442-0.184,0.683l3.02,5.228l-2.102,3.639l-1.908-4.325l-1.909,4.325l-2.1-3.637l3.019-5.229
		c0.138-0.239,0.056-0.545-0.183-0.683c-0.24-0.142-0.544-0.058-0.683,0.183l-2.73,4.729l-1.339-2.318l1.351-2.34
		c0.138-0.239,0.056-0.545-0.183-0.684c-0.239-0.141-0.545-0.057-0.683,0.184l-1.062,1.84L9.628,2.585
		c-0.139-0.24-0.445-0.322-0.683-0.184C8.706,2.541,8.624,2.844,8.762,3.085l1.761,3.051H8.401c-0.276,0-0.5,0.224-0.5,0.5
		c0,0.275,0.224,0.5,0.5,0.5H11.1l1.34,2.32H6.98c-0.276,0-0.5,0.223-0.5,0.5c0,0.275,0.224,0.5,0.5,0.5h6.038l2.116,3.666
		l-4.752-0.518l2.776,3.794H9.01L5.989,12.17c-0.138-0.239-0.445-0.322-0.683-0.184c-0.239,0.139-0.321,0.443-0.183,0.684
		l2.732,4.728H5.174l-1.349-2.338c-0.139-0.239-0.445-0.322-0.683-0.183c-0.239,0.138-0.321,0.442-0.183,0.683l1.061,1.838H0.5
		c-0.276,0-0.5,0.224-0.5,0.5s0.224,0.5,0.5,0.5h3.524l-1.062,1.841c-0.138,0.239-0.056,0.545,0.183,0.685
		c0.079,0.045,0.165,0.065,0.25,0.065c0.173,0,0.341-0.09,0.434-0.25l1.35-2.341h2.68l-2.733,4.729
		c-0.138,0.238-0.056,0.545,0.183,0.684c0.079,0.046,0.165,0.066,0.25,0.066c0.173,0,0.341-0.09,0.434-0.25l3.022-5.229h4.21
		l-2.84,3.88l4.701-0.511l-2.065,3.575H6.985c-0.276,0-0.5,0.225-0.5,0.5c0,0.277,0.224,0.5,0.5,0.5h5.458l-1.338,2.318H8.404
		c-0.276,0-0.5,0.225-0.5,0.5s0.224,0.5,0.5,0.5h2.123l-1.761,3.051c-0.138,0.238-0.056,0.545,0.183,0.684
		c0.079,0.046,0.165,0.066,0.25,0.066c0.173,0,0.341-0.09,0.434-0.25l1.762-3.053l1.062,1.842c0.093,0.16,0.261,0.25,0.434,0.25
		c0.085,0,0.171-0.021,0.25-0.066c0.239-0.139,0.321-0.443,0.183-0.684l-1.352-2.342l1.339-2.318l2.731,4.729
		c0.093,0.16,0.261,0.25,0.434,0.25c0.085,0,0.171-0.021,0.25-0.065c0.239-0.14,0.321-0.443,0.183-0.685l-3.02-5.229l2.08-3.603
		l1.929,4.376l1.93-4.374l2.08,3.604l-3.021,5.229c-0.138,0.239-0.056,0.545,0.184,0.685c0.08,0.045,0.166,0.065,0.25,0.065
		c0.174,0,0.342-0.09,0.435-0.25l2.731-4.729l1.338,2.318l-1.35,2.338c-0.138,0.238-0.056,0.545,0.184,0.684
		c0.08,0.046,0.166,0.066,0.25,0.066c0.174,0,0.342-0.091,0.435-0.25l1.062-1.838l1.763,3.053c0.093,0.16,0.261,0.25,0.435,0.25
		c0.084,0,0.17-0.021,0.25-0.066c0.238-0.139,0.32-0.442,0.184-0.684l-1.764-3.053h2.123c0.276,0,0.5-0.225,0.5-0.5
		s-0.224-0.5-0.5-0.5h-2.699l-1.342-2.32l5.463,0.002c0.275,0,0.5-0.223,0.5-0.5c0-0.275-0.225-0.5-0.5-0.5l-6.039-0.002
		l-2.064-3.575l4.701,0.511l-2.84-3.878h4.211l3.02,5.231c0.094,0.16,0.262,0.25,0.434,0.25c0.086,0,0.173-0.021,0.25-0.067
		c0.24-0.138,0.322-0.441,0.185-0.683l-2.735-4.732h2.682l1.351,2.34c0.093,0.16,0.261,0.25,0.435,0.25
		c0.084,0,0.171-0.021,0.25-0.066c0.238-0.139,0.32-0.442,0.184-0.684l-1.062-1.84h3.522c0.274,0,0.5-0.224,0.5-0.5
		S35.561,17.398,35.285,17.398z M19.441,20.625l-0.24,0.545l-1.311,2.969l-1.309-2.971l-0.239-0.543l-0.643,0.068l-3.174,0.346
		l1.933-2.641l0.334-0.457l-0.397-0.543l-1.87-2.556l3.226,0.351l0.589,0.063l0.261-0.592l1.29-2.923l1.289,2.923l0.262,0.592
		l0.59-0.063l3.228-0.351l-1.873,2.556l-0.396,0.543l0.334,0.457l1.934,2.641l-3.175-0.346L19.441,20.625z"/>
</g>
<g>
</g>
<g>
</g>
<g>
</g>
<g>
</g>
<g>
</g>
<g>
</g>
<g>
</g>
<g>
</g>
<g>
</g>
<g>
</g>
<g>
</g>
<g>
</g>
<g>
</g>
<g>
</g>
<g>
</g>
</svg>
