<?xml version="1.0" encoding="iso-8859-1"?>
<!-- Generator: Adobe Illustrator 16.0.0, SVG Export Plug-In . SVG Version: 6.00 Build 0)  -->
<!DOCTYPE svg PUBLIC "-//W3C//DTD SVG 1.1//EN" "http://www.w3.org/Graphics/SVG/1.1/DTD/svg11.dtd">
<svg version="1.1" id="Capa_1" xmlns="http://www.w3.org/2000/svg" xmlns:xlink="http://www.w3.org/1999/xlink" x="0px" y="0px"
	 width="38.203px" height="38.203px" viewBox="0 0 38.203 38.203" style="enable-background:new 0 0 38.203 38.203;"
	 xml:space="preserve">
<g>
	<path d="M35.744,25.921c0-0.269-0.144-0.514-0.375-0.647l-2.042-1.18c-0.23-0.134-0.516-0.134-0.749-0.001l-1.667,0.963
		l-3.714-2.145l5.146-1.377c0.399-0.107,0.637-0.521,0.53-0.92c-0.106-0.4-0.519-0.64-0.918-0.529l-5.915,1.584
		c0.297-0.801,0.469-1.664,0.469-2.566c0-0.903-0.172-1.77-0.47-2.569l5.916,1.586c0.065,0.018,0.13,0.023,0.194,0.023
		c0.332,0,0.635-0.222,0.725-0.556c0.107-0.4-0.13-0.812-0.529-0.92l-5.142-1.377l3.707-2.142l1.667,0.961
		c0.115,0.067,0.245,0.103,0.375,0.103s0.258-0.033,0.375-0.103l2.043-1.177c0.232-0.134,0.375-0.382,0.375-0.648l-0.002-1.252
		l0.001-1.105c0-0.27-0.144-0.518-0.375-0.65l-2.043-1.178c-0.231-0.135-0.519-0.135-0.749,0.001l-2.04,1.176
		c-0.233,0.135-0.376,0.383-0.376,0.649v1.927l-3.71,2.143L27.83,8.85c0.106-0.398-0.13-0.812-0.53-0.919
		c-0.4-0.104-0.812,0.131-0.918,0.529l-1.585,5.912c-1.106-1.332-2.673-2.264-4.45-2.564l4.33-4.329
		c0.293-0.293,0.293-0.769,0-1.062s-0.769-0.293-1.062,0l-3.765,3.765V5.896l1.667-0.96c0.231-0.135,0.375-0.382,0.375-0.649V1.93
		c0-0.269-0.144-0.515-0.373-0.646l-2.042-1.183c-0.232-0.135-0.518-0.135-0.751,0l-2.042,1.181
		c-0.231,0.135-0.374,0.383-0.374,0.648v2.356c0,0.27,0.143,0.517,0.375,0.648l1.667,0.961v4.285l-3.764-3.765
		c-0.293-0.293-0.768-0.293-1.061,0s-0.293,0.769,0,1.062l4.33,4.329c-1.778,0.303-3.343,1.232-4.451,2.564l-1.584-5.912
		c-0.107-0.398-0.518-0.638-0.919-0.529c-0.4,0.107-0.637,0.521-0.53,0.919l1.379,5.145L8.04,11.85l0.001-0.821L8.04,9.925
		c0-0.269-0.143-0.515-0.375-0.648L5.624,8.1C5.393,7.965,5.107,7.965,4.876,8.099L2.832,9.277C2.6,9.412,2.457,9.66,2.457,9.927
		l-0.001,2.355c0,0.269,0.143,0.516,0.375,0.648l2.043,1.181c0.116,0.066,0.245,0.101,0.374,0.101s0.258-0.032,0.375-0.102
		l1.666-0.962l3.709,2.144l-5.141,1.377c-0.4,0.105-0.637,0.519-0.53,0.918c0.09,0.336,0.393,0.557,0.724,0.557
		c0.064,0,0.129-0.008,0.195-0.024l5.916-1.586c-0.298,0.803-0.469,1.666-0.469,2.57c0,0.903,0.17,1.768,0.468,2.565l-5.915-1.584
		c-0.398-0.106-0.811,0.131-0.918,0.531c-0.107,0.398,0.13,0.812,0.531,0.918l5.145,1.379l-3.715,2.145l-1.668-0.962
		c-0.232-0.134-0.517-0.134-0.748,0.001l-2.039,1.178c-0.232,0.136-0.375,0.382-0.375,0.648l-0.001,1.109l0.001,0.143l-0.001,1.104
		c0,0.271,0.143,0.519,0.375,0.65l2.043,1.18c0.116,0.066,0.245,0.101,0.374,0.101s0.258-0.033,0.375-0.102l2.041-1.179
		c0.232-0.135,0.375-0.383,0.375-0.649L8.04,27.027v-0.672l3.712-2.144l-1.376,5.141c-0.107,0.4,0.13,0.812,0.531,0.919
		c0.065,0.02,0.13,0.024,0.194,0.024c0.331,0,0.634-0.221,0.724-0.555l1.582-5.91c1.107,1.332,2.672,2.263,4.449,2.564l-4.327,4.327
		c-0.293,0.293-0.293,0.769,0,1.062c0.293,0.293,0.768,0.293,1.061,0l3.764-3.766v4.288l-1.667,0.961
		c-0.232,0.134-0.375,0.381-0.375,0.648v2.356c0,0.269,0.143,0.517,0.374,0.648l2.042,1.181c0.116,0.067,0.246,0.102,0.375,0.102
		s0.259-0.033,0.375-0.102l2.042-1.181c0.23-0.135,0.375-0.381,0.375-0.648v-2.356c0-0.27-0.145-0.517-0.375-0.648l-1.667-0.961
		v-4.288l3.764,3.768c0.146,0.146,0.338,0.221,0.529,0.221c0.192,0,0.385-0.073,0.531-0.221c0.293-0.293,0.293-0.769,0-1.062
		l-4.329-4.329c1.776-0.304,3.342-1.232,4.449-2.564l1.582,5.91c0.091,0.334,0.394,0.555,0.724,0.555
		c0.063,0,0.129-0.008,0.194-0.024c0.399-0.105,0.638-0.519,0.53-0.919l-1.376-5.141l3.71,2.143v1.925
		c0,0.27,0.145,0.518,0.375,0.649l2.042,1.179c0.116,0.067,0.245,0.102,0.375,0.102s0.258-0.032,0.374-0.101l2.042-1.18
		c0.231-0.135,0.375-0.383,0.375-0.649l0.001-1.254L35.744,25.921z M31.659,10.985V10.36l1.292-0.745l0.542,0.312l0.749,0.432
		l0.001,0.867v0.627l-1.293,0.744l-0.542-0.312l-0.75-0.434l-0.001-0.816v-0.05H31.659z M5.248,12.597L3.956,11.85v-0.624v-0.867
		l0.749-0.432l0.541-0.312l1.292,0.744v0.625v0.865l-0.75,0.436L5.248,12.597z M6.538,27.847l-1.291,0.746l-0.542-0.313
		l-0.749-0.433v-0.678l-0.001-0.144v-0.047v-0.624l1.292-0.746l0.541,0.312l0.75,0.434v0.866V27.847z M19.85,24.958
		c-0.246,0.029-0.496,0.053-0.75,0.053s-0.504-0.021-0.75-0.053c-1.604-0.205-3.006-1.056-3.943-2.28
		c-0.303-0.396-0.561-0.829-0.757-1.296c-0.295-0.701-0.458-1.473-0.458-2.279c0-0.806,0.164-1.578,0.458-2.278
		c0.196-0.468,0.454-0.898,0.757-1.297c0.937-1.227,2.339-2.074,3.943-2.279c0.246-0.03,0.495-0.054,0.75-0.054
		s0.504,0.021,0.75,0.054c1.604,0.205,3.006,1.055,3.942,2.279c0.305,0.396,0.562,0.829,0.757,1.297
		c0.296,0.7,0.459,1.473,0.459,2.278c0,0.807-0.163,1.578-0.459,2.279c-0.194,0.467-0.452,0.897-0.757,1.296
		C22.856,23.904,21.454,24.753,19.85,24.958z M17.808,2.361l0.542-0.312l0.75-0.432l0.75,0.432l0.541,0.312v1.492L19.85,4.165
		L19.1,4.598l-0.75-0.433l-0.542-0.312V2.361z M20.391,35.844l-0.541,0.312L19.1,36.59l-0.75-0.432l-0.542-0.313v-1.491l0.542-0.312
		l0.75-0.433l0.75,0.435l0.541,0.312V35.844z M31.662,27.221v-0.195v-0.67l0.75-0.435l0.541-0.312l1.292,0.747v0.624v0.867
		l-0.749,0.433l-0.542,0.313l-1.292-0.746V27.221z"/>
</g>
<g>
</g>
<g>
</g>
<g>
</g>
<g>
</g>
<g>
</g>
<g>
</g>
<g>
</g>
<g>
</g>
<g>
</g>
<g>
</g>
<g>
</g>
<g>
</g>
<g>
</g>
<g>
</g>
<g>
</g>
</svg>
