<?xml version="1.0" encoding="iso-8859-1"?>
<!-- Generator: Adobe Illustrator 16.0.0, SVG Export Plug-In . SVG Version: 6.00 Build 0)  -->
<!DOCTYPE svg PUBLIC "-//W3C//DTD SVG 1.1//EN" "http://www.w3.org/Graphics/SVG/1.1/DTD/svg11.dtd">
<svg version="1.1" id="Capa_1" xmlns="http://www.w3.org/2000/svg" xmlns:xlink="http://www.w3.org/1999/xlink" x="0px" y="0px"
	 width="33.782px" height="33.782px" viewBox="0 0 33.782 33.782" style="enable-background:new 0 0 33.782 33.782;"
	 xml:space="preserve">
<g>
	<path d="M2.146,16.005v1.77l7.709,2.064l1.489-0.857v-4.184l-1.49-0.858L2.146,16.005z M10.346,18.405l-0.63,0.364l-6.568-1.76
		v-0.237l6.567-1.76l0.631,0.364V18.405z M26.285,12.579l5.281-3.051c0.238-0.14,0.546-0.057,0.685,0.184
		c0.138,0.238,0.056,0.545-0.185,0.683l-3.191,1.845l3.146,0.844c0.269,0.072,0.427,0.346,0.354,0.613
		c-0.062,0.223-0.262,0.369-0.482,0.369c-0.043,0-0.086-0.006-0.13-0.017L26.285,12.579z M11.917,2.59
		c-0.195-0.195-0.195-0.512,0-0.707c0.195-0.195,0.512-0.195,0.707,0l2.305,2.303V0.5c0-0.276,0.224-0.5,0.5-0.5s0.5,0.224,0.5,0.5
		v6.1L11.917,2.59z M21.866,2.59L17.853,6.6V0.5c0-0.276,0.225-0.5,0.5-0.5c0.276,0,0.5,0.224,0.5,0.5v3.686l2.307-2.303
		c0.193-0.195,0.512-0.195,0.707,0C22.06,2.079,22.06,2.395,21.866,2.59z M30.604,7.862l-5.28,3.051l1.466-5.479
		c0.071-0.268,0.346-0.418,0.61-0.354c0.269,0.071,0.427,0.346,0.354,0.611l-0.842,3.147l3.19-1.845
		c0.238-0.14,0.545-0.057,0.685,0.184C30.926,7.418,30.844,7.723,30.604,7.862z M22.437,14.799v4.183l1.489,0.859l7.709-2.064
		v-1.771l-7.708-2.064L22.437,14.799z M30.635,16.773v0.237l-6.568,1.76l-0.63-0.364v-3.027l0.631-0.363L30.635,16.773z
		 M22.964,12.273l2.067-7.707L23.496,3.68l-5.645,5.643v1.721l3.624,2.092L22.964,12.273z M18.853,10.465V9.736l4.81-4.808
		l0.205,0.118l-1.763,6.566l-0.63,0.364L18.853,10.465z M12.307,13.134l3.624-2.091V9.322l-5.643-5.644L8.752,4.564l2.067,7.707
		L12.307,13.134z M10.121,4.93l4.808,4.807v0.729l-2.623,1.515l-0.63-0.365L9.915,5.051L10.121,4.93z M21.474,20.648l-3.621,2.091
		v1.721l5.646,5.646l1.532-0.889l-2.065-7.707L21.474,20.648z M23.661,28.854l-4.809-4.809v-0.729l2.621-1.516l0.631,0.365
		l1.761,6.566L23.661,28.854z M21.865,31.191c0.193,0.195,0.193,0.513,0,0.707c-0.195,0.195-0.514,0.195-0.707,0l-2.306-2.305v3.688
		c0,0.276-0.224,0.5-0.5,0.5c-0.275,0-0.5-0.224-0.5-0.5V27.18L21.865,31.191z M32.02,20.702l-3.146,0.845l3.191,1.844
		c0.239,0.138,0.321,0.442,0.185,0.684c-0.093,0.158-0.261,0.25-0.436,0.25c-0.085,0-0.171-0.021-0.25-0.066l-5.281-3.053
		l5.478-1.469c0.271-0.062,0.541,0.088,0.612,0.354C32.447,20.355,32.287,20.627,32.02,20.702z M30.788,26.604
		c-0.14,0.238-0.445,0.322-0.685,0.185l-3.191-1.847l0.843,3.146c0.071,0.268-0.087,0.539-0.354,0.611
		c-0.043,0.012-0.087,0.018-0.13,0.018c-0.221,0-0.423-0.146-0.48-0.371l-1.468-5.479l5.282,3.053
		C30.844,26.059,30.926,26.366,30.788,26.604z M20.513,14.799l-3.622-2.09l-3.622,2.09v4.181l3.622,2.095l3.622-2.095V14.799z
		 M19.513,18.405l-2.622,1.515l-2.622-1.516v-3.027l2.622-1.511l2.622,1.512V18.405z M1.763,13.08l3.147-0.844l-3.193-1.844
		c-0.239-0.138-0.321-0.443-0.183-0.684C1.671,9.47,1.978,9.387,2.217,9.525L7.5,12.577l-5.478,1.469
		c-0.043,0.011-0.087,0.017-0.13,0.017c-0.221,0-0.422-0.147-0.482-0.37C1.335,13.427,1.495,13.155,1.763,13.08z M2.995,7.178
		c0.138-0.239,0.444-0.322,0.683-0.184L6.87,8.838L6.028,5.692c-0.071-0.267,0.087-0.54,0.354-0.611
		c0.268-0.064,0.541,0.088,0.612,0.354l1.466,5.479L3.178,7.862C2.938,7.723,2.855,7.416,2.995,7.178z M7.498,21.203l-5.283,3.051
		c-0.079,0.047-0.165,0.066-0.25,0.066c-0.173,0-0.341-0.09-0.434-0.25c-0.138-0.238-0.056-0.545,0.183-0.684l3.193-1.845
		L1.761,20.7c-0.267-0.072-0.425-0.347-0.354-0.613c0.072-0.266,0.349-0.415,0.612-0.354L7.498,21.203z M3.178,25.92l5.284-3.053
		l-1.468,5.479c-0.06,0.226-0.262,0.371-0.482,0.371c-0.043,0-0.086-0.006-0.13-0.018c-0.267-0.072-0.425-0.346-0.354-0.611
		l0.843-3.146l-3.193,1.847c-0.239,0.14-0.545,0.056-0.683-0.185C2.855,26.366,2.938,26.059,3.178,25.92z M11.917,31.191
		l4.012-4.012v6.103c0,0.276-0.224,0.5-0.5,0.5s-0.5-0.224-0.5-0.5v-3.688l-2.305,2.305c-0.195,0.195-0.512,0.195-0.707,0
		C11.723,31.703,11.723,31.387,11.917,31.191z M10.817,21.51l-2.065,7.707l1.532,0.885l5.644-5.643v-1.721l-3.621-2.092
		L10.817,21.51z M14.93,24.045l-4.808,4.807l-0.204-0.117l1.759-6.565l0.631-0.364l2.621,1.514L14.93,24.045L14.93,24.045z"/>
</g>
<g>
</g>
<g>
</g>
<g>
</g>
<g>
</g>
<g>
</g>
<g>
</g>
<g>
</g>
<g>
</g>
<g>
</g>
<g>
</g>
<g>
</g>
<g>
</g>
<g>
</g>
<g>
</g>
<g>
</g>
</svg>
