<?xml version="1.0" encoding="iso-8859-1"?>
<!-- Generator: Adobe Illustrator 16.0.0, SVG Export Plug-In . SVG Version: 6.00 Build 0)  -->
<!DOCTYPE svg PUBLIC "-//W3C//DTD SVG 1.1//EN" "http://www.w3.org/Graphics/SVG/1.1/DTD/svg11.dtd">
<svg version="1.1" id="Capa_1" xmlns="http://www.w3.org/2000/svg" xmlns:xlink="http://www.w3.org/1999/xlink" x="0px" y="0px"
	 width="37.287px" height="37.287px" viewBox="0 0 37.287 37.287" style="enable-background:new 0 0 37.287 37.287;"
	 xml:space="preserve">
<g>
	<path d="M34.594,27.251l-3.18-1.836l1.915-1.107c0.249-0.145,0.335-0.462,0.192-0.712c-0.146-0.25-0.464-0.336-0.713-0.191
		l-2.437,1.408l-2.417-1.396l4.928-2.843c0.249-0.142,0.334-0.462,0.19-0.712c-0.144-0.248-0.463-0.333-0.712-0.189l-5.447,3.144
		l-1.212-0.699l-2.543-3.476l2.544-3.477l1.208-0.698l5.45,3.146c0.083,0.047,0.172,0.07,0.261,0.07c0.18,0,0.355-0.094,0.452-0.26
		c0.146-0.25,0.06-0.568-0.19-0.712l-4.93-2.846l2.418-1.396l2.438,1.408c0.082,0.047,0.172,0.07,0.26,0.07
		c0.181,0,0.355-0.094,0.454-0.26c0.144-0.25,0.058-0.568-0.192-0.712l-1.917-1.106l3.179-1.836
		c0.249-0.143,0.334-0.462,0.192-0.711c-0.146-0.25-0.465-0.334-0.714-0.191l-3.178,1.835l-0.001-2.211
		c0-0.288-0.232-0.521-0.521-0.521s-0.521,0.233-0.521,0.521l0.001,2.812l-2.417,1.395l0.001-5.687c0-0.287-0.233-0.521-0.521-0.521
		c-0.285,0-0.521,0.233-0.521,0.521l-0.001,6.289l-1.213,0.7l-4.279,0.466l-1.738-3.947v-1.4l5.446-3.147
		c0.249-0.143,0.335-0.462,0.192-0.711c-0.146-0.25-0.464-0.335-0.713-0.191l-4.926,2.846V5.393L21.6,3.988
		c0.249-0.144,0.334-0.462,0.189-0.711c-0.145-0.25-0.463-0.334-0.711-0.191L19.164,4.19V0.521C19.164,0.234,18.93,0,18.643,0
		c-0.288,0-0.521,0.234-0.521,0.521v3.671l-1.916-1.106c-0.25-0.145-0.567-0.06-0.711,0.191c-0.144,0.249-0.059,0.567,0.191,0.711
		l2.436,1.407v2.79l-4.926-2.844c-0.25-0.145-0.568-0.059-0.712,0.191c-0.143,0.249-0.058,0.567,0.191,0.711l5.447,3.145v1.402
		l-1.737,3.941l-4.283-0.466l-1.212-0.7v-6.29c0-0.287-0.233-0.521-0.521-0.521c-0.288,0-0.521,0.233-0.521,0.521v5.688
		l-2.415-1.394L7.431,8.754c0-0.288-0.233-0.521-0.521-0.521S6.389,8.467,6.389,8.754l0.001,2.212L3.21,9.131
		c-0.25-0.144-0.568-0.058-0.712,0.191C2.355,9.571,2.44,9.89,2.689,10.033l3.178,1.836l-1.914,1.105
		c-0.249,0.144-0.334,0.462-0.191,0.712c0.097,0.166,0.272,0.26,0.452,0.26c0.088,0,0.178-0.022,0.26-0.07L6.91,12.47l2.416,1.395
		L4.4,16.708c-0.249,0.144-0.334,0.462-0.19,0.711c0.096,0.168,0.271,0.261,0.452,0.261c0.088,0,0.178-0.022,0.26-0.07l5.447-3.146
		l1.215,0.701l2.543,3.476l-2.543,3.476l-1.214,0.699l-5.449-3.141c-0.251-0.145-0.568-0.06-0.711,0.188
		c-0.144,0.251-0.059,0.569,0.19,0.714l4.928,2.841l-2.419,1.396L4.474,23.41c-0.249-0.144-0.567-0.061-0.711,0.19
		c-0.144,0.249-0.058,0.568,0.191,0.712l1.914,1.107L2.69,27.253c-0.249,0.146-0.334,0.463-0.191,0.713
		c0.097,0.166,0.272,0.261,0.453,0.261c0.088,0,0.178-0.022,0.26-0.071l3.178-1.835l0.001,2.213c0,0.288,0.233,0.521,0.521,0.521
		l0,0c0.288,0,0.521-0.233,0.521-0.521L7.432,25.72l2.419-1.396l-0.002,5.69c0,0.286,0.233,0.521,0.521,0.521
		c0.288,0,0.521-0.234,0.521-0.521l0.002-6.293l1.209-0.697l4.284-0.468l1.735,3.938v1.403l-5.446,3.144
		c-0.249,0.145-0.334,0.464-0.191,0.712c0.144,0.251,0.463,0.336,0.712,0.192l4.925-2.843v2.789l-2.436,1.408
		c-0.25,0.145-0.335,0.462-0.191,0.712c0.097,0.167,0.271,0.26,0.452,0.26c0.088,0,0.178-0.021,0.26-0.069l1.916-1.106v3.669
		c0,0.286,0.233,0.521,0.521,0.521s0.521-0.234,0.521-0.521v-3.671l1.917,1.107c0.249,0.142,0.567,0.059,0.711-0.191
		c0.146-0.248,0.061-0.568-0.189-0.71l-2.438-1.414v-2.79l4.926,2.845c0.082,0.047,0.172,0.069,0.26,0.069
		c0.181,0,0.355-0.094,0.454-0.261c0.144-0.248,0.058-0.567-0.192-0.711l-5.446-3.146v-1.397l1.738-3.945l4.284,0.466l1.209,0.7
		v6.291c0,0.287,0.235,0.521,0.521,0.521c0.288,0,0.521-0.233,0.521-0.521v-5.688l2.416,1.396l0.001,2.812
		c0,0.287,0.232,0.521,0.521,0.521s0.521-0.233,0.521-0.521l-0.001-2.212l3.181,1.836c0.082,0.047,0.172,0.07,0.26,0.07
		c0.183,0,0.357-0.095,0.454-0.261C34.931,27.712,34.845,27.393,34.594,27.251z M19.164,23.914l-0.521,1.18l-0.521-1.182
		l-1.091-2.476l-2.694,0.293l-1.283,0.141l0.764-1.043l1.599-2.185l-1.599-2.186l-0.763-1.042l1.284,0.14l2.693,0.292l1.09-2.477
		l0.521-1.182l0.521,1.181l1.093,2.479l2.691-0.292l1.284-0.14l-0.762,1.042l-1.6,2.187l1.599,2.186l0.763,1.041l-1.283-0.139
		l-2.692-0.292L19.164,23.914z"/>
</g>
<g>
</g>
<g>
</g>
<g>
</g>
<g>
</g>
<g>
</g>
<g>
</g>
<g>
</g>
<g>
</g>
<g>
</g>
<g>
</g>
<g>
</g>
<g>
</g>
<g>
</g>
<g>
</g>
<g>
</g>
</svg>
