<?xml version="1.0" encoding="iso-8859-1"?>
<!-- Generator: Adobe Illustrator 16.0.0, SVG Export Plug-In . SVG Version: 6.00 Build 0)  -->
<!DOCTYPE svg PUBLIC "-//W3C//DTD SVG 1.1//EN" "http://www.w3.org/Graphics/SVG/1.1/DTD/svg11.dtd">
<svg version="1.1" id="Capa_1" xmlns="http://www.w3.org/2000/svg" xmlns:xlink="http://www.w3.org/1999/xlink" x="0px" y="0px"
	 width="40.045px" height="40.045px" viewBox="0 0 40.045 40.045" style="enable-background:new 0 0 40.045 40.045;"
	 xml:space="preserve">
<g>
	<path d="M33.247,27.057l-5.463-3.152l5.965-1.597c0.278-0.074,0.442-0.36,0.368-0.638c-0.073-0.28-0.357-0.438-0.637-0.369
		l-6.971,1.868l-1.982-1.146l4.532-2l-4.532-1.999l1.983-1.146l6.966,1.87c0.045,0.012,0.092,0.018,0.137,0.018
		c0.229,0,0.439-0.153,0.501-0.385c0.075-0.278-0.089-0.563-0.369-0.639l-5.961-1.599l5.457-3.15l1.802,1.039l2.319-1.338v-2.677
		l-2.319-1.338l-2.32,1.338v2.075l-5.461,3.153l1.598-5.966c0.075-0.28-0.09-0.563-0.369-0.638
		c-0.279-0.066-0.563,0.091-0.636,0.368l-1.87,6.972l-1.981,1.145l0.536-4.926l-3.996,2.927v-2.293l5.1-5.1
		c0.203-0.203,0.203-0.534,0-0.736c-0.202-0.203-0.534-0.203-0.736,0l-4.363,4.362V5.056l1.799-1.038v-2.68L20.023,0l-2.321,1.339
		l0.002,2.677l1.798,1.038v6.308l-4.367-4.368c-0.204-0.204-0.534-0.204-0.737,0c-0.203,0.203-0.203,0.533,0,0.736l5.104,5.104v2.29
		l-3.997-2.927l0.535,4.926l-1.985-1.146l-1.867-6.968c-0.074-0.278-0.359-0.438-0.637-0.368C11.273,8.715,11.108,9,11.183,9.276
		l1.598,5.965l-5.459-3.153L7.32,10.014L5,8.673l-2.319,1.341v2.676L5,14.028l1.8-1.039l5.459,3.151L6.296,17.74
		c-0.278,0.074-0.443,0.36-0.369,0.637c0.062,0.234,0.273,0.386,0.502,0.386c0.045,0,0.09-0.006,0.136-0.019l6.969-1.868
		l1.984,1.147l-4.533,2l4.535,1.998l-1.987,1.148L6.562,21.3C6.286,21.234,6,21.392,5.925,21.67
		c-0.074,0.279,0.091,0.563,0.369,0.637l5.966,1.599l-5.46,3.151L5,26.02l-2.32,1.336l0.001,2.679L5,31.373l2.32-1.339v-2.076
		l5.457-3.149l-1.598,5.961c-0.074,0.279,0.091,0.563,0.369,0.639c0.045,0.011,0.091,0.019,0.136,0.019
		c0.23,0,0.439-0.154,0.502-0.387l1.867-6.967l1.987-1.148l-0.535,4.927l3.997-2.927v2.287l-5.104,5.104
		c-0.204,0.203-0.204,0.533,0,0.736c0.102,0.102,0.235,0.151,0.369,0.151s0.267-0.051,0.369-0.151l4.366-4.368v6.309l-1.798,1.038
		l0.001,2.678l2.32,1.336l2.319-1.339v-2.675l-1.8-1.04v-6.305l4.364,4.362c0.203,0.203,0.535,0.203,0.736,0
		c0.204-0.203,0.204-0.533,0-0.736l-5.101-5.099v-2.293l3.998,2.926l-0.535-4.924l1.981,1.146l1.868,6.97
		c0.062,0.232,0.274,0.385,0.502,0.385c0.045,0,0.09-0.006,0.135-0.019c0.278-0.075,0.443-0.359,0.369-0.639l-1.598-5.963
		l5.463,3.153v2.074l2.318,1.341l2.319-1.341v-2.677l-2.319-1.338L33.247,27.057z M23.25,25.61l-2.707-1.981l-0.52-0.38
		l-0.521,0.382l-2.706,1.981l0.362-3.335l0.07-0.643l-0.589-0.26l-3.07-1.354l3.069-1.353l0.59-0.26l-0.07-0.641l-0.362-3.335
		l2.706,1.982l0.521,0.38l0.52-0.381l2.707-1.982l-0.363,3.334l-0.067,0.642l0.589,0.26l3.067,1.353l-3.067,1.355l-0.592,0.26
		l0.07,0.641L23.25,25.61z"/>
</g>
<g>
</g>
<g>
</g>
<g>
</g>
<g>
</g>
<g>
</g>
<g>
</g>
<g>
</g>
<g>
</g>
<g>
</g>
<g>
</g>
<g>
</g>
<g>
</g>
<g>
</g>
<g>
</g>
<g>
</g>
</svg>
