<?xml version="1.0" encoding="iso-8859-1"?>
<!-- Generator: Adobe Illustrator 16.0.0, SVG Export Plug-In . SVG Version: 6.00 Build 0)  -->
<!DOCTYPE svg PUBLIC "-//W3C//DTD SVG 1.1//EN" "http://www.w3.org/Graphics/SVG/1.1/DTD/svg11.dtd">
<svg version="1.1" id="Capa_1" xmlns="http://www.w3.org/2000/svg" xmlns:xlink="http://www.w3.org/1999/xlink" x="0px" y="0px"
	 width="32.917px" height="32.917px" viewBox="0 0 32.917 32.917" style="enable-background:new 0 0 32.917 32.917;"
	 xml:space="preserve">
<g>
	<path d="M10.962,20.777L6.951,24.79l-0.736-0.736l3.523-3.523l-0.886-2.194H6.306l-2.546,2.548l-2.548-2.548H0v-1.042h3.518
		L2.58,18.231l1.179,1.18l2.115-2.117h3.68L10.962,20.777z M2.58,14.69l1.18-1.178l2.114,2.113h3.646l1.468-3.46L6.951,8.129
		L6.214,8.866l3.54,3.54l-0.925,2.178H6.304L3.758,12.04l-2.545,2.544H0v1.042h3.515L2.58,14.69z M15.625,9.554V5.874l-2.116-2.114
		l1.178-1.178l0.937,0.936V0h-1.042v1.211l-2.547,2.547l2.547,2.545V8.85L12.39,9.735L8.864,6.212L8.127,6.949l4.013,4.011
		L15.625,9.554z M24.788,6.95L24.05,6.213l-3.538,3.541l-2.18-0.925V6.304l2.544-2.545l-2.544-2.545V0h-1.041v3.515l0.934-0.935
		l1.179,1.179l-2.112,2.114V9.52l3.459,1.468L24.788,6.95z M17.292,23.363v3.68l2.115,2.114l-1.178,1.179L17.292,29.4v3.517h1.041
		v-1.211l2.548-2.547l-2.548-2.545v-2.548l2.192-0.885l3.525,3.522l0.737-0.736l-4.015-4.011L17.292,23.363z M31.706,14.583
		l-2.547-2.548l-2.549,2.548h-2.546l-0.887-2.194l3.524-3.523l-0.736-0.737l-4.014,4.013l1.409,3.486h3.681l2.115-2.117l1.178,1.179
		l-0.938,0.938h3.519v-1.042L31.706,14.583L31.706,14.583z M8.129,25.965l0.736,0.736l3.539-3.536l2.179,0.924v2.524l-2.544,2.545
		l2.544,2.544v1.214h1.042v-3.515l-0.935,0.935l-1.178-1.18l2.113-2.114v-3.645l-3.461-1.467L8.129,25.965z M30.336,18.226
		l-1.18,1.178l-2.114-2.112h-3.646l-1.468,3.46l4.036,4.036l0.736-0.736l-3.539-3.539l0.926-2.179h2.524l2.546,2.544l2.544-2.544
		h1.214v-1.042h-3.515L30.336,18.226z M20.287,20.353l-3.876,1.566l-3.849-1.631l-1.566-3.877l1.633-3.847l3.877-1.568l3.846,1.632
		l1.567,3.877L20.287,20.353z M19.497,19.549l1.296-3.055l-1.244-3.075l-3.054-1.296l-3.077,1.243l-1.296,3.055l1.242,3.075
		l3.055,1.296L19.497,19.549z"/>
</g>
<g>
</g>
<g>
</g>
<g>
</g>
<g>
</g>
<g>
</g>
<g>
</g>
<g>
</g>
<g>
</g>
<g>
</g>
<g>
</g>
<g>
</g>
<g>
</g>
<g>
</g>
<g>
</g>
<g>
</g>
</svg>
