<?xml version="1.0" encoding="iso-8859-1"?>
<!-- Generator: Adobe Illustrator 16.0.0, SVG Export Plug-In . SVG Version: 6.00 Build 0)  -->
<!DOCTYPE svg PUBLIC "-//W3C//DTD SVG 1.1//EN" "http://www.w3.org/Graphics/SVG/1.1/DTD/svg11.dtd">
<svg version="1.1" id="Capa_1" xmlns="http://www.w3.org/2000/svg" xmlns:xlink="http://www.w3.org/1999/xlink" x="0px" y="0px"
	 width="36.505px" height="36.505px" viewBox="0 0 36.505 36.505" style="enable-background:new 0 0 36.505 36.505;"
	 xml:space="preserve">
<g>
	<path d="M34.125,24.84c0-0.188-0.1-0.359-0.261-0.452l-1.971-1.14c-0.161-0.094-0.36-0.094-0.521,0l-1.768,1.021l-0.422-0.242
		c0.915-1.726,1.439-3.69,1.439-5.776c0-2.044-0.507-3.971-1.389-5.67l0.484-0.28l1.652,0.953c0.082,0.047,0.171,0.069,0.261,0.069
		s0.179-0.022,0.261-0.069l1.973-1.138c0.163-0.094,0.261-0.265,0.261-0.452l-0.002-1.208l0.002-1.068
		c0-0.188-0.098-0.36-0.261-0.452l-1.973-1.14c-0.161-0.093-0.359-0.092-0.521,0.001l-1.969,1.137
		C29.24,9.028,29.14,9.201,29.14,9.386v2.046l-0.428,0.245c-2.104-3.336-5.752-5.593-9.939-5.77V5.376l1.71-0.987
		c0.162-0.094,0.261-0.265,0.261-0.452V1.663c0-0.188-0.099-0.359-0.261-0.452l-1.971-1.14c-0.161-0.094-0.359-0.094-0.521,0
		l-1.974,1.14c-0.16,0.093-0.26,0.264-0.26,0.452v2.276c0,0.188,0.099,0.358,0.26,0.452l1.713,0.987v0.531
		c-4.187,0.177-7.834,2.434-9.939,5.77l-0.429-0.246V9.388c0-0.186-0.099-0.358-0.26-0.45L5.131,7.799
		C4.97,7.706,4.772,7.706,4.61,7.798l-1.973,1.14c-0.16,0.091-0.26,0.264-0.26,0.45l-0.002,2.278c0,0.187,0.099,0.36,0.261,0.451
		l1.974,1.141c0.082,0.047,0.171,0.07,0.261,0.07c0.089,0,0.179-0.023,0.26-0.07l1.652-0.955l0.488,0.282
		c-0.882,1.701-1.388,3.625-1.388,5.67c0,2.086,0.524,4.049,1.439,5.777l-0.422,0.24l-1.771-1.021
		c-0.161-0.092-0.358-0.092-0.52,0.002L2.637,24.39c-0.161,0.094-0.262,0.267-0.262,0.453v2.277c0,0.185,0.099,0.357,0.261,0.449
		l1.972,1.143c0.082,0.047,0.171,0.068,0.261,0.068c0.089,0,0.179-0.021,0.26-0.068L7.1,27.57c0.162-0.092,0.261-0.265,0.261-0.449
		v-1.909l0.492-0.282c2.113,3.281,5.733,5.495,9.878,5.67v0.531l-1.713,0.986c-0.161,0.094-0.26,0.265-0.26,0.452v2.276
		c0,0.188,0.099,0.358,0.26,0.451l1.974,1.141c0.081,0.047,0.171,0.068,0.26,0.068s0.18-0.021,0.26-0.068l1.972-1.141
		c0.16-0.093,0.261-0.264,0.261-0.451v-2.276c0-0.188-0.1-0.358-0.261-0.452l-1.709-0.988v-0.531
		c4.145-0.175,7.764-2.389,9.878-5.672l0.489,0.281v1.91c0,0.187,0.099,0.359,0.261,0.451l1.972,1.142
		c0.081,0.046,0.172,0.068,0.261,0.068c0.09,0,0.179-0.022,0.261-0.068l1.973-1.142c0.159-0.092,0.26-0.265,0.26-0.451l0.002-1.211
		L34.125,24.84z M30.182,9.69l1.451-0.838l1.45,0.836v1.679l-1.452,0.836l-1.45-0.836L30.182,9.69L30.182,9.69z M4.872,12.203
		l-1.453-0.84l0.002-1.675l1.45-0.836L6.323,9.69v1.672L4.872,12.203z M4.87,27.653l-1.451-0.838V25.14l1.451-0.838l1.444,0.834
		c0.002,0.008,0.003,0.016,0.006,0.021v1.659L4.87,27.653z M29.582,18.253c0,1.895-0.474,3.682-1.302,5.254l-0.824-0.477
		c0.747-1.433,1.175-3.056,1.175-4.778c0-1.683-0.411-3.268-1.125-4.673l0.824-0.476C29.125,14.651,29.582,16.397,29.582,18.253z
		 M22.976,11.828c-0.276-0.065-0.563,0.092-0.638,0.369l-1.002,3.744l-2.561,1.479v-2.958l2.739-2.741
		c0.203-0.203,0.203-0.534,0-0.736c-0.204-0.203-0.533-0.203-0.737,0l-2.002,2.004V8.422c3.258,0.171,6.098,1.925,7.765,4.513
		l-3.927,2.269l0.732-2.739C23.418,12.187,23.253,11.901,22.976,11.828z M17.732,12.988l-2.004-2.004
		c-0.203-0.203-0.533-0.203-0.736,0c-0.204,0.202-0.204,0.534,0,0.736l2.74,2.741v2.958l-2.561-1.479l-1.004-3.746
		c-0.075-0.277-0.359-0.435-0.638-0.369c-0.278,0.075-0.442,0.361-0.369,0.638l0.734,2.737l-3.928-2.269
		c1.667-2.586,4.507-4.34,7.766-4.513V12.988z M13.373,16.105l-2.735,0.732c-0.278,0.074-0.442,0.36-0.369,0.636
		c0.062,0.234,0.273,0.386,0.502,0.386c0.045,0,0.089-0.006,0.136-0.019l3.743-1.003l2.562,1.481l-2.561,1.477l-3.745-1.004
		c-0.276-0.063-0.563,0.092-0.638,0.37c-0.074,0.277,0.09,0.562,0.369,0.636l2.739,0.732l-3.874,2.238
		c-0.702-1.354-1.106-2.888-1.106-4.518c0-1.586,0.386-3.083,1.056-4.412L13.373,16.105z M13.895,21.438l-0.732,2.736
		c-0.074,0.278,0.091,0.563,0.369,0.638c0.045,0.011,0.091,0.018,0.136,0.018c0.23,0,0.44-0.153,0.502-0.387l1.002-3.739
		l2.561-1.481v2.958l-2.74,2.738c-0.204,0.204-0.204,0.536,0,0.737c0.102,0.104,0.235,0.152,0.369,0.152s0.267-0.051,0.369-0.152
		l2.004-2.005v4.432c-3.218-0.169-6.03-1.878-7.706-4.41L13.895,21.438z M18.774,23.654l2.001,2.004
		c0.204,0.202,0.534,0.202,0.737,0s0.203-0.533,0-0.737l-2.739-2.74v-2.958l2.561,1.481l1.002,3.739
		c0.063,0.233,0.273,0.387,0.503,0.387c0.045,0,0.09-0.007,0.135-0.018c0.278-0.074,0.443-0.36,0.37-0.638l-0.732-2.736l3.867,2.234
		c-1.676,2.533-4.489,4.241-7.706,4.41V23.654z M23.131,20.533L25.87,19.8c0.278-0.072,0.441-0.36,0.369-0.636
		c-0.074-0.28-0.361-0.435-0.638-0.37l-3.744,1.004l-2.561-1.478l2.562-1.479l3.742,1.003c0.047,0.012,0.092,0.018,0.137,0.018
		c0.229,0,0.441-0.153,0.501-0.387c0.072-0.278-0.091-0.562-0.369-0.637l-2.736-0.732l3.924-2.265
		c0.67,1.33,1.056,2.826,1.056,4.414c0,1.628-0.404,3.165-1.105,4.518L23.131,20.533z M27.813,12.201l-0.822,0.474
		c-1.758-2.744-4.765-4.6-8.216-4.773v-0.95C22.576,7.125,25.889,9.175,27.813,12.201z M16.8,1.963l1.452-0.838l1.451,0.838v1.676
		l-1.451,0.836L16.8,3.639V1.963z M17.732,6.952v0.95c-3.45,0.173-6.458,2.029-8.217,4.773l-0.821-0.474
		C10.618,9.175,13.932,7.125,17.732,6.952z M6.925,18.253c0-1.855,0.456-3.604,1.251-5.149L9,13.58
		c-0.713,1.407-1.125,2.99-1.125,4.673c0,1.722,0.429,3.345,1.175,4.778l-0.824,0.477C7.399,21.935,6.925,20.148,6.925,18.253z
		 M8.754,24.405l0.822-0.474c1.767,2.689,4.746,4.501,8.156,4.672v0.95C13.972,29.384,10.687,27.377,8.754,24.405z M19.706,34.544
		l-1.452,0.838l-1.452-0.838v-1.677l1.386-0.798c0.022,0.002,0.043,0.013,0.066,0.013s0.044-0.011,0.065-0.013l1.385,0.798v1.677
		H19.706z M18.774,29.555v-0.95c3.409-0.171,6.389-1.983,8.156-4.673l0.822,0.476C25.821,27.377,22.535,29.384,18.774,29.555z
		 M33.083,26.817l-1.45,0.841l-1.451-0.841v-1.653c0.004-0.01,0.005-0.018,0.009-0.025l1.442-0.834l1.45,0.841V26.817z"/>
</g>
<g>
</g>
<g>
</g>
<g>
</g>
<g>
</g>
<g>
</g>
<g>
</g>
<g>
</g>
<g>
</g>
<g>
</g>
<g>
</g>
<g>
</g>
<g>
</g>
<g>
</g>
<g>
</g>
<g>
</g>
</svg>
