<?xml version="1.0" encoding="iso-8859-1"?>
<!-- Generator: Adobe Illustrator 16.0.0, SVG Export Plug-In . SVG Version: 6.00 Build 0)  -->
<!DOCTYPE svg PUBLIC "-//W3C//DTD SVG 1.1//EN" "http://www.w3.org/Graphics/SVG/1.1/DTD/svg11.dtd">
<svg version="1.1" id="Capa_1" xmlns="http://www.w3.org/2000/svg" xmlns:xlink="http://www.w3.org/1999/xlink" x="0px" y="0px"
	 width="39.279px" height="39.279px" viewBox="0 0 39.279 39.279" style="enable-background:new 0 0 39.279 39.279;"
	 xml:space="preserve">
<g>
	<path d="M39.209,19.378l-1.23-2.126c-0.094-0.16-0.266-0.26-0.45-0.26l-2.456-0.001c-0.186,0-0.357,0.1-0.451,0.26l-1.076,1.867
		h-5.246l4.369-4.367c0.203-0.203,0.203-0.533,0-0.736c-0.204-0.203-0.533-0.203-0.736,0l-5.106,5.103h-3.142l-1.571-2.723
		l1.573-2.725l6.968-1.867c0.277-0.074,0.441-0.361,0.368-0.637c-0.073-0.278-0.359-0.441-0.638-0.369l-5.962,1.597l2.619-4.535
		l0.844-0.002l0.154,0.002c0.002,0,0.005,0,0.007,0l1.151-0.001c0.186,0,0.356-0.099,0.45-0.26l1.232-2.127
		c0.093-0.16,0.093-0.359,0-0.521l-1.232-2.127c-0.093-0.16-0.265-0.26-0.45-0.26l-2.456,0.001c-0.186,0-0.357,0.1-0.451,0.26
		l-1.228,2.125c-0.094,0.16-0.094,0.359,0,0.521l1.078,1.867l-2.623,4.54l-1.599-5.967c-0.07-0.278-0.358-0.441-0.637-0.369
		c-0.278,0.074-0.443,0.361-0.368,0.638l1.868,6.972l-1.573,2.722h-3.143l-1.573-2.723l1.868-6.967
		c0.074-0.278-0.091-0.564-0.369-0.638c-0.276-0.072-0.562,0.091-0.637,0.37l-1.598,5.962l-2.622-4.541l1.078-1.865
		c0.093-0.16,0.093-0.359,0-0.521l-1.228-2.126c-0.092-0.16-0.265-0.259-0.45-0.26h-2.457c-0.186,0-0.358,0.099-0.452,0.26
		L8.399,4.95c-0.092,0.161-0.092,0.36,0,0.521l1.229,2.126c0.094,0.161,0.266,0.261,0.452,0.261h1.15c0.001,0,0.002,0,0.004,0
		l1.002-0.001l2.622,4.54l-5.964-1.597c-0.276-0.073-0.563,0.09-0.638,0.369c-0.074,0.278,0.091,0.563,0.369,0.637l6.97,1.867
		l1.571,2.723l-1.573,2.723h-3.144l-5.104-5.103c-0.203-0.203-0.533-0.203-0.736,0c-0.204,0.203-0.204,0.533,0,0.736l4.366,4.367
		H5.732l-1.077-1.867c-0.094-0.161-0.265-0.259-0.451-0.259H1.75c-0.187,0-0.359,0.099-0.451,0.259L0.07,19.378
		c-0.093,0.16-0.093,0.36,0,0.521l1.228,2.126c0.093,0.162,0.265,0.261,0.452,0.261l1.302,0.002c0.002,0,0.003,0,0.004,0l1.15-0.002
		c0.186,0,0.358-0.099,0.451-0.261l1.075-1.865h5.242L6.61,24.524c-0.204,0.202-0.204,0.533,0,0.736
		c0.102,0.103,0.235,0.151,0.369,0.151c0.133,0,0.267-0.051,0.369-0.151l5.1-5.102h3.146l1.573,2.721l-1.571,2.723l-6.972,1.869
		c-0.278,0.072-0.443,0.361-0.369,0.636c0.075,0.28,0.36,0.447,0.638,0.369l5.967-1.598l-2.624,4.542l-1.007-0.002l-1.15,0.004
		c-0.185,0-0.356,0.101-0.45,0.261l-1.227,2.124c-0.094,0.159-0.094,0.361-0.001,0.521l1.229,2.126
		c0.094,0.162,0.266,0.261,0.452,0.261l1.301,0.002c0.002,0,0.003,0,0.004,0l1.15-0.002c0.187,0,0.358-0.099,0.451-0.261
		l1.228-2.124c0.093-0.161,0.093-0.361,0-0.522l-1.078-1.866l2.622-4.54l1.599,5.962c0.063,0.233,0.273,0.386,0.502,0.386
		c0.045,0,0.091-0.006,0.135-0.019c0.279-0.074,0.444-0.36,0.369-0.636l-1.869-6.968l1.573-2.723h3.145l1.571,2.721l-1.868,6.97
		c-0.074,0.277,0.091,0.563,0.369,0.637c0.045,0.012,0.09,0.018,0.135,0.018c0.23,0,0.441-0.152,0.502-0.386l1.598-5.964
		l2.625,4.541l-1.079,1.866c-0.093,0.16-0.093,0.359,0,0.521l1.229,2.126c0.093,0.161,0.264,0.261,0.45,0.261l1.149,0.002
		c0.002,0,0.004,0,0.005,0l1.303-0.002c0.186,0,0.357-0.1,0.45-0.261l1.229-2.126c0.093-0.163,0.093-0.362,0-0.521l-1.229-2.126
		c-0.093-0.163-0.265-0.261-0.45-0.261h-1.306h-0.85l-2.623-4.541l5.964,1.6c0.282,0.075,0.563-0.09,0.638-0.369
		c0.075-0.278-0.091-0.563-0.368-0.638l-6.97-1.869l-1.571-2.721l1.571-2.723h3.146l5.101,5.102
		c0.102,0.103,0.234,0.151,0.368,0.151s0.269-0.051,0.368-0.151c0.203-0.203,0.203-0.534,0-0.736l-4.363-4.365h5.243l1.078,1.867
		c0.093,0.16,0.265,0.261,0.45,0.261h2.456c0.187,0,0.358-0.101,0.45-0.261l1.229-2.128C39.302,19.738,39.302,19.539,39.209,19.378z
		 M26.117,5.209l0.927-1.605l1.279-0.001h0.576l0.29,0.5l0.638,1.106l-0.93,1.606h-0.845l-0.161-0.002l-0.245,0.001l-0.602,0.001
		l-0.301-0.521L26.117,5.209z M10.381,3.603l0.577-0.001l0.427-0.001l0.85,0.002l0.927,1.605l-0.627,1.083l-0.301,0.521
		l-0.601,0.001l-1.253,0.001L9.455,5.208l0.638-1.106L10.381,3.603z M4.832,19.638l-0.3,0.521l-0.626,1.086L2.05,21.243
		l-0.637-1.105l-0.287-0.5l0.287-0.498l0.639-1.106h1.853l0.627,1.084L4.832,19.638z M13.162,34.071l-0.926,1.604h-1.29h-0.564
		l-0.288-0.498l-0.638-1.106l0.928-1.605h1.25h0.603l0.3,0.521L13.162,34.071z M28.898,35.676h-0.564h-0.442h-0.847l-0.928-1.607
		l0.628-1.084l0.3-0.519l0.603-0.002h1.251l0.928,1.607l-0.637,1.104L28.898,35.676z M21.212,22.361h-0.601H18.67h-0.601
		l-0.301-0.521l-0.972-1.682l-0.3-0.521l0.3-0.52l0.972-1.683l0.3-0.52h0.603h1.94h0.602l0.301,0.521l0.972,1.681l0.301,0.52
		l-0.301,0.521l-0.972,1.682L21.212,22.361z M34.449,19.638l0.301-0.52l0.626-1.085l1.855,0.001l0.638,1.106l0.287,0.498l-0.287,0.5
		l-0.638,1.107h-1.854l-0.627-1.086L34.449,19.638z"/>
</g>
<g>
</g>
<g>
</g>
<g>
</g>
<g>
</g>
<g>
</g>
<g>
</g>
<g>
</g>
<g>
</g>
<g>
</g>
<g>
</g>
<g>
</g>
<g>
</g>
<g>
</g>
<g>
</g>
<g>
</g>
</svg>
