<?xml version="1.0" encoding="iso-8859-1"?>
<!-- Generator: Adobe Illustrator 16.0.0, SVG Export Plug-In . SVG Version: 6.00 Build 0)  -->
<!DOCTYPE svg PUBLIC "-//W3C//DTD SVG 1.1//EN" "http://www.w3.org/Graphics/SVG/1.1/DTD/svg11.dtd">
<svg version="1.1" id="Capa_1" xmlns="http://www.w3.org/2000/svg" xmlns:xlink="http://www.w3.org/1999/xlink" x="0px" y="0px"
	 width="38.476px" height="38.476px" viewBox="0 0 38.476 38.476" style="enable-background:new 0 0 38.476 38.476;"
	 xml:space="preserve">
<g>
	<path d="M33.721,13.478l2.236-1.286V9.62l-2.236-1.289L31.486,9.62v1.706l-2.168,1.247v-1.281c0-0.413-0.336-0.75-0.75-0.75
		s-0.75,0.337-0.75,0.75v2.146l-1.271,0.73v-4.062c0-0.414-0.336-0.75-0.75-0.75s-0.75,0.336-0.75,0.75v4.553
		c-1.188-1.506-2.946-2.539-4.949-2.772l4.019-2.319c0.358-0.207,0.481-0.666,0.274-1.024c-0.206-0.357-0.663-0.482-1.024-0.273
		l-3.378,1.951V8.751l1.714-0.99c0.359-0.207,0.481-0.666,0.275-1.023c-0.207-0.357-0.664-0.482-1.025-0.273l-0.964,0.557V4.717
		l1.485-0.856V1.286L19.238,0l-2.235,1.286v2.572l1.485,0.856v2.389L17.38,6.462c-0.359-0.209-0.818-0.084-1.024,0.273
		c-0.207,0.357-0.084,0.816,0.274,1.023l1.858,1.073v1.47l-3.522-2.035c-0.36-0.207-0.818-0.082-1.024,0.274
		c-0.207,0.358-0.084,0.817,0.274,1.024l4.047,2.338c-2.039,0.27-3.813,1.37-4.98,2.951l-0.002-4.749c0-0.414-0.336-0.75-0.75-0.75
		s-0.75,0.336-0.75,0.75l0.002,3.978L10.51,13.35v-2.06c0-0.413-0.336-0.75-0.75-0.75s-0.75,0.337-0.75,0.75v1.196l-2.02-1.162
		V9.618L4.756,8.329L2.521,9.618v2.572l2.235,1.286l1.482-0.852l2.022,1.164l-1.039,0.601c-0.358,0.207-0.481,0.666-0.274,1.023
		c0.14,0.24,0.392,0.375,0.649,0.375c0.127,0,0.257-0.031,0.375-0.102l1.791-1.033l1.274,0.734L7.579,17.38
		c-0.358,0.207-0.481,0.666-0.274,1.024c0.14,0.239,0.392,0.375,0.65,0.375c0.127,0,0.256-0.032,0.374-0.101l4.106-2.371
		c-0.389,0.898-0.606,1.89-0.606,2.93c0,1.02,0.207,1.99,0.581,2.875l-4.081-2.354c-0.358-0.209-0.817-0.084-1.024,0.272
		c-0.207,0.357-0.084,0.816,0.274,1.023l3.492,2.018l-1.274,0.732l-1.826-1.057c-0.36-0.207-0.818-0.082-1.024,0.275
		c-0.207,0.356-0.084,0.815,0.274,1.022l1.074,0.62l-2.06,1.185l-1.481-0.854l-2.236,1.291l0.002,2.572l2.234,1.287l2.235-1.287
		v-1.709l2.021-1.162v1.155c0,0.414,0.336,0.75,0.75,0.75s0.75-0.336,0.75-0.75v-2.021l1.271-0.729v3.938
		c0,0.414,0.336,0.75,0.75,0.75s0.75-0.336,0.75-0.75v-4.709c1.156,1.566,2.91,2.66,4.925,2.943l-3.99,2.305
		c-0.358,0.207-0.481,0.666-0.274,1.022c0.206,0.356,0.664,0.483,1.024,0.274l3.522-2.034v1.469l-1.858,1.074
		c-0.358,0.207-0.481,0.666-0.274,1.022c0.206,0.357,0.665,0.482,1.024,0.273l1.108-0.641v2.432l-1.485,0.854v2.572l2.235,1.288
		l2.235-1.286v-2.572l-1.485-0.854v-2.348l0.965,0.557c0.117,0.068,0.246,0.102,0.373,0.102c0.261,0,0.513-0.135,0.65-0.375
		c0.207-0.356,0.084-0.815-0.273-1.022l-1.715-0.989v-1.466l3.379,1.951c0.117,0.067,0.246,0.101,0.373,0.101
		c0.261,0,0.513-0.136,0.65-0.375c0.207-0.357,0.084-0.816-0.273-1.023l-3.961-2.287c1.979-0.246,3.713-1.271,4.894-2.766v4.514
		c0,0.414,0.336,0.75,0.75,0.75s0.75-0.336,0.75-0.75v-4.021l1.271,0.731v2.104c0,0.414,0.336,0.75,0.75,0.75s0.75-0.336,0.75-0.75
		v-1.24l2.166,1.246v1.709l2.235,1.285l2.233-1.285l0.003-2.572l-2.236-1.287l-1.481,0.854l-2.133-1.227l1-0.578
		c0.358-0.207,0.481-0.666,0.274-1.023c-0.207-0.356-0.666-0.481-1.024-0.274l-1.752,1.015l-1.273-0.734l3.42-1.973
		c0.357-0.207,0.48-0.666,0.273-1.025c-0.207-0.355-0.664-0.48-1.023-0.273l-3.896,2.25c0.346-0.855,0.541-1.789,0.541-2.769
		c0-0.998-0.201-1.948-0.56-2.817l3.912,2.26c0.118,0.068,0.247,0.101,0.374,0.101c0.261,0,0.513-0.135,0.65-0.375
		c0.207-0.358,0.084-0.817-0.274-1.024l-3.386-1.953l1.275-0.732l1.717,0.991c0.117,0.067,0.248,0.101,0.375,0.101
		c0.26,0,0.512-0.135,0.648-0.375c0.207-0.357,0.084-0.816-0.273-1.023l-0.965-0.563l2.098-1.207L33.721,13.478z M19.987,25.095
		c-0.246,0.03-0.495,0.054-0.75,0.054s-0.504-0.021-0.75-0.054c-1.607-0.205-3.012-1.058-3.947-2.287
		c-0.303-0.397-0.561-0.829-0.756-1.297c-0.292-0.698-0.455-1.467-0.455-2.271c0-0.804,0.163-1.572,0.455-2.271
		c0.195-0.467,0.453-0.898,0.756-1.297c0.938-1.229,2.34-2.082,3.947-2.287c0.246-0.03,0.495-0.053,0.75-0.053
		s0.504,0.021,0.75,0.053c1.607,0.205,3.012,1.058,3.947,2.287c0.303,0.397,0.561,0.83,0.756,1.297
		c0.293,0.699,0.455,1.467,0.455,2.271c0,0.804-0.162,1.573-0.455,2.271c-0.195,0.468-0.453,0.897-0.756,1.297
		C22.999,24.039,21.594,24.89,19.987,25.095z"/>
</g>
<g>
</g>
<g>
</g>
<g>
</g>
<g>
</g>
<g>
</g>
<g>
</g>
<g>
</g>
<g>
</g>
<g>
</g>
<g>
</g>
<g>
</g>
<g>
</g>
<g>
</g>
<g>
</g>
<g>
</g>
</svg>
