<?xml version="1.0" encoding="iso-8859-1"?>
<!-- Generator: Adobe Illustrator 16.0.0, SVG Export Plug-In . SVG Version: 6.00 Build 0)  -->
<!DOCTYPE svg PUBLIC "-//W3C//DTD SVG 1.1//EN" "http://www.w3.org/Graphics/SVG/1.1/DTD/svg11.dtd">
<svg version="1.1" id="Capa_1" xmlns="http://www.w3.org/2000/svg" xmlns:xlink="http://www.w3.org/1999/xlink" x="0px" y="0px"
	 width="32.292px" height="32.292px" viewBox="0 0 32.292 32.292" style="enable-background:new 0 0 32.292 32.292;"
	 xml:space="preserve">
<g>
	<path d="M31.769,15.627h-1.733l1.582-1.583c0.202-0.203,0.202-0.535,0-0.737c-0.202-0.203-0.535-0.203-0.736,0l-2.319,2.32h-0.073
		c-0.128-3.017-1.334-5.751-3.251-7.834l2.323-2.324c0.204-0.203,0.204-0.535,0-0.736c-0.201-0.202-0.533-0.202-0.736,0
		l-2.323,2.324c-2.083-1.917-4.817-3.125-7.835-3.251V3.733l2.317-2.321c0.203-0.202,0.203-0.534,0-0.736
		c-0.203-0.202-0.533-0.202-0.736,0l-1.581,1.583V0.523c0-0.286-0.233-0.521-0.521-0.521c-0.287,0-0.521,0.235-0.521,0.521v1.735
		l-1.583-1.583c-0.203-0.203-0.533-0.203-0.736,0c-0.203,0.202-0.203,0.533,0,0.736l2.319,2.32v0.073
		C12.608,3.93,9.874,5.137,7.791,7.053L5.468,4.73c-0.203-0.204-0.534-0.204-0.737,0c-0.203,0.203-0.203,0.533,0,0.736L7.054,7.79
		c-1.917,2.083-3.125,4.82-3.251,7.836H3.729L1.41,13.306c-0.203-0.202-0.534-0.202-0.736,0c-0.203,0.203-0.203,0.535,0,0.737
		l1.583,1.583H0.521C0.233,15.625,0,15.859,0,16.146s0.233,0.521,0.521,0.521h1.736l-1.583,1.585c-0.203,0.201-0.203,0.533,0,0.736
		c0.102,0.102,0.235,0.152,0.369,0.152s0.267-0.052,0.369-0.152l2.32-2.321h0.073c0.127,3.018,1.333,5.752,3.25,7.835l-2.322,2.322
		c-0.203,0.203-0.203,0.534,0,0.736c0.103,0.104,0.236,0.152,0.369,0.152c0.133,0,0.267-0.051,0.369-0.152l2.322-2.322
		c2.083,1.917,4.819,3.123,7.835,3.249v0.073l-2.318,2.319c-0.203,0.204-0.203,0.535,0,0.737c0.204,0.203,0.534,0.203,0.736,0
		l1.582-1.583v1.735c0,0.287,0.233,0.521,0.521,0.521c0.288,0,0.521-0.233,0.521-0.521v-1.735l1.584,1.583
		c0.104,0.104,0.236,0.152,0.369,0.152c0.132,0,0.267-0.051,0.369-0.152c0.202-0.202,0.202-0.533,0-0.737l-2.323-2.317V28.49
		c3.018-0.127,5.754-1.333,7.837-3.252l2.322,2.324c0.103,0.102,0.235,0.152,0.369,0.152c0.133,0,0.267-0.051,0.368-0.152
		c0.204-0.204,0.204-0.533,0-0.737l-2.321-2.323c1.915-2.083,3.123-4.817,3.249-7.834h0.073l2.319,2.316
		c0.104,0.104,0.235,0.152,0.368,0.152s0.267-0.051,0.368-0.152c0.204-0.203,0.204-0.533,0-0.736l-1.58-1.58h1.731
		c0.286,0,0.521-0.232,0.521-0.521S32.055,15.627,31.769,15.627z M7.789,8.527L8.46,9.2c-1.559,1.72-2.544,3.96-2.668,6.429h-0.95
		C4.969,12.897,6.058,10.421,7.789,8.527z M9.964,12.724l2.061,0.041l2.863,2.863H6.313c0.122-2.325,1.05-4.436,2.515-6.061
		l2.135,2.136l-0.977-0.021c-0.003,0-0.007,0-0.01,0c-0.283,0-0.516,0.229-0.521,0.511C9.45,12.479,9.678,12.718,9.964,12.724z
		 M10.006,20.625l0.938-0.015l-2.118,2.117c-1.464-1.627-2.391-3.736-2.514-6.06h8.573l-2.883,2.886l-2.013,0.03
		c-0.288,0.006-0.518,0.24-0.512,0.528C9.483,20.4,9.68,20.619,10.006,20.625z M7.788,23.767c-1.729-1.893-2.82-4.368-2.945-7.099
		h0.95c0.123,2.468,1.108,4.708,2.667,6.429L7.788,23.767z M15.624,27.45c-2.73-0.124-5.207-1.215-7.1-2.944l0.672-0.672
		c1.721,1.558,3.959,2.542,6.428,2.666V27.45L15.624,27.45z M15.624,25.979c-2.325-0.122-4.435-1.05-6.061-2.513l2.485-2.486
		l0.024,1.65c0.004,0.282,0.236,0.51,0.521,0.51c0.002,0,0.006,0,0.008,0c0.287-0.004,0.518-0.239,0.513-0.528l-0.04-2.661
		l2.548-2.547L15.624,25.979L15.624,25.979z M15.624,14.889l-2.573-2.574l0.048-2.61c0.005-0.285-0.225-0.525-0.512-0.529
		c-0.003,0-0.006,0-0.009,0c-0.283,0-0.516,0.226-0.521,0.51l-0.029,1.605L9.564,8.83c1.626-1.465,3.734-2.391,6.06-2.513V14.889
		L15.624,14.889z M15.624,5.796c-2.468,0.122-4.707,1.106-6.427,2.666L8.525,7.79c1.894-1.729,4.37-2.82,7.099-2.944V5.796z
		 M16.666,4.846c2.73,0.124,5.206,1.215,7.1,2.944l-0.672,0.673c-1.721-1.557-3.959-2.542-6.428-2.667V4.846L16.666,4.846z
		 M22.67,19.558l-2.41-0.035l-2.856-2.854h8.572c-0.122,2.323-1.05,4.434-2.513,6.06l-2.148-2.148l1.341,0.02
		c0.261-0.006,0.523-0.226,0.527-0.514C23.189,19.799,22.958,19.562,22.67,19.558z M17.401,15.627l2.883-2.882l2.365-0.047
		c0.288-0.006,0.516-0.242,0.51-0.531c-0.004-0.287-0.196-0.504-0.531-0.511l-1.28,0.024l2.114-2.115
		c1.465,1.627,2.391,3.735,2.515,6.06L17.401,15.627L17.401,15.627z M16.666,6.317c2.324,0.122,4.435,1.05,6.06,2.513l-2.146,2.146
		l-0.026-1.314c-0.004-0.287-0.212-0.48-0.531-0.51c-0.286,0.006-0.517,0.242-0.511,0.531l0.047,2.316l-2.893,2.893L16.666,6.317
		L16.666,6.317z M16.666,17.403l2.914,2.916l-0.03,2.272c-0.004,0.287,0.226,0.522,0.515,0.527c0.002,0,0.004,0,0.006,0
		c0.285,0,0.518-0.229,0.521-0.512l0.02-1.259l2.116,2.116c-1.627,1.465-3.735,2.394-6.062,2.515V17.403z M16.666,27.45V26.5
		c2.47-0.121,4.709-1.106,6.428-2.667l0.674,0.671C21.873,26.233,19.395,27.324,16.666,27.45z M24.501,23.767l-0.673-0.674
		c1.559-1.719,2.543-3.959,2.667-6.427h0.95C27.321,19.398,26.231,21.875,24.501,23.767z M26.498,15.627
		c-0.124-2.468-1.108-4.708-2.668-6.428l0.672-0.673c1.729,1.894,2.819,4.369,2.946,7.099L26.498,15.627L26.498,15.627z"/>
</g>
<g>
</g>
<g>
</g>
<g>
</g>
<g>
</g>
<g>
</g>
<g>
</g>
<g>
</g>
<g>
</g>
<g>
</g>
<g>
</g>
<g>
</g>
<g>
</g>
<g>
</g>
<g>
</g>
<g>
</g>
</svg>
