<?xml version="1.0" encoding="iso-8859-1"?>
<!-- Generator: Adobe Illustrator 16.0.0, SVG Export Plug-In . SVG Version: 6.00 Build 0)  -->
<!DOCTYPE svg PUBLIC "-//W3C//DTD SVG 1.1//EN" "http://www.w3.org/Graphics/SVG/1.1/DTD/svg11.dtd">
<svg version="1.1" id="Capa_1" xmlns="http://www.w3.org/2000/svg" xmlns:xlink="http://www.w3.org/1999/xlink" x="0px" y="0px"
	 width="32.646px" height="32.646px" viewBox="0 0 32.646 32.646" style="enable-background:new 0 0 32.646 32.646;"
	 xml:space="preserve">
<g>
	<path d="M31.896,15.572h-7.891l-2.937-2.934l0.119-0.119h6.152c0.414,0,0.75-0.336,0.75-0.75c0-0.414-0.336-0.75-0.75-0.75h-4.652
		l1.555-1.555h3.437c0.414,0,0.75-0.336,0.75-0.75s-0.336-0.75-0.75-0.75h-1.935l1.719-1.718c0.293-0.293,0.293-0.768,0-1.061
		c-0.293-0.293-0.768-0.293-1.061,0l-1.72,1.718V4.968c0-0.414-0.336-0.75-0.75-0.75s-0.75,0.336-0.75,0.75v3.435l-1.555,1.555
		V5.305c0-0.414-0.337-0.75-0.75-0.75c-0.414,0-0.75,0.336-0.75,0.75v6.153l-0.119,0.119l-2.934-2.934L17.074,0.75
		c0-0.414-0.335-0.75-0.75-0.75s-0.75,0.336-0.75,0.75l0.001,7.89l-2.885,2.885l0.001-5.808c0-0.414-0.336-0.75-0.75-0.75
		c-0.414,0-0.75,0.336-0.75,0.75l-0.001,4.41L9.642,8.58V5.145c0-0.415-0.336-0.75-0.75-0.75s-0.75,0.336-0.75,0.75v1.935
		L6.246,5.184c-0.293-0.293-0.769-0.293-1.062,0c-0.293,0.293-0.293,0.768,0,1.061L7.08,8.14H5.145c-0.414,0-0.75,0.336-0.75,0.75
		s0.336,0.75,0.75,0.75H8.58l1.548,1.548h-4.41c-0.414,0-0.75,0.336-0.75,0.75s0.336,0.75,0.75,0.75h5.81l-2.886,2.884h-7.89
		c-0.413,0-0.75,0.336-0.75,0.75s0.337,0.75,0.75,0.75h7.892l2.935,2.936l-0.119,0.119H5.309c-0.414,0-0.75,0.336-0.75,0.75
		c0,0.412,0.336,0.75,0.75,0.75H9.96l-1.555,1.555H4.97c-0.414,0-0.75,0.336-0.75,0.75s0.336,0.75,0.75,0.75h1.935l-1.718,1.718
		c-0.293,0.293-0.293,0.768,0,1.062c0.146,0.146,0.338,0.221,0.529,0.221c0.192,0,0.385-0.072,0.53-0.221l1.718-1.718v1.935
		c0,0.414,0.336,0.75,0.75,0.75s0.75-0.336,0.75-0.75v-3.436l1.555-1.555v4.652c0,0.414,0.336,0.75,0.75,0.75s0.75-0.336,0.75-0.75
		v-6.152l0.119-0.119l2.935,2.934l0.001,7.894c0,0.413,0.336,0.75,0.75,0.75s0.75-0.337,0.75-0.75v-7.894l2.885-2.885l-0.002,5.811
		c0,0.414,0.336,0.75,0.75,0.75s0.75-0.336,0.75-0.75l0.002-4.41l1.9,1.9v3.437c0,0.413,0.336,0.75,0.75,0.75s0.75-0.337,0.75-0.75
		v-1.937l1.541,1.541c0.146,0.146,0.338,0.221,0.528,0.221c0.192,0,0.386-0.073,0.531-0.221c0.293-0.293,0.293-0.768,0-1.061
		l-1.541-1.541h1.934c0.414,0,0.75-0.336,0.75-0.75s-0.336-0.75-0.75-0.75h-3.434l-1.902-1.902h4.41c0.414,0,0.75-0.336,0.75-0.75
		s-0.336-0.75-0.75-0.75h-5.812L24,17.07h7.894c0.414,0,0.75-0.335,0.75-0.75S32.31,15.572,31.896,15.572z M22.635,16.321
		l-0.75,0.75l-1.875,1.875l-1.061,1.062l-1.874,1.873l-0.75,0.75l-0.75-0.75l-1.873-1.873l-1.062-1.062l-1.873-1.873l-0.75-0.751
		l0.748-0.749l1.875-1.875l1.062-1.061l1.875-1.875l0.749-0.749l0.751,0.751l1.874,1.873l1.061,1.061l1.873,1.873L22.635,16.321z"/>
</g>
<g>
</g>
<g>
</g>
<g>
</g>
<g>
</g>
<g>
</g>
<g>
</g>
<g>
</g>
<g>
</g>
<g>
</g>
<g>
</g>
<g>
</g>
<g>
</g>
<g>
</g>
<g>
</g>
<g>
</g>
</svg>
