<?xml version="1.0" encoding="iso-8859-1"?>
<!-- Generator: Adobe Illustrator 16.0.0, SVG Export Plug-In . SVG Version: 6.00 Build 0)  -->
<!DOCTYPE svg PUBLIC "-//W3C//DTD SVG 1.1//EN" "http://www.w3.org/Graphics/SVG/1.1/DTD/svg11.dtd">
<svg version="1.1" id="Capa_1" xmlns="http://www.w3.org/2000/svg" xmlns:xlink="http://www.w3.org/1999/xlink" x="0px" y="0px"
	 width="37.279px" height="37.28px" viewBox="0 0 37.279 37.28" style="enable-background:new 0 0 37.279 37.28;"
	 xml:space="preserve">
<g>
	<path d="M34.591,27.251l-1.021-0.59v-2.57c0-0.188-0.101-0.358-0.26-0.452l-2.484-1.435c-0.161-0.092-0.362-0.092-0.521,0
		l-2.228,1.284l-1.677-0.969l5.966-1.599c0.277-0.074,0.442-0.36,0.369-0.638c-0.074-0.277-0.361-0.442-0.638-0.368l-6.973,1.867
		l-0.114-0.066v-6.152l0.119-0.07l6.968,1.867c0.045,0.013,0.091,0.018,0.136,0.018c0.229,0,0.439-0.153,0.502-0.386
		c0.072-0.278-0.093-0.563-0.369-0.638l-5.961-1.598l1.671-0.967l2.224,1.284c0.082,0.045,0.171,0.069,0.261,0.069
		c0.092,0,0.181-0.023,0.261-0.069l2.488-1.435c0.159-0.093,0.26-0.266,0.26-0.452l-0.002-2.566l1.022-0.592
		c0.249-0.143,0.335-0.462,0.192-0.711c-0.146-0.25-0.464-0.334-0.713-0.19L33.048,9.72l-2.226-1.285
		c-0.159-0.093-0.359-0.093-0.521,0l-2.483,1.433c-0.161,0.093-0.261,0.265-0.261,0.451v2.57l-1.675,0.968l1.598-5.966
		c0.074-0.278-0.091-0.563-0.368-0.638c-0.275-0.074-0.563,0.089-0.638,0.369l-1.868,6.972l-0.119,0.069l-5.326-3.074v-0.137
		l5.101-5.101c0.203-0.204,0.203-0.534,0-0.736c-0.201-0.204-0.533-0.204-0.736,0l-4.365,4.364V8.041l2.223-1.28
		c0.162-0.093,0.261-0.265,0.261-0.451V3.438c0-0.187-0.099-0.358-0.261-0.451l-2.223-1.284V0.521C19.161,0.233,18.927,0,18.64,0
		c-0.288,0-0.521,0.233-0.521,0.521v1.183l-2.224,1.284c-0.162,0.093-0.261,0.265-0.261,0.451V6.31c0,0.186,0.1,0.358,0.261,0.451
		l2.223,1.28v1.938l-4.366-4.364c-0.204-0.204-0.534-0.204-0.736,0c-0.204,0.203-0.204,0.533,0,0.736l5.102,5.101v0.137
		l-5.328,3.076l-0.118-0.069l-1.868-6.972c-0.074-0.277-0.361-0.442-0.638-0.369C9.889,7.329,9.724,7.616,9.798,7.893l1.599,5.966
		L9.719,12.89v-2.569c0-0.187-0.099-0.358-0.261-0.451L6.977,8.437c-0.161-0.093-0.36-0.093-0.521,0L4.231,9.722L3.208,9.13
		C2.958,8.986,2.64,9.072,2.496,9.32c-0.144,0.25-0.059,0.568,0.191,0.711l1.024,0.592l-0.002,2.565
		c0,0.186,0.099,0.358,0.261,0.452l2.484,1.435c0.081,0.045,0.171,0.069,0.261,0.069s0.18-0.022,0.26-0.069l2.224-1.285l1.675,0.968
		l-5.961,1.598c-0.278,0.074-0.442,0.36-0.369,0.637c0.062,0.233,0.273,0.387,0.502,0.387c0.045,0,0.089-0.005,0.135-0.018
		l6.968-1.867l0.121,0.07v6.152l-0.117,0.066l-6.972-1.867c-0.277-0.073-0.563,0.091-0.638,0.368
		c-0.074,0.278,0.091,0.563,0.369,0.637l5.967,1.599l-1.679,0.97l-2.225-1.284c-0.161-0.094-0.36-0.094-0.521,0L3.97,23.639
		c-0.161,0.094-0.261,0.264-0.261,0.452l-0.001,2.57L2.687,27.25c-0.25,0.143-0.335,0.461-0.191,0.712
		c0.097,0.167,0.272,0.26,0.452,0.26c0.088,0,0.178-0.022,0.26-0.069l1.024-0.592l2.222,1.286c0.081,0.045,0.17,0.069,0.261,0.069
		c0.089,0,0.18-0.022,0.26-0.069l2.484-1.437c0.16-0.094,0.26-0.265,0.26-0.452v-2.566l1.676-0.969L9.8,29.386
		c-0.074,0.278,0.091,0.563,0.369,0.637c0.044,0.014,0.09,0.019,0.135,0.019c0.23,0,0.44-0.152,0.502-0.385l1.866-6.968l0.12-0.069
		l5.327,3.076v0.132l-5.102,5.103c-0.203,0.204-0.203,0.533,0,0.736c0.203,0.204,0.533,0.204,0.736,0l4.366-4.365v1.938
		l-2.223,1.282c-0.162,0.091-0.261,0.264-0.261,0.449v2.871c0,0.187,0.099,0.358,0.261,0.451l2.224,1.284v1.182
		c0,0.287,0.233,0.521,0.521,0.521c0.287,0,0.521-0.233,0.521-0.521v-1.182l2.224-1.283c0.162-0.093,0.261-0.265,0.261-0.452v-2.871
		c0-0.186-0.1-0.358-0.261-0.449l-2.225-1.28v-1.938l4.365,4.367c0.104,0.103,0.237,0.152,0.369,0.152s0.267-0.051,0.368-0.152
		c0.203-0.203,0.203-0.533,0-0.737l-5.101-5.104v-0.134l5.328-3.076l0.118,0.069l1.866,6.967c0.063,0.232,0.274,0.386,0.502,0.386
		c0.045,0,0.09-0.005,0.136-0.018c0.277-0.074,0.442-0.36,0.368-0.638l-1.594-5.962l1.675,0.97v2.564
		c0,0.187,0.101,0.357,0.261,0.451l2.486,1.437c0.079,0.047,0.169,0.069,0.26,0.069c0.09,0,0.181-0.022,0.261-0.069l2.221-1.284
		l1.022,0.59c0.082,0.047,0.172,0.071,0.261,0.071c0.18,0,0.355-0.094,0.453-0.26C34.928,27.711,34.842,27.393,34.591,27.251z
		 M28.601,10.622l1.963-1.132l1.444,0.834l0.521,0.301v0.602l0.001,1.665l-1.968,1.133l-1.442-0.833L28.6,12.892v-0.603
		L28.601,10.622L28.601,10.622z M6.715,14.024l-1.963-1.133l0.001-1.665v-0.602l0.521-0.301l1.443-0.833l1.961,1.132v1.667v0.603
		l-0.521,0.301L6.715,14.024z M8.679,26.657l-1.964,1.137l-1.441-0.834L4.75,26.657v-0.599v-1.667l1.962-1.132l1.444,0.833
		l0.521,0.3v0.603L8.679,26.657L8.679,26.657z M19.161,24.494l-0.521,0.301l-0.521-0.301l-4.285-2.477l-0.521-0.301v-0.603v-4.947
		v-0.602l0.521-0.301l4.285-2.475l0.521-0.301l0.521,0.301l4.285,2.475l0.521,0.301v0.602v4.947v0.603l-0.521,0.301L19.161,24.494z
		 M16.677,3.738l1.442-0.833l0.521-0.301l0.521,0.301l1.443,0.833v2.269l-1.443,0.831l-0.521,0.3l-0.521-0.3l-1.442-0.831V3.738z
		 M20.604,33.545l-1.443,0.834l-0.521,0.3l-0.521-0.302l-1.442-0.833v-2.269l1.442-0.832l0.521-0.299l0.521,0.299l1.443,0.832
		V33.545z M30.565,27.793l-1.965-1.136v-1.663v-0.604l0.52-0.3l1.445-0.833l1.964,1.133v1.667v0.599l-0.522,0.303L30.565,27.793z"/>
</g>
<g>
</g>
<g>
</g>
<g>
</g>
<g>
</g>
<g>
</g>
<g>
</g>
<g>
</g>
<g>
</g>
<g>
</g>
<g>
</g>
<g>
</g>
<g>
</g>
<g>
</g>
<g>
</g>
<g>
</g>
</svg>
