<?xml version="1.0" encoding="iso-8859-1"?>
<!-- Generator: Adobe Illustrator 16.0.0, SVG Export Plug-In . SVG Version: 6.00 Build 0)  -->
<!DOCTYPE svg PUBLIC "-//W3C//DTD SVG 1.1//EN" "http://www.w3.org/Graphics/SVG/1.1/DTD/svg11.dtd">
<svg version="1.1" id="Capa_1" xmlns="http://www.w3.org/2000/svg" xmlns:xlink="http://www.w3.org/1999/xlink" x="0px" y="0px"
	 width="30.091px" height="30.092px" viewBox="0 0 30.091 30.092" style="enable-background:new 0 0 30.091 30.092;"
	 xml:space="preserve">
<g>
	<path d="M29.346,14.292h-5.108l2.416-2.417c0.293-0.293,0.293-0.768,0-1.061s-0.769-0.293-1.062,0l-3.696,3.696l-0.106,0.105
		c-0.091-1.426-0.619-2.733-1.462-3.785l2.039-2.039h4.045c0.414,0,0.75-0.336,0.75-0.75s-0.336-0.75-0.75-0.75h-2.545l2.326-2.326
		c0.293-0.293,0.293-0.768,0-1.061s-0.77-0.293-1.062,0l-2.324,2.324V3.685c0-0.414-0.336-0.75-0.75-0.75
		c-0.413,0-0.75,0.336-0.75,0.75v4.043l-2.041,2.041c-1.051-0.843-2.356-1.371-3.784-1.463l0.104-0.104l3.696-3.696
		c0.293-0.293,0.293-0.768,0-1.061s-0.77-0.293-1.062,0l-2.416,2.416V0.75c0-0.414-0.335-0.75-0.75-0.75s-0.75,0.336-0.75,0.75
		v5.111l-2.417-2.418c-0.293-0.293-0.768-0.293-1.061,0s-0.293,0.769,0,1.062l3.697,3.697l0.104,0.104
		c-1.429,0.09-2.737,0.617-3.79,1.459L8.801,7.728V3.683c0-0.414-0.336-0.75-0.75-0.75s-0.75,0.336-0.75,0.75v2.545L4.976,3.904
		c-0.293-0.293-0.768-0.293-1.061,0c-0.294,0.293-0.294,0.768,0,1.061L6.24,7.29L3.695,7.289c-0.414,0-0.75,0.336-0.75,0.75
		s0.336,0.75,0.75,0.75L7.74,8.791l2.037,2.036C8.93,11.881,8.4,13.191,8.312,14.623l-0.105-0.105L4.51,10.821
		c-0.293-0.293-0.768-0.293-1.061,0s-0.293,0.769,0,1.062L5.865,14.3h-5.11c-0.414,0-0.75,0.336-0.75,0.75s0.336,0.75,0.75,0.75
		h5.11l-2.416,2.416c-0.293,0.293-0.293,0.769,0,1.062c0.146,0.146,0.338,0.221,0.531,0.221c0.191,0,0.383-0.073,0.529-0.221
		l3.695-3.695l0.105-0.105c0.092,1.428,0.62,2.733,1.463,3.785l-2.033,2.033H3.692c-0.414,0-0.75,0.336-0.75,0.75
		s0.336,0.75,0.75,0.75h2.547l-2.326,2.326c-0.293,0.293-0.293,0.768,0,1.061c0.146,0.146,0.338,0.221,0.529,0.221
		c0.192,0,0.385-0.072,0.53-0.221l2.325-2.324V26.4c0,0.414,0.336,0.75,0.75,0.75s0.75-0.336,0.75-0.75v-4.043l2.034-2.035
		c1.052,0.844,2.358,1.373,3.786,1.464l-0.105,0.104l-3.695,3.696c-0.293,0.293-0.293,0.769,0,1.062s0.768,0.293,1.061,0
		l2.416-2.418v5.111c0,0.414,0.336,0.75,0.75,0.75s0.75-0.336,0.75-0.75V24.23l2.416,2.418c0.146,0.146,0.338,0.221,0.529,0.221
		c0.19,0,0.385-0.073,0.531-0.221c0.293-0.293,0.293-0.769,0-1.062l-3.698-3.696l-0.105-0.104c1.432-0.091,2.742-0.62,3.794-1.466
		l2.037,2.037v4.045c0,0.414,0.336,0.75,0.75,0.75s0.75-0.336,0.75-0.75v-2.545l2.326,2.324c0.146,0.146,0.338,0.221,0.528,0.221
		c0.191,0,0.386-0.072,0.531-0.221c0.293-0.293,0.293-0.768,0-1.061l-2.326-2.325l2.545,0.001c0.414,0,0.75-0.336,0.75-0.75
		s-0.336-0.75-0.75-0.75l-4.045-0.002l-2.037-2.036c0.843-1.053,1.371-2.36,1.459-3.789l0.105,0.105l3.697,3.696
		c0.146,0.146,0.338,0.221,0.529,0.221c0.19,0,0.385-0.073,0.531-0.221c0.293-0.293,0.293-0.769,0-1.062l-2.419-2.417h5.111
		c0.414,0,0.75-0.336,0.75-0.75S29.76,14.292,29.346,14.292z M18.193,19.238c-0.879,0.658-1.957,1.062-3.14,1.062
		c-1.18,0-2.257-0.402-3.135-1.062c-0.403-0.303-0.76-0.656-1.061-1.062c-0.658-0.878-1.062-1.954-1.062-3.135
		c0-1.181,0.404-2.261,1.064-3.14c0.303-0.401,0.657-0.758,1.062-1.06c0.877-0.655,1.954-1.06,3.132-1.06
		c1.181,0,2.256,0.404,3.136,1.062c0.401,0.302,0.76,0.657,1.061,1.062c0.658,0.878,1.062,1.955,1.062,3.135
		c0,1.178-0.402,2.255-1.062,3.132C18.949,18.58,18.594,18.936,18.193,19.238z"/>
</g>
<g>
</g>
<g>
</g>
<g>
</g>
<g>
</g>
<g>
</g>
<g>
</g>
<g>
</g>
<g>
</g>
<g>
</g>
<g>
</g>
<g>
</g>
<g>
</g>
<g>
</g>
<g>
</g>
<g>
</g>
</svg>
