<?xml version="1.0" encoding="iso-8859-1"?>
<!-- Generator: Adobe Illustrator 16.0.0, SVG Export Plug-In . SVG Version: 6.00 Build 0)  -->
<!DOCTYPE svg PUBLIC "-//W3C//DTD SVG 1.1//EN" "http://www.w3.org/Graphics/SVG/1.1/DTD/svg11.dtd">
<svg version="1.1" id="Capa_1" xmlns="http://www.w3.org/2000/svg" xmlns:xlink="http://www.w3.org/1999/xlink" x="0px" y="0px"
	 width="33.445px" height="33.445px" viewBox="0 0 33.445 33.445" style="enable-background:new 0 0 33.445 33.445;"
	 xml:space="preserve">
<g>
	<path d="M31.594,18.202l-7.726,2.067l-1.943-1.123v-4.852l1.945-1.124l7.724,2.069c0.043,0.012,0.086,0.017,0.129,0.017
		c0.221,0,0.423-0.147,0.481-0.371c0.072-0.267-0.086-0.541-0.354-0.612l-6.756-1.81l2.735-1.58l1.438,0.829l1.937-1.117V8.359
		l-1.937-1.118L27.33,8.359v1.658l-2.734,1.58l1.812-6.755c0.07-0.267-0.088-0.541-0.354-0.612c-0.271-0.07-0.54,0.086-0.613,0.354
		l-2.067,7.721l-1.945,1.124l-4.205-2.426V8.756l5.651-5.653c0.195-0.195,0.195-0.512,0-0.707c-0.194-0.195-0.512-0.195-0.707,0
		l-4.944,4.946V4.183l1.438-0.83V1.117L16.723,0l-1.938,1.117v2.236l1.438,0.83v3.159l-4.945-4.946
		c-0.195-0.195-0.512-0.195-0.707,0c-0.195,0.195-0.195,0.512,0,0.707l5.652,5.653v2.247l-4.203,2.426l-1.945-1.124L8.007,4.584
		C7.935,4.317,7.663,4.16,7.394,4.23C7.125,4.301,6.969,4.576,7.04,4.842l1.811,6.755l-2.734-1.58V8.359L4.179,7.241L2.241,8.359
		v2.236l1.938,1.117l1.438-0.829l2.735,1.58l-6.756,1.81c-0.269,0.071-0.427,0.346-0.354,0.612c0.062,0.224,0.264,0.371,0.483,0.371
		c0.043,0,0.086-0.005,0.129-0.017l7.724-2.069l1.945,1.124v4.852L9.578,20.27l-7.725-2.067c-0.262-0.069-0.54,0.086-0.612,0.354
		c-0.07,0.268,0.088,0.541,0.354,0.61l6.757,1.812l-2.736,1.58l-1.437-0.83l-1.938,1.119l0.002,2.235L4.18,26.2l1.937-1.117v-1.659
		l2.735-1.578L7.04,28.6c-0.07,0.268,0.088,0.541,0.354,0.613c0.044,0.012,0.087,0.016,0.13,0.016c0.221,0,0.424-0.146,0.483-0.371
		l2.069-7.721l1.944-1.123l4.202,2.426v2.248l-5.652,5.654c-0.195,0.194-0.195,0.512,0,0.707c0.195,0.194,0.512,0.194,0.707,0
		l4.945-4.947v3.16l-1.438,0.83v2.235l1.939,1.118l1.938-1.117v-2.236l-1.438-0.83v-3.16l4.944,4.947
		c0.099,0.098,0.227,0.146,0.354,0.146c0.129,0,0.256-0.051,0.354-0.146c0.195-0.195,0.195-0.512,0-0.707l-5.652-5.654v-2.248
		l4.202-2.426l1.943,1.123l2.069,7.723c0.062,0.225,0.263,0.371,0.483,0.371c0.043,0,0.086-0.006,0.13-0.018
		c0.267-0.07,0.425-0.347,0.354-0.611l-1.812-6.756l2.734,1.58v1.657l1.938,1.117l1.937-1.117l0.002-2.235l-1.938-1.117
		l-1.438,0.828l-2.735-1.58l6.757-1.809c0.269-0.072,0.427-0.347,0.354-0.613C32.134,18.29,31.857,18.133,31.594,18.202z
		 M20.925,14.873v3.697v0.578l-0.5,0.289l-3.202,1.85l-0.5,0.289l-0.5-0.289l-3.202-1.85l-0.5-0.289V18.57v-3.697v-0.579
		l0.499-0.288l3.203-1.848l0.5-0.289l0.5,0.289l3.203,1.849l0.499,0.288V14.873z"/>
</g>
<g>
</g>
<g>
</g>
<g>
</g>
<g>
</g>
<g>
</g>
<g>
</g>
<g>
</g>
<g>
</g>
<g>
</g>
<g>
</g>
<g>
</g>
<g>
</g>
<g>
</g>
<g>
</g>
<g>
</g>
</svg>
