<?xml version="1.0" encoding="iso-8859-1"?>
<!-- Generator: Adobe Illustrator 16.0.0, SVG Export Plug-In . SVG Version: 6.00 Build 0)  -->
<!DOCTYPE svg PUBLIC "-//W3C//DTD SVG 1.1//EN" "http://www.w3.org/Graphics/SVG/1.1/DTD/svg11.dtd">
<svg version="1.1" id="Capa_1" xmlns="http://www.w3.org/2000/svg" xmlns:xlink="http://www.w3.org/1999/xlink" x="0px" y="0px"
	 width="36.075px" height="36.075px" viewBox="0 0 36.075 36.075" style="enable-background:new 0 0 36.075 36.075;"
	 xml:space="preserve">
<g>
	<path d="M33.528,19.579l-8.045,2.154l-2.025-1.17v-5.055l2.026-1.171l8.045,2.155c0.045,0.012,0.091,0.018,0.136,0.018
		c0.23,0,0.44-0.153,0.501-0.387c0.074-0.278-0.09-0.563-0.369-0.638L26.759,13.6l6.708-3.873c0.248-0.144,0.333-0.462,0.19-0.711
		c-0.145-0.25-0.465-0.335-0.712-0.19l-6.706,3.873l1.886-7.037c0.073-0.278-0.091-0.563-0.369-0.638
		c-0.276-0.074-0.563,0.089-0.638,0.369l-2.155,8.043l-2.027,1.171l-4.377-2.527V9.739l5.887-5.889c0.204-0.203,0.204-0.533,0-0.737
		c-0.202-0.203-0.533-0.203-0.736,0l-5.15,5.153V0.521C18.559,0.234,18.325,0,18.038,0c-0.287,0-0.521,0.234-0.521,0.521v7.745
		l-5.151-5.153c-0.204-0.203-0.534-0.203-0.737,0c-0.203,0.204-0.203,0.534,0,0.737l5.888,5.889v2.341l-4.378,2.527l-2.028-1.171
		L8.955,5.393C8.88,5.114,8.598,4.949,8.318,5.024C8.04,5.098,7.875,5.384,7.949,5.662l1.885,7.037L3.128,8.825
		C2.88,8.68,2.561,8.766,2.417,9.016c-0.144,0.249-0.058,0.567,0.19,0.711L9.316,13.6l-7.039,1.885
		C2,15.56,1.834,15.846,1.909,16.123c0.062,0.233,0.272,0.387,0.502,0.387c0.045,0,0.09-0.006,0.135-0.018l8.045-2.155l2.027,1.171
		v5.055l-2.026,1.17L2.547,19.58c-0.274-0.074-0.563,0.089-0.637,0.369C1.835,20.227,2,20.512,2.278,20.584l7.039,1.887
		l-6.708,3.874c-0.249,0.143-0.334,0.462-0.19,0.712c0.097,0.167,0.272,0.261,0.452,0.261c0.088,0,0.178-0.022,0.26-0.071
		l6.708-3.872L7.952,30.41c-0.074,0.28,0.091,0.563,0.369,0.639c0.045,0.013,0.091,0.017,0.135,0.017c0.23,0,0.44-0.151,0.503-0.386
		l2.155-8.043l2.027-1.17l4.376,2.529v2.339l-5.888,5.891c-0.203,0.203-0.203,0.532,0,0.736c0.203,0.203,0.533,0.203,0.737,0
		l5.151-5.153v7.746c0,0.288,0.233,0.521,0.521,0.521c0.288,0,0.521-0.232,0.521-0.521v-7.746l5.15,5.153
		c0.103,0.102,0.236,0.152,0.368,0.152c0.133,0,0.268-0.053,0.369-0.152c0.204-0.204,0.204-0.533,0-0.736l-5.888-5.893v-2.34
		l4.377-2.526l2.026,1.17l2.155,8.043c0.062,0.234,0.273,0.386,0.502,0.386c0.045,0,0.09-0.004,0.136-0.017
		c0.278-0.075,0.442-0.361,0.369-0.639l-1.887-7.035l6.707,3.872c0.083,0.048,0.172,0.071,0.261,0.071
		c0.18,0,0.354-0.094,0.452-0.261c0.144-0.25,0.059-0.567-0.19-0.712l-6.708-3.874l7.038-1.886c0.279-0.073,0.443-0.361,0.369-0.637
		C34.093,19.671,33.809,19.505,33.528,19.579z M18.559,22.791l-0.521,0.303l-0.521-0.302l-3.335-1.928l-0.521-0.301v-0.602V16.11
		v-0.603l0.521-0.3l3.336-1.926l0.521-0.301l0.521,0.301l3.337,1.926l0.521,0.3v0.603v3.851v0.602l-0.521,0.301L18.559,22.791z"/>
</g>
<g>
</g>
<g>
</g>
<g>
</g>
<g>
</g>
<g>
</g>
<g>
</g>
<g>
</g>
<g>
</g>
<g>
</g>
<g>
</g>
<g>
</g>
<g>
</g>
<g>
</g>
<g>
</g>
<g>
</g>
</svg>
