<?xml version="1.0" encoding="iso-8859-1"?>
<!-- Generator: Adobe Illustrator 16.0.0, SVG Export Plug-In . SVG Version: 6.00 Build 0)  -->
<!DOCTYPE svg PUBLIC "-//W3C//DTD SVG 1.1//EN" "http://www.w3.org/Graphics/SVG/1.1/DTD/svg11.dtd">
<svg version="1.1" id="Capa_1" xmlns="http://www.w3.org/2000/svg" xmlns:xlink="http://www.w3.org/1999/xlink" x="0px" y="0px"
	 width="31.504px" height="31.504px" viewBox="0 0 31.504 31.504" style="enable-background:new 0 0 31.504 31.504;"
	 xml:space="preserve">
<g>
	<path d="M30.754,15.002h-6.99l3.117-3.119c0.293-0.293,0.293-0.768,0-1.061s-0.768-0.293-1.061,0l-3.283,3.283l-5.26-5.259
		l3.576-3.575c0.293-0.293,0.293-0.768,0-1.061s-0.769-0.293-1.062,0L16.501,7.5V0.75c0-0.414-0.335-0.75-0.75-0.75
		s-0.75,0.336-0.75,0.75V7.5l-3.289-3.29c-0.293-0.293-0.768-0.293-1.061,0s-0.293,0.768,0,1.061l3.575,3.575l-5.258,5.259
		l-3.283-3.283c-0.293-0.293-0.768-0.293-1.061,0s-0.293,0.768,0,1.061l3.118,3.119h-6.99c-0.414,0-0.75,0.336-0.75,0.75
		s0.336,0.75,0.75,0.75h6.991l-3.118,3.119c-0.293,0.293-0.293,0.77,0,1.062c0.146,0.146,0.338,0.219,0.53,0.219
		c0.192,0,0.384-0.071,0.53-0.219L8.968,17.4l5.258,5.259l-3.574,3.573c-0.293,0.293-0.293,0.768,0,1.061s0.768,0.293,1.061,0
		l3.289-3.289v6.75c0,0.414,0.336,0.75,0.75,0.75s0.75-0.336,0.75-0.75v-6.75l3.291,3.291c0.146,0.146,0.338,0.221,0.529,0.221
		s0.385-0.074,0.529-0.221c0.293-0.293,0.293-0.77,0-1.062l-3.574-3.574l5.258-5.26l3.283,3.283
		c0.146,0.146,0.338,0.221,0.531,0.221c0.19,0,0.383-0.072,0.528-0.221c0.293-0.294,0.293-0.769,0-1.062l-3.116-3.118h6.99
		c0.414,0,0.75-0.335,0.75-0.75S31.168,15.002,30.754,15.002z M16.218,21.596l-0.465,0.467l-0.465-0.467l-0.285-0.283l-4.809-4.811
		l-0.164-0.164l-0.585-0.584l0.586-0.586l0.165-0.165l4.808-4.809l0.286-0.285l0.464-0.465l0.465,0.465l0.285,0.285l4.811,4.809
		l0.164,0.165l0.586,0.584l-0.586,0.584l-0.166,0.166l-4.809,4.809L16.218,21.596z M27.295,26.232c0.293,0.293,0.293,0.768,0,1.061
		c-0.146,0.146-0.338,0.221-0.531,0.221c-0.191,0-0.383-0.072-0.529-0.221l-2.61-2.611c-0.293-0.293-0.293-0.768,0-1.061
		s0.769-0.293,1.062,0L27.295,26.232z M8.299,23.621c0.293,0.293,0.293,0.768,0,1.061l-2.612,2.611
		c-0.146,0.146-0.338,0.221-0.53,0.221c-0.192,0-0.384-0.072-0.53-0.221c-0.293-0.293-0.293-0.768,0-1.061l2.612-2.611
		C7.531,23.328,8.006,23.328,8.299,23.621z M4.627,5.964C4.335,5.671,4.335,5.196,4.628,4.903C4.92,4.611,5.396,4.61,5.689,4.904
		l2.61,2.614c0.292,0.293,0.292,0.768-0.001,1.061C8.152,8.725,7.96,8.798,7.768,8.798s-0.384-0.073-0.531-0.22L4.627,5.964z
		 M23.621,8.585c-0.293-0.293-0.293-0.768,0-1.061l2.613-2.611c0.293-0.292,0.77-0.292,1.062,0c0.291,0.293,0.291,0.768,0,1.061
		l-2.615,2.611c-0.146,0.146-0.338,0.219-0.529,0.219C23.96,8.804,23.768,8.731,23.621,8.585z"/>
</g>
<g>
</g>
<g>
</g>
<g>
</g>
<g>
</g>
<g>
</g>
<g>
</g>
<g>
</g>
<g>
</g>
<g>
</g>
<g>
</g>
<g>
</g>
<g>
</g>
<g>
</g>
<g>
</g>
<g>
</g>
</svg>
