<?xml version="1.0" encoding="iso-8859-1"?>
<!-- Generator: Adobe Illustrator 16.0.0, SVG Export Plug-In . SVG Version: 6.00 Build 0)  -->
<!DOCTYPE svg PUBLIC "-//W3C//DTD SVG 1.1//EN" "http://www.w3.org/Graphics/SVG/1.1/DTD/svg11.dtd">
<svg version="1.1" id="Capa_1" xmlns="http://www.w3.org/2000/svg" xmlns:xlink="http://www.w3.org/1999/xlink" x="0px" y="0px"
	 width="31.506px" height="31.506px" viewBox="0 0 31.506 31.506" style="enable-background:new 0 0 31.506 31.506;"
	 xml:space="preserve">
<g>
	<path d="M30.757,15.002h-6.992l3.119-3.119c0.293-0.293,0.293-0.768,0-1.061s-0.77-0.293-1.062,0l-4.105,4.107V10.54
		c0-0.414-0.336-0.75-0.75-0.75h-4.461V9.622l4.352-4.351c0.293-0.293,0.293-0.768,0-1.061s-0.77-0.293-1.062,0L16.505,7.5V0.75
		c0-0.414-0.336-0.75-0.75-0.75s-0.75,0.336-0.75,0.75V7.5l-3.29-3.29c-0.293-0.293-0.768-0.293-1.061,0s-0.293,0.768,0,1.061
		l4.35,4.351V9.79h-4.461c-0.414,0-0.75,0.336-0.75,0.75v4.388l-4.106-4.106c-0.293-0.293-0.768-0.293-1.061,0s-0.293,0.768,0,1.061
		l3.118,3.119H0.753c-0.414,0-0.75,0.336-0.75,0.75s0.336,0.75,0.75,0.75h6.991l-3.118,3.119c-0.293,0.293-0.293,0.768,0,1.061
		c0.146,0.146,0.338,0.221,0.53,0.221c0.192,0,0.384-0.072,0.53-0.221l4.106-4.104v4.388c0,0.414,0.336,0.75,0.75,0.75h4.461v0.168
		l-4.35,4.352c-0.293,0.293-0.293,0.769,0,1.062s0.768,0.293,1.061,0l3.29-3.29v6.75c0,0.414,0.336,0.75,0.75,0.75
		s0.75-0.336,0.75-0.75v-6.75l3.291,3.291c0.146,0.146,0.338,0.221,0.528,0.221c0.191,0,0.386-0.074,0.531-0.221
		c0.293-0.293,0.293-0.768,0-1.061l-4.352-4.353v-0.168h4.461c0.414,0,0.75-0.336,0.75-0.75v-4.389l4.105,4.106
		c0.146,0.146,0.338,0.219,0.531,0.219c0.19,0,0.383-0.071,0.528-0.219c0.293-0.293,0.293-0.769,0-1.062l-3.117-3.119h6.991
		c0.414,0,0.75-0.336,0.75-0.75S31.171,15.002,30.757,15.002z M20.216,20.213h-3.709h-1.5h-3.711v-3.711v-1.5v-3.711h3.711h1.5
		h3.709v3.711v1.5V20.213z M27.298,26.232c0.293,0.293,0.293,0.768,0,1.061c-0.146,0.146-0.338,0.22-0.531,0.22
		c-0.191,0-0.383-0.073-0.529-0.22l-2.61-2.611c-0.293-0.294-0.293-0.769,0-1.062s0.769-0.293,1.062,0L27.298,26.232z M8.301,23.62
		c0.293,0.293,0.293,0.768,0,1.062l-2.612,2.611c-0.146,0.146-0.338,0.22-0.53,0.22c-0.192,0-0.384-0.073-0.53-0.22
		c-0.293-0.293-0.293-0.768,0-1.061l2.612-2.612C7.534,23.327,8.008,23.327,8.301,23.62z M4.629,5.964
		c-0.292-0.293-0.292-0.768,0-1.061c0.293-0.292,0.768-0.292,1.061,0l2.611,2.614c0.292,0.293,0.292,0.768,0,1.061
		c-0.146,0.146-0.338,0.219-0.53,0.219S7.387,8.724,7.24,8.577L4.629,5.964z M23.622,8.584c-0.291-0.293-0.291-0.768,0-1.061
		l2.615-2.611c0.291-0.292,0.768-0.292,1.061,0c0.293,0.293,0.293,0.768,0,1.061l-2.615,2.611c-0.145,0.146-0.338,0.219-0.529,0.219
		C23.963,8.803,23.771,8.731,23.622,8.584z"/>
</g>
<g>
</g>
<g>
</g>
<g>
</g>
<g>
</g>
<g>
</g>
<g>
</g>
<g>
</g>
<g>
</g>
<g>
</g>
<g>
</g>
<g>
</g>
<g>
</g>
<g>
</g>
<g>
</g>
<g>
</g>
</svg>
