<?xml version="1.0" encoding="iso-8859-1"?>
<!-- Generator: Adobe Illustrator 16.0.0, SVG Export Plug-In . SVG Version: 6.00 Build 0)  -->
<!DOCTYPE svg PUBLIC "-//W3C//DTD SVG 1.1//EN" "http://www.w3.org/Graphics/SVG/1.1/DTD/svg11.dtd">
<svg version="1.1" id="Capa_1" xmlns="http://www.w3.org/2000/svg" xmlns:xlink="http://www.w3.org/1999/xlink" x="0px" y="0px"
	 width="32.817px" height="32.817px" viewBox="0 0 32.817 32.817" style="enable-background:new 0 0 32.817 32.817;"
	 xml:space="preserve">
<g>
	<path d="M32.036,15.626H28.61l1.875-1.874c0.305-0.304,0.305-0.8,0-1.105c-0.306-0.305-0.801-0.305-1.105,0L26.4,15.625h-1.988
		l-7.221-7.22V6.417l2.979-2.979c0.306-0.305,0.306-0.8,0-1.105c-0.305-0.305-0.8-0.305-1.105,0l-1.875,1.875V0.781
		C17.189,0.35,16.84,0,16.409,0c-0.432,0-0.781,0.35-0.781,0.781v3.426l-1.874-1.874c-0.305-0.306-0.8-0.306-1.105,0
		c-0.305,0.304-0.305,0.8,0,1.105l2.978,2.979v1.99l-7.217,7.218h-1.99l-2.979-2.979c-0.305-0.305-0.799-0.305-1.105,0
		c-0.305,0.305-0.305,0.8,0,1.105l1.875,1.875H0.784c-0.432,0-0.781,0.35-0.781,0.781c0,0.432,0.35,0.781,0.781,0.781h3.426
		l-1.874,1.874c-0.306,0.305-0.306,0.802,0,1.106c0.152,0.151,0.352,0.229,0.552,0.229s0.4-0.076,0.552-0.229l2.979-2.978h1.99
		l7.218,7.22V26.4l-2.979,2.979c-0.305,0.306-0.305,0.801,0,1.106c0.305,0.305,0.8,0.305,1.106,0l1.875-1.875v3.426
		c0,0.432,0.35,0.781,0.781,0.781s0.781-0.35,0.781-0.781V28.61l1.874,1.875c0.152,0.151,0.353,0.228,0.553,0.228
		c0.198,0,0.399-0.075,0.55-0.228c0.306-0.306,0.306-0.801,0-1.106l-2.977-2.98V24.41l7.219-7.22h1.99l2.979,2.979
		c0.151,0.151,0.352,0.229,0.55,0.229c0.2,0,0.402-0.076,0.554-0.229c0.305-0.305,0.305-0.802,0-1.106l-1.876-1.874h3.426
		c0.432,0,0.781-0.35,0.781-0.781C32.814,15.977,32.468,15.626,32.036,15.626z M22.984,16.407l-0.781,0.781l-5.011,5.01
		l-0.781,0.781l-0.781-0.781l-5.008-5.01l-0.78-0.781l0.781-0.781l5.007-5.008l0.782-0.782l0.78,0.78l5.011,5.01L22.984,16.407z
		 M21.84,11.76h-0.781v-0.781V5.533c0-0.431,0.35-0.781,0.781-0.781c0.431,0,0.781,0.35,0.781,0.781v3.56l3.765-3.765
		c0.305-0.306,0.8-0.306,1.104,0c0.306,0.306,0.306,0.8,0,1.105l-3.764,3.765h3.561c0.432,0,0.781,0.35,0.781,0.781
		c0,0.432-0.35,0.781-0.781,0.781H21.84z M4.757,10.979c0-0.431,0.35-0.781,0.781-0.781h3.561L5.335,6.433
		c-0.306-0.305-0.306-0.799,0-1.105c0.305-0.306,0.8-0.306,1.105,0l3.764,3.765v-3.56c0-0.431,0.35-0.781,0.781-0.781
		c0.432,0,0.781,0.35,0.781,0.781v5.446v0.781h-0.781H5.539C5.106,11.76,4.757,11.411,4.757,10.979z M10.984,21.062h0.781v0.781
		v5.447c0,0.432-0.35,0.781-0.781,0.781c-0.431,0-0.781-0.35-0.781-0.781v-3.559l-3.764,3.764c-0.152,0.151-0.353,0.23-0.552,0.23
		c-0.2,0-0.4-0.078-0.552-0.23c-0.306-0.305-0.306-0.801,0-1.105l3.764-3.766H5.539c-0.431,0-0.781-0.351-0.781-0.781
		s0.35-0.781,0.781-0.781H10.984z M28.066,21.844c0,0.431-0.351,0.781-0.781,0.781h-3.561l3.764,3.766
		c0.306,0.305,0.306,0.801,0,1.105c-0.151,0.151-0.352,0.23-0.551,0.23c-0.2,0-0.399-0.078-0.552-0.23l-3.765-3.764v3.559
		c0,0.432-0.351,0.781-0.781,0.781c-0.432,0-0.781-0.35-0.781-0.781v-5.446v-0.781h0.781h5.447
		C27.719,21.062,28.066,21.413,28.066,21.844z"/>
</g>
<g>
</g>
<g>
</g>
<g>
</g>
<g>
</g>
<g>
</g>
<g>
</g>
<g>
</g>
<g>
</g>
<g>
</g>
<g>
</g>
<g>
</g>
<g>
</g>
<g>
</g>
<g>
</g>
<g>
</g>
</svg>
