<?xml version="1.0" encoding="iso-8859-1"?>
<!-- Generator: Adobe Illustrator 16.0.0, SVG Export Plug-In . SVG Version: 6.00 Build 0)  -->
<!DOCTYPE svg PUBLIC "-//W3C//DTD SVG 1.1//EN" "http://www.w3.org/Graphics/SVG/1.1/DTD/svg11.dtd">
<svg version="1.1" id="Capa_1" xmlns="http://www.w3.org/2000/svg" xmlns:xlink="http://www.w3.org/1999/xlink" x="0px" y="0px"
	 width="34.356px" height="34.356px" viewBox="0 0 34.356 34.356" style="enable-background:new 0 0 34.356 34.356;"
	 xml:space="preserve">
<g>
	<path d="M20.536,12.862l5.099-5.099c0.265-0.265,0.692-0.265,0.957,0s0.265,0.693,0,0.957l-5.1,5.099
		c-0.132,0.132-0.305,0.198-0.478,0.198s-0.346-0.065-0.479-0.198C20.271,13.554,20.271,13.126,20.536,12.862z M12.597,13.556
		c0.132,0.132,0.305,0.198,0.478,0.198s0.347-0.066,0.478-0.198c0.265-0.264,0.265-0.693,0-0.958L8.718,7.763
		c-0.265-0.265-0.693-0.265-0.957,0c-0.265,0.264-0.265,0.693,0,0.957L12.597,13.556z M13.818,20.538
		c-0.265-0.267-0.693-0.267-0.957,0l-5.1,5.099c-0.265,0.265-0.265,0.692,0,0.957c0.132,0.133,0.305,0.198,0.478,0.198
		s0.347-0.065,0.478-0.198l5.1-5.1C14.083,21.23,14.083,20.803,13.818,20.538z M21.347,20.393c-0.264-0.265-0.692-0.265-0.957,0
		s-0.265,0.694,0,0.957l5.243,5.242c0.132,0.133,0.305,0.196,0.479,0.196c0.173,0,0.347-0.063,0.478-0.196
		c0.265-0.265,0.265-0.693,0-0.957L21.347,20.393z M26.853,17.854h-2.615l2.693,2.694c0.266,0.267,0.266,0.693,0,0.959
		c-0.132,0.132-0.305,0.196-0.478,0.196c-0.174,0-0.347-0.064-0.479-0.196l-3.499-3.499l-3.088,1.382l-1.319,2.947l3.293,3.293
		c0.265,0.264,0.265,0.691,0,0.957c-0.265,0.265-0.693,0.265-0.958,0l-2.551-2.55v2.82l3.408,3.409l-4.088,4.089l-4.087-4.089
		l3.412-3.413v-2.817l-2.55,2.551c-0.132,0.132-0.305,0.196-0.479,0.196c-0.173,0-0.347-0.064-0.478-0.196
		c-0.264-0.266-0.264-0.692,0-0.957l3.293-3.293l-1.322-2.947l-3.086-1.382l-3.5,3.5c-0.133,0.131-0.306,0.197-0.479,0.197
		c-0.172,0-0.346-0.065-0.479-0.197c-0.264-0.267-0.264-0.693,0-0.958l2.698-2.696H7.498l-3.41,3.412L0,17.18l4.089-4.088
		l3.41,3.411h2.619l-2.695-2.696c-0.266-0.265-0.266-0.693,0-0.958c0.265-0.265,0.691-0.265,0.958,0l3.499,3.499l3.085-1.382
		l1.321-2.947l-3.293-3.293c-0.264-0.265-0.264-0.692,0-0.958c0.265-0.264,0.693-0.264,0.958,0l2.551,2.551V7.502L13.09,4.089
		L17.176,0l4.088,4.089l-3.408,3.409v2.821l2.552-2.551c0.265-0.264,0.691-0.264,0.956,0c0.265,0.265,0.265,0.693,0,0.958
		l-3.292,3.292l1.319,2.947l3.087,1.382l3.501-3.5c0.265-0.264,0.691-0.264,0.957,0c0.265,0.265,0.265,0.694,0,0.958L24.239,16.5
		h2.617l3.411-3.411l4.089,4.088l-4.089,4.088L26.853,17.854z M28.093,17.179l0.675,0.676l1.498,1.498l1.497-1.498l0.678-0.676
		l-0.678-0.677l-1.497-1.496l-1.498,1.496L28.093,17.179z M6.261,17.179l-0.677-0.677l-1.497-1.496l-1.498,1.496l-0.676,0.677
		l0.676,0.676l1.498,1.498l1.497-1.498L6.261,17.179z M16.5,5.588l0.674,0.675l0.679-0.679l1.494-1.495l-1.494-1.495l-0.679-0.679
		L16.5,2.59l-1.498,1.498L16.5,5.588z M17.854,28.773l-0.679-0.679L16.5,28.769l-1.498,1.499l1.498,1.497l0.674,0.674l0.679-0.678
		l1.494-1.495L17.854,28.773z M21.017,17.179l-1.512-0.677l-1.141-0.511l-0.509-1.137l-0.677-1.514l-0.675,1.511l-0.512,1.141
		l-1.139,0.511l-1.513,0.677l1.513,0.675l1.139,0.511l0.512,1.142l0.675,1.51l0.677-1.514l0.509-1.138l1.141-0.511L21.017,17.179z"
		/>
</g>
<g>
</g>
<g>
</g>
<g>
</g>
<g>
</g>
<g>
</g>
<g>
</g>
<g>
</g>
<g>
</g>
<g>
</g>
<g>
</g>
<g>
</g>
<g>
</g>
<g>
</g>
<g>
</g>
<g>
</g>
</svg>
