<?xml version="1.0" encoding="iso-8859-1"?>
<!-- Generator: Adobe Illustrator 16.0.0, SVG Export Plug-In . SVG Version: 6.00 Build 0)  -->
<!DOCTYPE svg PUBLIC "-//W3C//DTD SVG 1.1//EN" "http://www.w3.org/Graphics/SVG/1.1/DTD/svg11.dtd">
<svg version="1.1" id="Capa_1" xmlns="http://www.w3.org/2000/svg" xmlns:xlink="http://www.w3.org/1999/xlink" x="0px" y="0px"
	 width="33.443px" height="33.442px" viewBox="0 0 33.443 33.442" style="enable-background:new 0 0 33.443 33.442;"
	 xml:space="preserve">
<g>
	<path d="M29.267,11.714l1.938-1.119V8.362l-1.938-1.119l-1.937,1.119v1.658l-0.108,0.062c-2.123-3.346-5.793-5.604-10-5.772V4.183
		l1.437-0.83V1.117L16.722,0l-1.938,1.117v2.235l1.438,0.83v0.127c-4.207,0.168-7.876,2.429-9.999,5.772l-0.11-0.062V8.361
		L4.175,7.242L2.239,8.361v2.233l1.936,1.119l1.438-0.829l0.104,0.061c-0.911,1.729-1.433,3.691-1.433,5.776
		c0,2.085,0.521,4.048,1.433,5.776l-0.104,0.062l-1.437-0.832l-1.938,1.119l0.002,2.233l1.936,1.119l1.936-1.119v-1.655l0.11-0.062
		c2.123,3.346,5.792,5.604,9.999,5.771v0.127l-1.438,0.828v2.235l1.939,1.119l1.936-1.117V30.09l-1.436-0.83v-0.125
		c4.208-0.168,7.875-2.43,9.999-5.772l0.108,0.062v1.657l1.938,1.119l1.936-1.119l0.002-2.233l-1.938-1.119l-1.438,0.83l-0.103-0.06
		c0.91-1.729,1.433-3.69,1.433-5.776c0-2.085-0.521-4.049-1.433-5.776l0.104-0.061L29.267,11.714z M26.357,10.582l-0.86,0.496
		c-1.774-2.75-4.804-4.609-8.274-4.774V5.31C21.06,5.477,24.409,7.535,26.357,10.582z M16.222,11.601l-1.924-1.922
		c-0.195-0.194-0.512-0.194-0.707,0c-0.195,0.194-0.195,0.513,0,0.707l2.631,2.629v2.842l-2.459-1.42l-0.964-3.595
		c-0.072-0.266-0.344-0.418-0.612-0.354c-0.267,0.071-0.425,0.347-0.354,0.612l0.705,2.627L8.38,11.328
		c1.688-2.603,4.556-4.359,7.842-4.524V11.601z M12.037,14.594l-2.626,0.703c-0.267,0.072-0.425,0.346-0.354,0.611
		c0.06,0.225,0.262,0.371,0.482,0.371c0.043,0,0.086-0.006,0.13-0.017l3.593-0.963l2.46,1.422l-2.458,1.419l-3.595-0.963
		c-0.264-0.065-0.541,0.088-0.612,0.354s0.087,0.539,0.354,0.611l2.629,0.703l-4.16,2.401c-0.699-1.36-1.102-2.896-1.102-4.528
		c0-1.632,0.402-3.168,1.102-4.528L12.037,14.594z M12.538,19.715l-0.703,2.627c-0.071,0.267,0.087,0.539,0.354,0.611
		c0.043,0.012,0.087,0.018,0.13,0.018c0.221,0,0.423-0.147,0.482-0.371l0.962-3.592l2.459-1.42v2.84l-2.631,2.629
		c-0.195,0.193-0.195,0.513,0,0.707c0.195,0.193,0.512,0.193,0.707,0l1.924-1.924v4.801c-3.286-0.166-6.153-1.924-7.842-4.524
		L12.538,19.715z M17.222,21.842l1.922,1.924c0.099,0.099,0.227,0.146,0.354,0.146s0.258-0.049,0.354-0.146
		c0.195-0.194,0.195-0.512,0-0.707l-2.628-2.631v-2.84l2.458,1.42l0.961,3.592c0.062,0.224,0.264,0.371,0.482,0.371
		c0.043,0,0.086-0.006,0.131-0.018c0.266-0.072,0.424-0.346,0.354-0.611l-0.703-2.627l4.157,2.4
		c-1.688,2.602-4.557,4.357-7.841,4.523L17.222,21.842L17.222,21.842L17.222,21.842z M21.405,18.848l2.629-0.703
		c0.267-0.071,0.425-0.346,0.354-0.61c-0.072-0.269-0.347-0.422-0.612-0.354l-3.595,0.963l-2.459-1.419l2.461-1.421l3.593,0.963
		c0.043,0.011,0.087,0.017,0.13,0.017c0.221,0,0.423-0.146,0.482-0.371c0.069-0.267-0.088-0.539-0.354-0.611l-2.626-0.703l4.156-2.4
		c0.699,1.36,1.103,2.896,1.103,4.528c0,1.632-0.401,3.167-1.103,4.529L21.405,18.848z M20.907,13.73l0.704-2.629
		c0.07-0.267-0.088-0.54-0.354-0.612c-0.269-0.062-0.541,0.088-0.613,0.354l-0.961,3.594l-2.459,1.42v-2.842l2.629-2.629
		c0.195-0.194,0.195-0.513,0-0.707s-0.512-0.194-0.707,0l-1.924,1.922V6.804c3.288,0.165,6.153,1.923,7.842,4.524L20.907,13.73z
		 M16.222,5.31v0.994c-3.47,0.165-6.499,2.024-8.274,4.774l-0.86-0.496C9.036,7.535,12.386,5.477,16.222,5.31z M5.284,16.722
		c0-1.903,0.474-3.694,1.3-5.276l0.862,0.498c-0.742,1.435-1.168,3.057-1.168,4.778s0.426,3.345,1.168,4.778l-0.862,0.498
		C5.76,20.416,5.284,18.625,5.284,16.722z M7.089,22.862l0.86-0.496c1.775,2.75,4.804,4.608,8.274,4.774v0.994
		C12.386,27.967,9.036,25.909,7.089,22.862z M17.222,28.135v-0.994c3.471-0.166,6.5-2.024,8.274-4.774l0.859,0.496
		C24.409,25.909,21.06,27.967,17.222,28.135z M28.16,16.722c0,1.903-0.475,3.694-1.3,5.276L25.998,21.5
		c0.742-1.434,1.168-3.057,1.168-4.778c0-1.721-0.426-3.345-1.168-4.778l0.862-0.498C27.685,13.028,28.16,14.819,28.16,16.722z"/>
</g>
<g>
</g>
<g>
</g>
<g>
</g>
<g>
</g>
<g>
</g>
<g>
</g>
<g>
</g>
<g>
</g>
<g>
</g>
<g>
</g>
<g>
</g>
<g>
</g>
<g>
</g>
<g>
</g>
<g>
</g>
</svg>
