<?xml version="1.0" encoding="iso-8859-1"?>
<!-- Generator: Adobe Illustrator 16.0.0, SVG Export Plug-In . SVG Version: 6.00 Build 0)  -->
<!DOCTYPE svg PUBLIC "-//W3C//DTD SVG 1.1//EN" "http://www.w3.org/Graphics/SVG/1.1/DTD/svg11.dtd">
<svg version="1.1" id="Capa_1" xmlns="http://www.w3.org/2000/svg" xmlns:xlink="http://www.w3.org/1999/xlink" x="0px" y="0px"
	 width="31.504px" height="31.504px" viewBox="0 0 31.504 31.504" style="enable-background:new 0 0 31.504 31.504;"
	 xml:space="preserve">
<g>
	<path d="M30.758,15.002h-6.99l3.117-3.118c0.293-0.293,0.293-0.768,0-1.062c-0.293-0.293-0.768-0.293-1.061,0l-3.471,3.473
		c-0.228-1.025-0.688-1.965-1.322-2.758l6.268-6.266c0.293-0.293,0.293-0.768,0-1.061s-0.77-0.293-1.062,0l-6.267,6.266
		c-0.846-0.677-1.854-1.152-2.956-1.36l3.842-3.845c0.293-0.293,0.293-0.768,0-1.061s-0.769-0.293-1.062,0L16.505,7.5V0.75
		c0-0.414-0.336-0.75-0.75-0.75s-0.75,0.336-0.75,0.75V7.5l-3.29-3.29c-0.293-0.293-0.768-0.293-1.061,0s-0.293,0.768,0,1.061
		l3.843,3.845c-1.104,0.208-2.112,0.685-2.957,1.36L5.273,4.21c-0.293-0.293-0.768-0.293-1.061,0s-0.293,0.768,0,1.061l6.267,6.266
		c-0.635,0.793-1.095,1.73-1.322,2.758l-3.471-3.473c-0.293-0.293-0.768-0.293-1.061,0c-0.293,0.294-0.293,0.769,0,1.062
		l3.118,3.118H0.752c-0.414,0-0.75,0.336-0.75,0.75s0.336,0.75,0.75,0.75h6.991L4.625,19.62c-0.293,0.293-0.293,0.768,0,1.062
		c0.146,0.146,0.338,0.219,0.53,0.219c0.192,0,0.384-0.071,0.53-0.219l3.471-3.473c0.227,1.025,0.686,1.964,1.321,2.757
		l-6.266,6.267c-0.293,0.293-0.293,0.769,0,1.062c0.146,0.146,0.338,0.222,0.53,0.222c0.192,0,0.384-0.074,0.53-0.222l6.266-6.267
		c0.845,0.677,1.853,1.152,2.957,1.36l-3.843,3.845c-0.293,0.293-0.293,0.769,0,1.062s0.768,0.293,1.061,0l3.29-3.29v6.75
		c0,0.414,0.336,0.75,0.75,0.75s0.75-0.336,0.75-0.75v-6.75l3.291,3.29c0.146,0.146,0.338,0.22,0.529,0.22s0.385-0.072,0.529-0.22
		c0.293-0.293,0.293-0.769,0-1.062l-3.843-3.845c1.104-0.208,2.111-0.686,2.957-1.36l6.267,6.267
		c0.146,0.146,0.338,0.222,0.528,0.222c0.192,0,0.386-0.074,0.531-0.222c0.293-0.293,0.293-0.769,0-1.062l-6.267-6.267
		c0.635-0.793,1.095-1.729,1.32-2.757l3.471,3.473c0.146,0.146,0.338,0.219,0.529,0.219c0.193,0,0.385-0.071,0.531-0.219
		c0.293-0.294,0.293-0.769,0-1.062l-3.119-3.118h6.994c0.414,0,0.75-0.336,0.75-0.75S31.172,15.002,30.758,15.002z M19.906,18.943
		c-0.277,0.358-0.598,0.681-0.957,0.957c-0.699,0.539-1.529,0.899-2.441,1.033c-0.246,0.034-0.493,0.074-0.75,0.074
		c-0.257,0-0.503-0.04-0.75-0.074c-0.913-0.134-1.743-0.494-2.441-1.033c-0.36-0.276-0.68-0.599-0.958-0.957
		c-0.539-0.698-0.901-1.528-1.033-2.441c-0.03-0.211-0.06-0.423-0.064-0.641c-0.001-0.037-0.01-0.072-0.01-0.109
		s0.01-0.072,0.011-0.109c0.004-0.218,0.034-0.43,0.064-0.641c0.132-0.913,0.495-1.744,1.034-2.441
		c0.277-0.36,0.598-0.681,0.957-0.957c0.699-0.539,1.529-0.9,2.441-1.033c0.247-0.035,0.493-0.075,0.75-0.075
		c0.257,0,0.503,0.04,0.75,0.075c0.912,0.133,1.744,0.494,2.441,1.033c0.358,0.276,0.68,0.597,0.956,0.957
		c0.541,0.697,0.902,1.528,1.035,2.441c0.029,0.211,0.06,0.423,0.062,0.641c0.002,0.037,0.012,0.072,0.012,0.109
		s-0.01,0.072-0.012,0.109c-0.004,0.218-0.033,0.43-0.062,0.641C20.809,17.415,20.445,18.245,19.906,18.943z"/>
</g>
<g>
</g>
<g>
</g>
<g>
</g>
<g>
</g>
<g>
</g>
<g>
</g>
<g>
</g>
<g>
</g>
<g>
</g>
<g>
</g>
<g>
</g>
<g>
</g>
<g>
</g>
<g>
</g>
<g>
</g>
</svg>
