<?xml version="1.0" encoding="iso-8859-1"?>
<!-- Generator: Adobe Illustrator 16.0.0, SVG Export Plug-In . SVG Version: 6.00 Build 0)  -->
<!DOCTYPE svg PUBLIC "-//W3C//DTD SVG 1.1//EN" "http://www.w3.org/Graphics/SVG/1.1/DTD/svg11.dtd">
<svg version="1.1" id="Capa_1" xmlns="http://www.w3.org/2000/svg" xmlns:xlink="http://www.w3.org/1999/xlink" x="0px" y="0px"
	 width="40.176px" height="40.176px" viewBox="0 0 40.176 40.176" style="enable-background:new 0 0 40.176 40.176;"
	 xml:space="preserve">
<g>
	<path d="M38.842,17.738l-2.688,0.004l-0.895,1.542l-2.562,0.004l0.603-1.042c0.216-0.373,0.087-0.851-0.286-1.066
		c-0.374-0.217-0.852-0.087-1.067,0.285l-1.054,1.825l-1.534,0.002l2.059-3.561c0.215-0.373,0.087-0.851-0.284-1.066
		c-0.375-0.217-0.852-0.086-1.067,0.285l-2.51,4.345l-0.478,0.001c-0.224-1.99-1.28-3.725-2.812-4.86l0.266-0.458h4.973
		c0.432,0,0.781-0.35,0.781-0.781s-0.35-0.781-0.781-0.781h-4.068l0.768-1.324h2.062c0.432,0,0.781-0.352,0.781-0.781
		c0-0.431-0.35-0.781-0.781-0.781h-1.159l1.264-2.181l1.783-0.004l1.347-2.324l-1.339-2.32l-2.689,0.002l-1.345,2.325l0.89,1.541
		l-1.306,2.254l-0.666-1.154c-0.216-0.374-0.691-0.501-1.067-0.286c-0.372,0.215-0.501,0.693-0.285,1.067l1.115,1.933l-0.765,1.323
		L21.928,8.04c-0.214-0.371-0.692-0.502-1.065-0.284c-0.373,0.215-0.5,0.694-0.285,1.065l2.567,4.445l-0.223,0.381
		c-0.866-0.381-1.823-0.596-2.831-0.596c-1.003,0-1.955,0.213-2.819,0.592l-0.3-0.521l2.482-4.301
		c0.216-0.373,0.087-0.85-0.285-1.065c-0.375-0.218-0.853-0.086-1.067,0.284l-2.03,3.52l-0.763-1.324l1.03-1.79
		c0.213-0.373,0.085-0.851-0.288-1.067c-0.375-0.214-0.849-0.086-1.066,0.288l-0.578,1.004l-1.2-2.079L14.1,5.048l-1.338-2.322
		L10.077,2.73l-1.35,2.323l1.341,2.322l1.787-0.001l1.244,2.154l-1.334-0.001c-0.001,0-0.001,0-0.001,0
		c-0.431,0-0.781,0.35-0.781,0.779c0,0.433,0.349,0.783,0.78,0.783L14,11.09l0.765,1.324h-4.238c-0.432,0-0.781,0.352-0.781,0.781
		c0,0.432,0.35,0.781,0.781,0.781h5.141l0.255,0.45c-1.542,1.14-2.607,2.887-2.826,4.888l-0.615,0.001L9.958,14.95
		c-0.213-0.373-0.692-0.502-1.065-0.285c-0.374,0.215-0.5,0.694-0.285,1.066l2.072,3.586l-1.53,0.004l-1.071-1.857
		c-0.216-0.373-0.692-0.502-1.068-0.285c-0.372,0.215-0.5,0.694-0.285,1.066l0.623,1.078l-2.425,0.004l-0.89-1.541L1.347,17.79
		L0,20.115l1.341,2.323l2.688-0.006l0.894-1.542l2.429-0.004l-0.626,1.083c-0.215,0.371-0.087,0.849,0.286,1.064
		c0.122,0.071,0.256,0.107,0.388,0.107c0.272,0,0.535-0.142,0.677-0.391l1.077-1.866l1.534-0.005l-2.08,3.604
		c-0.215,0.372-0.087,0.85,0.286,1.065c0.123,0.071,0.257,0.106,0.39,0.106c0.271,0,0.533-0.141,0.677-0.391l2.534-4.387h0.606
		c0.224,1.989,1.281,3.725,2.815,4.86l-0.289,0.499l-5.103-0.002c-0.431,0-0.781,0.351-0.781,0.781c0,0.432,0.35,0.781,0.781,0.781
		l4.199,0.002l-0.767,1.324h-2.198c-0.431,0-0.781,0.352-0.781,0.781c0,0.431,0.35,0.781,0.781,0.781h1.292l-1.239,2.14
		l-1.782,0.004L8.68,35.154l1.341,2.321l2.686-0.002l1.347-2.326l-0.89-1.54l1.216-2.1l0.601,1.042
		c0.144,0.25,0.408,0.391,0.677,0.391c0.132,0,0.267-0.032,0.39-0.106c0.373-0.215,0.501-0.693,0.285-1.065l-1.052-1.821
		l0.766-1.323l2.051,3.551c0.146,0.249,0.408,0.391,0.677,0.391c0.132,0,0.267-0.034,0.39-0.107c0.372-0.216,0.5-0.693,0.284-1.064
		l-2.5-4.327l0.312-0.538c0.867,0.382,1.822,0.598,2.828,0.598c1.003,0,1.957-0.216,2.821-0.594l0.236,0.41l-2.572,4.451
		c-0.216,0.371-0.087,0.849,0.285,1.064c0.122,0.071,0.257,0.107,0.391,0.107c0.271,0,0.533-0.142,0.676-0.391l2.12-3.672
		l0.765,1.324l-1.117,1.939c-0.216,0.371-0.087,0.85,0.287,1.064c0.122,0.07,0.256,0.105,0.389,0.105
		c0.271,0,0.533-0.141,0.675-0.391l0.668-1.154l1.268,2.191l-0.896,1.543l1.341,2.323l2.688-0.005l1.345-2.322l-1.339-2.322
		l-1.785,0.004l-1.223-2.117h1.157l0,0c0.432,0,0.781-0.349,0.781-0.779c0-0.432-0.348-0.783-0.779-0.783h-2.062l-0.764-1.325h4.062
		c0.432,0,0.781-0.35,0.781-0.781c0-0.431-0.35-0.781-0.781-0.781h-4.965l-0.283-0.49c1.54-1.139,2.606-2.887,2.825-4.887h0.438
		l2.545,4.407c0.145,0.248,0.407,0.391,0.678,0.391c0.132,0,0.267-0.035,0.389-0.106c0.372-0.216,0.5-0.693,0.284-1.065l-2.095-3.63
		l1.529-0.002l1.098,1.898c0.146,0.25,0.408,0.391,0.677,0.391c0.132,0,0.267-0.035,0.389-0.106c0.374-0.216,0.5-0.693,0.284-1.065
		l-0.646-1.119l2.603-0.004l0.89,1.54l2.688-0.004l1.347-2.324L38.842,17.738z M20.086,25.565c-0.72,0-1.406-0.148-2.036-0.403
		c-0.492-0.195-0.935-0.474-1.344-0.798c-1.07-0.848-1.81-2.075-2.019-3.488c-0.038-0.261-0.08-0.52-0.08-0.79
		c0-0.265,0.042-0.519,0.077-0.773c0.203-1.42,0.948-2.658,2.026-3.508c0.41-0.324,0.853-0.598,1.344-0.796
		c0.629-0.252,1.312-0.4,2.029-0.4c0.721,0,1.407,0.148,2.038,0.403c0.491,0.196,0.934,0.475,1.344,0.799
		c1.069,0.848,1.81,2.075,2.017,3.487c0.037,0.261,0.079,0.519,0.079,0.79c0,0.265-0.042,0.52-0.079,0.773
		c-0.203,1.419-0.945,2.655-2.021,3.507c-0.411,0.324-0.854,0.598-1.346,0.796C21.488,25.417,20.805,25.565,20.086,25.565z"/>
</g>
<g>
</g>
<g>
</g>
<g>
</g>
<g>
</g>
<g>
</g>
<g>
</g>
<g>
</g>
<g>
</g>
<g>
</g>
<g>
</g>
<g>
</g>
<g>
</g>
<g>
</g>
<g>
</g>
<g>
</g>
</svg>
