<?xml version="1.0" encoding="iso-8859-1"?>
<!-- Generator: Adobe Illustrator 16.0.0, SVG Export Plug-In . SVG Version: 6.00 Build 0)  -->
<!DOCTYPE svg PUBLIC "-//W3C//DTD SVG 1.1//EN" "http://www.w3.org/Graphics/SVG/1.1/DTD/svg11.dtd">
<svg version="1.1" id="Capa_1" xmlns="http://www.w3.org/2000/svg" xmlns:xlink="http://www.w3.org/1999/xlink" x="0px" y="0px"
	 width="32.813px" height="32.813px" viewBox="0 0 32.813 32.813" style="enable-background:new 0 0 32.813 32.813;"
	 xml:space="preserve">
<g>
	<path d="M29.106,24.424c0,0.432-0.351,0.781-0.781,0.781h-3.119v3.119c0,0.431-0.351,0.781-0.781,0.781
		c-0.432,0-0.781-0.351-0.781-0.781v-4.682h4.682C28.756,23.643,29.106,23.993,29.106,24.424z M4.673,9.352h4.682V4.671
		c0-0.431-0.35-0.781-0.781-0.781S7.792,4.24,7.792,4.671V7.79H4.673c-0.431,0-0.781,0.35-0.781,0.781
		C3.892,9.002,4.242,9.352,4.673,9.352z M3.708,24.24c0,0.431,0.35,0.781,0.781,0.781H7.61v3.12c0,0.432,0.35,0.781,0.781,0.781
		s0.781-0.35,0.781-0.781v-4.683H4.489C4.058,23.458,3.708,23.808,3.708,24.24z M28.923,8.39c0-0.432-0.35-0.781-0.781-0.781h-3.121
		V4.488c0-0.431-0.35-0.781-0.781-0.781s-0.781,0.35-0.781,0.781v4.684h4.684C28.573,9.171,28.923,8.82,28.923,8.39z M32.812,16.407
		c0,0.431-0.35,0.781-0.781,0.781h-3.426l1.876,1.873c0.305,0.306,0.305,0.802,0,1.107c-0.152,0.15-0.354,0.228-0.554,0.228
		c-0.198,0-0.398-0.075-0.55-0.228l-2.979-2.98h-2.995c-0.163,1.479-0.79,2.815-1.728,3.875h5.609c0.432,0,0.781,0.351,0.781,0.781
		c0,0.432-0.35,0.781-0.781,0.781h-4.666v4.667c0,0.431-0.351,0.781-0.781,0.781c-0.432,0-0.781-0.351-0.781-0.781v-5.61
		c-1.058,0.933-2.392,1.556-3.866,1.719v2.995l2.978,2.98c0.306,0.305,0.306,0.8,0,1.104c-0.152,0.152-0.352,0.23-0.551,0.23
		s-0.401-0.077-0.553-0.23l-1.874-1.876v3.427c0,0.431-0.35,0.781-0.781,0.781s-0.781-0.351-0.781-0.781v-3.427l-1.875,1.876
		c-0.305,0.306-0.8,0.306-1.105,0c-0.305-0.305-0.305-0.8,0-1.104l2.979-2.98v-2.995c-1.474-0.163-2.807-0.787-3.865-1.717v5.608
		c0,0.431-0.35,0.781-0.781,0.781c-0.431,0-0.781-0.351-0.781-0.781v-4.667H5.535c-0.431,0-0.781-0.35-0.781-0.781
		c0-0.431,0.35-0.781,0.781-0.781h5.607c-0.936-1.06-1.563-2.396-1.728-3.875H6.417l-2.979,2.979
		c-0.152,0.151-0.352,0.229-0.552,0.229s-0.4-0.077-0.552-0.229c-0.306-0.306-0.306-0.801,0-1.106l1.874-1.873H0.782
		C0.35,17.187,0,16.836,0,16.406c0-0.432,0.35-0.781,0.781-0.781h3.426L2.333,13.75c-0.305-0.305-0.305-0.801,0-1.106
		c0.306-0.306,0.8-0.306,1.105,0l2.979,2.979h2.995c0.163-1.475,0.787-2.809,1.72-3.866H5.533c-0.431,0-0.781-0.35-0.781-0.781
		c0-0.431,0.35-0.781,0.781-0.781h4.666V5.528c0-0.431,0.35-0.781,0.781-0.781s0.781,0.35,0.781,0.781v5.599
		c1.058-0.933,2.391-1.554,3.865-1.717V6.415l-2.978-2.979c-0.305-0.305-0.305-0.8,0-1.105s0.8-0.305,1.105,0l1.874,1.875V0.781
		C15.626,0.35,15.976,0,16.408,0c0.431,0,0.781,0.35,0.781,0.781v3.426l1.875-1.875c0.306-0.307,0.8-0.307,1.104,0
		c0.306,0.305,0.306,0.8,0,1.105L17.19,6.417v2.996c1.475,0.164,2.809,0.788,3.866,1.718V5.532c0-0.432,0.35-0.781,0.781-0.781
		c0.431,0,0.781,0.35,0.781,0.781v4.666h4.666c0.432,0,0.781,0.35,0.781,0.781c0,0.431-0.35,0.781-0.781,0.781h-5.599
		c0.932,1.058,1.556,2.392,1.718,3.866h2.995l2.979-2.979c0.305-0.305,0.799-0.305,1.106,0c0.305,0.305,0.305,0.801,0,1.106
		l-1.876,1.874h3.427C32.463,15.625,32.812,15.974,32.812,16.407z M21.806,15.625c-0.346-2.391-2.227-4.271-4.618-4.617
		c-0.257-0.037-0.514-0.079-0.781-0.079c-0.268,0-0.524,0.042-0.781,0.079c-2.391,0.346-4.272,2.227-4.618,4.617
		c-0.038,0.257-0.079,0.514-0.079,0.781s0.041,0.522,0.079,0.781c0.346,2.391,2.227,4.271,4.618,4.616
		c0.257,0.036,0.514,0.079,0.781,0.079c0.267,0,0.524-0.043,0.781-0.079c2.391-0.346,4.272-2.226,4.618-4.616
		c0.037-0.259,0.079-0.515,0.079-0.781S21.842,15.882,21.806,15.625z"/>
</g>
<g>
</g>
<g>
</g>
<g>
</g>
<g>
</g>
<g>
</g>
<g>
</g>
<g>
</g>
<g>
</g>
<g>
</g>
<g>
</g>
<g>
</g>
<g>
</g>
<g>
</g>
<g>
</g>
<g>
</g>
</svg>
