<?xml version="1.0" encoding="iso-8859-1"?>
<!-- Generator: Adobe Illustrator 16.0.0, SVG Export Plug-In . SVG Version: 6.00 Build 0)  -->
<!DOCTYPE svg PUBLIC "-//W3C//DTD SVG 1.1//EN" "http://www.w3.org/Graphics/SVG/1.1/DTD/svg11.dtd">
<svg version="1.1" id="Capa_1" xmlns="http://www.w3.org/2000/svg" xmlns:xlink="http://www.w3.org/1999/xlink" x="0px" y="0px"
	 width="34.355px" height="34.356px" viewBox="0 0 34.355 34.356" style="enable-background:new 0 0 34.355 34.356;"
	 xml:space="preserve">
<g>
	<path d="M16.501,16.799v0.081c0,0.374,0.303,0.677,0.677,0.677c0.374,0,0.678-0.303,0.678-0.677v-0.083l-0.679,0.678L16.501,16.799
		z"/>
	<polygon points="17.177,17.038 16.501,16.361 16.501,17.318 17.177,17.995 17.855,17.316 17.855,16.359 	"/>
	<path d="M30.266,21.264l4.09-4.087l-4.09-4.087l-3.41,3.41H23.86l4.536-4.535c0.265-0.264,0.265-0.693,0-0.958
		c-0.265-0.264-0.692-0.264-0.956,0L21.945,16.5h-3.134l8.129-8.128c0.265-0.264,0.265-0.692,0-0.957s-0.692-0.265-0.957,0
		l-8.128,8.128v-3.134l5.491-5.495c0.265-0.265,0.265-0.694,0-0.957c-0.265-0.265-0.692-0.265-0.957,0l-4.536,4.536V7.499l3.41-3.41
		L17.175,0l-4.087,4.089l3.412,3.412v2.993l-4.536-4.536c-0.264-0.265-0.692-0.265-0.957,0c-0.265,0.263-0.265,0.692,0,0.957
		l5.493,5.495v3.134L8.371,7.415c-0.265-0.265-0.693-0.265-0.957,0c-0.265,0.265-0.265,0.694,0,0.957l8.128,8.128h-3.133
		l-5.495-5.494c-0.265-0.264-0.693-0.264-0.958,0c-0.264,0.265-0.264,0.693,0,0.958l4.537,4.536H7.501l-3.412-3.41L0,17.177
		l4.089,4.087l3.412-3.409h2.992l-4.535,4.534c-0.264,0.265-0.264,0.692,0,0.957c0.132,0.132,0.305,0.199,0.479,0.199
		c0.173,0,0.347-0.067,0.478-0.199l5.493-5.491h3.136l-8.128,8.129c-0.265,0.264-0.265,0.693,0,0.958
		c0.132,0.132,0.305,0.196,0.478,0.196s0.347-0.064,0.478-0.196l8.128-8.129v3.134l-5.493,5.492c-0.265,0.265-0.265,0.694,0,0.958
		c0.265,0.265,0.693,0.265,0.957,0l4.536-4.535v2.992l-3.412,3.413l4.087,4.089l4.089-4.089l-3.41-3.411v-2.994l4.536,4.535
		c0.132,0.133,0.305,0.198,0.478,0.198s0.348-0.065,0.479-0.198c0.265-0.264,0.265-0.693,0-0.958l-5.49-5.492v-3.134l8.128,8.129
		c0.132,0.132,0.305,0.196,0.478,0.196c0.174,0,0.348-0.064,0.479-0.196c0.265-0.265,0.265-0.694,0-0.958l-8.128-8.129h3.131
		l5.495,5.493c0.133,0.132,0.306,0.197,0.479,0.197s0.348-0.065,0.479-0.197c0.264-0.265,0.264-0.694,0-0.959l-4.536-4.534h2.995
		L30.266,21.264z M6.262,17.177l-0.677,0.678l-1.497,1.496l-1.497-1.496l-0.677-0.678L2.592,16.5l1.497-1.496L5.585,16.5
		L6.262,17.177z M16.501,2.591l0.676-0.676l0.679,0.678l1.495,1.496l-1.495,1.496l-0.679,0.678l-0.676-0.676l-1.497-1.498
		L16.501,2.591z M17.855,32.802c0,0.372-0.305,0.676-0.678,0.676c-0.373,0-0.677-0.304-0.677-0.676v-0.081v-0.959l-1.497-1.497
		l1.497-1.498l0.676-0.677l0.679,0.679l1.495,1.496l-1.495,1.495v0.959V32.802L17.855,32.802z M28.093,17.177l0.678-0.677
		l1.497-1.496l1.498,1.496l0.675,0.677l-0.676,0.678l-1.497,1.496l-1.498-1.496L28.093,17.177z"/>
</g>
<g>
</g>
<g>
</g>
<g>
</g>
<g>
</g>
<g>
</g>
<g>
</g>
<g>
</g>
<g>
</g>
<g>
</g>
<g>
</g>
<g>
</g>
<g>
</g>
<g>
</g>
<g>
</g>
<g>
</g>
</svg>
