<?xml version="1.0" encoding="iso-8859-1"?>
<!-- Generator: Adobe Illustrator 16.0.0, SVG Export Plug-In . SVG Version: 6.00 Build 0)  -->
<!DOCTYPE svg PUBLIC "-//W3C//DTD SVG 1.1//EN" "http://www.w3.org/Graphics/SVG/1.1/DTD/svg11.dtd">
<svg version="1.1" id="Capa_1" xmlns="http://www.w3.org/2000/svg" xmlns:xlink="http://www.w3.org/1999/xlink" x="0px" y="0px"
	 width="32.292px" height="32.292px" viewBox="0 0 32.292 32.292" style="enable-background:new 0 0 32.292 32.292;"
	 xml:space="preserve">
<g>
	<path d="M31.771,15.625h-1.734l1.581-1.583c0.204-0.203,0.204-0.535,0-0.737c-0.201-0.203-0.532-0.203-0.736,0l-2.318,2.32h-1.918
		l0.918-0.919c0.204-0.204,0.204-0.535,0-0.736c-0.203-0.204-0.533-0.204-0.736,0l-1.439,1.439l-3.885-3.885l6.06-6.059
		c0.203-0.204,0.203-0.535,0-0.736c-0.202-0.204-0.533-0.204-0.736,0l-6.06,6.059l-3.884-3.884l1.438-1.44
		c0.203-0.204,0.203-0.535,0-0.736c-0.204-0.204-0.533-0.204-0.736,0l-0.918,0.92V3.729l2.317-2.32c0.203-0.203,0.203-0.535,0-0.736
		c-0.203-0.203-0.533-0.203-0.736,0l-1.581,1.583V0.521C16.667,0.235,16.432,0,16.146,0c-0.286,0-0.521,0.235-0.521,0.521v1.735
		l-1.583-1.583c-0.202-0.203-0.534-0.203-0.736,0c-0.202,0.202-0.202,0.533,0,0.736l2.32,2.32v1.919l-0.92-0.92
		c-0.203-0.204-0.533-0.204-0.736,0c-0.204,0.203-0.204,0.533,0,0.736l1.439,1.44l-3.883,3.884L5.466,4.731
		c-0.203-0.203-0.533-0.203-0.736,0c-0.203,0.203-0.203,0.534,0,0.736l6.058,6.059l-3.884,3.884l-1.439-1.438
		c-0.203-0.204-0.533-0.204-0.736,0c-0.203,0.203-0.203,0.533,0,0.736l0.918,0.918H3.728l-2.319-2.318
		c-0.203-0.202-0.535-0.202-0.736,0c-0.203,0.203-0.203,0.534,0,0.736l1.582,1.582H0.521C0.234,15.626,0,15.861,0,16.147
		s0.234,0.521,0.521,0.521h1.736l-1.583,1.584c-0.203,0.203-0.203,0.534,0,0.736c0.102,0.104,0.235,0.152,0.369,0.152
		s0.267-0.051,0.369-0.152l2.319-2.321h1.918l-0.919,0.919c-0.203,0.203-0.203,0.534,0,0.736c0.102,0.103,0.236,0.151,0.369,0.151
		c0.134,0,0.267-0.051,0.369-0.151l1.439-1.439l3.885,3.884l-6.058,6.059c-0.202,0.204-0.202,0.533,0,0.737
		c0.104,0.102,0.236,0.152,0.369,0.152c0.132,0,0.266-0.051,0.369-0.152l6.058-6.06l3.884,3.886l-1.438,1.439
		c-0.203,0.203-0.203,0.532,0,0.736c0.203,0.203,0.533,0.203,0.737,0l0.917-0.919v1.918l-2.318,2.319
		c-0.203,0.203-0.203,0.535,0,0.736c0.204,0.203,0.534,0.203,0.736,0l1.582-1.583v1.735c0,0.287,0.234,0.521,0.521,0.521
		c0.286,0,0.521-0.233,0.521-0.521v-1.735l1.584,1.583c0.101,0.103,0.234,0.152,0.367,0.152c0.134,0,0.267-0.051,0.369-0.152
		c0.201-0.201,0.201-0.533,0-0.736l-2.323-2.319v-1.918l0.92,0.919c0.102,0.102,0.235,0.152,0.368,0.152
		c0.135,0,0.269-0.051,0.369-0.152c0.203-0.204,0.203-0.533,0-0.736l-1.44-1.439l3.885-3.886l6.058,6.061
		c0.103,0.103,0.237,0.151,0.369,0.151c0.135,0,0.267-0.051,0.368-0.151c0.204-0.203,0.204-0.533,0-0.737l-6.059-6.06l3.884-3.884
		l1.439,1.438c0.103,0.102,0.237,0.152,0.369,0.152c0.135,0,0.268-0.051,0.368-0.152c0.204-0.203,0.204-0.533,0-0.736l-0.92-0.918
		h1.918l2.318,2.317c0.104,0.103,0.237,0.152,0.369,0.152c0.133,0,0.267-0.053,0.369-0.152c0.202-0.202,0.202-0.534,0-0.736
		l-1.583-1.581h1.734c0.286,0,0.521-0.233,0.521-0.521S32.057,15.625,31.771,15.625z M24.13,15.625h-6.727l3.364-3.364L24.13,15.625
		z M16.667,14.89V8.162l3.363,3.363L16.667,14.89z M15.625,8.162v6.726l-3.364-3.364L15.625,8.162z M14.889,15.625H8.161
		l3.364-3.364L14.889,15.625z M8.161,16.667h6.728l-3.363,3.363L8.161,16.667z M15.625,17.405v6.726l-3.364-3.364L15.625,17.405z
		 M16.667,24.13v-6.729l3.363,3.364L16.667,24.13z M17.404,16.667h6.727l-3.364,3.363L17.404,16.667z"/>
</g>
<g>
</g>
<g>
</g>
<g>
</g>
<g>
</g>
<g>
</g>
<g>
</g>
<g>
</g>
<g>
</g>
<g>
</g>
<g>
</g>
<g>
</g>
<g>
</g>
<g>
</g>
<g>
</g>
<g>
</g>
</svg>
