<?xml version="1.0" encoding="iso-8859-1"?>
<!-- Generator: Adobe Illustrator 16.0.0, SVG Export Plug-In . SVG Version: 6.00 Build 0)  -->
<!DOCTYPE svg PUBLIC "-//W3C//DTD SVG 1.1//EN" "http://www.w3.org/Graphics/SVG/1.1/DTD/svg11.dtd">
<svg version="1.1" id="Capa_1" xmlns="http://www.w3.org/2000/svg" xmlns:xlink="http://www.w3.org/1999/xlink" x="0px" y="0px"
	 width="37.703px" height="37.703px" viewBox="0 0 37.703 37.703" style="enable-background:new 0 0 37.703 37.703;"
	 xml:space="preserve">
<g>
	<path d="M37.635,18.6l-1.18-2.041c-0.089-0.154-0.254-0.25-0.434-0.25h-2.356c-0.178,0-0.343,0.096-0.434,0.25l-1.032,1.791h-5.037
		l4.193-4.191c0.195-0.195,0.195-0.512,0-0.707c-0.194-0.195-0.512-0.195-0.707,0l-4.9,4.898h-2.194l2.807-3.836l-4.727,0.514
		l1.101-1.906l6.69-1.793c0.267-0.072,0.425-0.346,0.354-0.613c-0.071-0.266-0.345-0.418-0.612-0.354l-5.725,1.535l2.516-4.355
		l0.81-0.002l0.148,0.002c0.002,0,0.005,0,0.008,0l1.104-0.002c0.178,0,0.343-0.096,0.432-0.25l1.182-2.041
		c0.089-0.153,0.089-0.346,0-0.5L28.46,2.708c-0.089-0.153-0.254-0.25-0.434-0.25h-2.355c-0.179,0-0.344,0.097-0.433,0.25
		L24.06,4.749c-0.09,0.154-0.09,0.347,0,0.5l1.034,1.791l-2.517,4.359L21.043,5.67c-0.07-0.269-0.344-0.418-0.611-0.354
		c-0.268,0.072-0.425,0.347-0.354,0.611l1.792,6.694l-1.1,1.904l-1.919-4.349l-1.919,4.35l-1.1-1.906l1.793-6.688
		c0.072-0.268-0.087-0.541-0.354-0.613c-0.264-0.064-0.541,0.088-0.612,0.354l-1.534,5.724l-2.517-4.358l1.034-1.789
		c0.089-0.154,0.089-0.345,0-0.5l-1.178-2.041c-0.089-0.154-0.254-0.25-0.432-0.25H9.674c-0.179,0-0.344,0.096-0.433,0.25
		L8.062,4.752c-0.089,0.153-0.088,0.344,0,0.498l1.179,2.041c0.089,0.153,0.254,0.25,0.433,0.25h1.104c0.001,0,0.002,0,0.003,0
		l0.961-0.002l2.517,4.36l-5.725-1.535c-0.267-0.063-0.541,0.089-0.612,0.354c-0.071,0.268,0.087,0.541,0.354,0.613l6.691,1.793
		l1.101,1.905l-4.727-0.514l2.807,3.834h-2.2l-4.897-4.897c-0.195-0.195-0.512-0.195-0.707,0c-0.195,0.194-0.195,0.512,0,0.706
		l4.191,4.191H5.501l-1.034-1.791c-0.089-0.154-0.254-0.25-0.433-0.25H1.679c-0.178,0-0.343,0.096-0.433,0.25l-1.179,2.041
		c-0.089,0.155-0.089,0.346,0,0.5l1.178,2.041c0.089,0.153,0.254,0.25,0.433,0.25l1.248,0.002c0.002,0,0.005,0,0.007,0l1.104-0.002
		c0.178,0,0.343-0.097,0.432-0.25l1.033-1.791h5.032l-4.19,4.19c-0.195,0.194-0.195,0.513,0,0.707
		c0.098,0.099,0.226,0.146,0.354,0.146s0.256-0.049,0.354-0.146l4.897-4.897h2.202l-2.81,3.839l4.726-0.514l-1.098,1.899
		l-6.692,1.795c-0.267,0.071-0.425,0.347-0.354,0.612c0.072,0.267,0.346,0.42,0.612,0.354l5.727-1.536l-2.518,4.36l-0.966-0.002
		l-1.104,0.004c-0.178,0.002-0.342,0.097-0.431,0.25l-1.178,2.039c-0.09,0.153-0.09,0.346,0,0.5l1.179,2.041
		c0.089,0.153,0.254,0.25,0.433,0.25l1.247,0.002c0.002,0,0.005,0,0.007,0l1.104-0.002c0.178,0,0.343-0.097,0.432-0.25l1.178-2.041
		c0.089-0.154,0.089-0.347,0-0.5l-1.034-1.79l2.517-4.359l1.536,5.727c0.06,0.224,0.262,0.369,0.482,0.369
		c0.043,0,0.086-0.006,0.13-0.018c0.267-0.07,0.425-0.348,0.354-0.611l-1.794-6.688l1.101-1.903l1.919,4.352l1.918-4.35l1.099,1.899
		l-1.793,6.69c-0.07,0.269,0.087,0.541,0.354,0.611c0.043,0.012,0.087,0.018,0.13,0.018c0.222,0,0.422-0.146,0.481-0.369
		l1.534-5.729l2.519,4.361l-1.036,1.791c-0.089,0.156-0.089,0.346,0,0.5l1.18,2.041c0.089,0.154,0.254,0.25,0.433,0.25l1.104,0.002
		c0.002,0,0.005,0,0.007,0l1.247-0.002c0.179,0,0.344-0.096,0.434-0.25l1.179-2.041c0.089-0.154,0.089-0.346,0-0.5l-1.179-2.041
		c-0.09-0.154-0.255-0.25-0.434-0.25h-2.066l-2.519-4.359l5.725,1.535c0.271,0.066,0.541-0.088,0.612-0.354
		c0.071-0.268-0.087-0.541-0.354-0.613l-6.69-1.793l-1.1-1.904l4.728,0.516l-2.811-3.838h2.201l4.896,4.897
		c0.098,0.1,0.226,0.146,0.354,0.146s0.256-0.049,0.354-0.146c0.194-0.195,0.194-0.512,0-0.707l-4.189-4.19h5.033l1.035,1.793
		c0.089,0.152,0.254,0.25,0.434,0.25h2.356c0.179,0,0.344-0.098,0.433-0.25l1.179-2.043C37.724,18.946,37.724,18.754,37.635,18.6z
		 M25.065,4.998l0.891-1.541h1.227h0.553l0.277,0.479l0.614,1.062l-0.893,1.543h-0.812L26.77,6.539h-0.235l-0.577,0.002
		l-0.289-0.502L25.065,4.998z M9.96,3.457l0.553-0.002h0.41l0.816,0.002l0.89,1.541l-0.601,1.039l-0.289,0.5l-0.577,0.002H9.96
		L9.07,4.998l0.614-1.062L9.96,3.457z M1.074,18.85l0.277-0.478l0.613-1.062h1.78l0.601,1.041l0.288,0.5l-0.288,0.5l-0.601,1.042
		l-1.781-0.002L1.35,19.33L1.074,18.85z M12.63,32.704l-0.889,1.543l-1.238-0.002H9.961l-0.277-0.479l-0.613-1.062l0.89-1.541
		l1.201-0.002h0.578l0.289,0.5L12.63,32.704z M27.735,34.245l-0.542,0.002h-0.425h-0.812l-0.892-1.543l0.604-1.041l0.289-0.5h0.578
		h1.202l0.89,1.541l-0.612,1.062L27.735,34.245z M20.399,21.536l-0.251,0.568l-1.299,2.942l-1.299-2.946l-0.25-0.566l-0.618,0.068
		l-3.199,0.348l1.902-2.6l0.365-0.498l-0.367-0.502l-1.9-2.596l3.201,0.348l0.614,0.066l0.251-0.568l1.3-2.945l1.298,2.945
		l0.251,0.568l0.614-0.066l3.202-0.348l-1.9,2.596l-0.366,0.502l0.364,0.498l1.902,2.6l-3.2-0.348L20.399,21.536z M33.064,18.852
		l0.289-0.502l0.601-1.041h1.78l0.613,1.062l0.275,0.479l-0.274,0.479l-0.613,1.064h-1.779l-0.603-1.043L33.064,18.852z"/>
</g>
<g>
</g>
<g>
</g>
<g>
</g>
<g>
</g>
<g>
</g>
<g>
</g>
<g>
</g>
<g>
</g>
<g>
</g>
<g>
</g>
<g>
</g>
<g>
</g>
<g>
</g>
<g>
</g>
<g>
</g>
</svg>
