<?xml version="1.0" encoding="iso-8859-1"?>
<!-- Generator: Adobe Illustrator 16.0.0, SVG Export Plug-In . SVG Version: 6.00 Build 0)  -->
<!DOCTYPE svg PUBLIC "-//W3C//DTD SVG 1.1//EN" "http://www.w3.org/Graphics/SVG/1.1/DTD/svg11.dtd">
<svg version="1.1" id="Capa_1" xmlns="http://www.w3.org/2000/svg" xmlns:xlink="http://www.w3.org/1999/xlink" x="0px" y="0px"
	 width="31.5px" height="31.5px" viewBox="0 0 31.5 31.5" style="enable-background:new 0 0 31.5 31.5;" xml:space="preserve">
<g>
	<path d="M30.75,15h-5.777l3.979-3.979c0.293-0.293,0.293-0.768,0-1.061s-0.769-0.293-1.062,0L22.85,15h-1.664l-3.235-1.449
		l-1.449-3.237V8.361l5.244-5.245c0.293-0.293,0.293-0.768,0-1.061s-0.769-0.293-1.062,0L16.5,6.24V0.75
		C16.5,0.336,16.164,0,15.75,0S15,0.335,15,0.75v5.49l-4.185-4.184c-0.293-0.293-0.768-0.293-1.061,0s-0.293,0.768,0,1.061
		l5.244,5.245v1.953l-1.449,3.237l-3.236,1.449H8.649l-5.041-5.04c-0.293-0.293-0.768-0.293-1.061,0s-0.293,0.768,0,1.061
		l3.979,3.979H0.75c-0.414,0-0.75,0.336-0.75,0.75s0.336,0.75,0.75,0.75h5.777L2.548,20.48c-0.293,0.293-0.293,0.769,0,1.062
		c0.146,0.146,0.338,0.219,0.53,0.219s0.384-0.071,0.53-0.219l5.039-5.041h1.664l3.237,1.449l1.449,3.237v1.951l-5.244,5.244
		c-0.293,0.293-0.293,0.77,0,1.062s0.769,0.293,1.062,0l4.184-4.186v5.49c0,0.414,0.336,0.75,0.75,0.75s0.75-0.336,0.75-0.75v-5.49
		l4.185,4.186c0.146,0.146,0.338,0.222,0.53,0.222c0.19,0,0.384-0.074,0.529-0.222c0.293-0.293,0.293-0.768,0-1.061l-5.244-5.246
		v-1.951l1.448-3.237l3.236-1.449h1.666l5.041,5.041c0.146,0.146,0.338,0.219,0.529,0.219s0.385-0.071,0.531-0.219
		c0.293-0.293,0.293-0.769,0-1.062l-3.98-3.979h5.779c0.414,0,0.75-0.335,0.75-0.75S31.164,15,30.75,15z M17.518,16.5l-0.703,0.314
		l-0.312,0.701l-0.75,1.674l-0.75-1.674l-0.313-0.701L13.987,16.5l-1.676-0.75L13.985,15l0.703-0.314l0.313-0.702l0.75-1.674
		l0.75,1.674l0.312,0.702L17.516,15l1.676,0.75L17.518,16.5z"/>
</g>
<g>
</g>
<g>
</g>
<g>
</g>
<g>
</g>
<g>
</g>
<g>
</g>
<g>
</g>
<g>
</g>
<g>
</g>
<g>
</g>
<g>
</g>
<g>
</g>
<g>
</g>
<g>
</g>
<g>
</g>
</svg>
