<?xml version="1.0" encoding="iso-8859-1"?>
<!-- Generator: Adobe Illustrator 16.0.0, SVG Export Plug-In . SVG Version: 6.00 Build 0)  -->
<!DOCTYPE svg PUBLIC "-//W3C//DTD SVG 1.1//EN" "http://www.w3.org/Graphics/SVG/1.1/DTD/svg11.dtd">
<svg version="1.1" id="Capa_1" xmlns="http://www.w3.org/2000/svg" xmlns:xlink="http://www.w3.org/1999/xlink" x="0px" y="0px"
	 width="35.789px" height="35.789px" viewBox="0 0 35.789 35.789" style="enable-background:new 0 0 35.789 35.789;"
	 xml:space="preserve">
<g>
	<path d="M5.893,13.959c-0.138-0.239-0.056-0.545,0.184-0.685l1.913-1.103L7.988,9.962c0-0.275,0.225-0.5,0.5-0.5
		c0.276,0,0.5,0.224,0.5,0.5L8.99,12.75l-2.413,1.392c-0.079,0.045-0.165,0.065-0.25,0.065C6.153,14.209,5.985,14.121,5.893,13.959z
		 M29.212,21.643L26.8,23.035l0.003,2.784c0,0.276,0.223,0.5,0.5,0.5c0.274,0,0.5-0.225,0.5-0.5L27.8,23.612l1.912-1.103
		c0.238-0.14,0.32-0.444,0.185-0.685C29.757,21.587,29.451,21.505,29.212,21.643z M15.481,6.218l2.413,1.393l2.413-1.393
		c0.239-0.139,0.321-0.443,0.184-0.684c-0.139-0.238-0.443-0.322-0.684-0.183l-1.913,1.106l-1.913-1.104
		c-0.24-0.142-0.546-0.058-0.683,0.183C15.16,5.774,15.242,6.082,15.481,6.218z M20.309,29.57l-2.415-1.393l-2.413,1.394
		c-0.239,0.14-0.321,0.443-0.183,0.685c0.092,0.16,0.261,0.25,0.433,0.25c0.085,0,0.171-0.021,0.25-0.067l1.913-1.105l1.915,1.104
		c0.237,0.141,0.545,0.059,0.682-0.183C20.628,30.014,20.546,29.708,20.309,29.57z M8.488,26.324c0.276,0,0.5-0.226,0.5-0.5
		l-0.001-2.785l-2.413-1.395c-0.237-0.14-0.545-0.058-0.683,0.184c-0.139,0.238-0.057,0.545,0.183,0.684l1.913,1.105l0.001,2.207
		C7.988,26.099,8.212,26.324,8.488,26.324z M27.3,9.467c-0.276,0-0.5,0.224-0.5,0.5v2.784l2.414,1.394
		c0.078,0.046,0.164,0.067,0.25,0.067c0.173,0,0.341-0.09,0.433-0.25c0.139-0.239,0.057-0.545-0.183-0.684L27.8,12.172V9.965
		C27.8,9.69,27.576,9.467,27.3,9.467z M35.789,17.894c0,0.275-0.225,0.5-0.5,0.5h-1.133l-1.232,2.136
		c-0.09,0.154-0.254,0.25-0.434,0.25h-2.752c-0.18,0-0.344-0.095-0.434-0.25l-0.429-0.738l-3.694,2.135l-0.152,0.088v0.177v4.27
		h0.852c0.18,0,0.344,0.096,0.434,0.25l1.379,2.386c0.091,0.153,0.091,0.346,0,0.5l-1.235,2.134l0.567,0.982
		c0.14,0.238,0.058,0.545-0.184,0.683c-0.078,0.046-0.164,0.067-0.25,0.067c-0.172,0-0.342-0.09-0.434-0.25l-0.566-0.983
		l-2.467,0.002c-0.178,0-0.344-0.096-0.432-0.25l-1.377-2.385c-0.09-0.155-0.09-0.347,0-0.5l0.428-0.739l-3.696-2.133l-0.152-0.088
		l-0.154,0.089l-3.693,2.132l0.427,0.736c0.09,0.154,0.09,0.346,0,0.5l-1.378,2.388c-0.089,0.153-0.254,0.25-0.434,0.25h-2.467
		l-0.566,0.983c-0.093,0.16-0.262,0.25-0.434,0.25c-0.085,0-0.171-0.021-0.25-0.067c-0.239-0.138-0.321-0.441-0.183-0.683
		l0.566-0.982L8.1,29.596c-0.089-0.155-0.089-0.347,0.001-0.5l1.377-2.388c0.089-0.153,0.254-0.25,0.433-0.25l0.853,0.002v-4.268
		v-0.178l-0.154-0.089l-3.694-2.134L6.49,20.529c-0.089,0.153-0.254,0.25-0.433,0.25H3.303c-0.18,0-0.345-0.097-0.435-0.25
		l-1.231-2.135H0.5c-0.275,0-0.5-0.224-0.5-0.5s0.225-0.5,0.5-0.5h1.136l1.23-2.136c0.09-0.154,0.255-0.25,0.435-0.25l2.755,0.001
		c0.179,0,0.344,0.096,0.433,0.25l0.425,0.735l3.694-2.133l0.155-0.09v-0.175V9.33H9.909c-0.179,0-0.344-0.096-0.434-0.25
		L8.098,6.691c-0.089-0.155-0.089-0.346,0.001-0.5L9.33,4.058l-0.565-0.98c-0.14-0.239-0.058-0.545,0.183-0.684
		c0.239-0.141,0.545-0.057,0.684,0.184l0.566,0.981l2.465-0.002c0.18,0,0.345,0.097,0.435,0.25l1.376,2.388
		c0.089,0.155,0.089,0.346-0.001,0.5l-0.424,0.734l3.694,2.134l0.154,0.089l0.151-0.088l3.694-2.132l-0.426-0.737
		c-0.09-0.154-0.09-0.345,0-0.5l1.377-2.387c0.09-0.154,0.254-0.25,0.434-0.25h2.467l0.566-0.982c0.139-0.24,0.445-0.32,0.684-0.184
		c0.238,0.139,0.32,0.443,0.184,0.684L26.46,4.059l1.231,2.134c0.091,0.154,0.091,0.346,0,0.5L26.312,9.08
		c-0.09,0.154-0.254,0.25-0.434,0.25h-0.85v4.265v0.179l0.152,0.088l3.696,2.135l0.425-0.734c0.09-0.154,0.254-0.25,0.432-0.25
		l2.756-0.003l0,0c0.18,0,0.344,0.096,0.436,0.25l1.229,2.134h1.135C35.564,17.394,35.789,17.619,35.789,17.894z M32.201,19.779
		l0.803-1.386l0.287-0.497L33,17.394l-0.799-1.384l-2.176,0.003L29.6,16.747L29.4,17.09l-0.174,0.303l-0.291,0.501l0.289,0.499
		l0.162,0.279l0.213,0.369l0.426,0.735L32.201,19.779L32.201,19.779z M24.585,14.675l-1.987,2.719h5.473l0.309-0.531L24.585,14.675z
		 M19.193,21.146l0.252-0.567l0.613,0.065l3.201,0.349l-1.902-2.599l-0.365-0.499l0.367-0.501l1.9-2.598l-3.201,0.348l-0.615,0.066
		l-0.25-0.565l-1.299-2.948l-1.301,2.946l-0.25,0.567l-0.614-0.066l-3.2-0.348l1.9,2.599l0.366,0.5l-0.365,0.5l-1.901,2.598
		l3.201-0.349l0.615-0.065l0.25,0.565l1.299,2.945L19.193,21.146z M24.029,9.332h-0.613l-2.736,4.737l3.351-0.364L24.029,9.332
		L24.029,9.332z M23.415,4.562l-1.092,1.887l0.426,0.732l0.217,0.376l0.16,0.276l0.287,0.498h0.578h0.321h0.429l0.848,0.002
		l1.091-1.888l-0.8-1.385l-0.289-0.5h-0.575L23.415,4.562L23.415,4.562z M18.453,10.489l1.361,3.082l2.735-4.738l-0.309-0.531
		L18.453,10.489z M13.546,8.297l-0.309,0.533l2.735,4.738l1.361-3.084L13.546,8.297z M9.907,5.061l-0.8,1.385l1.089,1.888h0.851
		h0.43l0.32-0.002h0.575l0.289-0.5l0.163-0.283l0.211-0.363l0.426-0.734l-1.089-1.889l-1.599,0.001l-0.578,0.001L9.907,5.061z
		 M11.761,13.707l3.349,0.364l-2.735-4.739h-0.612L11.761,13.707L11.761,13.707z M7.411,16.862l0.308,0.532h5.473l-1.99-2.72
		L7.411,16.862z M6.402,18.675l0.162-0.28l0.288-0.5l-0.289-0.5l-0.176-0.306l-0.198-0.344L5.764,16.01l-2.177-0.001l-0.8,1.386
		L2.5,17.894l0.29,0.501l0.799,1.386h2.176l0.425-0.735L6.402,18.675z M11.201,21.112l1.989-2.718H7.717l-0.308,0.531L11.201,21.112
		z M11.761,26.457h0.611l2.736-4.738l-3.349,0.363L11.761,26.457L11.761,26.457z M12.372,31.227l1.091-1.888l-0.427-0.734
		l-0.214-0.369l-0.161-0.278l-0.289-0.498l-0.576-0.002h-0.32h-0.43h-0.849l-1.089,1.887l0.799,1.385l0.288,0.5h0.577L12.372,31.227
		L12.372,31.227z M17.335,25.301l-1.359-3.084l-2.737,4.739l0.308,0.529L17.335,25.301z M22.244,27.487l0.307-0.528l-2.736-4.739
		l-1.358,3.082L22.244,27.487z M25.88,30.728l0.802-1.386l-1.091-1.886h-0.854h-0.418h-0.327h-0.576l-0.289,0.5l-0.16,0.277
		l-0.2,0.35l-0.439,0.759l1.09,1.885l1.6-0.001l0.578-0.001L25.88,30.728z M24.029,22.082l-3.352-0.364l2.735,4.741h0.612
		L24.029,22.082z M28.376,18.925l-0.308-0.531h-5.473l1.99,2.719L28.376,18.925z"/>
</g>
<g>
</g>
<g>
</g>
<g>
</g>
<g>
</g>
<g>
</g>
<g>
</g>
<g>
</g>
<g>
</g>
<g>
</g>
<g>
</g>
<g>
</g>
<g>
</g>
<g>
</g>
<g>
</g>
<g>
</g>
</svg>
