<?xml version="1.0" encoding="iso-8859-1"?>
<!-- Generator: Adobe Illustrator 16.0.0, SVG Export Plug-In . SVG Version: 6.00 Build 0)  -->
<!DOCTYPE svg PUBLIC "-//W3C//DTD SVG 1.1//EN" "http://www.w3.org/Graphics/SVG/1.1/DTD/svg11.dtd">
<svg version="1.1" id="Capa_1" xmlns="http://www.w3.org/2000/svg" xmlns:xlink="http://www.w3.org/1999/xlink" x="0px" y="0px"
	 width="34.833px" height="34.832px" viewBox="0 0 34.833 34.832" style="enable-background:new 0 0 34.833 34.832;"
	 xml:space="preserve">
<g>
	<path d="M30.484,12.201l2.019-1.165V8.708l-2.019-1.166l-2.017,1.166v1.727l-6.694,3.864l0.735-2.736
		c0.072-0.278-0.093-0.563-0.37-0.637c-0.275-0.075-0.563,0.089-0.637,0.369l-1.003,3.743l-2.562,1.479v-2.958l2.739-2.74
		c0.203-0.203,0.203-0.533,0-0.736c-0.202-0.203-0.533-0.203-0.737,0l-2.002,2.003V4.357l1.498-0.865V1.163L17.416,0l-2.018,1.163
		v2.329l1.497,0.865v7.728l-2.003-2.003c-0.203-0.203-0.533-0.203-0.736,0c-0.204,0.203-0.204,0.534,0,0.736l2.739,2.74v2.958
		l-2.562-1.479l-1.003-3.743c-0.075-0.278-0.359-0.443-0.638-0.369c-0.278,0.074-0.442,0.361-0.369,0.637l0.733,2.736l-6.692-3.864
		V8.708L4.347,7.542L2.33,8.708v2.328l2.018,1.165l1.497-0.864l6.691,3.863L9.8,15.933c-0.278,0.074-0.442,0.36-0.369,0.637
		c0.062,0.232,0.273,0.388,0.502,0.388c0.045,0,0.089-0.007,0.135-0.019l3.742-1.002l2.562,1.479l-2.561,1.479l-3.744-1.002
		c-0.274-0.072-0.563,0.091-0.637,0.369s0.09,0.563,0.369,0.637l2.737,0.733l-6.693,3.864l-1.497-0.864l-2.019,1.166l0.002,2.327
		l2.017,1.164l2.018-1.164v-1.727l6.691-3.863l-0.732,2.734c-0.074,0.277,0.091,0.563,0.369,0.636
		c0.045,0.015,0.091,0.02,0.136,0.02c0.23,0,0.44-0.151,0.502-0.387l1.001-3.74l2.562-1.479v2.957l-2.739,2.74
		c-0.204,0.203-0.204,0.535,0,0.736c0.203,0.201,0.533,0.201,0.736,0l2.003-2.003v7.728l-1.497,0.864v2.328l2.018,1.163l2.018-1.163
		v-2.328l-1.496-0.862v-7.728l2.002,2.004c0.104,0.103,0.236,0.151,0.369,0.151c0.134,0,0.268-0.051,0.37-0.151
		c0.203-0.202,0.203-0.533,0-0.736l-2.74-2.74V18.32L20.5,19.8l1.001,3.74c0.063,0.233,0.272,0.387,0.502,0.387
		c0.045,0,0.091-0.005,0.135-0.02c0.279-0.072,0.444-0.36,0.37-0.636l-0.732-2.734l6.689,3.862v1.728l2.019,1.164l2.018-1.164
		l0.002-2.327l-2.02-1.166l-1.496,0.864l-6.693-3.864l2.738-0.733c0.277-0.073,0.441-0.36,0.369-0.637
		c-0.073-0.277-0.36-0.443-0.637-0.369l-3.745,1.002l-2.56-1.479l2.562-1.479l3.743,1.002c0.045,0.012,0.09,0.019,0.134,0.019
		c0.231,0,0.442-0.154,0.503-0.387c0.073-0.278-0.092-0.564-0.369-0.638l-2.736-0.732l6.691-3.863L30.484,12.201z"/>
</g>
<g>
</g>
<g>
</g>
<g>
</g>
<g>
</g>
<g>
</g>
<g>
</g>
<g>
</g>
<g>
</g>
<g>
</g>
<g>
</g>
<g>
</g>
<g>
</g>
<g>
</g>
<g>
</g>
<g>
</g>
</svg>
