<?xml version="1.0" encoding="iso-8859-1"?>
<!-- Generator: Adobe Illustrator 16.0.0, SVG Export Plug-In . SVG Version: 6.00 Build 0)  -->
<!DOCTYPE svg PUBLIC "-//W3C//DTD SVG 1.1//EN" "http://www.w3.org/Graphics/SVG/1.1/DTD/svg11.dtd">
<svg version="1.1" id="Capa_1" xmlns="http://www.w3.org/2000/svg" xmlns:xlink="http://www.w3.org/1999/xlink" x="0px" y="0px"
	 width="37.165px" height="37.165px" viewBox="0 0 37.165 37.165" style="enable-background:new 0 0 37.165 37.165;"
	 xml:space="preserve">
<g>
	<path d="M34.937,25.9c-0.181-0.67-0.608-1.23-1.21-1.578c-1.053-0.607-2.458-0.336-3.253,0.545l-4.438-2.562l5.728-1.533
		c0.268-0.07,0.425-0.346,0.354-0.611c-0.071-0.266-0.345-0.426-0.612-0.354l-6.425,1.719l-2.157-2.945l2.158-2.948l6.422,1.723
		c0.043,0.012,0.087,0.017,0.13,0.017c0.222,0,0.423-0.147,0.482-0.371c0.071-0.267-0.087-0.541-0.354-0.612l-5.722-1.535
		l4.483-2.589c0.479,0.45,1.116,0.717,1.786,0.717c0.468,0,0.928-0.127,1.331-0.368c1.229-0.736,1.632-2.335,0.896-3.564
		c-0.707-1.182-2.378-1.609-3.562-0.896c-0.597,0.354-1.019,0.923-1.188,1.596c-0.146,0.575-0.08,1.163,0.159,1.694l-4.409,2.546
		l1.534-5.726c0.072-0.267-0.087-0.541-0.354-0.612c-0.266-0.071-0.541,0.086-0.611,0.354l-1.724,6.425l-3.63,0.395l-1.475-3.344
		l4.703-4.703c0.194-0.195,0.194-0.512,0-0.707c-0.194-0.195-0.513-0.195-0.707,0l-4.192,4.19v-5.09
		c1.29-0.132,2.317-1.211,2.338-2.534C21.441,1.206,20.293,0.023,18.824,0c-1.411,0-2.578,1.148-2.6,2.56
		c-0.017,1.189,0.775,2.195,1.86,2.519v5.185l-4.192-4.192c-0.195-0.195-0.512-0.195-0.707,0c-0.195,0.195-0.195,0.512,0,0.707
		l4.704,4.704l-1.474,3.343l-3.631-0.395l-1.721-6.424c-0.071-0.267-0.344-0.424-0.612-0.354c-0.267,0.071-0.425,0.346-0.354,0.612
		l1.533,5.725l-4.432-2.559C7.592,10.28,7.132,8.97,6.04,8.337C4.838,7.645,3.18,8.095,2.49,9.289
		C2.143,9.89,2.05,10.59,2.23,11.261c0.18,0.671,0.61,1.231,1.211,1.578c0.395,0.228,0.844,0.349,1.298,0.349
		c0.755,0,1.455-0.342,1.944-0.898l4.446,2.567l-5.725,1.534c-0.267,0.071-0.425,0.346-0.354,0.612
		c0.06,0.224,0.262,0.371,0.482,0.371c0.043,0,0.086-0.005,0.13-0.017l6.424-1.721l2.157,2.947l-2.157,2.948l-6.425-1.723
		c-0.265-0.07-0.541,0.086-0.612,0.354c-0.071,0.268,0.087,0.541,0.354,0.611l5.726,1.535L6.63,24.906
		c-0.825-0.746-2.124-0.941-3.104-0.355c-1.228,0.734-1.63,2.332-0.897,3.564c0.467,0.779,1.323,1.264,2.234,1.264
		c0.467,0,0.927-0.127,1.33-0.365c1.142-0.684,1.559-2.106,1.026-3.293l4.408-2.545L10.094,28.9
		c-0.071,0.267,0.087,0.541,0.354,0.611c0.043,0.012,0.087,0.018,0.13,0.018c0.221,0,0.422-0.147,0.482-0.37l1.722-6.425
		l3.632-0.396l1.473,3.34l-4.703,4.705c-0.195,0.195-0.195,0.512,0,0.707c0.098,0.098,0.226,0.146,0.354,0.146
		s0.256-0.049,0.354-0.146l4.192-4.195v5.099c-1.291,0.131-2.318,1.211-2.337,2.532c-0.011,0.695,0.249,1.353,0.733,1.851
		c0.483,0.498,1.131,0.776,1.826,0.789h0.039c1.41,0,2.576-1.147,2.598-2.56c0.011-0.694-0.25-1.352-0.733-1.852
		c-0.312-0.32-0.698-0.541-1.125-0.666V26.9l4.189,4.188c0.194,0.195,0.513,0.195,0.707,0c0.194-0.193,0.194-0.512,0-0.707
		l-4.704-4.699l1.475-3.344l3.629,0.396l1.723,6.425c0.061,0.223,0.262,0.37,0.481,0.37c0.043,0,0.086-0.006,0.13-0.018
		c0.268-0.07,0.426-0.346,0.354-0.611l-1.533-5.727l4.433,2.561c-0.167,0.484-0.188,1.009-0.052,1.515
		c0.18,0.67,0.609,1.231,1.211,1.58c0.396,0.228,0.843,0.348,1.297,0.348c0.928,0,1.791-0.497,2.253-1.301
		C35.021,27.271,35.115,26.572,34.937,25.9z M30.754,9.995c0.104-0.415,0.364-0.763,0.73-0.983c0.248-0.148,0.53-0.227,0.816-0.227
		c0.498,0,0.943,0.232,1.245,0.615c0.043,0.055,0.093,0.103,0.129,0.164c0.143,0.237,0.207,0.496,0.218,0.754
		c0.021,0.566-0.25,1.127-0.77,1.438c-0.513,0.305-1.164,0.263-1.66-0.035c-0.214-0.128-0.401-0.299-0.532-0.518
		c-0.051-0.083-0.09-0.17-0.122-0.259C30.694,10.643,30.674,10.314,30.754,9.995z M5.792,11.775
		c-0.501,0.426-1.261,0.539-1.852,0.198c-0.37-0.213-0.634-0.558-0.745-0.971c-0.067-0.252-0.065-0.509-0.01-0.757
		c0.035-0.158,0.087-0.312,0.17-0.456c0.083-0.143,0.19-0.265,0.309-0.373C3.957,9.15,4.337,8.99,4.743,8.99
		c0.279,0,0.554,0.074,0.796,0.213c0.612,0.354,0.895,1.053,0.76,1.709c-0.033,0.163-0.085,0.324-0.173,0.475
		C6.041,11.54,5.922,11.665,5.792,11.775z M5.683,28.152C5,28.559,4.089,28.363,3.607,27.756c-0.04-0.051-0.083-0.1-0.117-0.154
		c-0.142-0.237-0.207-0.498-0.217-0.756c-0.021-0.566,0.25-1.129,0.769-1.438c0.248-0.148,0.531-0.227,0.819-0.227
		c0.307,0,0.599,0.096,0.852,0.254c0.209,0.133,0.394,0.307,0.523,0.522c0.05,0.084,0.088,0.172,0.121,0.26
		C6.623,26.93,6.354,27.75,5.683,28.152z M19.083,23.643l-0.5,1.133l-0.5-1.133l-1.049-2.379l-2.585,0.28l-1.232,0.136l0.732-1
		l1.536-2.098l-1.535-2.097l-0.733-1.001l1.231,0.134l2.586,0.282l1.049-2.379l0.5-1.133l0.5,1.135L20.13,15.9l2.585-0.281
		l1.232-0.134l-0.732,1l-1.535,2.097l1.535,2.1l0.73,1l-1.232-0.136l-2.584-0.28L19.083,23.643z M18.083,1.196
		c0.228-0.121,0.485-0.195,0.762-0.195l0,0c0.07,0.001,0.137,0.014,0.205,0.024c0.782,0.114,1.382,0.788,1.372,1.599
		c-0.012,0.779-0.592,1.424-1.338,1.549c-0.084,0.014-0.17,0.026-0.26,0.026v0.497l-0.025-0.497c-0.259-0.004-0.5-0.075-0.714-0.188
		c-0.516-0.271-0.869-0.812-0.86-1.434C17.231,1.978,17.581,1.462,18.083,1.196z M19.083,35.973
		c-0.223,0.117-0.472,0.189-0.739,0.189v0.246c-0.004-0.002-0.008-0.008-0.013-0.01l-0.011-0.236c-0.069,0-0.137-0.014-0.205-0.021
		c-0.348-0.051-0.67-0.207-0.919-0.463c-0.297-0.307-0.457-0.711-0.45-1.137c0.011-0.773,0.582-1.416,1.337-1.547
		c0.093-0.018,0.187-0.029,0.285-0.029c0.255,0.004,0.496,0.074,0.714,0.188c0.148,0.078,0.288,0.174,0.408,0.299
		c0.298,0.307,0.458,0.711,0.452,1.137C19.935,35.188,19.583,35.705,19.083,35.973z M30.881,26.988
		c-0.064-0.246-0.064-0.496-0.015-0.738c0.033-0.164,0.088-0.326,0.175-0.477c0.087-0.151,0.202-0.275,0.328-0.389
		c0.289-0.257,0.661-0.412,1.06-0.412c0.277,0,0.554,0.073,0.797,0.215c0.37,0.213,0.634,0.559,0.745,0.971
		c0.066,0.252,0.064,0.51,0.01,0.758c-0.035,0.158-0.087,0.312-0.17,0.457c-0.082,0.143-0.189,0.26-0.312,0.367
		c-0.501,0.441-1.275,0.562-1.874,0.219C31.256,27.746,30.991,27.4,30.881,26.988z"/>
</g>
<g>
</g>
<g>
</g>
<g>
</g>
<g>
</g>
<g>
</g>
<g>
</g>
<g>
</g>
<g>
</g>
<g>
</g>
<g>
</g>
<g>
</g>
<g>
</g>
<g>
</g>
<g>
</g>
<g>
</g>
</svg>
