<?xml version="1.0" encoding="iso-8859-1"?>
<!-- Generator: Adobe Illustrator 16.0.0, SVG Export Plug-In . SVG Version: 6.00 Build 0)  -->
<!DOCTYPE svg PUBLIC "-//W3C//DTD SVG 1.1//EN" "http://www.w3.org/Graphics/SVG/1.1/DTD/svg11.dtd">
<svg version="1.1" id="Capa_1" xmlns="http://www.w3.org/2000/svg" xmlns:xlink="http://www.w3.org/1999/xlink" x="0px" y="0px"
	 width="32.895px" height="32.895px" viewBox="0 0 32.895 32.895" style="enable-background:new 0 0 32.895 32.895;"
	 xml:space="preserve">
<g>
	<path d="M32.892,16.447l-3.175,3.175l-2.523-2.524h-7.283l1.986,1.985c0.254,0.255,0.254,0.666,0,0.919
		c-0.127,0.127-0.293,0.19-0.459,0.19s-0.332-0.063-0.459-0.19l-2.904-2.904h-0.979v0.977l2.905,2.906
		c0.254,0.254,0.254,0.665,0,0.919c-0.127,0.127-0.293,0.188-0.459,0.188s-0.333-0.062-0.459-0.188l-1.986-1.986v7.283l2.524,2.522
		l-3.174,3.176l-3.174-3.176l2.524-2.525v-7.281l-1.986,1.986c-0.254,0.254-0.664,0.254-0.919,0c-0.254-0.254-0.254-0.665,0-0.919
		l2.905-2.906v-0.976H14.82l-2.906,2.904c-0.127,0.127-0.293,0.189-0.459,0.189s-0.333-0.062-0.459-0.189
		c-0.254-0.255-0.254-0.664,0-0.92l1.986-1.984H5.701l-2.525,2.523l-3.174-3.174l3.175-3.174l2.525,2.524h7.281l-1.986-1.986
		c-0.254-0.254-0.254-0.665,0-0.919c0.254-0.254,0.665-0.254,0.919,0l2.906,2.905h0.977V14.82l-2.905-2.906
		c-0.254-0.254-0.254-0.665,0-0.919c0.255-0.254,0.665-0.254,0.919,0l1.986,1.986v-7.28l-2.524-2.526L16.449,0l3.174,3.175
		L17.1,5.699v7.282l1.986-1.986c0.254-0.254,0.665-0.254,0.919,0s0.254,0.665,0,0.919L17.1,14.82v0.977h0.979l2.904-2.905
		c0.254-0.254,0.664-0.254,0.92,0c0.254,0.253,0.254,0.665,0,0.919l-1.986,1.986h7.281l2.524-2.524L32.892,16.447z"/>
</g>
<g>
</g>
<g>
</g>
<g>
</g>
<g>
</g>
<g>
</g>
<g>
</g>
<g>
</g>
<g>
</g>
<g>
</g>
<g>
</g>
<g>
</g>
<g>
</g>
<g>
</g>
<g>
</g>
<g>
</g>
</svg>
