<?xml version="1.0" encoding="iso-8859-1"?>
<!-- Generator: Adobe Illustrator 16.0.0, SVG Export Plug-In . SVG Version: 6.00 Build 0)  -->
<!DOCTYPE svg PUBLIC "-//W3C//DTD SVG 1.1//EN" "http://www.w3.org/Graphics/SVG/1.1/DTD/svg11.dtd">
<svg version="1.1" id="Capa_1" xmlns="http://www.w3.org/2000/svg" xmlns:xlink="http://www.w3.org/1999/xlink" x="0px" y="0px"
	 width="32.818px" height="32.818px" viewBox="0 0 32.818 32.818" style="enable-background:new 0 0 32.818 32.818;"
	 xml:space="preserve">
<g>
	<path d="M32.042,15.626h-3.427l1.875-1.874c0.305-0.304,0.305-0.8,0-1.105s-0.801-0.305-1.105,0l-2.979,2.978h-3.78v-3.866h4.665
		c0.432,0,0.781-0.35,0.781-0.781c0-0.431-0.35-0.781-0.781-0.781h-3.561l3.764-3.765c0.306-0.305,0.306-0.8,0-1.105
		c-0.305-0.305-0.8-0.305-1.104,0l-3.765,3.765v-3.56c0-0.431-0.351-0.781-0.781-0.781c-0.432,0-0.781,0.35-0.781,0.781v4.665
		h-3.866v-3.78l2.98-2.979c0.305-0.305,0.305-0.8,0-1.105c-0.306-0.305-0.802-0.305-1.107,0l-1.875,1.875V0.781
		C17.193,0.35,16.844,0,16.413,0c-0.432,0-0.781,0.35-0.781,0.781v3.426l-1.874-1.875c-0.305-0.305-0.8-0.305-1.105,0
		c-0.305,0.305-0.305,0.8,0,1.105l2.978,2.979v3.78h-3.865V5.533c0-0.431-0.35-0.781-0.781-0.781s-0.781,0.35-0.781,0.781v3.56
		L6.438,5.328c-0.305-0.306-0.8-0.306-1.105,0c-0.305,0.306-0.305,0.8,0,1.105l3.765,3.765H5.538c-0.431,0-0.781,0.35-0.781,0.781
		c0,0.432,0.35,0.781,0.781,0.781h4.666v3.866H6.422l-2.979-2.979c-0.305-0.305-0.8-0.305-1.105,0s-0.305,0.8,0,1.105l1.875,1.875
		H0.787c-0.432,0-0.781,0.35-0.781,0.781c0,0.432,0.35,0.781,0.781,0.781h3.426l-1.874,1.874c-0.305,0.304-0.305,0.8,0,1.104
		c0.152,0.152,0.353,0.231,0.552,0.231s0.4-0.077,0.552-0.231l2.979-2.977h3.781v3.876H5.538c-0.431,0-0.781,0.35-0.781,0.781
		c0,0.431,0.35,0.781,0.781,0.781h3.561l-3.765,3.764c-0.305,0.306-0.305,0.802,0,1.106c0.152,0.152,0.353,0.229,0.552,0.229
		c0.2,0,0.4-0.076,0.552-0.229l3.765-3.765v3.56c0,0.432,0.35,0.781,0.781,0.781s0.781-0.35,0.781-0.781v-4.673h3.865v3.779
		l-2.979,2.979c-0.305,0.306-0.305,0.801,0,1.106c0.305,0.305,0.799,0.305,1.105,0l1.875-1.876v3.426
		c0,0.432,0.35,0.781,0.781,0.781c0.431,0,0.781-0.35,0.781-0.781v-3.426l1.874,1.874c0.152,0.152,0.352,0.229,0.553,0.229
		c0.198,0,0.399-0.075,0.55-0.229c0.306-0.304,0.306-0.8,0-1.105L17.192,26.4v-3.779h3.866v4.673c0,0.432,0.35,0.781,0.781,0.781
		c0.431,0,0.781-0.35,0.781-0.781v-3.56l3.765,3.764c0.151,0.152,0.352,0.23,0.55,0.23c0.201,0,0.401-0.076,0.553-0.23
		c0.306-0.305,0.306-0.8,0-1.105l-3.765-3.763h3.561c0.431,0,0.781-0.353,0.781-0.781c0-0.432-0.351-0.781-0.781-0.781h-4.665
		v-3.878h3.779l2.979,2.979c0.152,0.151,0.354,0.23,0.554,0.23c0.198,0,0.398-0.077,0.551-0.23c0.305-0.305,0.305-0.801,0-1.105
		l-1.875-1.875h3.426c0.432,0,0.781-0.35,0.781-0.781C32.813,15.975,32.473,15.626,32.042,15.626z M21.063,17.188v3.865h-3.865
		h-1.563h-3.865v-3.865v-1.562V11.76h3.865h1.563h3.865v3.866V17.188z"/>
</g>
<g>
</g>
<g>
</g>
<g>
</g>
<g>
</g>
<g>
</g>
<g>
</g>
<g>
</g>
<g>
</g>
<g>
</g>
<g>
</g>
<g>
</g>
<g>
</g>
<g>
</g>
<g>
</g>
<g>
</g>
</svg>
