<?xml version="1.0" encoding="iso-8859-1"?>
<!-- Generator: Adobe Illustrator 16.0.0, SVG Export Plug-In . SVG Version: 6.00 Build 0)  -->
<!DOCTYPE svg PUBLIC "-//W3C//DTD SVG 1.1//EN" "http://www.w3.org/Graphics/SVG/1.1/DTD/svg11.dtd">
<svg version="1.1" id="Capa_1" xmlns="http://www.w3.org/2000/svg" xmlns:xlink="http://www.w3.org/1999/xlink" x="0px" y="0px"
	 width="32.292px" height="32.292px" viewBox="0 0 32.292 32.292" style="enable-background:new 0 0 32.292 32.292;"
	 xml:space="preserve">
<g>
	<path d="M31.773,15.759l-6.171-0.052l3.911-3.845c0.205-0.2,0.207-0.531,0.006-0.737s-0.533-0.206-0.736-0.006l-4.653,4.576
		L23.35,15.69c-0.102-1.601-0.725-3.06-1.711-4.213l6.01-5.913c0.206-0.201,0.208-0.531,0.006-0.737
		c-0.201-0.205-0.53-0.207-0.736-0.006l-6.012,5.915c-1.131-0.993-2.578-1.64-4.18-1.778l0.006-0.779l4.65-4.579
		c0.206-0.203,0.208-0.533,0.008-0.736c-0.201-0.207-0.534-0.207-0.736-0.006l-3.909,3.848l0.053-6.176
		c0.002-0.285-0.23-0.522-0.518-0.525c-0.001,0-0.003,0-0.004,0c-0.285,0-0.519,0.231-0.521,0.517l-0.052,6.171l-3.845-3.91
		c-0.2-0.205-0.531-0.205-0.736-0.006c-0.204,0.201-0.206,0.531-0.006,0.737l4.577,4.653l-0.006,0.78
		c-1.599,0.103-3.06,0.725-4.211,1.708L5.562,4.643c-0.2-0.206-0.531-0.207-0.736-0.006c-0.204,0.2-0.206,0.531-0.006,0.735
		l5.914,6.012c-1.004,1.138-1.654,2.586-1.783,4.183l-0.774-0.006l-4.579-4.651c-0.202-0.205-0.535-0.205-0.736-0.006
		c-0.206,0.203-0.208,0.534-0.008,0.736l3.849,3.909l-6.176-0.052C0.202,15.516,0.002,15.724,0,16.012
		c-0.002,0.286,0.229,0.523,0.517,0.525l6.171,0.052l-3.91,3.847c-0.205,0.2-0.208,0.53-0.006,0.736
		c0.102,0.104,0.239,0.153,0.37,0.153c0.131,0,0.264-0.051,0.367-0.15l4.653-4.576l0.779,0.007c0.102,1.601,0.724,3.062,1.708,4.215
		L4.64,26.729c-0.205,0.202-0.208,0.531-0.006,0.737c0.102,0.104,0.238,0.154,0.37,0.154s0.265-0.052,0.366-0.151l6.008-5.909
		c1.136,1.002,2.585,1.649,4.188,1.777l-0.006,0.775l-4.651,4.58c-0.206,0.201-0.208,0.533-0.008,0.736
		c0.203,0.205,0.535,0.205,0.737,0.006l3.908-3.847l-0.052,6.176c-0.002,0.285,0.23,0.522,0.517,0.524c0.001,0,0.003,0,0.004,0
		c0.285,0,0.519-0.23,0.521-0.517l0.052-6.173l3.846,3.91c0.102,0.106,0.237,0.156,0.372,0.156c0.132,0,0.263-0.051,0.364-0.151
		c0.205-0.201,0.207-0.53,0.006-0.736l-4.576-4.652l0.006-0.781c1.599-0.103,3.06-0.727,4.213-1.709l5.911,6.01
		c0.102,0.105,0.237,0.156,0.372,0.156c0.132,0,0.263-0.051,0.364-0.151c0.205-0.2,0.207-0.531,0.006-0.736l-5.912-6.011
		c1.003-1.138,1.651-2.586,1.782-4.185l0.774,0.01l4.578,4.65c0.104,0.104,0.238,0.153,0.372,0.153c0.133,0,0.263-0.051,0.364-0.151
		c0.206-0.2,0.208-0.531,0.008-0.736l-3.849-3.908l6.178,0.054c0,0,0.002,0,0.004,0c0.284,0,0.519-0.23,0.521-0.518
		C32.294,15.984,32.062,15.761,31.773,15.759z M22.3,16.722c-0.122,1.312-0.655,2.503-1.469,3.45
		c-0.228,0.265-0.475,0.511-0.742,0.732c-0.959,0.797-2.161,1.308-3.474,1.409c-0.155,0.011-0.312,0.022-0.47,0.022v0.52
		l-0.052-0.52c-0.177-0.002-0.348-0.017-0.52-0.03c-1.315-0.122-2.507-0.653-3.453-1.467c-0.264-0.226-0.507-0.474-0.729-0.742
		c-0.798-0.959-1.309-2.161-1.409-3.475c-0.015-0.173-0.022-0.346-0.022-0.521c0.002-0.176,0.016-0.348,0.03-0.52
		c0.122-1.309,0.656-2.5,1.472-3.448c0.229-0.263,0.475-0.508,0.744-0.73c0.957-0.792,2.153-1.302,3.469-1.41
		c0.173-0.015,0.346-0.026,0.521-0.026c0.177,0.002,0.348,0.017,0.521,0.03c1.315,0.122,2.506,0.652,3.452,1.466
		c0.264,0.226,0.507,0.475,0.73,0.743c0.798,0.959,1.308,2.162,1.408,3.476c0.016,0.173,0.021,0.346,0.021,0.521
		C22.329,16.377,22.317,16.549,22.3,16.722z M19.958,13.129c-0.218-0.273-0.46-0.519-0.73-0.741
		c-0.704-0.576-1.564-0.954-2.521-1.07c-0.188-0.022-0.369-0.059-0.563-0.061c-0.164,0-0.321,0.032-0.479,0.049
		c-0.956,0.096-1.825,0.46-2.54,1.029c-0.275,0.216-0.521,0.459-0.743,0.73c-0.583,0.707-0.962,1.571-1.072,2.523
		c-0.022,0.174-0.057,0.343-0.057,0.521c-0.002,0.179,0.03,0.349,0.047,0.521c0.096,0.956,0.459,1.824,1.027,2.541
		c0.218,0.273,0.459,0.521,0.73,0.743c0.706,0.58,1.571,0.958,2.525,1.069c0.174,0.021,0.343,0.055,0.521,0.058h0.043
		c0.164,0,0.321-0.032,0.479-0.05c0.956-0.096,1.825-0.461,2.542-1.028c0.272-0.218,0.519-0.462,0.74-0.73
		c0.582-0.706,0.96-1.568,1.072-2.521c0.021-0.174,0.057-0.344,0.057-0.521c0.002-0.179-0.03-0.349-0.049-0.521
		C20.894,14.714,20.531,13.845,19.958,13.129z M19.94,16.703c-0.1,0.669-0.364,1.277-0.76,1.788
		c-0.213,0.277-0.458,0.522-0.74,0.732c-0.519,0.387-1.134,0.64-1.803,0.728C16.476,19.972,16.315,20,16.148,20v0.516L16.116,20
		c-0.18-0.003-0.348-0.033-0.521-0.059c-0.671-0.1-1.28-0.364-1.792-0.759c-0.276-0.216-0.521-0.464-0.73-0.742
		c-0.387-0.519-0.641-1.131-0.727-1.804c-0.022-0.17-0.049-0.341-0.049-0.521c0.002-0.179,0.031-0.349,0.057-0.52
		c0.1-0.668,0.366-1.277,0.762-1.789c0.213-0.277,0.463-0.521,0.744-0.729c0.515-0.383,1.129-0.637,1.8-0.729
		c0.172-0.022,0.342-0.053,0.522-0.053c0.178,0.004,0.348,0.033,0.52,0.059c0.669,0.098,1.281,0.363,1.792,0.759
		c0.277,0.214,0.521,0.462,0.729,0.743c0.389,0.518,0.643,1.133,0.73,1.803c0.021,0.173,0.049,0.344,0.047,0.522
		C19.996,16.362,19.964,16.532,19.94,16.703z"/>
</g>
<g>
</g>
<g>
</g>
<g>
</g>
<g>
</g>
<g>
</g>
<g>
</g>
<g>
</g>
<g>
</g>
<g>
</g>
<g>
</g>
<g>
</g>
<g>
</g>
<g>
</g>
<g>
</g>
<g>
</g>
</svg>
