<?xml version="1.0" encoding="iso-8859-1"?>
<!-- Generator: Adobe Illustrator 16.0.0, SVG Export Plug-In . SVG Version: 6.00 Build 0)  -->
<!DOCTYPE svg PUBLIC "-//W3C//DTD SVG 1.1//EN" "http://www.w3.org/Graphics/SVG/1.1/DTD/svg11.dtd">
<svg version="1.1" id="Capa_1" xmlns="http://www.w3.org/2000/svg" xmlns:xlink="http://www.w3.org/1999/xlink" x="0px" y="0px"
	 width="34.839px" height="34.838px" viewBox="0 0 34.839 34.838" style="enable-background:new 0 0 34.839 34.838;"
	 xml:space="preserve">
<g>
	<path d="M32.911,18.96l-8.048,2.153l-2.565-1.48l2.736-0.732c0.279-0.075,0.443-0.36,0.369-0.639
		c-0.075-0.277-0.356-0.444-0.638-0.369l-3.743,1.003l-2.562-1.477l2.563-1.479l3.741,1.003c0.046,0.013,0.091,0.018,0.135,0.018
		c0.23,0,0.442-0.153,0.504-0.387c0.073-0.278-0.091-0.563-0.369-0.637l-2.736-0.733l2.567-1.481l8.046,2.155
		c0.044,0.013,0.089,0.018,0.134,0.018c0.23,0,0.44-0.153,0.502-0.387c0.075-0.278-0.09-0.563-0.368-0.637l-7.038-1.885l2.85-1.646
		l1.496,0.863l2.019-1.164V8.71l-2.019-1.165L28.471,8.71v1.727l-2.849,1.646l1.887-7.037c0.073-0.278-0.091-0.563-0.368-0.638
		c-0.28-0.073-0.563,0.09-0.639,0.369l-2.153,8.042l-2.569,1.482l0.734-2.735c0.074-0.277-0.091-0.563-0.368-0.637
		c-0.282-0.073-0.563,0.091-0.64,0.369l-1.003,3.742l-2.562,1.476v-2.958l2.74-2.74c0.203-0.204,0.203-0.534,0-0.736
		c-0.203-0.203-0.533-0.203-0.736,0l-2.004,2.004V9.121l5.888-5.889c0.203-0.203,0.203-0.533,0-0.736
		c-0.203-0.203-0.533-0.203-0.737,0l-5.15,5.152V4.357l1.498-0.865V1.164L17.418,0L15.4,1.164v2.329l1.498,0.865v3.291l-5.151-5.152
		c-0.203-0.203-0.533-0.203-0.736,0c-0.204,0.204-0.204,0.534,0,0.736l5.887,5.889v2.965l-2.003-2.004
		c-0.203-0.203-0.534-0.203-0.736,0c-0.204,0.203-0.204,0.533,0,0.736l2.739,2.74v2.958l-2.561-1.479l-1.003-3.742
		c-0.075-0.278-0.358-0.441-0.639-0.369c-0.278,0.074-0.442,0.36-0.369,0.637L13.06,14.3l-2.57-1.482L8.337,4.775
		C8.262,4.497,7.978,4.333,7.699,4.406C7.42,4.48,7.256,4.767,7.33,5.044l1.887,7.036l-2.849-1.646V8.708L4.351,7.543L2.333,8.708
		v2.329L4.351,12.2l1.497-0.864l2.85,1.646L1.66,14.868c-0.279,0.074-0.444,0.36-0.369,0.638c0.063,0.233,0.272,0.387,0.502,0.387
		c0.045,0,0.089-0.006,0.134-0.018l8.045-2.155L12.54,15.2l-2.736,0.733c-0.279,0.074-0.443,0.36-0.369,0.637
		c0.064,0.233,0.274,0.387,0.503,0.387c0.045,0,0.09-0.006,0.136-0.018l3.742-1.003l2.562,1.479l-2.562,1.479l-3.744-1.001
		c-0.272-0.075-0.562,0.09-0.637,0.368c-0.074,0.279,0.09,0.563,0.369,0.637l2.736,0.735l-2.567,1.48l-8.046-2.154
		c-0.273-0.071-0.562,0.092-0.637,0.368c-0.073,0.278,0.091,0.563,0.369,0.638l7.039,1.885l-2.85,1.646L4.35,22.633l-2.019,1.164
		l0.002,2.328l2.018,1.164l2.018-1.164V24.4l2.849-1.646L7.33,29.792c-0.073,0.278,0.091,0.563,0.369,0.636
		c0.046,0.013,0.09,0.019,0.135,0.019c0.23,0,0.442-0.152,0.503-0.386l2.155-8.045l2.565-1.481l-0.732,2.736
		c-0.074,0.277,0.091,0.564,0.369,0.637c0.045,0.013,0.089,0.019,0.135,0.019c0.23,0,0.441-0.152,0.503-0.386l1.002-3.742
		l2.563-1.477v2.958l-2.739,2.74c-0.204,0.204-0.204,0.533,0,0.736c0.202,0.203,0.533,0.203,0.736,0l2.003-2.004v2.965l-5.887,5.89
		c-0.204,0.202-0.204,0.533,0,0.736c0.203,0.202,0.533,0.202,0.736,0l5.151-5.153v3.292L15.4,31.345v2.329l2.019,1.164l2.019-1.163
		v-2.33l-1.498-0.864v-3.292l5.15,5.153c0.104,0.102,0.236,0.152,0.369,0.152c0.134,0,0.267-0.053,0.369-0.152
		c0.203-0.203,0.203-0.533,0-0.736l-5.888-5.89v-2.965l2.003,2.004c0.104,0.104,0.235,0.153,0.369,0.153
		c0.132,0,0.268-0.051,0.369-0.153c0.203-0.202,0.203-0.532,0-0.736l-2.741-2.74v-2.956l2.562,1.479l1.002,3.742
		c0.064,0.232,0.274,0.387,0.503,0.387c0.043,0,0.091-0.007,0.136-0.019c0.278-0.073,0.443-0.362,0.368-0.637l-0.732-2.736
		l2.565,1.48l2.155,8.046c0.064,0.231,0.273,0.386,0.504,0.386c0.044,0,0.089-0.007,0.135-0.019c0.278-0.073,0.442-0.36,0.368-0.637
		l-1.887-7.037l2.846,1.646v1.729l2.02,1.161l2.018-1.161l0.002-2.33l-2.019-1.165l-1.497,0.864l-2.85-1.646l7.039-1.887
		c0.279-0.073,0.444-0.359,0.368-0.637C33.474,19.052,33.188,18.888,32.911,18.96z"/>
</g>
<g>
</g>
<g>
</g>
<g>
</g>
<g>
</g>
<g>
</g>
<g>
</g>
<g>
</g>
<g>
</g>
<g>
</g>
<g>
</g>
<g>
</g>
<g>
</g>
<g>
</g>
<g>
</g>
<g>
</g>
</svg>
