<?xml version="1.0" encoding="iso-8859-1"?>
<!-- Generator: Adobe Illustrator 16.0.0, SVG Export Plug-In . SVG Version: 6.00 Build 0)  -->
<!DOCTYPE svg PUBLIC "-//W3C//DTD SVG 1.1//EN" "http://www.w3.org/Graphics/SVG/1.1/DTD/svg11.dtd">
<svg version="1.1" id="Capa_1" xmlns="http://www.w3.org/2000/svg" xmlns:xlink="http://www.w3.org/1999/xlink" x="0px" y="0px"
	 width="27.325px" height="27.325px" viewBox="0 0 27.325 27.325" style="enable-background:new 0 0 27.325 27.325;"
	 xml:space="preserve">
<g>
	<path d="M26.686,18.568c0.195,0.195,0.195,0.512,0,0.707c-0.098,0.098-0.226,0.146-0.354,0.146s-0.256-0.049-0.354-0.146
		l-5.611-5.613l5.612-5.613c0.194-0.195,0.513-0.195,0.707,0c0.194,0.195,0.194,0.512,0,0.707l-4.905,4.906L26.686,18.568z
		 M1.346,8.05c-0.195-0.195-0.512-0.195-0.707,0c-0.195,0.195-0.195,0.512,0,0.707l4.906,4.906l-4.906,4.906
		c-0.195,0.195-0.195,0.512,0,0.707c0.099,0.098,0.227,0.146,0.354,0.146s0.256-0.049,0.354-0.146l5.613-5.613L1.346,8.05z
		 M13.664,20.654l-5.817,5.818c-0.195,0.193-0.195,0.512,0,0.707c0.195,0.193,0.512,0.193,0.707,0l5.11-5.111l5.108,5.111
		c0.1,0.098,0.228,0.146,0.354,0.146s0.257-0.05,0.354-0.146c0.195-0.195,0.195-0.514,0-0.707L13.664,20.654z M13.664,6.67
		l5.815-5.818c0.195-0.194,0.195-0.512,0-0.707c-0.193-0.194-0.512-0.194-0.707,0l-5.108,5.111l-5.11-5.111
		c-0.195-0.194-0.512-0.194-0.707,0c-0.195,0.195-0.195,0.513,0,0.707L13.664,6.67z M25.45,19.806c0.193,0.194,0.193,0.512,0,0.707
		c-0.195,0.194-0.514,0.194-0.707,0l-4.602-4.601h-2.002l-0.76,0.76l7.243,7.243c0.193,0.195,0.193,0.514,0,0.707
		c-0.1,0.1-0.227,0.146-0.354,0.146c-0.127,0-0.256-0.049-0.354-0.146l-7.243-7.243l-0.76,0.761v2.291l4.805,4.807
		c0.195,0.195,0.195,0.512,0,0.707c-0.098,0.098-0.226,0.146-0.354,0.146c-0.129,0-0.258-0.049-0.354-0.146l-5.098-5.1v-3.119
		l1.053-1.054l-0.354-0.354l-1.948,1.949l-1.949-1.949l-0.354,0.354l1.054,1.054v3.119l-5.099,5.098
		c-0.098,0.099-0.226,0.146-0.354,0.146s-0.256-0.049-0.354-0.146c-0.194-0.194-0.194-0.512,0-0.706l4.806-4.806V18.14l-0.761-0.761
		l-7.242,7.243c-0.099,0.1-0.227,0.146-0.354,0.146s-0.256-0.049-0.354-0.146c-0.195-0.193-0.195-0.512,0-0.707l7.242-7.243
		l-0.76-0.76H7.179l-4.6,4.601c-0.195,0.194-0.513,0.194-0.707,0c-0.195-0.195-0.195-0.513,0-0.707l4.893-4.894h2.83l1.053,1.053
		l0.354-0.354l-1.949-1.949l1.95-1.949l-0.354-0.354l-1.053,1.053h-2.83L1.874,7.52c-0.195-0.195-0.195-0.512,0-0.707
		c0.194-0.195,0.512-0.195,0.707,0l4.6,4.6h2.002l0.76-0.76L2.7,3.41c-0.195-0.195-0.195-0.513,0-0.707
		c0.194-0.195,0.512-0.195,0.707,0l7.242,7.243l0.761-0.76V6.895L6.604,2.087c-0.194-0.195-0.194-0.512,0-0.707
		c0.195-0.195,0.513-0.195,0.707,0l5.099,5.1V9.6l-1.054,1.053l0.354,0.354l1.949-1.949l1.948,1.949l0.354-0.354L14.91,9.6V6.48
		l5.098-5.1c0.195-0.195,0.512-0.195,0.707,0c0.195,0.195,0.195,0.512,0,0.707L15.91,6.895v2.291l0.76,0.76l7.243-7.243
		c0.193-0.195,0.512-0.195,0.707,0c0.193,0.194,0.193,0.512,0,0.707l-7.243,7.243l0.76,0.76h2.002l4.602-4.6
		c0.193-0.195,0.512-0.195,0.707,0c0.193,0.195,0.193,0.512,0,0.707l-4.895,4.893h-2.83l-1.053-1.053l-0.354,0.354l1.95,1.949
		l-1.949,1.949l0.354,0.354l1.053-1.053h2.83L25.45,19.806z M16.854,13.663l-1.241-1.242l-0.708-0.707l-1.242-1.242l-1.242,1.242
		l-0.708,0.707l-1.243,1.242l1.243,1.242l0.708,0.707l1.242,1.242l1.242-1.242l0.708-0.707L16.854,13.663z"/>
</g>
<g>
</g>
<g>
</g>
<g>
</g>
<g>
</g>
<g>
</g>
<g>
</g>
<g>
</g>
<g>
</g>
<g>
</g>
<g>
</g>
<g>
</g>
<g>
</g>
<g>
</g>
<g>
</g>
<g>
</g>
</svg>
