<?xml version="1.0" encoding="iso-8859-1"?>
<!-- Generator: Adobe Illustrator 16.0.0, SVG Export Plug-In . SVG Version: 6.00 Build 0)  -->
<!DOCTYPE svg PUBLIC "-//W3C//DTD SVG 1.1//EN" "http://www.w3.org/Graphics/SVG/1.1/DTD/svg11.dtd">
<svg version="1.1" id="Capa_1" xmlns="http://www.w3.org/2000/svg" xmlns:xlink="http://www.w3.org/1999/xlink" x="0px" y="0px"
	 width="37.125px" height="37.125px" viewBox="0 0 37.125 37.125" style="enable-background:new 0 0 37.125 37.125;"
	 xml:space="preserve">
<g>
	<path d="M34.449,27.135l-2.171-1.253v-2.326c0-0.188-0.1-0.358-0.261-0.452l-2.275-1.312c-0.16-0.094-0.36-0.094-0.521,0
		l-2.017,1.164l-2.486-1.437l4.172-1.116c0.278-0.074,0.442-0.36,0.368-0.638s-0.36-0.442-0.638-0.368l-5.178,1.386l-3.838-2.217
		l3.842-2.218l5.176,1.385c0.045,0.012,0.091,0.017,0.136,0.017c0.229,0,0.44-0.152,0.501-0.386
		c0.073-0.278-0.091-0.563-0.368-0.638l-4.169-1.115l2.482-1.433l2.016,1.162c0.081,0.047,0.171,0.07,0.26,0.07
		c0.09,0,0.18-0.022,0.261-0.07l2.277-1.314c0.161-0.092,0.261-0.265,0.261-0.452l-0.001-2.325l2.172-1.254
		c0.249-0.144,0.333-0.461,0.191-0.711c-0.146-0.25-0.465-0.334-0.713-0.19l-2.173,1.254l-2.014-1.162
		c-0.16-0.094-0.359-0.094-0.521,0l-2.276,1.312c-0.16,0.093-0.26,0.265-0.26,0.451v2.327l-2.484,1.434l1.117-4.169
		c0.075-0.279-0.091-0.563-0.368-0.638c-0.275-0.073-0.563,0.091-0.637,0.369l-1.388,5.176l-3.841,2.217v-4.435l3.79-3.79
		c0.202-0.204,0.202-0.535,0-0.737c-0.204-0.203-0.534-0.203-0.737,0l-3.052,3.053v-2.87l2.015-1.162
		c0.16-0.092,0.261-0.265,0.261-0.451V4.646c0-0.187-0.101-0.358-0.261-0.451l-2.015-1.166V0.521C19.084,0.233,18.851,0,18.563,0
		c-0.287,0-0.521,0.233-0.521,0.521v2.508l-2.015,1.164c-0.161,0.092-0.26,0.265-0.26,0.451v2.627c0,0.186,0.1,0.358,0.26,0.451
		l2.015,1.161v2.871L14.99,8.699c-0.203-0.203-0.533-0.203-0.736,0c-0.203,0.203-0.203,0.534,0,0.736l3.789,3.792v4.434
		l-3.841-2.217l-1.388-5.176c-0.075-0.279-0.36-0.444-0.637-0.369c-0.278,0.074-0.443,0.36-0.369,0.638l1.117,4.169l-2.485-1.434
		v-2.326c0-0.187-0.1-0.358-0.261-0.451L7.906,9.183c-0.16-0.094-0.36-0.094-0.521,0L5.37,10.345L3.197,9.091
		C2.947,8.946,2.63,9.03,2.486,9.281C2.342,9.53,2.427,9.849,2.677,9.993l2.173,1.254l-0.002,2.325c0,0.187,0.1,0.358,0.261,0.452
		l2.275,1.313c0.081,0.046,0.171,0.07,0.261,0.07c0.089,0,0.18-0.022,0.26-0.07l2.015-1.162l2.484,1.434l-4.168,1.114
		c-0.278,0.074-0.442,0.362-0.369,0.638c0.062,0.232,0.273,0.386,0.502,0.386c0.044,0,0.089-0.005,0.135-0.017l5.175-1.386
		l3.844,2.219l-3.84,2.217l-5.178-1.388c-0.277-0.073-0.563,0.092-0.637,0.369c-0.074,0.28,0.09,0.563,0.369,0.638l4.172,1.117
		L9.92,22.952L7.904,21.79c-0.162-0.094-0.361-0.094-0.521,0l-2.274,1.312c-0.161,0.094-0.26,0.265-0.26,0.451L4.847,25.88
		l-2.169,1.253c-0.249,0.146-0.334,0.463-0.191,0.713c0.097,0.167,0.272,0.261,0.452,0.261c0.088,0,0.178-0.022,0.261-0.071
		l2.173-1.253l2.012,1.163c0.081,0.045,0.171,0.069,0.261,0.069c0.089,0,0.18-0.022,0.26-0.069l2.275-1.316
		c0.161-0.093,0.261-0.264,0.261-0.451v-2.321l2.484-1.435l-1.116,4.167c-0.074,0.277,0.09,0.563,0.369,0.636
		c0.045,0.013,0.09,0.02,0.135,0.02c0.23,0,0.44-0.154,0.502-0.387l1.387-5.174l3.842-2.218V23.9l-3.789,3.791
		c-0.203,0.202-0.203,0.533,0,0.736c0.204,0.202,0.534,0.202,0.736,0l3.053-3.053v2.871l-2.015,1.159
		c-0.161,0.094-0.26,0.265-0.26,0.452v2.625c0,0.188,0.099,0.359,0.26,0.453l2.015,1.163v2.507c0,0.288,0.233,0.521,0.521,0.521
		c0.288,0,0.521-0.232,0.521-0.521v-2.507l2.015-1.165c0.161-0.092,0.261-0.265,0.261-0.452v-2.626c0-0.188-0.1-0.358-0.261-0.452
		l-2.016-1.157v-2.869l3.052,3.053c0.103,0.102,0.236,0.151,0.37,0.151c0.133,0,0.266-0.052,0.368-0.151
		c0.202-0.203,0.202-0.534,0-0.736l-3.791-3.789v-4.436l3.841,2.22l1.387,5.172c0.062,0.233,0.272,0.387,0.501,0.387
		c0.045,0,0.09-0.005,0.136-0.019c0.278-0.073,0.443-0.36,0.368-0.637l-1.116-4.167l2.485,1.435v2.322c0,0.188,0.1,0.359,0.26,0.453
		l2.276,1.313c0.081,0.048,0.171,0.071,0.26,0.071c0.09,0,0.181-0.023,0.261-0.071l2.012-1.162l2.173,1.255
		c0.083,0.047,0.172,0.07,0.261,0.07c0.18,0,0.355-0.094,0.453-0.261C34.782,27.598,34.697,27.281,34.449,27.135z M27.726,12.673
		v-1.425l1.755-1.012l1.233,0.712l0.521,0.301v0.601l0.001,1.424l-1.757,1.013l-1.233-0.712l-0.521-0.3v-0.603H27.726z
		 M9.398,12.671v0.603l-0.521,0.301l-1.233,0.713L5.89,13.275l0.001-1.424V11.25l0.521-0.301l1.233-0.712l1.752,1.012L9.398,12.671
		L9.398,12.671z M9.399,24.458v1.421l-1.754,1.015l-1.232-0.713L5.89,25.879v-0.599v-1.426l1.753-1.013l1.234,0.714l0.521,0.301
		L9.399,24.458L9.399,24.458z M20.318,30.16v2.026l-1.234,0.712l-0.521,0.301l-0.521-0.301l-1.233-0.712V30.16l1.233-0.71
		l0.521-0.301l0.521,0.299L20.318,30.16z M18.563,7.982l-0.521-0.3l-1.233-0.711V4.944l1.233-0.712l0.521-0.301l0.521,0.301
		l1.234,0.712v2.026l-1.234,0.712L18.563,7.982z M31.236,25.281v0.599l-0.522,0.302l-1.232,0.713l-1.755-1.015v-1.421v-0.602
		l0.521-0.301l1.234-0.714l1.755,1.015V25.281z"/>
</g>
<g>
</g>
<g>
</g>
<g>
</g>
<g>
</g>
<g>
</g>
<g>
</g>
<g>
</g>
<g>
</g>
<g>
</g>
<g>
</g>
<g>
</g>
<g>
</g>
<g>
</g>
<g>
</g>
<g>
</g>
</svg>
