<?xml version="1.0" encoding="iso-8859-1"?>
<!-- Generator: Adobe Illustrator 16.0.0, SVG Export Plug-In . SVG Version: 6.00 Build 0)  -->
<!DOCTYPE svg PUBLIC "-//W3C//DTD SVG 1.1//EN" "http://www.w3.org/Graphics/SVG/1.1/DTD/svg11.dtd">
<svg version="1.1" id="Capa_1" xmlns="http://www.w3.org/2000/svg" xmlns:xlink="http://www.w3.org/1999/xlink" x="0px" y="0px"
	 width="33.439px" height="33.439px" viewBox="0 0 33.439 33.439" style="enable-background:new 0 0 33.439 33.439;"
	 xml:space="preserve">
<g>
	<path d="M27.827,10.885l1.438,0.829l1.938-1.117V8.362l-1.938-1.119l-1.937,1.119v1.658l-3.019,1.742l-6.403-3.695l4.965-4.964
		c0.195-0.194,0.195-0.512,0-0.707c-0.194-0.194-0.512-0.194-0.707,0L17.22,7.341V4.183l1.438-0.83V1.117L16.72,0l-1.938,1.117
		v2.235l1.438,0.83V7.34l-4.945-4.945c-0.195-0.194-0.512-0.194-0.707,0c-0.195,0.195-0.195,0.513,0,0.707l4.965,4.964L9.13,11.761
		l-3.019-1.742V8.361L4.174,7.242L2.237,8.361v2.235l1.937,1.117l1.438-0.829l3.02,1.744v8.186l-3.02,1.742l-1.438-0.83
		l-1.938,1.119l0.002,2.235l1.936,1.117l1.938-1.117v-1.657l3.02-1.744l6.398,3.695l-4.963,4.965c-0.195,0.194-0.195,0.512,0,0.707
		c0.195,0.194,0.512,0.194,0.707,0l4.945-4.947v3.16l-1.438,0.828v2.235l1.938,1.116l1.938-1.116v-2.235l-1.438-0.828v-3.158
		l4.945,4.947c0.098,0.098,0.227,0.146,0.354,0.146c0.129,0,0.257-0.05,0.354-0.146c0.195-0.195,0.195-0.514,0-0.707l-4.963-4.965
		l6.399-3.695l3.019,1.742v1.658l1.938,1.117l1.937-1.117l0.002-2.234l-1.938-1.119l-1.438,0.83l-3.02-1.744v-8.185L27.827,10.885z
		 M23.808,20.162l-2.947-3.44l2.947-3.44V20.162z M9.631,13.282l2.948,3.44l-2.948,3.44V13.282z M16.72,23.174l-0.5-1.42
		l-0.912-2.59l-2.695,0.506l-1.479,0.277l0.978-1.143l1.786-2.083l-1.787-2.085l-0.978-1.142l1.479,0.277l2.695,0.506l0.912-2.591
		l0.5-1.42l0.5,1.422l0.91,2.589l2.697-0.506l1.479-0.277l-0.978,1.142l-1.785,2.085l1.787,2.085l0.978,1.142l-1.479-0.276
		l-2.697-0.507l-0.91,2.589L16.72,23.174z M23.247,12.303l-4.459,0.835l-1.504-4.276L23.247,12.303z M16.156,8.862l-1.506,4.276
		l-4.457-0.835L16.156,8.862z M10.197,21.141l4.453-0.834l1.506,4.275L10.197,21.141z M17.283,24.582l1.506-4.275l4.455,0.834
		L17.283,24.582z"/>
</g>
<g>
</g>
<g>
</g>
<g>
</g>
<g>
</g>
<g>
</g>
<g>
</g>
<g>
</g>
<g>
</g>
<g>
</g>
<g>
</g>
<g>
</g>
<g>
</g>
<g>
</g>
<g>
</g>
<g>
</g>
</svg>
