<?xml version="1.0" encoding="iso-8859-1"?>
<!-- Generator: Adobe Illustrator 16.0.0, SVG Export Plug-In . SVG Version: 6.00 Build 0)  -->
<!DOCTYPE svg PUBLIC "-//W3C//DTD SVG 1.1//EN" "http://www.w3.org/Graphics/SVG/1.1/DTD/svg11.dtd">
<svg version="1.1" id="Capa_1" xmlns="http://www.w3.org/2000/svg" xmlns:xlink="http://www.w3.org/1999/xlink" x="0px" y="0px"
	 width="33.439px" height="33.439px" viewBox="0 0 33.439 33.439" style="enable-background:new 0 0 33.439 33.439;"
	 xml:space="preserve">
<g>
	<path d="M31.591,18.199l-1.858,0.498V14.74l1.858,0.498c0.043,0.012,0.087,0.017,0.13,0.017c0.223,0,0.423-0.147,0.482-0.371
		c0.07-0.267-0.088-0.541-0.354-0.612l-2.118-0.567v-2.262l1.473-0.849V8.358L29.265,7.24l-1.468,0.848l-1.96-1.13l0.567-2.117
		c0.069-0.267-0.088-0.541-0.354-0.612c-0.265-0.07-0.541,0.086-0.612,0.354l-0.496,1.858l-3.431-1.979l1.36-1.361
		c0.195-0.195,0.195-0.512,0-0.707c-0.194-0.195-0.512-0.195-0.707,0l-1.551,1.551l-1.957-1.13V1.117L16.719,0l-1.937,1.117v1.699
		l-1.958,1.13l-1.551-1.551c-0.195-0.195-0.512-0.195-0.707,0c-0.195,0.195-0.195,0.512,0,0.707l1.361,1.361L8.498,6.442L8,4.584
		C7.928,4.317,7.657,4.16,7.388,4.229C7.121,4.301,6.963,4.576,7.034,4.842l0.567,2.117L5.641,8.09L4.172,7.241L2.235,8.359v2.236
		l1.472,0.849v2.262l-2.119,0.567c-0.267,0.071-0.425,0.346-0.354,0.612c0.06,0.224,0.262,0.371,0.482,0.371
		c0.043,0,0.086-0.005,0.13-0.017l1.86-0.498v3.958l-1.86-0.498c-0.264-0.069-0.541,0.088-0.612,0.354
		c-0.071,0.268,0.087,0.541,0.354,0.612l2.119,0.565v2.262l-1.472,0.851l0.002,2.235l1.936,1.117l1.471-0.85l1.958,1.131
		l-0.567,2.118c-0.071,0.267,0.087,0.541,0.354,0.612c0.043,0.012,0.087,0.017,0.13,0.017c0.221,0,0.422-0.147,0.482-0.371
		l0.498-1.858l3.429,1.979l-1.362,1.362c-0.195,0.193-0.195,0.512,0,0.707c0.195,0.193,0.512,0.193,0.707,0l1.551-1.553l1.958,1.129
		v1.701l1.937,1.117l1.938-1.115v-1.701l1.957-1.129l1.551,1.552c0.099,0.098,0.227,0.146,0.354,0.146
		c0.13,0,0.257-0.049,0.354-0.146c0.195-0.195,0.195-0.513,0-0.707l-1.362-1.362l3.431-1.979l0.496,1.857
		c0.061,0.225,0.264,0.371,0.482,0.371c0.043,0,0.086-0.005,0.13-0.017c0.269-0.071,0.425-0.347,0.354-0.612l-0.567-2.118
		l1.958-1.13l1.471,0.85l1.938-1.117l0.002-2.236l-1.473-0.85v-2.262l2.118-0.566c0.269-0.071,0.427-0.346,0.354-0.612
		S31.859,18.13,31.591,18.199z M28.73,18.967l-4.861,1.302L17.72,16.72l6.147-3.55l4.861,1.303L28.73,18.967L28.73,18.967z
		 M25.093,12.463l2.735-1.58l0.9,0.52v2.034L25.093,12.463z M27.328,8.973v1.043l-2.735,1.58l0.978-3.639L27.328,8.973z
		 M24.673,7.439l-1.304,4.863l-6.149,3.55v-7.1l3.562-3.56L24.673,7.439z M17.22,7.34V4.181l0.902-0.521l1.761,1.017L17.22,7.34z
		 M15.319,3.66l0.902,0.521V7.34l-2.663-2.663L15.319,3.66z M12.66,5.194l3.56,3.56v7.1l-6.149-3.55L8.767,7.441L12.66,5.194z
		 M8.846,11.596l-2.736-1.58V8.973l1.76-1.016L8.846,11.596z M4.71,11.404l0.901-0.52l2.736,1.58l-3.638,0.975L4.71,11.404
		L4.71,11.404z M4.71,14.473l4.862-1.303l6.147,3.55l-6.148,3.549l-4.863-1.302v-4.494H4.71z M8.347,20.976l-2.736,1.58
		l-0.902-0.521v-2.032L8.347,20.976z M6.113,24.465v-1.042l2.736-1.58L7.874,25.48L6.113,24.465z M8.769,25.996l1.303-4.861
		l6.148-3.549v7.099l-3.559,3.562L8.769,25.996z M16.22,26.099v3.16l-0.901,0.521l-1.761-1.018L16.22,26.099z M18.121,29.779
		l-0.901-0.521v-3.16l2.663,2.664L18.121,29.779z M20.779,28.244l-3.56-3.561v-7.099l6.147,3.549l1.304,4.862L20.779,28.244z
		 M24.593,21.843l2.735,1.579v1.043l-1.76,1.016L24.593,21.843z M28.73,22.033l-0.9,0.521l-2.736-1.58l3.639-0.974v2.032H28.73z"/>
</g>
<g>
</g>
<g>
</g>
<g>
</g>
<g>
</g>
<g>
</g>
<g>
</g>
<g>
</g>
<g>
</g>
<g>
</g>
<g>
</g>
<g>
</g>
<g>
</g>
<g>
</g>
<g>
</g>
<g>
</g>
</svg>
