<?xml version="1.0" encoding="iso-8859-1"?>
<!-- Generator: Adobe Illustrator 16.0.0, SVG Export Plug-In . SVG Version: 6.00 Build 0)  -->
<!DOCTYPE svg PUBLIC "-//W3C//DTD SVG 1.1//EN" "http://www.w3.org/Graphics/SVG/1.1/DTD/svg11.dtd">
<svg version="1.1" id="Capa_1" xmlns="http://www.w3.org/2000/svg" xmlns:xlink="http://www.w3.org/1999/xlink" x="0px" y="0px"
	 width="31.504px" height="31.505px" viewBox="0 0 31.504 31.505" style="enable-background:new 0 0 31.504 31.505;"
	 xml:space="preserve">
<g>
	<path d="M30.754,15.002h-6.99l3.118-3.119c0.293-0.293,0.293-0.768,0-1.061s-0.769-0.293-1.062,0l-4.18,4.179h-1.008l-1.535-1.534
		l4.887-4.885c0.293-0.293,0.293-0.768,0-1.061s-0.77-0.293-1.062,0l-4.885,4.885l-1.534-1.533V9.622l4.353-4.351
		c0.293-0.293,0.293-0.768,0-1.061s-0.77-0.293-1.062,0l-3.29,3.29V0.75c0-0.414-0.336-0.75-0.75-0.75s-0.75,0.336-0.75,0.75V7.5
		l-3.29-3.29c-0.293-0.293-0.768-0.293-1.061,0s-0.293,0.768,0,1.061l4.351,4.351v1.251l-1.534,1.533L8.584,7.521
		c-0.293-0.293-0.768-0.293-1.061,0s-0.293,0.768,0,1.061l4.885,4.885l-1.535,1.534H9.864l-4.179-4.179
		c-0.293-0.293-0.768-0.293-1.061,0s-0.293,0.768,0,1.061l3.118,3.119h-6.99c-0.414,0-0.75,0.336-0.75,0.75s0.336,0.75,0.75,0.75
		h6.99l-3.118,3.119c-0.293,0.293-0.293,0.768,0,1.061c0.146,0.146,0.338,0.221,0.53,0.221s0.384-0.073,0.53-0.221l4.179-4.18h1.009
		l1.534,1.535l-4.884,4.885c-0.293,0.293-0.293,0.77,0,1.062c0.146,0.146,0.338,0.22,0.53,0.22c0.192,0,0.384-0.072,0.53-0.22
		l4.884-4.885l1.535,1.533v1.25l-4.351,4.352c-0.293,0.293-0.293,0.769,0,1.062s0.768,0.293,1.061,0l3.29-3.291v6.75
		c0,0.414,0.336,0.75,0.75,0.75s0.75-0.336,0.75-0.75v-6.75l3.29,3.291c0.146,0.146,0.338,0.222,0.529,0.222
		s0.385-0.074,0.529-0.222c0.293-0.293,0.293-0.769,0-1.062L16.5,21.883v-1.25l1.534-1.533l4.885,4.885
		c0.146,0.146,0.338,0.222,0.529,0.222c0.193,0,0.385-0.074,0.531-0.222c0.293-0.293,0.293-0.768,0-1.061l-4.886-4.885l1.536-1.535
		h1.007l4.181,4.18c0.146,0.146,0.338,0.219,0.528,0.219c0.192,0,0.386-0.071,0.53-0.219c0.293-0.295,0.293-0.77,0-1.062
		l-3.118-3.119h6.995c0.414,0,0.75-0.335,0.75-0.75S31.168,15.002,30.754,15.002z M18.514,16.502l-2.01,2.008l-0.751,0.75
		l-0.749-0.75l-2.009-2.008l-0.75-0.75l0.75-0.75l2.008-2.007l0.75-0.75l0.75,0.75l2.007,2.007l0.751,0.75L18.514,16.502z"/>
</g>
<g>
</g>
<g>
</g>
<g>
</g>
<g>
</g>
<g>
</g>
<g>
</g>
<g>
</g>
<g>
</g>
<g>
</g>
<g>
</g>
<g>
</g>
<g>
</g>
<g>
</g>
<g>
</g>
<g>
</g>
</svg>
