<?xml version="1.0" encoding="iso-8859-1"?>
<!-- Generator: Adobe Illustrator 16.0.0, SVG Export Plug-In . SVG Version: 6.00 Build 0)  -->
<!DOCTYPE svg PUBLIC "-//W3C//DTD SVG 1.1//EN" "http://www.w3.org/Graphics/SVG/1.1/DTD/svg11.dtd">
<svg version="1.1" id="Capa_1" xmlns="http://www.w3.org/2000/svg" xmlns:xlink="http://www.w3.org/1999/xlink" x="0px" y="0px"
	 width="38.81px" height="38.81px" viewBox="0 0 38.81 38.81" style="enable-background:new 0 0 38.81 38.81;" xml:space="preserve"
	>
<g>
	<path d="M33.928,23.114c-0.282,0.067-0.454,0.35-0.382,0.628l1.015,4.123l-9.194-5.311l4.193-1.121
		c0.279-0.074,0.443-0.362,0.368-0.638c-0.074-0.276-0.359-0.441-0.636-0.369l-4.974,1.332l-2.02-2.355l1.705-1.99l0.091-0.053
		l5.198,1.392c0.045,0.013,0.09,0.018,0.135,0.018c0.229,0,0.439-0.153,0.502-0.387c0.072-0.278-0.089-0.563-0.37-0.637
		l-4.188-1.123l9.348-5.396l-1.101,4.098c-0.071,0.278,0.092,0.564,0.37,0.638c0.044,0.012,0.089,0.017,0.134,0.017
		c0.233,0,0.439-0.153,0.502-0.387l1.584-5.909l-5.911-1.582c-0.273-0.074-0.563,0.09-0.638,0.369
		c-0.071,0.278,0.094,0.563,0.369,0.638l4.284,1.147l-9.467,5.466l1.125-4.194c0.073-0.278-0.091-0.563-0.368-0.637
		c-0.278-0.074-0.563,0.091-0.639,0.369l-1.373,5.129l-2.74,0.514l-0.994-2.823l3.657-3.655c0.203-0.203,0.203-0.533,0-0.736
		c-0.204-0.203-0.533-0.203-0.737,0l-3.067,3.068V2.119l2.988,2.872c0.206,0.199,0.537,0.195,0.736-0.015
		c0.2-0.207,0.195-0.538-0.014-0.737L19.009,0l-4.24,4.41c-0.198,0.208-0.195,0.538,0.016,0.737c0.1,0.097,0.23,0.146,0.361,0.146
		c0.136,0,0.274-0.054,0.375-0.16l3.147-3.275v10.897l-3.069-3.068c-0.203-0.203-0.534-0.203-0.735,0
		c-0.204,0.203-0.204,0.533,0,0.736l3.805,3.805v0.672l-0.707,2.001l-3.199-0.602l-1.351-5.042
		c-0.076-0.278-0.358-0.443-0.639-0.369c-0.276,0.074-0.441,0.36-0.369,0.637l1.125,4.194l-9.394-5.423l4.657-1.146
		c0.28-0.069,0.451-0.351,0.38-0.63C9.106,8.243,8.827,8.068,8.544,8.141L2.601,9.602l1.464,5.941
		c0.058,0.238,0.271,0.396,0.503,0.396c0.041,0,0.083-0.004,0.124-0.016c0.282-0.069,0.453-0.351,0.383-0.63l-0.934-3.789
		l8.862,5.117l-4.19,1.123c-0.277,0.074-0.441,0.36-0.369,0.637c0.063,0.233,0.275,0.387,0.503,0.387
		c0.045,0,0.089-0.006,0.134-0.018l5.196-1.392l0.962,0.555l1.277,1.487l-1.913,2.233l-0.323,0.186l-5.2-1.392
		c-0.272-0.071-0.563,0.089-0.637,0.369c-0.073,0.279,0.091,0.563,0.369,0.638l4.191,1.121l-8.948,5.166l1.137-4.241
		c0.073-0.28-0.091-0.563-0.369-0.638c-0.279-0.073-0.563,0.091-0.638,0.369l-1.583,5.909l5.91,1.585
		c0.045,0.012,0.09,0.017,0.134,0.017c0.23,0,0.44-0.153,0.503-0.386c0.075-0.278-0.09-0.563-0.369-0.639l-4.141-1.108l8.879-5.127
		l-1.123,4.189c-0.072,0.278,0.091,0.563,0.37,0.638c0.044,0.012,0.089,0.018,0.134,0.018c0.23,0,0.44-0.153,0.502-0.387
		l1.392-5.196l0.582-0.335l2.576-0.485l0.708,2.003v1.047l-3.807,3.805c-0.202,0.202-0.202,0.534,0,0.736
		c0.203,0.202,0.535,0.202,0.736,0l3.07-3.068v10.345l-3.074-2.954c-0.204-0.196-0.539-0.194-0.736,0.016
		c-0.198,0.207-0.195,0.538,0.016,0.736l4.409,4.239l4.238-4.412c0.199-0.208,0.192-0.538-0.015-0.736s-0.538-0.194-0.736,0.015
		l-3.061,3.187V26.425l3.069,3.069c0.102,0.103,0.234,0.151,0.368,0.151c0.133,0,0.267-0.051,0.368-0.151
		c0.204-0.202,0.204-0.534,0-0.736l-3.753-3.755l1.09-3.102l1.929,0.363l0.795,0.457l1.39,5.196
		c0.063,0.231,0.275,0.386,0.503,0.386c0.043,0,0.09-0.005,0.135-0.018c0.279-0.073,0.444-0.36,0.369-0.638l-1.118-4.188
		l9.292,5.364l-4.311,1.061c-0.281,0.069-0.452,0.352-0.379,0.631c0.059,0.238,0.271,0.396,0.503,0.396
		c0.041,0,0.082-0.004,0.124-0.015l5.94-1.464l-1.464-5.94C34.49,23.216,34.213,23.042,33.928,23.114z M20.153,20.75l-0.444,1.265
		l-0.301,0.856l-0.741-2.101v-0.279l-0.563,0.326l-1.701,0.319l0.916-1.068l0.546-0.639l0.023-0.027l-1.487-1.734l0.737,0.138
		l1.506,0.282l0.022-0.055l0.741-2.1l0.301,0.856l0.458,1.299l0.86-0.162l1.383-0.26l-1.12,1.312L20.923,19.4l0.999,1.167
		l0.486,0.567l-2.243-0.422L20.153,20.75z"/>
</g>
<g>
</g>
<g>
</g>
<g>
</g>
<g>
</g>
<g>
</g>
<g>
</g>
<g>
</g>
<g>
</g>
<g>
</g>
<g>
</g>
<g>
</g>
<g>
</g>
<g>
</g>
<g>
</g>
<g>
</g>
</svg>
