<?xml version="1.0" encoding="iso-8859-1"?>
<!-- Generator: Adobe Illustrator 16.0.0, SVG Export Plug-In . SVG Version: 6.00 Build 0)  -->
<!DOCTYPE svg PUBLIC "-//W3C//DTD SVG 1.1//EN" "http://www.w3.org/Graphics/SVG/1.1/DTD/svg11.dtd">
<svg version="1.1" id="Capa_1" xmlns="http://www.w3.org/2000/svg" xmlns:xlink="http://www.w3.org/1999/xlink" x="0px" y="0px"
	 width="31.002px" height="31.002px" viewBox="0 0 31.002 31.002" style="enable-background:new 0 0 31.002 31.002;"
	 xml:space="preserve">
<g>
	<path d="M30.501,15.001h-5.925l3.722-3.723c0.195-0.195,0.195-0.512,0-0.707c-0.194-0.195-0.512-0.195-0.707,0l-4.43,4.43h-6.453
		l9.753-9.753c0.195-0.195,0.195-0.512,0-0.707c-0.193-0.195-0.512-0.195-0.707,0l-9.753,9.753V7.845l4.429-4.434
		c0.194-0.196,0.194-0.512,0-0.708c-0.195-0.194-0.513-0.195-0.707,0l-3.722,3.726V0.501c0-0.276-0.224-0.5-0.5-0.5
		s-0.5,0.224-0.5,0.5v5.925l-3.723-3.722c-0.195-0.195-0.512-0.195-0.707,0c-0.195,0.195-0.195,0.512,0,0.707l4.43,4.43v6.453
		L5.248,4.541c-0.195-0.195-0.512-0.195-0.707,0c-0.195,0.195-0.195,0.512,0,0.707l9.753,9.753H7.845l-4.434-4.428
		c-0.195-0.194-0.512-0.195-0.708,0c-0.195,0.196-0.195,0.512,0,0.708l3.726,3.72H0.5c-0.276,0-0.5,0.224-0.5,0.5s0.224,0.5,0.5,0.5
		h5.925l-3.722,3.723c-0.195,0.195-0.195,0.512,0,0.707c0.098,0.098,0.226,0.146,0.354,0.146s0.256-0.049,0.354-0.146l4.43-4.43
		h6.453l-9.753,9.753c-0.195,0.195-0.195,0.513,0,0.707c0.098,0.099,0.226,0.146,0.354,0.146s0.256-0.049,0.354-0.146l9.752-9.753
		v6.449l-4.428,4.434c-0.195,0.196-0.195,0.512,0,0.708c0.195,0.194,0.512,0.195,0.708,0l3.72-3.726v5.928
		c0,0.275,0.224,0.5,0.5,0.5s0.5-0.225,0.5-0.5v-5.925l3.724,3.722c0.098,0.098,0.227,0.146,0.354,0.146s0.256-0.049,0.354-0.146
		c0.194-0.195,0.194-0.512,0-0.707l-4.431-4.43v-6.453l9.753,9.753c0.1,0.099,0.227,0.146,0.354,0.146s0.256-0.049,0.354-0.146
		c0.194-0.194,0.194-0.512,0-0.707l-9.754-9.753h6.448l4.435,4.428c0.099,0.098,0.228,0.146,0.354,0.146
		c0.129,0,0.257-0.049,0.354-0.146c0.195-0.195,0.195-0.512,0-0.707l-3.727-3.721h5.93c0.275,0,0.5-0.224,0.5-0.5
		S30.775,15.001,30.501,15.001z"/>
</g>
<g>
</g>
<g>
</g>
<g>
</g>
<g>
</g>
<g>
</g>
<g>
</g>
<g>
</g>
<g>
</g>
<g>
</g>
<g>
</g>
<g>
</g>
<g>
</g>
<g>
</g>
<g>
</g>
<g>
</g>
</svg>
